<svg xmlns="http://www.w3.org/2000/svg" xmlns:xlink="http://www.w3.org/1999/xlink" id="Layer_1" x="0" y="0" enable-background="new 0 0 511.997 511.997" version="1.1" viewBox="0 0 511.997 511.997" xml:space="preserve"><g><path fill="#B3404A" d="M458.26,469.518H123.382c-21.466,0-42.087-10.164-55.163-27.19l-57.619-75.029 c-1.944-2.531-2.989-5.636-2.97-8.825l0.329-57.017c0.046-7.909,6.526-14.307,14.392-14.271c17.05,0.044,41.489,0.122,61.077,0.24 c8.656,0.052,15.987,0.111,21.171,0.174c11.034,0.135,14,0.171,18.239,4.408l84.467,84.467c4.728,4.728,11.014,7.332,17.7,7.332 c6.686,0,12.972-2.604,17.699-7.331l0.155-0.155c9.731-9.731,9.731-25.611-0.029-35.371l-78.995-77.732 c-9.47-9.317-22.002-14.449-35.288-14.449H14.354C6.426,248.768,0,242.34,0,234.414s6.426-14.354,14.354-14.354h114.192 c20.867,0,40.551,8.06,55.424,22.696l79.077,77.814c21.035,21.034,21.035,55.127,0.083,76.081l-0.155,0.154 c-10.121,10.123-23.616,15.712-37.972,15.712c-14.354,0-27.849-5.591-38.001-15.741l-80.442-80.441 c-9.055-0.131-30.674-0.278-69.978-0.399l-0.218,37.782l54.62,71.125c7.678,9.999,19.788,15.968,32.394,15.968h334.878 c13.802,0,25.031-11.228,25.031-25.031V415.6c0-13.802-11.228-25.031-25.031-25.031H319.712c-7.928,0-14.354-6.428-14.354-14.354 c0-7.927,6.427-14.354,14.354-14.354h138.545c29.632,0,53.74,24.107,53.74,53.74v0.179C512,445.411,487.892,469.518,458.26,469.518 z"/><path fill="#B3404A" d="M380.414,148.828c-6.648,0-12.615-4.645-14.034-11.41c-1.082-5.165-9.841-51.192,15.796-76.831 c25.64-25.638,71.667-16.882,76.832-15.797c5.577,1.17,9.933,5.526,11.102,11.102c0.164,0.784,3.992,19.417,1.212,39.324 c-1.097,7.852-8.354,13.33-16.202,12.231c-7.852-1.098-13.328-8.351-12.231-16.203c0.999-7.15,0.834-14.242,0.392-19.679 c-12.705-1.021-31.308-0.175-40.805,9.323c-12.564,12.564-9.917,41.493-8,50.637c1.628,7.759-3.343,15.368-11.102,16.996 C382.382,148.729,381.39,148.828,380.414,148.828z"/></g><path fill="#F4B2B0" d="M403.832,136.227c-7.48,3.146-18.028,6.271-24.114,6.271c-6.086,0-16.634-3.125-24.114-6.271	c-16.743-7.044-81.469,0-72.168,60.373c9.302,60.373,11.32,115.714,53.977,115.714c24.704,0,33.72-7.888,42.304-7.888	c8.584,0,17.6,7.888,42.304,7.888c42.657,0,44.677-55.342,53.977-115.714C485.301,136.227,420.574,129.183,403.832,136.227z"/><path fill="#B3404A" d="M422.022,326.67c-17.88,0-28.996-3.719-36.353-6.18c-2.254-0.754-5.058-1.692-5.956-1.708	c-0.891,0.017-3.696,0.955-5.95,1.708c-7.357,2.46-18.471,6.18-36.351,6.18c-23.108,0-39.95-12.362-50.06-36.745	c-7.815-18.847-11.318-43.686-15.028-69.984c-0.973-6.9-1.979-14.034-3.078-21.157c-4.222-27.407,4.908-44.836,13.311-54.634	c19.499-22.735,49.751-24.5,58.559-24.5c5.519,0,13.477,0.58,20.05,3.345c7.212,3.035,15.563,5.149,18.547,5.149	s11.336-2.114,18.546-5.147c6.574-2.766,14.534-3.346,20.052-3.346c8.806,0,39.058,1.766,58.559,24.502	c8.403,9.797,17.534,27.228,13.311,54.633c-1.097,7.123-2.103,14.255-3.076,21.154c-3.709,26.297-7.213,51.138-15.028,69.985	C461.973,314.306,445.13,326.67,422.022,326.67z M379.718,290.072c5.521,0,10.371,1.622,15.061,3.192	c6.58,2.201,14.039,4.695,27.243,4.695c22.716,0,28.616-24.995,36.661-82.031c0.986-6.988,2.004-14.212,3.129-21.514	c2.057-13.347-0.208-23.968-6.729-31.571c-9.17-10.69-25.538-14.484-36.767-14.484c-4.988,0-8.016,0.719-8.918,1.1	c-8.106,3.411-20.745,7.394-29.679,7.394s-21.573-3.983-29.681-7.395c-0.903-0.379-3.93-1.098-8.917-1.098	c-11.231,0-27.599,3.794-36.767,14.484c-6.521,7.602-8.785,18.223-6.729,31.571c1.125,7.304,2.145,14.53,3.131,21.517	c8.046,57.033,13.944,82.03,36.661,82.03c13.205,0,20.663-2.495,27.243-4.695C369.347,291.694,374.197,290.072,379.718,290.072z"/></svg>