<svg xmlns="http://www.w3.org/2000/svg" xmlns:xlink="http://www.w3.org/1999/xlink" id="Layer_1" x="0" y="0" enable-background="new 0 0 512 512" version="1.1" viewBox="0 0 512 512" xml:space="preserve"><g><path fill="#B3404A" d="M361.195,511.889c-8.148,0-14.754-6.605-14.754-14.754V398.68c0-8.148,6.605-14.754,14.754-14.754 s14.754,6.605,14.754,14.754v98.456C375.949,505.283,369.344,511.889,361.195,511.889z"/><path fill="#B3404A" d="M406.213,386.704c-5.856,0-11.396-3.508-13.703-9.277l-10.58-26.45h-41.468l-10.58,26.45 c-3.026,7.566-11.611,11.244-19.178,8.218c-7.564-3.026-11.245-11.613-8.218-19.178l14.29-35.723 c2.241-5.6,7.666-9.274,13.699-9.274h61.445c6.033,0,11.458,3.672,13.699,9.274l14.29,35.723 c3.026,7.566-0.654,16.152-8.218,19.178C409.891,386.364,408.037,386.704,406.213,386.704z"/><path fill="#B3404A" d="M164.176,512c-8.148,0-14.754-6.605-14.754-14.754v-98.568c0-8.148,6.605-14.754,14.754-14.754 c8.148,0,14.754,6.605,14.754,14.754v98.568C178.93,505.395,172.325,512,164.176,512z"/></g><path fill="#F4B2B0" d="M190.504,332.191c42.032-25.285,119.615-83.826,119.615-171.494	c0-80.602-65.341-145.943-145.943-145.943S18.231,80.095,18.231,160.699c0,87.666,77.584,146.208,119.615,171.494h52.657V332.191z"/><g><path fill="#B3404A" d="M190.505,346.945h-52.659c-2.679,0-5.31-0.73-7.606-2.111 C82.899,316.353,3.477,254.56,3.477,160.699C3.477,72.089,75.567,0,164.176,0s160.697,72.089,160.697,160.699 c0,93.863-79.422,155.654-126.764,184.135C195.814,346.216,193.185,346.945,190.505,346.945z M141.988,317.437h44.376 c42.294-26.107,109.002-79.539,109.002-156.739c0-72.339-58.852-131.191-131.19-131.191S32.986,88.36,32.986,160.699 C32.985,237.899,99.694,291.331,141.988,317.437z"/><path fill="#B3404A" d="M213.732,386.704c-5.856,0-11.396-3.508-13.703-9.277l-12.021-30.053h-47.663l-12.021,30.053 c-3.026,7.566-11.616,11.242-19.178,8.218c-7.564-3.026-11.245-11.613-8.218-19.178l15.732-39.326 c2.241-5.6,7.666-9.274,13.699-9.274h67.641c6.033,0,11.458,3.672,13.699,9.274l15.732,39.326 c3.026,7.566-0.654,16.152-8.218,19.178C217.412,386.364,215.557,386.704,213.732,386.704z"/><path fill="#B3404A" d="M385.112,350.587H337.28c-2.679,0-5.31-0.73-7.606-2.111c-7.93-4.771-15.727-9.907-23.174-15.266 c-6.614-4.76-8.117-13.979-3.358-20.593c4.758-6.614,13.978-8.117,20.593-3.358c5.708,4.107,11.645,8.073,17.693,11.821h39.54 c38.188-23.635,98.049-71.747,98.049-141.028c0-64.966-52.854-117.818-117.82-117.818c-3.362,0-6.835,0.164-10.621,0.503 c-8.113,0.724-15.283-5.266-16.009-13.382c-0.724-8.116,5.266-15.283,13.382-16.009c4.667-0.418,9-0.62,13.247-0.62 c81.237,0,147.327,66.091,147.327,147.326c0,85.928-72.556,142.406-115.805,168.424 C390.421,349.857,387.792,350.587,385.112,350.587z"/></g></svg>