<?xml version="1.0" encoding="iso-8859-1"?>
<!-- Generator: Adobe Illustrator 19.0.0, SVG Export Plug-In . SVG Version: 6.00 Build 0)  -->
<svg version="1.1" id="Layer_1" xmlns="http://www.w3.org/2000/svg" xmlns:xlink="http://www.w3.org/1999/xlink" x="0px" y="0px"
	 viewBox="0 0 512 512" style="enable-background:new 0 0 512 512;" xml:space="preserve">
<g>
	<path style="fill:#B3404A;" d="M201.267,92.619c-25.536,0-46.311-20.774-46.311-46.31S175.732,0,201.267,0
		c25.536,0,46.31,20.774,46.31,46.31S226.803,92.619,201.267,92.619z M201.267,27.461c-10.394,0-18.85,8.455-18.85,18.849
		s8.457,18.849,18.85,18.849s18.849-8.455,18.849-18.849S211.661,27.461,201.267,27.461z"/>
	<path style="fill:#B3404A;" d="M290.81,512H80.924c-30.252,0-54.864-24.612-54.864-54.864V240.367
		c0-96.611,78.598-175.209,175.209-175.209c7.583,0,13.73,6.147,13.73,13.73c0,7.583-6.147,13.73-13.73,13.73
		c-81.468,0-147.748,66.279-147.748,147.748v216.769c0,15.11,12.293,27.403,27.403,27.403H290.81c7.582,0,13.73,6.147,13.73,13.73
		S298.392,512,290.81,512z"/>
	<path style="fill:#B3404A;" d="M362.747,498.268c-7.582,0-13.73-6.147-13.73-13.73v-116.05c0-7.583,6.148-13.73,13.73-13.73
		c7.582,0,13.73,6.147,13.73,13.73v116.05C376.478,492.121,370.329,498.268,362.747,498.268z"/>
</g>
<path style="fill:#F4B2B0;" d="M362.738,239.689c-0.367-88.868-72.514-160.799-161.47-160.799l0,0
	c-88.955,0-161.103,71.93-161.47,160.799H362.738z"/>
<g>
	<path style="fill:#B3404A;" d="M362.738,253.418H39.799c-3.651,0-7.152-1.454-9.728-4.041s-4.016-6.094-4.002-9.746
		c0.192-46.646,18.502-90.469,51.553-123.396c33.064-32.938,76.975-51.077,123.646-51.077s90.583,18.139,123.646,51.077
		c33.053,32.927,51.362,76.75,51.555,123.396c0.015,3.651-1.425,7.158-4.001,9.746C369.89,251.964,366.388,253.418,362.738,253.418z
		 M54.225,225.957H348.31c-7.283-74.685-70.563-133.338-147.042-133.338S61.508,151.274,54.225,225.957z"/>
	<path style="fill:#B3404A;" d="M110.953,510.694c-7.583,0-13.73-6.147-13.73-13.73V239.688c0-7.583,6.147-13.73,13.73-13.73
		s13.73,6.147,13.73,13.73v257.275C124.684,504.547,118.537,510.694,110.953,510.694z"/>
	<path style="fill:#B3404A;" d="M201.267,510.694c-7.583,0-13.73-6.147-13.73-13.73V369.828c0-7.583,6.147-13.73,13.73-13.73
		s13.73,6.147,13.73,13.73v127.136C214.998,504.547,208.851,510.694,201.267,510.694z"/>
	<path style="fill:#B3404A;" d="M291.581,510.694c-7.582,0-13.73-6.147-13.73-13.73V369.828c0-7.583,6.148-13.73,13.73-13.73
		c7.582,0,13.73,6.147,13.73,13.73v127.136C305.312,504.547,299.163,510.694,291.581,510.694z"/>
	<path style="fill:#B3404A;" d="M291.581,382.218H110.953c-7.583,0-13.73-6.147-13.73-13.73v-128.8c0-7.583,6.147-13.73,13.73-13.73
		H291.58c7.582,0,13.73,6.147,13.73,13.73s-6.148,13.73-13.73,13.73H124.684v101.339H291.58c7.582,0,13.73,6.147,13.73,13.73
		C305.31,376.071,299.163,382.218,291.581,382.218z"/>
	<path style="fill:#B3404A;" d="M434.023,382.218H291.581c-7.582,0-13.73-6.147-13.73-13.73c0-7.583,6.148-13.73,13.73-13.73
		h142.441c13.485,0,24.456-10.971,24.456-24.455v-52.429c0-13.485-10.971-24.455-24.456-24.455H305.312v56.136
		c0,7.583-6.148,13.73-13.73,13.73c-7.582,0-13.73-6.147-13.73-13.73v-69.867c0-7.583,6.148-13.73,13.73-13.73h142.441
		c28.628,0,51.917,23.289,51.917,51.916v52.429C485.938,358.93,462.649,382.218,434.023,382.218z"/>
</g>
<g>
</g>
<g>
</g>
<g>
</g>
<g>
</g>
<g>
</g>
<g>
</g>
<g>
</g>
<g>
</g>
<g>
</g>
<g>
</g>
<g>
</g>
<g>
</g>
<g>
</g>
<g>
</g>
<g>
</g>
</svg>
