<?xml version="1.0" encoding="iso-8859-1"?>
<!-- Generator: Adobe Illustrator 19.0.0, SVG Export Plug-In . SVG Version: 6.00 Build 0)  -->
<svg version="1.1" id="Layer_1" xmlns="http://www.w3.org/2000/svg" xmlns:xlink="http://www.w3.org/1999/xlink" x="0px" y="0px"
	 viewBox="0 0 511.997 511.997" style="enable-background:new 0 0 511.997 511.997;" xml:space="preserve">
<path style="fill:#B3404A;" d="M413.575,495.261H98.425c-34.239,0-62.095-27.856-62.095-62.095V163.355
	c0-7.832,6.35-14.184,14.184-14.184s14.184,6.352,14.184,14.184v269.812c0,18.597,15.13,33.727,33.727,33.727h315.149
	c18.597,0,33.725-15.13,33.725-33.727V295.268c0-7.832,6.352-14.184,14.184-14.184c7.832,0,14.184,6.352,14.184,14.184v137.898
	C475.668,467.405,447.813,495.261,413.575,495.261z"/>
<path style="fill:#F4B2B0;" d="M214.504,314.048c24.774,0,35.888,13.885,40.261,22.042c0.549,1.024,2.04,1.023,2.587-0.001
	c4.359-8.156,15.412-22.039,40.183-22.039c28.219,0,53.041,19.263,53.041,54.439c0,14.234-2.901,26.428-10.951,40.037
	c-16.407,27.732-70.455,63.685-81.556,70.77c-1.227,0.783-2.781,0.786-4.011,0.006c-11.112-7.051-65.17-42.824-81.705-70.774
	c-8.051-13.61-10.932-25.803-10.932-40.037C161.422,333.311,186.285,314.048,214.504,314.048z"/>
<path style="fill:#B3404A;" d="M256.059,494.066c-3.407,0-6.73-0.967-9.61-2.798c-11.122-7.058-67.591-43.889-86.305-75.523
	c-8.926-15.089-12.907-29.663-12.907-47.258c0-45.053,33.839-68.623,67.266-68.623c19.85,0,33.081,7.322,41.543,15.119
	c8.447-7.798,21.657-15.119,41.49-15.119c33.408,0,67.226,23.571,67.226,68.623c0,17.573-3.989,32.148-12.929,47.26
	c-18.967,32.063-79.315,71.151-86.134,75.503C262.809,493.095,259.479,494.066,256.059,494.066z M214.503,328.232
	c-17.944,0-38.898,10.543-38.898,40.256c0,12.557,2.594,22.065,8.954,32.815c11.758,19.876,49.135,47.623,71.484,62.382
	c22.344-14.831,59.705-42.658,71.374-62.382c6.376-10.776,8.976-20.282,8.976-32.815c0-29.713-20.933-40.256-38.858-40.256
	c-16.452,0-24.13,7.906-27.673,14.54c-2.726,5.102-8.015,8.269-13.804,8.269c-5.779,0-11.063-3.16-13.794-8.245
	C238.703,336.149,230.996,328.232,214.503,328.232z"/>
<path style="fill:#F4B2B0;" d="M433.587,30.922H78.413c0,0-64.229,79.447-64.229,108.971c0,46.506,37.701,84.207,84.207,84.207
	c36.05,0,66.795-22.662,78.805-54.51c12.008,31.849,42.753,54.51,78.805,54.51s66.797-22.662,78.805-54.51
	c12.008,31.849,42.753,54.51,78.805,54.51c46.506,0,84.207-37.701,84.207-84.207C497.816,110.369,433.587,30.922,433.587,30.922z"/>
<g>
	<path style="fill:#B3404A;" d="M413.609,238.283c-31.348,0-60.496-15.175-78.805-39.551
		c-18.306,24.375-47.455,39.551-78.805,39.551c-31.348,0-60.496-15.175-78.805-39.551c-18.307,24.375-47.457,39.551-78.805,39.551
		C44.138,238.283,0,194.145,0,139.891c0-9.8,3.584-28.086,34.579-73.547c16.197-23.757,32.134-43.512,32.803-44.342
		c2.692-3.332,6.746-5.267,11.029-5.267h355.172c4.284,0,8.337,1.935,11.029,5.267c0.671,0.83,16.607,20.585,32.805,44.342
		c30.995,45.461,34.579,63.746,34.579,73.547C512,194.145,467.862,238.283,413.609,238.283z M334.804,155.403
		c5.903,0,11.19,3.655,13.272,9.18c10.222,27.114,36.558,45.332,65.531,45.332c38.612,0,70.023-31.412,70.023-70.023
		c0-14.398-28.758-59.158-56.871-94.786H85.239c-28.113,35.627-56.871,80.388-56.871,94.786c0,38.612,31.412,70.023,70.023,70.023
		c28.974,0,55.31-18.218,65.533-45.332c2.082-5.523,7.369-9.18,13.272-9.18c5.903,0,11.19,3.657,13.272,9.18
		c10.224,27.114,36.558,45.332,65.533,45.332c28.975,0,55.309-18.218,65.531-45.331
		C323.614,159.061,328.901,155.403,334.804,155.403z"/>
	<path style="fill:#B3404A;" d="M400.796,118.349H31.121c-7.834,0-14.184-6.352-14.184-14.184s6.35-14.184,14.184-14.184h369.675
		c7.832,0,14.184,6.352,14.184,14.184S408.63,118.349,400.796,118.349z"/>
</g>
<g>
</g>
<g>
</g>
<g>
</g>
<g>
</g>
<g>
</g>
<g>
</g>
<g>
</g>
<g>
</g>
<g>
</g>
<g>
</g>
<g>
</g>
<g>
</g>
<g>
</g>
<g>
</g>
<g>
</g>
</svg>
