<svg xmlns="http://www.w3.org/2000/svg" xmlns:xlink="http://www.w3.org/1999/xlink" id="Layer_1" x="0" y="0" enable-background="new 0 0 512 512" version="1.1" viewBox="0 0 512 512" xml:space="preserve"><g><path fill="#B3404A" d="M117.688,512h-11.433c-32.626,0-59.938-24.452-63.53-56.879L22.702,274.397 c-0.462-4.173,0.874-8.344,3.674-11.47c2.8-3.128,6.799-4.915,10.997-4.915h149.196c8.152,0,14.76,6.61,14.76,14.76 s-6.608,14.76-14.76,14.76H53.859l18.206,164.337c1.934,17.451,16.632,30.61,34.19,30.61h11.433 c17.558,0,32.256-13.159,34.19-30.61l2.893-26.129c0.897-8.101,8.189-13.928,16.297-13.047c8.102,0.897,13.943,8.194,13.045,16.296 l-2.893,26.13C177.626,487.548,150.313,512,117.688,512z"/><path fill="#B3404A" d="M111.971,180.525c-49.771,0-90.262-40.492-90.262-90.262S62.201,0,111.971,0 s90.262,40.492,90.262,90.262c0,8.151-6.608,14.76-14.76,14.76s-14.76-6.61-14.76-14.76c0-33.493-27.248-60.741-60.741-60.741 S51.229,56.769,51.229,90.262s27.248,60.741,60.741,60.741c8.152,0,14.76,6.61,14.76,14.76S120.123,180.525,111.971,180.525z"/></g><path fill="#F4B2B0" d="M201.756,358.477H22.185V205.43c0-22.164,17.968-40.134,40.134-40.134h99.304	c22.164,0,40.134,17.968,40.134,40.134V358.477z"/><g><path fill="#B3404A" d="M201.756,373.237H22.186c-8.152,0-14.76-6.61-14.76-14.76V205.431 c0-30.269,24.625-54.894,54.893-54.894h99.304c30.269,0,54.894,24.626,54.894,54.894v153.047 C216.517,366.629,209.908,373.237,201.756,373.237z M36.947,343.716h150.05V205.43c0-13.991-11.382-25.373-25.373-25.373H62.319 c-13.991,0-25.372,11.383-25.372,25.373C36.947,205.43,36.947,343.716,36.947,343.716z"/><path fill="#B3404A" d="M377.321,512h-11.433c-32.626,0-59.936-24.452-63.53-56.879l-20.023-180.724 c-0.462-4.173,0.874-8.344,3.674-11.47c2.8-3.128,6.799-4.915,10.997-4.915h149.196c8.151,0,14.76,6.61,14.76,14.76 s-6.61,14.76-14.76,14.76h-132.71l18.207,164.337c1.934,17.451,16.632,30.61,34.188,30.61h11.433 c17.558,0,32.256-13.159,34.188-30.61l2.583-23.322c0.897-8.102,8.207-13.928,16.296-13.047 c8.102,0.897,13.943,8.194,13.047,16.296l-2.583,23.323C437.258,487.548,409.946,512,377.321,512z"/><path fill="#B3404A" d="M371.605,180.525c-49.771,0-90.262-40.492-90.262-90.262S321.834,0,371.605,0 s90.262,40.492,90.262,90.262c0,8.151-6.61,14.76-14.76,14.76s-14.76-6.61-14.76-14.76c0-33.493-27.248-60.741-60.741-60.741 s-60.741,27.248-60.741,60.741s27.248,60.741,60.741,60.741c8.151,0,14.76,6.61,14.76,14.76S379.755,180.525,371.605,180.525z"/></g><path fill="#F4B2B0" d="M489.786,358.477H253.422l30.455-159.293c3.759-19.664,20.958-33.886,40.978-33.886h93.494	c20.021,0,37.218,14.222,40.978,33.886L489.786,358.477z"/><path fill="#B3404A" d="M489.815,373.237c-0.012-0.001-0.022-0.001-0.03,0H253.422c-4.4,0-8.571-1.963-11.376-5.354	c-2.803-3.392-3.948-7.857-3.123-12.179l30.455-159.293c5.083-26.582,28.415-45.875,55.477-45.875h93.494	c27.063,0,50.397,19.293,55.477,45.875L504.1,354.748c0.31,1.191,0.474,2.44,0.474,3.729	C504.576,366.629,497.967,373.237,489.815,373.237z M271.272,343.716h200.664l-27.105-141.761	c-2.427-12.69-13.562-21.899-26.48-21.899h-93.494c-12.918,0-24.055,9.209-26.48,21.899L271.272,343.716z"/></svg>