<?xml version="1.0" encoding="iso-8859-1"?>
<!-- Generator: Adobe Illustrator 19.0.0, SVG Export Plug-In . SVG Version: 6.00 Build 0)  -->
<svg version="1.1" id="Layer_1" xmlns="http://www.w3.org/2000/svg" xmlns:xlink="http://www.w3.org/1999/xlink" x="0px" y="0px"
	 viewBox="0 0 512 512" style="enable-background:new 0 0 512 512;" xml:space="preserve">
<g>
	<path style="fill:#B3404A;" d="M325.712,512H110.539c-28.486,0-51.66-23.174-51.66-51.66V225.284
		c0-17.429,8.742-33.474,23.388-42.924l132.997-85.806c24.747-15.964,56.728-15.964,81.473,0l132.998,85.806
		c14.645,9.448,23.388,25.494,23.388,42.924v256.394c0,8.157-6.613,14.772-14.772,14.772s-14.772-6.615-14.772-14.772V225.284
		c0-7.349-3.687-14.114-9.86-18.097l-132.997-85.806c-15.017-9.692-34.424-9.692-49.441,0L98.284,207.187
		c-6.175,3.982-9.86,10.748-9.86,18.097V460.34c0,12.196,9.921,22.116,22.116,22.116h215.173c8.158,0,14.772,6.615,14.772,14.772
		C340.485,505.385,333.87,512,325.712,512z"/>
	<path style="fill:#B3404A;" d="M486.918,172.983c-2.842,0-5.715-0.818-8.249-2.529L281.506,37.412
		c-15.493-10.455-35.517-10.455-51.01,0L33.331,170.455c-6.765,4.563-15.945,2.777-20.508-3.981
		c-4.563-6.762-2.78-15.945,3.982-20.508L213.97,12.923c25.534-17.231,58.53-17.231,84.061,0l197.162,133.043
		c6.763,4.563,8.545,13.745,3.982,20.508C496.322,170.701,491.663,172.983,486.918,172.983z"/>
</g>
<path style="fill:#F4B2B0;" d="M246.988,336.437c0,0,0.103,2.533,0.245,3.691c-3.154,5.378-25.762,38.724-107.495,51.662
	c-6.183-6.918-23.819-30.607-23.819-75.538c0-44.956,17.663-68.647,23.819-75.531c81.747,12.939,104.355,46.299,107.495,51.664
	c-0.143,1.151-0.245,3.69-0.245,3.69V336.437z"/>
<path style="fill:#B3404A;" d="M139.738,406.562c-4.169,0-8.186-1.765-11.012-4.928c-8.291-9.275-27.577-36.166-27.577-85.382
	c0-49.225,19.289-76.105,27.58-85.377c3.346-3.743,8.361-5.533,13.32-4.743c87.621,13.868,113.615,51.41,117.936,58.796
	c1.64,2.802,2.31,6.067,1.909,9.29c-0.034,0.321-0.095,1.369-0.132,2.176v39.727c0.04,0.886,0.102,1.895,0.139,2.235
	c0.399,3.225-0.279,6.445-1.923,9.249c-6.084,10.371-32.567,45.266-117.927,58.778C141.277,406.503,140.504,406.562,139.738,406.562
	z M146.031,256.794c-6.331,9.619-15.339,28.715-15.339,59.46c0,30.741,9.009,49.843,15.342,59.466
	c57.415-10.709,79.616-31.904,86.184-39.928v-39.074C225.665,288.699,203.494,267.506,146.031,256.794z"/>
<path style="fill:#F4B2B0;" d="M265.008,296.077c0,0-0.096-2.539-0.245-3.69c3.154-5.38,25.766-38.725,107.495-51.671
	c6.183,6.926,23.827,30.616,23.827,75.538c0,44.956-17.671,68.653-23.819,75.538l0,0c-81.754-12.946-104.355-46.296-107.501-51.663
	c0.149-1.16,0.245-3.691,0.245-3.691v-40.361H265.008z"/>
<path style="fill:#B3404A;" d="M372.265,406.562c-0.768,0-1.539-0.059-2.312-0.182c-85.377-13.518-111.854-48.408-117.934-58.781
	c-1.657-2.824-2.328-6.121-1.907-9.368c0.031-0.301,0.09-1.319,0.123-2.093v-39.762c-0.035-0.843-0.095-1.817-0.13-2.151
	c-0.425-3.251,0.254-6.477,1.911-9.308c6.079-10.371,32.549-45.269,117.927-58.793c4.957-0.787,9.984,1.004,13.33,4.752
	c8.293,9.287,27.579,36.2,27.579,85.376c0,49.194-19.283,76.095-27.574,85.377C380.454,404.794,376.433,406.562,372.265,406.562z
	 M279.779,335.793c6.565,8.023,28.762,29.212,86.188,39.926c6.333-9.631,15.343-28.738,15.343-59.466
	c0-30.719-9.017-49.831-15.352-59.465c-57.429,10.718-79.618,31.913-86.18,39.934L279.779,335.793L279.779,335.793z"/>
<path style="fill:#F4B2B0;" d="M281.073,336.608c0,7.77-6.312,14.082-14.082,14.082h-21.976c-7.77,0-14.089-6.312-14.089-14.082
	v-40.7c0-7.763,6.319-14.082,14.089-14.082h21.976c7.763,0,14.082,6.312,14.082,14.082V336.608z"/>
<g>
	<path style="fill:#B3404A;" d="M266.991,365.462h-21.974c-15.914,0-28.861-12.944-28.861-28.854v-40.702
		c0-15.911,12.947-28.852,28.861-28.852h21.974c15.911,0,28.854,12.943,28.854,28.852v40.702
		C295.845,352.517,282.902,365.462,266.991,365.462z M245.699,335.918h20.602v-39.321h-20.602V335.918z"/>
	<path style="fill:#B3404A;" d="M479.546,331.024h-76.077c-8.158,0-14.772-6.615-14.772-14.772s6.613-14.772,14.772-14.772h76.077
		c8.158,0,14.772,6.615,14.772,14.772S487.704,331.024,479.546,331.024z"/>
	<path style="fill:#B3404A;" d="M108.534,331.024H32.455c-8.158,0-14.772-6.615-14.772-14.772s6.613-14.772,14.772-14.772h76.077
		c8.158,0,14.772,6.615,14.772,14.772S116.691,331.024,108.534,331.024z"/>
</g>
<g>
</g>
<g>
</g>
<g>
</g>
<g>
</g>
<g>
</g>
<g>
</g>
<g>
</g>
<g>
</g>
<g>
</g>
<g>
</g>
<g>
</g>
<g>
</g>
<g>
</g>
<g>
</g>
<g>
</g>
</svg>
