<svg xmlns="http://www.w3.org/2000/svg" xmlns:xlink="http://www.w3.org/1999/xlink" id="Layer_1" x="0" y="0" enable-background="new 0 0 512 512" version="1.1" viewBox="0 0 512 512" xml:space="preserve"><path fill="#B3404A" d="M299.064,452.585c-7.797,0-14.12-6.322-14.12-14.12v-96.306c0-18.13,7.004-35.233,19.72-48.155	l65.626-66.691c9.021-9.021,20.908-13.945,33.552-13.945c12.645,0,24.531,4.924,33.472,13.865l0.075,0.075	c8.973,8.972,13.897,20.86,13.897,33.504c0,12.645-4.922,24.531-13.863,33.472l-67.264,67.264	c-0.105,7.873-0.222,25.38-0.321,56.168l29.165,0.169l59.437-45.645c7.94-6.096,12.678-15.711,12.678-25.723V76.799	c0-10.529-8.565-19.096-19.095-19.096h-0.151c-10.529,0-19.096,8.567-19.096,19.096v104.136c0,7.799-6.323,14.12-14.12,14.12	c-7.797,0-14.12-6.322-14.12-14.12V76.799c0-26.101,21.235-47.336,47.336-47.336h0.151c26.101,0,47.335,21.235,47.335,47.336	v269.716c0,18.728-8.866,36.715-23.719,48.121l-63.276,48.593c-2.488,1.912-5.541,2.96-8.681,2.921l-48.086-0.278	c-7.782-0.045-14.059-6.377-14.038-14.157c0.047-17.954,0.114-36.964,0.203-51.516c0.044-7.306,0.092-13.492,0.147-17.868	c0.116-9.445,0.154-12.628,4.308-16.782l71.237-71.237c3.608-3.606,5.593-8.401,5.593-13.503c0-5.102-1.985-9.895-5.593-13.503	l-0.075-0.075c-3.64-3.639-8.435-5.625-13.536-5.625s-9.895,1.987-13.503,5.593l-65.546,66.61	c-7.486,7.608-11.61,17.676-11.61,28.349v96.306C313.184,446.264,306.863,452.585,299.064,452.585z"/><rect width="112.961" height="76.715" x="299.304" y="421.161" fill="#F4B2B0"/><g><path fill="#B3404A" d="M412.267,512H299.304c-7.797,0-14.12-6.322-14.12-14.12v-76.713c0-7.799,6.323-14.12,14.12-14.12 h112.962c7.797,0,14.12,6.322,14.12,14.12v76.713C426.387,505.677,420.065,512,412.267,512z M313.424,483.76h84.722v-48.473 h-84.722V483.76z"/><path fill="#B3404A" d="M212.934,452.585c-7.797,0-14.12-6.322-14.12-14.12v-96.306c0-10.673-4.123-20.741-11.61-28.348 l-65.626-66.692c-3.527-3.526-8.322-5.513-13.423-5.513c-5.1,0-9.895,1.987-13.503,5.593l-0.141,0.14 c-3.574,3.575-5.561,8.37-5.561,13.471c0,5.1,1.985,9.895,5.593,13.503l71.237,71.237c4.153,4.154,4.192,7.335,4.308,16.782 c0.054,4.376,0.102,10.562,0.147,17.868c0.089,14.552,0.155,33.562,0.203,51.516c0.021,7.782-6.258,14.112-14.038,14.157 l-48.086,0.278c-0.027,0-0.054,0-0.082,0c-3.109,0-6.132-1.026-8.601-2.921l-63.274-48.594 c-14.853-11.405-23.719-29.392-23.719-48.12V76.799c0-26.101,21.234-47.336,47.335-47.336h0.151 c26.101,0,47.336,21.235,47.336,47.336v104.136c0,7.799-6.323,14.12-14.12,14.12s-14.12-6.322-14.12-14.12V76.799 c0-10.529-8.567-19.096-19.096-19.096h-0.151c-10.529,0-19.095,8.567-19.095,19.096v269.716c0,10.01,4.739,19.626,12.678,25.721 l59.437,45.646l29.165-0.169c-0.097-30.789-0.215-48.295-0.321-56.168L74.577,294.28c-8.941-8.941-13.863-20.827-13.863-33.472 c0-12.645,4.922-24.531,13.863-33.472l0.141-0.138c8.908-8.908,20.795-13.832,33.439-13.832s24.531,4.924,33.472,13.865 l65.705,66.773c12.717,12.923,19.72,30.025,19.72,48.155v96.306C227.054,446.264,220.733,452.585,212.934,452.585z"/></g><rect width="112.961" height="76.715" x="99.73" y="421.161" fill="#F4B2B0"/><path fill="#B3404A" d="M212.694,512H99.732c-7.797,0-14.12-6.322-14.12-14.12v-76.713c0-7.799,6.323-14.12,14.12-14.12	h112.962c7.797,0,14.12,6.322,14.12,14.12v76.713C226.814,505.677,220.493,512,212.694,512z M113.852,483.76h84.722v-48.473h-84.722	V483.76z"/><circle cx="255.998" cy="126.305" r="112.184" fill="#F4B2B0"/><g><path fill="#B3404A" d="M255.999,252.605c-33.737,0-65.454-13.137-89.31-36.993c-49.245-49.244-49.245-129.373,0-178.618 C190.545,13.137,222.263,0,255.999,0s65.454,13.137,89.31,36.993c49.245,49.245,49.245,129.374,0,178.62 C321.455,239.467,289.736,252.605,255.999,252.605z M255.999,28.24c-26.194,0-50.818,10.2-69.34,28.722 c-38.234,38.236-38.234,100.448,0,138.682c18.521,18.521,43.147,28.722,69.34,28.722s50.818-10.2,69.34-28.722 c38.234-38.234,38.234-100.446,0-138.682C306.819,38.441,282.194,28.24,255.999,28.24z"/><path fill="#B3404A" d="M223.656,247.856c-0.409,0-0.822-0.017-1.238-0.054c-7.769-0.675-13.52-7.52-12.846-15.289 l3.31-38.106c1.337-15.385,8.521-29.401,20.23-39.469l7.845-6.744c16.782-14.428,39.94-18.212,60.441-9.876l12.101,4.921 c0.099,0.041,0.199,0.082,0.298,0.126l47.879,20.762c7.153,3.102,10.44,11.418,7.337,18.572 c-3.104,7.153-11.418,10.443-18.572,7.337l-47.732-20.697l-11.951-4.86c-10.648-4.332-22.676-2.365-31.389,5.128l-7.845,6.745 c-6.082,5.229-9.812,12.508-10.505,20.498l-3.31,38.105C237.067,242.31,230.901,247.856,223.656,247.856z"/><path fill="#B3404A" d="M146.331,164.101c-5.801,0-11.238-3.602-13.3-9.38c-2.619-7.345,1.21-15.423,8.555-18.043 l65.06-23.211c0.77-0.274,1.155-0.822,1.343-1.233s0.349-1.059,0.054-1.822l-9.109-23.496c-3.403-8.784-2.523-18.838,2.355-26.893 l27.44-45.328c4.037-6.67,12.719-8.805,19.391-4.767s8.805,12.721,4.767,19.391l-27.441,45.33c-0.374,0.618-0.442,1.388-0.181,2.06 l9.109,23.496c3.009,7.763,2.758,16.207-0.706,23.778c-3.464,7.571-9.691,13.283-17.532,16.081l-65.061,23.211 C149.508,163.836,147.907,164.101,146.331,164.101z"/><path fill="#B3404A" d="M266.25,127.368c-0.717,0-1.442-0.055-2.173-0.168c-7.707-1.19-12.989-8.403-11.799-16.11 l2.632-17.044c2.451-15.878,13.274-29.367,28.244-35.204l51.842-20.217c7.266-2.835,15.452,0.761,18.284,8.026 c2.834,7.266-0.76,15.452-8.026,18.286l-51.842,20.216c-5.616,2.19-9.675,7.249-10.594,13.205l-2.632,17.044 C279.11,122.378,273.097,127.368,266.25,127.368z"/></g></svg>