<svg xmlns="http://www.w3.org/2000/svg" xmlns:xlink="http://www.w3.org/1999/xlink" id="Layer_1" x="0" y="0" enable-background="new 0 0 512 512" version="1.1" viewBox="0 0 512 512" xml:space="preserve"><g><path fill="#B3404A" d="M422.3,495.872H89.7c-30.556,0-55.417-24.86-55.417-55.417V179.196 c0-8.442,6.846-15.287,15.287-15.287s15.287,6.846,15.287,15.287v261.259c0,13.697,11.144,24.842,24.842,24.842h332.6 c13.697,0,24.842-11.144,24.842-24.842V264.704c0-8.442,6.846-15.287,15.287-15.287c8.442,0,15.287,6.846,15.287,15.287v175.752 C477.717,471.013,452.856,495.872,422.3,495.872z"/><path fill="#B3404A" d="M438.699,194.483H73.301C32.883,194.483,0,161.6,0,121.182s32.883-73.301,73.301-73.301h365.398 c40.418,0,73.301,32.883,73.301,73.301S479.117,194.483,438.699,194.483z M73.301,78.456c-23.559,0-42.727,19.167-42.727,42.727 s19.167,42.727,42.727,42.727h365.398c23.559,0,42.727-19.167,42.727-42.727s-19.167-42.727-42.727-42.727H73.301z"/></g><polygon fill="#F4B2B0" points="346.344 297.708 300.772 249.738 255.2 297.708 255.2 117.021 346.344 117.021"/><path fill="#B3404A" d="M255.197,312.997c-1.905,0-3.826-0.355-5.665-1.09c-5.809-2.321-9.619-7.942-9.619-14.197V117.02	c0-8.442,6.846-15.287,15.287-15.287h91.143c8.442,0,15.287,6.846,15.287,15.287v180.689c0,6.256-3.81,11.88-9.619,14.197	c-5.811,2.322-12.444,0.867-16.752-3.667l-34.488-36.304l-34.49,36.304C263.339,311.338,259.308,312.997,255.197,312.997z M270.488,132.307v127.113l19.202-20.213c2.886-3.038,6.893-4.757,11.083-4.757l0,0c4.19,0,8.197,1.72,11.083,4.757l19.201,20.213	V132.307H270.488z"/><polygon fill="#F4B2B0" points="256.8 345.683 211.228 297.713 165.656 345.683 165.656 117.021 256.8 117.021"/><path fill="#B3404A" d="M256.803,360.97c-4.111,0-8.142-1.659-11.086-4.757l-34.49-36.304l-34.488,36.304	c-4.309,4.534-10.944,5.987-16.752,3.667c-5.809-2.321-9.619-7.943-9.619-14.197V117.02c0-8.442,6.846-15.287,15.287-15.287h91.143	c8.442,0,15.287,6.846,15.287,15.287v228.663c0,6.254-3.81,11.878-9.619,14.197C260.631,360.615,258.707,360.97,256.803,360.97z M211.228,282.425c4.19,0,8.197,1.72,11.083,4.757l19.202,20.213V132.307h-60.568v175.087l19.201-20.211	C203.031,284.145,207.038,282.425,211.228,282.425z"/><path fill="#F4B2B0" d="M246.244,135.034c0,0,0.112,2.743,0.266,3.996c-3.414,5.821-27.886,41.918-116.361,55.924	c-6.693-7.488-25.784-33.132-25.784-81.769c0-48.664,19.12-74.309,25.784-81.761C218.638,45.429,243.111,81.541,246.51,87.35	c-0.154,1.246-0.266,3.995-0.266,3.995V135.034z"/><path fill="#B3404A" d="M130.147,210.243c-4.313,0-8.472-1.827-11.397-5.1c-8.922-9.983-29.673-38.926-29.673-91.956	c0-53.038,20.753-81.972,29.676-91.95c3.463-3.872,8.651-5.727,13.786-4.909c94.531,14.96,122.516,55.357,127.166,63.303	c1.697,2.9,2.391,6.277,1.975,9.613c-0.038,0.362-0.107,1.533-0.148,2.428v43.038c0.044,0.984,0.113,2.108,0.154,2.481	c0.414,3.336-0.289,6.677-1.989,9.576c-4.661,7.945-32.692,48.334-127.158,63.288C131.742,210.182,130.941,210.243,130.147,210.243z M136.632,48.046c-6.919,10.372-16.98,31.286-16.98,65.139c0,33.852,10.062,54.77,16.981,65.147	c63.091-11.681,87.294-35.087,94.323-43.755V91.795C223.942,83.135,199.764,59.732,136.632,48.046z"/><path fill="#F4B2B0" d="M265.749,91.346c0,0-0.104-2.749-0.266-3.995c3.414-5.823,27.892-41.919,116.361-55.933	c6.693,7.497,25.791,33.141,25.791,81.769c0,48.664-19.129,74.316-25.784,81.769l0,0c-88.497-14.012-112.963-50.115-116.369-55.924	c0.162-1.255,0.266-3.996,0.266-3.996V91.346L265.749,91.346z"/><path fill="#B3404A" d="M381.853,210.243c-0.795,0-1.594-0.061-2.392-0.188c-94.471-14.96-122.503-55.345-127.163-63.288	c-1.717-2.924-2.411-6.338-1.975-9.7c0.037-0.345,0.102-1.48,0.139-2.337V91.652c-0.038-0.936-0.104-2.021-0.145-2.388	c-0.44-3.366,0.261-6.717,1.978-9.646c4.658-7.945,32.68-48.335,127.158-63.3c5.14-0.815,10.333,1.04,13.795,4.919	c8.923,9.995,29.674,38.961,29.674,91.947c0,53.007-20.748,81.963-29.668,91.952C390.33,208.412,386.168,210.243,381.853,210.243z M281.036,134.579c7.031,8.666,31.232,32.071,94.327,43.755c6.921-10.385,16.984-31.308,16.984-65.147	c0-33.826-10.068-54.756-16.993-65.144c-63.097,11.687-87.292,35.094-94.318,43.761V134.579z"/><path fill="#F4B2B0" d="M283.141,135.219c0,8.411-6.833,15.243-15.243,15.243h-23.787c-8.411,0-15.251-6.833-15.251-15.243	V91.161c0-8.403,6.841-15.243,15.251-15.243h23.787c8.403,0,15.243,6.833,15.243,15.243V135.219z"/><path fill="#B3404A" d="M267.897,165.749H244.11c-16.839,0-30.54-13.696-30.54-30.53V91.161	c0-16.834,13.701-30.53,30.54-30.53h23.787c16.836,0,30.532,13.696,30.532,30.53v44.058	C298.428,152.054,284.733,165.749,267.897,165.749z M267.854,91.161l-23.743,0.044l0.035,44.014l23.761-0.044L267.854,91.161z"/></svg>