<?xml version="1.0" encoding="iso-8859-1"?>
<!-- Generator: Adobe Illustrator 19.0.0, SVG Export Plug-In . SVG Version: 6.00 Build 0)  -->
<svg version="1.1" id="Layer_1" xmlns="http://www.w3.org/2000/svg" xmlns:xlink="http://www.w3.org/1999/xlink" x="0px" y="0px"
	 viewBox="0 0 512.001 512.001" style="enable-background:new 0 0 512.001 512.001;" xml:space="preserve">
<g>
	<path style="fill:#B3404A;" d="M280.88,441.203c-10.16,0-19.713-3.959-26.897-11.143c-14.912-14.909-14.912-39.041-0.081-53.872
		l98.915-98.915c5.206-5.204,13.643-5.204,18.851,0c5.205,5.205,5.205,13.645,0,18.851l-98.915,98.915
		c-4.437,4.437-4.437,11.656,0,16.093c2.23,2.23,5.088,3.415,8.128,3.415s5.898-1.185,8.047-3.333l140.235-140.236
		c4.649-4.648,6.914-11.315,6.058-17.834l-7.724-58.845c-0.958-7.3,4.183-13.992,11.48-14.951
		c7.297-0.964,13.992,4.181,14.951,11.48l7.724,58.845c1.926,14.677-3.172,29.687-13.638,40.154L307.775,430.061
		C300.593,437.244,291.04,441.203,280.88,441.203z"/>
	<path style="fill:#B3404A;" d="M288.346,257.239c-9.741,0-19.48-3.707-26.896-11.123c-14.912-14.912-14.912-39.042-0.081-53.874
		l49.688-48.895c10.146-9.982,23.572-15.48,37.803-15.48h71.643c7.36,0,13.329,5.969,13.329,13.329
		c0,7.36-5.969,13.329-13.329,13.329H348.86c-7.192,0-13.978,2.779-19.107,7.824l-49.612,48.819
		c-4.36,4.361-4.36,11.581,0.077,16.02c4.514,4.517,11.735,4.518,16.176,0.08l52.992-52.993c3.876-3.903,7.408-3.945,14.446-4.032
		c3.259-0.039,7.868-0.076,13.309-0.109c10.828-0.065,24.973-0.115,38.335-0.149c0.012,0,0.024,0,0.035,0
		c7.345,0,13.307,5.945,13.327,13.295c0.02,7.36-5.933,13.343-13.295,13.362c-27.917,0.072-43.823,0.169-51.075,0.253
		l-49.224,49.224C307.827,253.53,298.088,257.239,288.346,257.239z"/>
</g>
<rect x="397.331" y="101.57" transform="matrix(-0.7071 -0.7071 0.7071 -0.7071 648.5936 555.5212)" style="fill:#F4B2B0;" width="84.036" height="83.726"/>
<g>
	<path style="fill:#B3404A;" d="M439.468,216.078c-3.412,0-6.822-1.302-9.425-3.904l-59.419-59.419
		c-5.205-5.205-5.205-13.645,0-18.851l59.203-59.203c5.206-5.203,13.643-5.203,18.851,0l59.419,59.419
		c5.205,5.205,5.205,13.645,0,18.851l-59.203,59.203C446.289,214.775,442.88,216.078,439.468,216.078z M398.899,143.33l40.57,40.57
		l40.352-40.352l-40.57-40.57L398.899,143.33z"/>
	<path style="fill:#B3404A;" d="M231.121,441.203c-10.16,0-19.713-3.959-26.897-11.143L63.989,289.826
		c-10.467-10.467-15.565-25.476-13.638-40.154l7.724-58.845c0.958-7.299,7.641-12.438,14.951-11.48
		c7.299,0.958,12.438,7.651,11.48,14.951l-7.724,58.845c-0.856,6.519,1.409,13.186,6.058,17.834l140.235,140.235
		c2.149,2.15,5.008,3.335,8.047,3.335c3.039,0,5.898-1.185,8.047-3.334c0.027-0.027,0.132-0.132,0.157-0.156
		c4.36-4.361,4.36-11.58-0.077-16.018l-98.915-98.915c-5.205-5.205-5.205-13.645,0-18.851c5.206-5.203,13.643-5.203,18.851,0
		l98.915,98.915c14.831,14.831,14.831,38.962,0,53.793c-0.027,0.025-0.133,0.131-0.157,0.155
		C250.834,437.244,241.282,441.203,231.121,441.203z"/>
	<path style="fill:#B3404A;" d="M223.624,257.229c-9.738,0-19.462-3.707-26.867-11.112l-49.225-49.224
		c-7.252-0.084-23.159-0.183-51.075-0.253c-7.361-0.02-13.314-6.002-13.295-13.362c0.02-7.351,5.983-13.295,13.327-13.295
		c0.013,0,0.024,0,0.035,0c13.361,0.035,27.506,0.084,38.335,0.149c5.441,0.033,10.05,0.071,13.309,0.109
		c7.038,0.087,10.57,0.131,14.478,4.067l52.96,52.959c4.436,4.436,11.657,4.434,16.096,0c4.516-4.517,4.516-11.737,0.079-16.174
		l-49.535-48.743c-5.129-5.045-11.913-7.824-19.107-7.824H91.496c-7.36,0-13.329-5.969-13.329-13.329s5.969-13.329,13.329-13.329
		h71.643c14.232,0,27.657,5.498,37.803,15.48l49.612,48.819c7.261,7.26,11.217,16.813,11.217,26.972
		c0,10.16-3.956,19.713-11.14,26.899C243.164,253.501,233.387,257.229,223.624,257.229z"/>
</g>
<rect x="30.616" y="101.568" transform="matrix(0.7071 -0.7071 0.7071 0.7071 -80.1467 93.3703)" style="fill:#F4B2B0;" width="84.036" height="83.726"/>
<path style="fill:#B3404A;" d="M72.532,216.078c-3.412,0-6.822-1.302-9.425-3.904L3.904,152.971c-5.205-5.205-5.205-13.645,0-18.851
	l59.419-59.419c5.206-5.204,13.643-5.204,18.851,0l59.203,59.203c5.205,5.205,5.205,13.645,0,18.851l-59.419,59.419
	C79.353,214.775,75.944,216.078,72.532,216.078z M32.179,143.546l40.352,40.352l40.57-40.57l-40.354-40.352L32.179,143.546z"/>
<g>
</g>
<g>
</g>
<g>
</g>
<g>
</g>
<g>
</g>
<g>
</g>
<g>
</g>
<g>
</g>
<g>
</g>
<g>
</g>
<g>
</g>
<g>
</g>
<g>
</g>
<g>
</g>
<g>
</g>
</svg>
