<?xml version="1.0" encoding="iso-8859-1"?>
<!-- Generator: Adobe Illustrator 19.0.0, SVG Export Plug-In . SVG Version: 6.00 Build 0)  -->
<svg version="1.1" id="Layer_1" xmlns="http://www.w3.org/2000/svg" xmlns:xlink="http://www.w3.org/1999/xlink" x="0px" y="0px"
	 viewBox="0 0 512 512" style="enable-background:new 0 0 512 512;" xml:space="preserve">
<g>
	<path style="fill:#B3404A;" d="M365.209,364.245c-7.788,0-14.101-6.315-14.101-14.101v-21.989c0-4.354-3.542-7.898-7.897-7.898
		s-7.897,3.544-7.897,7.898v21.989c0,7.787-6.313,14.101-14.101,14.101c-7.788,0-14.101-6.315-14.101-14.101v-21.989
		c0-19.905,16.194-36.101,36.099-36.101c19.905,0,36.099,16.194,36.099,36.101v21.989
		C379.31,357.93,372.997,364.245,365.209,364.245z"/>
	<path style="fill:#B3404A;" d="M277.217,364.245c-7.788,0-14.101-6.315-14.101-14.101v-131.99c0-4.354-3.542-7.898-7.897-7.898
		c-4.353,0-7.897,3.544-7.897,7.898v131.99c0,7.787-6.313,14.101-14.101,14.101s-14.101-6.315-14.101-14.101v-131.99
		c0-19.905,16.194-36.101,36.099-36.101s36.099,16.194,36.099,36.101v131.99C291.319,357.93,285.006,364.245,277.217,364.245z"/>
</g>
<path style="fill:#F4B2B0;" d="M329.458,14.101c-43.81,0-63.358,24.553-71.066,38.977c-0.969,1.813-3.606,1.815-4.576,0.003
	c-7.735-14.424-27.392-38.98-71.204-38.98c-49.906,0-93.877,34.067-93.877,96.276c0,25.174,5.095,46.739,19.333,70.807
	c23.49,39.705,89.787,88.331,125.154,112.394v-75.425c0-12.15,9.848-21.998,21.998-21.998l0,0c12.15,0,21.998,9.848,21.998,21.998
	v76.568c34.858-23.711,102.976-73.472,126.678-113.536c14.238-24.068,19.368-45.633,19.368-70.806
	C423.264,48.168,379.364,14.101,329.458,14.101z"/>
<g>
	<path style="fill:#B3404A;" d="M277.217,308.822c-2.259,0-4.524-0.543-6.595-1.637c-4.617-2.444-7.506-7.24-7.506-12.464v-76.568
		c0-4.354-3.542-7.898-7.897-7.898s-7.897,3.544-7.897,7.898v75.425c0,5.225-2.888,10.02-7.506,12.464
		c-4.615,2.442-10.206,2.135-14.527-0.805c-37.639-25.609-104.496-74.848-129.358-116.872
		c-14.729-24.897-21.297-48.95-21.297-77.987c0-33.269,11.285-61.524,32.637-81.712C126.821,10.181,153.578,0,182.612,0
		c38.223,0,60.913,16.874,73.403,31.52C268.886,16.123,291.443,0,329.458,0c29.033,0,55.779,10.182,75.31,28.671
		c21.325,20.183,32.596,48.439,32.596,81.707c0,28.996-6.58,53.047-21.334,77.987c-24.965,42.201-92.717,92.054-130.882,118.016
		C282.766,308.002,279.997,308.822,277.217,308.822z M255.219,182.052c19.905,0,36.099,16.194,36.099,36.101v49.461
		c33.654-24.298,82.092-62.595,100.44-93.611c12.199-20.62,17.404-39.648,17.404-63.626c0-56.765-40.032-82.175-79.704-82.175
		c-34.535,0-50.945,17.141-58.629,31.522c-2.902,5.436-8.545,8.816-14.726,8.816c-6.168,0.001-11.807-3.37-14.716-8.795
		c-6.315-11.78-22.35-31.543-58.775-31.543c-39.709,0-79.776,25.41-79.776,82.175c0,24.02,5.195,43.048,17.367,63.626
		c18.203,30.77,65.748,68.467,98.916,92.452v-48.304C219.12,198.248,235.314,182.052,255.219,182.052z"/>
	<path style="fill:#B3404A;" d="M321.215,364.245c-7.788,0-14.101-6.315-14.101-14.101v-46.528c0-4.354-3.542-7.897-7.897-7.897
		s-7.897,3.542-7.897,7.897v46.528c0,7.787-6.313,14.101-14.101,14.101c-7.788,0-14.101-6.315-14.101-14.101v-46.528
		c0-19.904,16.194-36.099,36.099-36.099s36.099,16.194,36.099,36.099v46.528C335.316,357.93,329.001,364.245,321.215,364.245z"/>
	<path style="fill:#B3404A;" d="M266.235,512c-4.614,0-9.136-2.262-11.838-6.42l-25.096-38.63c-0.276-0.426-0.529-0.866-0.759-1.32
		c-0.801-1.585-0.816-1.616-4.806-3.232c-3.369-1.366-7.984-3.238-12.989-6.993c-22.307-16.73-35.624-43.367-35.624-71.251v-83.509
		c0-19.904,16.194-36.099,36.099-36.099s36.099,16.194,36.099,36.099v39.596c0,7.787-6.313,14.101-14.101,14.101
		s-14.101-6.315-14.101-14.101v-39.596c0-4.354-3.542-7.897-7.897-7.897s-7.897,3.542-7.897,7.897v83.509
		c0,19.056,9.101,37.258,24.344,48.69c2.074,1.557,4.099,2.379,6.664,3.418c5.363,2.174,13.406,5.436,18.984,15.889l24.728,38.062
		c4.243,6.532,2.387,15.265-4.143,19.508C271.533,511.263,268.868,512,266.235,512z"/>
	<path style="fill:#B3404A;" d="M409.205,511.999c-7.788,0-14.101-6.315-14.101-14.101V350.153c0-4.354-3.542-7.898-7.897-7.898
		c-4.354,0-7.897,3.544-7.897,7.898c0,7.787-6.313,14.101-14.101,14.101c-7.788,0-14.101-6.315-14.101-14.101v-11.012
		c0-6.158,3.947-11.395,9.451-13.316c6.606-7.23,16.106-11.773,26.648-11.773c19.905,0,36.099,16.194,36.099,36.101v147.743
		C423.306,505.684,416.993,511.999,409.205,511.999z"/>
</g>
<g>
</g>
<g>
</g>
<g>
</g>
<g>
</g>
<g>
</g>
<g>
</g>
<g>
</g>
<g>
</g>
<g>
</g>
<g>
</g>
<g>
</g>
<g>
</g>
<g>
</g>
<g>
</g>
<g>
</g>
</svg>
