<svg xmlns="http://www.w3.org/2000/svg" xmlns:xlink="http://www.w3.org/1999/xlink" id="Layer_1" x="0" y="0" enable-background="new 0 0 512 512" version="1.1" viewBox="0 0 512 512" xml:space="preserve"><path fill="#B3404A" d="M256.151,482.185c-4.443,0-8.885-1.231-12.765-3.692C226.407,467.719,76.159,370.97,29.928,292.823	C9.229,257.836,0,224.036,0,183.228c0-46.358,15.649-85.66,45.256-113.655c27.114-25.638,64.293-39.757,104.688-39.757	c57.498,0,89.405,26.476,106.193,49.192c16.747-22.718,48.591-49.192,106.022-49.192c40.39,0,77.551,14.121,104.643,39.763	C496.37,97.568,512,136.867,512,183.229c0,40.748-9.246,74.549-29.98,109.596c-15.973,27-46.237,59.197-89.952,95.699	c-6.052,5.053-15.056,4.243-20.111-1.809c-5.054-6.052-4.245-15.056,1.809-20.111c41.211-34.412,69.364-64.127,83.677-88.32	c18.225-30.806,26-59.234,26-95.056c0-86.25-60.915-124.856-121.285-124.856c-55.722,0-80.374,30.562-90.107,48.78	c-3.134,5.864-9.222,9.511-15.889,9.516c-0.004,0-0.009,0-0.013,0c-6.662,0-12.749-3.637-15.889-9.493	c-9.772-18.225-34.5-48.801-90.316-48.801C89.523,58.37,28.556,96.977,28.556,183.228c0,35.882,7.76,64.311,25.949,95.056	c41.072,69.426,180.311,160.74,201.643,174.474c5.95-3.838,17.503-11.411,32.744-21.98c6.479-4.495,15.375-2.886,19.869,3.597	c4.493,6.479,2.884,15.376-3.597,19.869c-18.237,12.648-31.389,21.149-36.196,24.217	C265.078,480.944,260.615,482.185,256.151,482.185z"/><path fill="#F4B2B0" d="M222.895,236.011c17.125,0,31.043-18.686,31.043-41.665s-13.918-41.666-31.043-41.666	c-17.124,0-31.041,18.689-31.041,41.666C191.853,217.326,205.771,236.011,222.895,236.011L222.895,236.011z"/><path fill="#B3404A" d="M222.893,250.289c-24.988,0-45.319-25.095-45.319-55.943s20.331-55.946,45.319-55.946	c24.991,0,45.321,25.097,45.321,55.946C268.216,225.194,247.884,250.289,222.893,250.289z M222.893,166.958	c-7.929,0-16.762,11.248-16.762,27.39c0,16.138,8.835,27.387,16.762,27.387c7.93,0,16.765-11.247,16.765-27.387	C239.66,178.206,230.823,166.958,222.893,166.958z"/><path fill="#F4B2B0" d="M289.109,236.011c17.097,0,31.041-18.686,31.041-41.665s-13.935-41.666-31.041-41.666	c-17.124,0-31.052,18.689-31.052,41.666C258.057,217.326,271.986,236.011,289.109,236.011L289.109,236.011z"/><path fill="#B3404A" d="M289.109,250.289c-24.995,0-45.331-25.095-45.331-55.943s20.335-55.946,45.331-55.946	c24.988,0,45.319,25.097,45.319,55.946C334.429,225.194,314.099,250.289,289.109,250.289z M289.109,166.958	c-7.934,0-16.775,11.248-16.775,27.39c0,16.138,8.841,27.387,16.775,27.387c7.929,0,16.762-11.247,16.762-27.387	C305.873,178.206,297.038,166.958,289.109,166.958z"/><path fill="#F4B2B0" d="M343.232,215.232c-13.467-2.659-26.75,9.219-30.257,27.06c-3.515,17.82,4.273,33.849,17.743,36.499	c13.45,2.65,26.75-9.229,30.264-27.051C364.488,233.912,356.682,217.873,343.232,215.232L343.232,215.232z"/><path fill="#B3404A" d="M334.494,293.439c-0.003,0-0.001,0-0.003,0c-2.185,0-4.382-0.216-6.532-0.638	c-10.85-2.135-20.081-9.543-25.322-20.328c-4.663-9.595-5.967-21.294-3.668-32.944c4.506-22.926,21.153-38.946,40.478-38.946	c2.19,0,4.395,0.216,6.552,0.643c10.833,2.127,20.062,9.535,25.309,20.321c4.669,9.599,5.978,21.3,3.687,32.951	C370.472,277.426,353.816,293.439,334.494,293.439z M339.444,229.139c-4.489,0-10.529,6.082-12.459,15.907	c-1.089,5.518-0.603,10.961,1.334,14.942c0.927,1.906,2.573,4.285,5.154,4.792c0.341,0.067,0.682,0.101,1.019,0.101	c4.495,0,10.544-6.08,12.48-15.903c1.082-5.506,0.593-10.954-1.348-14.943c-0.928-1.908-2.574-4.288-5.146-4.793	C340.126,229.173,339.782,229.139,339.444,229.139z"/><path fill="#F4B2B0" d="M199.028,242.292c-3.514-17.84-16.795-29.718-30.264-27.06c-13.443,2.64-21.259,18.67-17.743,36.508	c3.507,17.822,16.807,29.7,30.257,27.051C194.746,276.141,202.534,260.112,199.028,242.292L199.028,242.292z"/><path fill="#B3404A" d="M177.506,293.439C177.505,293.439,177.505,293.439,177.506,293.439	c-19.331,0-35.984-16.014-40.494-38.941c-2.296-11.649-0.988-23.355,3.682-32.955c5.246-10.783,14.474-18.189,25.318-20.319	c2.145-0.423,4.349-0.64,6.539-0.64c19.321,0,35.969,16.017,40.485,38.951c2.292,11.649,0.987,23.348-3.678,32.94	c-5.243,10.783-14.474,18.192-25.325,20.326C181.888,293.223,179.689,293.439,177.506,293.439z M172.552,229.139	c-0.343,0-0.677,0.033-1.022,0.101c-2.583,0.507-4.228,2.887-5.156,4.793c-1.939,3.986-2.429,9.435-1.342,14.946	c1.933,9.823,7.98,15.903,12.476,15.903c0.34,0,0.671-0.033,1.012-0.1c2.586-0.508,4.232-2.887,5.159-4.795	c1.936-3.984,2.426-9.428,1.341-14.938C183.083,235.223,177.041,229.139,172.552,229.139z"/><path fill="#F4B2B0" d="M302.859,268.895c-3.655-22.572-23.27-39.874-46.858-39.874c-23.589,0-43.214,17.302-46.869,39.874	c-16.788,7.33-28.56,24.083-28.56,43.54c0,26.176,21.301,47.477,47.486,47.477c10.439,0,20.092-3.391,27.944-9.132	c7.84,5.74,17.504,9.132,27.942,9.132c26.185,0,47.486-21.301,47.486-47.477C331.42,292.977,319.647,276.225,302.859,268.895	L302.859,268.895z"/><path fill="#B3404A" d="M283.942,374.19c-9.836,0-19.338-2.292-27.945-6.689c-8.611,4.398-18.113,6.689-27.941,6.689	c-34.057,0-61.764-27.704-61.764-61.755c0-22.013,11.715-42.156,30.394-53.183c7.543-26.19,31.407-44.508,59.315-44.508	c27.902,0,51.761,18.319,59.304,44.508c18.673,11.026,30.392,31.166,30.402,53.176C345.708,346.486,318,374.19,283.942,374.19z M256.001,336.501c2.963,0,5.924,0.919,8.435,2.759c5.694,4.169,12.44,6.374,19.507,6.374c18.312,0,33.208-14.893,33.208-33.199	c-0.006-13.194-7.859-25.151-20.005-30.454c-4.449-1.942-7.606-6.011-8.383-10.803c-2.574-15.893-16.658-27.879-32.762-27.879	c-16.11,0-30.201,11.986-32.775,27.879c-0.777,4.792-3.934,8.861-8.383,10.803c-12.146,5.303-19.995,17.256-19.995,30.454	c0,18.306,14.898,33.199,33.208,33.199c7.059,0,13.808-2.206,19.517-6.379C250.085,337.419,253.043,336.501,256.001,336.501z"/></svg>