<svg xmlns="http://www.w3.org/2000/svg" xmlns:xlink="http://www.w3.org/1999/xlink" id="Layer_1" x="0" y="0" enable-background="new 0 0 512 512" version="1.1" viewBox="0 0 512 512" xml:space="preserve"><path fill="#B3404A" d="M256,512c-68.38,0-132.667-26.629-181.02-74.982c-99.813-99.815-99.813-262.224,0-362.038	C123.333,26.629,187.62,0,256,0s132.667,26.629,181.02,74.982c99.813,99.815,99.813,262.224,0,362.038	C388.667,485.371,324.381,512,256,512z M256,30.515c-60.229,0-116.853,23.454-159.441,66.044	c-87.917,87.915-87.917,230.967,0,318.882c42.59,42.59,99.214,66.044,159.443,66.044s116.853-23.454,159.441-66.044	c87.917-87.915,87.917-230.967,0-318.882l0,0C372.854,53.969,316.229,30.515,256,30.515z M256,401.073	c-37.167,0-74.335-14.147-102.631-42.442c-56.59-56.592-56.59-148.669,0-205.261c56.59-56.59,148.669-56.59,205.261,0	c5.958,5.958,5.958,15.619,0,21.579c-5.958,5.957-15.619,5.957-21.579,0c-44.692-44.695-117.414-44.694-162.107,0	c-44.692,44.692-44.692,117.413,0,162.105c44.692,44.694,117.414,44.692,162.107,0c5.958-5.957,15.621-5.957,21.577,0	c5.958,5.958,5.958,15.619,0,21.579C330.336,386.926,293.167,401.073,256,401.073z"/><path fill="#F4B2B0" d="M349.353,188.099l-25.451-25.451c-8.845-8.845-8.845-23.185,0-32.03l64.837-64.837	c8.845-8.845,23.185-8.845,32.03,0l25.451,25.451c8.845,8.845,8.845,23.185,0,32.03l-64.837,64.837	C372.539,196.944,358.198,196.944,349.353,188.099z"/><path fill="#B3404A" d="M365.368,209.991c-10.125,0-19.644-3.944-26.804-11.104l-25.451-25.45	c-7.16-7.159-11.103-16.68-11.103-26.803c0-10.126,3.943-19.646,11.101-26.804l64.837-64.837c7.16-7.159,16.68-11.101,26.804-11.101	c10.125,0,19.644,3.943,26.803,11.101l25.453,25.453c7.159,7.159,11.103,16.68,11.103,26.804s-3.943,19.644-11.103,26.803	l-64.835,64.835C385.013,206.047,375.494,209.991,365.368,209.991z M404.753,74.405c-1.144,0-3.343,0.282-5.227,2.165	l-64.835,64.837c-2.882,2.882-2.882,7.571,0,10.453l25.451,25.451c1.884,1.884,4.083,2.167,5.226,2.167	c1.144,0,3.341-0.282,5.226-2.165l64.838-64.837c1.883-1.883,2.165-4.083,2.165-5.226c0-1.144-0.282-3.343-2.165-5.227	L409.979,76.57C408.096,74.686,405.896,74.405,404.753,74.405z"/><path fill="#F4B2B0" d="M91.232,446.22l-25.451-25.451c-8.845-8.845-8.845-23.185,0-32.03l64.837-64.837	c8.845-8.845,23.185-8.845,32.03,0l25.451,25.451c8.845,8.845,8.845,23.185,0,32.03l-64.837,64.837	C114.418,455.065,100.077,455.065,91.232,446.22z"/><path fill="#B3404A" d="M107.248,468.112c-10.125,0-19.644-3.943-26.803-11.101l-25.453-25.453	c-7.159-7.159-11.103-16.68-11.103-26.803c0-10.126,3.943-19.646,11.103-26.804l64.835-64.835	c7.159-7.159,16.678-11.103,26.804-11.103c10.125,0,19.644,3.944,26.804,11.104l25.451,25.45c7.16,7.159,11.103,16.68,11.103,26.804	c0,10.125-3.943,19.644-11.101,26.803l-64.838,64.835C126.891,464.169,117.372,468.112,107.248,468.112z M146.633,332.524	c-1.144,0-3.341,0.282-5.226,2.165l-64.838,64.837c-1.883,1.883-2.165,4.083-2.165,5.227c0,1.143,0.282,3.341,2.165,5.226	l25.453,25.453c1.883,1.883,4.083,2.165,5.226,2.165c1.143,0,3.343-0.282,5.227-2.165l64.835-64.837	c2.882-2.882,2.882-7.571,0-10.453l-25.451-25.451C149.974,332.806,147.775,332.524,146.633,332.524z"/><path fill="#F4B2B0" d="M323.902,349.353l25.451-25.451c8.845-8.845,23.185-8.845,32.03,0l64.837,64.837	c8.845,8.845,8.845,23.185,0,32.03l-25.451,25.451c-8.845,8.845-23.185,8.845-32.03,0l-64.837-64.837	C315.057,372.539,315.057,358.198,323.902,349.353z"/><path fill="#B3404A" d="M404.753,468.112c-10.125,0-19.644-3.943-26.803-11.101l-64.837-64.837	c-7.159-7.159-11.101-16.68-11.101-26.803c0-10.126,3.943-19.646,11.101-26.804l25.453-25.451	c7.157-7.159,16.678-11.103,26.803-11.103c10.126,0,19.646,3.944,26.804,11.104l64.835,64.834	c7.16,7.159,11.103,16.68,11.103,26.804c0,10.125-3.943,19.644-11.103,26.803l-25.451,25.453	C424.397,464.169,414.878,468.112,404.753,468.112z M365.368,332.524c-1.143,0-3.341,0.282-5.224,2.165l-25.454,25.453	c-2.882,2.882-2.882,7.571,0,10.453l64.837,64.837c1.883,1.883,4.083,2.165,5.226,2.165c1.143,0,3.343-0.282,5.227-2.165	l25.451-25.453c1.884-1.883,2.165-4.083,2.165-5.226c0-1.144-0.282-3.343-2.165-5.227l-64.837-64.835	C368.71,332.806,366.512,332.524,365.368,332.524z"/><path fill="#F4B2B0" d="M65.781,91.232l25.451-25.451c8.845-8.845,23.185-8.845,32.03,0l64.837,64.837	c8.845,8.845,8.845,23.185,0,32.03l-25.451,25.451c-8.845,8.845-23.185,8.845-32.03,0l-64.837-64.837	C56.937,114.418,56.937,100.077,65.781,91.232z"/><path fill="#B3404A" d="M146.633,209.991c-10.126,0-19.646-3.944-26.804-11.104l-64.835-64.835	c-7.16-7.159-11.103-16.68-11.103-26.803c0-10.126,3.943-19.646,11.103-26.804l25.451-25.453c7.16-7.159,16.68-11.101,26.804-11.101	s19.644,3.943,26.803,11.101l64.837,64.837c7.159,7.159,11.101,16.68,11.101,26.804c0,10.125-3.943,19.644-11.101,26.803	l-25.453,25.451C166.277,206.047,156.757,209.991,146.633,209.991z M107.248,74.405c-1.144,0-3.343,0.282-5.227,2.165L76.57,102.021	c-1.884,1.883-2.165,4.083-2.165,5.227c0,1.143,0.282,3.341,2.165,5.226l64.837,64.835c1.884,1.884,4.083,2.167,5.227,2.167	c1.143,0,3.341-0.282,5.224-2.165l25.454-25.453c2.882-2.882,2.882-7.571,0-10.453L112.474,76.57	C110.59,74.686,108.391,74.405,107.248,74.405z"/></svg>