<svg xmlns="http://www.w3.org/2000/svg" xmlns:xlink="http://www.w3.org/1999/xlink" id="Layer_1" x="0" y="0" enable-background="new 0 0 512.003 512.003" version="1.1" viewBox="0 0 512.003 512.003" xml:space="preserve"><path fill="#F4B2B0" d="M408.37,37.396c20.517,20.517,18.223,41.222,15.091,51.599c-0.393,1.303,0.842,2.536,2.144,2.141	c10.365-3.145,31.016-5.489,51.533,15.028c23.371,23.37,27.975,59.882-1.158,89.016c-11.788,11.788-24.289,19.485-42.229,24.088	c-36.556,9.381-111.094-5.607-126.157-8.934c-1.664-0.368-2.955-1.653-3.326-3.318c-3.364-15.042-18.506-89.44-9.052-126.282	c4.603-17.938,12.317-30.423,24.105-42.212C348.453,9.386,384.999,14.026,408.37,37.396z"/><g><path fill="#B3404A" d="M403.331,238.042c-42.021,0-93.41-11.083-99.13-12.348c-7.591-1.682-13.588-7.665-15.284-15.243 c-2.061-9.218-19.815-91.245-8.939-133.628c5.063-19.728,13.766-34.972,28.219-49.426c16.277-16.277,35.725-24.879,56.24-24.879 c20.185,0,39.738,8.436,55.059,23.756c16.552,16.552,21.261,33.688,21.651,47.093c12.315,0.335,29.97,4.529,47.117,21.675 c14.755,14.757,23.177,33.593,23.712,53.039c0.584,21.239-8.016,41.371-24.868,58.226c-14.434,14.434-29.684,23.133-49.444,28.203 C428.385,236.884,417.155,238.042,403.331,238.042z M318.099,196.471c21.295,4.311,57.231,10.107,85.232,10.107 c10.995,0,19.914-0.857,26.509-2.55c14.37-3.688,24.514-9.472,35.014-19.974c10.588-10.588,16.005-22.729,15.665-35.112 c-0.311-11.368-5.464-22.609-14.507-31.652c-8.283-8.285-17.21-12.484-26.531-12.484c-3.146,0-6.279,0.466-9.309,1.386 c-1.647,0.499-3.351,0.754-5.066,0.754c-5.491,0-10.728-2.64-14.011-7.059c-3.275-4.41-4.284-10.18-2.697-15.437 c2.621-8.683,2.815-21.961-11.153-35.928c-9.377-9.377-21.028-14.54-32.808-14.54c-11.99,0-23.742,5.417-33.99,15.665 c-10.52,10.52-16.311,20.66-19.991,34.997C303.652,111.153,311.781,165.757,318.099,196.471z"/><path fill="#B3404A" d="M90.654,509.486c-18.457,0-36.622-7.215-50.463-21.056l-19.134-19.132 c-22.516-22.516-27.5-56.479-12.407-84.518l136.051-252.678c2.358-4.378,6.647-7.383,11.568-8.105 c4.92-0.728,9.894,0.925,13.409,4.44l211.373,211.371c6.143,6.143,6.143,16.105,0,22.25c-6.143,6.142-16.107,6.142-22.249,0 L162.383,165.637L36.357,399.696c-8.456,15.707-5.664,34.737,6.951,47.351l19.132,19.132c12.616,12.616,31.646,15.407,47.351,6.951 l69.248-37.284c7.651-4.117,17.192-1.257,21.31,6.394c4.119,7.649,1.257,17.191-6.394,21.31l-69.248,37.284 C113.906,506.65,102.22,509.486,90.654,509.486z"/></g><polygon fill="#F4B2B0" points="106.901 235.492 273.995 402.586 369.926 350.933 158.553 139.561"/><g><path fill="#B3404A" d="M273.999,418.317c-4.076,0-8.104-1.583-11.129-4.608L95.776,246.615 c-4.913-4.913-6.021-12.466-2.726-18.585l51.654-95.931c2.358-4.378,6.647-7.383,11.568-8.105c4.92-0.728,9.894,0.925,13.409,4.44 l211.373,211.371c3.516,3.516,5.163,8.489,4.441,13.409c-0.722,4.92-3.729,9.21-8.107,11.568l-95.935,51.656 C279.103,417.703,276.542,418.317,273.999,418.317z M126.302,232.643l150.54,150.54l67.007-36.079L162.381,165.637L126.302,232.643 z"/><path fill="#B3404A" d="M394.211,390.95c-4.026,0-8.053-1.537-11.124-4.608l-259.942-259.94 c-6.144-6.144-6.144-16.105,0-22.25c6.144-6.142,16.105-6.142,22.25,0l259.942,259.942c6.143,6.143,6.143,16.105,0,22.25 C402.264,389.413,398.237,390.95,394.211,390.95z"/></g></svg>