<?xml version="1.0" encoding="iso-8859-1"?>
<!-- Generator: Adobe Illustrator 19.0.0, SVG Export Plug-In . SVG Version: 6.00 Build 0)  -->
<svg version="1.1" id="Layer_1" xmlns="http://www.w3.org/2000/svg" xmlns:xlink="http://www.w3.org/1999/xlink" x="0px" y="0px"
	 viewBox="0 0 512 512" style="enable-background:new 0 0 512 512;" xml:space="preserve">
<path style="fill:#F4B2B0;" d="M420.488,175.975c-23.601,0-42.803-19.202-42.803-42.803v-6.115h-243.37v6.115
	c0,23.601-19.202,42.803-42.803,42.803h-6.115v47.558C156.66,267.618,256,326.527,256,326.527s99.34-58.909,170.603-102.994v-47.558
	H420.488L420.488,175.975z M308.032,228.418c-10.209,17.255-43.837,39.625-50.745,44.032c-0.764,0.487-1.732,0.489-2.495,0.003
	c-6.913-4.387-40.549-26.645-50.837-44.035c-5.01-8.468-6.802-16.054-6.802-24.912c0-21.887,15.47-33.872,33.027-33.872
	c15.415,0,22.329,8.639,25.05,13.714c0.341,0.637,1.269,0.637,1.61-0.001c2.712-5.075,9.589-13.712,25.003-13.712
	c17.557,0,33.002,11.985,33.002,33.872C314.845,212.364,313.042,219.95,308.032,228.418z"/>
<g>
	<path style="fill:#B3404A;" d="M256,340.994c-2.552,0-5.104-0.674-7.379-2.022c-0.995-0.59-100.273-59.485-170.834-103.135
		c-4.262-2.636-6.855-7.291-6.855-12.302v-47.558c0-7.988,6.476-14.466,14.466-14.466h6.115c15.626,0,28.337-12.713,28.337-28.339
		v-6.115c0-7.988,6.476-14.466,14.466-14.466h243.368c7.989,0,14.466,6.478,14.466,14.466v6.115
		c0,15.626,12.713,28.339,28.337,28.339h6.115c7.989,0,14.466,6.478,14.466,14.466v47.558c0,5.011-2.594,9.666-6.855,12.302
		c-70.561,43.651-169.84,102.545-170.834,103.135C261.104,340.32,258.552,340.994,256,340.994z M99.863,215.464
		c58.296,35.937,132.728,80.314,156.137,94.238c23.41-13.923,97.844-58.303,156.137-94.238v-25.631
		c-24.91-3.653-44.657-23.401-48.31-48.31H148.173c-3.654,24.91-23.401,44.657-48.31,48.31V215.464z M256.036,287.282
		c-3.185,0-6.293-0.901-8.985-2.607c-7.129-4.525-43.251-28.111-55.546-48.892c-6.097-10.307-8.817-20.262-8.817-32.278
		c0-28.009,19.974-48.338,47.494-48.338c11.437,0,19.82,3.452,25.823,7.746c7.084-5.027,15.941-7.746,25.84-7.746
		c27.505,0,47.468,20.329,47.468,48.338c0,12.001-2.722,21.955-8.83,32.278c-12.216,20.647-48.304,44.325-55.414,48.861
		C262.365,286.371,259.242,287.282,256.036,287.282z M230.181,184.102c-8.973,0-18.563,5.098-18.563,19.406
		c0,6.805,1.342,11.723,4.785,17.546c5.944,10.047,25.01,24.971,39.616,34.896c14.606-9.966,33.658-24.917,39.563-34.896
		c3.453-5.837,4.798-10.757,4.798-17.546c0-14.308-9.575-19.406-18.536-19.406c-6.058,0-10.064,1.983-12.242,6.063
		c-2.688,5.018-7.882,8.128-13.565,8.128c-5.676,0-10.87-3.104-13.552-8.104C240.287,186.091,236.264,184.102,230.181,184.102z"/>
	<path style="fill:#B3404A;" d="M458.505,448.326H53.777c-29.458,0-53.457-23.966-53.493-53.427L0,176.396c0-0.006,0-0.012,0-0.019
		c0-7.987,6.471-14.46,14.457-14.466c0.003,0,0.006,0,0.009,0c4.84,0,9.125,2.377,11.751,6.026
		C41.601,180.953,171.326,259.405,256,309.703c84.674-50.298,214.399-128.752,229.784-141.765c2.626-3.65,6.91-6.026,11.751-6.026
		c7.989,0,14.466,6.478,14.466,14.466v73.781c0,7.988-6.476,14.466-14.466,14.466c-7.99,0-14.466-6.478-14.466-14.466v-45.19
		c-4.528,2.965-9.708,6.303-15.512,9.993c-20.118,12.795-48.136,30.105-83.281,51.446c-59.757,36.293-120.293,72.2-120.898,72.559
		c-4.549,2.698-10.209,2.698-14.757,0c-0.605-0.359-61.141-36.266-120.898-72.559c-35.143-21.343-63.164-38.653-83.281-51.446
		c-5.788-3.68-10.955-7.01-15.474-9.968l0.246,189.868c0.017,13.527,11.036,24.531,24.562,24.531h404.729
		c13.543,0,24.562-11.019,24.562-24.562v-78.081c0-7.988,6.476-14.466,14.466-14.466c7.99,0,14.466,6.478,14.466,14.466v78.081
		C512,424.329,488.003,448.326,458.505,448.326z"/>
	<path style="fill:#B3404A;" d="M36.478,207.088c-7.989,0-14.466-6.478-14.466-14.466v-86.643c0-23.328,18.978-42.305,42.305-42.305
		h383.363c23.328,0,42.305,18.978,42.305,42.305c0,7.988-6.476,14.466-14.466,14.466c-7.989,0-14.466-6.478-14.466-14.466
		c0-7.375-5.999-13.374-13.374-13.374H64.318c-7.375,0-13.374,5.999-13.374,13.374v86.644
		C50.944,200.612,44.468,207.088,36.478,207.088z"/>
</g>
<g>
</g>
<g>
</g>
<g>
</g>
<g>
</g>
<g>
</g>
<g>
</g>
<g>
</g>
<g>
</g>
<g>
</g>
<g>
</g>
<g>
</g>
<g>
</g>
<g>
</g>
<g>
</g>
<g>
</g>
</svg>
