<?xml version="1.0" encoding="iso-8859-1"?>
<!-- Generator: Adobe Illustrator 19.0.0, SVG Export Plug-In . SVG Version: 6.00 Build 0)  -->
<svg version="1.1" id="Layer_1" xmlns="http://www.w3.org/2000/svg" xmlns:xlink="http://www.w3.org/1999/xlink" x="0px" y="0px"
	 viewBox="0 0 512.001 512.001" style="enable-background:new 0 0 512.001 512.001;" xml:space="preserve">
<path style="fill:#B3404A;" d="M467.486,427.669H444.91c-7.62,0-13.8-6.18-13.8-13.8s6.18-13.8,13.8-13.8h22.576
	c9.327,0,16.916-7.588,16.916-16.916V128.847c0-9.327-7.588-16.916-16.916-16.916H44.515c-9.327,0-16.916,7.588-16.916,16.916
	v254.307c0,9.327,7.588,16.916,16.916,16.916h303.912c7.62,0,13.8,6.18,13.8,13.8s-6.179,13.8-13.8,13.8H44.515
	C19.97,427.669,0,407.7,0,383.154V128.847c0-24.546,19.97-44.515,44.515-44.515h422.971c24.545,0,44.515,19.97,44.515,44.515
	v254.307C512,407.7,492.032,427.669,467.486,427.669z"/>
<path style="fill:#F4B2B0;" d="M437.482,206.075c-26.04,0-47.225-21.185-47.225-47.225v-6.747H121.744v6.747
	c0,26.04-21.185,47.225-47.225,47.225h-6.747v99.852h6.747c26.04,0,47.225,21.185,47.225,47.225v6.747h268.513v-6.747
	c0-26.04,21.185-47.225,47.225-47.225h6.747v-99.852H437.482z M313.409,263.936c-11.263,19.038-48.367,43.719-55.988,48.582
	c-0.842,0.538-1.91,0.54-2.753,0.004c-7.627-4.841-44.737-29.397-56.089-48.586c-5.527-9.342-7.504-17.713-7.504-27.485
	c0-24.148,17.069-37.371,36.439-37.371c17.007,0,24.637,9.531,27.639,15.131c0.377,0.702,1.401,0.702,1.776-0.001
	c2.992-5.599,10.58-15.13,27.586-15.13c19.372,0,36.412,13.224,36.412,37.371C320.927,246.223,318.936,254.594,313.409,263.936z"/>
<path style="fill:#B3404A;" d="M390.256,373.699H121.745c-7.62,0-13.8-6.179-13.8-13.8v-6.747c0-18.431-14.995-33.427-33.427-33.427
	h-6.747c-7.62,0-13.8-6.18-13.8-13.8v-99.85c0-7.62,6.18-13.8,13.8-13.8h6.747c18.431,0,33.427-14.995,33.427-33.427v-6.747
	c0-7.62,6.179-13.8,13.8-13.8h268.511c7.62,0,13.8,6.179,13.8,13.8v6.747c0,18.431,14.995,33.427,33.427,33.427h6.747
	c7.62,0,13.8,6.179,13.8,13.8v99.85c0,7.62-6.18,13.8-13.8,13.8h-6.747c-18.431,0-33.427,14.995-33.427,33.427v6.747
	C404.056,367.519,397.877,373.699,390.256,373.699z M135.139,346.099h241.724c3.239-28.027,25.54-50.329,53.566-53.566v-73.062
	c-28.027-3.239-50.329-25.54-53.566-53.566H135.139c-3.239,28.027-25.54,50.329-53.566,53.566v73.062
	C109.598,295.771,131.9,318.072,135.139,346.099z M256.041,326.722c-3.106,0-6.137-0.88-8.764-2.546
	c-7.783-4.939-47.26-30.706-60.575-53.214c-6.52-11.019-9.427-21.663-9.427-34.512c0-29.65,21.13-51.171,50.239-51.171
	c12.915,0,22.126,4.158,28.516,9.111c6.381-4.953,15.581-9.111,28.485-9.111c29.094,0,50.212,21.521,50.212,51.171
	c0,12.83-2.91,23.473-9.439,34.51c-13.227,22.357-52.671,48.23-60.444,53.19C262.211,325.832,259.166,326.722,256.041,326.722z
	 M227.514,212.88c-10.946,0-22.64,6.192-22.64,23.571c0,7.831,1.617,13.758,5.581,20.458c6.9,11.662,29.13,28.946,45.571,40.009
	c16.44-11.114,38.657-28.431,45.507-40.009c3.973-6.718,5.594-12.645,5.594-20.458c0-17.379-11.681-23.571-22.612-23.571
	c-7.449,0-12.636,2.636-15.416,7.835c-2.578,4.824-7.583,7.823-13.059,7.823c-5.467,0-10.467-2.99-13.049-7.804
	C240.197,215.523,234.989,212.88,227.514,212.88z"/>
<g>
</g>
<g>
</g>
<g>
</g>
<g>
</g>
<g>
</g>
<g>
</g>
<g>
</g>
<g>
</g>
<g>
</g>
<g>
</g>
<g>
</g>
<g>
</g>
<g>
</g>
<g>
</g>
<g>
</g>
</svg>
