<?xml version="1.0" encoding="iso-8859-1"?>
<!-- Generator: Adobe Illustrator 19.0.0, SVG Export Plug-In . SVG Version: 6.00 Build 0)  -->
<svg version="1.1" id="Layer_1" xmlns="http://www.w3.org/2000/svg" xmlns:xlink="http://www.w3.org/1999/xlink" x="0px" y="0px"
	 viewBox="0 0 512 512" style="enable-background:new 0 0 512 512;" xml:space="preserve">
<path style="fill:#B3404A;" d="M256,140.567c-29.965,0-54.343-24.379-54.343-54.343S226.035,31.88,256,31.88
	s54.343,24.379,54.343,54.343S285.965,140.567,256,140.567z M256,58.827c-15.107,0-27.396,12.289-27.396,27.396
	S240.893,113.62,256,113.62c15.107,0,27.396-12.289,27.396-27.396S271.107,58.827,256,58.827z"/>
<path style="fill:#F4B2B0;" d="M422.853,94.079H89.147c-15.519,0-28.218,12.698-28.218,28.218l0,0
	c0,15.52,12.698,28.218,28.218,28.218h333.707c15.519,0,28.218-12.698,28.218-28.218l0,0
	C451.071,106.776,438.373,94.079,422.853,94.079z"/>
<g>
	<path style="fill:#B3404A;" d="M422.853,163.988H89.147c-22.989,0-41.69-18.703-41.69-41.692s18.703-41.69,41.69-41.69h333.707
		c22.989,0,41.69,18.703,41.69,41.69C464.544,145.285,445.842,163.988,422.853,163.988z M89.147,107.552
		c-8.13,0-14.743,6.614-14.743,14.743c0,8.13,6.614,14.744,14.743,14.744h333.707c8.13,0,14.743-6.614,14.743-14.744
		c0-8.129-6.614-14.743-14.743-14.743H89.147z"/>
	<path style="fill:#B3404A;" d="M382.279,480.12H129.721c-34.381,0-62.351-27.971-62.351-62.351V211.327
		c0-7.44,6.032-13.474,13.474-13.474c7.442,0,13.474,6.034,13.474,13.474v206.442c0,19.522,15.883,35.403,35.403,35.403h252.558
		c19.522,0,35.403-15.881,35.403-35.403V211.327c0-7.44,6.032-13.474,13.474-13.474s13.474,6.034,13.474,13.474v206.442
		C444.63,452.149,416.66,480.12,382.279,480.12z"/>
</g>
<path style="fill:#F4B2B0;" d="M474.399,259.581h-43.242v-48.255h43.242c13.326,0,24.127,10.802,24.127,24.127l0,0
	C498.526,248.779,487.724,259.581,474.399,259.581z"/>
<path style="fill:#B3404A;" d="M474.399,273.055h-43.242c-7.442,0-13.474-6.034-13.474-13.474v-48.255
	c0-7.44,6.032-13.474,13.474-13.474h43.242c20.733,0,37.601,16.869,37.601,37.601S495.132,273.055,474.399,273.055z M444.63,246.108
	h29.769c5.875,0,10.654-4.779,10.654-10.654s-4.779-10.654-10.654-10.654H444.63V246.108z"/>
<path style="fill:#F4B2B0;" d="M37.601,211.327h43.242v48.255H37.601c-13.325,0-24.127-10.802-24.127-24.127l0,0
	C13.474,222.129,24.276,211.327,37.601,211.327z"/>
<path style="fill:#B3404A;" d="M80.843,273.055H37.601C16.868,273.055,0,256.187,0,235.454s16.868-37.601,37.601-37.601h43.242
	c7.442,0,13.474,6.034,13.474,13.474v48.255C94.317,267.023,88.285,273.055,80.843,273.055z M37.601,224.8
	c-5.875,0-10.654,4.779-10.654,10.654s4.779,10.654,10.654,10.654H67.37V224.8H37.601z"/>
<path style="fill:#F4B2B0;" d="M374.015,211.327h-56.43h-56.431v123.769c0,15.582,12.633,28.215,28.215,28.215l0,0
	c15.582,0,28.215-12.633,28.215-28.215v-59.41c0,15.582,12.633,28.215,28.215,28.215l0,0c15.582,0,28.215-12.633,28.215-28.215
	v39.606c0,15.582,12.633,28.215,28.215,28.215l0,0c15.582,0,28.215-12.633,28.215-28.215V211.327H374.015z"/>
<g>
	<path style="fill:#B3404A;" d="M289.369,376.785c-22.987,0-41.689-18.701-41.689-41.688V211.328c0-7.44,6.032-13.474,13.474-13.474
		h169.291c7.442,0,13.474,6.034,13.474,13.474v103.966c0,22.989-18.701,41.689-41.689,41.689s-41.689-18.701-41.689-41.689v-0.608
		c-4.585,1.738-9.554,2.691-14.742,2.691s-10.158-0.953-14.742-2.691v20.411C331.058,358.083,312.356,376.785,289.369,376.785z
		 M274.627,224.8v110.296c0,8.127,6.613,14.74,14.742,14.74s14.742-6.613,14.742-14.74v-59.41c0-7.44,6.032-13.474,13.474-13.474
		c7.441,0,13.474,6.034,13.474,13.474c0,8.127,6.613,14.74,14.742,14.74s14.742-6.613,14.742-14.74
		c0-7.44,6.032-13.474,13.474-13.474s13.474,6.034,13.474,13.474v39.606c0,8.129,6.613,14.742,14.742,14.742
		c8.129,0,14.742-6.613,14.742-14.742V224.8L274.627,224.8L274.627,224.8z"/>
	<path style="fill:#B3404A;" d="M323.705,224.8H161.345c-7.442,0-13.474-6.034-13.474-13.474s6.032-13.474,13.474-13.474h162.361
		c7.441,0,13.474,6.034,13.474,13.474S331.147,224.8,323.705,224.8z"/>
</g>
<g>
</g>
<g>
</g>
<g>
</g>
<g>
</g>
<g>
</g>
<g>
</g>
<g>
</g>
<g>
</g>
<g>
</g>
<g>
</g>
<g>
</g>
<g>
</g>
<g>
</g>
<g>
</g>
<g>
</g>
</svg>
