<?xml version="1.0" encoding="iso-8859-1"?>
<!-- Generator: Adobe Illustrator 19.0.0, SVG Export Plug-In . SVG Version: 6.00 Build 0)  -->
<svg version="1.1" id="Layer_1" xmlns="http://www.w3.org/2000/svg" xmlns:xlink="http://www.w3.org/1999/xlink" x="0px" y="0px"
	 viewBox="0 0 512 512" style="enable-background:new 0 0 512 512;" xml:space="preserve">
<g>
	<path style="fill:#B3404A;" d="M427.825,123.667c-1.579,0-3.183-0.265-4.755-0.822c-7.404-2.627-11.277-10.758-8.651-18.162
		c2.609-7.353,3.67-15.065,3.154-22.921c-1.889-28.756-25.004-51.638-53.766-53.222c-28.301-1.562-53.806,18.159-59.301,45.866
		c-1.529,7.705-9.016,12.715-16.721,11.185c-7.705-1.529-12.714-9.014-11.185-16.721c8.237-41.519,46.409-71.069,88.772-68.736
		c43.112,2.375,77.757,36.665,80.589,79.763c0.771,11.739-0.819,23.278-4.728,34.298
		C439.162,120.025,433.678,123.667,427.825,123.667z"/>
	<path style="fill:#B3404A;" d="M421.411,267.846c-28.008,0-53.875-13.378-70.103-36.558c-4.505-6.435-2.94-15.306,3.495-19.81
		c6.435-4.506,15.304-2.94,19.81,3.495c11.624,16.606,30.658,25.681,50.947,24.281c28.344-1.96,51.097-24.826,52.929-53.187
		c0.765-11.863-2.055-23.433-8.158-33.457c-4.085-6.711-1.956-15.462,4.754-19.547c6.71-4.084,15.462-1.956,19.547,4.754
		c9.156,15.041,13.391,32.361,12.246,50.083c-2.745,42.517-36.86,76.795-79.356,79.736
		C425.479,267.776,423.437,267.846,421.411,267.846z"/>
	<path style="fill:#B3404A;" d="M212.365,267.845c-23.344,0-45.035-9.247-60.915-25.408c-15.88,16.16-37.571,25.408-60.915,25.408
		c-47.198,0-85.597-38.399-85.597-85.597c0-38.9,25.863-72.084,62.117-82.327c-0.801-4.715-1.202-9.501-1.202-14.323
		C65.852,38.399,104.252,0,151.45,0s85.597,38.399,85.597,85.597c0,9.778-1.654,19.399-4.916,28.596
		c-2.626,7.405-10.759,11.277-18.162,8.651c-7.404-2.626-11.277-10.758-8.651-18.162c2.176-6.135,3.28-12.557,3.28-19.085
		c0-31.512-25.637-57.148-57.148-57.148S94.301,54.086,94.301,85.597c0,6.495,1.092,12.885,3.246,18.991
		c1.555,4.401,0.943,9.317-1.68,13.481c-2.64,4.191-6.833,6.882-11.502,7.383c-29.064,3.114-50.979,27.532-50.979,56.797
		c0,31.512,25.637,57.148,57.148,57.148c20.057,0,38.292-10.232,48.782-27.371c2.585-4.223,7.181-6.799,12.132-6.799
		c4.952,0,9.548,2.576,12.132,6.799c10.491,17.138,28.726,27.371,48.782,27.371c31.512,0,57.148-25.637,57.148-57.148
		c0-10.491-2.863-20.741-8.28-29.64c-4.085-6.711-1.956-15.462,4.755-19.546c6.711-4.084,15.462-1.956,19.546,4.755
		c8.131,13.358,12.428,28.722,12.428,44.432C297.962,229.447,259.563,267.845,212.365,267.845z"/>
	<path style="fill:#B3404A;" d="M153.53,370.947c-7.856,0-14.225-6.368-14.225-14.225v-222.8c0-7.856,6.368-14.225,14.225-14.225
		c7.856,0,14.225,6.368,14.225,14.225v222.8C167.754,364.579,161.386,370.947,153.53,370.947z"/>
	<path style="fill:#B3404A;" d="M153.875,230.838c-4.721,0-9.338-2.348-12.044-6.639c-4.191-6.644-2.202-15.429,4.442-19.62
		l61.858-39.016c6.644-4.192,15.428-2.203,19.62,4.442c4.191,6.644,2.202,15.429-4.442,19.62l-61.858,39.016
		C159.094,230.128,156.468,230.838,153.875,230.838z"/>
	<path style="fill:#B3404A;" d="M153.185,230.838c-2.595,0-5.219-0.71-7.576-2.195l-61.858-39.016
		c-6.644-4.191-8.633-12.976-4.442-19.62c4.191-6.644,12.974-8.633,19.62-4.442l61.858,39.016c6.644,4.191,8.633,12.976,4.442,19.62
		C162.525,228.488,157.906,230.838,153.185,230.838z"/>
	<path style="fill:#B3404A;" d="M186.091,343.596h-69.282c-7.856,0-14.225-6.368-14.225-14.225s6.368-14.225,14.225-14.225h69.281
		c7.856,0,14.225,6.368,14.225,14.225S193.946,343.596,186.091,343.596z"/>
</g>
<path style="fill:#F4B2B0;" d="M74.049,420.374c0-60.955,77.401-90.76,77.401-90.76s77.401,28.866,77.401,90.76
	c0,42.748-34.654,77.401-77.401,77.401S74.049,463.122,74.049,420.374z"/>
<g>
	<path style="fill:#B3404A;" d="M151.45,512c-50.523,0-91.626-41.103-91.626-91.626c0-69.916,82.982-102.674,86.515-104.034
		c3.24-1.247,6.828-1.267,10.081-0.054c3.539,1.32,86.656,33.132,86.656,104.086C243.076,470.897,201.973,512,151.45,512z
		 M151.521,345.108c-15.795,7.39-63.248,33.105-63.248,75.268c0,34.836,28.341,63.177,63.177,63.177s63.177-28.341,63.177-63.177
		C214.627,377.56,167.322,352.336,151.521,345.108z"/>
	<path style="fill:#B3404A;" d="M362.63,370.947c-7.856,0-14.225-6.368-14.225-14.225v-222.8c0-7.856,6.368-14.225,14.225-14.225
		s14.224,6.368,14.224,14.225v222.8C376.854,364.579,370.486,370.947,362.63,370.947z"/>
	<path style="fill:#B3404A;" d="M362.976,230.838c-4.721,0-9.338-2.348-12.044-6.639c-4.191-6.644-2.202-15.429,4.442-19.62
		l61.858-39.016c6.644-4.192,15.428-2.203,19.62,4.442c4.191,6.644,2.202,15.429-4.442,19.62l-61.858,39.016
		C368.195,230.128,365.569,230.838,362.976,230.838z"/>
	<path style="fill:#B3404A;" d="M395.191,343.596h-69.28c-7.856,0-14.225-6.368-14.225-14.225s6.368-14.225,14.225-14.225h69.28
		c7.856,0,14.225,6.368,14.225,14.225S403.046,343.596,395.191,343.596z"/>
</g>
<path style="fill:#F4B2B0;" d="M283.149,420.374c0-60.955,77.401-90.76,77.401-90.76s77.401,28.866,77.401,90.76
	c0,42.748-34.654,77.401-77.401,77.401S283.149,463.122,283.149,420.374z"/>
<path style="fill:#B3404A;" d="M360.55,512c-50.523,0-91.626-41.103-91.626-91.626c0-69.916,82.982-102.674,86.515-104.034
	c3.242-1.247,6.828-1.267,10.081-0.054c3.539,1.32,86.656,33.132,86.656,104.086C452.176,470.897,411.073,512,360.55,512z
	 M360.621,345.108c-15.795,7.39-63.248,33.105-63.248,75.268c0,34.836,28.341,63.177,63.177,63.177s63.177-28.341,63.177-63.177
	C423.727,377.56,376.422,352.336,360.621,345.108z"/>
<g>
</g>
<g>
</g>
<g>
</g>
<g>
</g>
<g>
</g>
<g>
</g>
<g>
</g>
<g>
</g>
<g>
</g>
<g>
</g>
<g>
</g>
<g>
</g>
<g>
</g>
<g>
</g>
<g>
</g>
</svg>
