<?xml version="1.0" encoding="iso-8859-1"?>
<!-- Generator: Adobe Illustrator 19.0.0, SVG Export Plug-In . SVG Version: 6.00 Build 0)  -->
<svg version="1.1" id="Layer_1" xmlns="http://www.w3.org/2000/svg" xmlns:xlink="http://www.w3.org/1999/xlink" x="0px" y="0px"
	 viewBox="0 0 512.001 512.001" style="enable-background:new 0 0 512.001 512.001;" xml:space="preserve">
<path style="fill:#F4B2B0;" d="M205.949,173.83c29.881,0,43.286,16.747,48.561,26.585c0.663,1.235,2.461,1.233,3.121-0.003
	c5.257-9.838,18.589-26.582,48.466-26.582c34.035,0,63.975,23.233,63.975,65.659c0,17.168-3.498,31.876-13.208,48.289
	c-19.789,33.45-84.977,76.812-98.368,85.357c-1.48,0.945-3.355,0.948-4.838,0.006c-13.401-8.504-78.602-51.651-98.546-85.363
	c-9.71-16.414-13.185-31.121-13.185-48.289C141.925,197.063,171.912,173.83,205.949,173.83z"/>
<g>
	<path style="fill:#B3404A;" d="M256.069,388.356c-3.61,0-7.133-1.024-10.188-2.961c-8.175-5.189-80.523-51.791-103.261-90.226
		c-10.517-17.778-15.207-34.949-15.207-55.678c0-24.068,8.226-44.568,23.789-59.282c14.245-13.47,33.687-20.887,54.745-20.887
		c24.555,0,40.392,9.59,50.108,19.242c9.7-9.654,25.509-19.242,50.041-19.242c21.057,0,40.492,7.419,54.725,20.892
		c15.543,14.713,23.76,35.212,23.76,59.278c0,20.701-4.697,37.873-15.231,55.678c-22.578,38.164-94.881,84.987-103.052,90.2
		C263.233,387.323,259.697,388.356,256.069,388.356z M205.949,188.34c-24.645,0-49.514,15.816-49.514,51.149
		c0,15.649,3.234,27.499,11.164,40.901c14.668,24.796,61.498,59.353,88.456,77.029c26.952-17.76,73.756-52.415,88.318-77.029
		c7.946-13.432,11.187-25.282,11.187-40.901c0-35.335-24.844-51.149-49.465-51.149c-21.13,0-31.059,10.283-35.67,18.911
		c-2.832,5.302-8.335,8.599-14.359,8.599c-6.013,0-11.511-3.288-14.348-8.58C237.09,198.635,227.125,188.34,205.949,188.34z"/>
	<path style="fill:#B3404A;" d="M255.998,512.001c-2.251,0-4.501-0.522-6.563-1.57c-23.631-11.985-59.104-31.163-93.896-54.456
		c-32.881-22.013-59.465-43.749-79.016-64.606c-18.873-20.134-29.267-46.439-29.267-74.068V109.147
		c0-7.251,5.351-13.388,12.534-14.375c69.38-9.536,135.48-41.745,186.125-90.695c5.624-5.435,14.543-5.435,20.168,0
		c27.092,26.185,58.341,47.513,92.874,63.391c7.281,3.347,10.469,11.964,7.123,19.245c-3.347,7.283-11.962,10.472-19.245,7.122
		c-33.306-15.312-63.806-35.301-90.839-59.513c-50.425,45.102-113.384,75.67-179.719,87.245v195.735
		c0,20.228,7.608,39.485,21.42,54.221c18.043,19.249,42.937,39.55,73.988,60.337c30.518,20.432,61.682,37.636,84.315,49.328
		c22.633-11.694,53.797-28.897,84.315-49.328c31.052-20.789,55.945-41.088,73.988-60.337c13.814-14.736,21.42-33.993,21.42-54.221
		V109.147c0-8.014,6.496-14.51,14.51-14.51s14.51,6.496,14.51,14.51v208.155c0,27.629-10.394,53.932-29.267,74.068
		c-19.551,20.857-46.135,42.593-79.017,64.606c-34.792,23.293-70.263,42.471-93.895,54.456
		C260.499,511.478,258.247,512.001,255.998,512.001z"/>
</g>
<g>
</g>
<g>
</g>
<g>
</g>
<g>
</g>
<g>
</g>
<g>
</g>
<g>
</g>
<g>
</g>
<g>
</g>
<g>
</g>
<g>
</g>
<g>
</g>
<g>
</g>
<g>
</g>
<g>
</g>
</svg>
