<svg xmlns="http://www.w3.org/2000/svg" xmlns:xlink="http://www.w3.org/1999/xlink" id="Layer_1" x="0" y="0" enable-background="new 0 0 512 512" version="1.1" viewBox="0 0 512 512" xml:space="preserve"><g><path fill="#B3404A" d="M213.867,509.02c-12.773,0-24.784-4.975-33.818-14.006c-18.649-18.651-18.649-48.993-0.001-67.642 l91.344-91.343l-22.616-22.616c-24.023-24.023-37.254-55.964-37.254-89.939s13.229-65.914,37.254-89.939 s55.962-37.255,89.939-37.255c0.212,0,0.423,0,0.632,0c33.974,0,65.914,13.231,89.94,37.255c49.59,49.591,49.59,130.283,0,179.876 L247.688,495.011C238.652,504.045,226.64,509.02,213.867,509.02z M338.538,125.057c-26.223,0.046-50.866,10.28-69.413,28.827 c-18.589,18.589-28.826,43.302-28.826,69.59s10.237,51.001,28.826,69.59l32.789,32.789c2.698,2.699,4.214,6.358,4.214,10.173 s-1.516,7.474-4.214,10.173L200.395,447.719c-7.428,7.428-7.428,19.515,0,26.945c3.598,3.598,8.384,5.581,13.471,5.581 c5.089,0,9.874-1.983,13.474-5.582l181.598-181.598c38.37-38.373,38.37-100.808,0-139.18 c-18.556-18.556-43.215-28.791-69.451-28.827l-0.262,0.007c-0.132,0.003-0.262,0.003-0.393,0 C338.767,125.062,338.646,125.06,338.538,125.057z M339.032,303.123c-3.816,0-7.474-1.516-10.174-4.214l-32.789-32.789 c-11.391-11.392-17.664-26.537-17.664-42.646c0-14.274,5.075-28.113,14.293-38.969c0.643-0.76,1.365-1.45,2.152-2.06 c0.699-0.542,1.305-1.072,1.852-1.619c11.28-11.28,26.279-17.55,42.233-17.657c0.065,0,0.129,0,0.194,0 c15.956,0.106,30.955,6.378,42.233,17.657c0.545,0.545,1.148,1.072,1.842,1.611c0.788,0.611,1.511,1.302,2.155,2.065 c20.134,23.745,18.656,59.596-3.365,81.618l-32.789,32.789C346.506,301.608,342.847,303.123,339.032,303.123z M313.848,204.089 c-4.368,5.558-6.669,12.234-6.669,19.386c0,8.423,3.28,16.341,9.237,22.298l22.616,22.616l22.616-22.616 c11.219-11.219,12.241-29.302,2.547-41.701c-1.122-0.935-2.188-1.905-3.178-2.898c-5.873-5.872-13.677-9.146-21.983-9.228 c-8.306,0.082-16.11,3.357-21.983,9.23C316.05,202.171,314.979,203.148,313.848,204.089z"/><path fill="#B3404A" d="M464.196,509.019c-12.776,0-24.787-4.974-33.82-14.006L328.857,393.493 c-2.698-2.699-4.214-6.358-4.214-10.174s1.516-7.474,4.214-10.174l47.292-47.291c5.623-5.617,14.73-5.615,20.348,0l101.518,101.518 c18.646,18.649,18.646,48.991,0,67.639C488.978,504.045,476.97,509.019,464.196,509.019z M359.379,383.318l91.344,91.344 c3.597,3.598,8.382,5.579,13.471,5.579s9.873-1.981,13.473-5.581c7.427-7.427,7.427-19.514-0.001-26.945l-91.343-91.343 L359.379,383.318z"/></g><path fill="#F4B2B0" d="M371.821,255.947c17-17,17.848-44.117,2.565-62.14c-1.108-0.859-2.18-1.787-3.197-2.806	c-8.6-8.601-20.009-13.362-32.158-13.444c-12.149,0.082-23.557,4.843-32.158,13.444c-1.022,1.022-2.098,1.954-3.21,2.816	c-7.031,8.282-10.873,18.672-10.873,29.659c0,12.265,4.777,23.799,13.451,32.473l32.789,32.789L371.821,255.947z"/><path fill="#B3404A" d="M339.032,303.123c-3.683,0-7.364-1.406-10.174-4.214l-32.789-32.789	c-11.391-11.392-17.664-26.537-17.664-42.646c0-14.274,5.075-28.113,14.291-38.97c0.647-0.761,1.373-1.455,2.162-2.067	c0.693-0.537,1.296-1.063,1.843-1.61c11.28-11.28,26.279-17.55,42.233-17.657c0.065,0,0.129,0,0.194,0	c15.957,0.106,30.958,6.379,42.233,17.658c0.545,0.544,1.144,1.068,1.833,1.601c0.791,0.613,1.518,1.306,2.165,2.07	c20.133,23.747,18.655,59.598-3.367,81.62l-32.789,32.789C346.395,301.719,342.714,303.123,339.032,303.123z M313.846,204.09	c-4.367,5.558-6.667,12.234-6.667,19.384c0,8.423,3.28,16.341,9.237,22.298l22.616,22.616l22.616-22.616	c11.219-11.218,12.241-29.3,2.548-41.7c-1.122-0.934-2.188-1.905-3.181-2.898c-5.872-5.874-13.675-9.148-21.983-9.23	c-8.306,0.082-16.11,3.357-21.983,9.23C316.049,202.172,314.977,203.149,313.846,204.09z"/><path fill="#F4B2B0" d="M354.268,17.367c-61.855,0-89.457,34.666-100.339,55.033c-1.368,2.56-5.09,2.562-6.461,0.006	c-10.92-20.366-38.674-55.037-100.534-55.037C76.472,17.367,14.388,65.468,14.388,153.302c0,35.542,7.192,65.992,27.296,99.973	c32.825,55.486,124.87,123.318,175.167,157.641l74.889-74.889l-32.789-32.789c-21.307-21.307-33.04-49.634-33.04-79.764	c0-30.131,11.733-58.458,33.04-79.764c21.305-21.307,49.633-33.041,79.765-33.041c0.106,0,0.21,0.007,0.317,0.009	c0.106,0,0.21-0.009,0.317-0.009c30.132,0,58.46,11.735,79.765,33.041c41.364,41.364,43.815,107.12,7.372,151.39	c13.504-14.262,24.957-28.429,32.882-41.825c20.104-33.982,27.347-64.431,27.347-99.973	C486.714,65.468,424.73,17.367,354.268,17.367z"/><path fill="#B3404A" d="M216.848,425.304c-2.814,0-5.643-0.822-8.106-2.503C156.454,387.12,63.612,318.6,29.3,260.602	C9.035,226.345,0,193.253,0,153.302c0-45.416,15.337-83.923,44.353-111.359C70.925,16.816,107.355,2.98,146.934,2.98	c55.962,0,87.196,25.596,103.749,47.764C267.199,28.572,298.374,2.98,354.268,2.98c39.573,0,75.987,13.839,102.536,38.967	c28.98,27.43,44.297,65.936,44.297,111.355c0,39.893-9.053,72.984-29.352,107.299c-7.969,13.473-19.684,28.407-34.815,44.39	c-5.331,5.628-14.162,6.026-19.971,0.892c-5.811-5.131-6.51-13.942-1.586-19.928c32.339-39.284,29.571-96.063-6.44-132.071	c-18.554-18.557-43.213-28.791-69.451-28.827l-0.272,0.007c-0.121,0.003-0.245,0.003-0.365,0c-0.073-0.001-0.199-0.004-0.311-0.007	c-26.224,0.046-50.867,10.28-69.413,28.826c-18.589,18.59-28.826,43.304-28.826,69.592s10.237,51.001,28.826,69.592l32.789,32.788	c2.698,2.699,4.214,6.358,4.214,10.173s-1.516,7.474-4.214,10.173l-74.889,74.889C224.243,423.873,220.558,425.304,216.848,425.304z M146.934,31.755c-58.814,0-118.158,37.583-118.158,121.547c0,34.972,7.564,62.678,25.291,92.648	C84.317,297.085,170.44,361.146,215.151,392.27l56.241-56.243l-22.616-22.616c-24.023-24.024-37.254-55.965-37.254-89.939	s13.229-65.914,37.254-89.939c24.02-24.023,55.962-37.255,89.939-37.255c0.213,0,0.422,0,0.632,0	c33.978,0,65.918,13.231,89.939,37.257c19.538,19.537,32.04,44.684,35.91,71.819c4.892-16.242,7.13-33.084,7.13-52.054	c0-83.963-59.294-121.547-118.058-121.547c-54.213,0-78.185,29.713-87.651,47.426c-3.138,5.876-9.238,9.528-15.92,9.529	c-6.669,0-12.765-3.642-15.91-9.504C225.286,61.484,201.237,31.755,146.934,31.755z"/></svg>