<?xml version="1.0" encoding="iso-8859-1"?>
<!-- Generator: Adobe Illustrator 19.0.0, SVG Export Plug-In . SVG Version: 6.00 Build 0)  -->
<svg version="1.1" id="Layer_1" xmlns="http://www.w3.org/2000/svg" xmlns:xlink="http://www.w3.org/1999/xlink" x="0px" y="0px"
	 viewBox="0 0 512 512" style="enable-background:new 0 0 512 512;" xml:space="preserve">
<g>
	<path style="fill:#B3404A;" d="M258.651,315.616h-5.303c-4.943,0-9.54-2.548-12.159-6.741
		c-13.273-21.246-39.744-37.928-67.438-42.498c-4.913-0.804-9.929-1.214-14.885-1.214c-30.257,0-58.658,15.154-75.97,40.538
		c-3.546,5.197-10.065,7.474-16.072,5.622c-6.01-1.854-10.111-7.409-10.111-13.701v-39.913c0-53.223,20.727-103.269,58.364-140.92
		C152.732,79.149,202.777,58.421,256,58.421c109.887,0,199.287,89.4,199.287,199.287v39.913c0,7.918-6.42,14.337-14.337,14.337
		c-7.917,0-14.337-6.419-14.337-14.337v-39.913c0-94.076-76.536-170.613-170.613-170.613c-45.565,0-88.412,17.745-120.648,49.969
		c-32.219,32.231-49.965,75.078-49.965,120.643v4.002c20.858-16.151,46.597-25.221,73.478-25.221c6.503,0,13.077,0.536,19.534,1.593
		c30.339,5.007,58.794,20.904,77.6,42.733c18.806-21.83,47.258-37.725,77.581-42.731c17.673-2.893,35.74-1.817,52.676,3.061
		c7.609,2.191,12,10.135,9.81,17.744c-2.189,7.609-10.129,12.005-17.745,9.81c-12.871-3.706-26.643-4.522-40.091-2.321
		c-27.677,4.568-54.147,21.248-67.419,42.495C268.192,313.068,263.594,315.616,258.651,315.616z"/>
	<path style="fill:#B3404A;" d="M256,98.653c-2.32,0-4.638-0.562-6.747-1.687c-11.655-6.217-9.799-16.31-9.309-18.271
		c1.753-7.008,8.205-11.716,16.056-11.716s14.304,4.708,16.056,11.716c0.49,1.961,2.346,12.055-9.309,18.271
		C260.638,98.091,258.32,98.653,256,98.653z M249.253,71.666c-2.629,1.437-6.789,7.027-4.998,14.048
		c1.646,6.456,7.28,9.94,11.745,9.94s10.099-3.484,11.745-9.94c1.791-7.024-2.374-12.617-5.001-14.049L256,84.317l-6.744-12.653
		L249.253,71.666L249.253,71.666z"/>
</g>
<path style="fill:#F4B2B0;" d="M335.916,217.279v34.953c-30.667,5.061-61.249,23.413-77.263,49.048h-5.305
	c-16.015-25.635-46.596-43.987-77.263-49.048v-34.953c0-41.578,16.846-79.199,44.087-106.454
	c10.523-10.509,22.581-19.484,35.829-26.509C303.542,109.606,335.916,159.658,335.916,217.279z"/>
<path style="fill:#B3404A;" d="M258.651,315.616h-5.303c-4.943,0-9.54-2.548-12.159-6.741
	c-13.273-21.246-39.744-37.928-67.438-42.498c-6.923-1.143-12.003-7.128-12.003-14.147v-34.953
	c0-44.031,17.147-85.437,48.283-116.589c11.658-11.642,24.861-21.408,39.254-29.041c4.208-2.229,9.247-2.227,13.45,0.009
	c53.984,28.717,87.52,84.516,87.52,145.621v34.953c0,7.018-5.08,13.004-12.003,14.147c-27.694,4.571-54.165,21.251-67.438,42.498
	C268.192,313.068,263.594,315.616,258.651,315.616z M190.42,240.654c25.732,6.777,49.277,21.241,65.578,40.161
	c16.301-18.921,39.846-33.384,65.578-40.161v-23.375c0-47.892-24.938-91.838-65.584-116.481
	c-9.289,5.633-17.906,12.396-25.692,20.171c-25.715,25.728-39.88,59.934-39.88,96.309L190.42,240.654L190.42,240.654z"/>
<circle style="fill:#F4B2B0;" cx="256.004" cy="40.847" r="26.509"/>
<g>
	<path style="fill:#B3404A;" d="M256,81.693c-22.524,0-40.847-18.324-40.847-40.847S233.476,0,256,0s40.847,18.324,40.847,40.847
		S278.524,81.693,256,81.693z M256,28.674c-6.713,0-12.172,5.461-12.172,12.172S249.289,53.019,256,53.019
		c6.711,0,12.172-5.461,12.172-12.172S262.711,28.674,256,28.674z"/>
	<path style="fill:#B3404A;" d="M211.555,512c-32.412,0-58.783-26.37-58.783-58.783c0-7.918,6.42-14.337,14.337-14.337
		s14.337,6.419,14.337,14.337c0,16.602,13.507,30.108,30.108,30.108s30.108-13.506,30.108-30.108v-60.212
		c0-7.918,6.42-14.337,14.337-14.337c7.917,0,14.337,6.419,14.337,14.337v60.212C270.337,485.631,243.967,512,211.555,512z"/>
	<path style="fill:#B3404A;" d="M256,349.99c-7.917,0-14.337-6.419-14.337-14.337v-42.528c0-7.918,6.42-14.337,14.337-14.337
		c7.917,0,14.337,6.419,14.337,14.337v42.528C270.337,343.571,263.917,349.99,256,349.99z"/>
</g>
<g>
</g>
<g>
</g>
<g>
</g>
<g>
</g>
<g>
</g>
<g>
</g>
<g>
</g>
<g>
</g>
<g>
</g>
<g>
</g>
<g>
</g>
<g>
</g>
<g>
</g>
<g>
</g>
<g>
</g>
</svg>
