<svg xmlns="http://www.w3.org/2000/svg" xmlns:xlink="http://www.w3.org/1999/xlink" id="Layer_1" x="0" y="0" enable-background="new 0 0 512 512" version="1.1" viewBox="0 0 512 512" xml:space="preserve"><rect width="90.35" height="64.909" x="139.674" y="13.905" fill="#F4B2B0"/><g><path fill="#B3404A" d="M230.029,92.719h-90.351c-7.68,0-13.905-6.227-13.905-13.905V13.905 C125.773,6.227,131.999,0,139.678,0h90.351c7.68,0,13.905,6.227,13.905,13.905v64.909 C243.934,86.492,237.709,92.719,230.029,92.719z M153.583,64.909h62.541v-37.1h-62.541V64.909z"/><path fill="#B3404A" d="M176.049,197.173h-75.261c-7.68,0-13.905-6.227-13.905-13.905c0-7.678,6.225-13.905,13.905-13.905 h75.26c7.68,0,13.905,6.227,13.905,13.905C189.953,190.947,183.729,197.173,176.049,197.173z"/></g><path fill="#F4B2B0" d="M219.151,299.626c0-8.563,0.278-17.107,0.818-25.624c-4.107-7.855-9.056-15.33-13.937-21.893	l-11.559-14.276c-3.223-3.678-5.917-6.52-7.625-8.276c-1.092-1.121-2.889-1.114-3.974,0.013c-8.668,9.013-42.844,46.526-42.844,77.7	c0,27.85,20.067,46.62,44.824,46.62c13.764,0,26.074-5.811,34.298-15.751L219.151,299.626L219.151,299.626z"/><g><path fill="#B3404A" d="M184.854,367.797c-33.48,0-58.729-26.02-58.729-60.525c0-34.973,32.676-72.729,46.726-87.339 c3.129-3.252,7.507-5.116,12.015-5.116c4.469,0,8.823,1.837,11.941,5.039c1.812,1.86,4.691,4.897,8.12,8.811 c0.12,0.136,0.236,0.275,0.35,0.417l11.559,14.277c0.12,0.146,0.236,0.298,0.349,0.449c5.996,8.059,11.077,16.049,15.102,23.747 c1.178,2.254,1.716,4.786,1.556,7.325c-0.524,8.273-0.79,16.6-0.79,24.744v38.514c0,3.234-1.129,6.368-3.19,8.862 C218.936,360.217,202.53,367.797,184.854,367.797z M184.857,248.055c-15.646,18.186-30.922,41.869-30.922,59.217 c0,19.264,12.715,32.715,30.919,32.715c7.855,0,14.945-2.603,20.393-7.411v-32.949c0-7.407,0.204-14.95,0.61-22.477 c-3.006-5.335-6.633-10.875-10.814-16.515L184.857,248.055z"/><path fill="#B3404A" d="M116.274,512c-13.806,0-26.888-5.391-36.935-15.247c-10.412-10.215-16.384-24.393-16.384-38.903 V299.626c0-67.696,16.658-135.141,48.175-195.05l16.957-32.236c2.404-4.571,7.143-7.432,12.306-7.432h88.926 c5.098,0,9.786,2.789,12.218,7.268l14.408,26.525c4.526,8.333,8.874,17.05,12.92,25.905c3.191,6.984,0.115,15.234-6.869,18.425 c-6.983,3.191-15.236,0.115-18.425-6.869c-3.781-8.275-7.838-16.412-12.061-24.186l-10.461-19.258H148.79l-13.048,24.803 c-29.425,55.934-44.978,118.903-44.978,182.105V457.85c0,7.089,2.934,14.033,8.048,19.05c4.921,4.828,11.321,7.431,17.948,7.285 c9.555-0.184,18.125-5.636,22.367-14.226c2.317-4.69,7.068-7.684,12.296-7.748c5.285-0.081,10.053,2.81,12.484,7.442 c4.106,7.824,12.132,12.684,20.945,12.684c8.814,0,16.839-4.86,20.945-12.684c2.431-4.629,7.271-7.516,12.484-7.442 c5.23,0.064,9.981,3.058,12.296,7.746c4.39,8.889,13.618,14.508,23.534,14.223c7.63-0.19,14.056,5.875,14.248,13.552 c0.193,7.677-5.875,14.056-13.552,14.25c-13.839,0.349-27.06-4.755-37.038-13.727c-9.078,7.567-20.645,11.89-32.917,11.89 c-12.254,0-23.804-4.311-32.875-11.854c-9.358,8.462-21.576,13.446-34.683,13.699C116.955,511.997,116.613,512,116.274,512z"/></g><path fill="#F4B2B0" d="M348.323,252.11c11.602,15.598,23.645,36.326,23.645,55.161c0,27.85-20.068,46.62-44.824,46.62	c-24.756,0-44.824-18.772-44.824-46.62c0-31.173,34.175-68.686,42.844-77.7c1.085-1.128,2.882-1.133,3.974-0.013	c1.709,1.755,4.402,4.598,7.625,8.276L348.323,252.11z"/><g><path fill="#B3404A" d="M327.145,367.797c-33.48,0-58.727-26.02-58.727-60.525c0-34.971,32.676-72.728,46.726-87.339 c3.131-3.254,7.509-5.117,12.017-5.117c4.475,0,8.831,1.841,11.95,5.05c1.795,1.841,4.669,4.875,8.112,8.802 c0.12,0.136,0.236,0.274,0.35,0.416l11.559,14.276c0.121,0.147,0.238,0.299,0.35,0.452c17.515,23.546,26.394,44.897,26.394,63.46 C385.875,341.777,360.626,367.797,327.145,367.797z M327.149,248.055c-15.644,18.185-30.922,41.87-30.922,59.217 c0,19.264,12.715,32.715,30.917,32.715c18.206,0,30.919-13.453,30.919-32.715c0-12.051-7.361-28.606-20.731-46.638L327.149,248.055 z"/><path fill="#B3404A" d="M258.566,512c-13.808,0-26.889-5.391-36.937-15.248c-10.412-10.213-16.384-24.392-16.384-38.902 V299.626c0-67.694,16.658-135.141,48.175-195.05l16.957-32.236c2.404-4.571,7.143-7.432,12.307-7.432h88.924 c5.097,0,9.785,2.789,12.218,7.268l14.408,26.525c33.241,61.192,50.811,130.344,50.811,199.982v100.668 c0,7.678-6.227,13.905-13.905,13.905c-7.678,0-13.905-6.227-13.905-13.905V298.683c0-65.016-16.404-129.578-47.438-186.707 l-10.461-19.258h-72.257l-13.048,24.803c-29.425,55.934-44.978,118.904-44.978,182.105V457.85c0,7.089,2.934,14.031,8.048,19.048 c4.921,4.828,11.319,7.397,17.95,7.286c9.554-0.184,18.124-5.636,22.366-14.227c2.315-4.69,7.066-7.684,12.297-7.748 c0.057-0.001,0.114-0.001,0.172-0.001c5.163,0,9.907,2.864,12.311,7.445c4.106,7.824,12.132,12.684,20.945,12.684 c8.813,0,16.839-4.86,20.945-12.684c2.431-4.632,7.308-7.536,12.484-7.443c5.23,0.064,9.981,3.056,12.296,7.746 c4.39,8.891,13.673,14.46,23.534,14.225c13.693-0.342,24.833-12.128,24.833-26.27v-6.631c0-7.678,6.227-13.905,13.905-13.905 s13.905,6.227,13.905,13.905v6.631c0,29.099-23.303,53.354-51.946,54.072c-13.845,0.325-27.059-4.757-37.038-13.727 c-9.077,7.567-20.645,11.89-32.917,11.89c-12.253,0-23.804-4.311-32.875-11.855c-9.357,8.464-21.576,13.447-34.681,13.7 C259.247,511.997,258.907,512,258.566,512z"/></g><rect width="90.35" height="64.909" x="281.976" y="13.905" fill="#F4B2B0"/><g><path fill="#B3404A" d="M372.322,92.719h-90.351c-7.678,0-13.905-6.227-13.905-13.905V13.905 C268.066,6.227,274.293,0,281.971,0h90.351c7.678,0,13.905,6.227,13.905,13.905v64.909C386.227,86.492,380,92.719,372.322,92.719z M295.876,64.909h62.541v-37.1h-62.541L295.876,64.909L295.876,64.909z"/><path fill="#B3404A" d="M318.34,197.173h-75.26c-7.68,0-13.905-6.227-13.905-13.905c0-7.678,6.225-13.905,13.905-13.905 h75.26c7.678,0,13.905,6.227,13.905,13.905C332.245,190.947,326.02,197.173,318.34,197.173z"/><path fill="#B3404A" d="M430.216,413.251h-75.261c-7.678,0-13.905-6.227-13.905-13.905c0-7.678,6.227-13.905,13.905-13.905 h75.261c7.678,0,13.905,6.227,13.905,13.905C444.121,407.024,437.896,413.251,430.216,413.251z"/></g></svg>