<?xml version="1.0" encoding="iso-8859-1"?>
<!-- Generator: Adobe Illustrator 19.0.0, SVG Export Plug-In . SVG Version: 6.00 Build 0)  -->
<svg version="1.1" id="Layer_1" xmlns="http://www.w3.org/2000/svg" xmlns:xlink="http://www.w3.org/1999/xlink" x="0px" y="0px"
	 viewBox="0 0 512 512" style="enable-background:new 0 0 512 512;" xml:space="preserve">
<path style="fill:#B3404A;" d="M298.352,449.47c-8.206,0-14.861-6.653-14.861-14.861V333.249c0-19.081,7.371-37.081,20.755-50.682
	l69.069-70.19c9.495-9.495,22.005-14.677,35.313-14.677s25.818,5.182,35.228,14.592l0.146,0.146
	c9.377,9.376,14.559,21.887,14.559,35.194s-5.182,25.819-14.593,35.228l-70.79,70.792c-0.108,8.286-0.235,26.742-0.337,59.117
	l30.695,0.178l62.556-48.04c8.356-6.415,13.344-16.536,13.344-27.072V53.966c0-11.082-9.016-20.098-20.098-20.098h-0.158
	c-11.082,0-20.098,9.016-20.098,20.098v109.6c0,8.208-6.655,14.861-14.861,14.861c-8.206,0-14.861-6.653-14.861-14.861v-109.6
	c0-27.47,22.349-49.82,49.82-49.82h0.158c27.47,0,49.82,22.349,49.82,49.82v283.868c0,19.71-9.331,38.641-24.963,50.646
	l-66.596,51.142c-2.596,1.994-5.779,3.075-9.052,3.075c-0.03,0-0.056,0-0.086,0l-50.609-0.293c-8.19-0.048-14.797-6.711-14.775-14.9
	c0.049-18.897,0.12-38.904,0.213-54.22c0.046-7.689,0.098-14.2,0.155-18.805c0.122-9.94,0.162-13.289,4.534-17.661l74.974-74.975
	c3.797-3.797,5.888-8.844,5.888-14.212c0-5.368-2.091-10.415-5.886-14.212l-0.147-0.147c-3.763-3.763-8.81-5.852-14.177-5.852
	c-5.368,0-10.415,2.091-14.211,5.886l-68.985,70.105c-7.879,8.007-12.219,18.603-12.219,29.836v101.359
	C313.213,442.816,306.558,449.47,298.352,449.47z"/>
<rect x="298.6" y="416.404" style="fill:#F4B2B0;" width="118.888" height="80.74"/>
<g>
	<path style="fill:#B3404A;" d="M417.493,512H298.603c-8.206,0-14.861-6.653-14.861-14.861v-80.738
		c0-8.208,6.655-14.861,14.861-14.861h118.889c8.206,0,14.861,6.653,14.861,14.861v80.738C432.353,505.347,425.699,512,417.493,512z
		 M313.464,482.278h89.167v-51.016h-89.167V482.278z"/>
	<path style="fill:#B3404A;" d="M213.648,449.47c-8.208,0-14.861-6.653-14.861-14.861V333.249c0-11.233-4.339-21.828-12.217-29.836
		l-69.069-70.19c-3.712-3.711-8.759-5.802-14.127-5.802s-10.416,2.091-14.212,5.886l-0.113,0.113
		c-3.797,3.795-5.886,8.842-5.886,14.212c0,5.369,2.091,10.415,5.886,14.212l74.975,74.975c4.371,4.36,4.412,7.711,4.534,17.662
		c0.056,4.605,0.107,11.116,0.155,18.805c0.092,15.316,0.163,35.323,0.213,54.22c0.021,8.188-6.586,14.852-14.775,14.9
		l-50.609,0.293c-3.342,0.016-6.518-1.063-9.137-3.075L27.809,388.48c-15.632-12.005-24.965-30.938-24.965-50.646V53.966
		c0-27.47,22.349-49.82,49.82-49.82h0.159c27.47,0,49.82,22.349,49.82,49.82v109.6c0,8.208-6.653,14.861-14.861,14.861
		s-14.861-6.653-14.861-14.861v-109.6c0-11.082-9.016-20.098-20.098-20.098h-0.159c-11.082,0-20.098,9.016-20.098,20.098v283.868
		c0,10.535,4.987,20.655,13.344,27.071l62.556,48.041l30.695-0.178c-0.103-32.401-0.226-50.829-0.336-59.114l-70.792-70.795
		c-19.425-19.425-19.425-51.031,0-70.456l0.113-0.113c9.41-9.41,21.921-14.592,35.229-14.592c13.308,0,25.818,5.182,35.228,14.592
		l69.152,70.276c13.384,13.602,20.753,31.602,20.753,50.682v101.359C228.509,442.816,221.855,449.47,213.648,449.47z"/>
</g>
<rect x="94.5" y="416.404" style="fill:#F4B2B0;" width="118.888" height="80.74"/>
<path style="fill:#B3404A;" d="M213.395,512H94.506c-8.208,0-14.861-6.653-14.861-14.861v-80.738
	c0-8.208,6.653-14.861,14.861-14.861h118.889c8.208,0,14.861,6.653,14.861,14.861v80.738C228.256,505.347,221.603,512,213.395,512z
	 M109.367,482.278h89.167v-51.016h-89.167V482.278z"/>
<path style="fill:#F4B2B0;" d="M332.249,156.468c0,42.111-34.139,76.25-76.25,76.25s-76.25-34.139-76.25-76.25
	c0-62.816,76.25-141.607,76.25-141.607S332.249,93.652,332.249,156.468z"/>
<path style="fill:#B3404A;" d="M256,247.578c-50.239,0-91.111-40.872-91.111-91.111c0-68.047,77.148-148.547,80.432-151.941
	C248.119,1.633,251.974,0,256,0s7.879,1.633,10.681,4.527c3.283,3.394,80.43,83.895,80.43,151.941
	C347.11,206.705,306.237,247.578,256,247.578z M256,37.109c-20.067,23.39-61.389,76.73-61.389,119.359
	c0,33.85,27.539,61.389,61.389,61.389c33.849,0,61.389-27.539,61.389-61.389C317.388,113.839,276.07,60.5,256,37.109z"/>
<g>
</g>
<g>
</g>
<g>
</g>
<g>
</g>
<g>
</g>
<g>
</g>
<g>
</g>
<g>
</g>
<g>
</g>
<g>
</g>
<g>
</g>
<g>
</g>
<g>
</g>
<g>
</g>
<g>
</g>
</svg>
