<?xml version="1.0" encoding="iso-8859-1"?>
<!-- Generator: Adobe Illustrator 19.0.0, SVG Export Plug-In . SVG Version: 6.00 Build 0)  -->
<svg version="1.1" id="Layer_1" xmlns="http://www.w3.org/2000/svg" xmlns:xlink="http://www.w3.org/1999/xlink" x="0px" y="0px"
	 viewBox="0 0 512.001 512.001" style="enable-background:new 0 0 512.001 512.001;" xml:space="preserve">
<path style="fill:#B3404A;" d="M326.528,363.866H116.181c-7.866,0-14.245-6.379-14.245-14.245v-72.475
	c0-28.965,23.565-52.531,52.531-52.531h207.577L417.166,44.27c6.269-20.511,24.893-34.292,46.34-34.292
	c15.441,0,29.594,7.095,38.831,19.47c9.235,12.373,12.017,27.958,7.627,42.763l-58.118,195.992
	c-2.235,7.543-10.165,11.85-17.706,9.607c-7.543-2.235-11.843-10.164-9.607-17.706l58.118-195.992
	c1.809-6.1,0.662-12.523-3.144-17.621s-9.638-8.023-16-8.023c-8.838,0-16.511,5.678-19.094,14.129l-58.203,190.428
	c-1.83,5.99-7.36,10.081-13.622,10.081H154.467c-13.256,0-24.041,10.785-24.041,24.041v58.23h196.102
	c7.866,0,14.245,6.379,14.245,14.245C340.773,357.489,334.394,363.866,326.528,363.866z"/>
<circle style="fill:#F4B2B0;" cx="65.388" cy="436.633" r="51.142"/>
<path style="fill:#B3404A;" d="M65.387,502.023C29.333,502.023,0,472.69,0,436.636s29.333-65.387,65.387-65.387
	s65.387,29.333,65.387,65.387S101.442,502.023,65.387,502.023z M65.387,399.738c-20.344,0-36.897,16.553-36.897,36.898
	s16.553,36.897,36.897,36.897s36.897-16.553,36.897-36.897S85.733,399.738,65.387,399.738z"/>
<circle style="fill:#F4B2B0;" cx="344.099" cy="384.981" r="102.805"/>
<g>
	<path style="fill:#B3404A;" d="M344.096,502.023c-64.538,0-117.043-52.505-117.043-117.043
		c0-64.539,52.505-117.044,117.043-117.044c64.539,0,117.044,52.505,117.044,117.044
		C461.14,449.518,408.634,502.023,344.096,502.023z M344.096,296.425c-48.829,0-88.553,39.726-88.553,88.555
		s39.725,88.553,88.553,88.553s88.555-39.725,88.555-88.553S392.924,296.425,344.096,296.425z"/>
	<path style="fill:#B3404A;" d="M116.181,448.624c-7.866,0-14.245-6.379-14.245-14.245V321.132c0-7.866,6.379-14.245,14.245-14.245
		s14.245,6.379,14.245,14.245V434.38C130.426,442.246,124.047,448.624,116.181,448.624z"/>
	<path style="fill:#B3404A;" d="M203.076,201.166c-7.866,0-14.245-6.379-14.245-14.245c0-33.081,26.913-59.992,59.991-59.992
		h148.453c7.866,0,14.245,6.379,14.245,14.245s-6.379,14.245-14.245,14.245H248.822c-17.37,0-31.501,14.132-31.501,31.503
		C217.321,194.787,210.942,201.166,203.076,201.166z"/>
</g>
<g>
</g>
<g>
</g>
<g>
</g>
<g>
</g>
<g>
</g>
<g>
</g>
<g>
</g>
<g>
</g>
<g>
</g>
<g>
</g>
<g>
</g>
<g>
</g>
<g>
</g>
<g>
</g>
<g>
</g>
</svg>
