<svg xmlns="http://www.w3.org/2000/svg" xmlns:xlink="http://www.w3.org/1999/xlink" id="Layer_1" x="0" y="0" enable-background="new 0 0 512 512" version="1.1" viewBox="0 0 512 512" xml:space="preserve"><g><path fill="#2D527C" d="M432.464,512h-37.766c-8.021,0-14.523-6.502-14.523-14.523s6.502-14.523,14.523-14.523h37.766 c27.839,0,50.49-22.65,50.49-50.49V79.536c0-27.839-22.65-50.49-50.49-50.49H214.367c-8.021,0-14.523-6.502-14.523-14.523 S206.346,0,214.367,0h218.097C476.321,0,512,35.679,512,79.536v352.928C512,476.321,476.321,512,432.464,512z"/><path fill="#2D527C" d="M289.693,512H79.536C35.679,512,0,476.321,0,432.464V79.536C0,35.679,35.679,0,79.536,0h32.684 c8.021,0,14.523,6.502,14.523,14.523s-6.502,14.523-14.523,14.523H79.536c-27.839,0-50.49,22.65-50.49,50.49v352.928 c0,27.839,22.65,50.49,50.49,50.49h210.157c8.021,0,14.523,6.502,14.523,14.523S297.714,512,289.693,512z"/></g><path fill="#CEE8FA" d="M256.951,173.087c-28.547,0-54.896,9.569-76.024,25.659v-86.147	c0-13.888-11.258-25.145-25.145-25.145c-13.887,0-25.145,11.258-25.145,25.145c0,0-1.635,184.827-1.258,186.56	c0,67.932,52.331,125.388,127.573,125.388c69.328,0,125.73-56.402,125.73-125.73S326.278,173.087,256.951,173.087z M256.951,374.255	c-41.597,0-75.438-33.842-75.438-75.438s33.842-75.438,75.438-75.438s75.438,33.842,75.438,75.438S298.546,374.255,256.951,374.255z"/><g><path fill="#2D527C" d="M256.949,439.071c-39.637,0-75.986-14.758-102.355-41.557 c-25.628-26.047-39.741-60.975-39.741-98.354h0.078c-0.235-8.105-0.116-40.28,1.181-186.689c0-21.745,17.795-39.541,39.668-39.541 s39.668,17.795,39.668,39.668v60.152c19.006-9.335,39.87-14.188,61.501-14.188c77.336,0,140.254,62.917,140.254,140.253 S334.286,439.071,256.949,439.071z M143.866,298.173c0.022,0.328,0.033,0.658,0.033,0.986c0,63.203,48.6,110.864,113.05,110.864 c61.32,0,111.208-49.887,111.208-111.207S318.269,187.61,256.949,187.61c-24.486,0-47.732,7.845-67.225,22.691 c-4.392,3.343-10.298,3.908-15.246,1.458c-4.947-2.45-8.076-7.494-8.076-13.013v-86.147c0-5.857-4.765-10.622-10.622-10.622 c-5.857,0-10.622,4.765-10.622,10.622C144.531,183.397,143.677,290.41,143.866,298.173z M256.949,388.779 c-49.605,0-89.961-40.357-89.961-89.961s40.357-89.961,89.961-89.961s89.962,40.357,89.962,89.961S306.554,388.779,256.949,388.779 z M256.949,237.902c-33.588,0-60.914,27.327-60.914,60.914s27.327,60.914,60.914,60.914c33.589,0,60.916-27.327,60.916-60.914 S290.538,237.902,256.949,237.902z"/><path fill="#2D527C" d="M230.343,318.45c-11.212,0-20.332-9.121-20.332-20.332c0-11.212,9.121-20.332,20.332-20.332 c11.212,0,20.332,9.121,20.332,20.332C250.675,309.33,241.555,318.45,230.343,318.45z"/></g></svg>