<svg xmlns="http://www.w3.org/2000/svg" xmlns:xlink="http://www.w3.org/1999/xlink" id="Layer_1" x="0" y="0" enable-background="new 0 0 512.001 512.001" version="1.1" viewBox="0 0 512.001 512.001" xml:space="preserve"><g><path fill="#2D527C" d="M432.464,512.001h-37.767c-8.02,0-14.523-6.503-14.523-14.523s6.503-14.523,14.523-14.523h37.767 c27.839,0,50.49-22.65,50.49-50.49V79.537c0-27.839-22.65-50.49-50.49-50.49H214.367c-8.02,0-14.523-6.503-14.523-14.523 s6.503-14.523,14.523-14.523h218.098c43.855,0,79.536,35.679,79.536,79.536v352.93C512,476.322,476.321,512.001,432.464,512.001z"/><path fill="#2D527C" d="M289.694,512.001H79.536C35.679,512.001,0,476.322,0,432.465V79.537 C0,35.68,35.679,0.001,79.536,0.001h32.684c8.02,0,14.523,6.503,14.523,14.523s-6.503,14.523-14.523,14.523H79.536 c-27.839,0-50.49,22.65-50.49,50.49v352.93c0,27.839,22.65,50.49,50.49,50.49h210.158c8.02,0,14.523,6.503,14.523,14.523 S297.714,512.001,289.694,512.001z"/></g><path fill="#CEE8FA" d="M239.5,414.183c-69.41,0-125.881-56.47-125.881-125.879V125.539c0-15.286,12.435-27.72,27.72-27.72	h4.438c15.286,0,27.72,12.435,27.72,27.72v162.765c0,38.841,31.599,70.44,70.44,70.44h24.126c38.107,0,69.701-30.984,70.427-69.069	c0.359-18.701-6.794-36.491-20.139-50.095c-13.54-13.801-32.33-21.718-51.554-21.718h-0.546c-15.286,0-27.72-12.435-27.72-27.72	s12.435-27.72,27.72-27.72h6.252c69.41,0,125.881,56.47,125.881,125.881s-56.47,125.881-125.881,125.881L239.5,414.183	L239.5,414.183z"/><path fill="#2D527C" d="M272.5,428.706H239.5c-77.42,0-140.404-62.984-140.404-140.402V125.537	c0-23.294,18.95-42.243,42.242-42.243h4.44c23.292,0,42.242,18.95,42.242,42.243v162.764c0,30.833,25.084,55.918,55.918,55.918	h24.124c30.25,0,55.33-24.595,55.907-54.823c0.283-14.771-5.394-28.85-15.987-39.645c-10.827-11.038-25.838-17.367-41.188-17.367	h-0.546c-23.294,0-42.243-18.95-42.243-42.243c0-23.292,18.95-42.243,42.243-42.243h6.252c77.42,0,140.404,62.984,140.404,140.404	S349.919,428.706,272.5,428.706z M141.338,112.342c-7.276,0-13.196,5.92-13.196,13.197v162.767	c0,61.401,49.954,111.356,111.358,111.356H272.5c61.402,0,111.358-49.955,111.358-111.359S333.904,176.945,272.5,176.945h-6.252	c-7.278,0-13.197,5.92-13.197,13.197c0,7.278,5.92,13.197,13.197,13.197h0.546c23.1,0,45.669,9.502,61.922,26.07	c16.1,16.408,24.727,37.91,24.294,60.543c-0.876,45.94-38.983,83.315-84.947,83.315h-24.124c-46.85,0-84.965-38.115-84.965-84.965	V125.537c0-7.278-5.92-13.197-13.196-13.197h-4.441V112.342z"/></svg>