<svg xmlns="http://www.w3.org/2000/svg" xmlns:xlink="http://www.w3.org/1999/xlink" id="Layer_1" x="0" y="0" enable-background="new 0 0 512 512" version="1.1" viewBox="0 0 512 512" xml:space="preserve"><g><path fill="#2D527C" d="M432.464,512h-37.766c-8.021,0-14.523-6.502-14.523-14.523s6.502-14.523,14.523-14.523h37.766 c27.839,0,50.49-22.65,50.49-50.49V79.536c0-27.839-22.65-50.49-50.49-50.49H214.367c-8.021,0-14.523-6.502-14.523-14.523 S206.346,0,214.367,0h218.097C476.321,0,512,35.679,512,79.536v352.928C512,476.321,476.321,512,432.464,512z"/><path fill="#2D527C" d="M289.693,512H79.536C35.679,512,0,476.321,0,432.464V79.536C0,35.679,35.679,0,79.536,0h32.684 c8.021,0,14.523,6.502,14.523,14.523s-6.502,14.523-14.523,14.523H79.536c-27.839,0-50.49,22.65-50.49,50.49v352.928 c0,27.839,22.65,50.49,50.49,50.49h210.157c8.021,0,14.523,6.502,14.523,14.523S297.714,512,289.693,512z"/></g><path fill="#CEE8FA" d="M126.257,366.493c-14.482,0-26.265-11.783-26.265-26.265V181.756	c0-14.482,11.783-26.265,26.265-26.265h58.939c10.905,0,20.98,1.245,29.945,3.7c9.471,2.595,17.739,6.496,24.579,11.594	c7.228,5.387,12.856,12.047,16.729,19.796c3.87,7.735,5.832,16.401,5.832,25.755c0,14.891-4.511,27.485-13.235,37.338	c3.372,2.761,6.329,5.879,8.858,9.35c7.235,9.932,10.905,21.754,10.905,35.137c0,21.5-7.397,38.607-21.984,50.844	c-13.835,11.603-34.247,17.486-60.673,17.486h-59.896V366.493z M183.603,306.403c9.701,0,13.486-1.975,14.664-2.825	c1.126-0.812,1.695-2.848,1.695-6.052c0-3.173-0.452-4.888-0.72-5.629c-0.06-0.163-0.077-0.211-0.321-0.388	c-0.29-0.212-1.494-0.97-4.395-1.567c-3.154-0.646-7.369-0.975-12.516-0.975h-14.609v17.436h16.202V306.403z M183.285,228.559	c7.302,0,10.153-1.249,10.91-1.673c0.245-0.558,0.674-2.119,0.674-4.976c0-2.284-0.383-4.085-0.977-4.586l0,0	c-0.012,0-2.706-1.746-12.199-1.746h-14.289v12.981L183.285,228.559L183.285,228.559z"/><g><path fill="#2D527C" d="M185.195,170.014c9.656,0,18.36,1.062,26.108,3.185c7.745,2.123,14.327,5.201,19.738,9.232 c5.413,4.035,9.552,8.916,12.417,14.645c2.867,5.731,4.299,12.153,4.299,19.262c0,18.574-8.811,31.734-26.426,39.48 c11.144,3.079,19.422,8.332,24.833,15.76c5.413,7.43,8.12,16.292,8.12,26.585c0,17.088-5.599,30.326-16.795,39.718 c-11.199,9.392-28.311,14.089-51.339,14.089h-59.893c-6.486,0-11.743-5.257-11.743-11.742V181.757 c0-6.485,5.257-11.742,11.743-11.742h58.938 M152.879,243.082h30.406c9.019,0,15.625-1.566,19.82-4.697 c4.191-3.13,6.289-8.621,6.289-16.476c0-7.005-2.043-12.23-6.129-15.681c-4.087-3.448-11.277-5.173-21.57-5.173h-28.814v42.027 M152.879,320.926h30.725c10.293,0,18.013-1.855,23.163-5.571c5.146-3.714,7.72-9.656,7.72-17.829 c0-4.139-0.532-7.667-1.592-10.586c-1.062-2.918-2.865-5.305-5.411-7.163c-2.547-1.856-5.891-3.21-10.03-4.059 c-4.139-0.848-9.288-1.274-15.441-1.274h-29.132v46.481 M185.195,140.967h-58.938c-22.491,0-40.79,18.298-40.79,40.788v158.469 c0,22.491,18.298,40.788,40.79,40.788h59.893c29.932,0,53.486-7.025,70.004-20.88c12.398-10.401,27.176-29.594,27.176-61.973 c0-16.523-4.605-31.222-13.69-43.69c-0.572-0.784-1.16-1.555-1.763-2.311c5.867-10.367,8.926-22.434,8.926-35.824 c0-11.63-2.479-22.483-7.368-32.256c-4.897-9.794-11.974-18.186-21.035-24.939c-8.304-6.187-18.199-10.881-29.417-13.957 C208.761,142.386,197.396,140.967,185.195,140.967L185.195,140.967z"/><path fill="#2D527C" d="M363.148,171.69h-65.363c-8.021,0-14.523-6.502-14.523-14.523c0-8.021,6.502-14.523,14.523-14.523 h65.363c8.021,0,14.523,6.502,14.523,14.523C377.671,165.188,371.169,171.69,363.148,171.69z"/></g><path fill="#CEE8FA" d="M332.536,369.357c-12.679,0-24.258-1.875-34.415-5.571c-10.56-3.843-19.656-9.533-27.033-16.909	c-7.391-7.392-13.035-16.429-16.774-26.859c-3.576-9.974-5.39-21.291-5.39-33.636c0-12.462,1.843-23.893,5.477-33.978	c3.767-10.458,9.334-19.521,16.546-26.932c7.257-7.458,16.164-13.203,26.473-17.078c9.934-3.732,21.211-5.625,33.524-5.625	c11.926,0,22.932,1.789,32.71,5.32c10.216,3.693,19.053,9.225,26.271,16.445c7.211,7.211,12.791,16.141,16.585,26.542	c3.648,10.002,5.498,21.451,5.498,34.031c0,7.895-3.872,14.902-9.815,19.224c0.654,0.69,1.263,1.429,1.821,2.213	c3.793,5.337,4.777,12.204,2.632,18.369c-1.753,5.032-4.126,9.749-7.057,14.021c-4.668,6.795-10.566,12.558-17.532,17.133	c-6.695,4.399-14.394,7.771-22.881,10.018C350.991,368.257,342.026,369.357,332.536,369.357z M319.69,308.865	c0.752,1.763,1.619,3.208,2.591,4.316c1.115,1.271,2.27,2.11,3.639,2.64c1.865,0.725,4.085,1.089,6.615,1.089	c4.158,0,7.474-0.728,9.587-2.104c0.353-0.229,1.42-0.925,2.376-3.493c0.315-0.847,0.683-1.664,1.099-2.449L319.69,308.865	L319.69,308.865z M340.835,257.531c-0.193-0.261-0.376-0.484-0.545-0.67c-1.356-1.505-3.648-3.236-9.347-3.236	c-3.711,0-6.204,1.112-8.609,3.838c-0.02,0.023-0.039,0.045-0.06,0.067L340.835,257.531L340.835,257.531z"/><path fill="#2D527C" d="M330.944,217.294c10.293,0,19.552,1.487,27.778,4.457c8.223,2.973,15.203,7.323,20.934,13.055	c5.731,5.731,10.134,12.815,13.212,21.252c3.077,8.438,4.617,18.123,4.617,29.052c0,5.099-4.133,9.234-9.234,9.234h-85.644	c0.105,6.582,0.927,12.205,2.467,16.874c1.538,4.671,3.635,8.516,6.289,11.542c2.652,3.024,5.755,5.228,9.314,6.607	c3.554,1.381,7.507,2.07,11.86,2.07c7.108,0,12.947-1.484,17.511-4.457c3.624-2.36,6.312-5.892,8.062-10.598	c0.861-2.314,3.018-3.889,5.488-3.889H387.4c3.968,0,6.835,3.905,5.53,7.652c-1.335,3.834-3.107,7.359-5.315,10.576	c-3.609,5.253-8.118,9.658-13.531,13.213c-5.411,3.557-11.62,6.262-18.626,8.118c-7.005,1.856-14.645,2.786-22.923,2.786	c-11.039,0-20.854-1.567-29.45-4.695c-8.598-3.13-15.839-7.642-21.73-13.531c-5.889-5.891-10.348-13.055-13.371-21.491	c-3.025-8.437-4.538-18.013-4.538-28.734c0-10.824,1.538-20.508,4.617-29.052c3.076-8.541,7.507-15.784,13.292-21.73	c5.783-5.943,12.84-10.48,21.173-13.611C310.858,218.861,320.33,217.294,330.944,217.294 M302.926,272.055h56.672	c-0.851-11.247-3.689-19.552-8.518-24.913c-4.83-5.358-11.542-8.039-20.136-8.039c-7.856,0-14.355,2.919-19.502,8.756	C306.294,253.696,303.457,261.762,302.926,272.055 M330.944,188.247c-14.061,0-27.06,2.205-38.63,6.551	c-12.326,4.631-23.015,11.543-31.774,20.544c-8.666,8.906-15.329,19.721-19.804,32.144c-4.203,11.661-6.336,24.75-6.336,38.894	c0,14.021,2.1,26.985,6.243,38.539c4.467,12.462,11.255,23.305,20.173,32.224c8.891,8.89,19.77,15.714,32.336,20.287	c11.755,4.279,25.006,6.447,39.385,6.447c10.744,0,20.96-1.263,30.363-3.756c9.998-2.648,19.13-6.659,27.137-11.921	c8.541-5.609,15.784-12.689,21.52-21.04c3.669-5.343,6.628-11.219,8.805-17.474c2.668-7.664,2.526-15.955-0.222-23.424	c4.037-6.065,6.392-13.341,6.392-21.157c0-14.284-2.145-27.407-6.376-39.005c-4.528-12.409-11.244-23.119-19.961-31.838	c-8.737-8.737-19.368-15.411-31.597-19.831C357.221,190.327,344.557,188.247,330.944,188.247L330.944,188.247z"/><path fill="#CEE8FA" d="M254.284,298.163c0,17.088-5.599,30.326-16.795,39.718c-11.199,9.392-28.311,14.089-51.339,14.089	h-59.893c-6.485,0-11.742-5.257-11.742-11.742V181.757c0-6.485,5.257-11.742,11.742-11.742h58.938c9.656,0,18.36,1.062,26.108,3.185	c7.745,2.123,14.327,5.201,19.738,9.232c5.413,4.035,9.552,8.914,12.417,14.645c2.867,5.731,4.299,12.153,4.299,19.262	c0,18.574-8.811,31.734-26.426,39.48c11.144,3.079,19.422,8.332,24.835,15.76C251.578,279.007,254.284,287.869,254.284,298.163z M152.879,243.082h30.406c9.019,0,15.625-1.564,19.82-4.697c4.191-3.13,6.289-8.621,6.289-16.476c0-7.005-2.043-12.23-6.129-15.681	c-4.087-3.448-11.277-5.173-21.57-5.173h-28.814v42.027H152.879z M152.879,320.926h30.725c10.293,0,18.013-1.855,23.163-5.573	c5.146-3.714,7.72-9.656,7.72-17.83c0-4.139-0.533-7.665-1.592-10.586c-1.062-2.918-2.865-5.305-5.411-7.163	c-2.547-1.856-5.891-3.21-10.03-4.059c-4.139-0.848-9.288-1.274-15.441-1.274h-29.132v46.484H152.879z"/></svg>