<svg xmlns="http://www.w3.org/2000/svg" xmlns:xlink="http://www.w3.org/1999/xlink" id="Layer_1" x="0" y="0" enable-background="new 0 0 512.001 512.001" version="1.1" viewBox="0 0 512.001 512.001" xml:space="preserve"><g><path fill="#2D527C" d="M432.464,512.001h-37.767c-8.02,0-14.523-6.502-14.523-14.523s6.503-14.523,14.523-14.523h37.767 c27.839,0,50.49-22.65,50.49-50.49V79.537c0-27.839-22.65-50.49-50.49-50.49H214.367c-8.02,0-14.523-6.502-14.523-14.523 s6.503-14.523,14.523-14.523h218.098c43.855,0,79.536,35.679,79.536,79.536v352.928C512,476.322,476.321,512.001,432.464,512.001z"/><path fill="#2D527C" d="M289.694,512.001H79.536C35.679,512.001,0,476.322,0,432.465V79.537 C0,35.68,35.679,0.001,79.536,0.001h32.684c8.02,0,14.523,6.502,14.523,14.523s-6.503,14.523-14.523,14.523H79.536 c-27.839,0-50.49,22.65-50.49,50.49v352.928c0,27.839,22.65,50.49,50.49,50.49h210.158c8.02,0,14.523,6.502,14.523,14.523 C304.218,505.499,297.714,512.001,289.694,512.001z"/></g><path fill="#CEE8FA" d="M357.981,217.604c-5.042-4.663-2.639-13.013-3.968-24.36c-2.404-20.51-4.663-23.124-8.089-30.547	c-12.465-26.452-42.333-49.101-69.466-49.101h-70.736c-49.459,0-89.926,40.466-89.926,89.926v105.053	c0,49.387,40.443,89.83,89.926,89.83h99.982c49.483,0,89.64-40.443,89.924-89.83l0.532-57.856	c-0.013-5.108,0.672-17.782-3.083-22.888C384.783,216.554,365.119,224.075,357.981,217.604z M202.265,174.052h71.423	c15.502,0,28.069,12.567,28.069,28.069s-12.567,28.069-28.069,28.069h-71.423c-15.502,0-28.069-12.567-28.069-28.069	C174.196,186.619,186.763,174.052,202.265,174.052z M338.833,307.986c0,15.502-12.567,28.069-28.069,28.069H201.234	c-15.502,0-28.069-12.567-28.069-28.069l0,0c0-15.502,12.567-28.069,28.069-28.069h109.531	C326.267,279.917,338.833,292.484,338.833,307.986L338.833,307.986z"/><path fill="#2D527C" d="M305.705,412.928h-99.983c-57.591,0-104.447-46.812-104.447-104.353V203.524	c0-57.593,46.856-104.449,104.447-104.449h70.736c31.663,0,67.174,24.691,82.603,57.433c0.424,0.916,0.784,1.667,1.131,2.391	c3.637,7.578,6.007,13.557,8.245,32.657c0.532,4.538,0.569,8.58,0.597,11.829c0.007,0.844,0.016,1.815,0.038,2.73	c1.233,0.08,2.587,0.129,3.673,0.17c9.215,0.343,23.141,0.858,32.031,12.942c5.7,7.75,6.052,18.813,5.923,29.481	c-0.009,0.745-0.017,1.412-0.016,1.977c0,0.057,0,0.113,0,0.17l-0.532,57.856C409.821,366.154,362.965,412.928,305.705,412.928z M205.722,128.119c-41.577,0-75.401,33.826-75.401,75.403v105.052c0,41.525,33.824,75.307,75.401,75.307h99.983	c41.337,0,75.162-33.82,75.401-75.391l0.532-57.833c-0.001-0.665,0.009-1.442,0.019-2.303c0.029-2.331,0.107-8.975-0.594-12.03	c-1.831-0.736-6.681-0.916-9.392-1.018c-7.331-0.272-16.455-0.61-23.445-6.945c-8.082-7.474-8.168-17.039-8.236-24.723	c-0.026-2.815-0.051-5.725-0.399-8.708c-1.837-15.66-3.246-18.6-5.584-23.469c-0.407-0.847-0.828-1.727-1.268-2.68	c-10.545-22.376-35.813-40.665-56.28-40.665h-70.736V128.119z M310.765,350.579H201.234c-23.485,0-42.592-19.107-42.592-42.592	c0-23.485,19.107-42.592,42.592-42.592h109.531c23.485,0,42.592,19.107,42.592,42.592	C353.357,331.472,334.248,350.579,310.765,350.579z M201.234,294.44c-7.469,0-13.546,6.077-13.546,13.546	c0,7.469,6.078,13.546,13.546,13.546h109.531c7.469,0,13.546-6.077,13.546-13.546c0-7.469-6.078-13.546-13.546-13.546H201.234z M273.687,244.713h-71.423c-23.485,0-42.592-19.107-42.592-42.592s19.107-42.592,42.592-42.592h71.423	c23.485,0,42.592,19.107,42.592,42.592S297.172,244.713,273.687,244.713z M202.265,188.575c-7.469,0-13.546,6.076-13.546,13.546	c0,7.469,6.078,13.546,13.546,13.546h71.423c7.469,0,13.546-6.076,13.546-13.546c0-7.469-6.078-13.546-13.546-13.546H202.265z"/></svg>