<svg xmlns="http://www.w3.org/2000/svg" xmlns:xlink="http://www.w3.org/1999/xlink" id="Layer_1" x="0" y="0" enable-background="new 0 0 512.001 512.001" version="1.1" viewBox="0 0 512.001 512.001" xml:space="preserve"><g><path fill="#2D527C" d="M432.464,512.001h-37.767c-8.02,0-14.523-6.502-14.523-14.523s6.503-14.523,14.523-14.523h37.767 c27.839,0,50.49-22.65,50.49-50.49V79.537c0-27.839-22.65-50.49-50.49-50.49H214.367c-8.02,0-14.523-6.502-14.523-14.523 s6.503-14.523,14.523-14.523h218.098c43.855,0,79.536,35.679,79.536,79.536v352.928C512,476.322,476.321,512.001,432.464,512.001z"/><path fill="#2D527C" d="M289.694,512.001H79.536C35.679,512.001,0,476.322,0,432.465V79.537 C0,35.68,35.679,0.001,79.536,0.001h32.684c8.02,0,14.523,6.502,14.523,14.523s-6.503,14.523-14.523,14.523H79.536 c-27.839,0-50.49,22.65-50.49,50.49v352.928c0,27.839,22.65,50.49,50.49,50.49h210.158c8.02,0,14.523,6.502,14.523,14.523 C304.218,505.499,297.714,512.001,289.694,512.001z"/></g><polygon fill="#CEE8FA" points="251.689 353.991 352.662 353.991 352.662 271.893 293.149 271.893 352.662 154.04 352.662 95.776 294.03 95.776 261.936 159.331 159.338 159.331 159.338 241.43 220.48 241.43 159.338 362.495 159.338 416.225 220.249 416.225"/><path fill="#2D527C" d="M220.249,430.748h-60.911c-8.02,0-14.523-6.502-14.523-14.523v-53.73c0-2.274,0.534-4.517,1.56-6.547	l50.5-99.995h-37.538c-8.02,0-14.523-6.502-14.523-14.523v-82.099c0-8.021,6.503-14.523,14.523-14.523h93.663l28.064-55.579	c2.47-4.893,7.484-7.978,12.965-7.978h58.633c8.02,0,14.523,6.502,14.523,14.523v58.264c0,2.274-0.534,4.517-1.558,6.547	l-48.873,96.782h35.91c8.02,0,14.523,6.502,14.523,14.523v82.099c0,8.021-6.503,14.523-14.523,14.523h-92.039l-27.411,54.26	C230.742,427.665,225.729,430.748,220.249,430.748z M173.861,401.702h37.454l27.411-54.26c2.47-4.89,7.484-7.975,12.963-7.975h86.45	v-53.053h-44.99c-5.044,0-9.726-2.617-12.369-6.913c-2.643-4.296-2.87-9.655-0.595-14.157l57.953-114.763V110.3h-35.174	L274.9,165.878c-2.47,4.893-7.484,7.978-12.965,7.978h-88.077v53.053h46.619c5.044,0,9.726,2.617,12.369,6.913	c2.643,4.296,2.87,9.655,0.594,14.157l-59.581,117.977v35.746H173.861z"/></svg>