<svg xmlns="http://www.w3.org/2000/svg" xmlns:xlink="http://www.w3.org/1999/xlink" id="Layer_1" x="0" y="0" enable-background="new 0 0 512 512" version="1.1" viewBox="0 0 512 512" xml:space="preserve"><g><path fill="#2D527C" d="M432.464,512h-37.766c-8.021,0-14.523-6.503-14.523-14.523s6.502-14.523,14.523-14.523h37.766 c27.839,0,50.49-22.65,50.49-50.49V79.536c0-27.839-22.65-50.49-50.49-50.49H214.367c-8.021,0-14.523-6.503-14.523-14.523 S206.346,0,214.367,0h218.097C476.321,0,512,35.679,512,79.536v352.93C512,476.321,476.321,512,432.464,512z"/><path fill="#2D527C" d="M289.693,512H79.536C35.679,512,0,476.321,0,432.464V79.536C0,35.679,35.679,0,79.536,0h32.684 c8.021,0,14.523,6.503,14.523,14.523s-6.502,14.523-14.523,14.523H79.536c-27.839,0-50.49,22.65-50.49,50.49v352.93 c0,27.839,22.65,50.49,50.49,50.49h210.157c8.021,0,14.523,6.503,14.523,14.523S297.714,512,289.693,512z"/></g><path fill="#CEE8FA" d="M114.216,317.566c-8.021,0-14.523-6.503-14.523-14.523v-94.085c0-8.02,6.502-14.523,14.523-14.523	h32.52v-20.759c0-8.02,6.502-14.523,14.523-14.523h23.522c8.021,0,14.523,6.503,14.523,14.523v129.368	c0,8.02-6.502,14.523-14.523,14.523H114.216z"/><path fill="#2D527C" d="M184.779,173.675v129.368h-70.564v-94.085h47.043v-35.283H184.779 M137.737,279.521h23.522v-47.043	h-23.522V279.521 M184.779,144.629h-23.522c-16.042,0-29.046,13.004-29.046,29.046v6.236h-17.996	c-16.042,0-29.046,13.004-29.046,29.046v94.085c0,16.042,13.004,29.046,29.046,29.046h70.564c16.042,0,29.046-13.004,29.046-29.046	V173.675C213.826,157.633,200.822,144.629,184.779,144.629L184.779,144.629z"/><path fill="#CEE8FA" d="M200.899,317.566c-8.021,0-14.523-6.503-14.523-14.523v-94.085c0-2.093,0.443-4.084,1.24-5.88	c-0.797-1.797-1.24-3.786-1.24-5.88v-23.522c0-8.02,6.502-14.523,14.523-14.523h23.522c8.021,0,14.523,6.503,14.523,14.523v23.522	c0,2.093-0.443,4.084-1.24,5.88c0.797,1.797,1.24,3.786,1.24,5.88v94.085c0,8.02-6.502,14.523-14.523,14.523L200.899,317.566	L200.899,317.566z"/><path fill="#2D527C" d="M224.42,173.675v23.522h-23.522v-23.522H224.42 M224.42,208.957v94.085h-23.522v-94.085H224.42 M224.42,144.629h-23.522c-16.042,0-29.046,13.004-29.046,29.046v23.522c0,2.014,0.205,3.981,0.595,5.88	c-0.391,1.9-0.595,3.865-0.595,5.88v94.085c0,16.042,13.004,29.046,29.046,29.046h23.522c16.042,0,29.046-13.004,29.046-29.046	v-94.085c0-2.014-0.205-3.981-0.595-5.88c0.391-1.9,0.595-3.865,0.595-5.88v-23.522C253.466,157.633,240.461,144.629,224.42,144.629	L224.42,144.629z"/><path fill="#CEE8FA" d="M240.538,352.848c-8.021,0-14.523-6.503-14.523-14.523v-23.522c0-2.093,0.443-4.084,1.24-5.88	c-0.797-1.797-1.24-3.786-1.24-5.88v-94.085c0-8.02,6.502-14.523,14.523-14.523h70.564c8.021,0,14.523,6.503,14.523,14.523v129.368	c0,8.02-6.502,14.523-14.523,14.523H240.538z"/><path fill="#2D527C" d="M311.102,208.957v129.368h-70.564v-23.522h47.043v-11.761h-47.043v-94.085H311.102 M264.06,279.521	h23.522v-47.043H264.06V279.521 M311.102,179.911h-70.564c-16.042,0-29.046,13.004-29.046,29.046v94.085	c0,2.014,0.205,3.981,0.595,5.88c-0.391,1.9-0.595,3.865-0.595,5.88v23.522c0,16.042,13.004,29.046,29.046,29.046h70.564	c16.042,0,29.046-13.004,29.046-29.046V208.957C340.148,192.915,327.144,179.911,311.102,179.911L311.102,179.911z"/><path fill="#CEE8FA" d="M327.221,352.848c-8.021,0-14.523-6.503-14.523-14.523v-23.522c0-2.093,0.443-4.084,1.24-5.88	c-0.797-1.797-1.24-3.786-1.24-5.88v-94.085c0-8.02,6.502-14.523,14.523-14.523h70.564c8.021,0,14.523,6.503,14.523,14.523v129.368	c0,8.02-6.502,14.523-14.523,14.523H327.221z"/><path fill="#2D527C" d="M397.784,208.957v129.368h-70.564v-23.522h47.043v-11.761h-47.043v-94.085H397.784 M350.741,279.521	h23.522v-47.043h-23.522L350.741,279.521 M397.784,179.911h-70.564c-16.042,0-29.046,13.004-29.046,29.046v94.085	c0,2.014,0.205,3.981,0.595,5.88c-0.391,1.9-0.595,3.865-0.595,5.88v23.522c0,16.042,13.004,29.046,29.046,29.046h70.564	c16.042,0,29.046-13.004,29.046-29.046V208.957C426.831,192.915,413.827,179.911,397.784,179.911L397.784,179.911z"/><g><path fill="#CEE8FA" d="M200.899,197.197v-23.522h23.522v23.522H200.899z M200.899,303.043v-94.085h23.522v94.085 L200.899,303.043L200.899,303.043z"/><path fill="#CEE8FA" d="M240.538,338.325v-23.522h47.043v-11.761h-47.043v-94.085h70.564v129.368H240.538z M287.58,279.521 v-47.043h-23.522v47.043H287.58z"/><path fill="#CEE8FA" d="M327.221,338.325v-23.522h47.043v-11.761h-47.043v-94.085h70.564v129.368H327.221z M374.263,279.521 v-47.043h-23.522v47.043H374.263z"/><path fill="#CEE8FA" d="M114.216,303.043v-94.085h47.043v-35.283h23.522v129.368H114.216z M161.259,279.521v-47.043h-23.522 v47.043H161.259z"/></g></svg>