<svg xmlns="http://www.w3.org/2000/svg" xmlns:xlink="http://www.w3.org/1999/xlink" id="Layer_1" x="0" y="0" enable-background="new 0 0 512.001 512.001" version="1.1" viewBox="0 0 512.001 512.001" xml:space="preserve"><g><path fill="#2D527C" d="M432.464,512.001h-37.767c-8.02,0-14.523-6.502-14.523-14.523s6.503-14.523,14.523-14.523h37.767 c27.839,0,50.49-22.65,50.49-50.49V79.537c0-27.839-22.65-50.49-50.49-50.49H214.367c-8.021,0-14.523-6.502-14.523-14.523 s6.502-14.523,14.523-14.523h218.098c43.855,0,79.536,35.679,79.536,79.536v352.928C512,476.322,476.321,512.001,432.464,512.001z"/><path fill="#2D527C" d="M289.694,512.001H79.536C35.679,512.001,0,476.322,0,432.465V79.537 C0,35.68,35.679,0.001,79.536,0.001h32.684c8.021,0,14.523,6.502,14.523,14.523s-6.502,14.523-14.523,14.523H79.536 c-27.839,0-50.49,22.65-50.49,50.49v352.928c0,27.839,22.65,50.49,50.49,50.49h210.158c8.02,0,14.523,6.502,14.523,14.523 C304.218,505.499,297.714,512.001,289.694,512.001z"/></g><path fill="#CEE8FA" d="M287.224,107.174c-82.195-15.776-161.616,38.065-177.394,120.26	c-6.271,32.671-1.534,64.9,11.603,92.873l-19.663,59.646l74.822,3.486c15.84,10.208,33.856,17.619,53.497,21.39	c82.195,15.776,161.616-38.065,177.394-120.26S369.419,122.951,287.224,107.174z"/><g><path fill="#2D527C" d="M258.83,422.095c-0.004,0,0,0-0.006,0c-10.496,0-21.085-1.012-31.472-3.005 c-19.706-3.782-38.273-10.95-55.246-21.323l-71.012-3.308c-4.537-0.212-8.712-2.533-11.286-6.273 c-2.575-3.741-3.252-8.47-1.83-12.782l17.9-54.298c-13.027-30.454-16.597-63.659-10.311-96.41 c14.992-78.103,83.511-134.791,162.923-134.791c10.494,0,21.083,1.011,31.472,3.005c43.564,8.361,81.263,33.188,106.154,69.903 c24.891,36.716,33.993,80.929,25.63,124.491C406.755,365.406,338.237,422.095,258.83,422.095z M121.553,366.334l55.717,2.597 c2.558,0.119,5.04,0.912,7.192,2.299c14.738,9.498,31.013,16.004,48.368,19.335c8.588,1.648,17.335,2.483,25.998,2.485 c65.505,0.001,122.025-46.773,134.397-111.22c6.898-35.943-0.613-72.423-21.15-102.716c-20.539-30.294-51.643-50.777-87.586-57.677 c-8.589-1.648-17.336-2.485-25.996-2.485c-65.505,0-122.026,46.775-134.397,111.22c-5.494,28.622-1.868,57.655,10.487,83.961 c1.577,3.359,1.81,7.196,0.646,10.721L121.553,366.334z"/><path fill="#2D527C" d="M342.758,256.167c0,15.392-3.516,29.173-10.544,41.344c-7.031,12.173-15.91,21.515-26.638,28.025 c-8.068,4.884-16.909,8.288-26.527,10.211c-9.622,1.924-21.015,2.886-34.186,2.886h-45.707c-6.939,0-12.565-5.626-12.565-12.565 V185.932c0-6.939,5.626-12.565,12.565-12.565h47.37c13.466,0,25.084,1.128,34.851,3.385c9.767,2.258,17.981,5.458,24.64,9.601 c11.395,6.957,20.366,16.334,26.917,28.137C339.481,226.293,342.758,240.184,342.758,256.167z M298.693,255.834 c0-10.878-1.981-20.181-5.937-27.915c-3.96-7.732-10.233-13.781-18.815-18.147c-4.367-2.145-8.826-3.608-13.373-4.385 c-4.553-0.777-11.415-1.165-20.591-1.165h-10.766v103.445h10.766c10.136,0,17.572-0.462,22.309-1.387 c4.735-0.925,9.359-2.608,13.874-5.05c7.77-4.44,13.466-10.378,17.092-17.814C296.879,275.979,298.693,266.786,298.693,255.834z"/></g></svg>