<svg xmlns="http://www.w3.org/2000/svg" xmlns:xlink="http://www.w3.org/1999/xlink" id="Layer_1" x="0" y="0" enable-background="new 0 0 512.001 512.001" version="1.1" viewBox="0 0 512.001 512.001" xml:space="preserve"><circle cx="255.999" cy="256" r="150.314" fill="#CEE8FA"/><g><path fill="#2D527C" d="M432.464,512.001h-37.767c-8.02,0-14.523-6.502-14.523-14.523s6.503-14.523,14.523-14.523h37.767 c27.839,0,50.49-22.65,50.49-50.49V79.537c0-27.839-22.65-50.49-50.49-50.49H214.367c-8.021,0-14.523-6.502-14.523-14.523 s6.502-14.523,14.523-14.523h218.098c43.855,0,79.536,35.679,79.536,79.536v352.928C512,476.322,476.321,512.001,432.464,512.001z"/><path fill="#2D527C" d="M289.694,512.001H79.536C35.679,512.001,0,476.322,0,432.465V79.537 C0,35.68,35.679,0.001,79.536,0.001h32.684c8.021,0,14.523,6.502,14.523,14.523s-6.502,14.523-14.523,14.523H79.536 c-27.839,0-50.49,22.65-50.49,50.49v352.928c0,27.839,22.65,50.49,50.49,50.49h210.158c8.02,0,14.523,6.502,14.523,14.523 C304.218,505.499,297.714,512.001,289.694,512.001z"/><path fill="#2D527C" d="M256.001,85.954c-93.918,0-170.046,76.138-170.046,170.046s76.127,170.046,170.046,170.046 c93.909,0,170.046-76.138,170.046-170.046S349.909,85.954,256.001,85.954L256.001,85.954z M399.446,254.113 c-19.436-5.618-39.987-8.625-61.234-8.625c-12.833,0-25.411,1.098-37.643,3.207c-3.972-9.469-8.082-18.529-12.231-27.15 c58.081-24.843,79.218-55.727,79.218-55.727l0.004-0.01C387.137,189.987,399.013,220.668,399.446,254.113L399.446,254.113z M256.001,112.54c36.511,0,69.846,13.643,95.17,36.112l-0.009,0.01c-19.346,22.292-46.139,38.191-74.746,49.517 c-27.606-51.255-53.815-81.72-53.815-81.72C233.319,113.898,244.506,112.54,256.001,112.54L256.001,112.54z M193.875,126.654 c0,0,25.083,32.175,52.347,81.759c-65.658,18.874-130.598,17.874-130.598,17.874h-0.01 C124.887,182.256,154.356,145.668,193.875,126.654L193.875,126.654z M112.534,256c0-1.256,0.015-2.508,0.044-3.754h0.01 c61.35,0.328,109.332-8.097,146.281-19.802c3.818,7.626,7.626,15.553,11.345,23.737c-50.856,16.482-93.61,50.951-120.75,95.911 C126.508,326.655,112.534,292.96,112.534,256L112.534,256z M256.001,399.457c-32.699,0-62.831-10.936-86.967-29.348 c24.145-42.586,63.9-75.154,111.484-89.919c13.604,33.628,24.949,70.553,30.353,108.393 C293.969,395.595,275.431,399.457,256.001,399.457L256.001,399.457z M335.685,375.308c-4.977-36.829-14.238-71.078-25.415-101.832 c9.122-1.319,18.456-2.003,27.944-2.003c20.616,0,40.486,3.21,59.129,9.17C390.531,320.037,367.643,353.925,335.685,375.308 L335.685,375.308z"/></g></svg>