<svg xmlns="http://www.w3.org/2000/svg" xmlns:xlink="http://www.w3.org/1999/xlink" id="Layer_1" x="0" y="0" enable-background="new 0 0 512.001 512.001" version="1.1" viewBox="0 0 512.001 512.001" xml:space="preserve"><g><path fill="#2D527C" d="M432.464,512.001h-37.767c-8.02,0-14.523-6.502-14.523-14.523s6.503-14.523,14.523-14.523h37.767 c27.839,0,50.49-22.65,50.49-50.49V79.537c0-27.839-22.65-50.49-50.49-50.49H214.367c-8.02,0-14.523-6.502-14.523-14.523 s6.503-14.523,14.523-14.523h218.098c43.855,0,79.536,35.679,79.536,79.536v352.928C512,476.322,476.321,512.001,432.464,512.001z"/><path fill="#2D527C" d="M289.694,512.001H79.536C35.679,512.001,0,476.322,0,432.465V79.537 C0,35.68,35.679,0.001,79.536,0.001h32.684c8.02,0,14.523,6.502,14.523,14.523s-6.503,14.523-14.523,14.523H79.536 c-27.839,0-50.49,22.65-50.49,50.49v352.928c0,27.839,22.65,50.49,50.49,50.49h210.158c8.02,0,14.523,6.502,14.523,14.523 C304.218,505.499,297.714,512.001,289.694,512.001z"/></g><path fill="#CEE8FA" d="M402.602,413.476L256.001,93.109L109.398,413.476H402.602z"/><g><path fill="#2D527C" d="M402.602,427.999H109.398c-4.944,0-9.549-2.515-12.221-6.676c-2.671-4.161-3.043-9.395-0.985-13.89 L242.795,87.064c2.364-5.167,7.524-8.48,13.206-8.48s10.842,3.313,13.206,8.48l146.601,320.369 c2.058,4.496,1.686,9.731-0.985,13.89C412.151,425.484,407.545,427.999,402.602,427.999z M132.015,398.953h247.968L255.999,128.009 L132.015,398.953z"/><path fill="#2D527C" d="M320.637,347.136l-4.335-8.056c-1.313-2.44-4.355-3.353-6.794-2.039l-40.996,22.065v-19.688 l27.882-17.089c2.305-1.413,3.076-4.399,1.741-6.752l-4.476-7.89c-1.413-2.491-4.623-3.295-7.044-1.765l-18.103,11.444v-25.354 c0-2.77-2.245-5.016-5.016-5.016h-24.733c-2.77,0-5.016,2.245-5.016,5.016v49.164l-16.593-13.354 c-2.158-1.737-5.315-1.396-7.052,0.762l-5.735,7.126c-1.737,2.158-1.396,5.315,0.762,7.052l28.618,23.031v53.101h34.765v-38.006 l50.086-26.958C321.037,352.617,321.95,349.575,320.637,347.136z"/></g></svg>