<?xml version="1.0" encoding="iso-8859-1"?>
<!-- Generator: Adobe Illustrator 19.0.0, SVG Export Plug-In . SVG Version: 6.00 Build 0)  -->
<svg version="1.1" id="Layer_1" xmlns="http://www.w3.org/2000/svg" xmlns:xlink="http://www.w3.org/1999/xlink" x="0px" y="0px"
	 viewBox="0 0 512.001 512.001" style="enable-background:new 0 0 512.001 512.001;" xml:space="preserve">
<g>
	<path style="fill:#2D527C;" d="M432.464,512.001h-37.767c-8.02,0-14.523-6.502-14.523-14.523s6.503-14.523,14.523-14.523h37.767
		c27.839,0,50.49-22.65,50.49-50.49V79.537c0-27.839-22.65-50.49-50.49-50.49H214.367c-8.021,0-14.523-6.502-14.523-14.523
		s6.502-14.523,14.523-14.523h218.098c43.855,0,79.536,35.679,79.536,79.536v352.928C512,476.322,476.321,512.001,432.464,512.001z"
		/>
	<path style="fill:#2D527C;" d="M289.694,512.001H79.536C35.679,512.001,0,476.322,0,432.465V79.537
		C0,35.68,35.679,0.001,79.536,0.001h32.684c8.021,0,14.523,6.502,14.523,14.523s-6.502,14.523-14.523,14.523H79.536
		c-27.839,0-50.49,22.65-50.49,50.49v352.928c0,27.839,22.65,50.49,50.49,50.49h210.158c8.02,0,14.523,6.502,14.523,14.523
		C304.218,505.499,297.714,512.001,289.694,512.001z"/>
</g>
<path style="fill:#CEE8FA;" d="M415.719,233.399c0-71.884-71.509-130.158-159.72-130.158S96.281,161.515,96.281,233.399
	c0,88.683,71.509,130.158,159.72,130.158c2.434,0,4.852-0.052,7.26-0.139v33.162c0,10.438,13.524,16.028,22.17,9.155
	C313.45,383.462,415.719,309.011,415.719,233.399z"/>
<g>
	<path style="fill:#2D527C;" d="M276.711,423.283L276.711,423.283c-15.425,0-27.974-11.98-27.974-26.705V377.99
		c-45.873-1.131-85.286-13.035-114.332-34.596c-34.443-25.565-52.648-63.601-52.648-109.995
		c0-79.777,78.165-144.681,174.243-144.681c96.076,0,174.243,64.902,174.243,144.681c0,33.909-17.692,70.784-52.581,109.602
		c-27.452,30.542-59.509,55.577-76.729,69.026c-2.449,1.911-4.621,3.609-6.466,5.076
		C289.381,421.145,283.239,423.283,276.711,423.283z M263.261,348.893c3.753,0,7.368,1.454,10.079,4.068
		c2.839,2.738,4.444,6.512,4.444,10.455v29.846c1.574-1.242,3.34-2.62,5.27-4.128c32.313-25.234,118.143-92.267,118.143-155.736
		c0-63.761-65.135-115.635-145.196-115.635s-145.196,51.874-145.196,115.635c0,107.295,111.135,115.635,145.196,115.635
		c2.135,0,4.335-0.042,6.73-0.129C262.906,348.897,263.084,348.893,263.261,348.893z"/>
	<path style="fill:#2D527C;" d="M194.704,259.169h-24.296v-50.176c0-4.36-3.548-7.908-7.908-7.908h-2.608
		c-4.36,0-7.908,3.548-7.908,7.908v59.07c0,4.698,3.822,8.522,8.522,8.522h34.201c4.36,0,7.908-3.548,7.908-7.909v-1.599
		C202.614,262.717,199.066,259.169,194.704,259.169z"/>
	<path style="fill:#2D527C;" d="M216.403,201.085h-2.555c-4.36,0-7.908,3.548-7.908,7.908v59.683c0,4.361,3.548,7.909,7.908,7.909
		h2.555c4.361,0,7.909-3.548,7.909-7.909v-59.683C224.313,204.633,220.765,201.085,216.403,201.085z"/>
	<path style="fill:#2D527C;" d="M285.558,201.085h-2.237c-4.361,0-7.909,3.548-7.909,7.908v32.863l-24.681-37.233
		c-1.468-2.215-3.933-3.539-6.592-3.539h-4.342c-4.36,0-7.908,3.548-7.908,7.908v59.683c0,4.361,3.547,7.909,7.908,7.909h2.131
		c4.361,0,7.909-3.548,7.909-7.909v-32.856l24.845,37.246c1.471,2.205,3.929,3.519,6.578,3.519h4.299
		c4.36,0,7.906-3.548,7.906-7.909v-59.683C293.465,204.633,289.918,201.085,285.558,201.085z"/>
	<path style="fill:#2D527C;" d="M352.108,259.169h-32.639v-12.875h28.6c4.361,0,7.908-3.548,7.908-7.909v-1.492
		c0-4.361-3.547-7.909-7.908-7.909h-28.6v-10.483h31.098c4.361,0,7.908-3.548,7.908-7.908v-1.6c0-4.36-3.547-7.908-7.908-7.908
		h-41.615c-4.361,0-7.908,3.548-7.908,7.908v59.683c0,4.361,3.547,7.909,7.908,7.909h43.155c4.361,0,7.909-3.548,7.909-7.909v-1.599
		C360.018,262.717,356.469,259.169,352.108,259.169z"/>
</g>
<g>
</g>
<g>
</g>
<g>
</g>
<g>
</g>
<g>
</g>
<g>
</g>
<g>
</g>
<g>
</g>
<g>
</g>
<g>
</g>
<g>
</g>
<g>
</g>
<g>
</g>
<g>
</g>
<g>
</g>
</svg>
