<?xml version="1.0" encoding="iso-8859-1"?>
<!-- Generator: Adobe Illustrator 19.0.0, SVG Export Plug-In . SVG Version: 6.00 Build 0)  -->
<svg version="1.1" id="Layer_1" xmlns="http://www.w3.org/2000/svg" xmlns:xlink="http://www.w3.org/1999/xlink" x="0px" y="0px"
	 viewBox="0 0 512 512" style="enable-background:new 0 0 512 512;" xml:space="preserve">
<g>
	<path style="fill:#2D527C;" d="M432.464,512h-37.766c-8.021,0-14.523-6.502-14.523-14.523s6.502-14.523,14.523-14.523h37.766
		c27.839,0,50.49-22.65,50.49-50.49V79.536c0-27.839-22.65-50.49-50.49-50.49H214.367c-8.021,0-14.523-6.502-14.523-14.523
		S206.346,0,214.367,0h218.097C476.321,0,512,35.679,512,79.536v352.928C512,476.321,476.321,512,432.464,512z"/>
	<path style="fill:#2D527C;" d="M289.693,512H79.536C35.679,512,0,476.321,0,432.464V79.536C0,35.679,35.679,0,79.536,0h32.684
		c8.021,0,14.523,6.502,14.523,14.523s-6.502,14.523-14.523,14.523H79.536c-27.839,0-50.49,22.65-50.49,50.49v352.928
		c0,27.839,22.65,50.49,50.49,50.49h210.157c8.021,0,14.523,6.502,14.523,14.523S297.714,512,289.693,512z"/>
</g>
<path style="fill:#CEE8FA;" d="M113.555,356.996v-37.362c0-21.134,17.192-38.327,38.327-38.327s38.327,17.193,38.327,38.327v37.362
	H113.555z"/>
<path style="fill:#2D527C;" d="M190.208,371.519h-76.653c-8.021,0-14.523-6.502-14.523-14.523v-37.362
	c0-29.141,23.709-52.85,52.85-52.85s52.85,23.709,52.85,52.85v37.362C204.731,365.017,198.229,371.519,190.208,371.519z
	 M128.078,342.473h47.607v-22.839c0-13.126-10.679-23.803-23.803-23.803s-23.803,10.679-23.803,23.803V342.473z"/>
<path style="fill:#CEE8FA;" d="M151.881,231.657c-21.134,0-38.327-17.192-38.327-38.327s17.192-38.327,38.327-38.327
	s38.327,17.192,38.327,38.327S173.016,231.657,151.881,231.657z"/>
<path style="fill:#2D527C;" d="M151.881,246.18c-29.141,0-52.85-23.709-52.85-52.85s23.709-52.85,52.85-52.85
	s52.85,23.709,52.85,52.85S181.024,246.18,151.881,246.18z M151.881,169.527c-13.126,0-23.803,10.679-23.803,23.803
	c0,13.125,10.679,23.803,23.803,23.803s23.803-10.679,23.803-23.803C175.685,180.206,165.007,169.527,151.881,169.527z"/>
<path style="fill:#CEE8FA;" d="M177.451,386.044v-51.885c0-29.141,23.709-52.85,52.85-52.85s52.85,23.709,52.85,52.85v51.885
	H177.451z"/>
<path style="fill:#2D527C;" d="M283.15,400.567H177.451c-8.021,0-14.523-6.502-14.523-14.523v-51.885
	c0-37.15,30.224-67.373,67.373-67.373s67.373,30.224,67.373,67.373v51.885C297.673,394.065,291.171,400.567,283.15,400.567z
	 M191.974,371.521h76.653v-37.362c0-21.134-17.192-38.327-38.327-38.327s-38.327,17.193-38.327,38.327V371.521z"/>
<path style="fill:#CEE8FA;" d="M230.301,231.656c-29.141,0-52.85-23.709-52.85-52.85s23.709-52.85,52.85-52.85
	s52.85,23.709,52.85,52.85S259.443,231.656,230.301,231.656z"/>
<path style="fill:#2D527C;" d="M230.301,246.179c-37.15,0-67.373-30.224-67.373-67.373s30.224-67.373,67.373-67.373
	s67.373,30.224,67.373,67.373S267.451,246.179,230.301,246.179z M230.301,140.479c-21.134,0-38.327,17.192-38.327,38.327
	s17.192,38.327,38.327,38.327s38.327-17.192,38.327-38.327S251.435,140.479,230.301,140.479z"/>
<path style="fill:#CEE8FA;" d="M398.445,407.828H263.699V341.42c0-37.21,30.165-67.373,67.373-67.373l0,0
	c37.21,0,67.373,30.165,67.373,67.373V407.828z"/>
<path style="fill:#2D527C;" d="M398.445,422.352H263.699c-8.021,0-14.523-6.502-14.523-14.523V341.42
	c0-45.158,36.738-81.896,81.896-81.896s81.896,36.738,81.896,81.896v66.408C412.968,415.85,406.466,422.352,398.445,422.352z
	 M278.223,393.305h105.699V341.42c0-29.141-23.709-52.85-52.85-52.85c-29.141,0-52.85,23.709-52.85,52.85L278.223,393.305
	L278.223,393.305z"/>
<circle style="fill:#CEE8FA;" cx="331.069" cy="171.547" r="67.373"/>
<path style="fill:#2D527C;" d="M331.072,253.44c-45.158,0-81.896-36.738-81.896-81.896s36.738-81.896,81.896-81.896
	s81.896,36.738,81.896,81.896S376.23,253.44,331.072,253.44z M331.072,118.695c-29.141,0-52.85,23.709-52.85,52.85
	s23.709,52.85,52.85,52.85c29.141,0,52.85-23.709,52.85-52.85S360.213,118.695,331.072,118.695z"/>
<g>
</g>
<g>
</g>
<g>
</g>
<g>
</g>
<g>
</g>
<g>
</g>
<g>
</g>
<g>
</g>
<g>
</g>
<g>
</g>
<g>
</g>
<g>
</g>
<g>
</g>
<g>
</g>
<g>
</g>
</svg>
