<?xml version="1.0" encoding="iso-8859-1"?>
<!-- Generator: Adobe Illustrator 19.0.0, SVG Export Plug-In . SVG Version: 6.00 Build 0)  -->
<svg version="1.1" id="Layer_1" xmlns="http://www.w3.org/2000/svg" xmlns:xlink="http://www.w3.org/1999/xlink" x="0px" y="0px"
	 viewBox="0 0 512.001 512.001" style="enable-background:new 0 0 512.001 512.001;" xml:space="preserve">
<g>
	<path style="fill:#2D527C;" d="M432.464,512.001h-37.767c-8.02,0-14.523-6.502-14.523-14.523s6.503-14.523,14.523-14.523h37.767
		c27.839,0,50.49-22.65,50.49-50.49V79.537c0-27.839-22.65-50.49-50.49-50.49H214.367c-8.02,0-14.523-6.502-14.523-14.523
		s6.503-14.523,14.523-14.523h218.098c43.855,0,79.536,35.679,79.536,79.536v352.928C512,476.322,476.321,512.001,432.464,512.001z"
		/>
	<path style="fill:#2D527C;" d="M289.694,512.001H79.536C35.679,512.001,0,476.322,0,432.465V79.537
		C0,35.68,35.679,0.001,79.536,0.001h32.684c8.02,0,14.523,6.502,14.523,14.523s-6.503,14.523-14.523,14.523H79.536
		c-27.839,0-50.49,22.65-50.49,50.49v352.928c0,27.839,22.65,50.49,50.49,50.49h210.158c8.02,0,14.523,6.502,14.523,14.523
		C304.218,505.499,297.714,512.001,289.694,512.001z"/>
</g>
<circle style="fill:#CEE8FA;" cx="255.999" cy="256" r="158.302"/>
<g>
	<path style="fill:#2D527C;" d="M256.001,428.827c-95.296,0-172.825-77.529-172.825-172.825S160.704,83.176,256.001,83.176
		s172.825,77.529,172.825,172.825S351.297,428.827,256.001,428.827z M256.001,112.222c-79.28,0-143.779,64.499-143.779,143.779
		S176.72,399.78,256.001,399.78S399.78,335.282,399.78,256.001S335.28,112.222,256.001,112.222z"/>
	<path style="fill:#2D527C;" d="M261.713,168.863c-66.522,0-100.061,47.693-100.061,87.464c0,19.507,5.989,37.265,18.661,47.552
		c3.06,2.485,7.687,0.893,8.73-2.909l3.73-13.605c0.925-3.374,0.594-6.929-0.726-10.169c-1.981-4.862-3.109-10.56-3.109-17.38
		c0-35.384,26.473-67.059,68.933-67.059c37.599,0,58.257,22.974,58.257,53.657c0,40.367-17.866,74.44-44.39,74.44
		c-14.648,0-25.612-12.112-22.097-26.969c4.207-17.736,12.359-36.877,12.359-49.681c0-11.46-6.149-21.019-18.883-21.019
		c-14.972,0-27,15.489-27,36.238c0,13.215,4.466,22.154,4.466,22.154s-15.323,64.923-18.009,76.293
		c-5.35,22.643-0.805,50.404-0.42,53.207c0.225,1.66,2.36,2.056,3.327,0.8c1.38-1.802,19.214-23.818,25.278-45.816
		c1.715-6.229,9.848-38.485,9.848-38.485c4.865,9.279,19.081,17.451,34.201,17.451c45.009,0,75.544-41.034,75.544-95.954
		C350.349,207.538,315.174,168.863,261.713,168.863z"/>
</g>
<g>
</g>
<g>
</g>
<g>
</g>
<g>
</g>
<g>
</g>
<g>
</g>
<g>
</g>
<g>
</g>
<g>
</g>
<g>
</g>
<g>
</g>
<g>
</g>
<g>
</g>
<g>
</g>
<g>
</g>
</svg>
