<?xml version="1.0" encoding="iso-8859-1"?>
<!-- Generator: Adobe Illustrator 19.0.0, SVG Export Plug-In . SVG Version: 6.00 Build 0)  -->
<svg version="1.1" id="Layer_1" xmlns="http://www.w3.org/2000/svg" xmlns:xlink="http://www.w3.org/1999/xlink" x="0px" y="0px"
	 viewBox="0 0 512.001 512.001" style="enable-background:new 0 0 512.001 512.001;" xml:space="preserve">
<g>
	<path style="fill:#2D527C;" d="M432.464,512.001h-37.767c-8.02,0-14.523-6.502-14.523-14.523s6.503-14.523,14.523-14.523h37.767
		c27.839,0,50.49-22.65,50.49-50.49V79.537c0-27.839-22.65-50.49-50.49-50.49H214.367c-8.02,0-14.523-6.502-14.523-14.523
		s6.503-14.523,14.523-14.523h218.098c43.855,0,79.536,35.679,79.536,79.536v352.928C512,476.322,476.321,512.001,432.464,512.001z"
		/>
	<path style="fill:#2D527C;" d="M289.694,512.001H79.536C35.679,512.001,0,476.322,0,432.465V79.537
		C0,35.68,35.679,0.001,79.536,0.001h32.684c8.02,0,14.523,6.502,14.523,14.523s-6.503,14.523-14.523,14.523H79.536
		c-27.839,0-50.49,22.65-50.49,50.49v352.928c0,27.839,22.65,50.49,50.49,50.49h210.158c8.02,0,14.523,6.502,14.523,14.523
		C304.218,505.499,297.714,512.001,289.694,512.001z"/>
</g>
<path style="fill:#CEE8FA;" d="M197.461,403.822c-41.552,0-74.101-31.464-74.101-71.631V231.77
	c0-69.303,55.728-123.59,126.871-123.59h17.33c34.871,0,68.005,14.202,90.906,38.964c21.732,23.5,32.321,54.083,29.813,86.115
	c-4.499,57.652-50.954,99.56-112.968,101.913l-9.781,0.372v9.787C265.529,388.503,228.861,403.822,197.461,403.822z"/>
<g>
	<path style="fill:#2D527C;" d="M197.461,418.345c-49.697,0-88.625-37.844-88.625-86.154V231.77
		c0-77.448,62.108-138.114,141.394-138.114h17.33c38.907,0,75.927,15.901,101.569,43.628c24.514,26.506,36.457,60.994,33.63,97.109
		c-4.992,63.954-55.236,110.775-122.802,115.086C277.743,397.007,237.426,418.345,197.461,418.345z M250.231,122.702
		c-63,0-112.348,47.907-112.348,109.067v100.422c0,32.023,26.171,57.108,59.578,57.108c8.94,0,53.545-2.119,53.545-43.967v-9.787
		c0-7.806,6.171-14.217,13.971-14.513l9.781-0.372c54.408-2.064,95.135-38.47,99.04-88.53c2.189-27.953-7.045-54.632-25.996-75.125
		c-20.161-21.799-49.409-34.302-80.243-34.302L250.231,122.702L250.231,122.702z"/>
	<path style="fill:#2D527C;" d="M197.458,352.528c-10.991,0-19.934-8.936-19.934-19.921V231.662c0-39.806,32.381-72.19,72.18-72.19
		h19.975c17.306,0,33.575,6.74,45.812,18.976c12.244,12.243,18.988,28.516,18.988,45.822c0,35.73-29.07,64.799-64.799,64.799
		h-52.295v43.537c0,5.321-2.074,10.327-5.84,14.095C207.778,350.457,202.773,352.528,197.458,352.528z M256.577,186.748
		c-22.82,0-41.387,18.566-41.387,41.388v33.659h44.094c20.344,0,37.176-16.549,37.522-36.889
		c0.164-9.918-3.658-19.359-10.765-26.585c-7.233-7.355-17.249-11.572-27.481-11.572h-1.984V186.748z"/>
</g>
<g>
</g>
<g>
</g>
<g>
</g>
<g>
</g>
<g>
</g>
<g>
</g>
<g>
</g>
<g>
</g>
<g>
</g>
<g>
</g>
<g>
</g>
<g>
</g>
<g>
</g>
<g>
</g>
<g>
</g>
</svg>
