<?xml version="1.0" encoding="iso-8859-1"?>
<!-- Generator: Adobe Illustrator 19.0.0, SVG Export Plug-In . SVG Version: 6.00 Build 0)  -->
<svg version="1.1" id="Layer_1" xmlns="http://www.w3.org/2000/svg" xmlns:xlink="http://www.w3.org/1999/xlink" x="0px" y="0px"
	 viewBox="0 0 512 512" style="enable-background:new 0 0 512 512;" xml:space="preserve">
<g>
	<path style="fill:#2D527C;" d="M430.975,512h-37.449c-7.952,0-14.401-6.447-14.401-14.401c0-7.953,6.449-14.401,14.401-14.401
		h37.449c27.604,0,50.064-22.459,50.064-50.064V83.186c0-27.604-22.459-50.064-50.064-50.064H214.718
		c-7.952,0-14.401-6.447-14.401-14.401s6.449-14.401,14.401-14.401h216.257c43.485,0,78.865,35.378,78.865,78.865v349.949
		C509.84,476.622,474.461,512,430.975,512z"/>
	<path style="fill:#2D527C;" d="M289.409,507.68H81.025c-43.485,0-78.865-35.378-78.865-78.865V78.865
		C2.16,35.378,37.539,0,81.025,0h32.408c7.952,0,14.401,6.447,14.401,14.401s-6.449,14.401-14.401,14.401H81.025
		c-27.604,0-50.064,22.459-50.064,50.064v349.949c0,27.604,22.459,50.064,50.064,50.064h208.385c7.952,0,14.401,6.447,14.401,14.401
		S297.363,507.68,289.409,507.68z"/>
</g>
<path style="fill:#CEE8FA;" d="M390.932,282.403c1.665-8.545,2.546-17.371,2.546-26.403c0-75.925-61.549-137.475-137.475-137.475
	c-9.032,0-17.862,0.881-26.409,2.542c-11.748-6.876-25.411-10.831-40.009-10.831c-43.825,0-79.353,35.528-79.353,79.353
	c0,14.592,3.959,28.257,10.834,40.009c-1.66,8.547-2.542,17.371-2.542,26.405c0,75.925,61.549,137.475,137.476,137.475
	c9.032,0,17.858-0.881,26.403-2.546c11.748,6.876,25.413,10.835,40.009,10.835c43.827,0,79.353-35.528,79.353-79.353
	C401.767,307.816,397.808,294.156,390.932,282.403L390.932,282.403z"/>
<g>
	<path style="fill:#2D527C;" d="M322.414,416.166c-14.785,0-29.358-3.505-42.473-10.18c-7.904,1.256-15.934,1.891-23.938,1.891
		c-83.745,0-151.878-68.132-151.878-151.875c0-7.994,0.634-16.022,1.888-23.938c-6.675-13.119-10.18-27.692-10.18-42.476
		c0-51.695,42.057-93.753,93.753-93.753c14.791,0,29.364,3.505,42.476,10.175c7.913-1.253,15.943-1.886,23.942-1.886
		c83.743,0,151.875,68.132,151.875,151.875c0,8.005-0.634,16.035-1.891,23.941c6.675,13.12,10.18,27.694,10.18,42.473
		C416.169,374.108,374.11,416.166,322.414,416.166z M282.405,376.528c2.542,0,5.055,0.673,7.275,1.973
		c9.906,5.798,21.225,8.864,32.734,8.864c35.816,0,64.952-29.137,64.952-64.952c0-11.505-3.066-22.825-8.865-32.738
		c-1.768-3.024-2.373-6.588-1.705-10.026c1.513-7.763,2.28-15.72,2.28-23.649c0-67.864-55.21-123.074-123.074-123.074
		c-7.923,0-15.885,0.766-23.663,2.277c-3.44,0.67-7,0.06-10.021-1.708c-9.9-5.795-21.219-8.858-32.734-8.858
		c-35.814,0-64.952,29.137-64.952,64.952c0,11.506,3.064,22.826,8.862,32.737c1.768,3.02,2.375,6.581,1.708,10.017
		c-1.511,7.782-2.277,15.743-2.277,23.66c0,67.864,55.212,123.074,123.077,123.074c7.926,0,15.882-0.768,23.647-2.28
		C280.564,376.616,281.486,376.528,282.405,376.528z"/>
	<path style="fill:#2D527C;" d="M257.028,328.763c-19.143,0-34.132-4.067-44.977-12.199c-6.67-5.003-11.46-11.591-14.369-19.765
		c-2.987-8.391,3.342-17.203,12.249-17.203h2.933c5.405,0,10.419,3.198,12.343,8.249c1.699,4.458,4.358,8.034,7.975,10.728
		c5.626,4.189,13.328,6.284,23.104,6.284c8.954,0,16.038-1.56,21.257-4.683c5.216-3.121,7.825-7.639,7.825-13.555
		c0-2.628-0.638-4.846-1.911-6.653c-1.274-1.806-3.204-3.388-5.792-4.745c-2.588-1.355-5.812-2.607-9.673-3.759
		c-3.862-1.149-8.421-2.382-13.678-3.697l-5.299-1.479c-6.653-1.725-12.981-3.469-18.976-5.237
		c-5.998-1.766-11.255-4.107-15.771-7.025c-4.519-2.915-8.115-6.695-10.783-11.336c-2.67-4.64-4.003-10.658-4.003-18.051
		c0-7.065,1.479-13.204,4.435-18.423c2.958-5.216,6.963-9.529,12.014-12.939c5.053-3.409,10.906-5.934,17.56-7.578
		c6.654-1.643,13.678-2.465,21.071-2.465c8.542,0,16.286,1.007,23.228,3.02c6.941,2.013,12.896,4.909,17.868,8.686
		c4.968,3.78,8.851,8.401,11.644,13.863c0.027,0.055,0.056,0.109,0.084,0.164c4.258,8.432-2.14,18.381-11.587,18.381h-2.87
		c-5.131,0-9.991-2.81-12.131-7.472c-1.42-3.093-3.531-5.633-6.335-7.622c-4.805-3.407-11.441-5.114-19.902-5.114
		c-8.132,0-14.376,1.459-18.729,4.375c-4.355,2.916-6.531,6.921-6.531,12.014c0,2.383,0.554,4.417,1.663,6.1
		c1.109,1.685,2.834,3.164,5.176,4.435c2.342,1.274,5.34,2.445,8.995,3.512c3.655,1.069,8.03,2.218,13.123,3.45
		c5.092,1.151,10.043,2.301,14.848,3.45c4.805,1.151,9.323,2.464,13.555,3.943c4.229,1.479,8.09,3.224,11.582,5.237
		c3.491,2.013,6.47,4.457,8.934,7.333c2.464,2.876,4.394,6.284,5.792,10.227c1.395,3.943,2.095,8.586,2.095,13.924
		c0,6.983-1.377,13.185-4.129,18.607c-2.753,5.422-6.653,9.981-11.706,13.678s-11.152,6.512-18.299,8.44
		C273.786,327.797,265.817,328.763,257.028,328.763z"/>
</g>
<g>
</g>
<g>
</g>
<g>
</g>
<g>
</g>
<g>
</g>
<g>
</g>
<g>
</g>
<g>
</g>
<g>
</g>
<g>
</g>
<g>
</g>
<g>
</g>
<g>
</g>
<g>
</g>
<g>
</g>
</svg>
