<?xml version="1.0" encoding="iso-8859-1"?>
<!-- Generator: Adobe Illustrator 19.0.0, SVG Export Plug-In . SVG Version: 6.00 Build 0)  -->
<svg version="1.1" id="Layer_1" xmlns="http://www.w3.org/2000/svg" xmlns:xlink="http://www.w3.org/1999/xlink" x="0px" y="0px"
	 viewBox="0 0 512 512" style="enable-background:new 0 0 512 512;" xml:space="preserve">
<g>
	<path style="fill:#2D527C;" d="M432.464,512h-37.766c-8.021,0-14.523-6.503-14.523-14.523s6.502-14.523,14.523-14.523h37.766
		c27.839,0,50.49-22.65,50.49-50.49V79.536c0-27.839-22.65-50.49-50.49-50.49H214.367c-8.021,0-14.523-6.503-14.523-14.523
		S206.346,0,214.367,0h218.097C476.321,0,512,35.679,512,79.536v352.93C512,476.321,476.321,512,432.464,512z"/>
	<path style="fill:#2D527C;" d="M289.693,512H79.536C35.679,512,0,476.321,0,432.464V79.536C0,35.679,35.679,0,79.536,0h32.684
		c8.021,0,14.523,6.503,14.523,14.523s-6.502,14.523-14.523,14.523H79.536c-27.839,0-50.49,22.65-50.49,50.49v352.93
		c0,27.839,22.65,50.49,50.49,50.49h210.157c8.021,0,14.523,6.503,14.523,14.523S297.714,512,289.693,512z"/>
</g>
<path style="fill:#CEE8FA;" d="M319.85,358.35c-6.861,1.384-13.775,1.911-20.745,1.162c-7.005-0.749-13.514-2.969-19.409-6.849
	c-6.021-3.962-9.595-9.5-10.702-16.641c-1.028-6.647-1.349-13.339-1.506-20.048c-0.07-2.942-0.118-85.416-0.118-85.416h75.027
	v-49.624H267.41l-0.017-80.073h-44.821c-0.366,2.499-2.325,13.236-2.764,16.124c-3.923,25.848-18.674,47.196-40.589,59.112
	c-2.9,1.577-20.058,9.212-20.058,9.212v45.248h33.941c0,37.102-0.012,69.246,0.017,106.349c0,7.479,0.527,14.915,1.863,22.294
	c1.759,9.669,6.222,17.898,12.875,25.042c8.58,9.213,18.929,15.704,30.671,20.088c7.388,2.768,15.015,4.55,22.822,5.59
	c4.758,0.627,9.53,1.002,14.327,1.133c0.205,0.009,6.618,0.083,9.622,0.083c1.375-0.065,2.743-0.157,4.114-0.214
	c15.525-0.667,30.563-3.722,45.104-9.218c6.113-2.308,12.125-4.851,18.038-7.619c0.091-0.035,0.192-0.074,0.283-0.112V344.22
	C342.685,350.904,331.827,355.937,319.85,358.35z"/>
<path style="fill:#2D527C;" d="M285.3,425.66c-1.826,0-8.359-0.049-10.017-0.09v0.001c-5.298-0.144-10.624-0.565-15.829-1.25
	c-9.243-1.232-17.991-3.378-26.021-6.387c-14.285-5.336-26.471-13.342-36.202-23.79c-8.785-9.433-14.347-20.314-16.535-32.343
	c-1.413-7.8-2.099-15.941-2.099-24.894c-0.023-28.653-0.022-54.359-0.019-81.675v-10.149h-19.417
	c-8.021,0-14.523-6.503-14.523-14.523v-45.248c0-5.737,3.378-10.936,8.619-13.27c7.864-3.499,17.378-7.824,19.037-8.708
	c17.861-9.712,29.95-27.401,33.156-48.525c0.241-1.589,0.821-4.883,1.433-8.371c0.517-2.945,1.162-6.611,1.317-7.674
	c1.041-7.134,7.161-12.425,14.371-12.425h44.821c8.02,0,14.522,6.501,14.523,14.52l0.015,65.553h60.467
	c8.021,0,14.523,6.503,14.523,14.523v49.624c0,8.02-6.502,14.523-14.523,14.523h-60.493c0.023,31.174,0.062,68.278,0.105,70.571
	c0.128,5.514,0.388,11.998,1.339,18.152c0.475,3.063,1.728,5.013,4.329,6.724c3.852,2.536,8.094,4.02,12.971,4.541
	c5.111,0.546,10.422,0.234,16.33-0.957c9.317-1.876,18.433-5.809,27.876-12.022c4.462-2.935,10.173-3.186,14.875-0.652
	c4.701,2.534,7.632,7.445,7.632,12.785v49.753c0,5.785-3.433,11.019-8.74,13.322c-0.102,0.044-0.208,0.089-0.314,0.132
	c-6.149,2.868-12.427,5.513-18.665,7.866c-15.859,5.994-32.554,9.407-49.607,10.139c-0.735,0.03-1.447,0.07-2.157,0.109
	c-0.63,0.035-1.259,0.07-1.891,0.099C285.76,425.654,285.531,425.66,285.3,425.66z M276.078,396.537
	c0.812,0.015,6.007,0.071,8.849,0.077l1.34-0.071c0.85-0.048,1.696-0.093,2.546-0.129c13.939-0.598,27.595-3.388,40.57-8.293
	c2.974-1.121,5.96-2.319,8.932-3.58v-16.484c-5.138,1.964-10.322,3.467-15.596,4.528c-8.756,1.766-17.181,2.222-25.164,1.364
	c-9.447-1.009-18.145-4.09-25.841-9.158c-9.439-6.207-15.341-15.389-17.069-26.547c-1.207-7.806-1.522-15.467-1.673-21.934
	c-0.071-2.951-0.115-71.945-0.122-85.745c-0.001-3.853,1.526-7.549,4.251-10.275c2.723-2.725,6.419-4.257,10.272-4.257h60.503
	v-20.578h-60.464c-8.02,0-14.522-6.501-14.523-14.52l-0.015-65.553h-18.07c-0.283,1.627-0.517,3-0.636,3.78
	c-4.582,30.192-22.081,55.593-48.011,69.692c-1.872,1.018-7.305,3.52-12.472,5.857v21.321h19.417
	c8.021,0,14.523,6.503,14.523,14.523l-0.001,24.675c-0.001,27.309-0.003,53.005,0.019,81.662c0,7.209,0.533,13.656,1.631,19.72
	c1.192,6.553,4.206,12.356,9.212,17.733c6.724,7.219,14.943,12.577,25.124,16.379c6.079,2.277,12.506,3.846,19.659,4.8
	c4.193,0.552,8.508,0.892,12.805,1.009C276.075,396.537,276.076,396.537,276.078,396.537z"/>
<g>
</g>
<g>
</g>
<g>
</g>
<g>
</g>
<g>
</g>
<g>
</g>
<g>
</g>
<g>
</g>
<g>
</g>
<g>
</g>
<g>
</g>
<g>
</g>
<g>
</g>
<g>
</g>
<g>
</g>
</svg>
