<?xml version="1.0" encoding="iso-8859-1"?>
<!-- Generator: Adobe Illustrator 19.0.0, SVG Export Plug-In . SVG Version: 6.00 Build 0)  -->
<svg version="1.1" id="Layer_1" xmlns="http://www.w3.org/2000/svg" xmlns:xlink="http://www.w3.org/1999/xlink" x="0px" y="0px"
	 viewBox="0 0 512.001 512.001" style="enable-background:new 0 0 512.001 512.001;" xml:space="preserve">
<g>
	<path style="fill:#2D527C;" d="M432.464,512.001h-37.767c-8.02,0-14.523-6.502-14.523-14.523s6.503-14.523,14.523-14.523h37.767
		c27.839,0,50.49-22.65,50.49-50.49V79.537c0-27.839-22.65-50.49-50.49-50.49H214.367c-8.021,0-14.523-6.502-14.523-14.523
		s6.502-14.523,14.523-14.523h218.098c43.855,0,79.536,35.679,79.536,79.536v352.928C512,476.322,476.321,512.001,432.464,512.001z"
		/>
	<path style="fill:#2D527C;" d="M289.694,512.001H79.536C35.679,512.001,0,476.322,0,432.465V79.537
		C0,35.68,35.679,0.001,79.536,0.001h32.684c8.021,0,14.523,6.502,14.523,14.523s-6.502,14.523-14.523,14.523H79.536
		c-27.839,0-50.49,22.65-50.49,50.49v352.928c0,27.839,22.65,50.49,50.49,50.49h210.158c8.02,0,14.523,6.502,14.523,14.523
		C304.218,505.499,297.714,512.001,289.694,512.001z"/>
</g>
<path style="fill:#CEE8FA;" d="M177.576,420.64c0-12.526-2.046-43.293-2.064-52.407c-0.007-4.01-2.73-5.176-5.997-6.225
	c-19.878-6.374-36.254-17.531-47.9-35.197c-10.406-15.784-15.53-33.354-17.715-51.881c-4.238-35.914-3.91-71.747,4.729-107.009
	c7.639-31.187,26.33-52.771,57.191-63.938c36.73-13.293,74.547-13.499,112.749-11.989c18.524,0.732,36.793,2.86,54.592,7.905
	c18.954,5.372,37.651,11.639,51.085,27.363c9.591,11.226,15.345,24.485,19.076,38.613c8.479,32.093,8.648,64.64,5.703,97.479
	c-1.426,15.894-3.255,31.588-8.951,46.536c-10.895,28.589-31.886,45.292-61.341,52.745c-33.756,8.54-67.933,11.815-102.622,10.515
	c-4.804-0.18-7.642,2.261-10.558,5.474C207.694,395.772,178.909,419.397,177.576,420.64z"/>
<g>
	<path style="fill:#2D527C;" d="M177.573,435.163c-1.955,0-3.926-0.394-5.789-1.205c-5.302-2.305-8.731-7.536-8.731-13.318
		c0-6.46-0.607-18.712-1.144-29.521c-0.314-6.328-0.6-12.102-0.767-16.614c-22.129-7.914-39.491-21.253-51.65-39.698
		c-10.776-16.347-17.322-35.375-20.013-58.172c-4.906-41.587-3.256-78.277,5.047-112.168c8.942-36.497,31.267-61.442,66.355-74.139
		c25.779-9.328,53.492-13.489,89.859-13.489c8.248,0,17.274,0.205,28.407,0.645c22.35,0.883,40.772,3.567,57.978,8.444
		c20.639,5.85,42.132,13.132,58.167,31.902c10.095,11.816,17.317,26.319,22.077,44.336c7.803,29.539,9.749,62.104,6.127,102.485
		c-1.461,16.267-3.423,33.557-9.844,50.41c-12.202,32.019-36.209,52.763-71.351,61.652c-29.462,7.455-60.275,11.234-91.586,11.235
		c-4.546,0-9.173-0.08-13.777-0.237c-0.171,0.177-0.378,0.397-0.626,0.671c-0.224,0.247-0.456,0.485-0.696,0.716
		c-14.756,14.167-36.818,32.674-45.122,39.639c-1.624,1.362-2.736,2.292-3.17,2.671
		C184.599,433.872,181.111,435.163,177.573,435.163z M250.736,105.885c-32.844,0-57.509,3.625-79.975,11.755
		c-25.741,9.315-41.45,26.894-48.027,53.737c-7.462,30.459-8.904,63.775-4.412,101.852c2.148,18.196,7.19,33.11,15.418,45.59
		c9.263,14.05,22.415,23.655,40.21,29.361c13.273,4.257,16.073,13.241,16.084,20.029c0.007,3.804,0.433,12.385,0.883,21.471
		c0.009,0.187,0.019,0.376,0.029,0.563c8.143-7.038,17.088-14.954,24.198-21.76c3.048-3.339,9.786-10.274,21.512-9.847
		c4.691,0.176,9.421,0.266,14.055,0.266c28.91,0,57.326-3.481,84.461-10.348c26.145-6.615,42.455-20.544,51.333-43.837
		c5.108-13.402,6.726-27.828,8.057-42.663c3.358-37.42,1.728-65.939-5.279-92.47c-3.622-13.705-8.881-24.463-16.079-32.888
		c-10.776-12.615-26.964-17.994-44.004-22.823c-14.938-4.235-31.209-6.575-51.206-7.366
		C267.255,106.082,258.592,105.885,250.736,105.885z"/>
	<path style="fill:#2D527C;" d="M331.595,293.875c-1.261,11.264-7.443,17.554-13.613,23.561c-6.968,6.785-15.261,10.815-25.18,6.845
		c-7.619-3.05-15.09-6.527-22.424-10.216c-23.031-11.578-43.238-27.054-60.666-45.95c-20.645-22.386-36.79-47.624-46.287-76.813
		c-2.483-7.63-1.182-14.433,4.83-19.664c5.527-4.81,11.396-9.344,17.599-13.226c4.475-2.8,9.898-2.523,13.974,1.112
		c11.351,10.12,20.636,21.95,26.656,35.993c2.04,4.761,1.59,9.781-3.072,13.469c-2.282,1.804-4.432,3.773-6.673,5.629
		c-6.169,5.108-7.129,8.659-4.66,16.214c5.613,17.178,17.675,29.071,32.234,38.656c4.913,3.234,10.653,5.33,16.208,7.434
		c4.733,1.792,8.679-0.18,11.722-4.045c1.587-2.016,3.127-4.069,4.755-6.049c4.643-5.644,12.798-7.51,18.864-3.452
		c10.654,7.125,21.13,14.557,31.242,22.421C329.652,287.775,330.542,291.881,331.595,293.875z"/>
	<path style="fill:#2D527C;" d="M346.86,245.427c-4.011,0-7.262-3.252-7.262-7.262c0-50.307-40.928-91.233-91.231-91.233
		c-4.01,0-7.262-3.252-7.262-7.262s3.252-7.262,7.262-7.262c58.313,0,105.755,47.443,105.755,105.756
		C354.122,242.175,350.872,245.427,346.86,245.427z"/>
	<path style="fill:#2D527C;" d="M319.998,245.427c-4.011,0-7.262-3.252-7.262-7.262c0-35.493-28.876-64.371-64.369-64.371
		c-4.01,0-7.262-3.252-7.262-7.262c0-4.01,3.252-7.262,7.262-7.262c43.501,0,78.893,35.391,78.893,78.894
		C327.26,242.175,324.01,245.427,319.998,245.427z"/>
	<path style="fill:#2D527C;" d="M293.138,245.427c-4.011,0-7.262-3.252-7.262-7.262c0-20.682-16.827-37.509-37.509-37.509
		c-4.01,0-7.262-3.252-7.262-7.262s3.252-7.262,7.262-7.262c28.69,0,52.032,23.342,52.032,52.032
		C300.399,242.175,297.149,245.427,293.138,245.427z"/>
</g>
<g>
</g>
<g>
</g>
<g>
</g>
<g>
</g>
<g>
</g>
<g>
</g>
<g>
</g>
<g>
</g>
<g>
</g>
<g>
</g>
<g>
</g>
<g>
</g>
<g>
</g>
<g>
</g>
<g>
</g>
</svg>
