<?xml version="1.0" encoding="iso-8859-1"?>
<!-- Generator: Adobe Illustrator 19.0.0, SVG Export Plug-In . SVG Version: 6.00 Build 0)  -->
<svg version="1.1" id="Layer_1" xmlns="http://www.w3.org/2000/svg" xmlns:xlink="http://www.w3.org/1999/xlink" x="0px" y="0px"
	 viewBox="0 0 512 512" style="enable-background:new 0 0 512 512;" xml:space="preserve">
<g>
	<path style="fill:#2D527C;" d="M432.464,512h-37.766c-8.021,0-14.523-6.502-14.523-14.523s6.502-14.523,14.523-14.523h37.766
		c27.839,0,50.49-22.65,50.49-50.49V79.536c0-27.839-22.65-50.49-50.49-50.49H214.367c-8.021,0-14.523-6.502-14.523-14.523
		S206.346,0,214.367,0h218.097C476.321,0,512,35.679,512,79.536v352.928C512,476.321,476.321,512,432.464,512z"/>
	<path style="fill:#2D527C;" d="M289.693,512H79.536C35.679,512,0,476.321,0,432.464V79.536C0,35.679,35.679,0,79.536,0h32.684
		c8.021,0,14.523,6.502,14.523,14.523s-6.502,14.523-14.523,14.523H79.536c-27.839,0-50.49,22.65-50.49,50.49v352.928
		c0,27.839,22.65,50.49,50.49,50.49h210.157c8.021,0,14.523,6.502,14.523,14.523S297.714,512,289.693,512z"/>
</g>
<path style="fill:#CEE8FA;" d="M412.344,186.802c0,73.474-93.709,207.974-154.138,207.974c-80.163,0-73.809-193.57-119.284-193.57
	c-2.343,0-10.531,4.925-24.554,14.731l-14.712-18.954c15.44-13.563,30.667-27.125,45.649-40.708
	c20.592-17.785,30.654-27.145,40.955-28.089c24.338-2.34,33.938,15.58,44.948,49.917c12.625,39.371,32.806,119.504,41.237,119.504
	c6.54,0,16.382-10.34,29.501-31.035c13.093-20.677,20.11-36.412,21.057-47.229c1.873-17.849-5.148-26.792-21.057-26.792
	c-7.491,0-15.216,1.722-23.159,5.128c15.38-50.35,32.821-81.804,76.174-80.41C387.107,118.211,412.344,146.013,412.344,186.802z"/>
<path style="fill:#2D527C;" d="M258.207,409.3c-56.749,0-76.511-70.81-92.39-127.708c-5.514-19.759-10.724-38.424-16.62-51.434
	c-3.99-8.804-7.214-12.507-8.991-13.817c-2.572,1.458-7.705,4.639-17.513,11.498c-6.344,4.437-15.049,3.118-19.796-2.996
	l-14.712-18.954c-4.708-6.066-3.881-14.748,1.888-19.815c15.93-13.994,31.232-27.64,45.479-40.557
	c0.087-0.078,0.174-0.155,0.263-0.232l4.435-3.838c19.669-17.037,30.504-26.422,44.688-27.722c1.801-0.174,3.645-0.264,5.42-0.264
	c35.377,0,46.535,34.799,54.684,60.21c3.484,10.866,7.461,24.531,11.671,38.998c5.609,19.274,14.115,48.503,20.09,64.247
	c3.105-3.693,7.346-9.388,12.881-18.118c15.438-24.383,18.44-35.978,18.855-40.72c0.007-0.083,0.016-0.166,0.025-0.248
	c0.668-6.374-0.402-9.122-0.871-9.642c-0.277-0.309-1.852-1.111-5.742-1.111c-5.451,0-11.318,1.33-17.436,3.953
	c-5.196,2.229-11.212,1.239-15.419-2.537c-4.207-3.776-5.843-9.648-4.193-15.055c13.668-44.743,33.021-92.559,90.531-90.682
	c41.378,1.213,71.439,36.562,71.439,84.05c0,45.022-29.53,101.868-57.166,140.055C351.762,351.644,304.987,409.3,258.207,409.3z
	 M138.921,186.683c30.561,0,41.827,40.364,54.871,87.102c13.928,49.904,29.714,106.469,64.414,106.469
	c22.476,0,57.003-27.643,87.965-70.426c31.376-43.356,51.65-91.647,51.65-123.025c0-31.646-17.8-54.27-43.286-55.018
	c-0.809-0.026-1.564-0.038-2.312-0.038c-23.636,0-38.006,12.188-51.367,46.29c0.363-0.006,0.726-0.009,1.089-0.009
	c11.726,0,20.921,3.606,27.325,10.72c6.842,7.597,9.595,18.362,8.187,31.996c-1.216,13.441-8.605,30.48-23.243,53.598
	c-17.015,26.842-29.116,37.788-41.771,37.788c-13.464,0-19.317-14.218-26.708-35.908c-5.365-15.74-11.237-35.922-16.917-55.439
	c-4.152-14.273-8.076-27.754-11.44-38.244c-10.916-34.042-17.412-40.032-27.025-40.032c-0.85,0-1.76,0.046-2.704,0.137
	c-4.944,0.453-14.776,8.971-28.385,20.759l-4.331,3.747c-7.574,6.867-15.442,13.935-23.541,21.15
	C134.596,186.958,136.722,186.683,138.921,186.683z"/>
<g>
</g>
<g>
</g>
<g>
</g>
<g>
</g>
<g>
</g>
<g>
</g>
<g>
</g>
<g>
</g>
<g>
</g>
<g>
</g>
<g>
</g>
<g>
</g>
<g>
</g>
<g>
</g>
<g>
</g>
</svg>
