<svg xmlns="http://www.w3.org/2000/svg" xmlns:xlink="http://www.w3.org/1999/xlink" id="Layer_1" x="0" y="0" enable-background="new 0 0 512.001 512.001" version="1.1" viewBox="0 0 512.001 512.001" xml:space="preserve"><g><path fill="#2D527C" d="M432.464,512.001h-37.767c-8.02,0-14.523-6.502-14.523-14.523s6.503-14.523,14.523-14.523h37.767 c27.839,0,50.49-22.65,50.49-50.49V79.537c0-27.839-22.65-50.49-50.49-50.49H214.367c-8.02,0-14.523-6.502-14.523-14.523 s6.503-14.523,14.523-14.523h218.098c43.855,0,79.536,35.679,79.536,79.536v352.928C512,476.322,476.321,512.001,432.464,512.001z"/><path fill="#2D527C" d="M289.694,512.001H79.536C35.679,512.001,0,476.322,0,432.465V79.537 C0,35.68,35.679,0.001,79.536,0.001h32.684c8.02,0,14.523,6.502,14.523,14.523s-6.503,14.523-14.523,14.523H79.536 c-27.839,0-50.49,22.65-50.49,50.49v352.928c0,27.839,22.65,50.49,50.49,50.49h210.158c8.02,0,14.523,6.502,14.523,14.523 C304.218,505.499,297.714,512.001,289.694,512.001z"/></g><path fill="#CEE8FA" d="M303.403,177.295c0-25.084,9.699-38.128,23.413-38.128c13.046,0,21.745,11.706,21.745,35.454	c0,3.066-0.193,6.198-0.513,9.311c7.751,7.111,17.611,11.473,28.2,12.398c8.429,0.735,16.89-0.796,24.479-4.342	c1.111-7.458,1.685-14.939,1.685-22.049c0-51.175-26.091-80.942-73.921-80.942c-49.164,0-77.93,37.796-77.93,87.633	c0,49.371,23.079,91.748,61.137,111.058c-16.003,32.012-36.366,60.21-57.603,81.457c-38.531-46.577-73.364-108.717-87.656-229.977	h-56.846c26.264,201.957,104.529,266.261,125.223,278.61c11.707,7.023,21.785,6.689,32.49,0.667	c16.803-9.556,67.255-59.999,95.219-119.085c11.739-0.032,25.841-1.38,39.885-4.553v-39.761c-8.604,1.984-16.927,2.858-24.418,2.858	C335.847,257.903,303.403,228.47,303.403,177.295z"/><path fill="#2D527C" d="M251.639,437.528c-8.165,0-16.113-2.386-24.296-7.295c-17.092-10.2-103.929-72.16-132.152-289.192	c-0.539-4.143,0.732-8.319,3.488-11.457c2.758-3.138,6.734-4.938,10.913-4.938h56.845c7.363,0,13.562,5.51,14.424,12.824	c13.098,111.128,43.712,169.356,74.136,209.461c13.822-15.755,26.521-33.999,37.441-53.805	c-35.118-24.01-56.402-67.299-56.402-116.494c0-28.598,8.296-53.465,23.991-71.916c16.829-19.783,40.504-30.24,68.464-30.24	c55.381,0,88.443,35.688,88.443,95.465c0,7.847-0.62,15.986-1.844,24.191c-0.717,4.816-3.802,8.954-8.214,11.014	c-9.87,4.613-21.061,6.595-31.888,5.654c-13.835-1.208-26.544-6.798-36.757-16.163c-3.382-3.104-5.101-7.623-4.63-12.191	c0.289-2.817,0.437-5.449,0.437-7.825c0-7.774-1.521-20.931-7.222-20.931c-5.234,0-8.89,9.707-8.89,23.604	c0,40.145,23.577,66.085,60.065,66.085c6.782,0,14.098-0.86,21.156-2.488c4.305-0.996,8.84,0.032,12.305,2.787	c3.462,2.755,5.48,6.939,5.48,11.364v39.761c0,6.788-4.701,12.67-11.324,14.166c-10.876,2.457-22.639,4.059-33.925,4.653	c-29.495,57.618-78.136,106.603-97.2,117.444C266.739,435.426,259.286,437.528,251.639,437.528z M126.284,153.69	c29.103,194.532,106.963,246.24,115.972,251.615c3.571,2.142,6.63,3.175,9.383,3.175c2.527,0,5.323-0.88,8.544-2.694	c14.651-8.33,62.765-56.755,89.214-112.641c2.395-5.061,7.488-8.296,13.09-8.31c8.159-0.022,16.889-0.735,25.4-2.052v-10.781	c-3.321,0.282-6.625,0.423-9.895,0.423c-24.954,0-47.507-9.06-63.508-25.51c-16.75-17.22-25.604-41.295-25.604-69.621	c0-38.861,20.435-52.651,37.936-52.651c17.532,0,36.269,13.129,36.269,49.977c0,0.823-0.012,1.663-0.035,2.517	c4.35,2.658,9.256,4.27,14.462,4.724c3.271,0.282,6.627,0.073,9.871-0.622c0.335-3.836,0.505-7.614,0.505-11.302	c0-44.072-19.984-66.419-59.397-66.419c-38.517,0-63.407,28.698-63.407,73.109c0,43.87,20.379,81.462,53.184,98.108	c7.122,3.613,9.99,12.301,6.419,19.445c-16.278,32.562-37.136,62.034-60.322,85.23c-2.89,2.893-6.859,4.437-10.953,4.239	c-4.085-0.192-7.901-2.099-10.507-5.25c-35.065-42.387-72.831-102.218-89.274-224.711L126.284,153.69L126.284,153.69z"/></svg>