<?xml version="1.0" encoding="iso-8859-1"?>
<!-- Generator: Adobe Illustrator 19.0.0, SVG Export Plug-In . SVG Version: 6.00 Build 0)  -->
<svg version="1.1" id="Layer_1" xmlns="http://www.w3.org/2000/svg" xmlns:xlink="http://www.w3.org/1999/xlink" x="0px" y="0px"
	 viewBox="0 0 512.001 512.001" style="enable-background:new 0 0 512.001 512.001;" xml:space="preserve">
<g>
	<path style="fill:#2D527C;" d="M432.464,512.001h-37.767c-8.02,0-14.523-6.503-14.523-14.523s6.503-14.523,14.523-14.523h37.767
		c27.839,0,50.49-22.65,50.49-50.49V79.537c0-27.839-22.65-50.49-50.49-50.49H214.367c-8.02,0-14.523-6.503-14.523-14.523
		s6.503-14.523,14.523-14.523h218.098c43.855,0,79.536,35.679,79.536,79.536v352.93C512,476.322,476.321,512.001,432.464,512.001z"
		/>
	<path style="fill:#2D527C;" d="M289.694,512.001H79.536C35.679,512.001,0,476.322,0,432.465V79.537
		C0,35.68,35.679,0.001,79.536,0.001h32.684c8.02,0,14.523,6.503,14.523,14.523s-6.503,14.523-14.523,14.523H79.536
		c-27.839,0-50.49,22.65-50.49,50.49v352.93c0,27.839,22.65,50.49,50.49,50.49h210.158c8.02,0,14.523,6.503,14.523,14.523
		S297.714,512.001,289.694,512.001z"/>
</g>
<path style="fill:#CEE8FA;" d="M179.274,136.543h-78.325l43.837,81.918l-59.647,98.445h78.331l59.639-98.445L179.274,136.543z"/>
<path style="fill:#2D527C;" d="M163.469,331.429H85.139c-5.243,0-10.079-2.826-12.654-7.395c-2.572-4.569-2.485-10.169,0.232-14.654
	l55.358-91.367l-39.933-74.618c-2.408-4.502-2.276-9.937,0.347-14.315c2.623-4.38,7.353-7.06,12.458-7.06h78.325
	c5.356,0,10.278,2.948,12.805,7.671l43.837,81.918c2.42,4.523,2.274,9.989-0.385,14.376L175.89,324.43
	C173.258,328.775,168.548,331.429,163.469,331.429z M110.919,302.383h44.368l51.111-84.368l-35.826-66.95h-45.38l32.4,60.544
	c2.42,4.522,2.274,9.989-0.385,14.376L110.919,302.383z"/>
<path style="fill:#CEE8FA;" d="M344.332,112.51h82.529L323.783,287.444l63.447,112.047h-82.419l-63.558-112.047L344.332,112.51z"/>
<path style="fill:#2D527C;" d="M387.258,414.015c-0.007,0.001-0.019,0.001-0.029,0H304.81c-5.228,0-10.053-2.81-12.632-7.357
	L228.62,294.61c-2.563-4.518-2.517-10.063,0.121-14.538l103.078-174.934c2.61-4.431,7.369-7.151,12.512-7.151h82.529
	c5.212,0,10.024,2.793,12.61,7.317c2.585,4.525,2.549,10.089-0.097,14.578l-98.818,167.707l58.884,103.99
	c1.483,2.276,2.343,4.995,2.343,7.914C401.781,407.513,395.281,414.015,387.258,414.015z M313.27,384.968h49.046L311.145,294.6
	c-2.558-4.517-2.51-10.057,0.126-14.529l90.176-153.039h-48.815l-94.602,160.55L313.27,384.968z"/>
<g>
</g>
<g>
</g>
<g>
</g>
<g>
</g>
<g>
</g>
<g>
</g>
<g>
</g>
<g>
</g>
<g>
</g>
<g>
</g>
<g>
</g>
<g>
</g>
<g>
</g>
<g>
</g>
<g>
</g>
</svg>
