<?xml version="1.0" encoding="utf-8"?>
<!-- Generator: Adobe Illustrator 19.0.0, SVG Export Plug-In . SVG Version: 6.00 Build 0)  -->
<svg version="1.1" id="Icons" xmlns="http://www.w3.org/2000/svg" xmlns:xlink="http://www.w3.org/1999/xlink" x="0px" y="0px"
	 viewBox="0 0 64 64" style="enable-background:new 0 0 64 64;" xml:space="preserve">
<style type="text/css">
	.st0{display:none;}
	.st1{display:inline;fill:#ECECEC;}
	.st2{display:inline;fill:#673AB7;}
	.st3{display:inline;opacity:0.2;fill:#414042;}
	.st4{display:inline;fill:#FFFFFF;}
	.st5{display:inline;opacity:0.1;fill:#414042;}
	.st6{display:inline;fill:#FFC107;}
	.st7{display:inline;}
	.st8{fill:#FFA000;}
	.st9{fill:#373737;}
	.st10{fill:#ECECEC;}
	.st11{fill:#D8D8D8;}
	.st12{fill:#673AB7;}
	.st13{fill:#FFC107;}
	.st14{fill:#FFCD39;}
	.st15{fill:#FFFFFF;}
	.st16{fill:#231F20;}
	.st17{fill:#212121;}
	.st18{fill:#3C3C3C;}
	.st19{opacity:0.1;fill:#414042;}
	.st20{fill:#FAFAFA;}
	.st21{fill:#C5C5C5;}
	.st22{display:inline;opacity:0.2;fill:#231F20;}
	.st23{opacity:0.1;fill:#231F20;}
	.st24{opacity:0.2;fill:#414042;}
	.st25{fill:#4D2C89;}
	.st26{fill:#8561C5;}
	.st27{opacity:0.2;}
	.st28{fill:#E4E4E4;}
	.st29{fill:#A489D4;}
	.st30{fill:#F5F5F5;}
	.st31{display:inline;fill:#8561C5;}
	.st32{display:inline;fill:#FFA000;}
	.st33{display:inline;fill:#D8D8D8;}
	.st34{display:inline;opacity:0.3;fill:#231F20;}
	.st35{display:inline;fill:#FF9800;}
	.st36{opacity:0.3;fill:#231F20;}
	.st37{display:inline;fill:#B1B1B1;}
	.st38{display:inline;fill:#A489D4;}
	.st39{fill:#E6E7E8;}
	.st40{display:inline;opacity:0.3;fill:#414042;}
	.st41{opacity:0.2;fill:#231F20;}
	.st42{fill:#B1B1B1;}
	.st43{fill:#4D4D4D;}
	.st44{fill:#9E9E9E;}
	.st45{opacity:0.3;}
	.st46{fill:#414042;}
	.st47{opacity:0.3;fill:#414042;}
	.st48{fill:#FBFBFB;}
	.st49{fill:#F1F2F2;}
	.st50{opacity:0.35;}
	.st51{display:inline;fill:#4D2C89;}
	.st52{display:inline;fill:#FFED5E;}
	.st53{display:inline;fill:#212121;}
</style>
<g id="XMLID_828_" class="st0">
	<path id="XMLID_1454_" class="st1" d="M50.3,47.9H13.7c-2,0-3.6-1.6-3.6-3.6V19.7c0-2,1.6-3.6,3.6-3.6h36.6c2,0,3.6,1.6,3.6,3.6
		v24.5C53.9,46.3,52.3,47.9,50.3,47.9z"/>
	<path id="XMLID_8_" class="st2" d="M10.1,23.3h43.8v-3.5c0-2-1.6-3.6-3.6-3.6H13.7c-2,0-3.6,1.6-3.6,3.6V23.3z"/>
	<path id="XMLID_11_" class="st3" d="M50.3,16.1h-2c2,0,3.6,1.6,3.6,3.6v24.5c0,2-1.6,3.6-3.6,3.6h2c2,0,3.6-1.6,3.6-3.6V19.7
		C53.9,17.7,52.3,16.1,50.3,16.1z"/>
	<circle id="XMLID_5_" class="st4" cx="15.9" cy="19.9" r="0.8"/>
	<circle id="XMLID_6_" class="st4" cx="19.1" cy="19.9" r="0.8"/>
	<circle id="XMLID_9_" class="st4" cx="22.3" cy="19.9" r="0.8"/>
	<path id="XMLID_69_" class="st5" d="M10.1,42.8v1.4c0,2,1.6,3.6,3.6,3.6h14.1l4.2-4.2l-6.9-15.9L10.1,42.8z"/>
	<path id="XMLID_871_" class="st6" d="M41.2,32.1c0-3-2.4-5.4-5.4-5.4c-1.5,0-2.9,0.6-3.8,1.6c-1-1-2.3-1.6-3.8-1.6
		c-3,0-5.4,2.4-5.4,5.4c0,1.4,0.6,2.8,1.5,3.7l7.7,7.6l7.9-7.8c0.1-0.1,0.3-0.4,0.3-0.4C40.9,34.4,41.2,33.3,41.2,32.1z"/>
	<g id="XMLID_68_" class="st7">
		<path id="XMLID_129_" class="st8" d="M35.9,26.8c-0.3,0-0.5,0-0.8,0.1c2.6,0.3,4.7,2.6,4.7,5.3c0,1.2-0.4,2.3-1,3.2
			c0,0-0.2,0.3-0.3,0.4l-7.1,7.1l0.7,0.7l7.9-7.8c0.1-0.1,0.3-0.4,0.3-0.4c0.7-0.9,1-2,1-3.2C41.2,29.2,38.8,26.8,35.9,26.8z"/>
	</g>
</g>
<g id="XMLID_114_" class="st0">
	<g id="XMLID_79_" class="st7">
		<path id="XMLID_802_" class="st9" d="M52.1,48.3H11.9v-24c0-0.7,0.6-1.3,1.3-1.3h37.7c0.7,0,1.3,0.6,1.3,1.3V48.3z"/>
		<rect id="XMLID_799_" x="13.9" y="25.2" class="st10" width="36.1" height="21"/>
		<path id="XMLID_76_" class="st11" d="M54.5,49.4H9.5l0,0c1.3,1.3,3,2,4.8,2h35.3C51.5,51.4,53.2,50.7,54.5,49.4L54.5,49.4z"/>
		<rect id="XMLID_75_" x="9.5" y="48.1" class="st10" width="44.9" height="1.3"/>
		<path id="XMLID_77_" class="st11" d="M34.8,49.1h-5.6c-0.2,0-0.3-0.2-0.3-0.3l0,0c0-0.2,0.2-0.3,0.3-0.3h5.6
			c0.2,0,0.3,0.2,0.3,0.3l0,0C35.1,48.9,35,49.1,34.8,49.1z"/>
		<path id="XMLID_80_" class="st12" d="M21.8,31.6h-4.3c-0.4,0-0.7-0.3-0.7-0.7l0,0c0-0.4,0.3-0.7,0.7-0.7h4.3
			c0.4,0,0.7,0.3,0.7,0.7l0,0C22.6,31.3,22.2,31.6,21.8,31.6z"/>
		<path id="XMLID_84_" class="st11" d="M30.6,35.6h-6.4c-0.4,0-0.7-0.3-0.7-0.7l0,0c0-0.4,0.3-0.7,0.7-0.7h6.4
			c0.4,0,0.7,0.3,0.7,0.7l0,0C31.3,35.2,31,35.6,30.6,35.6z"/>
		<path id="XMLID_87_" class="st12" d="M35.6,35.6h-2.5c-0.4,0-0.7-0.3-0.7-0.7l0,0c0-0.4,0.3-0.7,0.7-0.7h2.5
			c0.4,0,0.7,0.3,0.7,0.7l0,0C36.3,35.2,36,35.6,35.6,35.6z"/>
		<path id="XMLID_85_" class="st11" d="M30.6,39.5H20.3c-0.4,0-0.7-0.3-0.7-0.7l0,0c0-0.4,0.3-0.7,0.7-0.7h10.3
			c0.4,0,0.7,0.3,0.7,0.7l0,0C31.3,39.2,31,39.5,30.6,39.5z"/>
		<path id="XMLID_88_" class="st11" d="M33.4,39.5h13.7c0.4,0,0.7-0.3,0.7-0.7l0,0c0-0.4-0.3-0.7-0.7-0.7H33.4
			c-0.4,0-0.7,0.3-0.7,0.7l0,0C32.7,39.2,33,39.5,33.4,39.5z"/>
		<path id="XMLID_86_" class="st11" d="M23.3,43.5h-5.8c-0.4,0-0.7-0.3-0.7-0.7l0,0c0-0.4,0.3-0.7,0.7-0.7h5.8
			c0.4,0,0.7,0.3,0.7,0.7l0,0C24,43.2,23.7,43.5,23.3,43.5z"/>
		<path id="XMLID_89_" class="st12" d="M25.8,43.5h1.9c0.4,0,0.7-0.3,0.7-0.7l0,0c0-0.4-0.3-0.7-0.7-0.7h-1.9
			c-0.4,0-0.7,0.3-0.7,0.7l0,0C25,43.2,25.4,43.5,25.8,43.5z"/>
		<path id="XMLID_90_" class="st11" d="M30.1,43.5h14.2c0.4,0,0.7-0.3,0.7-0.7l0,0c0-0.4-0.3-0.7-0.7-0.7H30.1
			c-0.4,0-0.7,0.3-0.7,0.7l0,0C29.4,43.2,29.7,43.5,30.1,43.5z"/>
		<path id="XMLID_83_" class="st11" d="M35.6,31.6H24.8c-0.4,0-0.7-0.3-0.7-0.7l0,0c0-0.4,0.3-0.7,0.7-0.7h10.8
			c0.4,0,0.7,0.3,0.7,0.7l0,0C36.3,31.3,36,31.6,35.6,31.6z"/>
		<path id="XMLID_91_" class="st11" d="M38,31.6h3.8c0.4,0,0.7-0.3,0.7-0.7l0,0c0-0.4-0.3-0.7-0.7-0.7H38c-0.4,0-0.7,0.3-0.7,0.7
			l0,0C37.3,31.3,37.6,31.6,38,31.6z"/>
	</g>
	<polygon id="XMLID_82_" class="st3" points="32.1,32.7 40.6,23 23.5,23 	"/>
	<g id="XMLID_74_" class="st7">
		<polygon id="XMLID_72_" class="st13" points="35.9,17.7 32,12.6 39.7,12.6 		"/>
		<polygon id="XMLID_71_" class="st13" points="28.3,17.7 24.4,12.6 32.1,12.6 		"/>
		<polygon id="XMLID_16_" class="st13" points="32.1,30.7 20.6,17.6 43.5,17.6 		"/>
		<polygon id="XMLID_73_" class="st14" points="32.1,30.7 28.3,17.6 35.9,17.6 		"/>
		<polygon id="XMLID_70_" class="st14" points="24.4,12.6 20.6,17.6 28.2,17.6 		"/>
		<polygon id="XMLID_15_" class="st14" points="32,12.6 28.3,17.6 35.8,17.6 		"/>
		<polygon id="XMLID_17_" class="st14" points="39.7,12.6 35.9,17.6 43.5,17.6 		"/>
	</g>
</g>
<g id="XMLID_112_" class="st0">
	<g id="XMLID_104_" class="st7">
		<circle id="XMLID_103_" class="st10" cx="23.1" cy="22.9" r="12.6"/>
		<circle id="XMLID_96_" class="st15" cx="23.1" cy="22.9" r="10.8"/>
		<path id="XMLID_109_" class="st10" d="M30.7,17.7h1.8c-0.3-0.5-0.6-0.9-0.9-1.3h-1.3c-0.2-0.7-0.4-1.3-0.6-1.9
			c-0.6-0.5-1.2-0.9-1.9-1.2c0.5,1,0.9,2,1.2,3.1h-5.2v-4.2c-0.2,0-0.5,0-0.8,0c-0.2,0-0.4,0-0.6,0v4.2h-4.9
			c0.3-1.2,0.8-2.4,1.3-3.4c-0.7,0.3-1.3,0.6-1.9,1c-0.3,0.8-0.6,1.6-0.8,2.4h-1.8c-0.3,0.4-0.6,0.9-0.9,1.3H16
			c-0.3,1.5-0.5,3-0.5,4.6h-3.2c0,0.2,0,0.4,0,0.7c0,0.2,0,0.4,0,0.6h3.2c0,1.6,0.2,3.1,0.5,4.6h-2.4c0.3,0.5,0.6,0.9,0.9,1.3h1.8
			c0.2,0.9,0.5,1.7,0.8,2.5c0.6,0.4,1.2,0.7,1.9,1c-0.5-1.1-1-2.2-1.4-3.5h4.9v4.2c0.2,0,0.4,0,0.6,0c0.3,0,0.5,0,0.8,0v-4.2H29
			c-0.3,1.1-0.7,2.2-1.2,3.2c0.7-0.3,1.3-0.7,1.9-1.2c0.2-0.6,0.5-1.3,0.6-2h1.3c0.3-0.4,0.6-0.9,0.9-1.3h-1.9
			c0.3-1.5,0.5-3,0.5-4.6h2.7c0-0.2,0-0.4,0-0.6c0-0.2,0-0.4,0-0.7h-2.7C31.2,20.7,31,19.1,30.7,17.7z M22.5,28.2h-5.2
			c-0.3-1.5-0.5-3-0.6-4.6h5.8V28.2z M22.5,22.3h-5.8c0-1.6,0.2-3.1,0.6-4.6h5.2V22.3z M29.4,28.2h-5.5v-4.6h6.1
			C29.9,25.2,29.7,26.7,29.4,28.2z M23.8,22.3v-4.6h5.5c0.3,1.5,0.5,3,0.6,4.6H23.8z"/>
	</g>
	<path id="XMLID_113_" class="st3" d="M35.7,22.9c0-0.8-0.1-1.5-0.2-2.3c-3.3-1.1-7.1-0.7-10.1,1.3c-0.3,0.2-0.6,0.4-0.9,0.7
		c-0.3,0.2-0.6,0.5-0.9,0.8c-0.6,0.6-1.1,1.2-1.5,1.8c-0.4,0.6-0.8,1.3-1.1,2c-0.3,0.7-0.5,1.4-0.6,2.1c-0.4,2-0.2,4,0.4,6
		c0.7,0.1,1.5,0.2,2.2,0.2C30,35.5,35.7,29.9,35.7,22.9z"/>
	<g id="XMLID_95_" class="st7">
		
			<rect id="XMLID_94_" x="39.7" y="39.6" transform="matrix(0.7071 -0.7071 0.7071 0.7071 -17.159 41.1998)" class="st16" width="2.8" height="3.4"/>
		<circle id="XMLID_78_" class="st12" cx="32.6" cy="32.5" r="9.3"/>
		<circle id="XMLID_81_" class="st15" cx="32.6" cy="27.8" r="2"/>
		<circle id="XMLID_92_" class="st15" cx="36.1" cy="29.3" r="0.8"/>
		<path id="XMLID_1104_" class="st17" d="M24.8,24.7c-4.3,4.3-4.3,11.3,0,15.6c4.3,4.3,11.3,4.3,15.6,0c4.3-4.3,4.3-11.3,0-15.6
			C36.1,20.4,29.1,20.4,24.8,24.7z M38.1,38c-3,3-7.9,3-11,0c-3-3-3-7.9,0-11c3-3,7.9-3,11,0C41.1,30,41.1,34.9,38.1,38z"/>
		<path id="XMLID_99_" class="st18" d="M40.8,24.3c-4.5-4.5-11.8-4.5-16.3,0c-4.5,4.5-4.5,11.8,0,16.3c4.5,4.5,11.8,4.5,16.3,0
			C45.3,36.1,45.3,28.8,40.8,24.3z M39.4,39.3c-3.7,3.7-9.8,3.7-13.6,0c-3.7-3.7-3.7-9.8,0-13.6c3.7-3.7,9.8-3.7,13.6,0
			C43.2,29.4,43.2,35.5,39.4,39.3z"/>
		<path id="XMLID_93_" class="st14" d="M52.9,52.4L52.3,53c-0.9,0.9-2.2,0.9-3.1,0l-9.9-9.9l3.7-3.7l9.9,9.9
			C53.7,50.2,53.7,51.6,52.9,52.4z"/>
		<path id="XMLID_100_" class="st8" d="M39.3,43.1l9.6,9.6c1,1,2.5,1,3.5,0.2c0.1-0.1,0.1-0.2,0-0.3L41.2,41.3L39.3,43.1z"/>
	</g>
</g>
<g id="XMLID_127_" class="st0">
	<path id="XMLID_126_" class="st1" d="M50.5,48H13.5c-2,0-3.6-1.6-3.6-3.6V19.6c0-2,1.6-3.6,3.6-3.6h37.1c2,0,3.6,1.6,3.6,3.6v24.9
		C54.1,46.4,52.5,48,50.5,48z"/>
	<path id="XMLID_125_" class="st2" d="M9.9,23.2h44.3v-3.6c0-2-1.6-3.7-3.7-3.7h-37c-2,0-3.7,1.6-3.7,3.7V23.2z"/>
	<path id="XMLID_124_" class="st3" d="M50.5,16h-2c2,0,3.7,1.6,3.7,3.7v24.8c0,2-1.6,3.7-3.7,3.7h2c2,0,3.7-1.6,3.7-3.7V19.6
		C54.1,17.6,52.5,16,50.5,16z"/>
	<circle id="XMLID_123_" class="st4" cx="15.8" cy="19.8" r="0.8"/>
	<circle id="XMLID_122_" class="st4" cx="19" cy="19.8" r="0.8"/>
	<circle id="XMLID_121_" class="st4" cx="22.2" cy="19.8" r="0.8"/>
	<path id="XMLID_148_" class="st5" d="M13.8,35.3l-4,4v4.7c0,2.2,1.8,4,4,4h23.2l6.9-6.9l-0.7-5.8H13.8z"/>
	<g id="XMLID_132_" class="st7">
		<rect id="XMLID_106_" x="23" y="34.3" class="st13" width="22.1" height="3.2"/>
		<rect id="XMLID_130_" x="23" y="36.7" class="st8" width="22.1" height="0.8"/>
		<rect id="XMLID_115_" x="40.5" y="36.9" class="st8" width="3.3" height="4.2"/>
		<rect id="XMLID_119_" x="35.8" y="36.9" class="st8" width="3.3" height="3.2"/>
		<path id="XMLID_137_" class="st13" d="M16.4,33.6c-1.5,0-2.8,1.2-2.8,2.8c0,1.5,1.2,2.8,2.8,2.8s2.8-1.2,2.8-2.8
			C19.2,34.8,17.9,33.6,16.4,33.6z M16.4,37.4c-0.6,0-1-0.5-1-1c0-0.6,0.5-1,1-1c0.6,0,1,0.5,1,1C17.4,36.9,17,37.4,16.4,37.4z"/>
		<path id="XMLID_150_" class="st13" d="M21.1,35.2c-2.1,0-3.8,1.7-3.8,3.8c0,2.1,1.7,3.8,3.8,3.8s3.8-1.7,3.8-3.8
			C24.9,37,23.2,35.2,21.1,35.2z M21.1,41c-1.1,0-1.9-0.9-1.9-1.9c0-1.1,0.9-1.9,1.9-1.9c1.1,0,1.9,0.9,1.9,1.9
			C23,40.1,22.2,41,21.1,41z"/>
		<path id="XMLID_134_" class="st13" d="M21.1,29.2c-2.1,0-3.8,1.7-3.8,3.8s1.7,3.8,3.8,3.8s3.8-1.7,3.8-3.8S23.2,29.2,21.1,29.2z
			 M21.1,34.9c-1.1,0-1.9-0.9-1.9-1.9c0-1.1,0.9-1.9,1.9-1.9c1.1,0,1.9,0.9,1.9,1.9C23,34.1,22.2,34.9,21.1,34.9z"/>
	</g>
</g>
<g id="XMLID_152_" class="st0">
	<g id="XMLID_740_" class="st7">
		<path id="XMLID_750_" class="st10" d="M47.3,41.8h-0.7c1.3,0,2.3-1.1,2-2.4c-0.2-1-1.1-1.7-2.2-1.7h-5H37c0,0,1.2-3.8,1.2-5.8
			c0-0.4-0.1-1.9-0.2-2.6c-0.1-0.9-0.9-1.6-1.8-1.6l0,0c-0.9,0-1.7,0.7-1.8,1.5c-0.2,1.6-0.7,3.9-1.3,4.8c-0.6,0.8-2.9,3.8-2.9,3.8
			h-3.5L24.9,51h4.5c0.4,0,0.9,0.2,1.2,0.5l2.1,2.1c0.4,0.4,0.9,0.6,1.4,0.6H43c1,0,2-0.7,2.2-1.7c0.2-1.3-0.8-2.4-2-2.4h2
			c1,0,2-0.7,2.2-1.7c0.2-1.3-0.8-2.4-2-2.4h2.2c1.3,0,2.3-1.1,2-2.4C49.3,42.5,48.4,41.8,47.3,41.8z"/>
		<g id="XMLID_160_">
			<path id="XMLID_161_" class="st11" d="M36.9,29.2c0.1,0.8,0.2,2.2,0.2,2.6c0,2-1.2,5.8-1.2,5.8H37c0,0,1.2-3.8,1.2-5.8
				c0-0.4-0.1-1.9-0.2-2.6c-0.1-0.9-0.9-1.6-1.8-1.6c-0.2,0-0.4,0-0.5,0.1C36.3,27.9,36.9,28.5,36.9,29.2z"/>
		</g>
		<path id="XMLID_155_" class="st19" d="M26.5,38.8V51h2.8c0.2,0,0.5,0.1,0.7,0.1V37.7h-3.3L26.5,38.8z"/>
		<rect id="XMLID_743_" x="14.5" y="35.4" class="st13" width="13.8" height="17.6"/>
		<rect id="XMLID_151_" x="14.5" y="47.2" class="st8" width="13.8" height="5.8"/>
	</g>
	<path id="XMLID_159_" class="st2" d="M45.1,9.8H21.5c-1.1,0-1.9,0.9-1.9,1.9v12.8c0,1.1,0.9,1.9,1.9,1.9h16.4l4.9,4.6
		c0.3,0.2,0.7,0.1,0.7-0.3v-4.3h1.7c1.1,0,1.9-0.9,1.9-1.9V11.7C47,10.6,46.2,9.8,45.1,9.8z"/>
	<path id="XMLID_154_" class="st4" d="M42.5,13.8H23.7c-0.5,0-1-0.4-1-1v-0.2c0-0.5,0.4-1,1-1h18.8c0.5,0,1,0.4,1,1v0.2
		C43.4,13.4,43,13.8,42.5,13.8z"/>
	<path id="XMLID_156_" class="st4" d="M42.5,17.7H23.7c-0.5,0-1-0.4-1-1v-0.2c0-0.5,0.4-1,1-1h18.8c0.5,0,1,0.4,1,1v0.2
		C43.4,17.2,43,17.7,42.5,17.7z"/>
	<path id="XMLID_157_" class="st4" d="M42.5,21.5H31.4c-0.5,0-1-0.4-1-1v-0.2c0-0.5,0.4-1,1-1h11.1c0.5,0,1,0.4,1,1v0.2
		C43.4,21.1,43,21.5,42.5,21.5z"/>
</g>
<g id="XMLID_168_" class="st0">
	<g id="XMLID_143_" class="st7">
		<polygon id="XMLID_250_" class="st20" points="40.2,52.5 23.8,52.5 24.9,45.3 39.2,45.3 		"/>
		<polygon id="XMLID_153_" class="st21" points="24.9,45.3 24,50.7 39.8,49.5 39.2,45.3 		"/>
		<path id="XMLID_247_" class="st9" d="M51.1,22.9c0-0.4-0.3-0.7-0.7-0.7H13.6c-0.4,0-0.7,0.3-0.7,0.7v21.5c0,0.4,0.3,0.7,0.7,0.7
			h36.9c0.4,0,0.7-0.3,0.7-0.7V22.9z"/>
		<path id="XMLID_246_" class="st10" d="M51.1,43.8v2.9c0,1-0.8,1.9-1.9,1.9H14.7c-1,0-1.9-0.8-1.9-1.9v-2.9H51.1z"/>
		<rect id="XMLID_245_" x="14.5" y="23.8" class="st13" width="35" height="18.4"/>
		<path id="XMLID_242_" class="st10" d="M41.5,54H22.4c-0.4,0-0.8-0.4-0.8-0.8l0,0c0-0.4,0.4-0.8,0.8-0.8h19.1
			c0.4,0,0.8,0.4,0.8,0.8l0,0C42.3,53.7,41.9,54,41.5,54z"/>
	</g>
	<polygon id="XMLID_142_" class="st22" points="46,42.3 18,42.3 17.1,22.2 46.9,22.2 	"/>
	<g id="XMLID_141_" class="st7">
		<path id="XMLID_925_" class="st10" d="M46.2,42.3H17.9V11.1c0-0.6,0.5-1.2,1.2-1.2h26c0.6,0,1.2,0.5,1.2,1.2V42.3z"/>
		<path id="XMLID_924_" class="st12" d="M46.2,13.8v-2.9c0-0.5-0.4-1-1-1H18.9c-0.5,0-1,0.4-1,1v2.9H46.2z"/>
		<circle id="XMLID_910_" class="st15" cx="20.6" cy="11.6" r="0.4"/>
		<circle id="XMLID_139_" class="st15" cx="22.2" cy="11.6" r="0.4"/>
		<circle id="XMLID_140_" class="st15" cx="23.8" cy="11.6" r="0.4"/>
		<g id="XMLID_858_">
			<polygon id="XMLID_839_" class="st12" points="22.2,25.5 20.3,27.5 20.3,42.3 22.2,42.3 			"/>
			<polygon id="XMLID_841_" class="st12" points="25.3,22.4 23.4,24.2 23.4,42.3 25.3,42.3 			"/>
			<polygon id="XMLID_842_" class="st12" points="28.4,22.4 26.5,20.7 26.5,42.3 28.4,42.3 			"/>
			<polygon id="XMLID_843_" class="st12" points="31.5,22.9 30.6,23.9 29.6,23.2 29.6,42.3 31.5,42.3 			"/>
			<polygon id="XMLID_854_" class="st12" points="34.7,19.8 32.7,21.8 32.7,42.3 34.7,42.3 			"/>
			<polygon id="XMLID_855_" class="st12" points="37.8,20 35.9,18.5 35.9,42.3 37.8,42.3 			"/>
			<polygon id="XMLID_856_" class="st12" points="40.9,20.8 39,21.5 39,42.3 40.9,42.3 			"/>
			<polygon id="XMLID_857_" class="st12" points="44,17.5 42.1,19.3 42.1,42.3 44,42.3 			"/>
			<path id="XMLID_144_" class="st23" d="M40.2,21.1l0.7-0.2v0.7l-0.3,0.3c0,0.1,0.1,0.2,0.1,0.3c0,0.6-0.5,1.1-1.1,1.1
				c-0.2,0-0.4-0.1-0.5-0.2v-1.7l0.9-0.3c0.1,0,0.1,0,0.2,0.1L40.2,21.1z M35.9,20.1c0,0,0.1,0,0.1,0c0.2,0,0.4-0.1,0.6-0.2l1.2,1.2
				V20l-1.9-1.5V20.1z M30.3,23.6c-0.1,0-0.1,0-0.2,0.1l-0.5-0.5v2.2c0.2,0.3,0.5,0.4,0.9,0.4c0.5,0,0.9-0.4,1.1-0.9v-0.6
				c0-0.1-0.1-0.2-0.1-0.3l0.1-0.1v-1.2l-1,1L30.3,23.6z M42.1,19.3v1l1.9-1.9v-0.9L42.1,19.3z M23.4,25.5l1.9-1.9v-1.2l-1.9,1.9
				V25.5z M32.7,22.8l1.9-1.9v-1.1l-1.9,2V22.8z M20.3,27.5v1.2l1.9-1.9v-1.2l-0.8,0.8L20.3,27.5z M26.5,22.4L26.5,22.4
				c0.2,0,0.3,0.1,0.5,0.1c0.2,0,0.4-0.1,0.5-0.1l0.9,0.9v-0.8l-1.9-1.7V22.4z"/>
			<path id="XMLID_860_" class="st13" d="M46.2,14.5L40,20.8c-0.1-0.1-0.3-0.1-0.5-0.1c-0.2,0-0.3,0-0.5,0.1l-2-2c0-0.1,0-0.1,0-0.2
				c0-0.6-0.5-1.1-1.1-1.1s-1.1,0.5-1.1,1.1c0,0.2,0,0.3,0.1,0.4l-4.2,4.2c-0.1,0-0.2-0.1-0.2-0.1c-0.1,0-0.3,0-0.4,0.1l-2-2
				c0-0.1,0.1-0.2,0.1-0.3c0-0.6-0.5-1.1-1.1-1.1c-0.6,0-1.1,0.5-1.1,1.1c0,0.1,0,0.2,0.1,0.4l-8.1,8.1v1.2l8.6-8.7
				c0.1,0.1,0.3,0.1,0.5,0.1c0.2,0,0.4-0.1,0.5-0.1l1.9,1.9c-0.1,0.1-0.1,0.3-0.1,0.5c0,0.6,0.5,1.1,1.1,1.1c0.6,0,1.1-0.5,1.1-1.1
				c0-0.2-0.1-0.4-0.2-0.6l4.1-4.1c0.1,0.1,0.3,0.1,0.4,0.1c0.2,0,0.4-0.1,0.6-0.2l1.9,1.9c0,0.1-0.1,0.2-0.1,0.4
				c0,0.6,0.5,1.1,1.1,1.1c0.6,0,1.1-0.5,1.1-1.1c0-0.1,0-0.2-0.1-0.3l5.7-5.7V14.5z"/>
		</g>
	</g>
</g>
<g id="XMLID_158_">
	<g id="XMLID_190_">
		<path id="XMLID_198_" class="st10" d="M50.3,42.6H13.7c-2,0-3.6-1.6-3.6-3.6V14.5c0-2,1.6-3.6,3.6-3.6h36.6c2,0,3.6,1.6,3.6,3.6
			V39C53.9,41,52.3,42.6,50.3,42.6z"/>
		<path id="XMLID_197_" class="st12" d="M10.1,18h43.8v-3.5c0-2-1.6-3.6-3.6-3.6H13.7c-2,0-3.6,1.6-3.6,3.6V18z"/>
		<path id="XMLID_196_" class="st24" d="M50.3,10.9h-2c2,0,3.6,1.6,3.6,3.6V39c0,2-1.6,3.6-3.6,3.6h2c2,0,3.6-1.6,3.6-3.6V14.5
			C53.9,12.5,52.3,10.9,50.3,10.9z"/>
		<circle id="XMLID_195_" class="st15" cx="15.9" cy="14.7" r="0.8"/>
		<circle id="XMLID_194_" class="st15" cx="19.1" cy="14.7" r="0.8"/>
		<circle id="XMLID_193_" class="st15" cx="22.3" cy="14.7" r="0.8"/>
	</g>
	<path id="XMLID_162_" class="st24" d="M43.3,28.2l0.5,0.5c0.2,0.2,0.6,0.2,0.8,0l0.4-0.4c0.2-0.2,0.2-0.6,0-0.8l-2-2
		c-0.2-0.2-0.6-0.2-0.8,0l-0.4,0.4c-0.2,0.2-0.2,0.6,0,0.8l0.5,0.5l-0.6,0.6c-2.2-2-5-3.3-8.1-3.5v-1h0.8h0.9h0v-2.7h0h-0.9h-0.9
		h-0.9h-0.9h-0.9h-0.9h-0.9v2.7h0.9h0.9H31v1c-3.1,0.3-5.9,1.6-8,3.6l-0.6-0.6l0.5-0.5c0.2-0.2,0.2-0.6,0-0.8l-0.4-0.4
		c-0.2-0.2-0.6-0.2-0.8,0l-2,2c-0.2,0.2-0.2,0.6,0,0.8l0.4,0.4c0.2,0.2,0.6,0.2,0.8,0l0.5-0.5l0.6,0.6c-2.2,2.5-3.6,5.7-3.6,9.3
		c0,1.6,0.3,3,0.7,4.4h26.5c0.5-1.4,0.7-2.9,0.7-4.4c0-3.6-1.4-6.9-3.6-9.3L43.3,28.2z"/>
	<g id="XMLID_191_">
		
			<rect id="XMLID_241_" x="21.6" y="28.1" transform="matrix(0.7071 -0.7071 0.7071 0.7071 -14.1692 24.3835)" class="st25" width="1.5" height="2.4"/>
		<g id="XMLID_239_">
			<path id="XMLID_240_" class="st12" d="M22.8,27.7l-2,2c-0.2,0.2-0.6,0.2-0.8,0l-0.4-0.4c-0.2-0.2-0.2-0.6,0-0.8l2-2
				c0.2-0.2,0.6-0.2,0.8,0l0.4,0.4C23,27.1,23,27.5,22.8,27.7z"/>
		</g>
		
			<rect id="XMLID_238_" x="41.4" y="28.1" transform="matrix(-0.7071 -0.7071 0.7071 -0.7071 51.2262 79.8119)" class="st25" width="1.5" height="2.4"/>
		<g id="XMLID_236_">
			<path id="XMLID_237_" class="st12" d="M41.7,27.7l2,2c0.2,0.2,0.6,0.2,0.8,0l0.4-0.4c0.2-0.2,0.2-0.6,0-0.8l-2-2
				c-0.2-0.2-0.6-0.2-0.8,0l-0.4,0.4C41.5,27.1,41.5,27.5,41.7,27.7z"/>
		</g>
		<rect id="XMLID_235_" x="31" y="23.4" class="st25" width="2.5" height="2.4"/>
		<circle id="XMLID_234_" class="st12" cx="32.3" cy="39.2" r="14"/>
		<circle id="XMLID_233_" class="st26" cx="32.3" cy="39.2" r="11.2"/>
		<circle id="XMLID_232_" class="st15" cx="32.3" cy="39.2" r="9.7"/>
		<circle id="XMLID_231_" class="st10" cx="32.3" cy="39.2" r="7"/>
		<path id="XMLID_201_" class="st13" d="M32.3,29.5v9.7H42C42,33.8,37.7,29.5,32.3,29.5z"/>
		<g id="XMLID_224_">
			<rect id="XMLID_229_" x="29.1" y="21.5" class="st12" width="6.1" height="2.7"/>
			<rect id="XMLID_228_" x="29.1" y="21.5" class="st26" width="0.9" height="2.7"/>
			<rect id="XMLID_227_" x="30.8" y="21.5" class="st26" width="0.9" height="2.7"/>
			<rect id="XMLID_226_" x="32.6" y="21.5" class="st26" width="0.9" height="2.7"/>
			<rect id="XMLID_225_" x="34.3" y="21.5" class="st26" width="0.9" height="2.7"/>
		</g>
		<rect id="XMLID_223_" x="32.1" y="29.9" class="st12" width="0.4" height="1.5"/>
		<rect id="XMLID_217_" x="39.9" y="39.2" class="st12" width="1.5" height="0.4"/>
		<rect id="XMLID_211_" x="31.8" y="46.9" class="st12" width="0.4" height="1.5"/>
		<rect id="XMLID_205_" x="22.9" y="38.7" class="st12" width="1.5" height="0.4"/>
		<polygon id="XMLID_199_" class="st12" points="39.1,32.5 30.2,42 29.4,41.2 38.9,32.3 		"/>
		<circle id="XMLID_192_" class="st12" cx="32.2" cy="39.2" r="1"/>
		<g id="XMLID_204_" class="st27">
			<path id="XMLID_206_" class="st15" d="M32.3,29.5c-2.1,0-4.1,0.7-5.7,1.8l13.6,13.6c1.2-1.6,1.8-3.6,1.8-5.7c0-0.1,0-0.2,0-0.3
				l-9.4-9.4C32.5,29.5,32.4,29.5,32.3,29.5z"/>
			<path id="XMLID_207_" class="st15" d="M25.5,32.2c-0.6,0.5-1.1,1.2-1.5,1.8l13.4,13.4c0.7-0.4,1.3-0.9,1.8-1.5L25.5,32.2z"/>
		</g>
	</g>
</g>
<g id="XMLID_167_" class="st0">
	<path id="XMLID_163_" class="st2" d="M28.5,20.4L28.5,20.4c0-1.2-1-2.1-2.1-2.1h-9c-0.7,0-1.3-0.6-1.3-1.3l0,0
		c0-0.7,0.6-1.3,1.3-1.3h2.7c0.7,0,1.2-0.6,1.2-1.2l0,0c0-0.7-0.6-1.2-1.2-1.2H12c-0.7,0-1.3-0.6-1.3-1.3l0,0c0-0.7,0.6-1.3,1.3-1.3
		h34.6c0.7,0,1.3,0.6,1.3,1.3l0,0c0,0.7-0.6,1.3-1.3,1.3h-4.6c-0.7,0-1.2,0.6-1.2,1.2l0,0c0,0.7,0.6,1.2,1.2,1.2h9
		c0.7,0,1.3,0.6,1.3,1.3l0,0c0,0.7-0.6,1.3-1.3,1.3H37.7c-1.2,0-2.1,1-2.1,2.1l0,0H28.5z"/>
	<g id="XMLID_608_" class="st7">
		<path id="XMLID_621_" class="st28" d="M36.1,28.4v-4.7h1.4c0.5,0,0.9-0.4,0.9-0.9v-2.1c0-0.5-0.4-0.9-0.9-0.9H27.2
			c-0.5,0-0.9,0.4-0.9,0.9v2.1c0,0.5,0.4,0.9,0.9,0.9h1.4v4.7c-5.7,1.8-9.7,7.4-8.9,13.8c0.7,5.8,5.4,10.4,11.2,11.1
			c7.7,0.9,14.3-5.2,14.3-12.7C45.1,34.9,41.3,30,36.1,28.4z"/>
		<circle id="XMLID_620_" class="st12" cx="32.3" cy="40.7" r="10.3"/>
		<path id="XMLID_189_" class="st29" d="M32.3,31.8c-4.9,0-8.9,4-8.9,8.9c0,4.9,4,8.9,8.9,8.9c4.9,0,8.9-4,8.9-8.9
			C41.1,35.8,37.2,31.8,32.3,31.8z M24.7,41.3H27c0,0.9,0.1,1.8,0.3,2.6h-1.8C25.1,43.2,24.8,42.3,24.7,41.3z M32.9,36.2v-3
			c0.6,0.1,1.2,0.2,1.8,0.4c0.5,0.8,0.8,1.7,1.1,2.6H32.9z M36.2,37.4c0.2,0.8,0.3,1.7,0.3,2.6h-3.6v-2.6H36.2z M31.6,36.2h-2.7
			c0.3-1,0.7-1.9,1.2-2.7c0.5-0.2,1-0.2,1.5-0.3V36.2z M31.6,37.4v2.6h-3.4c0-0.9,0.1-1.8,0.3-2.6H31.6z M27,40.1h-2.2
			c0.1-0.9,0.3-1.8,0.7-2.6h1.8C27.1,38.3,27,39.2,27,40.1z M28.3,41.3h3.4V44h-3.1C28.4,43.1,28.3,42.2,28.3,41.3z M31.6,45.3v3
			c-0.5,0-1-0.1-1.5-0.3c-0.5-0.8-0.9-1.7-1.2-2.7H31.6z M32.9,45.3h2.9c-0.3,0.9-0.7,1.8-1.2,2.6c-0.6,0.2-1.2,0.3-1.8,0.4V45.3z
			 M32.9,44v-2.6h3.6c0,0.9-0.1,1.8-0.3,2.6H32.9z M37.8,41.3h2c-0.1,0.9-0.3,1.8-0.7,2.6h-1.6C37.7,43.1,37.8,42.2,37.8,41.3z
			 M37.8,40.1c0-0.9-0.1-1.8-0.3-2.6h1.6c0.4,0.8,0.6,1.7,0.7,2.6H37.8z M38.3,36.2h-1.1c-0.2-0.6-0.3-1.1-0.6-1.6
			C37.3,35,37.8,35.5,38.3,36.2z M28.2,34.3c-0.2,0.6-0.5,1.2-0.6,1.8h-1.3C26.8,35.4,27.4,34.8,28.2,34.3z M26.2,45.3h1.3
			c0.2,0.6,0.4,1.3,0.7,1.8C27.5,46.6,26.8,46,26.2,45.3z M36.6,46.9c0.2-0.5,0.4-1.1,0.6-1.7h1.1C37.8,45.9,37.3,46.4,36.6,46.9z"
			/>
		<path id="XMLID_165_" class="st30" d="M36.3,22.5v-1.8c0-0.2-0.1-0.4-0.2-0.6h-9.7c-0.1,0.2-0.2,0.3-0.2,0.5v2.1
			c0,0.5,0.3,0.8,0.7,0.9h8.2C35.8,23.7,36.3,23.2,36.3,22.5z"/>
	</g>
	<path id="XMLID_164_" class="st2" d="M52.2,13h-1.8c-0.7,0-1.2-0.5-1.2-1.2l0,0c0-0.7,0.5-1.2,1.2-1.2h1.8c0.7,0,1.2,0.5,1.2,1.2
		l0,0C53.4,12.5,52.8,13,52.2,13z"/>
	<path id="XMLID_166_" class="st2" d="M13.6,18.4h-1.8c-0.7,0-1.2-0.5-1.2-1.2l0,0c0-0.7,0.5-1.2,1.2-1.2h1.8c0.7,0,1.2,0.5,1.2,1.2
		l0,0C14.9,17.8,14.3,18.4,13.6,18.4z"/>
</g>
<g id="XMLID_230_" class="st0">
	<path id="XMLID_264_" class="st1" d="M41.2,53.6H14.4c-2,0-3.6-1.6-3.6-3.6V23c0-2,1.6-3.6,3.6-3.6h26.8c2,0,3.6,1.6,3.6,3.6v26.9
		C44.9,51.9,43.2,53.6,41.2,53.6z"/>
	<path id="XMLID_263_" class="st2" d="M10.8,24.9h34v-2.7c0-1.6-1.3-2.8-2.8-2.8H13.6c-1.6,0-2.8,1.3-2.8,2.8V24.9z"/>
	<path id="XMLID_262_" class="st3" d="M42,19.4h-1.6c1.6,0,2.8,1.3,2.8,2.8v28.6c0,1.6-1.3,2.8-2.8,2.8H42c1.6,0,2.8-1.3,2.8-2.8
		V22.2C44.9,20.6,43.6,19.4,42,19.4z"/>
	<circle id="XMLID_258_" class="st4" cx="15.4" cy="22.4" r="0.6"/>
	<circle id="XMLID_257_" class="st4" cx="17.9" cy="22.4" r="0.6"/>
	<circle id="XMLID_256_" class="st4" cx="20.3" cy="22.4" r="0.6"/>
	<path id="XMLID_248_" class="st5" d="M10.8,43.9v6.2c0,1.9,1.5,3.4,3.4,3.4H22l7.6-6.9l-7.4-13.9L10.8,43.9z"/>
	<path id="XMLID_261_" class="st6" d="M34.3,40.2l1.8,0c0.4,0,0.7-0.3,0.7-0.7l0-2.3c0-0.4-0.3-0.7-0.7-0.7l-1.4,0
		c-0.2,0-0.4-0.1-0.5-0.4c0-0.1-0.1-0.3-0.2-0.4c-0.1-0.2-0.1-0.5,0.1-0.6l1-1c0.3-0.3,0.3-0.7,0-0.9l-1.6-1.6
		c-0.3-0.3-0.7-0.3-0.9,0l-1,1c-0.2,0.2-0.4,0.2-0.6,0.1c-0.1-0.1-0.3-0.1-0.4-0.2c-0.2-0.1-0.3-0.3-0.3-0.5v-1.4
		c0-0.4-0.3-0.7-0.7-0.7h-2.3c-0.4,0-0.7,0.3-0.7,0.7v1.4c0,0.2-0.1,0.4-0.4,0.5c-0.1,0.1-0.3,0.1-0.4,0.2c-0.2,0.1-0.5,0.1-0.6-0.1
		l-1-1c-0.3-0.3-0.7-0.3-0.9,0l-1.6,1.6c-0.3,0.3-0.3,0.7,0,0.9l1,1c0.2,0.2,0.2,0.4,0.1,0.6c-0.1,0.1-0.1,0.3-0.2,0.4
		c-0.1,0.2-0.3,0.3-0.5,0.3l-1.4,0c-0.4,0-0.7,0.3-0.7,0.7l0,2.3c0,0.4,0.3,0.7,0.7,0.7l1.4,0c0.2,0,0.4,0.1,0.5,0.4
		c0,0.1,0.1,0.3,0.2,0.4c0.1,0.2,0.1,0.5-0.1,0.6l-1,1c-0.3,0.3-0.3,0.7,0,0.9l1.6,1.6c0.3,0.3,0.7,0.3,0.9,0l1-1
		c0.2-0.2,0.4-0.2,0.6-0.1c0.1,0.1,0.3,0.1,0.4,0.2c0.2,0.1,0.3,0.3,0.3,0.5l0,1.4c0,0.4,0.3,0.7,0.7,0.7l2.3,0
		c0.4,0,0.7-0.3,0.7-0.7l0-1.4c0-0.2,0.1-0.4,0.4-0.5c0.1,0,0.3-0.1,0.4-0.2c0.2-0.1,0.5-0.1,0.6,0.1l1,1c0.3,0.3,0.7,0.3,0.9,0
		l1.6-1.6c0.3-0.3,0.3-0.7,0-0.9l-1-1C34,41.4,33.9,41.2,34,41C34.1,40.6,34.3,40.2,34.3,40.2z M25.2,37.8c0.4-2,2.5-3.1,4.3-2.4
		c1.4,0.5,2.3,2.1,2,3.6c-0.4,2-2.5,3.1-4.3,2.4C25.8,40.9,25,39.3,25.2,37.8z"/>
	<path id="XMLID_253_" class="st3" d="M44.9,23c0-2-1.6-3.6-3.6-3.6H23.9c-0.3,0.6-0.4,1.4-0.4,2.1c0,3.1,2.5,5.6,5.6,5.6
		c0.2,0,0.4,0,0.6,0c0.1,0,0.2,0,0.4,0h14.8V23z"/>
	<g id="XMLID_180_" class="st7">
		<path id="XMLID_244_" class="st13" d="M48.6,16.9c-0.5,0-1,0.1-1.4,0.2c-0.4-3.8-3.5-6.7-7.4-6.7c-3.3,0-6.1,2.1-7,5.1
			c-0.8-0.4-1.7-0.7-2.7-0.7c-3.1,0-5.6,2.5-5.6,5.6s2.5,5.6,5.6,5.6c0.2,0,0.4,0,0.6,0c0.1,0,0.2,0,0.4,0h16.6c0.1,0,0.2,0,0.3,0
			c0.2,0,0.4,0,0.5,0c2.5,0,4.6-2.1,4.6-4.6C53.2,19,51.1,16.9,48.6,16.9z"/>
	</g>
</g>
<g id="XMLID_255_" class="st0">
	<g id="XMLID_266_" class="st7">
		<path id="XMLID_267_" class="st12" d="M42.5,35.9c-1.1,0-2-0.9-2-2V22.8c0-4.7-3.8-8.5-8.5-8.5s-8.5,3.8-8.5,8.5v11.2
			c0,1.1-0.9,2-2,2s-2-0.9-2-2V22.8c0-6.9,5.6-12.5,12.5-12.5s12.5,5.6,12.5,12.5v11.2C44.5,35,43.7,35.9,42.5,35.9z"/>
	</g>
	<path id="XMLID_276_" class="st31" d="M32,10.2c-6.9,0-12.5,5.6-12.5,12.5v11.2c0,1.1,0.9,2,2,2c1,0,1.8-0.7,2-1.7
		c-0.2,0.1-0.4,0.1-0.7,0.1c-1,0-1.8-0.8-1.8-1.8v-9.8c0-6.1,4.9-11,11-11s11,4.9,11,11v9.8c0,1-0.8,1.8-1.8,1.8
		c-0.2,0-0.5,0-0.7-0.1c0.1,1,1,1.7,2,1.7c1.1,0,2-0.9,2-2V22.8C44.5,15.8,38.9,10.2,32,10.2z"/>
	<circle id="XMLID_243_" class="st32" cx="32" cy="37.9" r="15.9"/>
	<circle id="XMLID_249_" class="st6" cx="32" cy="37.9" r="10.9"/>
	<g id="XMLID_254_" class="st7">
		<circle id="XMLID_251_" class="st17" cx="32" cy="35.8" r="3.3"/>
		<polygon id="XMLID_252_" class="st17" points="34.8,43.4 29.2,43.4 30,35.8 34,35.8 		"/>
	</g>
</g>
<g id="XMLID_291_" class="st0">
	<path id="XMLID_265_" class="st33" d="M31,18.7h-4.7c-0.7,0-1.3-0.6-1.3-1.3l0,0c0-0.7,0.6-1.3,1.3-1.3H31c0.7,0,1.3,0.6,1.3,1.3
		l0,0C32.3,18.1,31.7,18.7,31,18.7z"/>
	<path id="XMLID_288_" class="st33" d="M28.5,24H11.2c-0.7,0-1.3-0.6-1.3-1.3l0,0c0-0.7,0.6-1.3,1.3-1.3h17.3c0.7,0,1.3,0.6,1.3,1.3
		l0,0C29.9,23.4,29.3,24,28.5,24z"/>
	<path id="XMLID_289_" class="st33" d="M30.2,29.2H11.3c-0.7,0-1.3-0.6-1.3-1.3l0,0c0-0.7,0.6-1.3,1.3-1.3h18.9
		c0.7,0,1.3,0.6,1.3,1.3l0,0C31.5,28.6,30.9,29.2,30.2,29.2z"/>
	<path id="XMLID_290_" class="st33" d="M37.2,34.5H11.4c-0.7,0-1.3-0.6-1.3-1.3l0,0c0-0.7,0.6-1.3,1.3-1.3h25.8
		c0.7,0,1.3,0.6,1.3,1.3l0,0C38.6,33.9,38,34.5,37.2,34.5z"/>
	<g id="XMLID_268_" class="st7">
		<rect id="XMLID_287_" x="39.7" y="34.3" class="st16" width="3.1" height="3.7"/>
		<circle id="XMLID_284_" class="st12" cx="41.5" cy="22.7" r="10.3"/>
		<circle id="XMLID_283_" class="st15" cx="45.1" cy="19.1" r="2.2"/>
		<circle id="XMLID_280_" class="st15" cx="46.7" cy="23" r="0.8"/>
		<path id="XMLID_277_" class="st17" d="M41.5,10.6c-6.7,0-12.1,5.4-12.1,12.1c0,6.7,5.4,12.1,12.1,12.1c6.7,0,12.1-5.4,12.1-12.1
			C53.6,16,48.2,10.6,41.5,10.6z M41.5,31.2c-4.7,0-8.5-3.8-8.5-8.5c0-4.7,3.8-8.5,8.5-8.5c4.7,0,8.5,3.8,8.5,8.5
			C50,27.4,46.2,31.2,41.5,31.2z"/>
		<path id="XMLID_272_" class="st18" d="M54.1,22.7c0-7-5.7-12.6-12.7-12.6c-7,0-12.6,5.7-12.6,12.7c0,7,5.7,12.6,12.7,12.6
			C48.5,35.4,54.1,29.7,54.1,22.7z M41.5,33.3c-5.8,0-10.6-4.7-10.6-10.5c0-5.8,4.7-10.6,10.5-10.6c5.8,0,10.6,4.7,10.6,10.5
			C52,28.5,47.3,33.3,41.5,33.3z"/>
		<path id="XMLID_270_" class="st14" d="M41.3,53.9L41.3,53.9c-1.6,0-2.9-1.3-2.9-2.9l0-14.9l5.7,0l0,14.9
			C44.1,52.7,42.8,53.9,41.3,53.9z"/>
		<path id="XMLID_269_" class="st8" d="M38.4,36.2l0,14.9c0,1.1,0.6,2,1.5,2.5c0.6,0.3,1.3-0.1,1.3-0.8l0-16.6L38.4,36.2z"/>
	</g>
	<g id="XMLID_292_" class="st7">
		<path id="XMLID_293_" class="st12" d="M16.2,18.4l-0.7-1.6h-3.1l-0.7,1.6h-1.7l3.2-7.3h1.6l3.2,7.3H16.2z M14,13.3l-0.9,2.1h1.8
			L14,13.3z"/>
		<path id="XMLID_296_" class="st12" d="M23.4,18.4h-1.5v-0.7c-0.4,0.5-0.9,0.8-1.5,0.8c-0.6,0-1.1-0.2-1.5-0.5
			c-0.4-0.3-0.6-0.8-0.6-1.4c0-0.6,0.2-1,0.6-1.3c0.4-0.3,1-0.4,1.7-0.4h1.2v0c0-0.6-0.3-0.9-1-0.9c-0.3,0-0.6,0.1-0.9,0.2
			c-0.3,0.1-0.6,0.2-0.8,0.4l-0.7-1c0.7-0.5,1.6-0.8,2.5-0.8c0.7,0,1.2,0.2,1.7,0.5c0.4,0.3,0.6,0.9,0.6,1.6V18.4z M21.8,16.3V16h-1
			c-0.6,0-0.9,0.2-0.9,0.6c0,0.2,0.1,0.4,0.2,0.5c0.1,0.1,0.4,0.2,0.6,0.2c0.3,0,0.5-0.1,0.7-0.3C21.7,16.8,21.8,16.6,21.8,16.3z"/>
	</g>
</g>
<g id="XMLID_299_" class="st0">
	<g id="XMLID_309_" class="st7">
		<path id="XMLID_326_" class="st9" d="M51.1,50.8H12.9V28.1c0-0.7,0.6-1.3,1.3-1.3h35.6c0.7,0,1.3,0.6,1.3,1.3V50.8z"/>
		<rect id="XMLID_325_" x="14.9" y="29" class="st13" width="34.2" height="19.9"/>
		<path id="XMLID_324_" class="st11" d="M53.3,51.9H10.7l0,0c1.2,1.2,2.9,1.9,4.6,1.9h33.4C50.4,53.8,52.1,53.1,53.3,51.9L53.3,51.9
			z"/>
		<rect id="XMLID_323_" x="10.7" y="50.7" class="st10" width="42.6" height="1.2"/>
		<path id="XMLID_322_" class="st11" d="M34.6,51.6h-5.3c-0.2,0-0.3-0.1-0.3-0.3l0,0c0-0.2,0.1-0.3,0.3-0.3h5.3
			c0.2,0,0.3,0.1,0.3,0.3l0,0C35,51.5,34.8,51.6,34.6,51.6z"/>
	</g>
	<path id="XMLID_315_" class="st34" d="M35.2,27.5c-0.4,2-2.5,3.1-4.3,2.4c-1.2-0.5-2.1-1.7-2.1-3h-5.1l0,1.2c0,0.4,0.3,0.7,0.7,0.7
		l1.4,0c0.2,0,0.4,0.1,0.5,0.4c0,0.1,0.1,0.3,0.2,0.4c0.1,0.2,0.1,0.5-0.1,0.6l-1,1c-0.3,0.3-0.3,0.7,0,0.9l1.6,1.6
		c0.3,0.3,0.7,0.3,0.9,0l1-1c0.2-0.2,0.4-0.2,0.6-0.1c0.1,0.1,0.3,0.1,0.4,0.2c0.2,0.1,0.3,0.3,0.3,0.5l0,1.4c0,0.4,0.3,0.7,0.7,0.7
		l2.3,0c0.4,0,0.7-0.3,0.7-0.7l0-1.4c0-0.2,0.1-0.4,0.4-0.5c0.1,0,0.3-0.1,0.4-0.2c0.2-0.1,0.5-0.1,0.6,0.1l1,1
		c0.3,0.3,0.7,0.3,0.9,0l1.6-1.6c0.3-0.3,0.3-0.7,0-0.9l-1-1c-0.2-0.2-0.2-0.4-0.1-0.6c0.1-0.3,0.3-0.7,0.3-0.8l1.8,0
		c0.4,0,0.7-0.3,0.7-0.7l0-1.1h-5.1C35.2,27.1,35.2,27.3,35.2,27.5z"/>
	<path id="XMLID_303_" class="st2" d="M37.9,27.7l1.8,0c0.4,0,0.7-0.3,0.7-0.7l0-2.3c0-0.4-0.3-0.7-0.7-0.7l-1.4,0
		c-0.2,0-0.4-0.1-0.5-0.4c0-0.1-0.1-0.3-0.2-0.4c-0.1-0.2-0.1-0.5,0.1-0.6l1-1c0.3-0.3,0.3-0.7,0-0.9l-1.6-1.6
		c-0.3-0.3-0.7-0.3-0.9,0l-1,1c-0.2,0.2-0.4,0.2-0.6,0.1c-0.1-0.1-0.3-0.1-0.4-0.2c-0.2-0.1-0.3-0.3-0.3-0.5v-1.4
		c0-0.4-0.3-0.7-0.7-0.7h-2.3c-0.4,0-0.7,0.3-0.7,0.7v1.4c0,0.2-0.1,0.4-0.4,0.5c-0.1,0.1-0.3,0.1-0.4,0.2c-0.2,0.1-0.5,0.1-0.6-0.1
		l-1-1c-0.3-0.3-0.7-0.3-0.9,0l-1.6,1.6c-0.3,0.3-0.3,0.7,0,0.9l1,1c0.2,0.2,0.2,0.4,0.1,0.6c-0.1,0.1-0.1,0.3-0.2,0.4
		c-0.1,0.2-0.3,0.3-0.5,0.3l-1.4,0c-0.4,0-0.7,0.3-0.7,0.7l0,2.3c0,0.4,0.3,0.7,0.7,0.7l1.4,0c0.2,0,0.4,0.1,0.5,0.4
		c0,0.1,0.1,0.3,0.2,0.4c0.1,0.2,0.1,0.5-0.1,0.6l-1,1c-0.3,0.3-0.3,0.7,0,0.9l1.6,1.6c0.3,0.3,0.7,0.3,0.9,0l1-1
		c0.2-0.2,0.4-0.2,0.6-0.1c0.1,0.1,0.3,0.1,0.4,0.2c0.2,0.1,0.3,0.3,0.3,0.5l0,1.4c0,0.4,0.3,0.7,0.7,0.7l2.3,0
		c0.4,0,0.7-0.3,0.7-0.7l0-1.4c0-0.2,0.1-0.4,0.4-0.5c0.1,0,0.3-0.1,0.4-0.2c0.2-0.1,0.5-0.1,0.6,0.1l1,1c0.3,0.3,0.7,0.3,0.9,0
		l1.6-1.6c0.3-0.3,0.3-0.7,0-0.9l-1-1c-0.2-0.2-0.2-0.4-0.1-0.6C37.7,28.1,37.9,27.7,37.9,27.7z M28.8,25.3c0.4-2,2.5-3.1,4.3-2.4
		c1.4,0.5,2.3,2.1,2,3.6c-0.4,2-2.5,3.1-4.3,2.4C29.4,28.3,28.6,26.8,28.8,25.3z"/>
	<path id="XMLID_312_" class="st34" d="M40.3,24.7c0-0.4-0.3-0.7-0.7-0.7l-1.4,0c-0.2,0-0.4-0.1-0.5-0.4c0-0.1-0.1-0.3-0.2-0.4
		c-0.1-0.2-0.1-0.5,0.1-0.6l1-1c0.3-0.3,0.3-0.7,0-0.9l-1.6-1.6c-0.3-0.3-0.7-0.3-0.9,0l-1,1c-0.2,0.2-0.4,0.2-0.6,0.1
		c-0.1-0.1-0.3-0.1-0.4-0.2c-0.2-0.1-0.3-0.3-0.3-0.5v-1.4c0-0.4-0.3-0.7-0.7-0.7h-2.3c-0.4,0-0.7,0.3-0.7,0.7v1.4
		c0,0.2-0.1,0.4-0.4,0.5c-0.1,0.1-0.3,0.1-0.4,0.2c-0.2,0.1-0.5,0.1-0.6-0.1l-1-1c-0.3-0.3-0.7-0.3-0.9,0l-1.6,1.6
		c-0.3,0.3-0.3,0.7,0,0.9l1,1c0.2,0.2,0.2,0.4,0.1,0.6c-0.1,0.1-0.1,0.3-0.2,0.4c-0.1,0.2-0.3,0.3-0.5,0.3l-1.4,0
		c-0.4,0-0.7,0.3-0.7,0.7l0,2.1h4.2c0.1,0,0.2,0,0.3,0c0.2,0,0.3,0,0.5,0c0.1,0,0.2,0,0.3,0c-0.2-0.5-0.2-1-0.1-1.5
		c0.4-2,2.5-3.1,4.3-2.4c1.4,0.5,2.3,2.1,2,3.6c0,0.1-0.1,0.3-0.1,0.4h5.3L40.3,24.7z"/>
	<g id="XMLID_302_" class="st7">
		<path id="XMLID_306_" class="st13" d="M14.6,18.9c0.4,0,0.7,0.1,1.1,0.2c0.3-2.8,2.7-5.1,5.6-5.1c2.5,0,4.6,1.6,5.3,3.9
			c0.6-0.3,1.3-0.5,2-0.5c2.4,0,4.3,1.9,4.3,4.3s-1.9,4.3-4.3,4.3c-0.2,0-0.3,0-0.5,0c-0.1,0-0.2,0-0.3,0H15.3c-0.1,0-0.2,0-0.2,0
			c-0.1,0-0.3,0-0.4,0c-1.9,0-3.5-1.6-3.5-3.5S12.7,18.9,14.6,18.9z"/>
	</g>
	<path id="XMLID_314_" class="st35" d="M32.9,21.6c0-2.4-1.9-4.3-4.3-4.3c-0.7,0-1.4,0.2-2,0.5c-0.3-0.9-0.8-1.7-1.5-2.3
		c-1.5,1-2.5,2.7-2.5,4.7c0,3,2.4,5.5,5.4,5.6c0,0,0.1,0,0.1,0c0.1,0,0.2,0,0.3,0c0.1,0,0.3,0,0.4,0c0,0,0,0,0.1,0
		C31.2,25.7,32.9,23.9,32.9,21.6z"/>
	<g id="XMLID_300_" class="st7">
		<path id="XMLID_301_" class="st13" d="M48.3,16.7c-0.5,0-1,0.1-1.4,0.2c-0.4-3.8-3.5-6.7-7.4-6.7c-3.3,0-6.1,2.1-7,5.1
			c-0.8-0.4-1.7-0.7-2.7-0.7c-3.1,0-5.6,2.5-5.6,5.6s2.5,5.6,5.6,5.6c0.2,0,0.4,0,0.6,0c0.1,0,0.2,0,0.4,0h16.6c0.1,0,0.2,0,0.3,0
			c0.2,0,0.4,0,0.5,0c2.5,0,4.6-2.1,4.6-4.6C52.9,18.7,50.8,16.7,48.3,16.7z"/>
	</g>
</g>
<g id="XMLID_307_" class="st0">
	<g id="XMLID_317_" class="st7">
		<path id="XMLID_347_" class="st10" d="M48.9,51.5H15.1V11.8c0-0.6,0.5-1.2,1.2-1.2h31.5c0.6,0,1.2,0.5,1.2,1.2V51.5z"/>
		<path id="XMLID_346_" class="st12" d="M48.9,15.8v-3.9c0-0.6-0.5-1.2-1.2-1.2H16.2c-0.6,0-1.2,0.5-1.2,1.2v3.9H48.9z"/>
		<rect id="XMLID_345_" x="19.9" y="16.7" class="st11" width="24.3" height="10.3"/>
		<path id="XMLID_316_" class="st11" d="M43.2,29H21c-0.6,0-1,0.5-1,1l0,0c0,0.6,0.5,1,1,1h22.3c0.6,0,1-0.5,1-1l0,0
			C44.3,29.5,43.8,29,43.2,29z"/>
		<path id="XMLID_318_" class="st11" d="M43.3,33.4H21c-0.6,0-1,0.5-1,1l0,0c0,0.6,0.5,1,1,1h22.3c0.6,0,1-0.5,1-1l0,0
			C44.3,33.8,43.9,33.4,43.3,33.4z"/>
		<path id="XMLID_320_" class="st11" d="M43.4,37.7H21.1c-0.6,0-1,0.5-1,1l0,0c0,0.6,0.5,1,1,1h22.3c0.6,0,1-0.5,1-1l0,0
			C44.4,38.2,44,37.7,43.4,37.7z"/>
		<path id="XMLID_334_" class="st11" d="M43.5,42.1H21.2c-0.6,0-1,0.5-1,1l0,0c0,0.6,0.5,1,1,1h22.3c0.6,0,1-0.5,1-1l0,0
			C44.5,42.5,44,42.1,43.5,42.1z"/>
		<circle id="XMLID_331_" class="st15" cx="18.4" cy="13.2" r="0.7"/>
		<circle id="XMLID_327_" class="st15" cx="20.6" cy="13.2" r="0.7"/>
		<circle id="XMLID_328_" class="st15" cx="22.9" cy="13.2" r="0.7"/>
		<path id="XMLID_321_" class="st24" d="M47.8,10.7h-1.5c0.6,0,1.2,0.5,1.2,1.2v39.6h1.5V11.8C48.9,11.2,48.4,10.7,47.8,10.7z"/>
	</g>
	<path id="XMLID_311_" class="st34" d="M35.6,51.5v-5v-0.8l3.7,1.9c0.3,0.2,0.7-0.1,0.7-0.5l-1.4-7.6c0-0.1,0-0.3,0.1-0.4l5.5-5.5
		c0.3-0.3,0.1-0.7-0.3-0.8l-7.7-1c-0.2,0-0.3-0.1-0.4-0.2l-3.5-6.9c-0.2-0.3-0.7-0.3-0.8,0l-3.4,7c-0.1,0.1-0.2,0.2-0.3,0.3
		l-7.7,1.2c-0.4,0.1-0.5,0.5-0.2,0.8l5.6,5.4c0.1,0.1,0.2,0.3,0.1,0.4l-1.2,7.7c-0.1,0.4,0.3,0.7,0.7,0.5l3.6-1.9v0.8v0v4.8H35.6z"
		/>
	<g id="XMLID_308_" class="st7">
		<path id="XMLID_751_" class="st12" d="M35.3,53.3L33.2,52c-0.3-0.2-0.8-0.2-1.1,0L30,53.3c-0.4,0.2-0.8,0-0.8-0.5V43h6.9v9.8
			C36.1,53.2,35.6,53.5,35.3,53.3z"/>
		<path id="XMLID_654_" class="st36" d="M36.1,43h-3.5h-3.5v3.7l3.3-1.8c0.1-0.1,0.3-0.1,0.4,0l3.2,1.6V43z"/>
		<path id="XMLID_715_" class="st13" d="M39.8,47.7l-6.9-3.5c-0.1-0.1-0.3-0.1-0.4,0l-6.8,3.7c-0.3,0.2-0.7-0.1-0.7-0.5l1.2-7.7
			c0-0.2,0-0.3-0.1-0.4l-5.6-5.4c-0.3-0.3-0.1-0.7,0.2-0.8l7.7-1.2c0.2,0,0.3-0.1,0.3-0.3l3.4-7c0.2-0.3,0.7-0.4,0.8,0l3.5,6.9
			c0.1,0.1,0.2,0.2,0.4,0.2l7.7,1c0.4,0,0.5,0.5,0.3,0.8l-5.5,5.5c-0.1,0.1-0.2,0.3-0.1,0.4l1.4,7.6C40.6,47.5,40.2,47.8,39.8,47.7z
			"/>
		<g id="XMLID_319_">
			<path id="XMLID_330_" class="st8" d="M44.7,33.6c0.3-0.3,0.1-0.7-0.3-0.8l-0.6-0.1c0,0.1,0,0.3-0.1,0.4l-5.5,5.5
				c-0.1,0.1-0.2,0.3-0.1,0.4l1.4,7.6c0.1,0.4-0.3,0.6-0.6,0.5l1,0.5c0.3,0.2,0.7-0.1,0.7-0.5l-1.4-7.6c0-0.1,0-0.3,0.1-0.4
				L44.7,33.6z"/>
			<path id="XMLID_333_" class="st8" d="M31.9,43.6c-0.1-0.1-0.3-0.1-0.4,0L25,47.1l0,0.2c-0.1,0.4,0.3,0.7,0.7,0.5l6.8-3.7
				c0.1-0.1,0.3-0.1,0.4,0L31.9,43.6z"/>
		</g>
	</g>
</g>
<g id="XMLID_367_" class="st0">
	<path id="XMLID_1868_" class="st1" d="M48,25.5c0-2.6-0.7-5.1-1.8-7.3c0-0.1-0.1-0.1-0.1-0.2c-1.8-3.2-4.6-5.7-8.1-7.1
		c-0.1,0-0.1-0.1-0.2-0.1c-1.7-0.6-3.5-1-5.3-1c-8.6,0-15.6,7-15.6,15.6c0,2.6,0.7,5.1,1.8,7.3c0,0,0,0,0,0
		c2.6,4.9,7.8,8.2,13.7,8.2c1.9,0,3.7-0.4,5.4-1c0,0,0.1,0,0.1,0C43.8,37.8,48,32.1,48,25.5z M33.1,39.6v-6.3h6.3
		c-0.6,2-1.4,3.9-2.4,5.5C35.8,39.2,34.5,39.5,33.1,39.6z M28.2,39c-1.1-1.7-1.9-3.6-2.5-5.7h5.9v6.3C30.5,39.5,29.3,39.3,28.2,39z
		 M18.3,26.2h4.9c0,1.9,0.3,3.8,0.6,5.6h-4.1C18.9,30.1,18.4,28.2,18.3,26.2z M19.8,19.1C19.8,19.1,19.8,19.1,19.8,19.1l4.1,0
		c-0.4,1.8-0.6,3.7-0.6,5.6h-4.9C18.4,22.7,18.9,20.8,19.8,19.1z M31.7,11.4v6.3h-5.9c0.6-2.1,1.4-4,2.4-5.7
		C29.3,11.7,30.4,11.5,31.7,11.4z M37.1,12.2c1,1.6,1.8,3.5,2.3,5.5h-6.3v-6.3C34.5,11.5,35.9,11.7,37.1,12.2z M46.5,24.7h-4.5
		c0-1.9-0.3-3.8-0.6-5.6H45C45.8,20.8,46.4,22.7,46.5,24.7z M45,31.8h-3.7c0.4-1.8,0.6-3.7,0.6-5.6h4.5C46.4,28.2,45.8,30.1,45,31.8
		z M39.8,31.8h-6.7v-5.6h7.4C40.4,28.1,40.2,30,39.8,31.8z M40.5,24.7h-7.4v-5.6h6.7C40.2,20.9,40.4,22.8,40.5,24.7z M31.7,19.1v5.6
		h-7c0-1.9,0.3-3.8,0.7-5.6H31.7z M24.7,26.2h7v5.6h-6.3C25,30,24.7,28.1,24.7,26.2z M39.2,37.8c0.7-1.4,1.3-2.9,1.7-4.6h3.2
		C42.9,35.1,41.2,36.7,39.2,37.8z M44.2,17.7H41c-0.4-1.6-1-3.1-1.7-4.5C41.2,14.3,42.9,15.8,44.2,17.7z M26,12.9
		c-0.7,1.5-1.3,3.1-1.8,4.8h-3.6C22,15.7,23.8,14,26,12.9z M20.6,33.3h3.6c0.5,1.7,1.1,3.3,1.8,4.8C23.8,37,22,35.3,20.6,33.3z"/>
	<g id="XMLID_1848_" class="st7">
		<path id="XMLID_1850_" class="st25" d="M32.9,41.6h-1c0-1.1-0.9-2-2-2H19.8c-1.7,0-3-1.4-3-3v-8.7c0-1.7,1.4-3,3-3h0.1v1h-0.1
			c-1.1,0-2,0.9-2,2v8.7c0,1.1,0.9,2,2,2h10.1C31.5,38.5,32.9,39.9,32.9,41.6z"/>
	</g>
	<g id="XMLID_1827_" class="st7">
		<g id="XMLID_1828_">
			<path id="XMLID_2479_" class="st12" d="M48.2,54.7H17c-1.2,0-2.1-0.9-2.1-2.1v-9.4c0-1.2,0.9-2.1,2.1-2.1h31.2
				c1.2,0,2.1,0.9,2.1,2.1v9.4C50.3,53.7,49.3,54.7,48.2,54.7z"/>
		</g>
	</g>
	<g id="XMLID_1825_" class="st7">
		<g id="XMLID_1826_">
			<path id="XMLID_2291_" class="st15" d="M17.9,43.5h-1.4c-0.2,0-0.3-0.1-0.3-0.3v-0.6c0-0.2,0.1-0.3,0.3-0.3h1.4
				c0.2,0,0.3,0.1,0.3,0.3v0.6C18.2,43.3,18.1,43.5,17.9,43.5z"/>
		</g>
	</g>
	<g id="XMLID_1823_" class="st7">
		<g id="XMLID_1824_">
			<path id="XMLID_2473_" class="st15" d="M17.9,46.7h-1.4c-0.2,0-0.3-0.1-0.3-0.3v-0.6c0-0.2,0.1-0.3,0.3-0.3h1.4
				c0.2,0,0.3,0.1,0.3,0.3v0.6C18.2,46.5,18.1,46.7,17.9,46.7z"/>
		</g>
	</g>
	<g id="XMLID_1821_" class="st7">
		<g id="XMLID_1822_">
			<path id="XMLID_2470_" class="st15" d="M21,46.7h-1.4c-0.2,0-0.3-0.1-0.3-0.3v-0.6c0-0.2,0.1-0.3,0.3-0.3H21
				c0.2,0,0.3,0.1,0.3,0.3v0.6C21.3,46.5,21.1,46.7,21,46.7z"/>
		</g>
	</g>
	<g id="XMLID_1819_" class="st7">
		<g id="XMLID_1820_">
			<path id="XMLID_2467_" class="st15" d="M24,46.7h-1.4c-0.2,0-0.3-0.1-0.3-0.3v-0.6c0-0.2,0.1-0.3,0.3-0.3H24
				c0.2,0,0.3,0.1,0.3,0.3v0.6C24.3,46.5,24.2,46.7,24,46.7z"/>
		</g>
	</g>
	<g id="XMLID_1817_" class="st7">
		<g id="XMLID_1818_">
			<path id="XMLID_2464_" class="st15" d="M27.1,46.7h-1.4c-0.2,0-0.3-0.1-0.3-0.3v-0.6c0-0.2,0.1-0.3,0.3-0.3h1.4
				c0.2,0,0.3,0.1,0.3,0.3v0.6C27.4,46.5,27.3,46.7,27.1,46.7z"/>
		</g>
	</g>
	<g id="XMLID_1815_" class="st7">
		<g id="XMLID_1816_">
			<path id="XMLID_2461_" class="st15" d="M30.2,46.7h-1.4c-0.2,0-0.3-0.1-0.3-0.3v-0.6c0-0.2,0.1-0.3,0.3-0.3h1.4
				c0.2,0,0.3,0.1,0.3,0.3v0.6C30.5,46.5,30.3,46.7,30.2,46.7z"/>
		</g>
	</g>
	<g id="XMLID_1813_" class="st7">
		<g id="XMLID_1814_">
			<path id="XMLID_2458_" class="st15" d="M33.2,46.7h-1.4c-0.2,0-0.3-0.1-0.3-0.3v-0.6c0-0.2,0.1-0.3,0.3-0.3h1.4
				c0.2,0,0.3,0.1,0.3,0.3v0.6C33.5,46.5,33.4,46.7,33.2,46.7z"/>
		</g>
	</g>
	<g id="XMLID_1811_" class="st7">
		<g id="XMLID_1812_">
			<path id="XMLID_2455_" class="st15" d="M36.3,46.7h-1.4c-0.2,0-0.3-0.1-0.3-0.3v-0.6c0-0.2,0.1-0.3,0.3-0.3h1.4
				c0.2,0,0.3,0.1,0.3,0.3v0.6C36.6,46.5,36.5,46.7,36.3,46.7z"/>
		</g>
	</g>
	<g id="XMLID_1809_" class="st7">
		<g id="XMLID_1810_">
			<path id="XMLID_2452_" class="st15" d="M39.4,46.7H38c-0.2,0-0.3-0.1-0.3-0.3v-0.6c0-0.2,0.1-0.3,0.3-0.3h1.4
				c0.2,0,0.3,0.1,0.3,0.3v0.6C39.7,46.5,39.5,46.7,39.4,46.7z"/>
		</g>
	</g>
	<g id="XMLID_1807_" class="st7">
		<g id="XMLID_1808_">
			<path id="XMLID_2449_" class="st15" d="M42.4,46.7H41c-0.2,0-0.3-0.1-0.3-0.3v-0.6c0-0.2,0.1-0.3,0.3-0.3h1.4
				c0.2,0,0.3,0.1,0.3,0.3v0.6C42.7,46.5,42.6,46.7,42.4,46.7z"/>
		</g>
	</g>
	<g id="XMLID_1805_" class="st7">
		<g id="XMLID_1806_">
			<path id="XMLID_2446_" class="st15" d="M45.5,46.7h-1.4c-0.2,0-0.3-0.1-0.3-0.3v-0.6c0-0.2,0.1-0.3,0.3-0.3h1.4
				c0.2,0,0.3,0.1,0.3,0.3v0.6C45.8,46.5,45.6,46.7,45.5,46.7z"/>
		</g>
	</g>
	<g id="XMLID_1803_" class="st7">
		<g id="XMLID_1804_">
			<path id="XMLID_2443_" class="st15" d="M48.5,46.7h-1.4c-0.2,0-0.3-0.1-0.3-0.3v-0.6c0-0.2,0.1-0.3,0.3-0.3h1.4
				c0.2,0,0.3,0.1,0.3,0.3v0.6C48.8,46.5,48.7,46.7,48.5,46.7z"/>
		</g>
	</g>
	<g id="XMLID_1801_" class="st7">
		<g id="XMLID_1802_">
			<path id="XMLID_2440_" class="st15" d="M17.9,48.6h-1.4c-0.2,0-0.3-0.1-0.3-0.3v-0.6c0-0.2,0.1-0.3,0.3-0.3h1.4
				c0.2,0,0.3,0.1,0.3,0.3v0.6C18.2,48.5,18.1,48.6,17.9,48.6z"/>
		</g>
	</g>
	<g id="XMLID_1799_" class="st7">
		<g id="XMLID_1800_">
			<path id="XMLID_2437_" class="st15" d="M21,48.6h-1.4c-0.2,0-0.3-0.1-0.3-0.3v-0.6c0-0.2,0.1-0.3,0.3-0.3H21
				c0.2,0,0.3,0.1,0.3,0.3v0.6C21.3,48.5,21.1,48.6,21,48.6z"/>
		</g>
	</g>
	<g id="XMLID_1797_" class="st7">
		<g id="XMLID_1798_">
			<path id="XMLID_2434_" class="st15" d="M24,48.6h-1.4c-0.2,0-0.3-0.1-0.3-0.3v-0.6c0-0.2,0.1-0.3,0.3-0.3H24
				c0.2,0,0.3,0.1,0.3,0.3v0.6C24.3,48.5,24.2,48.6,24,48.6z"/>
		</g>
	</g>
	<g id="XMLID_1795_" class="st7">
		<g id="XMLID_1796_">
			<path id="XMLID_2431_" class="st15" d="M27.1,48.6h-1.4c-0.2,0-0.3-0.1-0.3-0.3v-0.6c0-0.2,0.1-0.3,0.3-0.3h1.4
				c0.2,0,0.3,0.1,0.3,0.3v0.6C27.4,48.5,27.3,48.6,27.1,48.6z"/>
		</g>
	</g>
	<g id="XMLID_1793_" class="st7">
		<g id="XMLID_1794_">
			<path id="XMLID_2428_" class="st15" d="M30.2,48.6h-1.4c-0.2,0-0.3-0.1-0.3-0.3v-0.6c0-0.2,0.1-0.3,0.3-0.3h1.4
				c0.2,0,0.3,0.1,0.3,0.3v0.6C30.5,48.5,30.3,48.6,30.2,48.6z"/>
		</g>
	</g>
	<g id="XMLID_1791_" class="st7">
		<g id="XMLID_1792_">
			<path id="XMLID_2425_" class="st15" d="M33.2,48.6h-1.4c-0.2,0-0.3-0.1-0.3-0.3v-0.6c0-0.2,0.1-0.3,0.3-0.3h1.4
				c0.2,0,0.3,0.1,0.3,0.3v0.6C33.5,48.5,33.4,48.6,33.2,48.6z"/>
		</g>
	</g>
	<g id="XMLID_1789_" class="st7">
		<g id="XMLID_1790_">
			<path id="XMLID_2422_" class="st15" d="M36.3,48.6h-1.4c-0.2,0-0.3-0.1-0.3-0.3v-0.6c0-0.2,0.1-0.3,0.3-0.3h1.4
				c0.2,0,0.3,0.1,0.3,0.3v0.6C36.6,48.5,36.5,48.6,36.3,48.6z"/>
		</g>
	</g>
	<g id="XMLID_1787_" class="st7">
		<g id="XMLID_1788_">
			<path id="XMLID_2419_" class="st15" d="M39.4,48.6H38c-0.2,0-0.3-0.1-0.3-0.3v-0.6c0-0.2,0.1-0.3,0.3-0.3h1.4
				c0.2,0,0.3,0.1,0.3,0.3v0.6C39.7,48.5,39.5,48.6,39.4,48.6z"/>
		</g>
	</g>
	<g id="XMLID_1785_" class="st7">
		<g id="XMLID_1786_">
			<path id="XMLID_2416_" class="st15" d="M42.4,48.6H41c-0.2,0-0.3-0.1-0.3-0.3v-0.6c0-0.2,0.1-0.3,0.3-0.3h1.4
				c0.2,0,0.3,0.1,0.3,0.3v0.6C42.7,48.5,42.6,48.6,42.4,48.6z"/>
		</g>
	</g>
	<g id="XMLID_1783_" class="st7">
		<g id="XMLID_1784_">
			<path id="XMLID_2413_" class="st15" d="M45.5,48.6h-1.4c-0.2,0-0.3-0.1-0.3-0.3v-0.6c0-0.2,0.1-0.3,0.3-0.3h1.4
				c0.2,0,0.3,0.1,0.3,0.3v0.6C45.8,48.5,45.6,48.6,45.5,48.6z"/>
		</g>
	</g>
	<g id="XMLID_1781_" class="st7">
		<g id="XMLID_1782_">
			<path id="XMLID_2410_" class="st15" d="M48.5,48.6h-1.4c-0.2,0-0.3-0.1-0.3-0.3v-0.6c0-0.2,0.1-0.3,0.3-0.3h1.4
				c0.2,0,0.3,0.1,0.3,0.3v0.6C48.8,48.5,48.7,48.6,48.5,48.6z"/>
		</g>
	</g>
	<g id="XMLID_1779_" class="st7">
		<g id="XMLID_1780_">
			<path id="XMLID_2290_" class="st15" d="M17.9,50.6h-1.4c-0.2,0-0.3-0.1-0.3-0.3v-0.6c0-0.2,0.1-0.3,0.3-0.3h1.4
				c0.2,0,0.3,0.1,0.3,0.3v0.6C18.2,50.5,18.1,50.6,17.9,50.6z"/>
		</g>
	</g>
	<g id="XMLID_1777_" class="st7">
		<g id="XMLID_1778_">
			<path id="XMLID_2289_" class="st15" d="M21,50.6h-1.4c-0.2,0-0.3-0.1-0.3-0.3v-0.6c0-0.2,0.1-0.3,0.3-0.3H21
				c0.2,0,0.3,0.1,0.3,0.3v0.6C21.3,50.5,21.1,50.6,21,50.6z"/>
		</g>
	</g>
	<g id="XMLID_1775_" class="st7">
		<g id="XMLID_1776_">
			<path id="XMLID_2288_" class="st15" d="M24,50.6h-1.4c-0.2,0-0.3-0.1-0.3-0.3v-0.6c0-0.2,0.1-0.3,0.3-0.3H24
				c0.2,0,0.3,0.1,0.3,0.3v0.6C24.3,50.5,24.2,50.6,24,50.6z"/>
		</g>
	</g>
	<g id="XMLID_1773_" class="st7">
		<g id="XMLID_1774_">
			<path id="XMLID_2287_" class="st15" d="M27.1,50.6h-1.4c-0.2,0-0.3-0.1-0.3-0.3v-0.6c0-0.2,0.1-0.3,0.3-0.3h1.4
				c0.2,0,0.3,0.1,0.3,0.3v0.6C27.4,50.5,27.3,50.6,27.1,50.6z"/>
		</g>
	</g>
	<g id="XMLID_1771_" class="st7">
		<g id="XMLID_1772_">
			<path id="XMLID_2286_" class="st15" d="M30.2,50.6h-1.4c-0.2,0-0.3-0.1-0.3-0.3v-0.6c0-0.2,0.1-0.3,0.3-0.3h1.4
				c0.2,0,0.3,0.1,0.3,0.3v0.6C30.5,50.5,30.3,50.6,30.2,50.6z"/>
		</g>
	</g>
	<g id="XMLID_1769_" class="st7">
		<g id="XMLID_1770_">
			<path id="XMLID_2285_" class="st15" d="M33.2,50.6h-1.4c-0.2,0-0.3-0.1-0.3-0.3v-0.6c0-0.2,0.1-0.3,0.3-0.3h1.4
				c0.2,0,0.3,0.1,0.3,0.3v0.6C33.5,50.5,33.4,50.6,33.2,50.6z"/>
		</g>
	</g>
	<g id="XMLID_1767_" class="st7">
		<g id="XMLID_1768_">
			<path id="XMLID_2284_" class="st15" d="M36.3,50.6h-1.4c-0.2,0-0.3-0.1-0.3-0.3v-0.6c0-0.2,0.1-0.3,0.3-0.3h1.4
				c0.2,0,0.3,0.1,0.3,0.3v0.6C36.6,50.5,36.5,50.6,36.3,50.6z"/>
		</g>
	</g>
	<g id="XMLID_1765_" class="st7">
		<g id="XMLID_1766_">
			<path id="XMLID_2283_" class="st15" d="M39.4,50.6H38c-0.2,0-0.3-0.1-0.3-0.3v-0.6c0-0.2,0.1-0.3,0.3-0.3h1.4
				c0.2,0,0.3,0.1,0.3,0.3v0.6C39.7,50.5,39.5,50.6,39.4,50.6z"/>
		</g>
	</g>
	<g id="XMLID_1763_" class="st7">
		<g id="XMLID_1764_">
			<path id="XMLID_2282_" class="st15" d="M42.4,50.6H41c-0.2,0-0.3-0.1-0.3-0.3v-0.6c0-0.2,0.1-0.3,0.3-0.3h1.4
				c0.2,0,0.3,0.1,0.3,0.3v0.6C42.7,50.5,42.6,50.6,42.4,50.6z"/>
		</g>
	</g>
	<g id="XMLID_1761_" class="st7">
		<g id="XMLID_1762_">
			<path id="XMLID_2281_" class="st15" d="M45.5,50.6h-1.4c-0.2,0-0.3-0.1-0.3-0.3v-0.6c0-0.2,0.1-0.3,0.3-0.3h1.4
				c0.2,0,0.3,0.1,0.3,0.3v0.6C45.8,50.5,45.6,50.6,45.5,50.6z"/>
		</g>
	</g>
	<g id="XMLID_1759_" class="st7">
		<g id="XMLID_1760_">
			<path id="XMLID_2280_" class="st15" d="M48.5,50.6h-1.4c-0.2,0-0.3-0.1-0.3-0.3v-0.6c0-0.2,0.1-0.3,0.3-0.3h1.4
				c0.2,0,0.3,0.1,0.3,0.3v0.6C48.8,50.5,48.7,50.6,48.5,50.6z"/>
		</g>
	</g>
	<g id="XMLID_1757_" class="st7">
		<g id="XMLID_1758_">
			<path id="XMLID_2279_" class="st15" d="M17.9,52.6h-1.4c-0.2,0-0.3-0.1-0.3-0.3v-0.6c0-0.2,0.1-0.3,0.3-0.3h1.4
				c0.2,0,0.3,0.1,0.3,0.3v0.6C18.2,52.5,18.1,52.6,17.9,52.6z"/>
		</g>
	</g>
	<g id="XMLID_1755_" class="st7">
		<g id="XMLID_1756_">
			<path id="XMLID_2278_" class="st15" d="M21,52.6h-1.4c-0.2,0-0.3-0.1-0.3-0.3v-0.6c0-0.2,0.1-0.3,0.3-0.3H21
				c0.2,0,0.3,0.1,0.3,0.3v0.6C21.3,52.5,21.1,52.6,21,52.6z"/>
		</g>
	</g>
	<g id="XMLID_1753_" class="st7">
		<g id="XMLID_1754_">
			<path id="XMLID_2277_" class="st15" d="M24,52.6h-1.4c-0.2,0-0.3-0.1-0.3-0.3v-0.6c0-0.2,0.1-0.3,0.3-0.3H24
				c0.2,0,0.3,0.1,0.3,0.3v0.6C24.3,52.5,24.2,52.6,24,52.6z"/>
		</g>
	</g>
	<g id="XMLID_1751_" class="st7">
		<g id="XMLID_1752_">
			<path id="XMLID_2276_" class="st15" d="M39.4,52.6H25.7c-0.2,0-0.3-0.1-0.3-0.3v-0.6c0-0.2,0.1-0.3,0.3-0.3h13.6
				c0.2,0,0.3,0.1,0.3,0.3v0.6C39.7,52.5,39.5,52.6,39.4,52.6z"/>
		</g>
	</g>
	<g id="XMLID_1749_" class="st7">
		<g id="XMLID_1750_">
			<path id="XMLID_2275_" class="st15" d="M42.4,52.6H41c-0.2,0-0.3-0.1-0.3-0.3v-0.6c0-0.2,0.1-0.3,0.3-0.3h1.4
				c0.2,0,0.3,0.1,0.3,0.3v0.6C42.7,52.5,42.6,52.6,42.4,52.6z"/>
		</g>
	</g>
	<g id="XMLID_1747_" class="st7">
		<g id="XMLID_1748_">
			<path id="XMLID_2274_" class="st15" d="M45.5,52.6h-1.4c-0.2,0-0.3-0.1-0.3-0.3v-0.6c0-0.2,0.1-0.3,0.3-0.3h1.4
				c0.2,0,0.3,0.1,0.3,0.3v0.6C45.8,52.5,45.6,52.6,45.5,52.6z"/>
		</g>
	</g>
	<g id="XMLID_1745_" class="st7">
		<g id="XMLID_1746_">
			<path id="XMLID_2273_" class="st15" d="M48.5,52.6h-1.4c-0.2,0-0.3-0.1-0.3-0.3v-0.6c0-0.2,0.1-0.3,0.3-0.3h1.4
				c0.2,0,0.3,0.1,0.3,0.3v0.6C48.8,52.5,48.7,52.6,48.5,52.6z"/>
		</g>
	</g>
	<g id="XMLID_1743_" class="st7">
		<g id="XMLID_1744_">
			<path id="XMLID_2272_" class="st15" d="M21,43.5h-1.4c-0.2,0-0.3-0.1-0.3-0.3v-0.6c0-0.2,0.1-0.3,0.3-0.3H21
				c0.2,0,0.3,0.1,0.3,0.3v0.6C21.3,43.3,21.1,43.5,21,43.5z"/>
		</g>
	</g>
	<g id="XMLID_1741_" class="st7">
		<g id="XMLID_1742_">
			<path id="XMLID_2271_" class="st15" d="M24,43.5h-1.4c-0.2,0-0.3-0.1-0.3-0.3v-0.6c0-0.2,0.1-0.3,0.3-0.3H24
				c0.2,0,0.3,0.1,0.3,0.3v0.6C24.3,43.3,24.2,43.5,24,43.5z"/>
		</g>
	</g>
	<g id="XMLID_1739_" class="st7">
		<g id="XMLID_1740_">
			<path id="XMLID_2270_" class="st15" d="M27.1,43.5h-1.4c-0.2,0-0.3-0.1-0.3-0.3v-0.6c0-0.2,0.1-0.3,0.3-0.3h1.4
				c0.2,0,0.3,0.1,0.3,0.3v0.6C27.4,43.3,27.3,43.5,27.1,43.5z"/>
		</g>
	</g>
	<g id="XMLID_1737_" class="st7">
		<g id="XMLID_1738_">
			<path id="XMLID_2269_" class="st15" d="M30.2,43.5h-1.4c-0.2,0-0.3-0.1-0.3-0.3v-0.6c0-0.2,0.1-0.3,0.3-0.3h1.4
				c0.2,0,0.3,0.1,0.3,0.3v0.6C30.5,43.3,30.3,43.5,30.2,43.5z"/>
		</g>
	</g>
	<g id="XMLID_1735_" class="st7">
		<g id="XMLID_1736_">
			<path id="XMLID_2268_" class="st15" d="M33.2,43.5h-1.4c-0.2,0-0.3-0.1-0.3-0.3v-0.6c0-0.2,0.1-0.3,0.3-0.3h1.4
				c0.2,0,0.3,0.1,0.3,0.3v0.6C33.5,43.3,33.4,43.5,33.2,43.5z"/>
		</g>
	</g>
	<g id="XMLID_1733_" class="st7">
		<g id="XMLID_1734_">
			<path id="XMLID_2267_" class="st15" d="M36.3,43.5h-1.4c-0.2,0-0.3-0.1-0.3-0.3v-0.6c0-0.2,0.1-0.3,0.3-0.3h1.4
				c0.2,0,0.3,0.1,0.3,0.3v0.6C36.6,43.3,36.5,43.5,36.3,43.5z"/>
		</g>
	</g>
	<g id="XMLID_1731_" class="st7">
		<g id="XMLID_1732_">
			<path id="XMLID_2266_" class="st15" d="M39.4,43.5H38c-0.2,0-0.3-0.1-0.3-0.3v-0.6c0-0.2,0.1-0.3,0.3-0.3h1.4
				c0.2,0,0.3,0.1,0.3,0.3v0.6C39.7,43.3,39.5,43.5,39.4,43.5z"/>
		</g>
	</g>
	<g id="XMLID_1726_" class="st7">
		<g id="XMLID_1730_">
			<path id="XMLID_2265_" class="st15" d="M42.4,43.5H41c-0.2,0-0.3-0.1-0.3-0.3v-0.6c0-0.2,0.1-0.3,0.3-0.3h1.4
				c0.2,0,0.3,0.1,0.3,0.3v0.6C42.7,43.3,42.6,43.5,42.4,43.5z"/>
		</g>
	</g>
	<g id="XMLID_1723_" class="st7">
		<g id="XMLID_1724_">
			<path id="XMLID_2264_" class="st15" d="M45.5,43.5h-1.4c-0.2,0-0.3-0.1-0.3-0.3v-0.6c0-0.2,0.1-0.3,0.3-0.3h1.4
				c0.2,0,0.3,0.1,0.3,0.3v0.6C45.8,43.3,45.6,43.5,45.5,43.5z"/>
		</g>
	</g>
	<g id="XMLID_1721_" class="st7">
		<g id="XMLID_1722_">
			<path id="XMLID_2263_" class="st15" d="M48.5,43.5h-1.4c-0.2,0-0.3-0.1-0.3-0.3v-0.6c0-0.2,0.1-0.3,0.3-0.3h1.4
				c0.2,0,0.3,0.1,0.3,0.3v0.6C48.8,43.3,48.7,43.5,48.5,43.5z"/>
		</g>
	</g>
	<path id="XMLID_400_" class="st6" d="M44.2,20.4c-0.8,0.2-1,0.4-1.2,1.2c-0.2-0.8-0.4-1-1.2-1.2c0.8-0.2,1-0.4,1.2-1.2
		C43.2,20,43.4,20.2,44.2,20.4z"/>
	<path id="XMLID_1849_" class="st6" d="M39.2,13.8c-1.1,0.3-1.3,0.6-1.7,1.7c-0.3-1.1-0.6-1.3-1.7-1.7c1.1-0.3,1.3-0.6,1.7-1.7
		C37.8,13.2,38.1,13.5,39.2,13.8z"/>
	<path id="XMLID_1851_" class="st6" d="M48.2,13.1c-1.6,0.5-2,0.9-2.5,2.5c-0.5-1.6-0.9-2-2.5-2.5c1.6-0.5,2-0.9,2.5-2.5
		C46.3,12.2,46.6,12.6,48.2,13.1z"/>
	<g id="XMLID_341_" class="st7">
		<circle id="XMLID_329_" class="st13" cx="32.4" cy="25.5" r="9.8"/>
		<circle id="XMLID_332_" class="st8" cx="32.4" cy="25.5" r="8.7"/>
		<circle id="XMLID_335_" class="st13" cx="32.4" cy="25.5" r="7.7"/>
		<g id="XMLID_336_">
			<g id="XMLID_337_">
				<path id="XMLID_340_" class="st17" d="M33.4,29.4h-2.8c-0.7,0-1.2-0.5-1.2-1.2v-0.6H31v0.1h2.3c0.5,0,0.8-0.4,0.8-0.8
					c0-0.3-0.2-0.5-0.5-0.5h-2.1c-1.2,0-2.2-1-2.2-2.2v-0.3c0-1.4,1.1-2.5,2.5-2.5h2.8c0.7,0,1.2,0.5,1.2,1.2v0.7h-1.7V23h-2.3
					c-0.5,0-0.8,0.4-0.8,0.8v0.3c0,0.3,0.2,0.5,0.5,0.5h2.1c1.2,0,2.2,1,2.2,2.2C35.9,28.3,34.8,29.4,33.4,29.4z"/>
			</g>
			<g id="XMLID_338_">
				<rect id="XMLID_339_" x="31.8" y="20.5" class="st17" width="1.7" height="10"/>
			</g>
		</g>
	</g>
	<g id="XMLID_342_" class="st7">
		<circle id="XMLID_357_" class="st13" cx="46.3" cy="33.2" r="4.5"/>
		<circle id="XMLID_356_" class="st8" cx="46.3" cy="33.2" r="4"/>
		<circle id="XMLID_355_" class="st13" cx="46.3" cy="33.2" r="3.5"/>
		<g id="XMLID_343_">
			<g id="XMLID_353_">
				<path id="XMLID_354_" class="st17" d="M46.8,35h-1.3c-0.3,0-0.5-0.2-0.5-0.5v-0.3h0.8v0h1.1c0.2,0,0.4-0.2,0.4-0.4
					c0-0.1-0.1-0.2-0.2-0.2h-1c-0.6,0-1-0.5-1-1v-0.1c0-0.6,0.5-1.2,1.2-1.2h1.3c0.3,0,0.5,0.2,0.5,0.5v0.3h-0.8V32h-1.1
					c-0.2,0-0.4,0.2-0.4,0.4v0.1c0,0.1,0.1,0.2,0.2,0.2h1c0.6,0,1,0.5,1,1C47.9,34.4,47.4,35,46.8,35z"/>
			</g>
			<g id="XMLID_349_">
				<rect id="XMLID_351_" x="46" y="30.9" class="st17" width="0.8" height="4.6"/>
			</g>
		</g>
	</g>
	<g id="XMLID_358_" class="st7">
		<circle id="XMLID_366_" class="st13" cx="20" cy="21.7" r="2.7"/>
		<circle id="XMLID_365_" class="st8" cx="20" cy="21.7" r="2.4"/>
		<circle id="XMLID_364_" class="st13" cx="20" cy="21.7" r="2.1"/>
		<g id="XMLID_359_">
			<g id="XMLID_362_">
				<path id="XMLID_363_" class="st17" d="M20.3,22.8h-0.8c-0.2,0-0.3-0.1-0.3-0.3v-0.2h0.5v0h0.7c0.1,0,0.2-0.1,0.2-0.2
					c0-0.1-0.1-0.1-0.1-0.1h-0.6c-0.3,0-0.6-0.3-0.6-0.6v-0.1c0-0.4,0.3-0.7,0.7-0.7h0.8c0.2,0,0.3,0.1,0.3,0.3v0.2h-0.5V21h-0.7
					c-0.1,0-0.2,0.1-0.2,0.2v0.1c0,0.1,0.1,0.1,0.1,0.1h0.6c0.3,0,0.6,0.3,0.6,0.6C21,22.5,20.6,22.8,20.3,22.8z"/>
			</g>
			<g id="XMLID_360_">
				<rect id="XMLID_361_" x="19.8" y="20.3" class="st17" width="0.5" height="2.8"/>
			</g>
		</g>
	</g>
	<g id="XMLID_376_" class="st7">
		<circle id="XMLID_384_" class="st13" cx="17.3" cy="13.5" r="4.1"/>
		<circle id="XMLID_383_" class="st8" cx="17.3" cy="13.5" r="3.7"/>
		<circle id="XMLID_382_" class="st13" cx="17.3" cy="13.5" r="3.3"/>
		<g id="XMLID_377_">
			<g id="XMLID_380_">
				<path id="XMLID_381_" class="st17" d="M17.8,15.1h-1.2c-0.3,0-0.5-0.2-0.5-0.5v-0.3h0.7v0h1c0.2,0,0.3-0.2,0.3-0.3
					c0-0.1-0.1-0.2-0.2-0.2H17c-0.5,0-0.9-0.4-0.9-0.9v-0.1c0-0.6,0.5-1.1,1.1-1.1h1.2c0.3,0,0.5,0.2,0.5,0.5v0.3h-0.7v-0.1h-1
					c-0.2,0-0.3,0.2-0.3,0.3v0.1c0,0.1,0.1,0.2,0.2,0.2h0.9c0.5,0,0.9,0.4,0.9,0.9C18.8,14.7,18.3,15.1,17.8,15.1z"/>
			</g>
			<g id="XMLID_378_">
				<rect id="XMLID_379_" x="17.1" y="11.4" class="st17" width="0.7" height="4.2"/>
			</g>
		</g>
	</g>
</g>
<g id="XMLID_369_" class="st0">
	<path id="XMLID_404_" class="st1" d="M17.9,50.2h28.2V12.6c0-1.2-1-2.2-2.2-2.2H20.1c-1.2,0-2.2,1-2.2,2.2V50.2z"/>
	<rect id="XMLID_401_" x="20.2" y="15.6" class="st2" width="23.5" height="34.6"/>
	<path id="XMLID_385_" class="st37" d="M35.9,13.7h-7.7c-0.5,0-0.8-0.4-0.8-0.8l0,0c0-0.5,0.4-0.8,0.8-0.8h7.7
		c0.5,0,0.8,0.4,0.8,0.8l0,0C36.7,13.3,36.3,13.7,35.9,13.7z"/>
	<circle id="XMLID_368_" class="st38" cx="29.3" cy="23.5" r="6.3"/>
	<circle id="XMLID_352_" class="st31" cx="29.3" cy="23.5" r="4.5"/>
	<circle id="XMLID_348_" class="st2" cx="29.3" cy="23.5" r="3.3"/>
	<g id="XMLID_390_" class="st7">
		<path id="XMLID_399_" class="st15" d="M39.3,31.2c-0.9,0-1.7,0.7-1.7,1.7v-1.7c0-0.9-0.7-1.7-1.7-1.7c-0.9,0-1.7,0.7-1.7,1.7v-1.7
			c0-0.9-0.7-1.7-1.7-1.7c-0.9,0-1.7,0.7-1.7,1.7v-5.3c0-0.9-0.7-1.7-1.7-1.7c-0.9,0-1.7,0.7-1.7,1.7v10.5h-2.3
			c-0.6,0-1.1,0.5-1.1,1.1v7.4c0,0.6,0.3,1.1,0.9,1.4l1.4,0.6c0.5,0.2,0.9,0.8,0.9,1.4v3.2h11v-3.6c0-0.4,0.1-0.7,0.4-1l1.7-1.7
			c0.3-0.3,0.5-0.7,0.5-1.1v-9.4C41,32,40.2,31.2,39.3,31.2z"/>
		<g id="XMLID_116_">
			<path id="XMLID_128_" class="st11" d="M39.3,31.2c-0.2,0-0.3,0-0.5,0.1c0.7,0.2,1.2,0.8,1.2,1.6v9.4c0,0.4-0.2,0.8-0.5,1.1
				l-1.7,1.7c-0.3,0.3-0.4,0.6-0.4,1v3.6h1v-3.6c0-0.4,0.1-0.7,0.4-1l1.7-1.7c0.3-0.3,0.5-0.7,0.5-1.1v-9.4
				C41,32,40.2,31.2,39.3,31.2z"/>
		</g>
		<path id="XMLID_396_" class="st39" d="M25.8,44.6v0.2l0.7,0.3c0.5,0.2,0.9,0.8,0.9,1.4v0.4h11v-0.8c0-0.4,0.1-0.7,0.4-1l0.5-0.5
			H25.8z"/>
		<rect id="XMLID_393_" x="25.8" y="45.7" class="st13" width="14.1" height="7.9"/>
		<rect id="XMLID_388_" x="25.8" y="45.7" class="st8" width="4.5" height="7.9"/>
	</g>
</g>
<g id="XMLID_370_" class="st0">
	<path id="XMLID_374_" class="st2" d="M42.9,29.2l3.3,0c0.7,0,1.2-0.5,1.2-1.2l0-4.2c0-0.7-0.5-1.2-1.2-1.2l-2.6,0
		c-0.4,0-0.8-0.3-1-0.7c-0.1-0.2-0.2-0.5-0.3-0.7c-0.2-0.4-0.1-0.9,0.2-1.2l1.8-1.8c0.5-0.5,0.5-1.2,0-1.7l-3-3
		c-0.5-0.5-1.2-0.5-1.7,0l-1.9,1.9c-0.3,0.3-0.7,0.4-1.1,0.2c-0.3-0.1-0.6-0.2-0.8-0.3c-0.4-0.2-0.6-0.5-0.6-0.9v-2.6
		c0-0.7-0.5-1.2-1.2-1.2h-4.2c-0.7,0-1.2,0.5-1.2,1.2v2.6c0,0.4-0.3,0.8-0.7,1c-0.3,0.1-0.5,0.2-0.8,0.3c-0.4,0.2-0.9,0.1-1.2-0.2
		l-1.8-1.8c-0.5-0.5-1.2-0.5-1.7,0l-3,3c-0.5,0.5-0.5,1.3,0,1.7l1.9,1.9c0.3,0.3,0.4,0.7,0.2,1.1c-0.1,0.3-0.2,0.6-0.3,0.8
		c-0.1,0.4-0.5,0.6-0.9,0.6l-2.6,0c-0.7,0-1.2,0.5-1.2,1.2l0,4.2c0,0.7,0.5,1.2,1.2,1.2l2.6,0c0.4,0,0.8,0.3,1,0.7
		c0.1,0.2,0.2,0.5,0.3,0.7c0.2,0.4,0.1,0.9-0.2,1.2l-1.8,1.8c-0.5,0.5-0.5,1.2,0,1.7l3,3c0.5,0.5,1.2,0.5,1.7,0l1.9-1.9
		c0.3-0.3,0.7-0.4,1.1-0.2c0.3,0.1,0.6,0.2,0.8,0.3c0.4,0.1,0.6,0.5,0.6,0.9l0,2.6c0,0.7,0.5,1.2,1.2,1.2l4.2,0
		c0.7,0,1.2-0.5,1.2-1.2l0-2.6c0-0.4,0.3-0.8,0.7-1c0.2-0.1,0.5-0.2,0.7-0.3c0.4-0.2,0.9-0.1,1.2,0.2l1.8,1.8c0.5,0.5,1.2,0.5,1.7,0
		l3-3c0.5-0.5,0.5-1.2,0-1.7l-1.9-1.9c-0.3-0.3-0.4-0.7-0.2-1.1C42.6,30,42.8,29.3,42.9,29.2z M26,24.8c0.7-3.8,4.6-5.9,8.1-4.5
		c2.7,1,4.3,3.9,3.7,6.7c-0.7,3.8-4.6,5.9-8.1,4.5C27.1,30.5,25.4,27.6,26,24.8z"/>
	<path id="XMLID_394_" class="st40" d="M16.4,28c0,0.7,0.5,1.2,1.2,1.2l2.6,0c0.4,0,0.8,0.3,1,0.7c0.1,0.2,0.2,0.5,0.3,0.7
		c0.2,0.4,0.1,0.9-0.2,1.2l-1.8,1.8c-0.5,0.5-0.5,1.2,0,1.7l3,3c0.5,0.5,1.2,0.5,1.7,0l1.9-1.9c0.3-0.3,0.7-0.4,1.1-0.2
		c0.3,0.1,0.6,0.2,0.8,0.3c0.4,0.1,0.6,0.5,0.6,0.9l0,2.6c0,0.7,0.5,1.2,1.2,1.2l4.2,0c0.7,0,1.2-0.5,1.2-1.2l0-2.6
		c0-0.4,0.3-0.8,0.7-1c0.2-0.1,0.5-0.2,0.7-0.3c0.4-0.2,0.9-0.1,1.2,0.2l1.8,1.8c0.5,0.5,1.2,0.5,1.7,0l3-3c0.5-0.5,0.5-1.2,0-1.7
		l-1.9-1.9c-0.3-0.3-0.4-0.7-0.2-1.1c0.3-0.6,0.5-1.4,0.6-1.4l3.3,0c0.7,0,1.2-0.5,1.2-1.2l0-3.6h-9.7c0.2,0.8,0.3,1.7,0.1,2.6
		c-0.7,3.8-4.6,5.9-8.1,4.5c-2.7-1-4.3-3.9-3.7-6.7c0-0.1,0.1-0.3,0.1-0.4h-9.7L16.4,28z"/>
	<g id="XMLID_102_" class="st7">
		<path id="XMLID_492_" class="st13" d="M49,53.6H15.4V25.4H52v25.3C52,52.3,50.7,53.6,49,53.6z"/>
		<path id="XMLID_494_" class="st8" d="M14.6,53.6h0.8V25.4h-3.8v25.3C11.6,52.3,13,53.6,14.6,53.6z"/>
		<polygon id="XMLID_500_" class="st41" points="11.6,29.9 14,29.9 15.4,25.4 11.6,26.3 		"/>
		<path id="XMLID_495_" class="st14" d="M11.6,28.1h2c0.3,0,0.6-0.2,0.7-0.5l1.1-2.3h-3.8L10.9,27C10.6,27.5,11,28.1,11.6,28.1z"/>
		<polygon id="XMLID_497_" class="st41" points="52,29.9 52,26.3 15.4,25.4 17.4,29.9 		"/>
		<path id="XMLID_493_" class="st14" d="M52.4,28.1H17.8c-0.3,0-0.5-0.1-0.6-0.3l-1.8-2.4H52l1.1,1.5C53.5,27.4,53.1,28.1,52.4,28.1
			z"/>
	</g>
</g>
<g id="XMLID_1968_" class="st0">
	<g id="XMLID_1967_" class="st7">
		<path id="XMLID_1863_" class="st12" d="M35.9,28.1l-3.8-1.9c-0.1,0-0.2,0-0.2,0l-3.7,2c-0.2,0.1-0.4-0.1-0.4-0.3l0.7-4.2
			c0-0.1,0-0.2-0.1-0.2l-3.1-2.9c-0.2-0.1-0.1-0.4,0.1-0.4l4.2-0.7c0.1,0,0.2-0.1,0.2-0.1l1.8-3.8c0.1-0.2,0.4-0.2,0.4,0l1.9,3.8
			c0,0.1,0.1,0.1,0.2,0.1l4.2,0.6c0.2,0,0.3,0.3,0.1,0.4l-3,3c-0.1,0.1-0.1,0.1-0.1,0.2l0.8,4.1C36.3,28,36.1,28.2,35.9,28.1z"/>
	</g>
	<path id="XMLID_1894_" class="st2" d="M46.9,53.9H48c0-8.8-7.2-16-16-16c-8.8,0-16,7.2-16,16h1.1c0-2.6,0.7-5,1.8-7.1v0.4h4.5
		c-0.5,2.2-0.7,4.4-0.7,6.8h1.1c0-2.3,0.3-4.6,0.8-6.8h7v6.8h1.1v-6.8h7.3c0.5,2.2,0.8,4.4,0.8,6.8h1.1c0-2.3-0.3-4.6-0.7-6.8h4.2
		C46.3,49.2,46.9,51.5,46.9,53.9z M19.4,46.1c1.5-2.5,3.8-4.5,6.5-5.7c-0.9,1.7-1.7,3.6-2.2,5.7H19.4z M24.8,46.1
		c0.6-2.3,1.5-4.4,2.7-6.3l0,0c1.3-0.4,2.6-0.6,4-0.7v7H24.8z M32.5,46.1v-7c1.6,0.1,3.1,0.4,4.5,0.9c1.1,1.8,2,3.9,2.6,6.1H32.5z
		 M40.7,46.1c-0.5-1.9-1.2-3.8-2-5.4c2.4,1.2,4.5,3.1,5.9,5.4H40.7z"/>
	<path id="XMLID_1886_" class="st6" d="M44.5,22.5c0-6.9-5.6-12.5-12.5-12.5c-6.9,0-12.5,5.6-12.5,12.5c0,2.3,0.6,4.4,1.7,6.2h0
		l11,14.5l10.6-14.5h0C43.9,26.9,44.5,24.8,44.5,22.5z M32,31c-4.7,0-8.5-3.8-8.5-8.5c0-4.7,3.8-8.5,8.5-8.5s8.5,3.8,8.5,8.5
		C40.5,27.2,36.7,31,32,31z"/>
	<path id="XMLID_1890_" class="st32" d="M41.9,22.5c0-5.5-4.4-9.9-9.9-9.9c-5.5,0-9.9,4.4-9.9,9.9c0,5.5,4.4,9.9,9.9,9.9
		C37.5,32.4,41.9,27.9,41.9,22.5z M32,31c-4.7,0-8.5-3.8-8.5-8.5c0-4.7,3.8-8.5,8.5-8.5c4.7,0,8.5,3.8,8.5,8.5
		C40.5,27.2,36.7,31,32,31z"/>
</g>
<g id="XMLID_373_" class="st0">
	<g id="XMLID_371_" class="st7">
		<path id="XMLID_413_" class="st10" d="M17.3,52.7h29.4V13.5c0-1.2-1-2.2-2.2-2.2H19.5c-1.2,0-2.2,1-2.2,2.2V52.7z"/>
		<rect id="XMLID_409_" x="19.7" y="16.7" class="st12" width="24.5" height="36"/>
		<path id="XMLID_408_" class="st42" d="M36.1,14.7h-8.1c-0.5,0-0.8-0.4-0.8-0.8v-0.1c0-0.5,0.4-0.8,0.8-0.8h8.1
			c0.5,0,0.8,0.4,0.8,0.8v0.1C36.9,14.3,36.5,14.7,36.1,14.7z"/>
	</g>
	<path id="XMLID_403_" class="st40" d="M46.7,51.7v-5.5h-0.1c-0.5,0-1-0.3-1.2-0.9c-0.1-0.3-0.2-0.6-0.4-0.9
		c-0.2-0.5-0.1-1.1,0.2-1.4l1.4-1.4v-4l-2.8-2.8c-0.6-0.6-1.6-0.6-2.2,0l-2.3,2.3c-0.4,0.4-0.9,0.5-1.4,0.3c-0.3-0.1-0.7-0.3-1-0.4
		c-0.5-0.2-0.8-0.7-0.8-1.2v-3.3c0-0.8-0.7-1.5-1.5-1.5h-5.3c-0.8,0-1.5,0.7-1.5,1.5v3.3c0,0.5-0.3,1-0.9,1.2
		c-0.3,0.1-0.6,0.3-0.9,0.4c-0.5,0.2-1.1,0.1-1.4-0.2l-2.3-2.3c-0.6-0.6-1.6-0.6-2.2,0l-2.8,2.8v4.1l1.4,1.4
		c0.4,0.4,0.5,0.9,0.3,1.4c-0.1,0.3-0.3,0.7-0.4,1c-0.2,0.5-0.7,0.8-1.2,0.8l-0.1,0v5.5h7.2c0-0.7,0-1.5,0.1-2.1
		c0.9-4.7,5.7-7.3,10.1-5.7c3.1,1.2,5.1,4.4,4.7,7.7H46.7z"/>
	<path id="XMLID_372_" class="st6" d="M51.4,48.7v4H39.5c0.3-3.3-1.6-6.5-4.7-7.7c-4.4-1.7-9.2,1-10.1,5.7c-0.1,0.6-0.1,1.4-0.1,2.1
		H12.6v-3.9c0-0.8,0.7-1.5,1.5-1.5l3.3,0c0.5,0,1-0.3,1.2-0.8c0.1-0.3,0.3-0.7,0.4-1c0.2-0.5,0.1-1-0.3-1.4l-2.3-2.3
		c-0.6-0.6-0.6-1.6,0-2.2l3.7-3.8c0.6-0.6,1.6-0.6,2.2,0l2.3,2.3c0.4,0.4,1,0.5,1.4,0.2c0.3-0.1,0.6-0.3,0.9-0.4
		c0.5-0.2,0.9-0.7,0.9-1.2v-3.3c0-0.8,0.7-1.5,1.5-1.5h5.3c0.8,0,1.5,0.7,1.5,1.5v3.3c0,0.5,0.3,1,0.8,1.2c0.3,0.1,0.7,0.3,1,0.4
		c0.5,0.2,1,0.1,1.4-0.3l2.3-2.3c0.6-0.6,1.6-0.6,2.2,0l3.8,3.8c0.6,0.6,0.6,1.6,0,2.2L45.3,44c-0.4,0.4-0.5,1-0.2,1.4
		c0.1,0.3,0.3,0.6,0.4,0.9c0.2,0.5,0.7,0.9,1.2,0.9l3.3,0C50.7,47.2,51.4,47.9,51.4,48.7z"/>
</g>
<g id="XMLID_20_" class="st0">
	<g id="XMLID_444_" class="st7">
		<polygon id="XMLID_453_" class="st20" points="41.3,48.2 22.7,48.2 24,40.2 40.1,40.2 		"/>
		<polygon id="XMLID_452_" class="st21" points="24,40.2 23,46.2 40.8,44.9 40.1,40.2 		"/>
		<path id="XMLID_451_" class="st9" d="M53.7,14.8c0-0.4-0.4-0.8-0.8-0.8H11.1c-0.4,0-0.8,0.4-0.8,0.8v24.3c0,0.4,0.4,0.8,0.8,0.8
			h41.8c0.4,0,0.8-0.4,0.8-0.8V14.8z"/>
		<path id="XMLID_447_" class="st10" d="M53.7,38.5v3.3c0,1.2-0.9,2.1-2.1,2.1H12.4c-1.2,0-2.1-0.9-2.1-2.1v-3.3H53.7z"/>
		<rect id="XMLID_446_" x="12.2" y="15.8" class="st13" width="39.6" height="20.9"/>
		<path id="XMLID_445_" class="st10" d="M42.7,50H21.1c-0.5,0-0.9-0.4-0.9-0.9l0,0c0-0.5,0.4-0.9,0.9-0.9h21.6
			c0.5,0,0.9,0.4,0.9,0.9l0,0C43.6,49.6,43.2,50,42.7,50z"/>
	</g>
	<path id="XMLID_60_" class="st40" d="M43.6,49.1c0-0.5-0.4-0.9-0.9-0.9h-1.4l-0.7-4.3h10.5V28c0-0.5-0.4-1-1-1H34.4
		c-0.5,0-1,0.4-1,1v21.1c0,0.5,0.4,1,1,1h8.4C43.2,50,43.6,49.6,43.6,49.1z"/>
	<g id="XMLID_414_" class="st7">
		<path id="XMLID_105_" class="st17" d="M49.2,50H33.4c-0.6,0-1-0.4-1-1V28c0-0.6,0.4-1,1-1h15.8c0.6,0,1,0.4,1,1v21
			C50.2,49.6,49.8,50,49.2,50z"/>
		<rect id="XMLID_131_" x="34.6" y="29.8" class="st13" width="13.4" height="16.9"/>
		<path id="XMLID_412_" class="st43" d="M43.8,28.8h-5c-0.1,0-0.2-0.1-0.2-0.2v-0.1c0-0.1,0.1-0.2,0.2-0.2h5c0.1,0,0.2,0.1,0.2,0.2
			v0.1C44,28.7,44,28.8,43.8,28.8z"/>
	</g>
	<path id="XMLID_421_" class="st40" d="M39.4,31H29.1c-0.2,0-0.4,0.2-0.4,0.4v18.2c0,0.2,0.2,0.4,0.4,0.4h10.3
		c0.2,0,0.4-0.2,0.4-0.4V31.4C39.8,31.2,39.6,31,39.4,31z"/>
	<g id="XMLID_61_" class="st7">
		<path id="XMLID_66_" class="st10" d="M38.4,50H28.1c-0.2,0-0.4-0.2-0.4-0.4V31.4c0-0.2,0.2-0.4,0.4-0.4h10.3
			c0.2,0,0.4,0.2,0.4,0.4v18.2C38.9,49.8,38.7,50,38.4,50z"/>
		<rect id="XMLID_64_" x="28.8" y="34" class="st13" width="9.1" height="13.1"/>
		<path id="XMLID_63_" class="st44" d="M34.9,32.6h-3.3c-0.1,0-0.2-0.1-0.2-0.2v-0.1c0-0.1,0.1-0.2,0.2-0.2h3.3
			c0.1,0,0.2,0.1,0.2,0.2v0.1C35.1,32.5,35.1,32.6,34.9,32.6z"/>
		<circle id="XMLID_62_" class="st11" cx="33.3" cy="48.3" r="0.8"/>
	</g>
	<path id="XMLID_415_" class="st40" d="M29.9,32.7c3.3,0,6-2.5,6.4-5.7h-3c-0.5,0-1,0.4-1,1v3h-4.3c-0.2,0-0.4,0.2-0.4,0.4v0.9
		C28.4,32.5,29.2,32.7,29.9,32.7z"/>
	<circle id="XMLID_18_" class="st2" cx="29" cy="25.2" r="6.5"/>
	<g id="XMLID_19_" class="st7">
		<polygon id="XMLID_59_" class="st15" points="27.9,28.4 25.2,25.7 26.8,24.1 27.9,25.3 31.2,22 32.8,23.6 		"/>
	</g>
</g>
<g id="XMLID_430_" class="st0">
	<g id="XMLID_432_" class="st7">
		<path id="XMLID_437_" class="st9" d="M51.1,50.8H12.9V28.1c0-0.7,0.6-1.3,1.3-1.3h35.6c0.7,0,1.3,0.6,1.3,1.3V50.8z"/>
		<rect id="XMLID_436_" x="14.9" y="29" class="st10" width="34.2" height="19.9"/>
		<path id="XMLID_416_" class="st13" d="M32,40.9H17.7c-0.5,0-1-0.4-1-1v-7.5c0-0.5,0.4-1,1-1H32c0.5,0,1,0.4,1,1v7.5
			C33,40.5,32.6,40.9,32,40.9z"/>
		<path id="XMLID_435_" class="st11" d="M53.3,51.9H10.7l0,0c1.2,1.2,2.9,1.9,4.6,1.9h33.4C50.4,53.8,52.1,53.1,53.3,51.9L53.3,51.9
			z"/>
		<rect id="XMLID_434_" x="10.7" y="50.7" class="st10" width="42.6" height="1.2"/>
		<path id="XMLID_433_" class="st11" d="M34.6,51.6h-5.3c-0.2,0-0.3-0.1-0.3-0.3l0,0c0-0.2,0.1-0.3,0.3-0.3h5.3
			c0.2,0,0.3,0.1,0.3,0.3l0,0C35,51.5,34.8,51.6,34.6,51.6z"/>
		<path id="XMLID_418_" class="st11" d="M46.7,43.3H17.6c-0.2,0-0.4-0.2-0.4-0.4l0,0c0-0.2,0.2-0.4,0.4-0.4h29.1
			c0.2,0,0.4,0.2,0.4,0.4l0,0C47.1,43.1,46.9,43.3,46.7,43.3z"/>
		<path id="XMLID_424_" class="st11" d="M46.7,33.8H34.6c-0.2,0-0.4-0.2-0.4-0.4l0,0c0-0.2,0.2-0.4,0.4-0.4h12.1
			c0.2,0,0.4,0.2,0.4,0.4l0,0C47.1,33.6,46.9,33.8,46.7,33.8z"/>
		<path id="XMLID_425_" class="st11" d="M46.7,35.8H34.6c-0.2,0-0.4-0.2-0.4-0.4l0,0c0-0.2,0.2-0.4,0.4-0.4h12.1
			c0.2,0,0.4,0.2,0.4,0.4l0,0C47.1,35.6,46.9,35.8,46.7,35.8z"/>
		<path id="XMLID_428_" class="st11" d="M42,37.8h-7.4c-0.2,0-0.4-0.2-0.4-0.4l0,0c0-0.2,0.2-0.4,0.4-0.4H42c0.2,0,0.4,0.2,0.4,0.4
			l0,0C42.4,37.6,42.2,37.8,42,37.8z"/>
		<path id="XMLID_419_" class="st11" d="M46.7,45.2H17.6c-0.2,0-0.4-0.2-0.4-0.4l0,0c0-0.2,0.2-0.4,0.4-0.4h29.1
			c0.2,0,0.4,0.2,0.4,0.4l0,0C47.1,45,46.9,45.2,46.7,45.2z"/>
		<path id="XMLID_420_" class="st11" d="M36.1,47H17.6c-0.2,0-0.4-0.2-0.4-0.4l0,0c0-0.2,0.2-0.4,0.4-0.4h18.5
			c0.2,0,0.4,0.2,0.4,0.4l0,0C36.5,46.8,36.3,47,36.1,47z"/>
		<path id="XMLID_439_" class="st8" d="M17.7,40.9H32c0.5,0,0.9-0.4,0.9-0.9l-3.9-3.9l-3.8,3.5l-3.6-3.5L17,40.5
			C17.1,40.7,17.4,40.9,17.7,40.9z"/>
	</g>
	<path id="XMLID_417_" class="st40" d="M20.6,26.9c0.3,0.3,0.8,0.5,1.2,0.5h0.4V32c0,0.3,0.4,0.5,0.7,0.3l6.7-4.9h12.8
		c0.5,0,0.9-0.2,1.2-0.5H20.6z"/>
	<g id="XMLID_989_" class="st7">
		<path id="XMLID_398_" class="st13" d="M42.1,10.2h-20c-1.1,0-2,0.9-2,2v12.2h24V12.2C44.1,11.1,43.2,10.2,42.1,10.2z"/>
		<path id="XMLID_67_" class="st15" d="M34.4,17.4l-3.7,2.1c-0.4,0.2-1-0.1-1-0.6v-4.3c0-0.5,0.5-0.8,1-0.6l3.7,2.1
			C34.8,16.5,34.8,17.1,34.4,17.4l-3.7,2.1c-0.4,0.2-1-0.1-1-0.6v-4.3c0-0.5,0.5-0.8,1-0.6l3.7,2.1C34.8,16.5,34.8,17.1,34.4,17.4z"
			/>
		<path id="XMLID_880_" class="st12" d="M20.1,22.6v2c0,1,0.8,1.7,1.7,1.7h0.4V31c0,0.3,0.4,0.5,0.7,0.3l6.7-4.9h12.8
			c1,0,1.7-0.8,1.7-1.7v-2H20.1z"/>
		<g id="XMLID_422_" class="st45">
			<path id="XMLID_423_" class="st46" d="M42.1,10.2h-1.5c1.1,0,2,0.9,2,2v10.4v1.8v0.3c0,1-0.8,1.7-1.7,1.7h1.5
				c1,0,1.7-0.8,1.7-1.7v-0.3v-1.8V12.2C44.1,11.1,43.2,10.2,42.1,10.2z"/>
		</g>
		<rect id="XMLID_872_" x="20.1" y="22.3" class="st43" width="24" height="0.5"/>
		<rect id="XMLID_873_" x="20.1" y="22.3" class="st17" width="14.8" height="0.5"/>
		<g id="XMLID_878_">
			<circle id="XMLID_874_" class="st17" cx="35.1" cy="22.4" r="0.9"/>
			<circle id="XMLID_875_" class="st15" cx="35.1" cy="22.4" r="0.4"/>
		</g>
	</g>
</g>
<g id="XMLID_498_" class="st0">
	<g id="XMLID_706_" class="st7">
		<path id="XMLID_477_" class="st10" d="M36.6,10.1v35.4c0,0-18,0.9-19.6,0.9c-1.6,0-2.9-1.3-2.9-2.9V10.1H36.6z"/>
		<path id="XMLID_472_" class="st47" d="M18.9,22c0.1-1.5,1.3-2.7,2.8-2.7s4.5,1.2,4.6,2.7h0V22c0,0,0,0.1,0,0.1c0,0,0,0.1,0,0.1
			v24.1H16c1.7,0,2.9-1.4,2.9-2.9L18.9,22L18.9,22z"/>
		<path id="XMLID_491_" class="st12" d="M19.9,22c0.1-1.5,1.3-2.7,2.8-2.7s4.5,1.2,4.6,2.7h0V22c0,0,0,0.1,0,0.1c0,0,0,0.1,0,0.1
			v24.1H17c1.7,0,2.9-1.4,2.9-2.9L19.9,22L19.9,22z"/>
		<path id="XMLID_488_" class="st21" d="M16,16.6h18.1c0.3,0,0.5-0.2,0.5-0.5v-0.3c0-0.3-0.2-0.5-0.5-0.5H16c-0.3,0-0.5,0.2-0.5,0.5
			v0.3C15.5,16.4,15.8,16.6,16,16.6z"/>
		<path id="XMLID_487_" class="st21" d="M16,19.6h3.3c0.3,0,0.5-0.2,0.5-0.5v-0.3c0-0.3-0.2-0.5-0.5-0.5H16c-0.3,0-0.5,0.2-0.5,0.5
			v0.3C15.5,19.4,15.8,19.6,16,19.6z"/>
		<path id="XMLID_466_" class="st21" d="M16,22.6h1.8c0.3,0,0.5-0.2,0.5-0.5v-0.3c0-0.3-0.2-0.5-0.5-0.5H16c-0.3,0-0.5,0.2-0.5,0.5
			v0.3C15.5,22.3,15.8,22.6,16,22.6z"/>
		<path id="XMLID_467_" class="st21" d="M16,25.5h1.8c0.3,0,0.5-0.2,0.5-0.5v-0.3c0-0.3-0.2-0.5-0.5-0.5H16c-0.3,0-0.5,0.2-0.5,0.5
			V25C15.5,25.3,15.8,25.5,16,25.5z"/>
		<path id="XMLID_468_" class="st21" d="M16,28.5h1.8c0.3,0,0.5-0.2,0.5-0.5v-0.3c0-0.3-0.2-0.5-0.5-0.5H16c-0.3,0-0.5,0.2-0.5,0.5
			V28C15.5,28.3,15.8,28.5,16,28.5z"/>
		<path id="XMLID_469_" class="st21" d="M16,31.4h1.8c0.3,0,0.5-0.2,0.5-0.5v-0.3c0-0.3-0.2-0.5-0.5-0.5H16c-0.3,0-0.5,0.2-0.5,0.5
			v0.3C15.5,31.2,15.8,31.4,16,31.4z"/>
		<path id="XMLID_470_" class="st21" d="M16,34.4h1.8c0.3,0,0.5-0.2,0.5-0.5v-0.3c0-0.3-0.2-0.5-0.5-0.5H16c-0.3,0-0.5,0.2-0.5,0.5
			v0.3C15.5,34.2,15.8,34.4,16,34.4z"/>
		<path id="XMLID_473_" class="st21" d="M16,37.4h1.8c0.3,0,0.5-0.2,0.5-0.5v-0.3c0-0.3-0.2-0.5-0.5-0.5H16c-0.3,0-0.5,0.2-0.5,0.5
			v0.3C15.5,37.1,15.8,37.4,16,37.4z"/>
		<path id="XMLID_474_" class="st21" d="M16,40.3h1.8c0.3,0,0.5-0.2,0.5-0.5v-0.3c0-0.3-0.2-0.5-0.5-0.5H16c-0.3,0-0.5,0.2-0.5,0.5
			v0.3C15.5,40.1,15.8,40.3,16,40.3z"/>
		<path id="XMLID_475_" class="st21" d="M16,43.3h1.8c0.3,0,0.5-0.2,0.5-0.5v-0.3c0-0.3-0.2-0.5-0.5-0.5H16c-0.3,0-0.5,0.2-0.5,0.5
			v0.3C15.5,43.1,15.8,43.3,16,43.3z"/>
		<path id="XMLID_464_" class="st21" d="M16,13.7h18.1c0.3,0,0.5-0.2,0.5-0.5v-0.3c0-0.3-0.2-0.5-0.5-0.5H16c-0.3,0-0.5,0.2-0.5,0.5
			v0.3C15.5,13.5,15.8,13.7,16,13.7z"/>
		<path id="XMLID_479_" class="st47" d="M24.6,22.2v24.3h2.7V22.3c0,0,0-0.1,0-0.1c0,0,0-0.1,0-0.1V22h0c-0.1-1.5-3.1-2.7-4.6-2.7
			c-0.2,0-0.3,0-0.5,0C23.4,19.6,24.6,20.5,24.6,22.2z"/>
		<path id="XMLID_490_" class="st10" d="M22.7,19.3h21.8c1.6,0,2.9,1.3,2.9,2.9v31.7H25.6V22.2C25.6,20.3,24,19.3,22.7,19.3z"/>
		<g id="XMLID_480_">
			<path id="XMLID_481_" class="st48" d="M25.6,22.2v0.3h21.8v-0.3c0-1.6-1.3-2.9-2.9-2.9H22.7C24,19.3,25.6,20.3,25.6,22.2z"/>
			<path id="XMLID_482_" class="st48" d="M25.7,26c0-0.1,0-0.2,0-0.3v28.3h0V26z"/>
		</g>
		<path id="XMLID_489_" class="st11" d="M27.9,25.2h16.9c0.3,0,0.6-0.3,0.6-0.6v-0.1c0-0.3-0.3-0.6-0.6-0.6H27.9
			c-0.3,0-0.6,0.3-0.6,0.6v0.1C27.3,25,27.5,25.2,27.9,25.2z"/>
		<path id="XMLID_438_" class="st11" d="M27.9,28.3h16.9c0.3,0,0.6-0.3,0.6-0.6v-0.1c0-0.3-0.3-0.6-0.6-0.6H27.9
			c-0.3,0-0.6,0.3-0.6,0.6v0.1C27.3,28.1,27.5,28.3,27.9,28.3z"/>
		<path id="XMLID_440_" class="st11" d="M27.9,31.4h16.9c0.3,0,0.6-0.3,0.6-0.6v-0.1c0-0.3-0.3-0.6-0.6-0.6H27.9
			c-0.3,0-0.6,0.3-0.6,0.6v0.1C27.3,31.1,27.5,31.4,27.9,31.4z"/>
		<path id="XMLID_441_" class="st11" d="M27.9,34.5h16.9c0.3,0,0.6-0.3,0.6-0.6v-0.1c0-0.3-0.3-0.6-0.6-0.6H27.9
			c-0.3,0-0.6,0.3-0.6,0.6v0.1C27.3,34.2,27.5,34.5,27.9,34.5z"/>
		<path id="XMLID_442_" class="st11" d="M27.9,37.6h16.9c0.3,0,0.6-0.3,0.6-0.6v-0.1c0-0.3-0.3-0.6-0.6-0.6H27.9
			c-0.3,0-0.6,0.3-0.6,0.6V37C27.3,37.3,27.5,37.6,27.9,37.6z"/>
		<path id="XMLID_454_" class="st11" d="M27.9,40.7h16.9c0.3,0,0.6-0.3,0.6-0.6V40c0-0.3-0.3-0.6-0.6-0.6H27.9
			c-0.3,0-0.6,0.3-0.6,0.6v0.1C27.3,40.4,27.5,40.7,27.9,40.7z"/>
		<path id="XMLID_455_" class="st11" d="M27.9,43.8h16.9c0.3,0,0.6-0.3,0.6-0.6v-0.1c0-0.3-0.3-0.6-0.6-0.6H27.9
			c-0.3,0-0.6,0.3-0.6,0.6v0.1C27.3,43.5,27.5,43.8,27.9,43.8z"/>
		<path id="XMLID_456_" class="st11" d="M27.9,46.9h16.9c0.3,0,0.6-0.3,0.6-0.6v-0.1c0-0.3-0.3-0.6-0.6-0.6H27.9
			c-0.3,0-0.6,0.3-0.6,0.6v0.1C27.3,46.6,27.5,46.9,27.9,46.9z"/>
		<path id="XMLID_457_" class="st11" d="M27.9,50h16.9c0.3,0,0.6-0.3,0.6-0.6v-0.1c0-0.3-0.3-0.6-0.6-0.6H27.9
			c-0.3,0-0.6,0.3-0.6,0.6v0.1C27.3,49.7,27.5,50,27.9,50z"/>
	</g>
	<path id="XMLID_499_" class="st40" d="M46.8,23.3c-0.1-0.2-0.3-0.2-0.4,0l-2.1,5.2v22.1v1.1v1.1c0,0.6,0.5,1.2,1.2,1.2h2.2
		c0.6,0,1.2-0.5,1.2-1.2v-1.1v-1.1V28.4L46.8,23.3z"/>
	<g id="XMLID_471_" class="st7">
		<rect id="XMLID_443_" x="45.4" y="28.4" class="st13" width="4.5" height="22.1"/>
		<path id="XMLID_461_" class="st12" d="M49.8,51.6h-4.5v1.1c0,0.6,0.5,1.2,1.2,1.2h2.2c0.6,0,1.2-0.5,1.2-1.2V51.6z"/>
		<rect id="XMLID_459_" x="45.4" y="50.5" class="st17" width="4.5" height="1.1"/>
		<rect id="XMLID_458_" x="45.4" y="28.4" class="st14" width="2.2" height="22.1"/>
		<path id="XMLID_462_" class="st49" d="M47.4,23.3l-2.1,5.2h4.5l-2.1-5.2C47.7,23.1,47.5,23.1,47.4,23.3z"/>
		<path id="XMLID_465_" class="st17" d="M47.5,22.9L47,24.3h1.2L47.5,22.9C47.6,22.9,47.6,22.9,47.5,22.9z"/>
	</g>
</g>
<g id="XMLID_496_" class="st0">
	<g id="XMLID_1600_" class="st7">
		<g id="XMLID_1601_">
			<g id="XMLID_1602_">
				<path id="XMLID_2256_" class="st8" d="M15,53.4h33.4c1.7,0,3-1.3,3-3V31c0-1-0.8-1.9-1.9-1.9H14.1c-1,0-1.9,0.8-1.9,1.9v19.6
					C12.2,52.1,13.5,53.4,15,53.4z"/>
			</g>
		</g>
		<g id="XMLID_1603_">
			<g id="XMLID_1604_">
				<path id="XMLID_485_" class="st8" d="M12.7,30l16.4-13.4c1.7-1.2,4-1.2,5.7,0l15.5,12.8L12.7,30z"/>
			</g>
		</g>
		<g id="XMLID_1605_">
			<g id="XMLID_1606_" class="st27">
				<g id="XMLID_1607_">
					<polygon id="XMLID_1608_" class="st16" points="40.9,46.7 17.8,46.7 14.6,28.4 18.1,25.6 40.9,28.5 					"/>
				</g>
			</g>
			<g id="XMLID_1609_" class="st27">
				<g id="XMLID_1610_">
					<polygon id="XMLID_484_" class="st16" points="22,46.1 45.2,46.1 48.3,27.7 44.9,24.9 22,27.9 					"/>
				</g>
			</g>
			<g id="XMLID_1611_">
				<g id="XMLID_1612_">
					<path id="XMLID_1613_" class="st49" d="M23.7,10.5l-5.7,5.6v30.6h27.2V12.8c0-1.3-1-2.3-2.3-2.3H23.7z"/>
				</g>
			</g>
			<g id="XMLID_1617_" class="st50">
				<g id="XMLID_1618_">
					<polygon id="XMLID_1619_" class="st16" points="23.3,15.5 17.9,21.7 17.9,16.1 					"/>
				</g>
			</g>
			<g id="XMLID_1614_">
				<g id="XMLID_1615_">
					<path id="XMLID_1616_" class="st12" d="M23.7,10.5l-5.7,5.6h4.2c0.8,0,1.5-0.7,1.5-1.5V10.5z"/>
				</g>
			</g>
		</g>
		<g id="XMLID_1620_">
			<g id="XMLID_1621_">
				<path id="XMLID_2451_" class="st13" d="M13.4,53.5c0,0,15.1-10.6,15.1-11.5L12.7,30c0,0-0.4,1.1-0.4,3.1v19.3
					C12.2,53.3,12.9,53.3,13.4,53.5z"/>
			</g>
		</g>
		<g id="XMLID_1622_">
			<g id="XMLID_1623_">
				<path id="XMLID_2448_" class="st13" d="M50.6,53.5c0,0-14.8-10.8-14.8-11.7l15.4-11.3c0,0,0.6,0.6,0.6,2.7v19.3
					C51.8,53.3,51.1,53.3,50.6,53.5z"/>
			</g>
		</g>
		<g id="XMLID_1624_">
			<g id="XMLID_1625_">
				<path id="XMLID_2445_" class="st8" d="M13.2,53.5l15.9-13.1c1.7-1.2,4-1.2,5.6,0l15.9,13.1H13.2z"/>
			</g>
		</g>
		<g id="XMLID_1657_">
			<g id="XMLID_1658_">
				<g id="XMLID_1659_">
					<path id="XMLID_1660_" class="st12" d="M35.2,30.3c-1.1,0.6-2.3,0.8-3.6,0.8c-3.4,0-6.2-2.5-6.2-6.4c0-4.2,2.9-7.9,7.5-7.9
						c3.6,0,6,2.5,6,5.9c0,3.1-1.7,4.9-3.6,4.9c-0.8,0-1.6-0.6-1.5-1.8h-0.1c-0.7,1.2-1.7,1.8-2.9,1.8c-1.2,0-2.2-1-2.2-2.6
						c0-2.5,2-4.9,4.9-4.9c0.9,0,1.7,0.2,2.2,0.4l-0.7,3.7c-0.3,1.6-0.1,2.3,0.6,2.3c1,0,2.2-1.4,2.2-3.7c0-3-1.8-5.1-5-5.1
						c-3.3,0-6.1,2.6-6.1,6.8c0,3.4,2.2,5.5,5.3,5.5c1.2,0,2.3-0.2,3.1-0.7L35.2,30.3z M34.1,21.4c-0.2-0.1-0.6-0.1-1-0.1
						c-1.8,0-3.3,1.7-3.3,3.7c0,0.9,0.5,1.6,1.4,1.6c1.2,0,2.3-1.5,2.5-2.8L34.1,21.4z"/>
				</g>
			</g>
		</g>
	</g>
	<path id="XMLID_476_" class="st40" d="M48.6,49.1v3.4H38.6c0.3-2.8-1.4-5.5-4-6.5c-3.7-1.4-7.8,0.8-8.5,4.8
		C26,51.2,26,51.9,26,52.5H15.9v-3.3c0-0.7,0.6-1.3,1.3-1.3l2.8,0c0.4,0,0.8-0.3,1-0.7c0.1-0.3,0.2-0.6,0.3-0.8
		c0.2-0.4,0.1-0.9-0.2-1.2l-2-2c-0.5-0.5-0.5-1.3,0-1.8l3.2-3.2c0.5-0.5,1.3-0.5,1.8,0l1.9,1.9c0.3,0.3,0.8,0.4,1.2,0.2
		c0.3-0.1,0.5-0.2,0.8-0.3c0.4-0.2,0.7-0.5,0.7-1v-2.7c0-0.7,0.6-1.3,1.3-1.3h4.5c0.7,0,1.3,0.6,1.3,1.3v2.8c0,0.4,0.3,0.8,0.7,1
		c0.3,0.1,0.6,0.2,0.8,0.3c0.4,0.2,0.9,0.1,1.2-0.2l2-2c0.5-0.5,1.3-0.5,1.8,0l3.2,3.2c0.5,0.5,0.5,1.3,0,1.8l-1.9,1.9
		c-0.3,0.3-0.4,0.8-0.2,1.2c0.1,0.2,0.2,0.5,0.3,0.8c0.2,0.4,0.6,0.7,1,0.7l2.7,0C48.1,47.8,48.6,48.4,48.6,49.1z"/>
	<path id="XMLID_478_" class="st2" d="M48.6,50.1v3.4H38.6c0.3-2.8-1.4-5.5-4-6.5c-3.7-1.4-7.8,0.8-8.5,4.8C26,52.2,26,52.9,26,53.5
		H15.9v-3.3c0-0.7,0.6-1.3,1.3-1.3l2.8,0c0.4,0,0.8-0.3,1-0.7c0.1-0.3,0.2-0.6,0.3-0.8c0.2-0.4,0.1-0.9-0.2-1.2l-2-2
		c-0.5-0.5-0.5-1.3,0-1.8l3.2-3.2c0.5-0.5,1.3-0.5,1.8,0l1.9,1.9c0.3,0.3,0.8,0.4,1.2,0.2c0.3-0.1,0.5-0.2,0.8-0.3
		c0.4-0.2,0.7-0.5,0.7-1v-2.7c0-0.7,0.6-1.3,1.3-1.3h4.5c0.7,0,1.3,0.6,1.3,1.3v2.8c0,0.4,0.3,0.8,0.7,1c0.3,0.1,0.6,0.2,0.8,0.3
		c0.4,0.2,0.9,0.1,1.2-0.2l2-2c0.5-0.5,1.3-0.5,1.8,0l3.2,3.2c0.5,0.5,0.5,1.3,0,1.8l-1.9,1.9c-0.3,0.3-0.4,0.8-0.2,1.2
		c0.1,0.2,0.2,0.5,0.3,0.8c0.2,0.4,0.6,0.7,1,0.7l2.7,0C48.1,48.8,48.6,49.4,48.6,50.1z"/>
</g>
<g id="XMLID_519_" class="st0">
	<path id="XMLID_515_" class="st6" d="M53.8,14.2v15.1c0,1.9-1.5,3.4-3.4,3.4h-1.6v3.5v4.7c0,0.4-0.5,0.5-0.7,0.2l-8.7-8.4h-18
		c-1.9,0-3.4-1.5-3.4-3.4V14.2c0-1.9,1.5-3.4,3.4-3.4h29C52.3,10.8,53.8,12.3,53.8,14.2z"/>
	<path id="XMLID_509_" class="st4" d="M50.1,18.2H33.4c-0.5,0-0.9-0.4-0.9-0.9l0,0c0-0.5,0.4-0.9,0.9-0.9h16.7
		c0.5,0,0.9,0.4,0.9,0.9l0,0C51,17.8,50.6,18.2,50.1,18.2z"/>
	<path id="XMLID_508_" class="st4" d="M50.1,22.8H33.4c-0.5,0-0.9-0.4-0.9-0.9l0,0c0-0.5,0.4-0.9,0.9-0.9h16.7
		c0.5,0,0.9,0.4,0.9,0.9l0,0C51,22.4,50.6,22.8,50.1,22.8z"/>
	<path id="XMLID_507_" class="st4" d="M50.1,27.3H39.3c-0.5,0-0.9-0.4-0.9-0.9l0,0c0-0.5,0.4-0.9,0.9-0.9h10.8
		c0.5,0,0.9,0.4,0.9,0.9l0,0C51,26.9,50.6,27.3,50.1,27.3z"/>
	<g id="XMLID_517_" class="st7">
		<path id="XMLID_520_" class="st13" d="M20.1,53.1L17.8,52c0,0-0.1,0-0.1,0l-2.3,1.3c-0.1,0.1-0.2,0-0.2-0.2l0.4-2.6
			c0-0.1,0-0.1,0-0.1l-1.9-1.8c-0.1-0.1,0-0.2,0.1-0.3l2.6-0.4c0.1,0,0.1,0,0.1-0.1l1.1-2.4c0.1-0.1,0.2-0.1,0.3,0l1.2,2.3
			c0,0,0.1,0.1,0.1,0.1l2.6,0.3c0.1,0,0.2,0.2,0.1,0.3l-1.9,1.9c0,0-0.1,0.1,0,0.1l0.5,2.6C20.4,53.1,20.2,53.2,20.1,53.1z"/>
		<path id="XMLID_510_" class="st13" d="M29.6,53.1L27.3,52c0,0-0.1,0-0.1,0l-2.3,1.3c-0.1,0.1-0.2,0-0.2-0.2l0.4-2.6
			c0-0.1,0-0.1,0-0.1L23,48.5c-0.1-0.1,0-0.2,0.1-0.3l2.6-0.4c0.1,0,0.1,0,0.1-0.1l1.1-2.4c0.1-0.1,0.2-0.1,0.3,0l1.2,2.3
			c0,0,0.1,0.1,0.1,0.1l2.6,0.3c0.1,0,0.2,0.2,0.1,0.3l-1.9,1.9c0,0-0.1,0.1,0,0.1l0.5,2.6C29.9,53.1,29.7,53.2,29.6,53.1z"/>
		<path id="XMLID_511_" class="st13" d="M39.1,53.1L36.8,52c0,0-0.1,0-0.1,0l-2.3,1.3c-0.1,0.1-0.2,0-0.2-0.2l0.4-2.6
			c0-0.1,0-0.1,0-0.1l-1.9-1.8c-0.1-0.1,0-0.2,0.1-0.3l2.6-0.4c0.1,0,0.1,0,0.1-0.1l1.1-2.4c0.1-0.1,0.2-0.1,0.3,0l1.2,2.3
			c0,0,0.1,0.1,0.1,0.1l2.6,0.3c0.1,0,0.2,0.2,0.1,0.3l-1.9,1.9c0,0-0.1,0.1,0,0.1l0.5,2.6C39.4,53.1,39.2,53.2,39.1,53.1z"/>
		<path id="XMLID_512_" class="st13" d="M48.6,53.1L46.3,52c0,0-0.1,0-0.1,0l-2.3,1.3c-0.1,0.1-0.2,0-0.2-0.2l0.4-2.6
			c0-0.1,0-0.1,0-0.1L42,48.5c-0.1-0.1,0-0.2,0.1-0.3l2.6-0.4c0.1,0,0.1,0,0.1-0.1l1.1-2.4c0.1-0.1,0.2-0.1,0.3,0l1.2,2.3
			c0,0,0.1,0.1,0.1,0.1l2.6,0.3c0.1,0,0.2,0.2,0.1,0.3l-1.9,1.9c0,0-0.1,0.1,0,0.1l0.5,2.6C48.9,53.1,48.7,53.2,48.6,53.1z"/>
	</g>
	<path id="XMLID_506_" class="st34" d="M35.9,15.1h-18v14.2c0,1.9,1.5,3.4,3.4,3.4h18V18.6C39.4,16.6,37.8,15.1,35.9,15.1z"/>
	<path id="XMLID_503_" class="st2" d="M10.2,18.6v15.1c0,1.9,1.5,3.4,3.4,3.4h1.6v3.5v4.7c0,0.4,0.5,0.5,0.7,0.2l8.7-8.4h10.3
		c1.9,0,3.4-1.5,3.4-3.4V18.6c0-1.9-1.5-3.4-3.4-3.4H13.6C11.7,15.1,10.2,16.6,10.2,18.6z"/>
	<path id="XMLID_502_" class="st4" d="M32.6,21.7H15.9c-0.5,0-0.9-0.4-0.9-0.9l0,0c0-0.5,0.4-0.9,0.9-0.9h16.7
		c0.5,0,0.9,0.4,0.9,0.9l0,0C33.5,21.3,33.1,21.7,32.6,21.7z"/>
	<path id="XMLID_504_" class="st4" d="M32.6,26.3H15.9c-0.5,0-0.9-0.4-0.9-0.9l0,0c0-0.5,0.4-0.9,0.9-0.9h16.7
		c0.5,0,0.9,0.4,0.9,0.9l0,0C33.5,25.9,33.1,26.3,32.6,26.3z"/>
	<path id="XMLID_505_" class="st4" d="M32.6,30.8H21.8c-0.5,0-0.9-0.4-0.9-0.9l0,0c0-0.5,0.4-0.9,0.9-0.9h10.8
		c0.5,0,0.9,0.4,0.9,0.9l0,0C33.5,30.4,33.1,30.8,32.6,30.8z"/>
</g>
<g id="XMLID_184_" class="st0">
	<g id="XMLID_549_" class="st7">
		<g id="XMLID_556_">
			<g id="XMLID_557_">
				<path id="XMLID_558_" class="st10" d="M46.8,11.5l5.3,5.1v25.6c0,1.4-1.1,2.5-2.5,2.5H29.7c-1.4,0-2.5-1.1-2.5-2.5V14
					c0-1.4,1.1-2.5,2.5-2.5H46.8z"/>
			</g>
		</g>
		<g id="XMLID_553_" class="st50">
			<g id="XMLID_554_">
				<polygon id="XMLID_555_" class="st16" points="47.2,16.1 52.1,21.8 52.1,16.6 				"/>
			</g>
		</g>
		<g id="XMLID_550_">
			<g id="XMLID_551_">
				<path id="XMLID_552_" class="st12" d="M46.8,11.5l5.3,5.1h-3.9c-0.8,0-1.4-0.6-1.4-1.4V11.5z"/>
			</g>
		</g>
		<path id="XMLID_524_" class="st17" d="M31.6,21.7H47c0.5,0,0.9-0.4,0.9-0.9l0,0c0-0.5-0.4-0.9-0.9-0.9H31.6
			c-0.5,0-0.9,0.4-0.9,0.9l0,0C30.6,21.3,31,21.7,31.6,21.7z"/>
		<path id="XMLID_525_" class="st17" d="M31.6,26H47c0.5,0,0.9-0.4,0.9-0.9l0,0c0-0.5-0.4-0.9-0.9-0.9H31.6c-0.5,0-0.9,0.4-0.9,0.9
			l0,0C30.6,25.6,31,26,31.6,26z"/>
		<path id="XMLID_526_" class="st17" d="M31.6,30.4H47c0.5,0,0.9-0.4,0.9-0.9l0,0c0-0.5-0.4-0.9-0.9-0.9H31.6
			c-0.5,0-0.9,0.4-0.9,0.9l0,0C30.6,29.9,31,30.4,31.6,30.4z"/>
		<path id="XMLID_527_" class="st17" d="M31.6,34.7H47c0.5,0,0.9-0.4,0.9-0.9l0,0c0-0.5-0.4-0.9-0.9-0.9H31.6
			c-0.5,0-0.9,0.4-0.9,0.9l0,0C30.6,34.3,31,34.7,31.6,34.7z"/>
		<path id="XMLID_528_" class="st17" d="M31.6,39H47c0.5,0,0.9-0.4,0.9-0.9l0,0c0-0.5-0.4-0.9-0.9-0.9H31.6c-0.5,0-0.9,0.4-0.9,0.9
			l0,0C30.6,38.6,31,39,31.6,39z"/>
	</g>
	<path id="XMLID_182_" class="st6" d="M24.9,52.5h25.5c1.7,0,3.1-1.4,3.1-3.1V31.6c0-1.7-1.4-3.1-3.1-3.1h-5.9c-1,0-1.9,0.5-2.4,1.2
		h0c-0.6,0.8-1.6,1.3-2.7,1.3H24.9c-1.7,0-3.1,1.4-3.1,3.1v15.2C21.8,51.1,23.2,52.5,24.9,52.5z"/>
	<path id="XMLID_534_" class="st34" d="M24.8,31c-1.7,0-3,1.3-3,3v15.4c0,0.5,0.2,1.1,0.4,1.5c0.7,0.6,1.3,1,1.7,1.4
		c0.3,0.1,0.5,0.1,0.8,0.1h1c2.6-1.9,10.9-8.8,12.4-21.4H24.8z"/>
	<g id="XMLID_513_" class="st7">
		<path id="XMLID_522_" class="st12" d="M24,52.4c0,0-13.4-7.7-13.4-26L24,22.8l13.4,3.6C37.4,44.3,24,52.4,24,52.4z"/>
		<circle id="XMLID_516_" class="st26" cx="24" cy="35.7" r="7.2"/>
		<g id="XMLID_521_">
			<polygon id="XMLID_523_" class="st15" points="22.6,39.6 19.5,36.2 21.3,34.5 22.7,35.9 26.7,31.9 28.5,33.7 			"/>
		</g>
	</g>
</g>
<g id="XMLID_181_" class="st0">
	<rect id="XMLID_1404_" x="28.3" y="42.9" class="st51" width="2.7" height="5.2"/>
	<rect id="XMLID_1399_" x="27.1" y="47" class="st6" width="5.2" height="7.3"/>
	<path id="XMLID_1401_" class="st2" d="M29.6,14.6c-8.8,0-15.9,7.1-15.9,15.9c0,8.8,7.1,15.9,15.9,15.9c8.8,0,15.9-7.1,15.9-15.9
		C45.5,21.7,38.4,14.6,29.6,14.6z M29.6,43c-6.9,0-12.5-5.6-12.5-12.5s5.6-12.5,12.5-12.5c6.9,0,12.5,5.6,12.5,12.5
		C42.1,37.3,36.5,43,29.6,43z"/>
	<path id="XMLID_613_" class="st31" d="M42.2,30.4c0-7-5.7-12.6-12.6-12.6c-7,0-12.6,5.7-12.6,12.6c0,7,5.7,12.6,12.6,12.6
		C36.6,43,42.2,37.4,42.2,30.4z M29.6,41.8c-6.3,0-11.4-5.1-11.4-11.4S23.3,19,29.6,19C35.9,19,41,24.1,41,30.4
		C41,36.7,35.9,41.8,29.6,41.8z"/>
	<rect id="XMLID_1400_" x="26.9" y="47" class="st52" width="2.7" height="7.3"/>
	<g id="XMLID_1377_" class="st7">
		<path id="XMLID_1395_" class="st15" d="M22.4,36.4c-0.4-0.4-0.8-0.9-1.1-1.3c-0.3-0.5-0.6-1-0.8-1.5c-0.2-0.5-0.4-1.1-0.5-1.7
			c-0.1-0.6-0.2-1.2-0.2-1.8c0-0.6,0.1-1.2,0.2-1.8c0.1-0.6,0.3-1.1,0.5-1.7c0.2-0.5,0.5-1,0.8-1.5c0.3-0.5,0.7-0.9,1.1-1.3l0.7,0.7
			c-0.4,0.4-0.7,0.8-1,1.2c-0.3,0.4-0.5,0.9-0.7,1.4c-0.2,0.5-0.4,1-0.5,1.5c-0.1,0.5-0.2,1.1-0.2,1.6c0,0.5,0.1,1.1,0.2,1.6
			c0.1,0.5,0.3,1,0.5,1.5c0.2,0.5,0.4,0.9,0.7,1.4c0.3,0.4,0.6,0.8,1,1.2L22.4,36.4z"/>
	</g>
	<circle id="XMLID_602_" class="st6" cx="29.5" cy="30.5" r="12"/>
	<circle id="XMLID_601_" class="st4" cx="29.5" cy="30.5" r="9.2"/>
	<circle id="XMLID_600_" class="st6" cx="29.5" cy="30.5" r="5.9"/>
	<circle id="XMLID_599_" class="st4" cx="29.5" cy="30.5" r="3.3"/>
	<polygon id="XMLID_598_" class="st3" points="29.9,29.1 29,29.9 39.8,40.7 40.6,39.8 	"/>
	<polygon id="XMLID_597_" class="st6" points="41.2,18 41.2,14.7 46.2,9.7 45.6,13.5 	"/>
	<polygon id="XMLID_596_" class="st22" points="41.2,17 41.2,18 45.6,13.5 45.8,12.4 	"/>
	<polygon id="XMLID_595_" class="st6" points="42,18.6 45.3,18.6 50.3,13.6 46.5,14.2 	"/>
	<polygon id="XMLID_594_" class="st22" points="43,18.6 47.6,14 46.5,14.2 42,18.6 	"/>
	
		<rect id="XMLID_593_" x="37.1" y="10.6" transform="matrix(0.7071 0.7071 -0.7071 0.7071 26.7157 -20.1324)" class="st53" width="1.2" height="23.2"/>
	<g id="XMLID_514_" class="st7">
		<g id="XMLID_591_">
			<rect id="XMLID_592_" x="29.2" y="21.7" class="st12" width="0.6" height="1.8"/>
		</g>
		<g id="XMLID_589_">
			
				<rect id="XMLID_590_" x="31.2" y="22" transform="matrix(0.9662 0.2577 -0.2577 0.9662 6.96 -7.3478)" class="st12" width="0.6" height="1.8"/>
		</g>
		<g id="XMLID_587_">
			
				<rect id="XMLID_588_" x="33" y="22.8" transform="matrix(0.8659 0.5003 -0.5003 0.8659 16.3075 -13.498)" class="st12" width="0.6" height="1.8"/>
		</g>
		<g id="XMLID_585_">
			
				<rect id="XMLID_586_" x="35.8" y="25.6" transform="matrix(0.5003 0.8659 -0.8659 0.5003 40.9599 -17.9861)" class="st12" width="0.6" height="1.8"/>
		</g>
		<g id="XMLID_583_">
			
				<rect id="XMLID_584_" x="36.5" y="27.5" transform="matrix(0.2599 0.9656 -0.9656 0.2599 54.5903 -14.5555)" class="st12" width="0.6" height="1.8"/>
		</g>
		<g id="XMLID_581_">
			<rect id="XMLID_582_" x="36.1" y="30" class="st12" width="1.8" height="0.6"/>
		</g>
		<g id="XMLID_579_">
			
				<rect id="XMLID_580_" x="35.8" y="32" transform="matrix(0.9662 0.2578 -0.2578 0.9662 9.5602 -8.3769)" class="st12" width="1.8" height="0.6"/>
		</g>
		<g id="XMLID_577_">
			
				<rect id="XMLID_578_" x="35.1" y="33.8" transform="matrix(0.8665 0.4991 -0.4991 0.8665 21.8133 -13.3876)" class="st12" width="1.8" height="0.6"/>
		</g>
		<g id="XMLID_575_">
			
				<rect id="XMLID_576_" x="33.8" y="35.3" transform="matrix(0.708 0.7063 -0.7063 0.708 35.3106 -14.1006)" class="st12" width="1.8" height="0.6"/>
		</g>
		<g id="XMLID_573_">
			
				<rect id="XMLID_574_" x="32.2" y="36.5" transform="matrix(0.5015 0.8652 -0.8652 0.5015 48.3708 -10.2878)" class="st12" width="1.8" height="0.6"/>
		</g>
		<g id="XMLID_571_">
			
				<rect id="XMLID_572_" x="30.4" y="37.3" transform="matrix(0.2604 0.9655 -0.9655 0.2604 59.3877 -2.4108)" class="st12" width="1.8" height="0.6"/>
		</g>
		<g id="XMLID_569_">
			<rect id="XMLID_570_" x="29" y="36.9" class="st12" width="0.6" height="1.8"/>
		</g>
		<g id="XMLID_567_">
			
				<rect id="XMLID_568_" x="27" y="36.6" transform="matrix(0.9662 0.2578 -0.2578 0.9662 10.5904 -5.7789)" class="st12" width="0.6" height="1.8"/>
		</g>
		<g id="XMLID_565_">
			
				<rect id="XMLID_566_" x="25.2" y="35.8" transform="matrix(0.8673 0.4977 -0.4977 0.8673 21.6558 -7.8277)" class="st12" width="0.6" height="1.8"/>
		</g>
		<g id="XMLID_563_">
			
				<rect id="XMLID_564_" x="23.7" y="34.6" transform="matrix(0.7089 0.7053 -0.7053 0.7089 31.9969 -6.5689)" class="st12" width="0.6" height="1.8"/>
		</g>
		<g id="XMLID_561_">
			
				<rect id="XMLID_562_" x="22.5" y="33" transform="matrix(0.5016 0.8651 -0.8651 0.5016 40.6654 -2.811)" class="st12" width="0.6" height="1.8"/>
		</g>
		<g id="XMLID_559_">
			
				<rect id="XMLID_560_" x="21.7" y="31.2" transform="matrix(0.262 0.9651 -0.9651 0.262 47.1909 2.378)" class="st12" width="0.6" height="1.8"/>
		</g>
		<g id="XMLID_543_">
			<rect id="XMLID_544_" x="20.9" y="29.8" class="st12" width="1.8" height="0.6"/>
		</g>
		<g id="XMLID_537_">
			
				<rect id="XMLID_538_" x="21.2" y="27.8" transform="matrix(0.9666 0.2565 -0.2565 0.9666 7.9484 -4.7273)" class="st12" width="1.8" height="0.6"/>
		</g>
		<g id="XMLID_535_">
			
				<rect id="XMLID_536_" x="22" y="26" transform="matrix(0.8674 0.4975 -0.4975 0.8674 16.1127 -7.9011)" class="st12" width="1.8" height="0.6"/>
		</g>
		<g id="XMLID_532_">
			
				<rect id="XMLID_533_" x="23.2" y="24.4" transform="matrix(0.709 0.7052 -0.7052 0.709 24.4589 -9.8089)" class="st12" width="1.8" height="0.6"/>
		</g>
		<g id="XMLID_530_">
			
				<rect id="XMLID_531_" x="24.8" y="23.2" transform="matrix(0.5024 0.8646 -0.8646 0.5024 33.1479 -10.5097)" class="st12" width="1.8" height="0.6"/>
		</g>
		<g id="XMLID_518_">
			
				<rect id="XMLID_529_" x="26.7" y="22.5" transform="matrix(0.2619 0.9651 -0.9651 0.2619 42.351 -9.7489)" class="st12" width="1.8" height="0.6"/>
		</g>
	</g>
</g>
</svg>
