<?xml version="1.0" encoding="utf-8"?>
<!-- Generator: Adobe Illustrator 19.0.0, SVG Export Plug-In . SVG Version: 6.00 Build 0)  -->
<svg version="1.1" id="Icons" xmlns="http://www.w3.org/2000/svg" xmlns:xlink="http://www.w3.org/1999/xlink" x="0px" y="0px"
	 viewBox="0 0 64 64" style="enable-background:new 0 0 64 64;" xml:space="preserve">
<style type="text/css">
	.st0{display:none;}
	.st1{display:inline;}
	.st2{fill:#D8D8D8;}
	.st3{fill:#ECECEC;}
	.st4{fill:#673AB7;}
	.st5{fill:#A489D4;}
	.st6{fill:#FFFFFF;}
	.st7{fill:#FFC107;}
	.st8{fill:#FFDA6A;}
	.st9{fill:#F1F2F2;}
	.st10{fill:#212121;}
	.st11{fill:#7A7A7A;}
	.st12{fill:#FFE836;}
	.st13{opacity:0.3;}
	.st14{fill:#231F20;}
	.st15{fill:#4D2C89;}
	.st16{fill:#FAFAFA;}
	.st17{fill:#C5C5C5;}
	.st18{fill:#373737;}
	.st19{display:inline;opacity:0.3;fill:#231F20;}
	.st20{display:inline;opacity:0.3;fill:#212121;}
	.st21{fill:#FFB333;}
	.st22{fill:#FFA000;}
	.st23{display:inline;fill:#ECECEC;}
	.st24{display:inline;fill:#673AB7;}
	.st25{display:inline;fill:#D8D8D8;}
	.st26{fill:#FFCD39;}
	.st27{fill:#B1B1B1;}
	.st28{opacity:0.3;fill:#231F20;}
	.st29{display:inline;fill:#E0632F;}
	.st30{fill:#8561C5;}
	.st31{display:inline;fill:#FFC107;}
	.st32{fill:#7F5AC3;}
	.st33{fill:#7952C0;}
	.st34{fill:#7248BC;}
	.st35{fill:#6A3EB8;}
	.st36{display:inline;fill:#4D2C89;}
	.st37{display:inline;fill:#9E9E9E;}
	.st38{display:inline;fill:#E6E7E8;}
	.st39{display:inline;fill:#FFA000;}
	.st40{opacity:0.2;fill:#414042;}
	.st41{display:inline;fill:none;stroke:#212121;stroke-miterlimit:10;}
	.st42{fill:#FFED5E;}
	.st43{display:inline;fill:#212121;}
	.st44{display:inline;fill:#FFFFFF;}
	.st45{fill:#E6E7E8;}
	.st46{fill:#53667F;}
	.st47{fill:#FBD451;}
	.st48{display:inline;fill:#8561C5;}
	.st49{fill:#FFC9B4;}
	.st50{fill:#FFD8CA;}
	.st51{fill:#CF9C89;}
	.st52{fill:#414042;}
	.st53{fill:#4D4D4D;}
	.st54{opacity:0.1;}
	.st55{display:inline;opacity:0.3;}
	.st56{fill:#754CBD;}
</style>
<g id="XMLID_118_" class="st0">
	<g id="XMLID_122_" class="st1">
		<polygon id="XMLID_230_" class="st2" points="48.5,36 15.7,36 15.7,32.5 14.9,31.9 49.3,31.9 48.6,32.5 		"/>
		<rect id="XMLID_103_" x="14.9" y="31.5" class="st3" width="34.5" height="0.4"/>
		<rect id="XMLID_223_" x="13.7" y="39" class="st2" width="36.8" height="12"/>
		<rect id="XMLID_83_" x="16.3" y="43.5" class="st4" width="9.7" height="7.1"/>
		<g id="XMLID_217_">
			<polygon id="XMLID_221_" class="st5" points="26,44 26,43.5 24.8,43.5 17.7,50.7 19.3,50.7 			"/>
			<polygon id="XMLID_220_" class="st5" points="19.6,43.5 16.3,46.9 16.3,50.7 16.9,50.7 24.1,43.5 			"/>
			<polygon id="XMLID_219_" class="st5" points="26,49.5 26,47.2 22.5,50.7 24.8,50.7 			"/>
		</g>
		<polygon id="XMLID_81_" class="st4" points="48.5,40.1 48.5,50.6 27.5,50.6 27.5,40.1 		"/>
		<g id="XMLID_85_">
			<polygon id="XMLID_86_" class="st5" points="33.9,40.1 27.5,46.5 27.5,50.6 28.9,50.6 39.4,40.1 			"/>
			<polygon id="XMLID_87_" class="st5" points="44.5,40.1 41.5,40.1 31,50.6 34.1,50.6 			"/>
			<polygon id="XMLID_88_" class="st5" points="48.5,47.1 48.5,41.3 39.2,50.6 45.1,50.6 			"/>
		</g>
		<path id="XMLID_80_" class="st3" d="M51.3,39.2H12.8c-0.1,0-0.2-0.1-0.2-0.2l-0.8-3.6c0-0.1,0-0.2,0.1-0.2h40.3
			c0.1,0,0.2,0.1,0.1,0.2L51.5,39C51.5,39.1,51.4,39.2,51.3,39.2z"/>
		<rect id="XMLID_205_" x="12.6" y="51" class="st4" width="38.9" height="1"/>
		<path id="XMLID_69_" class="st6" d="M27.4,41.9L27.4,41.9c-0.5,0-0.9-0.4-0.9-0.9v-0.9h1.8V41C28.3,41.5,27.9,41.9,27.4,41.9z"/>
		<path id="XMLID_68_" class="st7" d="M29.2,41.9L29.2,41.9c-0.5,0-0.9-0.4-0.9-0.9v-0.9h1.8V41C30.1,41.5,29.7,41.9,29.2,41.9z"/>
		<path id="XMLID_67_" class="st6" d="M30.9,41.9L30.9,41.9c-0.5,0-0.9-0.4-0.9-0.9v-0.9h1.8V41C31.8,41.5,31.4,41.9,30.9,41.9z"/>
		<path id="XMLID_62_" class="st7" d="M32.7,41.9L32.7,41.9c-0.5,0-0.9-0.4-0.9-0.9v-0.9h1.8V41C33.6,41.5,33.2,41.9,32.7,41.9z"/>
		<path id="XMLID_20_" class="st6" d="M34.4,41.9L34.4,41.9c-0.5,0-0.9-0.4-0.9-0.9v-0.9h1.8V41C35.3,41.5,34.9,41.9,34.4,41.9z"/>
		<path id="XMLID_19_" class="st7" d="M36.2,41.9L36.2,41.9c-0.5,0-0.9-0.4-0.9-0.9v-0.9h1.8V41C37.1,41.5,36.7,41.9,36.2,41.9z"/>
		<path id="XMLID_18_" class="st6" d="M38,41.9L38,41.9c-0.5,0-0.9-0.4-0.9-0.9v-0.9h1.8V41C38.8,41.5,38.4,41.9,38,41.9z"/>
		<path id="XMLID_17_" class="st7" d="M39.7,41.9L39.7,41.9c-0.5,0-0.9-0.4-0.9-0.9v-0.9h1.8V41C40.6,41.5,40.2,41.9,39.7,41.9z"/>
		<path id="XMLID_16_" class="st6" d="M41.5,41.9L41.5,41.9c-0.5,0-0.9-0.4-0.9-0.9v-0.9h1.8V41C42.4,41.5,42,41.9,41.5,41.9z"/>
		<path id="XMLID_15_" class="st7" d="M43.2,41.9L43.2,41.9c-0.5,0-0.9-0.4-0.9-0.9v-0.9h1.8V41C44.1,41.5,43.7,41.9,43.2,41.9z"/>
		<path id="XMLID_11_" class="st6" d="M45,41.9L45,41.9c-0.5,0-0.9-0.4-0.9-0.9v-0.9h1.8V41C45.9,41.5,45.5,41.9,45,41.9z"/>
		<path id="XMLID_9_" class="st7" d="M46.8,41.9L46.8,41.9c-0.5,0-0.9-0.4-0.9-0.9v-0.9h1.8V41C47.6,41.5,47.2,41.9,46.8,41.9z"/>
		<path id="XMLID_8_" class="st6" d="M48.5,41.9L48.5,41.9c-0.5,0-0.9-0.4-0.9-0.9v-0.9h1.8V41C49.4,41.5,49,41.9,48.5,41.9z"/>
		<polygon id="XMLID_167_" class="st6" points="27.1,39.2 26.5,40.1 28.3,40.1 28.7,39.2 		"/>
		<polygon id="XMLID_84_" class="st8" points="30.4,39.2 28.7,39.2 28.3,40.1 30.1,40.1 		"/>
		<polygon id="XMLID_82_" class="st6" points="32.1,39.2 30.4,39.2 30.1,40.1 31.8,40.1 		"/>
		<polygon id="XMLID_164_" class="st8" points="32.1,39.2 31.8,40.1 33.6,40.1 33.8,39.2 		"/>
		<polygon id="XMLID_163_" class="st6" points="33.8,39.2 33.6,40.1 35.3,40.1 35.4,39.2 		"/>
		<polygon id="XMLID_79_" class="st8" points="37.1,39.2 35.4,39.2 35.3,40.1 37.1,40.1 		"/>
		<polygon id="XMLID_161_" class="st6" points="38.8,39.2 37.1,39.2 37.1,40.1 38.8,40.1 		"/>
		<polygon id="XMLID_77_" class="st8" points="40.5,39.2 38.8,39.2 38.8,40.1 40.6,40.1 		"/>
		<polygon id="XMLID_159_" class="st6" points="42.2,39.2 40.5,39.2 40.6,40.1 42.3,40.1 		"/>
		<polygon id="XMLID_158_" class="st8" points="43.8,39.2 42.2,39.2 42.3,40.1 44.1,40.1 		"/>
		<polygon id="XMLID_157_" class="st6" points="45.5,39.2 43.8,39.2 44.1,40.1 45.8,40.1 		"/>
		<polygon id="XMLID_156_" class="st8" points="47.2,39.2 45.5,39.2 45.8,40.1 47.6,40.1 		"/>
		<polygon id="XMLID_155_" class="st6" points="48.9,39.2 47.2,39.2 47.6,40.1 49.3,40.1 		"/>
		<rect id="XMLID_59_" x="16.3" y="41.1" class="st4" width="9.7" height="2"/>
		<g id="XMLID_131_">
			<polygon id="XMLID_134_" class="st5" points="22.1,41.1 21.1,41.1 19.1,43.2 20,43.2 			"/>
			<polygon id="XMLID_133_" class="st5" points="20.7,41.1 17.8,41.1 16.3,42.7 16.3,43.2 18.7,43.2 			"/>
			<polygon id="XMLID_132_" class="st5" points="25.8,41.1 24.9,41.1 22.8,43.2 23.8,43.2 			"/>
		</g>
		<rect id="XMLID_75_" x="21.4" y="35.9" class="st4" width="21.4" height="2.6"/>
		<rect id="XMLID_76_" x="22" y="36.3" class="st6" width="20.2" height="1.8"/>
	</g>
	<g id="XMLID_104_" class="st1">
		<polygon id="XMLID_121_" class="st9" points="53.3,43.5 53.2,43.5 52.9,43.9 52.9,48.4 53.6,48.4 53.6,43.9 		"/>
		<polygon id="XMLID_120_" class="st10" points="53.3,43.5 53.2,43.5 52.9,43.9 52.9,48.4 53.6,48.4 53.6,43.9 		"/>
		<polygon id="XMLID_119_" class="st11" points="53.4,43.6 53.3,43.5 53.2,43.5 52.9,43.9 52.9,48.4 53.2,48.4 53.2,43.9 		"/>
		<circle id="XMLID_113_" class="st7" cx="53.3" cy="41.5" r="2.1"/>
		<path id="XMLID_110_" class="st12" d="M55.3,41.5c0-1.1-0.9-2.1-2.1-2.1c-0.4,0-0.7,0.1-1,0.3c0.2,0,0.3-0.1,0.5-0.1
			c1.2,0,2.2,1,2.2,2.2c0,0.4-0.1,0.8-0.4,1.2C55,42.7,55.3,42.1,55.3,41.5z"/>
		<rect id="XMLID_108_" x="52.7" y="48.3" class="st10" width="1.1" height="3.7"/>
		<rect id="XMLID_107_" x="52.7" y="48.3" class="st11" width="0.4" height="3.7"/>
	</g>
	<g id="XMLID_6_" class="st1">
		<polygon id="XMLID_93_" class="st9" points="10.8,43.5 10.7,43.5 10.4,43.9 10.4,48.4 11.1,48.4 11.1,43.9 		"/>
		<polygon id="XMLID_92_" class="st10" points="10.8,43.5 10.7,43.5 10.4,43.9 10.4,48.4 11.1,48.4 11.1,43.9 		"/>
		<polygon id="XMLID_91_" class="st11" points="10.9,43.6 10.8,43.5 10.7,43.5 10.4,43.9 10.4,48.4 10.7,48.4 10.7,43.9 		"/>
		<circle id="XMLID_90_" class="st7" cx="10.8" cy="41.5" r="2.1"/>
		<path id="XMLID_89_" class="st12" d="M12.8,41.5c0-1.1-0.9-2.1-2.1-2.1c-0.4,0-0.7,0.1-1,0.3c0.2,0,0.3-0.1,0.5-0.1
			c1.2,0,2.2,1,2.2,2.2c0,0.4-0.1,0.8-0.4,1.2C12.5,42.7,12.8,42.1,12.8,41.5z"/>
		<rect id="XMLID_78_" x="10.2" y="48.3" class="st10" width="1.1" height="3.7"/>
		<rect id="XMLID_7_" x="10.2" y="48.3" class="st11" width="0.4" height="3.7"/>
	</g>
	<g id="XMLID_236_" class="st1">
		<g id="XMLID_224_">
			<circle id="XMLID_117_" class="st7" cx="34.4" cy="22" r="5.5"/>
		</g>
		<g id="XMLID_225_">
			<circle id="XMLID_116_" class="st8" cx="34.4" cy="22" r="3.9"/>
		</g>
		<g id="XMLID_241_" class="st13">
			<path id="XMLID_94_" class="st14" d="M39.9,22C39.9,22,39.9,22,39.9,22c-0.5-0.3-1-0.5-1.7-0.5c-1.4,0-2.5,0.9-3,2.1
				c-0.3-0.2-0.7-0.3-1.1-0.3c-0.7,0-1.2,0.3-1.7,0.7c0,0,0,0,0-0.1c0,0-0.1-0.1-0.1-0.1c0-0.1-0.1-0.1-0.1-0.2l0,0
				c-0.4-0.4-1-0.7-1.6-0.7c-0.6,0-1.1,0.2-1.5,0.6c0.7,2.3,2.8,3.9,5.3,3.9C37.4,27.6,39.9,25.1,39.9,22z"/>
		</g>
		<g id="XMLID_222_">
			<g id="XMLID_302_">
				<g id="XMLID_306_">
					<path id="XMLID_115_" class="st4" d="M28,25.6c0.2,0,0.3,0,0.5,0.1c0.1-1.2,1.1-2.1,2.4-2.1c1,0,1.9,0.7,2.2,1.6
						c0.3-0.1,0.5-0.2,0.8-0.2c1,0,1.8,0.8,1.8,1.8c0,1-0.8,1.8-1.8,1.8c-0.1,0-0.1,0-0.2,0c0,0-0.1,0-0.1,0h-5.3c0,0-0.1,0-0.1,0
						c-0.1,0-0.1,0-0.2,0c-0.8,0-1.5-0.7-1.5-1.5C26.6,26.3,27.2,25.6,28,25.6z"/>
				</g>
			</g>
			<g id="XMLID_314_">
				<path id="XMLID_114_" class="st15" d="M35.7,26.7c0-1-0.8-1.8-1.8-1.8c-0.3,0-0.6,0.1-0.8,0.2c-0.1-0.4-0.3-0.7-0.6-1
					c-0.6,0.4-1.1,1.1-1.1,2c0,1.3,1,2.3,2.3,2.4c0,0,0,0,0.1,0c0,0,0.1,0,0.1,0c0.1,0,0.1,0,0.2,0c0,0,0,0,0,0
					C35,28.5,35.7,27.7,35.7,26.7z"/>
			</g>
			<g id="XMLID_300_">
				<g id="XMLID_301_">
					<path id="XMLID_112_" class="st4" d="M42.2,24.7c-0.2,0-0.4,0-0.6,0.1c-0.2-1.6-1.5-2.8-3.1-2.8c-1.4,0-2.5,0.9-3,2.1
						c-0.3-0.2-0.7-0.3-1.1-0.3c-1.3,0-2.4,1.1-2.4,2.4c0,1.3,1.1,2.4,2.4,2.4c0.1,0,0.2,0,0.3,0c0,0,0.1,0,0.1,0h7c0,0,0.1,0,0.1,0
						c0.1,0,0.1,0,0.2,0c1.1,0,1.9-0.9,1.9-1.9S43.2,24.7,42.2,24.7z"/>
				</g>
			</g>
		</g>
		<g id="XMLID_228_">
			<path id="XMLID_111_" class="st7" d="M34.2,16.4c-0.2,0-0.4-0.2-0.4-0.4v-1.4c0-0.2,0.2-0.4,0.4-0.4c0.2,0,0.4,0.2,0.4,0.4V16
				C34.6,16.2,34.4,16.4,34.2,16.4z"/>
		</g>
		<g id="XMLID_227_">
			<path id="XMLID_109_" class="st7" d="M36.3,16.7c0,0-0.1,0-0.1,0c-0.2-0.1-0.3-0.3-0.2-0.5l0.2-0.5c0.1-0.2,0.3-0.3,0.5-0.2
				c0.2,0.1,0.3,0.3,0.2,0.5l-0.2,0.5C36.6,16.6,36.5,16.7,36.3,16.7z"/>
		</g>
		<g id="XMLID_231_">
			<path id="XMLID_106_" class="st7" d="M38.2,17.7c-0.1,0-0.2,0-0.3-0.1c-0.2-0.1-0.2-0.4,0-0.6l0.9-1.1c0.1-0.2,0.4-0.2,0.6,0
				c0.2,0.1,0.2,0.4,0,0.6l-0.9,1.1C38.4,17.6,38.3,17.7,38.2,17.7z"/>
		</g>
		<g id="XMLID_233_">
			<path id="XMLID_102_" class="st7" d="M39.6,19.3c-0.1,0-0.3-0.1-0.4-0.2c-0.1-0.2,0-0.4,0.1-0.6l0.6-0.4c0.2-0.1,0.4,0,0.6,0.1
				c0.1,0.2,0,0.4-0.1,0.6l-0.6,0.4C39.7,19.2,39.6,19.3,39.6,19.3z"/>
		</g>
		<g id="XMLID_235_">
			<path id="XMLID_100_" class="st7" d="M40.3,21.2c-0.2,0-0.4-0.1-0.4-0.3c0-0.2,0.1-0.4,0.3-0.5l1.4-0.2c0.2,0,0.4,0.1,0.5,0.3
				c0,0.2-0.1,0.4-0.3,0.5L40.3,21.2C40.4,21.2,40.4,21.2,40.3,21.2z"/>
		</g>
		<g id="XMLID_255_">
			<path id="XMLID_99_" class="st7" d="M27.7,23.8c-0.2,0-0.4-0.1-0.4-0.3c0-0.2,0.1-0.4,0.3-0.5l0.8-0.1c0.2,0,0.4,0.1,0.5,0.3
				c0,0.2-0.1,0.4-0.3,0.5L27.7,23.8C27.7,23.8,27.7,23.8,27.7,23.8z"/>
		</g>
		<g id="XMLID_256_">
			<path id="XMLID_98_" class="st7" d="M28.4,21.6C28.4,21.6,28.3,21.6,28.4,21.6l-1.5-0.3c-0.2,0-0.4-0.2-0.3-0.5
				c0-0.2,0.2-0.4,0.5-0.3l1.4,0.2c0.2,0,0.4,0.2,0.3,0.5C28.7,21.4,28.6,21.6,28.4,21.6z"/>
		</g>
		<g id="XMLID_257_">
			<path id="XMLID_97_" class="st7" d="M29,19.6c-0.1,0-0.1,0-0.2,0l-0.7-0.3c-0.2-0.1-0.3-0.3-0.2-0.5c0.1-0.2,0.3-0.3,0.5-0.2
				l0.7,0.3c0.2,0.1,0.3,0.3,0.2,0.5C29.3,19.5,29.2,19.6,29,19.6z"/>
		</g>
		<g id="XMLID_258_">
			<path id="XMLID_96_" class="st7" d="M30.3,17.9c-0.1,0-0.2,0-0.3-0.1l-0.9-1.1c-0.1-0.2-0.1-0.4,0.1-0.6c0.2-0.1,0.4-0.1,0.6,0.1
				l0.9,1.1c0.1,0.2,0.1,0.4-0.1,0.6C30.5,17.9,30.4,17.9,30.3,17.9z"/>
		</g>
		<g id="XMLID_259_">
			<path id="XMLID_95_" class="st7" d="M32.1,16.8c-0.2,0-0.3-0.1-0.4-0.3l-0.2-0.7c-0.1-0.2,0-0.4,0.2-0.5c0.2-0.1,0.4,0,0.5,0.2
				l0.2,0.7c0.1,0.2,0,0.4-0.2,0.5C32.2,16.8,32.2,16.8,32.1,16.8z"/>
		</g>
	</g>
	<g id="XMLID_154_" class="st1">
		<g id="XMLID_160_">
			<path id="XMLID_162_" class="st4" d="M46.8,13.4c0.1,0,0.2,0,0.3,0c0.1-0.8,0.7-1.4,1.5-1.4c0.7,0,1.3,0.4,1.5,1.1
				c0.2-0.1,0.4-0.1,0.6-0.1c0.6,0,1.2,0.5,1.2,1.2c0,0.6-0.5,1.2-1.2,1.2c0,0-0.1,0-0.1,0c0,0,0,0-0.1,0H47c0,0,0,0-0.1,0
				c0,0-0.1,0-0.1,0c-0.5,0-1-0.4-1-1S46.3,13.4,46.8,13.4z"/>
		</g>
	</g>
	<g id="XMLID_149_" class="st1">
		<g id="XMLID_150_">
			<path id="XMLID_151_" class="st4" d="M19.2,26.1c-0.2,0-0.3,0-0.5,0.1c-0.1-1.3-1.2-2.2-2.5-2.2c-1.1,0-2,0.7-2.4,1.7
				c-0.3-0.1-0.6-0.2-0.9-0.2c-1,0-1.9,0.8-1.9,1.9c0,1,0.8,1.9,1.9,1.9c0.1,0,0.1,0,0.2,0c0,0,0.1,0,0.1,0h5.6c0,0,0.1,0,0.1,0
				c0.1,0,0.1,0,0.2,0c0.9,0,1.5-0.7,1.5-1.5C20.7,26.8,20,26.1,19.2,26.1z"/>
		</g>
	</g>
</g>
<g id="XMLID_128_" class="st0">
	<g id="XMLID_124_" class="st1">
		<polygon id="XMLID_453_" class="st16" points="41,47.9 22.7,47.9 24,40 39.8,40 		"/>
		<polygon id="XMLID_452_" class="st17" points="24,40 23,45.9 40.5,44.7 39.8,40 		"/>
		<path id="XMLID_451_" class="st18" d="M53.1,15.1c0-0.4-0.3-0.8-0.8-0.8H11.4c-0.4,0-0.8,0.3-0.8,0.8v23.8c0,0.4,0.3,0.8,0.8,0.8
			h40.9c0.4,0,0.8-0.3,0.8-0.8V15.1z"/>
		<path id="XMLID_447_" class="st3" d="M53.1,38.3v3.2c0,1.1-0.9,2.1-2.1,2.1H12.7c-1.1,0-2.1-0.9-2.1-2.1v-3.2H53.1z"/>
		<rect id="XMLID_446_" x="12.4" y="16.1" class="st4" width="38.8" height="20.4"/>
		<path id="XMLID_445_" class="st3" d="M42.4,49.7H21.2c-0.5,0-0.9-0.4-0.9-0.9l0,0c0-0.5,0.4-0.9,0.9-0.9h21.2
			c0.5,0,0.9,0.4,0.9,0.9l0,0C43.3,49.3,42.9,49.7,42.4,49.7z"/>
	</g>
	<path id="XMLID_126_" class="st19" d="M53.1,27.9v-8.8l-1.6-2h-5.6h-3.6h-1.9h-5.6h-0.4h-5.2h-5.6h-5.6h-5.6l-1.9,2.3v8.3
		c0.5,0.4,1.2,0.6,1.9,0.6c1.8,0,3.2-1.5,3.2-3.2c0,1.8,1.5,3.2,3.2,3.2c1.8,0,3.2-1.5,3.2-3.2c0,1.8,1.5,3.2,3.2,3.2
		c1.8,0,3.2-1.5,3.2-3.2c0,1.8,1.5,3.2,3.2,3.2c1.8,0,3.2-1.5,3.2-3.2c0,1.8,1.5,3.2,3.2,3.2c1.8,0,3.2-1.5,3.2-3.2
		c0,1.8,1.5,3.2,3.2,3.2c1.8,0,3.2-1.5,3.2-3.2c0,1.8,1.5,3.2,3.2,3.2C52.1,28.4,52.6,28.2,53.1,27.9z"/>
	<g id="XMLID_123_" class="st1">
		<path id="XMLID_296_" class="st7" d="M12.5,27.4L12.5,27.4c-1.8,0-3.2-1.5-3.2-3.2v-4h6.5v4C15.8,25.9,14.3,27.4,12.5,27.4z"/>
		<polygon id="XMLID_295_" class="st12" points="18.1,16.1 12.5,16.1 9.3,20.1 15.8,20.1 		"/>
		<path id="XMLID_294_" class="st6" d="M19,27.4L19,27.4c-1.8,0-3.2-1.5-3.2-3.2v-4h6.5v4C22.3,25.9,20.8,27.4,19,27.4z"/>
		<polygon id="XMLID_293_" class="st6" points="23.6,16.1 18.1,16.1 15.8,20.1 22.3,20.1 		"/>
		<path id="XMLID_292_" class="st7" d="M25.5,27.4L25.5,27.4c-1.8,0-3.2-1.5-3.2-3.2v-4h6.5v4C28.8,25.9,27.3,27.4,25.5,27.4z"/>
		<polygon id="XMLID_291_" class="st12" points="29.2,16.1 23.6,16.1 22.3,20.1 28.8,20.1 		"/>
		<path id="XMLID_290_" class="st6" d="M32,27.4L32,27.4c-1.8,0-3.2-1.5-3.2-3.2v-4h6.5v4C35.2,25.9,33.8,27.4,32,27.4z"/>
		<polygon id="XMLID_289_" class="st6" points="34.8,16.1 29.2,16.1 28.8,20.1 35.2,20.1 		"/>
		<path id="XMLID_288_" class="st7" d="M38.5,27.4L38.5,27.4c-1.8,0-3.2-1.5-3.2-3.2v-4h6.5v4C41.7,25.9,40.3,27.4,38.5,27.4z"/>
		<polygon id="XMLID_287_" class="st12" points="42.3,16.1 34.4,16.1 35.2,20.1 41.7,20.1 		"/>
		<path id="XMLID_286_" class="st6" d="M45,27.4L45,27.4c-1.8,0-3.2-1.5-3.2-3.2v-4h6.5v4C48.2,25.9,46.8,27.4,45,27.4z"/>
		<polygon id="XMLID_285_" class="st6" points="45.9,16.1 40.4,16.1 41.7,20.1 48.2,20.1 		"/>
		<path id="XMLID_284_" class="st7" d="M51.5,27.4L51.5,27.4c-1.8,0-3.2-1.5-3.2-3.2v-4h6.5v4C54.7,25.9,53.3,27.4,51.5,27.4z"/>
		<polygon id="XMLID_283_" class="st12" points="51.5,16.1 45.9,16.1 48.2,20.1 54.7,20.1 		"/>
	</g>
	<path id="XMLID_165_" class="st20" d="M29.4,31.2H16.5h-0.1H14h-1.2h-0.4c-0.5,0-0.9,0.4-0.9,0.9v0.4v17.1H14h2.4h0.1h12.9
		c0.5,0,0.9-0.4,0.9-0.9V32.1C30.3,31.6,29.9,31.2,29.4,31.2z"/>
	<g id="XMLID_125_" class="st1">
		<path id="XMLID_140_" class="st21" d="M15.6,49.6h-5V32.7c0-0.8,0.7-1.5,1.5-1.5h3.5V49.6z"/>
		<path id="XMLID_139_" class="st7" d="M15.5,49.6h12.9c0.5,0,1-0.4,1-1V32.2c0-0.5-0.4-1-1-1h-13V49.6z"/>
		<path id="XMLID_138_" class="st7" d="M13.1,49.6h-2.5V32.2c0-0.5,0.4-1,1-1h1.5V49.6z"/>
		<polygon id="XMLID_137_" class="st22" points="15.6,49.6 10.6,49.6 10.6,49.6 13.1,46.7 15.6,49.6 		"/>
		<circle id="XMLID_136_" class="st22" cx="18.7" cy="34.1" r="0.9"/>
		<circle id="XMLID_135_" class="st22" cx="26.6" cy="34.1" r="0.9"/>
		<g id="XMLID_129_">
			<path id="XMLID_130_" class="st10" d="M18.4,38v-3.8c0-0.1,0.1-0.2,0.2-0.2h0.3c0.1,0,0.2,0.1,0.2,0.2V38c0,2,1.6,3.6,3.6,3.6
				s3.6-1.6,3.6-3.6v-3.8c0-0.1,0.1-0.2,0.2-0.2h0.3c0.1,0,0.2,0.1,0.2,0.2V38c0,2.4-1.9,4.3-4.3,4.3C20.3,42.3,18.4,40.4,18.4,38z"
				/>
		</g>
	</g>
</g>
<g id="XMLID_175_" class="st0">
	<path id="XMLID_608_" class="st23" d="M39.7,21.2H12.7c-1.6,0-2.8,1.3-2.8,2.8v21.6c0,1.5,1.2,2.8,2.8,2.8h27V21.2z"/>
	<path id="XMLID_147_" class="st24" d="M40.1,48.3H12.6c1.8,0,2.8-1.4,2.8-2.8l-0.1-25.6c0-1.4,1.1-2.5,2.6-2.5h26.5
		c-1.5,0-2.7,1.3-2.7,2.7v26.6C41.7,47.6,41,48.3,40.1,48.3z"/>
	<path id="XMLID_605_" class="st23" d="M45.1,17H17.6c1.8,0,2.8,1.4,2.8,2.8l-0.1,29.7c0,1.3,0.9,2.7,2.2,2.7h26.9
		c-1.5,0-2.7-1.3-2.7-2.7V18.6C46.7,17.7,46,17,45.1,17z"/>
	<path id="XMLID_153_" class="st24" d="M25.9,48.9v0.2c0,1.7-1.4,3.1-3.1,3.1h28.2c1.7,0,3.1-1.4,3.1-3.1v-0.2H25.9z"/>
	<path id="XMLID_141_" class="st25" d="M43.1,25H30.6c-0.5,0-0.9-0.4-0.9-0.9l0,0c0-0.5,0.4-0.9,0.9-0.9h12.5c0.5,0,0.9,0.4,0.9,0.9
		l0,0C44,24.6,43.6,25,43.1,25z"/>
	<path id="XMLID_143_" class="st25" d="M43.1,29.4H30.6c-0.5,0-0.9-0.4-0.9-0.9l0,0c0-0.5,0.4-0.9,0.9-0.9h12.5
		c0.5,0,0.9,0.4,0.9,0.9l0,0C44,29,43.6,29.4,43.1,29.4z"/>
	<path id="XMLID_144_" class="st25" d="M43.1,33.8H30.6c-0.5,0-0.9-0.4-0.9-0.9l0,0c0-0.5,0.4-0.9,0.9-0.9h12.5
		c0.5,0,0.9,0.4,0.9,0.9l0,0C44,33.4,43.6,33.8,43.1,33.8z"/>
	<path id="XMLID_145_" class="st25" d="M43.1,38.2H30.6c-0.5,0-0.9-0.4-0.9-0.9l0,0c0-0.5,0.4-0.9,0.9-0.9h12.5
		c0.5,0,0.9,0.4,0.9,0.9l0,0C44,37.8,43.6,38.2,43.1,38.2z"/>
	<path id="XMLID_146_" class="st25" d="M43.1,42.5H30.6c-0.5,0-0.9-0.4-0.9-0.9l0,0c0-0.5,0.4-0.9,0.9-0.9h12.5
		c0.5,0,0.9,0.4,0.9,0.9l0,0C44,42.2,43.6,42.5,43.1,42.5z"/>
	<path id="XMLID_152_" class="st25" d="M43.1,46.9H30.6c-0.5,0-0.9-0.4-0.9-0.9l0,0c0-0.5,0.4-0.9,0.9-0.9h12.5
		c0.5,0,0.9,0.4,0.9,0.9l0,0C44,46.5,43.6,46.9,43.1,46.9z"/>
	<g id="XMLID_181_" class="st1">
		<polygon id="XMLID_182_" class="st4" points="25.8,43.1 24.2,41.5 25.1,40.6 25.8,41.3 27.7,39.4 28.6,40.3 		"/>
	</g>
	<g id="XMLID_166_" class="st1">
		<polygon id="XMLID_168_" class="st4" points="25.8,38.8 24.2,37.2 25.1,36.3 25.8,37 27.7,35.1 28.6,36 		"/>
	</g>
	<g id="XMLID_169_" class="st1">
		<polygon id="XMLID_170_" class="st4" points="25.8,34.5 24.2,32.9 25.1,32 25.8,32.7 27.7,30.8 28.6,31.7 		"/>
	</g>
	<g id="XMLID_171_" class="st1">
		<polygon id="XMLID_172_" class="st4" points="25.8,30.2 24.2,28.6 25.1,27.7 25.8,28.4 27.7,26.5 28.6,27.4 		"/>
	</g>
	<g id="XMLID_173_" class="st1">
		<polygon id="XMLID_174_" class="st4" points="25.8,25.9 24.2,24.3 25.1,23.4 25.8,24.1 27.7,22.2 28.6,23.1 		"/>
	</g>
	<g id="XMLID_471_" class="st1">
		<rect id="XMLID_443_" x="48.3" y="15.8" class="st7" width="3.2" height="30.1"/>
		<path id="XMLID_461_" class="st4" d="M51.6,46.7h-3.2v0.5c0,0.6,0.5,1.1,1.1,1.1h1c0.6,0,1.1-0.5,1.1-1.1V46.7z"/>
		<rect id="XMLID_459_" x="48.3" y="45.9" class="st10" width="3.2" height="0.8"/>
		<rect id="XMLID_458_" x="48.3" y="15.8" class="st26" width="1.6" height="30.1"/>
		<path id="XMLID_462_" class="st9" d="M49.8,12l-1.5,3.8h3.2L50.1,12C50,11.9,49.9,11.9,49.8,12z"/>
		<path id="XMLID_465_" class="st10" d="M49.9,11.8l-0.4,1h0.9L49.9,11.8C50,11.7,49.9,11.7,49.9,11.8z"/>
	</g>
</g>
<g id="XMLID_179_" class="st0">
	<g id="XMLID_176_" class="st1">
		<path id="XMLID_185_" class="st3" d="M42.2,52.4H21.8c-0.9,0-1.7-0.8-1.7-1.7V13.3c0-0.9,0.8-1.7,1.7-1.7h20.4
			c0.9,0,1.7,0.8,1.7,1.7v37.3C43.9,51.6,43.2,52.4,42.2,52.4z"/>
		<rect id="XMLID_184_" x="22.3" y="18" class="st4" width="19.4" height="28"/>
		<path id="XMLID_178_" class="st27" d="M35.8,15.1h-7.6c-0.1,0-0.2-0.1-0.2-0.2v-0.7c0-0.1,0.1-0.2,0.2-0.2h7.6
			c0.1,0,0.2,0.1,0.2,0.2v0.7C36,15,35.9,15.1,35.8,15.1z"/>
		<circle id="XMLID_177_" class="st27" cx="32" cy="48.7" r="1.7"/>
	</g>
	<g id="XMLID_925_" class="st1">
		<path id="XMLID_841_" class="st7" d="M38.7,41V22.3c0-1.1-0.9-2.1-2.1-2.1h-9.2c-1.1,0-2.1,0.9-2.1,2.1V41c0,1.1,0.9,2.1,2.1,2.1
			h9.2C37.7,43.1,38.7,42.2,38.7,41z"/>
		<path id="XMLID_924_" class="st28" d="M25.3,41v-1.4c0,1.2,1,2.1,2.1,2.1h9.1c1.2,0,2.1-1,2.1-2.1V41c0,1.2-1,2.1-2.1,2.1h-9.1
			C26.3,43.1,25.3,42.2,25.3,41z"/>
		<path id="XMLID_920_" class="st6" d="M32.9,25.7v-3c0-0.3-0.3-0.6-0.6-0.6h-3c-0.3,0-0.6,0.3-0.6,0.6v3c0,0.3,0.3,0.6,0.6,0.6h3
			C32.6,26.2,32.9,26,32.9,25.7z"/>
		<rect id="XMLID_921_" x="35.3" y="21.6" class="st6" width="1.3" height="5"/>
		<rect id="XMLID_922_" x="35.3" y="27.9" class="st6" width="1.3" height="11.7"/>
	</g>
	<g id="XMLID_243_" class="st1">
		<g id="XMLID_248_">
			<path id="XMLID_249_" class="st4" d="M13.1,36.9c-0.1,0-0.3,0-0.4-0.1c-1.6-1.6-2.4-3.6-2.4-5.8s0.9-4.3,2.4-5.8
				c0.2-0.2,0.5-0.2,0.7,0c0.2,0.2,0.2,0.5,0,0.7c-1.4,1.4-2.1,3.2-2.1,5.1s0.8,3.7,2.1,5.1c0.2,0.2,0.2,0.5,0,0.7
				C13.3,36.9,13.2,36.9,13.1,36.9z"/>
		</g>
		<g id="XMLID_246_">
			<path id="XMLID_247_" class="st4" d="M15,35.7c-0.1,0-0.3,0-0.4-0.1c-1.2-1.2-1.9-2.8-1.9-4.6c0-1.7,0.7-3.3,1.9-4.6
				c0.2-0.2,0.5-0.2,0.7,0c0.2,0.2,0.2,0.5,0,0.7c-1,1-1.6,2.4-1.6,3.9c0,1.5,0.6,2.8,1.6,3.9c0.2,0.2,0.2,0.5,0,0.7
				C15.2,35.6,15.1,35.7,15,35.7z"/>
		</g>
		<g id="XMLID_244_">
			<path id="XMLID_245_" class="st4" d="M16.8,34.4c-0.1,0-0.3,0-0.4-0.1c-0.9-0.9-1.4-2.1-1.4-3.3c0-1.3,0.5-2.4,1.4-3.3
				c0.2-0.2,0.5-0.2,0.7,0c0.2,0.2,0.2,0.5,0,0.7c-0.7,0.7-1.1,1.6-1.1,2.6s0.4,1.9,1.1,2.6c0.2,0.2,0.2,0.5,0,0.7
				C17.1,34.4,16.9,34.4,16.8,34.4z"/>
		</g>
	</g>
	<g id="XMLID_232_" class="st1">
		<g id="XMLID_240_">
			<path id="XMLID_242_" class="st4" d="M50.9,36.9c0.1,0,0.3,0,0.4-0.1c1.6-1.6,2.4-3.6,2.4-5.8s-0.9-4.3-2.4-5.8
				c-0.2-0.2-0.5-0.2-0.7,0c-0.2,0.2-0.2,0.5,0,0.7c1.4,1.4,2.1,3.2,2.1,5.1s-0.8,3.7-2.1,5.1c-0.2,0.2-0.2,0.5,0,0.7
				C50.7,36.9,50.8,36.9,50.9,36.9z"/>
		</g>
		<g id="XMLID_238_">
			<path id="XMLID_239_" class="st4" d="M49,35.7c0.1,0,0.3,0,0.4-0.1c1.2-1.2,1.9-2.8,1.9-4.6c0-1.7-0.7-3.3-1.9-4.6
				c-0.2-0.2-0.5-0.2-0.7,0c-0.2,0.2-0.2,0.5,0,0.7c1,1,1.6,2.4,1.6,3.9c0,1.5-0.6,2.8-1.6,3.9c-0.2,0.2-0.2,0.5,0,0.7
				C48.8,35.6,48.9,35.7,49,35.7z"/>
		</g>
		<g id="XMLID_234_">
			<path id="XMLID_237_" class="st4" d="M47.2,34.4c0.1,0,0.3,0,0.4-0.1c0.9-0.9,1.4-2.1,1.4-3.3c0-1.3-0.5-2.4-1.4-3.3
				c-0.2-0.2-0.5-0.2-0.7,0c-0.2,0.2-0.2,0.5,0,0.7c0.7,0.7,1.1,1.6,1.1,2.6s-0.4,1.9-1.1,2.6c-0.2,0.2-0.2,0.5,0,0.7
				C46.9,34.4,47.1,34.4,47.2,34.4z"/>
		</g>
	</g>
</g>
<g id="XMLID_194_" class="st0">
	<path id="XMLID_311_" class="st29" d="M30.9,15l0.2,0.3c0.1,0.1,0.2,0.3,0.2,0.5c0.1,0.2,0.1,0.3,0.1,0.5c0,0.1,0.1,0.3,0.1,0.4
		c0.1,0.6,0.1,1.1,0.1,1.7c-0.1,1.1-0.2,2.1-0.4,3.2l0,0l0,0.2L30.8,22c-0.7,0.4-1.5,0.6-2.3,0.8c-0.8,0.2-1.7,0.3-2.6,0.2
		c-0.5,0-1-0.2-1.6-0.5c-0.1-0.1-0.3-0.2-0.4-0.3l-0.1-0.1l0,0l0,0l0,0L23.7,22l0,0l-0.1-0.1c-0.1-0.1-0.3-0.3-0.5-0.6
		c-0.7-0.9-1-1.9-1.1-3c0-1.1,0.3-2.2,0.9-3.1c0.2-0.2,0.3-0.5,0.5-0.7l0.1-0.2l0,0l0.1-0.1l0.1,0l0.2-0.2c0.5-0.4,1-0.7,1.5-0.8
		c1.1-0.3,2.2-0.2,3.1,0.2C29.5,13.7,30.2,14.3,30.9,15L30.9,15z M29.7,16.1c-0.5-0.4-1.1-0.5-1.7-0.4c-0.6,0.1-1,0.3-1.4,0.6
		l-0.4,0.3l-0.2,0.2l-0.1,0l0,0c0.1-0.1,0,0,0.1-0.1l0,0l0,0l0,0L26,16.9c-0.1,0.1-0.1,0.2-0.2,0.2c-0.2,0.3-0.4,0.7-0.4,1.2
		c0,0.4,0,0.9,0.2,1.3c0,0.1,0,0.1,0.2,0.3l0.1,0.1l0,0c0,0-0.1-0.1,0-0.1l0,0l0,0l0,0l0,0c0,0,0,0,0,0.1c0.1,0.1,0.3,0.2,0.6,0.3
		c0.2,0.1,0.6,0.2,0.9,0.3c0.3,0.1,0.7,0.1,1,0.1c0.7,0.1,1.5,0.1,2.2,0.1l-0.4,0.4l0,0c0.1-0.5,0.2-1,0.3-1.4
		c0.1-0.5,0.1-1,0.1-1.5c0-0.5-0.1-1-0.2-1.4c0-0.1-0.1-0.2-0.1-0.3c0-0.1-0.1-0.2-0.1-0.3c0-0.1-0.1-0.1-0.1-0.2L29.7,16.1
		L29.7,16.1z"/>
	<path id="XMLID_317_" class="st24" d="M30.9,15l0.2,0.3c0.1,0.1,0.2,0.3,0.2,0.5c0.1,0.2,0.1,0.3,0.1,0.5c0,0.1,0.1,0.3,0.1,0.4
		c0.1,0.6,0.1,1.1,0.1,1.7c-0.1,1.1-0.2,2.1-0.4,3.2l0,0l0,0.2L30.8,22c-0.7,0.4-1.5,0.6-2.3,0.8c-0.8,0.2-1.7,0.3-2.6,0.2
		c-0.5,0-1-0.2-1.6-0.5c-0.1-0.1-0.3-0.2-0.4-0.3l-0.1-0.1l0,0l0,0l0,0L23.7,22l0,0l-0.1-0.1c-0.1-0.1-0.3-0.3-0.5-0.6
		c-0.7-0.9-1-1.9-1.1-3c0-1.1,0.3-2.2,0.9-3.1c0.2-0.2,0.3-0.5,0.5-0.7l0.1-0.2l0,0l0.1-0.1l0.1,0l0.2-0.2c0.5-0.4,1-0.7,1.5-0.8
		c1.1-0.3,2.2-0.2,3.1,0.2C29.5,13.7,30.2,14.3,30.9,15L30.9,15z M29.7,16.1c-0.5-0.4-1.1-0.5-1.7-0.4c-0.6,0.1-1,0.3-1.4,0.6
		l-0.4,0.3l-0.2,0.2l-0.1,0l0,0c0.1-0.1,0,0,0.1-0.1l0,0l0,0l0,0L26,16.9c-0.1,0.1-0.1,0.2-0.2,0.2c-0.2,0.3-0.4,0.7-0.4,1.2
		c0,0.4,0,0.9,0.2,1.3c0,0.1,0,0.1,0.2,0.3l0.1,0.1l0,0c0,0-0.1-0.1,0-0.1l0,0l0,0l0,0l0,0c0,0,0,0,0,0.1c0.1,0.1,0.3,0.2,0.6,0.3
		c0.2,0.1,0.6,0.2,0.9,0.3c0.3,0.1,0.7,0.1,1,0.1c0.7,0.1,1.5,0.1,2.2,0.1l-0.4,0.4l0,0c0.1-0.5,0.2-1,0.3-1.4
		c0.1-0.5,0.1-1,0.1-1.5c0-0.5-0.1-1-0.2-1.4c0-0.1-0.1-0.2-0.1-0.3c0-0.1-0.1-0.2-0.1-0.3c0-0.1-0.1-0.1-0.1-0.2L29.7,16.1
		L29.7,16.1z"/>
	<g id="XMLID_328_" class="st1">
		<path id="XMLID_330_" class="st30" d="M26.3,22.7c-0.1-0.1-0.3-0.2-0.4-0.3l-0.1-0.1l0,0l0,0l0,0l-0.1-0.1l0,0l-0.1-0.1
			c-0.1-0.1-0.3-0.3-0.5-0.6c-0.7-0.9-1-1.9-1.1-3c0-1.1,0.3-2.2,0.9-3.1c0.2-0.2,0.3-0.5,0.5-0.7l0.1-0.2l0,0l0.1-0.1l0.1,0
			l0.2-0.2c0.5-0.4,1-0.7,1.5-0.8c0.2-0.1,0.5-0.1,0.7-0.2c-0.9-0.3-1.8-0.3-2.8-0.1c-0.5,0.2-1,0.4-1.5,0.8l-0.2,0.2l-0.1,0
			l-0.1,0.1l0,0l-0.1,0.2c-0.2,0.2-0.3,0.4-0.5,0.7c-0.6,0.9-0.9,2.1-0.9,3.1c0,1.1,0.4,2.2,1.1,3c0.2,0.2,0.4,0.5,0.5,0.6l0.1,0.1
			l0,0l0.1,0.1l0,0l0,0l0,0l0.1,0.1c0.1,0.1,0.3,0.2,0.4,0.3c0.5,0.3,1.1,0.5,1.6,0.5c0.4,0,0.8,0,1.2,0
			C26.8,22.9,26.6,22.8,26.3,22.7z"/>
	</g>
	<path id="XMLID_329_" class="st29" d="M33.2,15c0.6-0.7,1.4-1.3,2.3-1.7c0.9-0.4,2.1-0.5,3.1-0.2c0.5,0.2,1,0.4,1.5,0.8l0.2,0.2
		l0.1,0l0.1,0.1l0,0l0.1,0.2c0.2,0.2,0.3,0.4,0.5,0.7c0.6,0.9,0.9,2.1,0.9,3.1c0,1.1-0.4,2.2-1.1,3c-0.2,0.2-0.4,0.5-0.5,0.6
		L40.4,22l0,0l-0.1,0.1l0,0l0,0l0,0l-0.1,0.1c-0.1,0.1-0.3,0.2-0.4,0.3c-0.5,0.3-1.1,0.5-1.6,0.5c-1,0.1-1.8,0-2.6-0.2
		c-0.8-0.2-1.6-0.5-2.3-0.8l-0.4-0.2l0-0.2l0,0c-0.2-1.1-0.3-2.1-0.4-3.2c0-0.5,0-1.1,0.1-1.7c0-0.1,0-0.3,0.1-0.4
		c0-0.2,0.1-0.3,0.1-0.5c0.1-0.2,0.2-0.4,0.2-0.5L33.2,15L33.2,15z M34.4,16l-0.3,0.3C34,16.4,34,16.4,34,16.5
		c0,0.1-0.1,0.2-0.1,0.3c-0.1,0.1-0.1,0.2-0.1,0.3c-0.1,0.4-0.2,0.9-0.2,1.4c0,0.5,0,1,0.1,1.5c0.1,0.5,0.2,1,0.3,1.4l0,0l-0.4-0.4
		c0.7,0,1.5,0,2.2-0.1c0.4,0,0.7-0.1,1-0.1c0.3-0.1,0.6-0.1,0.9-0.3c0.3-0.1,0.4-0.2,0.6-0.3c0,0,0-0.1,0-0.1l0,0l0,0l0,0l0,0
		c0,0-0.1,0.1-0.1,0.1l0,0l0.1-0.1c0.2-0.2,0.2-0.2,0.2-0.3c0.2-0.4,0.3-0.9,0.2-1.3c0-0.4-0.2-0.8-0.4-1.2
		c-0.1-0.1-0.1-0.2-0.2-0.2L38,16.8l0,0l0,0l0,0c0,0-0.1-0.1,0.1,0.1l0,0l-0.1,0l-0.2-0.2l-0.4-0.3C37,16,36.5,15.7,36,15.7
		C35.4,15.6,34.8,15.7,34.4,16L34.4,16z"/>
	<path id="XMLID_325_" class="st24" d="M33.2,15c0.6-0.7,1.4-1.3,2.3-1.7c0.9-0.4,2.1-0.5,3.1-0.2c0.5,0.2,1,0.4,1.5,0.8l0.2,0.2
		l0.1,0l0.1,0.1l0,0l0.1,0.2c0.2,0.2,0.3,0.4,0.5,0.7c0.6,0.9,0.9,2.1,0.9,3.1c0,1.1-0.4,2.2-1.1,3c-0.2,0.2-0.4,0.5-0.5,0.6
		L40.4,22l0,0l-0.1,0.1l0,0l0,0l0,0l-0.1,0.1c-0.1,0.1-0.3,0.2-0.4,0.3c-0.5,0.3-1.1,0.5-1.6,0.5c-1,0.1-1.8,0-2.6-0.2
		c-0.8-0.2-1.6-0.5-2.3-0.8l-0.4-0.2l0-0.2l0,0c-0.2-1.1-0.3-2.1-0.4-3.2c0-0.5,0-1.1,0.1-1.7c0-0.1,0-0.3,0.1-0.4
		c0-0.2,0.1-0.3,0.1-0.5c0.1-0.2,0.2-0.4,0.2-0.5L33.2,15L33.2,15z M34.4,16l-0.3,0.3C34,16.4,34,16.4,34,16.5
		c0,0.1-0.1,0.2-0.1,0.3c-0.1,0.1-0.1,0.2-0.1,0.3c-0.1,0.4-0.2,0.9-0.2,1.4c0,0.5,0,1,0.1,1.5c0.1,0.5,0.2,1,0.3,1.4l0,0l-0.4-0.4
		c0.7,0,1.5,0,2.2-0.1c0.4,0,0.7-0.1,1-0.1c0.3-0.1,0.6-0.1,0.9-0.3c0.3-0.1,0.4-0.2,0.6-0.3c0,0,0-0.1,0-0.1l0,0l0,0l0,0l0,0
		c0,0-0.1,0.1-0.1,0.1l0,0l0.1-0.1c0.2-0.2,0.2-0.2,0.2-0.3c0.2-0.4,0.3-0.9,0.2-1.3c0-0.4-0.2-0.8-0.4-1.2
		c-0.1-0.1-0.1-0.2-0.2-0.2L38,16.8l0,0l0,0l0,0c0,0-0.1-0.1,0.1,0.1l0,0l-0.1,0l-0.2-0.2l-0.4-0.3C37,16,36.5,15.7,36,15.7
		C35.4,15.6,34.8,15.7,34.4,16L34.4,16z"/>
	<g id="XMLID_323_" class="st1">
		<path id="XMLID_324_" class="st30" d="M37.7,22.7c0.1-0.1,0.3-0.2,0.4-0.3l0.1-0.1l0,0l0,0l0,0l0.1-0.1l0,0l0.1-0.1
			c0.1-0.1,0.3-0.3,0.5-0.6c0.7-0.9,1-1.9,1.1-3c0-1.1-0.3-2.2-0.9-3.1c-0.2-0.2-0.3-0.5-0.5-0.7l-0.1-0.2l0,0l-0.1-0.1l-0.1,0
			l-0.2-0.2c-0.5-0.4-1-0.7-1.5-0.8c-0.2-0.1-0.5-0.1-0.7-0.2c0.9-0.3,1.8-0.3,2.8-0.1c0.5,0.2,1,0.4,1.5,0.8l0.2,0.2l0.1,0l0.1,0.1
			l0,0l0.1,0.2c0.2,0.2,0.3,0.4,0.5,0.7c0.6,0.9,0.9,2.1,0.9,3.1c0,1.1-0.4,2.2-1.1,3c-0.2,0.2-0.4,0.5-0.5,0.6L40.4,22l0,0
			l-0.1,0.1l0,0l0,0l0,0l-0.1,0.1c-0.1,0.1-0.3,0.2-0.4,0.3c-0.5,0.3-1.1,0.5-1.6,0.5c-0.4,0-0.8,0-1.2,0
			C37.2,22.9,37.5,22.8,37.7,22.7z"/>
	</g>
	<circle id="XMLID_309_" class="st24" cx="32" cy="22.3" r="2.8"/>
	<path id="XMLID_304_" class="st31" d="M47,51.1H17c-1,0-1.7-0.8-1.7-1.7V27.9h33.4v21.4C48.7,50.3,47.9,51.1,47,51.1z"/>
	<path id="XMLID_305_" class="st31" d="M48.6,22.3H15.4c-0.5,0-0.9,0.4-0.9,0.9V27c0,0.5,0.4,0.9,0.9,0.9h33.2
		c0.5,0,0.9-0.4,0.9-0.9v-3.7C49.6,22.8,49.1,22.3,48.6,22.3z"/>
	<rect id="XMLID_307_" x="28.1" y="22.3" class="st24" width="7.7" height="28.7"/>
	<polygon id="XMLID_212_" class="st19" points="48.7,29 15.3,30.2 15.3,27.9 48.7,27.9 	"/>
</g>
<g id="XMLID_66_" class="st0">
	<path id="XMLID_501_" class="st24" d="M37.7,42.8c0,0,1.3,2.1,0.5,3.4c-0.7,1.3-3.2,1.3-3.2,1.3s-1.3-2.1-0.5-3.4
		C35.2,42.7,37.7,42.8,37.7,42.8z"/>
	<path id="XMLID_299_" class="st24" d="M42.3,49.2c0,0-1.1-2.4-2.9-2.7c-1.8-0.3-3.7,1.5-3.7,1.5s1.1,2.4,2.9,2.7
		C40.5,51.1,42.3,49.2,42.3,49.2z"/>
	<path id="XMLID_298_" class="st24" d="M43.4,38.2c0,0,2.2,1.2,2.2,2.7c0,1.5-2.2,2.7-2.2,2.7s-2.2-1.2-2.2-2.7
		C41.3,39.4,43.4,38.2,43.4,38.2z"/>
	<path id="XMLID_297_" class="st24" d="M51,41.4c0,0-2.1-1.5-3.9-0.9c-1.7,0.6-2.4,3.2-2.4,3.2s2.1,1.5,3.9,0.9
		C50.3,43.9,51,41.4,51,41.4z"/>
	<path id="XMLID_281_" class="st24" d="M46.1,31.6c0,0,2.5,0,3.2,1.3c0.7,1.3-0.5,3.4-0.5,3.4s-2.5,0-3.2-1.3
		C44.8,33.8,46.1,31.6,46.1,31.6z"/>
	<path id="XMLID_279_" class="st24" d="M54.6,30.2c0,0-2.6-0.3-3.8,1.1c-1.2,1.4-0.5,3.9-0.5,3.9s2.6,0.3,3.8-1.1
		C55.3,32.8,54.6,30.2,54.6,30.2z"/>
	<path id="XMLID_484_" class="st24" d="M45,24.4c0,0,2.1-1.3,3.4-0.5c1.3,0.8,1.3,3.2,1.3,3.2s-2.1,1.3-3.4,0.5
		C45,26.9,45,24.4,45,24.4z"/>
	<path id="XMLID_481_" class="st24" d="M52.1,18.8c0,0-2.4,1.1-2.7,2.9c-0.3,1.8,1.5,3.7,1.5,3.7s2.4-1.1,2.7-2.9
		C54,20.6,52.1,18.8,52.1,18.8z"/>
	<path id="XMLID_478_" class="st24" d="M26.3,42.8c0,0-1.3,2.1-0.5,3.4c0.7,1.3,3.2,1.3,3.2,1.3s1.3-2.1,0.5-3.4
		C28.8,42.7,26.3,42.8,26.3,42.8z"/>
	<path id="XMLID_260_" class="st24" d="M21.7,49.2c0,0,1.1-2.4,2.9-2.7c1.8-0.3,3.7,1.5,3.7,1.5s-1.1,2.4-2.9,2.7
		C23.5,51.1,21.7,49.2,21.7,49.2z"/>
	<path id="XMLID_74_" class="st24" d="M20.6,38.2c0,0-2.2,1.2-2.2,2.7c0,1.5,2.2,2.7,2.2,2.7s2.2-1.2,2.2-2.7
		C22.7,39.4,20.6,38.2,20.6,38.2z"/>
	<path id="XMLID_73_" class="st24" d="M13,41.4c0,0,2.1-1.5,3.9-0.9c1.7,0.6,2.4,3.2,2.4,3.2s-2.1,1.5-3.9,0.9
		C13.7,43.9,13,41.4,13,41.4z"/>
	<path id="XMLID_440_" class="st24" d="M17.9,31.6c0,0-2.5,0-3.2,1.3c-0.7,1.3,0.5,3.4,0.5,3.4s2.5,0,3.2-1.3
		C19.2,33.8,17.9,31.6,17.9,31.6z"/>
	<path id="XMLID_437_" class="st24" d="M9.4,30.2c0,0,2.6-0.3,3.8,1.1c1.2,1.4,0.5,3.9,0.5,3.9s-2.6,0.3-3.8-1.1
		C8.7,32.8,9.4,30.2,9.4,30.2z"/>
	<path id="XMLID_436_" class="st24" d="M19,24.4c0,0-2.1-1.3-3.4-0.5s-1.3,3.2-1.3,3.2s2.1,1.3,3.4,0.5C19,26.9,19,24.4,19,24.4z"/>
	<path id="XMLID_435_" class="st24" d="M11.9,18.8c0,0,2.4,1.1,2.7,2.9c0.3,1.8-1.5,3.7-1.5,3.7s-2.4-1.1-2.7-2.9
		C10,20.6,11.9,18.8,11.9,18.8z"/>
	<g id="XMLID_405_" class="st1">
		<path id="XMLID_432_" class="st10" d="M32,48.4c-2.6,0-5.2-0.5-7.5-1.5c-2.3-1-4.4-2.4-6.2-4.2c-1.8-1.8-3.2-3.8-4.1-6.2
			c-1-2.4-1.5-4.9-1.5-7.5c0-2.6,0.5-5.2,1.5-7.5c0.5-1.3,1.2-2.5,2-3.7l1.3,0.9c-0.7,1.1-1.4,2.2-1.9,3.4c-0.9,2.2-1.4,4.5-1.4,6.9
			c0,2.4,0.5,4.7,1.4,6.9c0.9,2.1,2.2,4,3.8,5.7c1.6,1.6,3.5,2.9,5.7,3.8c4.4,1.9,9.5,1.9,13.9,0c2.1-0.9,4-2.2,5.7-3.8
			c1.6-1.6,2.9-3.5,3.8-5.7c0.9-2.2,1.4-4.5,1.4-6.9c0-2.4-0.5-4.7-1.4-6.9c-0.4-1.1-1-2.1-1.6-3l1.3-0.9c0.7,1,1.3,2.1,1.8,3.3
			c1,2.4,1.5,4.9,1.5,7.5c0,2.6-0.5,5.2-1.5,7.5c-1,2.3-2.4,4.4-4.2,6.2c-1.8,1.8-3.8,3.2-6.2,4.2C37.2,47.9,34.6,48.4,32,48.4z"/>
	</g>
	<path id="XMLID_387_" class="st24" d="M45.7,13.2c0,0-1.5,2.1-0.9,3.9s3.2,2.4,3.2,2.4s1.5-2.1,0.9-3.9
		C48.2,13.9,45.7,13.2,45.7,13.2z"/>
	<path id="XMLID_386_" class="st24" d="M18.9,13.2c0,0,1.5,2.1,0.9,3.9s-3.2,2.4-3.2,2.4s-1.5-2.1-0.9-3.9
		C16.4,13.9,18.9,13.2,18.9,13.2z"/>
	<g id="XMLID_60_" class="st1">
		<polygon id="XMLID_61_" class="st22" points="19.3,20.8 28.9,25.4 26.4,31.4 		"/>
		<polygon id="XMLID_63_" class="st22" points="44.2,20.8 34.7,25.4 37.2,31.4 		"/>
		<path id="XMLID_308_" class="st7" d="M42.2,34.7H21.5l-2.6-13.6c-0.1-0.3,0.2-0.4,0.4-0.3l6.3,6.2l6.1-6.5c0.1-0.1,0.2-0.1,0.3,0
			l5.5,6.5l6.9-6.3c0.2-0.1,0.5,0.1,0.4,0.3L42.2,34.7z"/>
		<path id="XMLID_70_" class="st8" d="M44.3,20.8L37.5,27L32,20.6c0,0-0.1-0.1-0.2-0.1v14.2h10.4l2.6-13.7
			C44.8,20.8,44.6,20.6,44.3,20.8z"/>
		<g id="XMLID_64_">
			<polygon id="XMLID_310_" class="st32" points="31.8,29.6 33.3,28.1 31.8,26.1 31.8,29.6 			"/>
			<polygon id="XMLID_312_" class="st30" points="31.8,29.6 31.8,26.1 30.4,28.1 31.8,29.6 			"/>
			<polygon id="XMLID_313_" class="st4" points="31.8,29.6 31.8,29.6 31.8,29.6 			"/>
			<polygon id="XMLID_315_" class="st33" points="34.4,29.6 33.3,28.1 31.8,29.6 			"/>
			<polygon id="XMLID_316_" class="st4" points="31.8,29.6 31.8,29.6 31.8,29.6 			"/>
			<polygon id="XMLID_322_" class="st33" points="30.4,28.1 29.3,29.6 31.8,29.6 			"/>
			<polygon id="XMLID_331_" class="st34" points="31.8,29.6 31.8,29.6 33.3,31 34.4,29.6 			"/>
			<polygon id="XMLID_332_" class="st35" points="31.8,33 33.3,31 31.8,29.6 			"/>
			<polygon id="XMLID_333_" class="st34" points="31.8,29.6 29.3,29.6 30.4,31 31.8,29.6 			"/>
			<polygon id="XMLID_334_" class="st4" points="30.4,31 31.8,33 31.8,29.6 			"/>
		</g>
	</g>
</g>
<g id="XMLID_341_">
	<g id="XMLID_533_">
		<path id="XMLID_598_" class="st4" d="M52.9,13.5v27.9c0,1.2-1,2.2-2.2,2.2H13.3c-1.2,0-2.2-1-2.2-2.2V13.5c0-1.2,1-2.2,2.2-2.2
			h37.4C51.9,11.4,52.9,12.4,52.9,13.5z"/>
		<rect id="XMLID_597_" x="16.2" y="15.3" class="st7" width="30.7" height="24.4"/>
		<rect id="XMLID_335_" x="18.4" y="16.7" class="st22" width="12.5" height="9.9"/>
		<rect id="XMLID_336_" x="32.2" y="16.7" class="st12" width="12.5" height="9.9"/>
		<rect id="XMLID_340_" x="18.4" y="27.7" class="st12" width="12.5" height="9.9"/>
		<rect id="XMLID_339_" x="32.2" y="27.7" class="st22" width="12.5" height="9.9"/>
		<path id="XMLID_596_" class="st15" d="M14.4,24v7c0,0.2-0.2,0.4-0.4,0.4l0,0c-0.2,0-0.4-0.2-0.4-0.4v-7c0-0.2,0.2-0.4,0.4-0.4h0
			C14.2,23.5,14.4,23.7,14.4,24z"/>
	</g>
	<path id="XMLID_342_" class="st28" d="M39.2,30.4c-0.2,0-0.4,0-0.5,0.1h0c-0.7,0.2-1.2,0.9-1.2,1.6v-1.8c0-0.9-0.8-1.7-1.7-1.7
		c-0.9,0-1.7,0.8-1.7,1.7v-1.8c0-0.9-0.8-1.7-1.7-1.7c-0.9,0-1.7,0.8-1.7,1.7v-5.5c0-0.9-0.8-1.7-1.7-1.7c-0.9,0-1.7,0.8-1.7,1.7
		v10.8h-2.4c-0.6,0-1.2,0.5-1.2,1.2v7.7c0,0.3,0.1,0.6,0.2,0.8H40l0.4-0.4c0.3-0.3,0.5-0.7,0.5-1.2v-9.8
		C40.9,31.2,40.1,30.4,39.2,30.4z"/>
	<g id="XMLID_71_">
		<g id="XMLID_390_">
			<path id="XMLID_399_" class="st6" d="M38.8,30.9c-0.9,0-1.6,0.7-1.6,1.6v-1.7c0-0.9-0.7-1.6-1.6-1.6c-0.9,0-1.6,0.7-1.6,1.6v-1.7
				c0-0.9-0.7-1.6-1.6-1.6c-0.9,0-1.6,0.7-1.6,1.6V24c0-0.9-0.7-1.6-1.6-1.6c-0.9,0-1.6,0.7-1.6,1.6v10.2h-2.3
				c-0.6,0-1.1,0.5-1.1,1.1v7.2c0,0.6,0.3,1.1,0.9,1.3l1.3,0.6c0.5,0.2,0.9,0.8,0.9,1.3v3.1h10.7v-3.5c0-0.4,0.1-0.7,0.4-0.9
				l1.6-1.6c0.3-0.3,0.5-0.7,0.5-1.1v-9.2C40.4,31.6,39.6,30.9,38.8,30.9z"/>
			<g id="XMLID_127_">
				<path id="XMLID_303_" class="st3" d="M38.8,30.9c-0.2,0-0.3,0-0.5,0.1c0.7,0.2,1.1,0.8,1.1,1.5v9.2c0,0.4-0.2,0.8-0.5,1.1
					l-1.6,1.6c-0.3,0.2-0.4,0.6-0.4,0.9v3.5h1v-3.5c0-0.4,0.1-0.7,0.4-0.9l1.6-1.6c0.3-0.3,0.5-0.7,0.5-1.1v-9.2
					C40.4,31.6,39.6,30.9,38.8,30.9z"/>
			</g>
			<path id="XMLID_396_" class="st17" d="M25.6,43.9v0.2l0.6,0.3c0.5,0.2,0.9,0.8,0.9,1.3v0.4h10.7v-0.8c0-0.4,0.1-0.7,0.4-0.9
				l0.5-0.5H25.6z"/>
			<rect id="XMLID_393_" x="25.6" y="44.9" class="st7" width="13.7" height="7.7"/>
			<rect id="XMLID_388_" x="25.6" y="44.9" class="st22" width="4.3" height="7.7"/>
		</g>
	</g>
</g>
<g id="XMLID_344_" class="st0">
	<g id="XMLID_345_" class="st1">
		<path id="XMLID_361_" class="st7" d="M28.8,11.6l12.9,22c0.6,1,0.2,2.3-0.7,2.9l-10,5.8c-1,0.6-2.3,0.2-2.9-0.7l-12.9-22
			c-0.6-1-0.2-2.3,0.7-2.9l10-5.8C27,10.3,28.3,10.6,28.8,11.6z"/>
		<path id="XMLID_360_" class="st8" d="M25.3,14.6L19.4,18c0.6,1.1,0.3,2.5-0.8,3.1l9.7,16.6c1.1-0.6,2.5-0.3,3.1,0.8
			c0,0.1,0.1,0.1,0.1,0.2l6-3.5c-0.6-1.1-0.3-2.5,0.8-3.1l-9.8-16.8C27.3,16,26,15.6,25.3,14.6z"/>
		<circle id="XMLID_359_" class="st7" cx="28.4" cy="26.7" r="4.7"/>
		<circle id="XMLID_358_" class="st7" cx="32.8" cy="34.1" r="1.3"/>
		<circle id="XMLID_357_" class="st7" cx="24.1" cy="19.3" r="1.3"/>
		<g id="XMLID_352_">
			<g id="XMLID_355_">
				<path id="XMLID_356_" class="st10" d="M30.7,24.7l1.1,1.8c0.2,0.4,0.1,1-0.3,1.2L31,28l-0.6-1.1l0.1,0l-0.9-1.5
					c-0.2-0.3-0.5-0.4-0.8-0.2c-0.2,0.1-0.3,0.4-0.1,0.5l0.8,1.4c0.5,0.8,0.2,1.8-0.6,2.3l-0.2,0.1c-0.9,0.5-2.1,0.2-2.6-0.7
					l-1.1-1.8c-0.2-0.4-0.1-1,0.3-1.2l0.4-0.3l0.6,1.1l-0.1,0.1l0.9,1.5c0.2,0.3,0.5,0.4,0.8,0.2l0.2-0.1c0.2-0.1,0.3-0.4,0.1-0.5
					l-0.8-1.4c-0.5-0.8-0.2-1.8,0.6-2.3C29,23.5,30.1,23.8,30.7,24.7z"/>
			</g>
			<g id="XMLID_353_">
				
					<rect id="XMLID_354_" x="27.8" y="23" transform="matrix(-0.5055 -0.8628 0.8628 -0.5055 19.7495 64.7006)" class="st10" width="1.3" height="7.5"/>
			</g>
		</g>
	</g>
	<path id="XMLID_363_" class="st20" d="M41.7,33.6L29.6,12.9h-0.9c-1.2,0-2.2,1-2.2,2.2v23.8l1.6,2.7c0.6,1,1.9,1.4,2.9,0.8l9.9-5.8
		C42,35.9,42.3,34.6,41.7,33.6z"/>
	<g id="XMLID_685_" class="st1">
		<path id="XMLID_695_" class="st7" d="M43.3,15v25.5c0,1.2-0.9,2.1-2.1,2.1H29.7c-1.2,0-2.1-0.9-2.1-2.1V15c0-1.2,0.9-2.1,2.1-2.1
			h11.6C42.4,12.9,43.3,13.9,43.3,15z"/>
		<path id="XMLID_694_" class="st8" d="M38.8,15.8h-6.9c0,1.3-1,2.3-2.3,2.3v19.3c1.3,0,2.3,1,2.3,2.3c0,0.1,0,0.1,0,0.2h6.9
			c0-1.3,1-2.3,2.3-2.3V18C39.8,18,38.8,17,38.8,15.8z"/>
		<circle id="XMLID_693_" class="st7" cx="35.3" cy="27.8" r="4.7"/>
		<circle id="XMLID_692_" class="st7" cx="35.3" cy="36.4" r="1.3"/>
		<circle id="XMLID_691_" class="st7" cx="35.3" cy="19.2" r="1.3"/>
		<g id="XMLID_686_">
			<g id="XMLID_689_">
				<path id="XMLID_690_" class="st10" d="M38.3,27.2v2.1c0,0.5-0.4,0.9-0.9,0.9h-0.5V29H37v-1.8c0-0.3-0.3-0.6-0.6-0.6
					c-0.2,0-0.4,0.2-0.4,0.4v1.6c0,0.9-0.7,1.7-1.7,1.7h-0.2c-1,0-1.9-0.8-1.9-1.9v-2.1c0-0.5,0.4-0.9,0.9-0.9h0.5v1.3h-0.1v1.8
					c0,0.3,0.3,0.6,0.6,0.6h0.2c0.2,0,0.4-0.2,0.4-0.4V27c0-0.9,0.7-1.7,1.7-1.7C37.4,25.3,38.3,26.2,38.3,27.2z"/>
			</g>
			<g id="XMLID_687_">
				<rect id="XMLID_688_" x="31.6" y="27.2" class="st10" width="7.5" height="1.3"/>
			</g>
		</g>
	</g>
	<g id="XMLID_343_" class="st1">
		<path id="XMLID_346_" class="st3" d="M43.3,22.8c0,0,4.4,5.8,5.5,7.4c0.2,0.2,0.2,0.5,0.2,0.8l-2.7,12.3H36L35,36.7
			c0.1-0.4,0-5.1,0-7.5c0-1.2,0.9-2.1,2.1-2.1l0,0c1.1,0,2.1,0.9,2.1,2l0.2,5.9c0,0.9,1,1.4,1.8,1l1.3-0.7l2.7-4l-1.9-3.4V22.8z"/>
		<g id="XMLID_347_">
			<path id="XMLID_350_" class="st2" d="M38.7,29l0.2,5.9c0,0.8,0.8,1.3,1.5,1.1c-0.5-0.1-0.9-0.5-1-1.1L39.2,29c0-1.1-1-2-2.1-2
				c-0.1,0-0.2,0-0.3,0C37.9,27.2,38.7,28,38.7,29z"/>
			<path id="XMLID_351_" class="st2" d="M48.8,30.2c-1.1-1.5-5.5-7.4-5.5-7.4v0.7c1.2,1.6,4.2,5.5,5,6.7c0.2,0.2,0.2,0.5,0.2,0.8
				l-2.7,12.3h0.5L49,31C49.1,30.8,49,30.5,48.8,30.2z"/>
		</g>
		<polygon id="XMLID_349_" class="st28" points="35.8,41.6 36,43.3 46.3,43.3 46.7,41.6 		"/>
		<path id="XMLID_972_" class="st4" d="M49,53.4V43.2c0-0.3-0.2-0.6-0.6-0.6H34.7c-0.3,0-0.6,0.2-0.6,0.6v10.2H49z"/>
		<path id="XMLID_348_" class="st15" d="M34.7,42.6c-0.3,0-0.6,0.2-0.6,0.6v10.2h5.1V42.6H34.7z"/>
	</g>
</g>
<g id="XMLID_414_" class="st0">
	<g id="XMLID_516_" class="st1">
		<path id="XMLID_520_" class="st3" d="M52.2,52.2H31.9c-0.9,0-1.7-0.8-1.7-1.7V13.4c0-0.9,0.8-1.7,1.7-1.7h20.3
			c0.9,0,1.7,0.8,1.7,1.7v37.1C53.9,51.4,53.1,52.2,52.2,52.2z"/>
		<rect id="XMLID_519_" x="32.5" y="18" class="st4" width="19.2" height="27.9"/>
		<path id="XMLID_518_" class="st27" d="M45.8,15.1h-7.5c-0.1,0-0.2-0.1-0.2-0.2v-0.7c0-0.1,0.1-0.2,0.2-0.2h7.5
			c0.1,0,0.2,0.1,0.2,0.2v0.7C46,15,45.9,15.1,45.8,15.1z"/>
		<circle id="XMLID_517_" class="st27" cx="42.1" cy="48.5" r="1.7"/>
	</g>
	<path id="XMLID_466_" class="st19" d="M39.2,17.8h-14c-1.2,0-2.1,0.9-2.1,2.1v30.2c0,1.2,0.9,2.1,2.1,2.1h14c1.2,0,2.1-0.9,2.1-2.1
		V19.9C41.3,18.7,40.4,17.8,39.2,17.8z"/>
	<g id="XMLID_438_" class="st1">
		<path id="XMLID_457_" class="st7" d="M40.3,19.9v30.2c0,1.2-0.9,2.1-2.1,2.1h-14c-1.2,0-2.1-0.9-2.1-2.1V19.9
			c0-1.2,0.9-2.1,2.1-2.1h14C39.4,17.8,40.3,18.7,40.3,19.9z"/>
		<path id="XMLID_456_" class="st8" d="M35.1,21.1h-8c0,1.5-1.2,2.6-2.6,2.6V46c1.5,0,2.6,1.2,2.6,2.6c0,0.1,0,0.2,0,0.2h8
			c0-1.5,1.2-2.6,2.6-2.6V23.7C36.3,23.7,35.1,22.5,35.1,21.1z"/>
		<circle id="XMLID_455_" class="st7" cx="31.1" cy="35" r="5.4"/>
		<circle id="XMLID_454_" class="st7" cx="31.1" cy="45" r="1.4"/>
		<circle id="XMLID_450_" class="st7" cx="31.1" cy="25" r="1.4"/>
		<g id="XMLID_439_">
			<g id="XMLID_448_">
				<path id="XMLID_449_" class="st10" d="M34.5,34.3v2.5c0,0.6-0.5,1-1,1h-0.5v-1.5H33v-2c0-0.4-0.3-0.7-0.7-0.7
					c-0.3,0-0.5,0.2-0.5,0.5v1.8c0,1.1-0.9,1.9-1.9,1.9h-0.3c-1.2,0-2.2-1-2.2-2.2v-2.5c0-0.6,0.5-1,1-1h0.6v1.5H29v2
					c0,0.4,0.3,0.7,0.7,0.7h0.3c0.3,0,0.5-0.2,0.5-0.5v-1.8c0-1.1,0.9-1.9,1.9-1.9C33.5,32.2,34.5,33.1,34.5,34.3z"/>
			</g>
			<g id="XMLID_442_">
				<rect id="XMLID_444_" x="26.8" y="34.3" class="st10" width="8.6" height="1.5"/>
			</g>
		</g>
	</g>
	<path id="XMLID_433_" class="st19" d="M33.9,37.7h-0.1h-1.5h-19c-1.2,0-2.2,1-2.2,2.2v10.1c0,1.2,1,2.2,2.2,2.2h19h1.5h0.1
		c1.2,0,2.2-1,2.2-2.2V50v-9.9v-0.1C36.1,38.7,35.1,37.7,33.9,37.7z"/>
	<g id="XMLID_408_" class="st1">
		<path id="XMLID_413_" class="st4" d="M32.9,52.3H12.3c-1.2,0-2.2-1-2.2-2.2V39.9c0-1.2,1-2.2,2.2-2.2h20.6c1.2,0,2.2,1,2.2,2.2
			v10.1C35.1,51.3,34.1,52.3,32.9,52.3z"/>
		<path id="XMLID_412_" class="st28" d="M32.8,37.7h-1.5c1.3,0,2.3,1,2.3,2.3V50c0,1.3-1,2.3-2.3,2.3h1.5c1.3,0,2.3-1,2.3-2.3v-9.9
			C35.1,38.8,34.1,37.7,32.8,37.7z"/>
		<path id="XMLID_411_" class="st7" d="M16.1,46h-3.4c-0.3,0-0.6-0.3-0.6-0.6V42c0-0.3,0.3-0.6,0.6-0.6h3.4c0.3,0,0.6,0.3,0.6,0.6
			v3.4C16.7,45.7,16.4,46,16.1,46z"/>
		<rect id="XMLID_410_" x="11.7" y="48.6" class="st6" width="5.5" height="1.4"/>
		<rect id="XMLID_409_" x="18.5" y="48.6" class="st6" width="12.7" height="1.4"/>
	</g>
</g>
<g id="XMLID_1657_" class="st0">
	
		<rect id="XMLID_1691_" x="36" y="23.1" transform="matrix(-0.7071 -0.7071 0.7071 -0.7071 51.3179 82.6538)" class="st25" width="13.5" height="15.2"/>
	
		<rect id="XMLID_1690_" x="35.2" y="17.4" transform="matrix(0.7071 -0.7071 0.7071 0.7071 -9.1429 33.6676)" class="st36" width="1.7" height="21"/>
	<g id="XMLID_1683_" class="st1">
		<rect id="XMLID_1698_" x="29.2" y="34.3" class="st7" width="2.5" height="8.8"/>
	</g>
	<g id="XMLID_1682_" class="st1">
		<rect id="XMLID_1697_" x="20.9" y="32.2" class="st7" width="8.8" height="2.5"/>
	</g>
	<path id="XMLID_1681_" class="st37" d="M53.4,32.6L53.4,32.6c0,2.5-2,4.5-4.5,4.5L31.8,37c-2.5,0-4.5-2-4.5-4.5l0,0L53.4,32.6z"/>
	<path id="XMLID_1680_" class="st38" d="M27.7,34.2c-0.2-0.5-0.3-1.1-0.3-1.7l26.1,0.1c0,0.6-0.1,1.2-0.3,1.7L27.7,34.2z"/>
	<path id="XMLID_1678_" class="st37" d="M31.8,10.9L31.8,10.9c-2.5,0-4.5,2-4.5,4.5l0.1,17.2c0,2.5,2,4.5,4.5,4.5l0,0L31.8,10.9z"/>
	<path id="XMLID_1677_" class="st38" d="M30.1,36.7c0.5,0.2,1.1,0.3,1.7,0.3l-0.1-26.1c-0.6,0-1.2,0.1-1.7,0.3L30.1,36.7z"/>
	<g id="XMLID_1671_" class="st1">
		<path id="XMLID_1679_" class="st7" d="M33.2,51.4c-2.3,2.3-6.2,2.3-8.5,0c-2.3-2.3-2.3-6.2,0-8.5c2.3-2.3,6.2-2.3,8.5,0
			C35.6,45.2,35.6,49,33.2,51.4z M26.5,44.6c-1.4,1.4-1.4,3.6,0,5c1.4,1.4,3.6,1.4,5,0c1.4-1.4,1.4-3.6,0-5
			C30.1,43.2,27.8,43.2,26.5,44.6z"/>
	</g>
	<path id="XMLID_1709_" class="st39" d="M25.7,43.8c-1.8,1.8-1.8,4.8,0,6.6c1.8,1.8,4.8,1.8,6.6,0c1.8-1.8,1.8-4.8,0-6.6
		C30.5,42,27.5,42,25.7,43.8z M31.5,49.6c-1.4,1.4-3.6,1.4-5,0c-1.4-1.4-1.4-3.6,0-5c1.4-1.4,3.6-1.4,5,0
		C32.9,46,32.9,48.2,31.5,49.6z"/>
	<g id="XMLID_1701_" class="st1">
		<path id="XMLID_1702_" class="st7" d="M20.8,38.2c-2.3,2.3-6.2,2.3-8.5,0c-2.3-2.3-2.3-6.2,0-8.5c2.3-2.3,6.2-2.3,8.5,0
			C23.2,32,23.2,35.8,20.8,38.2z M14,31.4c-1.4,1.4-1.4,3.6,0,5c1.4,1.4,3.6,1.4,5,0c1.4-1.4,1.4-3.6,0-5C17.7,30,15.4,30,14,31.4z"
			/>
	</g>
	<path id="XMLID_1676_" class="st39" d="M13.3,30.6c-1.8,1.8-1.8,4.8,0,6.6c1.8,1.8,4.8,1.8,6.6,0c1.8-1.8,1.8-4.8,0-6.6
		C18,28.8,15.1,28.8,13.3,30.6z M19.1,36.4c-1.4,1.4-3.6,1.4-5,0c-1.4-1.4-1.4-3.6,0-5c1.4-1.4,3.6-1.4,5,0
		C20.5,32.8,20.5,35,19.1,36.4z"/>
	
		<rect id="XMLID_1670_" x="26.6" y="13.7" transform="matrix(-0.7071 -0.7071 0.7071 -0.7071 41.8734 59.8525)" class="st23" width="13.5" height="15.2"/>
	
		<rect id="XMLID_1669_" x="31.5" y="18.9" transform="matrix(0.7071 -0.7071 0.7071 0.7071 -7.5947 29.9301)" class="st24" width="1.7" height="10.5"/>
	
		<rect id="XMLID_1668_" x="36.7" y="14.6" transform="matrix(0.7071 -0.7071 0.7071 0.7071 -4.5757 33.0325)" class="st36" width="1.7" height="14.9"/>
	
		<rect id="XMLID_1666_" x="35.2" y="15.2" transform="matrix(0.7071 -0.7071 0.7071 0.7071 -3.922 31.4514)" class="st24" width="1.7" height="10.5"/>
	<g id="XMLID_1665_" class="st1">
		<path id="XMLID_1694_" class="st10" d="M52.9,11.8l-0.8,0.8l-0.9-0.9L52,11L52.9,11.8z M51.2,13.5l-0.9,0.9l-0.9-0.9l0.9-0.9
			L51.2,13.5z M49.5,15.2l-0.9,0.9l-0.9-0.9l0.9-0.9L49.5,15.2z M47.8,17l-0.9,0.9L46,17l0.9-0.9L47.8,17z M46,18.7l-0.9,0.9
			l-0.9-0.9l0.9-0.9L46,18.7z M44.3,20.4l-0.9,0.9l-0.9-0.9l0.9-0.9L44.3,20.4z M42.6,22.2L41.7,23l-0.9-0.9l0.9-0.9L42.6,22.2z
			 M40.8,23.9L40,24.8l-0.9-0.9L40,23L40.8,23.9z M39.1,25.6l-0.9,0.9l-0.9-0.9l0.9-0.9L39.1,25.6z M37.4,27.4l-0.9,0.9l-0.9-0.9
			l0.9-0.9L37.4,27.4z M35.6,29.1L34.8,30l-0.9-0.9l0.9-0.9L35.6,29.1z M33.9,30.8L33,31.7l-0.9-0.9L33,30L33.9,30.8z"/>
	</g>
</g>
<g id="XMLID_401_" class="st0">
	<g id="XMLID_362_" class="st1">
		<path id="XMLID_371_" class="st21" d="M18.1,54.1h-7.8V26.8c0-0.8,0.7-1.5,1.5-1.5h6.3V54.1z"/>
		<path id="XMLID_370_" class="st7" d="M17.9,54.1h20.8c0.5,0,1-0.4,1-1V26.3c0-0.5-0.4-1-1-1H17.9V54.1z"/>
		<path id="XMLID_369_" class="st7" d="M14.2,54.1h-3.9V26.3c0-0.5,0.4-1,1-1h2.9V54.1z"/>
		<polygon id="XMLID_368_" class="st22" points="18.1,54.1 10.3,54.1 10.3,54.1 14.2,49.5 18.1,54.1 		"/>
		<circle id="XMLID_367_" class="st22" cx="23" cy="29.9" r="1.3"/>
		<circle id="XMLID_366_" class="st22" cx="35.4" cy="29.9" r="1.3"/>
		<g id="XMLID_364_">
			<path id="XMLID_365_" class="st10" d="M22.5,35.9v-6c0-0.2,0.1-0.3,0.3-0.3h0.4c0.2,0,0.3,0.1,0.3,0.3v6c0,3.1,2.6,5.7,5.7,5.7
				c3.1,0,5.7-2.6,5.7-5.7v-6c0-0.2,0.1-0.3,0.3-0.3h0.4c0.2,0,0.3,0.1,0.3,0.3v6c0,3.7-3,6.7-6.7,6.7
				C25.5,42.6,22.5,39.6,22.5,35.9z"/>
		</g>
	</g>
	<path id="XMLID_402_" class="st19" d="M39.7,28.6v-2.4c0-0.5-0.4-1-1-1h-3.4l-0.6,3c-0.1,0.4,0.3,0.7,0.7,0.7l3.7-0.7
		C39.4,28.4,39.5,28.5,39.7,28.6z"/>
	<g id="XMLID_372_" class="st1">
		<path id="XMLID_398_" class="st4" d="M34.8,27.4l0.8-4.2c-0.8-1.8-1.1-3.8-0.6-6c0.8-3.6,3.8-6.5,7.5-7.2
			c6.6-1.2,12.3,4.5,11.1,11.1c-0.7,3.6-3.6,6.6-7.2,7.4c-2.7,0.6-5.2,0-7.2-1.2L35.5,28C35.1,28.1,34.7,27.8,34.8,27.4z"/>
		<circle id="XMLID_397_" class="st15" cx="44.2" cy="19.3" r="7.3"/>
	</g>
	<g id="XMLID_599_" class="st1">
		<circle id="XMLID_400_" class="st6" cx="42" cy="21.7" r="1.4"/>
		<g id="XMLID_616_">
			<path id="XMLID_620_" class="st6" d="M45.5,22.9c-0.1-0.1-0.2-0.2-0.2-0.4c0-0.5-0.1-1.1-0.3-1.6c-0.4-1-1.3-1.9-2.3-2.3
				c-0.5-0.2-1-0.3-1.6-0.3c-0.3,0-0.5-0.2-0.5-0.5c0-0.3,0.2-0.5,0.5-0.5c0.7,0,1.3,0.1,2,0.4c1.3,0.5,2.4,1.6,2.9,2.9
				c0.3,0.6,0.4,1.3,0.4,2c0,0.3-0.2,0.5-0.5,0.5C45.7,23,45.6,23,45.5,22.9z"/>
		</g>
		<g id="XMLID_614_">
			<path id="XMLID_615_" class="st6" d="M48,22.8c-0.1-0.1-0.2-0.2-0.2-0.4c0-0.9-0.2-1.7-0.5-2.5c-0.7-1.6-2-3-3.6-3.6
				c-0.8-0.3-1.6-0.5-2.5-0.5c-0.3,0-0.5-0.2-0.5-0.5c0-0.3,0.2-0.5,0.5-0.5c1,0,2,0.2,2.9,0.6c1.9,0.8,3.4,2.3,4.2,4.2
				c0.4,0.9,0.6,1.9,0.6,2.9c0,0.3-0.2,0.5-0.5,0.5C48.2,23,48.1,22.9,48,22.8z"/>
		</g>
	</g>
</g>
<g id="XMLID_477_" class="st0">
	<g id="XMLID_416_" class="st1">
		<path id="XMLID_434_" class="st18" d="M51.5,49.2h-39V25.9c0-0.7,0.6-1.3,1.3-1.3h36.5c0.7,0,1.3,0.6,1.3,1.3V49.2z"/>
		<rect id="XMLID_430_" x="14.5" y="26.8" class="st7" width="35" height="20.3"/>
		<path id="XMLID_428_" class="st2" d="M53.8,50.3H10.2l0,0c1.2,1.2,2.9,1.9,4.7,1.9h34.2C50.9,52.2,52.5,51.5,53.8,50.3L53.8,50.3z
			"/>
		<rect id="XMLID_418_" x="10.2" y="49" class="st3" width="43.6" height="1.2"/>
		<path id="XMLID_417_" class="st2" d="M34.7,50h-5.4c-0.2,0-0.3-0.2-0.3-0.3l0,0c0-0.2,0.1-0.3,0.3-0.3h5.4c0.2,0,0.3,0.1,0.3,0.3
			l0,0C35,49.8,34.9,50,34.7,50z"/>
	</g>
	<polygon id="XMLID_460_" class="st19" points="46.6,47.2 17.3,47.2 14.5,24.6 49.5,24.6 	"/>
	<g id="XMLID_624_" class="st1">
		<g id="XMLID_464_">
			<path id="XMLID_618_" class="st3" d="M46.6,47.2H17.3V13c0-0.6,0.5-1.2,1.2-1.2h27c0.6,0,1.2,0.5,1.2,1.2V47.2z"/>
			<path id="XMLID_617_" class="st4" d="M46.6,16.2v-3.4c0-0.6-0.5-1-1-1H18.3c-0.6,0-1,0.5-1,1v3.4H46.6z"/>
			<rect id="XMLID_472_" x="20.1" y="19.7" class="st7" width="11.6" height="11.6"/>
			<rect id="XMLID_469_" x="20.1" y="33.7" class="st4" width="22.6" height="12.7"/>
			<circle id="XMLID_601_" class="st6" cx="20.1" cy="14" r="0.6"/>
			<circle id="XMLID_600_" class="st6" cx="22.1" cy="14" r="0.6"/>
			<circle id="XMLID_468_" class="st6" cx="24.1" cy="14" r="0.6"/>
			<path id="XMLID_467_" class="st40" d="M45.6,11.8h-1.3c0.6,0,1,0.5,1,1v34.3h1.3V12.8C46.6,12.3,46.2,11.8,45.6,11.8z"/>
			<path id="XMLID_470_" class="st2" d="M43.8,21.2H33.4c-0.3,0-0.5-0.2-0.5-0.5l0,0c0-0.3,0.2-0.5,0.5-0.5h10.3
				c0.3,0,0.5,0.2,0.5,0.5l0,0C44.3,21,44.1,21.2,43.8,21.2z"/>
			<path id="XMLID_473_" class="st2" d="M43.8,23.4H33.4c-0.3,0-0.5-0.2-0.5-0.5l0,0c0-0.3,0.2-0.5,0.5-0.5h10.3
				c0.3,0,0.5,0.2,0.5,0.5l0,0C44.3,23.2,44.1,23.4,43.8,23.4z"/>
			<path id="XMLID_474_" class="st2" d="M43.8,25.6H33.4c-0.3,0-0.5-0.2-0.5-0.5l0,0c0-0.3,0.2-0.5,0.5-0.5h10.3
				c0.3,0,0.5,0.2,0.5,0.5l0,0C44.3,25.4,44.1,25.6,43.8,25.6z"/>
			<path id="XMLID_475_" class="st2" d="M43.8,27.9H33.4c-0.3,0-0.5-0.2-0.5-0.5l0,0c0-0.3,0.2-0.5,0.5-0.5h10.3
				c0.3,0,0.5,0.2,0.5,0.5l0,0C44.3,27.6,44.1,27.9,43.8,27.9z"/>
			<path id="XMLID_476_" class="st2" d="M39.3,30.1h-5.8c-0.3,0-0.5-0.2-0.5-0.5l0,0c0-0.3,0.2-0.5,0.5-0.5h5.8
				c0.3,0,0.5,0.2,0.5,0.5l0,0C39.8,29.8,39.6,30.1,39.3,30.1z"/>
		</g>
		<g id="XMLID_1275_">
			<g id="XMLID_1499_">
				<polygon id="XMLID_584_" class="st10" points="30.1,27.9 32.5,30.2 31.6,31 29.3,28.7 28.8,30.4 26.7,25.2 31.8,27.4 				"/>
			</g>
			<g id="XMLID_581_">
				<path id="XMLID_623_" class="st10" d="M26.7,23.1c-0.2,0-0.4-0.2-0.4-0.4v-0.8c0-0.2,0.2-0.4,0.4-0.4c0.2,0,0.4,0.2,0.4,0.4v0.8
					C27.1,23,26.9,23.1,26.7,23.1z"/>
			</g>
			<g id="XMLID_580_">
				<path id="XMLID_622_" class="st10" d="M27.9,23.5c-0.1,0-0.1,0-0.2-0.1c-0.2-0.1-0.3-0.4-0.2-0.6l0.9-1.6
					c0.1-0.2,0.4-0.3,0.6-0.2c0.2,0.1,0.3,0.4,0.2,0.6l-0.9,1.6C28.2,23.4,28.1,23.5,27.9,23.5z"/>
			</g>
			<g id="XMLID_582_">
				<path id="XMLID_621_" class="st10" d="M28.9,24.4c-0.1,0-0.3-0.1-0.4-0.2c-0.1-0.2,0-0.5,0.2-0.6l0.8-0.5c0.2-0.1,0.5,0,0.6,0.2
					c0.1,0.2,0,0.5-0.2,0.6l-0.8,0.5C29,24.4,28.9,24.4,28.9,24.4z"/>
			</g>
			<g id="XMLID_583_">
				<path id="XMLID_463_" class="st10" d="M31.1,25.7C31.1,25.7,31.1,25.7,31.1,25.7l-1.9,0c-0.2,0-0.4-0.2-0.4-0.4
					c0-0.2,0.2-0.4,0.4-0.4c0,0,0,0,0,0l1.9,0c0.2,0,0.4,0.2,0.4,0.4C31.5,25.5,31.3,25.7,31.1,25.7z"/>
			</g>
			<g id="XMLID_586_">
				<path id="XMLID_619_" class="st10" d="M26.7,29.1C26.7,29.1,26.6,29.1,26.7,29.1c-0.2,0-0.4-0.2-0.4-0.4l0-0.9
					c0-0.2,0.2-0.4,0.4-0.4c0,0,0,0,0,0c0.2,0,0.4,0.2,0.4,0.4l0,0.9C27.1,28.9,26.9,29.1,26.7,29.1z"/>
			</g>
			<g id="XMLID_587_">
				<path id="XMLID_415_" class="st10" d="M24.4,29.5c-0.1,0-0.1,0-0.2-0.1C24,29.3,24,29,24.1,28.8l1-1.6c0.1-0.2,0.4-0.3,0.6-0.1
					c0.2,0.1,0.3,0.4,0.1,0.6l-1,1.6C24.7,29.4,24.6,29.5,24.4,29.5z"/>
			</g>
			<g id="XMLID_588_">
				<path id="XMLID_595_" class="st10" d="M23.7,27.4c-0.1,0-0.3-0.1-0.4-0.2c-0.1-0.2-0.1-0.5,0.1-0.6l0.8-0.5
					c0.2-0.1,0.5-0.1,0.6,0.1c0.1,0.2,0.1,0.5-0.1,0.6l-0.8,0.5C23.8,27.3,23.8,27.4,23.7,27.4z"/>
			</g>
			<g id="XMLID_589_">
				<path id="XMLID_594_" class="st10" d="M24.2,25.6C24.2,25.6,24.2,25.6,24.2,25.6l-1.9,0c-0.2,0-0.4-0.2-0.4-0.4
					c0-0.2,0.2-0.4,0.4-0.4c0,0,0,0,0,0l1.9,0c0.2,0,0.4,0.2,0.4,0.4C24.6,25.5,24.4,25.6,24.2,25.6z"/>
			</g>
			<g id="XMLID_590_">
				<path id="XMLID_593_" class="st10" d="M24.5,24.4c-0.1,0-0.1,0-0.2-0.1l-0.7-0.4c-0.2-0.1-0.3-0.4-0.1-0.6
					c0.1-0.2,0.4-0.3,0.6-0.1l0.7,0.4c0.2,0.1,0.3,0.4,0.1,0.6C24.8,24.3,24.7,24.4,24.5,24.4z"/>
			</g>
			<g id="XMLID_585_">
				<path id="XMLID_591_" class="st10" d="M25.4,23.5c-0.1,0-0.3-0.1-0.4-0.2l-0.9-1.6c-0.1-0.2,0-0.5,0.2-0.6
					c0.2-0.1,0.5,0,0.6,0.2l0.9,1.6c0.1,0.2,0,0.5-0.2,0.6C25.6,23.4,25.5,23.5,25.4,23.5z"/>
			</g>
		</g>
	</g>
	<path id="XMLID_524_" class="st36" d="M39.1,37c0.1-0.2,0-0.4-0.2-0.4c-0.2-0.1-0.4,0-0.4,0.2l-0.2,0.5H27.1l-0.5-1.4l-3.1-0.2
		c-0.2,0-0.4,0.1-0.4,0.3c0,0.2,0.1,0.4,0.3,0.4l2.6,0.2l2.5,7.7h0.7c0,0,0.1,0,0.1,0c0.1,0.6,0.7,1,1.3,1c0.6,0,1.1-0.4,1.3-1
		c0,0,0,0,0.1,0h1.9c0,0,0.1,0,0.1,0c0.2,0.6,0.7,1,1.3,1c0.6,0,1.1-0.4,1.3-1c0,0,0.1,0,0.1,0H37c0.2,0,0.4-0.2,0.4-0.4
		c0-0.2-0.2-0.4-0.4-0.4h-0.5c0,0-0.1,0-0.1,0c-0.1-0.6-0.7-1-1.3-1c-0.6,0-1.1,0.4-1.3,1c0,0,0,0-0.1,0h-1.9c0,0,0,0-0.1,0
		c-0.2-0.6-0.7-1-1.3-1c-0.6,0-1.1,0.4-1.3,1c0,0-0.1,0-0.1,0H29L28.6,42h8.9l0.5-1.6c0,0,0-0.1,0-0.1L39.1,37z M35.1,43.2
		c0.3,0,0.6,0.3,0.6,0.6c0,0.3-0.3,0.6-0.6,0.6s-0.6-0.3-0.6-0.6C34.5,43.4,34.8,43.2,35.1,43.2z M30.6,43.2c0.3,0,0.6,0.3,0.6,0.6
		c0,0.3-0.3,0.6-0.6,0.6c-0.3,0-0.6-0.3-0.6-0.6C30,43.4,30.2,43.2,30.6,43.2z M27.9,39.9l-0.2-0.6h9.9l-0.2,0.6L27.9,39.9
		C27.9,39.9,27.9,39.9,27.9,39.9z M38,37.9l-0.2,0.6H27.5l-0.2-0.6H38z M28.4,41.3l-0.2-0.7h9.1l-0.2,0.7H28.4z"/>
</g>
<g id="XMLID_485_" class="st0">
	<path id="XMLID_482_" class="st41" d="M22.7,22.3v27.2c0,1,0.8,1.9,1.9,1.9H28c1,0,1.9-0.8,1.9-1.9v-4.9c0-1.3,1.1-2.4,2.4-2.4
		h10.5"/>
	<g id="XMLID_1569_" class="st1">
		<path id="XMLID_1547_" class="st7" d="M34.3,35.2l-23.2,0c-0.3,0-0.5-0.2-0.5-0.5l0-23.2c0-0.3,0.2-0.5,0.5-0.5l23.2,0
			c0.3,0,0.5,0.2,0.5,0.5l0,23.2C34.8,35,34.6,35.2,34.3,35.2z"/>
		<path id="XMLID_496_" class="st22" d="M34.8,11.8c0-0.4-0.3-0.7-0.7-0.7l-1.5,0l0,22c0,0.4-0.3,0.7-0.7,0.7l-21.2,0l0,0.8
			c0,0.4,0.3,0.7,0.7,0.7l22.7,0c0.4,0,0.7-0.3,0.7-0.7L34.8,11.8z"/>
		<rect id="XMLID_1549_" x="20.8" y="11.1" class="st4" width="3.9" height="24.1"/>
		<rect id="XMLID_480_" x="22.7" y="11.1" class="st30" width="1.9" height="24.1"/>
		<g id="XMLID_1558_">
			<rect id="XMLID_1550_" x="14" y="17" class="st10" width="0.3" height="3.2"/>
			<rect id="XMLID_1551_" x="14.6" y="17" class="st10" width="0.3" height="2.7"/>
			<rect id="XMLID_1553_" x="15.2" y="17" class="st10" width="0.3" height="3.2"/>
			<rect id="XMLID_1555_" x="15.8" y="17" class="st10" width="0.3" height="2.7"/>
			<rect id="XMLID_1557_" x="16.3" y="17" class="st10" width="0.3" height="3.2"/>
		</g>
		<rect id="XMLID_1559_" x="14.4" y="23.2" class="st10" width="0.9" height="5.5"/>
	</g>
	<g id="XMLID_479_" class="st1">
		<g id="XMLID_497_">
			
				<rect id="XMLID_1404_" x="47.8" y="46.6" transform="matrix(0.7071 -0.7071 0.7071 0.7071 -19.7995 48.4325)" class="st15" width="1.5" height="3"/>
			
				<rect id="XMLID_1399_" x="48.6" y="48.7" transform="matrix(-0.7071 -0.7071 0.7071 -0.7071 51.0926 121.6387)" class="st7" width="4.3" height="3"/>
			<path id="XMLID_547_" class="st4" d="M35.8,35.3c-3.6,3.6-3.6,9.5,0,13.1c3.6,3.6,9.5,3.6,13.1,0c3.6-3.6,3.6-9.5,0-13.1
				C45.3,31.7,39.4,31.7,35.8,35.3z M47.5,47.1c-2.9,2.9-7.5,2.9-10.4,0c-2.9-2.9-2.9-7.5,0-10.4c2.9-2.9,7.5-2.9,10.4,0
				C50.4,39.6,50.4,44.2,47.5,47.1z"/>
			<path id="XMLID_613_" class="st30" d="M47.6,36.7c-2.9-2.9-7.6-2.9-10.4,0c-2.9,2.9-2.9,7.6,0,10.4c2.9,2.9,7.6,2.9,10.4,0
				C50.5,44.3,50.5,39.6,47.6,36.7z M47.1,46.6c-2.6,2.6-6.8,2.6-9.4,0c-2.6-2.6-2.6-6.8,0-9.4c2.6-2.6,6.8-2.6,9.4,0
				C49.7,39.8,49.7,44,47.1,46.6z"/>
			
				<rect id="XMLID_1400_" x="48" y="50" transform="matrix(-0.7071 -0.7071 0.7071 -0.7071 49.7044 122.2139)" class="st42" width="4.3" height="1.5"/>
			<g id="XMLID_1377_">
				<path id="XMLID_1395_" class="st4" d="M41.8,47.4c-0.3,0-0.7,0-1-0.1c-0.3-0.1-0.7-0.2-1-0.3c-0.3-0.1-0.6-0.3-0.9-0.5
					c-0.3-0.2-0.6-0.4-0.8-0.7c-0.3-0.3-0.5-0.5-0.7-0.8c-0.2-0.3-0.4-0.6-0.5-0.9c-0.1-0.3-0.2-0.6-0.3-1c-0.1-0.3-0.1-0.7-0.1-1
					l0.6,0c0,0.3,0,0.6,0.1,0.9c0.1,0.3,0.1,0.6,0.3,0.9c0.1,0.3,0.3,0.6,0.4,0.8c0.2,0.3,0.4,0.5,0.6,0.7c0.2,0.2,0.5,0.4,0.7,0.6
					c0.3,0.2,0.5,0.3,0.8,0.4c0.3,0.1,0.6,0.2,0.9,0.3c0.3,0.1,0.6,0.1,0.9,0.1V47.4z"/>
			</g>
		</g>
	</g>
	<circle id="XMLID_483_" class="st24" cx="42.4" cy="42" r="2.4"/>
</g>
<g id="XMLID_514_" class="st0">
	<path id="XMLID_1468_" class="st31" d="M11.4,40.9h-0.3c-0.5,0-1-0.5-1-1v-0.7c0-0.6,0.5-1,1-1h0.3c0.6,0,1,0.4,1,1v0.7
		C12.4,40.5,12,40.9,11.4,40.9z"/>
	<path id="XMLID_1475_" class="st43" d="M11.3,25.9v16.4h2.2c0-2.7,2.2-4.9,4.9-4.9c2.7,0,4.9,2.2,4.9,4.9h11.4v-0.3
		c0-2.6,2.1-4.6,4.6-4.7l0.5,0c2.7,0,4.9,2.2,4.9,5l0,0l3.1,0V25.9H11.3z"/>
	<path id="XMLID_1441_" class="st31" d="M51.9,27c-0.3-1.1-1.3-2-2.5-2H37.8v11.5c3.9,0,7.1,2.2,7.1,6.1h8.6v-8.8L51.9,27z"/>
	<path id="XMLID_1493_" class="st39" d="M46.1,42.4c0-3.9-3.2-6.6-7.1-6.6V25.1h-1.2v11.5c3.9,0,7.1,2.2,7.1,6.1h8.6v-0.1H46.1z"/>
	<path id="XMLID_1423_" class="st24" d="M50.9,27.9c-0.2-1-1.1-1.7-2.1-1.7H44c-0.5,0-0.9,0.4-0.9,0.9v4.4c0,0.4,0.3,0.6,0.6,0.7
		l7.6,1.4c0.5,0.1,0.9-0.4,0.8-0.9L50.9,27.9z"/>
	<path id="XMLID_1444_" class="st43" d="M53.5,36.3h-0.8c-0.3,0-0.6,0.3-0.6,0.6v1.8c0,0.3,0.3,0.6,0.6,0.6h0.8V36.3z"/>
	<path id="XMLID_1442_" class="st44" d="M53.5,36.5H53c-0.3,0-0.6,0.3-0.6,0.6v1.3c0,0.3,0.3,0.6,0.6,0.6h0.5V36.5z"/>
	<rect id="XMLID_1437_" x="51.7" y="39.6" class="st24" width="1.8" height="0.6"/>
	<polygon id="XMLID_499_" class="st43" points="44.4,33.9 43.4,33.9 43.4,34.5 44.4,34.5 45.4,34.5 45.4,33.9 	"/>
	<path id="XMLID_1446_" class="st43" d="M53.5,42.6h-2.8v-1.8h2.8c0.4,0,0.6,0.3,0.6,0.6v0.5C54.1,42.3,53.9,42.6,53.5,42.6z"/>
	<path id="XMLID_1448_" class="st24" d="M36.4,37.3H10.8c-0.5,0-1-0.4-1-1V18.2c0-0.5,0.4-1,1-1h25.6c0.5,0,1,0.4,1,1v18.2
		C37.4,36.9,36.9,37.3,36.4,37.3z"/>
	<g id="XMLID_1477_" class="st1">
		<circle id="XMLID_1447_" class="st10" cx="39.7" cy="42.2" r="4.6"/>
		<circle id="XMLID_1469_" class="st45" cx="39.7" cy="42.2" r="2.9"/>
		<circle id="XMLID_1474_" class="st6" cx="39.7" cy="42.2" r="2.4"/>
		<circle id="XMLID_1476_" class="st4" cx="39.7" cy="42.2" r="1.1"/>
	</g>
	<g id="XMLID_498_" class="st1">
		<circle id="XMLID_510_" class="st10" cx="18.4" cy="42.2" r="4.6"/>
		<circle id="XMLID_509_" class="st45" cx="18.4" cy="42.2" r="2.9"/>
		<circle id="XMLID_508_" class="st6" cx="18.4" cy="42.2" r="2.4"/>
		<circle id="XMLID_503_" class="st4" cx="18.4" cy="42.2" r="1.1"/>
	</g>
	<g id="XMLID_1494_" class="st1">
		<rect id="XMLID_1495_" x="42.2" y="20.6" class="st46" width="0.4" height="4.5"/>
	</g>
	<g id="XMLID_1490_" class="st1">
		<path id="XMLID_1492_" class="st47" d="M50.2,25.8l-7.8-4.7c-0.7-0.4-1.1-1.2-1.1-1.9v-0.3h0.6v0.3c0,0.6,0.3,1.1,0.8,1.4l7.8,4.7
			L50.2,25.8z"/>
	</g>
	<path id="XMLID_1614_" class="st48" d="M45.2,26.2l-2.2,2.2v3.2c0,0.1,0,0.2,0.1,0.3l5.6-5.6H45.2z"/>
	<path id="XMLID_1637_" class="st48" d="M49.7,26.5l-5.8,5.8l1.2,0.2l5.4-5.4C50.3,26.8,50,26.6,49.7,26.5z"/>
	<circle id="XMLID_513_" class="st31" cx="23.6" cy="27.4" r="7.1"/>
	<g id="XMLID_511_" class="st1">
		<polygon id="XMLID_512_" class="st6" points="22.5,30.9 19.4,27.9 21.2,26.2 22.5,27.5 26,23.9 27.8,25.6 		"/>
	</g>
</g>
<g id="XMLID_1592_" class="st0">
	<g id="XMLID_539_" class="st1">
		<path id="XMLID_1585_" class="st7" d="M15,31.3l1.6,14c0.2,2.8,2.6,5,5.5,5H42c2.9,0,5.2-2.2,5.5-5l1.6-14H15z M22.6,48.2
			c0,0.4-0.3,0.8-0.8,0.8c-0.4,0-0.8-0.3-0.8-0.8V35.9c0-0.4,0.3-0.8,0.8-0.8c0.4,0,0.8,0.3,0.8,0.8V48.2z M26.6,48.2
			c0,0.4-0.3,0.8-0.8,0.8c-0.4,0-0.8-0.3-0.8-0.8V35.9c0-0.4,0.3-0.8,0.8-0.8c0.4,0,0.8,0.3,0.8,0.8V48.2z M30.6,48.2
			c0,0.4-0.3,0.8-0.8,0.8c-0.4,0-0.8-0.3-0.8-0.8V35.9c0-0.4,0.3-0.8,0.8-0.8c0.4,0,0.8,0.3,0.8,0.8V48.2z M34.7,48.2
			c0,0.4-0.3,0.8-0.8,0.8c-0.4,0-0.8-0.3-0.8-0.8V35.9c0-0.4,0.3-0.8,0.8-0.8c0.4,0,0.8,0.3,0.8,0.8V48.2z M38.7,48.2
			c0,0.4-0.3,0.8-0.8,0.8c-0.4,0-0.8-0.3-0.8-0.8V35.9c0-0.4,0.3-0.8,0.8-0.8c0.4,0,0.8,0.3,0.8,0.8V48.2z M42.7,48.2
			c0,0.4-0.3,0.8-0.8,0.8c-0.4,0-0.8-0.3-0.8-0.8V35.9c0-0.4,0.3-0.8,0.8-0.8c0.4,0,0.8,0.3,0.8,0.8V48.2z"/>
		<polygon id="XMLID_1578_" class="st28" points="15.4,35.1 48.8,33.8 49,31.3 15,31.3 		"/>
		<path id="XMLID_1574_" class="st7" d="M49,32.8H15c-0.4,0-0.7-0.3-0.7-0.7v-2.7c0-0.4,0.3-0.7,0.7-0.7H49c0.4,0,0.7,0.3,0.7,0.7
			v2.7C49.7,32.5,49.4,32.8,49,32.8z"/>
		<path id="XMLID_531_" class="st12" d="M49,28.8H15c-0.4,0-0.7,0.3-0.7,0.7v1.3h35.4v-1.3C49.7,29.1,49.4,28.8,49,28.8z"/>
	</g>
	<g id="XMLID_515_" class="st1">
		<path id="XMLID_530_" class="st10" d="M21.4,31.1l0.2,0.1c0.3,0.2,0.7,0.1,0.9-0.2l8.1-14c0.2-0.3,0.1-0.7-0.2-0.9L30.1,16
			c-0.3-0.2-0.7-0.1-0.9,0.2l-8.1,14C20.9,30.5,21.1,30.9,21.4,31.1z"/>
		<g id="XMLID_534_">
			<circle id="XMLID_529_" class="st4" cx="29.4" cy="16.4" r="2.7"/>
			<circle id="XMLID_532_" class="st6" cx="29.4" cy="16.4" r="1.4"/>
		</g>
		<path id="XMLID_538_" class="st10" d="M42.6,31.1l-0.2,0.1c-0.3,0.2-0.7,0.1-0.9-0.2l-8.1-14c-0.2-0.3-0.1-0.7,0.2-0.9l0.2-0.1
			c0.3-0.2,0.7-0.1,0.9,0.2l8.1,14C43.1,30.5,42.9,30.9,42.6,31.1z"/>
		<g id="XMLID_535_">
			<circle id="XMLID_537_" class="st4" cx="34.6" cy="16.4" r="2.7"/>
			<circle id="XMLID_536_" class="st6" cx="34.6" cy="16.4" r="1.4"/>
		</g>
	</g>
</g>
<g id="XMLID_556_" class="st0">
	<g id="XMLID_542_" class="st1">
		<path id="XMLID_754_" class="st4" d="M45.1,54.1H18.9v-5.6c0-7.3,5.9-13.1,13.1-13.1l0,0c7.3,0,13.1,5.9,13.1,13.1V54.1z"/>
		<polygon id="XMLID_753_" class="st49" points="36.8,37.3 31.9,41.6 27.2,37.3 27.2,33 36.8,33 		"/>
		<polygon id="XMLID_752_" class="st50" points="36.8,37.3 36.8,33 31.5,33 31.9,41.6 		"/>
		<path id="XMLID_748_" class="st22" d="M40.6,23.5h0.1v-7.2h-2.5v4.9C38.2,22.5,39.3,23.5,40.6,23.5z"/>
		<path id="XMLID_737_" class="st49" d="M32.3,36.4L32.3,36.4c-4,0-7.3-3.3-7.3-7.3V16h14.6v13.1C39.6,33.1,36.4,36.4,32.3,36.4z"/>
		<path id="XMLID_732_" class="st50" d="M37.7,16v13.1c0,3.7-2.8,6.8-6.4,7.2c0.3,0,0.6,0.1,1,0.1c4,0,7.3-3.3,7.3-7.3V16H37.7z"/>
		<circle id="XMLID_731_" class="st49" cx="24.8" cy="24.2" r="1.2"/>
		<circle id="XMLID_730_" class="st50" cx="39.7" cy="24.2" r="1.2"/>
		<path id="XMLID_729_" class="st7" d="M26,13.8h-0.7c-0.6,0-1,0.5-1,1.1V16v4v4h0c1,0,1.8-0.9,1.8-2.1V20l0,0c0.5,0,0.9-0.4,0.9-1
			v-4.1C27,14.3,26.6,13.8,26,13.8z"/>
		<path id="XMLID_728_" class="st7" d="M40.7,19.8l-1.1-1.4c-0.7-0.9-1.8-1.4-2.9-1.4h-7.4c-1.6,0-2.9-1.3-2.9-2.9v-0.5
			c0-0.7,0.5-1.2,1.2-1.2h10.2c1.7,0,3,1.4,3,3V19.8z"/>
		<path id="XMLID_722_" class="st22" d="M40.7,19.8l-1.1-1.4c-0.7-0.9-1.8-1.4-2.9-1.4h-3.3l-5.8-4.6h10.2c1.7,0,3,1.4,3,3V19.8z"/>
		<path id="XMLID_721_" class="st51" d="M32.4,27.3c-0.6,0-1-0.4-1.2-0.9c0,0.1,0,0.2,0,0.3c0,0.7,0.5,1.2,1.2,1.2
			c0.7,0,1.2-0.5,1.2-1.2c0-0.1,0-0.2,0-0.3C33.4,26.9,33,27.3,32.4,27.3z"/>
		<circle id="XMLID_720_" class="st52" cx="29.5" cy="23.9" r="0.7"/>
		<circle id="XMLID_719_" class="st52" cx="35.4" cy="23.9" r="0.7"/>
		<path id="XMLID_709_" class="st10" d="M31.5,21.9h-4.1c-0.2,0-0.4-0.2-0.4-0.4l0,0c0-0.2,0.2-0.4,0.4-0.4h4.1
			c0.2,0,0.4,0.2,0.4,0.4l0,0C31.9,21.7,31.7,21.9,31.5,21.9z"/>
		<path id="XMLID_552_" class="st10" d="M37.4,21.9h-4.1c-0.2,0-0.4-0.2-0.4-0.4l0,0c0-0.2,0.2-0.4,0.4-0.4h4.1
			c0.2,0,0.4,0.2,0.4,0.4l0,0C37.8,21.7,37.6,21.9,37.4,21.9z"/>
		<polygon id="XMLID_550_" class="st6" points="27.2,36.2 25.7,43.9 31.9,41.6 		"/>
		<polygon id="XMLID_549_" class="st6" points="36.9,36.2 38.3,43.9 31.8,41.6 		"/>
		<circle id="XMLID_546_" class="st6" cx="32" cy="43.8" r="0.5"/>
		<circle id="XMLID_545_" class="st6" cx="32.1" cy="47.9" r="0.5"/>
		<circle id="XMLID_544_" class="st6" cx="32.2" cy="52.1" r="0.5"/>
		<path id="XMLID_543_" class="st6" d="M35.3,31c0,1.8-1.4,3.2-3.2,3.2c-1.8,0-3.2-1.4-3.2-3.2H35.3z"/>
	</g>
	<path id="XMLID_572_" class="st43" d="M25,27.3h-1.2c-1,0-1.8-0.8-1.8-1.8V23c0-1,0.8-1.8,1.8-1.8H25V27.3z"/>
	<path id="XMLID_571_" class="st43" d="M39.7,27.3h1.2c1,0,1.8-0.8,1.8-1.8V23c0-1-0.8-1.8-1.8-1.8h-1.2V27.3z"/>
	<path id="XMLID_643_" class="st41" d="M23.7,21.6v-2.8c0-4.9,4-8.9,8.9-8.9l0,0c4.9,0,8.9,4,8.9,8.9v2.8"/>
	<path id="XMLID_566_" class="st41" d="M40.8,26.8v4.6c0,0.2-0.1,0.5-0.3,0.7l-0.5,0.5c-0.2,0.2-0.4,0.3-0.7,0.3h-2.7"/>
	<g id="XMLID_553_" class="st1">
		<path id="XMLID_555_" class="st10" d="M36.4,34h-2.7c-0.7,0-1.2-0.5-1.2-1.2l0,0c0-0.7,0.5-1.2,1.2-1.2h2.7c0.7,0,1.2,0.5,1.2,1.2
			l0,0C37.6,33.5,37.1,34,36.4,34z"/>
		<path id="XMLID_696_" class="st53" d="M33.7,32.7h2.7c0.5,0,0.9,0.3,1.1,0.7c0.1-0.2,0.1-0.3,0.1-0.5c0-0.7-0.5-1.2-1.2-1.2h-2.7
			c-0.7,0-1.2,0.5-1.2,1.2c0,0.2,0,0.3,0.1,0.5C32.8,32.9,33.2,32.7,33.7,32.7z"/>
	</g>
</g>
<g id="XMLID_570_" class="st0">
	<g id="XMLID_575_" class="st1">
		<path id="XMLID_604_" class="st4" d="M38.2,15.3v33.4c0,2.1-1.7,3.8-3.8,3.8H18.2c-2.1,0-3.8-1.7-3.8-3.8V15.3
			c0-2.1,1.7-3.8,3.8-3.8h16.2C36.5,11.5,38.2,13.2,38.2,15.3z"/>
		<path id="XMLID_603_" class="st28" d="M14.4,15.3v2.5c0-2.1,1.7-3.8,3.8-3.8h16.3c2.1,0,3.8,1.7,3.8,3.8v-2.5
			c0-2.1-1.7-3.8-3.8-3.8H18.2C16.1,11.5,14.4,13.2,14.4,15.3z"/>
		<path id="XMLID_592_" class="st7" d="M27.9,42.3v6.3c0,0.3-0.3,0.6-0.6,0.6H21c-0.3,0-0.6-0.3-0.6-0.6v-6.3c0-0.3,0.3-0.6,0.6-0.6
			h6.3C27.7,41.7,27.9,42,27.9,42.3z"/>
		<rect id="XMLID_576_" x="21.7" y="17.8" class="st6" width="2.3" height="20.9"/>
	</g>
	<path id="XMLID_574_" class="st20" d="M35.3,24.3l-12.8,3.4v0c0,0,0,0,0,0c0,0.3,0,0.5,0,0.8c0.4,16,11.6,23.3,12.7,24
		c0.1,0,0.2-0.1,0.4-0.1c0.4-0.2,1.1-0.8,2.1-1.6c0.4-0.6,0.6-1.3,0.6-2V25.1L35.3,24.3z"/>
	<g id="XMLID_705_" class="st1">
		<path id="XMLID_578_" class="st7" d="M36.8,52.5c0,0-12.8-7.3-12.8-24.8l12.8-3.4l12.8,3.4C49.6,44.8,36.8,52.5,36.8,52.5z"/>
		<path id="XMLID_602_" class="st22" d="M36.8,25.1l12.8,3.4c0-0.3,0-0.5,0-0.8l-12.8-3.4L24,27.7c0,0.3,0,0.5,0,0.8L36.8,25.1z"/>
		<circle id="XMLID_577_" class="st22" cx="36.8" cy="37.4" r="6.5"/>
		<g id="XMLID_568_">
			<polygon id="XMLID_573_" class="st10" points="35.8,40.8 32.9,37.9 34.5,36.2 35.8,37.5 38.9,34.3 40.6,36 			"/>
		</g>
	</g>
</g>
<g id="XMLID_733_" class="st0">
	<g id="XMLID_579_" class="st1">
		<g id="XMLID_707_">
			<path id="XMLID_712_" class="st7" d="M15.3,33.7l1.6,14c0.2,2.8,2.6,5,5.5,5h19.9c2.9,0,5.2-2.2,5.5-5l1.6-14H15.3z M22.8,50.7
				c0,0.4-0.3,0.8-0.8,0.8c-0.4,0-0.8-0.3-0.8-0.8V38.3c0-0.4,0.3-0.8,0.8-0.8c0.4,0,0.8,0.3,0.8,0.8V50.7z M26.8,50.7
				c0,0.4-0.3,0.8-0.8,0.8c-0.4,0-0.8-0.3-0.8-0.8V38.3c0-0.4,0.3-0.8,0.8-0.8c0.4,0,0.8,0.3,0.8,0.8V50.7z M30.9,50.7
				c0,0.4-0.3,0.8-0.8,0.8c-0.4,0-0.8-0.3-0.8-0.8V38.3c0-0.4,0.3-0.8,0.8-0.8c0.4,0,0.8,0.3,0.8,0.8V50.7z M34.9,50.7
				c0,0.4-0.3,0.8-0.8,0.8c-0.4,0-0.8-0.3-0.8-0.8V38.3c0-0.4,0.3-0.8,0.8-0.8c0.4,0,0.8,0.3,0.8,0.8V50.7z M38.9,50.7
				c0,0.4-0.3,0.8-0.8,0.8c-0.4,0-0.8-0.3-0.8-0.8V38.3c0-0.4,0.3-0.8,0.8-0.8c0.4,0,0.8,0.3,0.8,0.8V50.7z M43,50.7
				c0,0.4-0.3,0.8-0.8,0.8c-0.4,0-0.8-0.3-0.8-0.8V38.3c0-0.4,0.3-0.8,0.8-0.8c0.4,0,0.8,0.3,0.8,0.8V50.7z"/>
			<polygon id="XMLID_711_" class="st28" points="15.7,37.6 49,36.3 49.3,33.7 15.3,33.7 			"/>
			<path id="XMLID_710_" class="st7" d="M49.3,35.3H15.2c-0.4,0-0.7-0.3-0.7-0.7V32c0-0.4,0.3-0.7,0.7-0.7h34.1
				c0.4,0,0.7,0.3,0.7,0.7v2.7C49.9,35,49.6,35.3,49.3,35.3z"/>
			<path id="XMLID_708_" class="st12" d="M49.3,31.3H15.2c-0.4,0-0.7,0.3-0.7,0.7v1.3h35.4V32C49.9,31.6,49.6,31.3,49.3,31.3z"/>
		</g>
		<g id="XMLID_606_">
			<path id="XMLID_706_" class="st10" d="M42.1,33.6l0.2,0.1c0.3,0.2,0.7,0.1,0.9-0.2l8.1-14c0.2-0.3,0.1-0.7-0.2-0.9l-0.2-0.1
				c-0.3-0.2-0.7-0.1-0.9,0.2l-8.1,14C41.7,33,41.8,33.4,42.1,33.6z"/>
			<g id="XMLID_702_">
				<circle id="XMLID_704_" class="st4" cx="50.1" cy="18.9" r="2.7"/>
				<circle id="XMLID_703_" class="st6" cx="50.1" cy="18.9" r="1.4"/>
			</g>
			<path id="XMLID_724_" class="st10" d="M22.4,33.6l-0.2,0.1c-0.3,0.2-0.7,0.1-0.9-0.2l-8.1-14c-0.2-0.3-0.1-0.7,0.2-0.9l0.2-0.1
				c0.3-0.2,0.7-0.1,0.9,0.2l8.1,14C22.8,33,22.7,33.4,22.4,33.6z"/>
			<g id="XMLID_698_">
				<circle id="XMLID_700_" class="st4" cx="13.9" cy="18.9" r="2.7"/>
				<circle id="XMLID_699_" class="st6" cx="13.9" cy="18.9" r="1.4"/>
			</g>
		</g>
	</g>
	<path id="XMLID_734_" class="st19" d="M32,33.8c2.6,0,5-0.9,6.9-2.5H25.1C27,32.9,29.4,33.8,32,33.8z"/>
	<g id="XMLID_727_" class="st1">
		<circle id="XMLID_701_" class="st4" cx="32" cy="22" r="10.8"/>
		<circle id="XMLID_725_" class="st30" cx="32" cy="22" r="8.3"/>
		<polygon id="XMLID_726_" class="st6" points="36.8,20.4 33.6,20.4 33.6,17.2 30.4,17.2 30.4,20.4 27.2,20.4 27.2,23.6 30.4,23.6 
			30.4,26.8 33.6,26.8 33.6,23.6 36.8,23.6 		"/>
	</g>
</g>
<g id="XMLID_756_" class="st0">
	<g id="XMLID_741_" class="st1">
		<path id="XMLID_755_" class="st21" d="M28.7,48.5h-9v-32c0-0.8,0.7-1.5,1.5-1.5h7.5V48.5z"/>
		<path id="XMLID_751_" class="st7" d="M28.4,48.5h24.3c0.5,0,1-0.4,1-1V16c0-0.5-0.4-1-1-1H28.4V48.5z"/>
		<path id="XMLID_750_" class="st7" d="M24.1,48.5h-4.5V16.1c0-0.5,0.4-1,1-1h3.5V48.5z"/>
		<polygon id="XMLID_747_" class="st22" points="28.7,48.5 19.6,48.5 19.6,48.5 24.1,43.2 28.7,48.5 		"/>
		<circle id="XMLID_746_" class="st22" cx="34.3" cy="20.4" r="1.6"/>
		<circle id="XMLID_744_" class="st22" cx="48.7" cy="20.4" r="1.6"/>
		<g id="XMLID_742_">
			<path id="XMLID_743_" class="st10" d="M33.7,27.4v-7c0-0.2,0.2-0.4,0.4-0.4h0.5c0.2,0,0.4,0.2,0.4,0.4v7c0,3.6,3,6.6,6.6,6.6
				c3.6,0,6.6-3,6.6-6.6v-7c0-0.2,0.2-0.4,0.4-0.4h0.5c0.2,0,0.4,0.2,0.4,0.4v7c0,4.3-3.5,7.8-7.8,7.8
				C37.2,35.2,33.7,31.7,33.7,27.4z"/>
		</g>
	</g>
	<path id="XMLID_760_" class="st19" d="M43.9,28.4c0-0.7-0.6-1.3-1.3-1.3H19.6v21.4h4.5h4.3h0.2h15.4c0.6-0.3,1.2-0.6,1.7-1.1v-1
		h-1.8V28.4z"/>
	<g id="XMLID_559_" class="st1">
		<g id="XMLID_565_">
			<path id="XMLID_740_" class="st18" d="M42.9,46.5H12.1V28.4c0-0.7,0.6-1.3,1.3-1.3h28.3c0.7,0,1.3,0.6,1.3,1.3V46.5z"/>
			<rect id="XMLID_739_" x="13.7" y="28.9" class="st6" width="27.7" height="16.1"/>
			<path id="XMLID_738_" class="st2" d="M44.7,47.4H10.3l0,0c1,1,2.3,1.5,3.7,1.5h27C42.4,48.9,43.8,48.4,44.7,47.4L44.7,47.4z"/>
			<rect id="XMLID_736_" x="10.3" y="46.4" class="st3" width="34.4" height="1"/>
			<path id="XMLID_735_" class="st2" d="M29.7,47.2h-4.3c-0.1,0-0.3-0.1-0.3-0.3l0,0c0-0.1,0.1-0.3,0.3-0.3h4.3
				c0.1,0,0.3,0.1,0.3,0.3l0,0C29.9,47.1,29.8,47.2,29.7,47.2z"/>
		</g>
	</g>
	<circle id="XMLID_759_" class="st24" cx="27.5" cy="36.9" r="6.6"/>
	<g id="XMLID_757_" class="st1">
		<polygon id="XMLID_758_" class="st6" points="26.5,40.2 23.7,37.4 25.3,35.8 26.5,37 29.8,33.7 31.4,35.3 		"/>
	</g>
</g>
<g id="XMLID_762_" class="st0">
	<g id="XMLID_814_" class="st1">
		<polygon id="XMLID_1651_" class="st22" points="53.2,32 49.4,37.7 49.2,44.5 42.7,46.8 38.6,52.2 32,50.3 25.4,52.2 21.3,46.8 
			14.8,44.5 14.6,37.7 10.8,32 14.6,26.3 14.8,19.5 21.3,17.2 25.4,11.8 32,13.7 38.6,11.8 42.7,17.2 49.2,19.5 49.4,26.3 		"/>
	</g>
	<g id="XMLID_813_" class="st1">
		<circle id="XMLID_907_" class="st7" cx="32" cy="31.9" r="14.8"/>
	</g>
	<polygon id="XMLID_766_" class="st19" points="21.3,27.8 13.3,35.8 14.6,37.7 14.8,44.5 21.3,46.8 25.4,52.2 28.6,51.3 40.8,39.1 	
		"/>
	<g id="XMLID_761_" class="st1">
		<g id="XMLID_777_">
			<g id="XMLID_785_">
				<path id="XMLID_801_" class="st6" d="M42.3,31.9h-0.4c0.8,0,1.4-0.7,1.3-1.5c-0.1-0.7-0.7-1.1-1.4-1.1h-3.2h-2.9
					c0,0,0.7-2.4,0.7-3.7c0-0.3-0.1-1.2-0.1-1.7c-0.1-0.6-0.6-1-1.1-1l0,0c-0.6,0-1.1,0.4-1.2,1c-0.1,1-0.4,2.5-0.8,3
					c-0.4,0.5-1.8,2.4-1.8,2.4h-2.2L28,37.8h2.9c0.3,0,0.6,0.1,0.8,0.3l1.3,1.3c0.2,0.2,0.6,0.4,0.9,0.4h5.7c0.7,0,1.3-0.4,1.4-1.1
					c0.1-0.8-0.5-1.5-1.3-1.5h1.3c0.7,0,1.3-0.4,1.4-1.1c0.1-0.8-0.5-1.5-1.3-1.5h1.4c0.8,0,1.4-0.7,1.3-1.5
					C43.6,32.3,43,31.9,42.3,31.9z"/>
			</g>
			<g id="XMLID_782_">
				<g id="XMLID_783_">
					<path id="XMLID_800_" class="st2" d="M35.7,23.8c0.1,0.5,0.1,1.4,0.1,1.7c0,1.3-0.7,3.7-0.7,3.7h0.7c0,0,0.7-2.4,0.7-3.7
						c0-0.3-0.1-1.2-0.1-1.7c-0.1-0.6-0.6-1-1.1-1c-0.1,0-0.2,0-0.3,0.1C35.3,23,35.6,23.4,35.7,23.8z"/>
				</g>
			</g>
			<g id="XMLID_774_" class="st54">
				<path id="XMLID_775_" class="st52" d="M29,30v7.8h1.8c0.2,0,0.3,0,0.4,0.1v-8.6h-2.1L29,30z"/>
			</g>
			<g id="XMLID_780_">
				<path id="XMLID_798_" class="st4" d="M21.3,39V27.8h8.4c0.2,0,0.4,0.2,0.4,0.4v10.5c0,0.2-0.2,0.4-0.4,0.4H21.3z"/>
			</g>
			<g id="XMLID_779_">
				<path id="XMLID_797_" class="st15" d="M21.3,39v-3.7h8.8v3.3c0,0.2-0.2,0.4-0.4,0.4H21.3z"/>
			</g>
		</g>
	</g>
</g>
<g id="XMLID_828_" class="st0">
	<circle id="XMLID_807_" class="st24" cx="32" cy="33.3" r="16.2"/>
	<circle id="XMLID_795_" class="st48" cx="32" cy="33.3" r="11.4"/>
	<path id="XMLID_771_" class="st19" d="M32,17c-7,0-12.9,4.4-15.2,10.5l5.7-1.5c0.6,0,1.1-0.5,1.1-1.1c0,0-0.7-2.4,0.1-3.1
		c3-2.9,13.7-2.9,16.7,0c0.8,0.7,0.1,3.1,0.1,3.1c0,0.6,0.5,1.1,1.1,1.1l5.7,1.5C44.9,21.4,39,17,32,17z"/>
	<g id="XMLID_778_" class="st1">
		<path id="XMLID_784_" class="st7" d="M51.5,26.2v-5.6l0-1c0-0.6-0.4-1.4-0.9-1.8c0,0-9.5-6.9-10.2-6.9c-4.3,0-12.8,0-17.1,0
			c-0.6,0-10,6.9-10,6.9c-0.5,0.4-0.9,1.2-0.9,1.8l0,1l0,5.6c0,0.6,0.5,1.1,1.1,1.1l8.9-2.3c0.6,0,1.1-0.5,1.1-1.1
			c0,0-0.7-2.4,0.1-3.1c3-2.9,13.7-2.9,16.7,0c0.8,0.7,0.1,3.1,0.1,3.1c0,0.6,0.5,1.1,1.1,1.1l8.9,2.3C51,27.4,51.5,26.9,51.5,26.2z
			"/>
	</g>
	<g id="XMLID_794_" class="st1">
		<path id="XMLID_808_" class="st22" d="M51.5,19.6c0-0.6-0.4-1.4-0.9-1.8c0,0-9.5-6.9-10.2-6.9c-4.3,0-12.8,0-17.1,0
			c-0.6,0-10,6.9-10,6.9c-0.5,0.4-0.9,1.2-0.9,1.8l0,1l0,1.3l0-0.8c0-0.6,0.4-1.4,0.9-1.8c0,0,9.4-6.9,10-6.9c4.3,0,12.8,0,17.1,0
			c0.6,0,10.2,6.9,10.2,6.9c0.5,0.4,0.9,1.2,0.9,1.8l0,1v-1.5L51.5,19.6z"/>
	</g>
	<g id="XMLID_787_" class="st1">
		<path id="XMLID_788_" class="st22" d="M51.5,26.2v-1.9l-11-3.2c0.4,0.9-0.2,2.7-0.2,2.7c0,0.6,0.5,1.1,1.1,1.1l8.9,2.3
			C51,27.4,51.5,26.9,51.5,26.2z"/>
		<path id="XMLID_809_" class="st22" d="M23.6,24c0,0-0.5-1.8-0.2-2.7l-11,3.1l0,1.9c0,0.6,0.5,1.1,1.1,1.1l8.9-2.3
			C23.1,25.1,23.6,24.6,23.6,24z"/>
	</g>
	<g id="XMLID_769_" class="st1">
		<path id="XMLID_812_" class="st6" d="M25.5,32.6c0.1-0.2,0.2-0.4,0.2-0.5c0-0.2-0.1-0.3-0.2-0.4c-0.1-0.1-0.3-0.2-0.4-0.2
			c-0.3,0-0.6,0.2-0.9,0.7l-0.9-0.6c0.2-0.4,0.5-0.7,0.8-0.9c0.3-0.2,0.7-0.3,1.1-0.3c0.5,0,0.9,0.1,1.2,0.4
			c0.3,0.3,0.5,0.7,0.5,1.2c0,0.3-0.1,0.5-0.2,0.8c-0.1,0.3-0.4,0.6-0.8,1l-1,1H27v1.1h-3.7V35l1.6-1.6
			C25.2,33.1,25.4,32.8,25.5,32.6z"/>
		<path id="XMLID_810_" class="st6" d="M29.8,33.6v-0.9H31v0.9h0.6v1H31v1.3h-1.1v-1.3h-2.1v-0.9l1.9-3.1h1.3l-1.8,3H29.8z"/>
		<path id="XMLID_773_" class="st6" d="M35.3,29.8h1.1l-3.2,6.9h-1.1L35.3,29.8z"/>
		<path id="XMLID_770_" class="st6" d="M36.9,32.3v-1.7h3.8v0.9l-2.1,4.4h-1.3l2-4.3H38v0.7H36.9z"/>
	</g>
	<circle id="XMLID_816_" class="st24" cx="13.9" cy="30.1" r="1.5"/>
	<circle id="XMLID_817_" class="st24" cx="14" cy="36.5" r="1.5"/>
	<circle id="XMLID_818_" class="st24" cx="14" cy="36.5" r="1.5"/>
	<circle id="XMLID_819_" class="st24" cx="16.2" cy="42.5" r="1.5"/>
	<circle id="XMLID_820_" class="st24" cx="20.3" cy="47.3" r="1.5"/>
	<circle id="XMLID_821_" class="st24" cx="25.8" cy="50.5" r="1.5"/>
	<circle id="XMLID_822_" class="st24" cx="32" cy="51.6" r="1.5"/>
	<circle id="XMLID_823_" class="st24" cx="38.3" cy="50.5" r="1.5"/>
	<circle id="XMLID_824_" class="st24" cx="43.8" cy="47.3" r="1.5"/>
	<circle id="XMLID_825_" class="st24" cx="47.9" cy="42.4" r="1.5"/>
	<circle id="XMLID_826_" class="st24" cx="50.1" cy="36.4" r="1.5"/>
	<circle id="XMLID_827_" class="st24" cx="50" cy="30" r="1.5"/>
</g>
<g id="XMLID_829_" class="st0">
	<g id="XMLID_870_" class="st1">
		<path id="XMLID_970_" class="st4" d="M54.1,28l-1.5,2.9c-0.3,0.6-0.3,1.3,0,1.9l1.5,2.9c0.1,0.2,0,0.5-0.3,0.5H40.7v-8.8h13.1
			C54.1,27.5,54.2,27.8,54.1,28z"/>
	</g>
	<g id="XMLID_868_" class="st1">
		<path id="XMLID_968_" class="st4" d="M9.9,28l1.5,2.9c0.3,0.6,0.3,1.3,0,1.9l-1.5,2.9c-0.1,0.2,0,0.5,0.3,0.5h13.1v-8.8H10.2
			C9.9,27.5,9.8,27.8,9.9,28z"/>
	</g>
	<g id="XMLID_869_" class="st55">
		<path id="XMLID_896_" class="st14" d="M19.4,27.9l-1.6,2.4c-0.7,1-0.7,2.3,0,3.2l1.6,2.4c0.1,0.1,0.1,0.2,0.2,0.3h3.7v-8.8h-3.7
			C19.5,27.6,19.5,27.8,19.4,27.9z"/>
	</g>
	<g id="XMLID_872_" class="st55">
		<path id="XMLID_860_" class="st14" d="M44,36l1.6-2.4c0.7-1,0.7-2.3,0-3.2L44,27.9c-0.1-0.1-0.1-0.2-0.2-0.3h-3.2v8.8h3.2
			C43.9,36.2,44,36.1,44,36z"/>
	</g>
	<g id="XMLID_865_" class="st1">
		<path id="XMLID_962_" class="st7" d="M44.7,33.5L43,36c-0.2,0.3-0.4,0.7-0.4,1.1L42,39.9c-0.2,1.2-1.1,2.1-2.3,2.3l-2.9,0.6
			c-0.4,0.1-0.7,0.2-1.1,0.4l-2.4,1.6c-1,0.7-2.3,0.7-3.2,0l-2.4-1.6c-0.3-0.2-0.7-0.4-1.1-0.4l-2.9-0.6c-1.2-0.2-2.1-1.1-2.3-2.3
			L20.9,37c-0.1-0.4-0.2-0.7-0.4-1.1l-1.6-2.4c-0.7-1-0.7-2.3,0-3.2l1.6-2.4c0.2-0.3,0.4-0.7,0.4-1.1l0.6-2.9
			c0.2-1.2,1.1-2.1,2.3-2.3l2.9-0.6c0.4-0.1,0.7-0.2,1.1-0.4l2.4-1.6c1-0.7,2.3-0.7,3.2,0l2.4,1.6c0.3,0.2,0.7,0.4,1.1,0.4l2.9,0.6
			c1.2,0.2,2.1,1.1,2.3,2.3l0.6,2.9c0.1,0.4,0.2,0.7,0.4,1.1l1.6,2.4C45.3,31.3,45.3,32.6,44.7,33.5z"/>
	</g>
	<g id="XMLID_862_" class="st1">
		<circle id="XMLID_960_" class="st8" cx="31.7" cy="31.9" r="9.2"/>
	</g>
	<g id="XMLID_861_" class="st1">
		<path id="XMLID_958_" class="st6" d="M35.7,38.2l-3.8-1.9c-0.1,0-0.2,0-0.2,0l-3.7,2c-0.2,0.1-0.4-0.1-0.4-0.3l0.7-4.2
			c0-0.1,0-0.2-0.1-0.2l-3.1-2.9c-0.2-0.1-0.1-0.4,0.1-0.4l4.2-0.7c0.1,0,0.2-0.1,0.2-0.1l1.8-3.8c0.1-0.2,0.4-0.2,0.4,0l1.9,3.8
			c0,0.1,0.1,0.1,0.2,0.1l4.2,0.6c0.2,0,0.3,0.3,0.1,0.4l-3,3c-0.1,0.1-0.1,0.1-0.1,0.2l0.8,4.2C36.1,38.1,35.9,38.3,35.7,38.2z"/>
	</g>
	<g id="XMLID_897_" class="st1">
		<g id="XMLID_859_">
			<path id="XMLID_895_" class="st4" d="M31.7,16.5c-0.4,0-0.8-0.3-0.8-0.7v-2.8c0-0.4,0.3-0.8,0.8-0.8c0.4,0,0.7,0.3,0.7,0.8v2.8
				C32.5,16.1,32.1,16.5,31.7,16.5z"/>
		</g>
		<g id="XMLID_858_">
			<path id="XMLID_894_" class="st4" d="M35.3,16.9c-0.1,0-0.1,0-0.2,0c-0.4-0.1-0.6-0.5-0.5-0.9l0.3-1.2c0.1-0.4,0.5-0.6,0.9-0.5
				c0.4,0.1,0.6,0.5,0.5,0.9L36,16.4C35.9,16.7,35.6,16.9,35.3,16.9z"/>
		</g>
		<g id="XMLID_857_">
			<path id="XMLID_893_" class="st4" d="M38.6,18.3c-0.1,0-0.3,0-0.4-0.1c-0.4-0.2-0.5-0.7-0.3-1l1.4-2.4c0.2-0.4,0.7-0.5,1-0.3
				c0.4,0.2,0.5,0.7,0.3,1l-1.4,2.4C39.1,18.2,38.8,18.3,38.6,18.3z"/>
		</g>
		<g id="XMLID_856_">
			<path id="XMLID_892_" class="st4" d="M41.4,20.5c-0.2,0-0.4-0.1-0.6-0.3c-0.3-0.3-0.2-0.8,0.1-1.1l1-0.9c0.3-0.3,0.8-0.2,1.1,0.1
				c0.3,0.3,0.2,0.8-0.1,1.1l-1,0.9C41.8,20.4,41.6,20.5,41.4,20.5z"/>
		</g>
		<g id="XMLID_855_">
			<path id="XMLID_891_" class="st4" d="M43.6,23.3c-0.3,0-0.5-0.1-0.7-0.4c-0.2-0.4-0.1-0.8,0.3-1l2.5-1.4c0.4-0.2,0.8-0.1,1,0.3
				c0.2,0.4,0.1,0.8-0.3,1l-2.5,1.4C43.8,23.3,43.7,23.3,43.6,23.3z"/>
		</g>
		<g id="XMLID_853_">
			<path id="XMLID_890_" class="st4" d="M44.9,26.6c-0.4,0-0.7-0.3-0.7-0.6c-0.1-0.4,0.2-0.8,0.6-0.9l1.4-0.3
				c0.4-0.1,0.8,0.2,0.9,0.6c0.1,0.4-0.2,0.8-0.6,0.9l-1.4,0.3C45,26.6,45,26.6,44.9,26.6z"/>
		</g>
		<g id="XMLID_852_">
			<path id="XMLID_889_" class="st4" d="M18.6,26.4c-0.1,0-0.1,0-0.2,0L17.1,26c-0.4-0.1-0.6-0.5-0.5-0.9c0.1-0.4,0.5-0.6,0.9-0.5
				l1.3,0.4c0.4,0.1,0.6,0.5,0.5,0.9C19.2,26.2,18.9,26.4,18.6,26.4z"/>
		</g>
		<g id="XMLID_851_">
			<path id="XMLID_888_" class="st4" d="M20,23.1c-0.1,0-0.3,0-0.4-0.1l-2.4-1.5c-0.4-0.2-0.5-0.7-0.3-1c0.2-0.4,0.7-0.5,1-0.3
				l2.4,1.5c0.4,0.2,0.5,0.7,0.3,1C20.5,23,20.3,23.1,20,23.1z"/>
		</g>
		<g id="XMLID_849_">
			<path id="XMLID_887_" class="st4" d="M22.2,20.3c-0.2,0-0.4-0.1-0.5-0.2l-1-1.1c-0.3-0.3-0.3-0.8,0-1.1c0.3-0.3,0.8-0.3,1.1,0
				l1,1.1c0.3,0.3,0.3,0.8,0,1.1C22.6,20.2,22.4,20.3,22.2,20.3z"/>
		</g>
		<g id="XMLID_845_">
			<path id="XMLID_886_" class="st4" d="M25.1,18.2c-0.3,0-0.5-0.1-0.7-0.4l-1.4-2.5c-0.2-0.4-0.1-0.8,0.3-1c0.4-0.2,0.8-0.1,1,0.3
				l1.4,2.5c0.2,0.4,0.1,0.8-0.3,1C25.4,18.1,25.2,18.2,25.1,18.2z"/>
		</g>
		<g id="XMLID_844_">
			<path id="XMLID_885_" class="st4" d="M28.4,16.9c-0.3,0-0.6-0.2-0.7-0.6l-0.3-1.4c-0.1-0.4,0.1-0.8,0.5-0.9
				c0.4-0.1,0.8,0.1,0.9,0.5l0.3,1.4c0.1,0.4-0.1,0.8-0.5,0.9C28.6,16.9,28.5,16.9,28.4,16.9z"/>
		</g>
		<g id="XMLID_843_">
			<path id="XMLID_882_" class="st4" d="M31.7,51.9c-0.4,0-0.8-0.3-0.8-0.8v-2.8c0-0.4,0.3-0.8,0.8-0.8c0.4,0,0.7,0.3,0.7,0.8v2.8
				C32.5,51.5,32.1,51.9,31.7,51.9z"/>
		</g>
		<g id="XMLID_842_">
			<path id="XMLID_880_" class="st4" d="M35.7,50c-0.3,0-0.6-0.2-0.7-0.6L34.6,48c-0.1-0.4,0.1-0.8,0.5-0.9c0.4-0.1,0.8,0.1,0.9,0.5
				l0.4,1.4c0.1,0.4-0.1,0.8-0.5,0.9C35.8,50,35.7,50,35.7,50z"/>
		</g>
		<g id="XMLID_840_">
			<path id="XMLID_879_" class="st4" d="M40,49.6c-0.3,0-0.5-0.1-0.6-0.4l-1.4-2.4c-0.2-0.4-0.1-0.8,0.3-1c0.4-0.2,0.8-0.1,1,0.3
				l1.4,2.4c0.2,0.4,0.1,0.8-0.3,1C40.3,49.6,40.1,49.6,40,49.6z"/>
		</g>
		<g id="XMLID_839_">
			<path id="XMLID_878_" class="st4" d="M42.5,46.1c-0.2,0-0.4-0.1-0.5-0.2l-1.1-1.1c-0.3-0.3-0.3-0.8,0-1.1c0.3-0.3,0.8-0.3,1.1,0
				l1.1,1.1c0.3,0.3,0.3,0.8,0,1.1C42.9,46,42.7,46.1,42.5,46.1z"/>
		</g>
		<g id="XMLID_838_">
			<path id="XMLID_877_" class="st4" d="M46,43.6c-0.1,0-0.3,0-0.4-0.1l-2.5-1.4c-0.4-0.2-0.5-0.7-0.3-1c0.2-0.4,0.7-0.5,1-0.3
				l2.5,1.4c0.4,0.2,0.5,0.7,0.3,1C46.5,43.4,46.3,43.6,46,43.6z"/>
		</g>
		<g id="XMLID_837_">
			<path id="XMLID_876_" class="st4" d="M46.3,39.4c-0.1,0-0.2,0-0.3,0l-1.4-0.5c-0.4-0.1-0.6-0.6-0.5-1c0.1-0.4,0.6-0.6,1-0.5
				l1.4,0.5c0.4,0.1,0.6,0.6,0.5,1C46.9,39.2,46.6,39.4,46.3,39.4z"/>
		</g>
		<g id="XMLID_836_">
			<path id="XMLID_875_" class="st4" d="M17.2,39.6c-0.3,0-0.6-0.2-0.7-0.5c-0.1-0.4,0.1-0.8,0.5-1l1.4-0.5c0.4-0.1,0.8,0.1,1,0.5
				c0.1,0.4-0.1,0.8-0.5,1l-1.4,0.5C17.4,39.6,17.3,39.6,17.2,39.6z"/>
		</g>
		<g id="XMLID_835_">
			<path id="XMLID_874_" class="st4" d="M17.6,43.9c-0.3,0-0.5-0.1-0.6-0.4c-0.2-0.4-0.1-0.8,0.3-1l2.4-1.5c0.4-0.2,0.8-0.1,1,0.3
				c0.2,0.4,0.1,0.8-0.3,1L18,43.8C17.9,43.8,17.7,43.9,17.6,43.9z"/>
		</g>
		<g id="XMLID_834_">
			<path id="XMLID_873_" class="st4" d="M21.2,46.3c-0.2,0-0.4-0.1-0.5-0.2c-0.3-0.3-0.3-0.8,0-1.1l1-1.1c0.3-0.3,0.8-0.3,1.1,0
				c0.3,0.3,0.3,0.8,0,1.1l-1,1.1C21.6,46.2,21.4,46.3,21.2,46.3z"/>
		</g>
		<g id="XMLID_831_">
			<path id="XMLID_867_" class="st4" d="M23.7,49.8c-0.1,0-0.2,0-0.4-0.1c-0.4-0.2-0.5-0.7-0.3-1l1.4-2.5c0.2-0.4,0.7-0.5,1-0.3
				c0.4,0.2,0.5,0.7,0.3,1l-1.4,2.5C24.3,49.7,24,49.8,23.7,49.8z"/>
		</g>
		<g id="XMLID_830_">
			<path id="XMLID_863_" class="st4" d="M28.1,50c-0.1,0-0.1,0-0.2,0c-0.4-0.1-0.6-0.5-0.5-0.9l0.3-1.4c0.1-0.4,0.5-0.6,0.9-0.5
				c0.4,0.1,0.6,0.5,0.5,0.9l-0.3,1.4C28.7,49.8,28.4,50,28.1,50z"/>
		</g>
	</g>
</g>
<g id="XMLID_906_" class="st0">
	<g id="XMLID_923_" class="st1">
		<g id="XMLID_951_">
			<path id="XMLID_967_" class="st3" d="M49,52.1H14.5V11.6c0-0.6,0.5-1.2,1.2-1.2h32.2c0.6,0,1.2,0.5,1.2,1.2V52.1z"/>
			<path id="XMLID_966_" class="st4" d="M49,15.6v-4c0-0.7-0.5-1.2-1.2-1.2H15.7c-0.7,0-1.2,0.5-1.2,1.2v4H49z"/>
			<rect id="XMLID_965_" x="17.8" y="19.7" class="st4" width="13.7" height="13.7"/>
			<circle id="XMLID_963_" class="st6" cx="17.8" cy="13" r="0.7"/>
			<circle id="XMLID_961_" class="st6" cx="20.1" cy="13" r="0.7"/>
			<circle id="XMLID_959_" class="st6" cx="22.5" cy="13" r="0.7"/>
			<path id="XMLID_957_" class="st40" d="M47.8,10.4h-1.5c0.7,0,1.2,0.5,1.2,1.2v40.4H49V11.6C49,11,48.5,10.4,47.8,10.4z"/>
			<path id="XMLID_956_" class="st2" d="M45.8,21.5H33.4c-0.3,0-0.5-0.2-0.5-0.5v-0.2c0-0.3,0.2-0.5,0.5-0.5h12.3
				c0.3,0,0.5,0.2,0.5,0.5V21C46.3,21.3,46.1,21.5,45.8,21.5z"/>
			<path id="XMLID_955_" class="st2" d="M45.8,24.1H33.4c-0.3,0-0.5-0.2-0.5-0.5v-0.2c0-0.3,0.2-0.5,0.5-0.5h12.3
				c0.3,0,0.5,0.2,0.5,0.5v0.2C46.3,23.9,46.1,24.1,45.8,24.1z"/>
			<path id="XMLID_954_" class="st2" d="M45.8,26.7H33.4c-0.3,0-0.5-0.2-0.5-0.5V26c0-0.3,0.2-0.5,0.5-0.5h12.3
				c0.3,0,0.5,0.2,0.5,0.5v0.2C46.3,26.5,46.1,26.7,45.8,26.7z"/>
			<path id="XMLID_953_" class="st2" d="M45.8,29.3H33.4c-0.3,0-0.5-0.2-0.5-0.5v-0.2c0-0.3,0.2-0.5,0.5-0.5h12.3
				c0.3,0,0.5,0.2,0.5,0.5v0.2C46.3,29.1,46.1,29.3,45.8,29.3z"/>
			<path id="XMLID_952_" class="st2" d="M40.5,31.9h-7.1c-0.3,0-0.5-0.2-0.5-0.5v-0.2c0-0.3,0.2-0.5,0.5-0.5h7.1
				c0.3,0,0.5,0.2,0.5,0.5v0.2C41,31.7,40.8,31.9,40.5,31.9z"/>
		</g>
	</g>
	<path id="XMLID_908_" class="st20" d="M49,35.6c-1.2-0.6-2.5-0.9-3.8-0.9c-0.3,0-0.7,0-1,0.1h-0.2c0,0,0,0,0,0
		c0-0.2-0.1-0.3-0.1-0.5c0,0,0,0,0,0c-0.4-0.9-1.3-1.6-2.4-1.6s-2,0.7-2.4,1.6c0,0,0,0,0,0c-0.1,0.1-0.1,0.3-0.1,0.5c0,0,0,0,0,0
		h-5.2c-0.5-0.3-1.2-0.5-1.9-0.5c-0.7,0-1.3,0.2-1.9,0.5h-5.7c0,0,0,0,0,0c0-0.2-0.1-0.3-0.1-0.5c0,0,0,0,0,0
		c-0.4-0.9-1.3-1.6-2.4-1.6c-1.1,0-2,0.7-2.4,1.6c0,0,0,0,0,0c-0.1,0.1-0.1,0.3-0.1,0.5c0,0,0,0,0,0c-0.2,0-0.4,0-0.6,0
		c-0.3,0-0.7,0-1,0.1h0l0,0c-1.2,0.1-2.3,0.5-3.3,1.1v15.6c0.4,0.2,0.9,0.5,1.4,0.6h5.8c2.5-0.9,4.5-2.8,5.4-5.2
		c1.7-1.3,3.3-3.1,4.2-5.6c0.2,0,0.4,0.1,0.6,0.1c0.1,0,0.2,0,0.4,0c1.1,2.7,2.8,4.6,4.7,6c1,2.2,2.9,4,5.2,4.8h5.2h0.6
		c0.3-0.1,0.6-0.2,0.9-0.4V35.6z"/>
	<g id="XMLID_898_" class="st1">
		<circle id="XMLID_1488_" class="st22" cx="21.9" cy="36.2" r="2.6"/>
		<circle id="XMLID_1489_" class="st22" cx="41.5" cy="36.2" r="2.6"/>
		<path id="XMLID_914_" class="st28" d="M19.4,36.2c0,1.4,1.1,2.6,2.6,2.6s2.6-1.1,2.6-2.6c0-0.3-0.1-0.6-0.2-0.9h-4.7
			C19.4,35.6,19.4,35.9,19.4,36.2z"/>
		<path id="XMLID_917_" class="st28" d="M39,36.2c0,1.4,1.1,2.6,2.6,2.6c1.4,0,2.6-1.1,2.6-2.6c0-0.3-0.1-0.6-0.2-0.9h-4.7
			C39.1,35.6,39,35.9,39,36.2z"/>
		<path id="XMLID_1485_" class="st22" d="M31.9,40.8c-2.6,9.9-14.3,10.7-14.3,10.7l0.2-15.7h14.1C31.9,35.8,32.2,39.6,31.9,40.8z"/>
		<path id="XMLID_1487_" class="st22" d="M31.9,40.8c2.6,9.9,14.1,10.9,14.1,10.9V35.8H31.9C31.9,35.8,31.5,39.6,31.9,40.8z"/>
		<circle id="XMLID_1467_" class="st7" cx="18.8" cy="44.6" r="8.9"/>
		<circle id="XMLID_913_" class="st4" cx="18.8" cy="44.6" r="6.9"/>
		<path id="XMLID_912_" class="st30" d="M18.8,37.7c-1.8,0-3.4,0.7-4.6,1.8l9.7,9.7c1.1-1.2,1.8-2.8,1.8-4.6c0-0.1,0-0.2,0-0.2
			L19,37.7C19,37.7,18.9,37.7,18.8,37.7z"/>
		<path id="XMLID_1478_" class="st30" d="M12.4,42.1l9,9c0.7-0.3,1.3-0.6,1.8-1.1l-9.7-9.7C13,40.8,12.7,41.4,12.4,42.1z"/>
		<circle id="XMLID_911_" class="st7" cx="45.2" cy="44.6" r="8.9"/>
		<circle id="XMLID_905_" class="st4" cx="45.2" cy="44.6" r="6.9"/>
		<path id="XMLID_904_" class="st30" d="M45.2,37.7c-1.8,0-3.4,0.7-4.6,1.8l9.7,9.7c1.1-1.2,1.8-2.8,1.8-4.6c0-0.1,0-0.2,0-0.2
			l-6.7-6.7C45.4,37.7,45.3,37.7,45.2,37.7z"/>
		<path id="XMLID_903_" class="st30" d="M38.8,42.1l9,9c0.7-0.3,1.3-0.6,1.8-1.1l-9.7-9.7C39.4,40.8,39.1,41.4,38.8,42.1z"/>
		<circle id="XMLID_900_" class="st7" cx="32" cy="38.8" r="3.5"/>
		<circle id="XMLID_899_" class="st10" cx="32" cy="38.8" r="1.9"/>
	</g>
</g>
<g id="XMLID_935_" class="st0">
	<g id="XMLID_939_" class="st1">
		<path id="XMLID_915_" class="st26" d="M44.9,11.5l-25.8,0c-0.2,0-0.4,0.1-0.5,0.1l-4.4,5.6c-0.1,0.1,0,0.2,0.3,0.2l35,0
			c0.3,0,0.4-0.1,0.3-0.2l-4.4-5.6C45.3,11.5,45.1,11.5,44.9,11.5z"/>
		<path id="XMLID_950_" class="st7" d="M49.4,52.5l-34.7,0c-0.3,0-0.5-0.2-0.5-0.5l0-34.7c0-0.3,0.2-0.5,0.5-0.5l34.7,0
			c0.3,0,0.5,0.2,0.5,0.5l0,34.7C49.8,52.3,49.6,52.5,49.4,52.5z"/>
		<path id="XMLID_949_" class="st22" d="M49.8,17.9c0-0.6-0.5-1-1-1l-2.2,0l0,32.5c0,0.6-0.5,1-1,1l-31.4,0l0,1.1c0,0.6,0.5,1,1,1
			l33.6,0c0.6,0,1-0.5,1-1L49.8,17.9z"/>
		<polygon id="XMLID_916_" class="st56" points="33.9,11.5 30.1,11.5 29.1,16.9 34.9,16.9 		"/>
		<rect id="XMLID_948_" x="29.1" y="16.9" class="st4" width="5.8" height="11.8"/>
		<g id="XMLID_941_">
			<rect id="XMLID_946_" x="16.5" y="25" class="st10" width="4.7" height="0.5"/>
			<rect id="XMLID_945_" x="16.5" y="24.1" class="st10" width="4.1" height="0.5"/>
			<rect id="XMLID_944_" x="16.5" y="23.2" class="st10" width="4.7" height="0.5"/>
			<rect id="XMLID_943_" x="16.5" y="22.4" class="st10" width="4.1" height="0.5"/>
			<rect id="XMLID_942_" x="16.5" y="21.5" class="st10" width="4.7" height="0.5"/>
		</g>
		<rect id="XMLID_940_" x="16.5" y="19.1" class="st10" width="8.2" height="1.3"/>
	</g>
	<g id="XMLID_918_" class="st1">
		<g id="XMLID_933_">
			<path id="XMLID_934_" class="st4" d="M25.1,38.4c-0.2,0-0.4-0.2-0.4-0.4c0-0.2,0-0.3,0-0.5c0-0.2,0.2-0.4,0.4-0.4
				c0.2,0,0.4,0.2,0.4,0.4c0,0.1,0,0.3,0,0.4C25.5,38.2,25.4,38.4,25.1,38.4C25.2,38.4,25.2,38.4,25.1,38.4z"/>
		</g>
		<g id="XMLID_931_">
			<path id="XMLID_932_" class="st4" d="M25.3,39.7c-0.2,0-0.3-0.1-0.4-0.3c0-0.1,0-0.2-0.1-0.3c0-0.2,0.1-0.4,0.3-0.4
				c0.2,0,0.4,0.1,0.4,0.3c0,0.1,0,0.2,0.1,0.3C25.7,39.4,25.5,39.6,25.3,39.7C25.3,39.7,25.3,39.7,25.3,39.7z"/>
		</g>
		<g id="XMLID_928_">
			<path id="XMLID_930_" class="st4" d="M32.1,45.3c-3.2,0-6-2-7-5.1c-0.1-0.2,0-0.4,0.2-0.5c0.2-0.1,0.4,0,0.5,0.2
				c0.9,2.7,3.4,4.6,6.3,4.6c3.7,0,6.6-3,6.6-6.6c0-3.7-3-6.6-6.6-6.6c-0.2,0-0.4-0.2-0.4-0.4c0-0.2,0.2-0.4,0.4-0.4
				c4.1,0,7.4,3.3,7.4,7.4S36.2,45.3,32.1,45.3z"/>
		</g>
		<g id="XMLID_919_">
			<path id="XMLID_926_" class="st4" d="M32.1,32.1c-0.1,0-0.2,0-0.3-0.1L30.9,31c-0.1-0.1-0.1-0.2,0-0.2l0.9-0.9
				c0.1-0.1,0.4-0.1,0.5,0c0.1,0.1,0.1,0.4,0,0.5l-0.5,0.5l0.5,0.5c0.1,0.1,0.1,0.4,0,0.5C32.3,32.1,32.2,32.1,32.1,32.1z"/>
		</g>
	</g>
</g>
<g id="XMLID_976_" class="st0">
	<g id="XMLID_991_" class="st1">
		<g id="XMLID_992_">
			<path id="XMLID_1004_" class="st3" d="M48.2,49.5H15.8V11.7c0-0.6,0.5-1.2,1.2-1.2h30c0.6,0,1.2,0.5,1.2,1.2V49.5z"/>
			<path id="XMLID_1003_" class="st4" d="M48.2,15.4v-3.8c0-0.6-0.5-1.1-1.1-1.1H16.9c-0.6,0-1.1,0.5-1.1,1.1v3.8H48.2z"/>
			<rect id="XMLID_1002_" x="19.4" y="18.8" class="st4" width="24.6" height="11.8"/>
			<circle id="XMLID_1001_" class="st6" cx="19" cy="12.9" r="0.6"/>
			<circle id="XMLID_1000_" class="st6" cx="21.1" cy="12.9" r="0.6"/>
			<circle id="XMLID_999_" class="st6" cx="23.3" cy="12.9" r="0.6"/>
			<path id="XMLID_998_" class="st40" d="M47.1,10.5h-1.4c0.6,0,1.1,0.5,1.1,1.1v37.9h1.4V11.6C48.2,11,47.7,10.5,47.1,10.5z"/>
			<path id="XMLID_936_" class="st2" d="M43.1,34.4H20.3c-0.5,0-0.9-0.4-0.9-0.9l0,0c0-0.5,0.4-0.9,0.9-0.9h22.8
				c0.5,0,0.9,0.4,0.9,0.9l0,0C44,34,43.6,34.4,43.1,34.4z"/>
			<path id="XMLID_973_" class="st2" d="M43.1,38.2H20.3c-0.5,0-0.9-0.4-0.9-0.9l0,0c0-0.5,0.4-0.9,0.9-0.9h22.8
				c0.5,0,0.9,0.4,0.9,0.9l0,0C44,37.8,43.6,38.2,43.1,38.2z"/>
			<path id="XMLID_974_" class="st2" d="M43.1,42H20.3c-0.5,0-0.9-0.4-0.9-0.9l0,0c0-0.5,0.4-0.9,0.9-0.9h22.8
				c0.5,0,0.9,0.4,0.9,0.9l0,0C44,41.6,43.6,42,43.1,42z"/>
			<path id="XMLID_975_" class="st2" d="M43.1,45.8H20.3c-0.5,0-0.9-0.4-0.9-0.9l0,0c0-0.5,0.4-0.9,0.9-0.9h22.8
				c0.5,0,0.9,0.4,0.9,0.9l0,0C44,45.4,43.6,45.8,43.1,45.8z"/>
		</g>
	</g>
	<g id="XMLID_985_" class="st55">
		<path id="XMLID_989_" class="st14" d="M43.7,33.5L32,30.4l-11.7,3.1c0-0.2,0-0.5,0-0.7c0,7.6,2.6,13.1,5.4,16.8h12.6
			C41,45.9,43.6,40.6,43.7,33.5z M32,47.6c-3.3,0-6-2.7-6-6s2.7-6,6-6c3.3,0,6,2.7,6,6S35.3,47.6,32,47.6z"/>
		<path id="XMLID_994_" class="st14" d="M43.8,32.7c0,0.3,0,0.5,0,0.7h0C43.7,33.2,43.8,33,43.8,32.7z"/>
		<polygon id="XMLID_995_" class="st14" points="20.2,32.7 20.2,32.7 32,29.6 		"/>
		<polygon id="XMLID_1006_" class="st14" points="31,41.7 29.9,40.6 28.4,42.1 31,44.8 35.5,40.3 33.9,38.8 		"/>
	</g>
	<g id="XMLID_937_" class="st1">
		<path id="XMLID_971_" class="st7" d="M32,53.5c0,0-10.8-6.2-10.8-21L32,29.6l10.8,2.9C42.8,46.9,32,53.5,32,53.5z"/>
		<path id="XMLID_969_" class="st22" d="M32,30.3l10.8,2.9c0-0.2,0-0.4,0-0.7L32,29.6l-10.8,2.9c0,0.2,0,0.5,0,0.7L32,30.3z"/>
		<circle id="XMLID_964_" class="st22" cx="32" cy="40.7" r="5.5"/>
		<g id="XMLID_938_">
			<polygon id="XMLID_947_" class="st10" points="31.1,43.6 28.6,41.2 30.1,39.7 31.1,40.8 33.8,38.1 35.2,39.5 			"/>
		</g>
	</g>
	<path id="XMLID_977_" class="st36" d="M37.4,21.7c0.1-0.2,0-0.3-0.2-0.4c-0.2-0.1-0.3,0-0.4,0.2l-0.1,0.4h-9.5l-0.4-1.2l-2.6-0.2
		c-0.2,0-0.3,0.1-0.3,0.3c0,0.2,0.1,0.3,0.3,0.3l2.2,0.2l2.1,6.5h0.6c0,0,0.1,0,0.1,0c0.1,0.5,0.6,0.8,1.1,0.8
		c0.5,0,0.9-0.3,1.1-0.8c0,0,0,0,0.1,0h1.6c0,0,0,0,0.1,0c0.1,0.5,0.6,0.8,1.1,0.8c0.5,0,0.9-0.4,1.1-0.8c0,0,0.1,0,0.1,0h0.5
		c0.2,0,0.3-0.1,0.3-0.3c0-0.2-0.1-0.3-0.3-0.3h-0.5c0,0-0.1,0-0.1,0c-0.1-0.5-0.6-0.8-1.1-0.8c-0.5,0-0.9,0.3-1.1,0.8
		c0,0,0,0-0.1,0h-1.6c0,0,0,0-0.1,0c-0.1-0.5-0.6-0.8-1.1-0.8c-0.5,0-0.9,0.4-1.1,0.8c0,0-0.1,0-0.1,0h-0.1L28.4,26H36l0.4-1.4
		c0,0,0-0.1,0-0.1L37.4,21.7z M34,27c0.3,0,0.5,0.2,0.5,0.5c0,0.3-0.2,0.5-0.5,0.5c-0.3,0-0.5-0.2-0.5-0.5C33.5,27.2,33.7,27,34,27z
		 M30.1,27c0.3,0,0.5,0.2,0.5,0.5c0,0.3-0.2,0.5-0.5,0.5s-0.5-0.2-0.5-0.5C29.6,27.2,29.8,27,30.1,27z M27.8,24.2l-0.2-0.5h8.4
		l-0.2,0.5L27.8,24.2C27.9,24.2,27.9,24.2,27.8,24.2z M36.5,22.5L36.3,23h-8.8l-0.2-0.5H36.5z M28.2,25.4L28,24.8h7.7l-0.2,0.6H28.2
		z"/>
</g>
</svg>
