<?xml version="1.0" encoding="iso-8859-1"?>
<!-- Generator: Adobe Illustrator 19.0.0, SVG Export Plug-In . SVG Version: 6.00 Build 0)  -->
<svg version="1.1" id="Capa_1" xmlns="http://www.w3.org/2000/svg" xmlns:xlink="http://www.w3.org/1999/xlink" x="0px" y="0px"
	 viewBox="0 0 511.767 511.767" style="enable-background:new 0 0 511.767 511.767;" xml:space="preserve">
<rect x="31.983" y="211.904" style="fill:#FFFFFF;" width="415.81" height="255.88"/>
<g>
	<path style="fill:#94C1FF;" d="M479.78,443.798c0,35.327-28.644,63.971-63.971,63.971s-63.971-28.644-63.971-63.971
		c0-35.328,28.644-63.971,63.971-63.971S479.78,408.47,479.78,443.798z"/>
	<rect x="63.973" y="331.844" style="fill:#94C1FF;" width="159.93" height="103.95"/>
</g>
<path style="fill:#D7E9FF;" d="M447.795,211.904v-7.997c0-4.396-3.6-7.996-7.996-7.996H39.982c-4.396,0-7.996,3.6-7.996,7.996v7.997
	H447.795z"/>
<rect x="63.973" y="243.884" style="fill:#94C1FF;" width="351.84" height="63.971"/>
<polygon style="fill:#D7E9FF;" points="143.489,423.697 135.938,435.802 95.956,435.802 124.053,395.82 "/>
<polygon style="fill:#FFFFFF;" points="215.902,435.802 135.938,435.802 175.92,371.831 "/>
<polygon style="fill:#94C1FF;" points="139.28,417.661 127.942,435.802 135.938,435.802 143.489,423.697 "/>
<circle style="fill:#FFFFFF;" cx="91.963" cy="359.834" r="11.994"/>
<path style="fill:#D7E9FF;" d="M479.78,427.805c0,35.328-28.644,63.971-63.971,63.971s-63.971-28.643-63.971-63.971
	c0-35.327,28.644-63.971,63.971-63.971S479.78,392.478,479.78,427.805z"/>
<path style="fill:#FFFFFF;" d="M367.832,427.805c0-32.61,24.426-59.473,55.974-63.416c-2.624-0.328-5.278-0.555-7.996-0.555
	c-35.327,0-63.971,28.644-63.971,63.971c0,35.328,28.644,63.971,63.971,63.971c2.718,0,5.372-0.227,7.996-0.554
	C392.258,487.278,367.832,460.415,367.832,427.805z"/>
<path style="fill:#94C1FF;" d="M463.787,427.805c0,32.61-24.426,59.473-55.974,63.417c2.624,0.327,5.278,0.554,7.996,0.554
	c35.327,0,63.971-28.643,63.971-63.971c0-35.327-28.644-63.971-63.971-63.971c-2.718,0-5.372,0.227-7.996,0.555
	C439.362,368.332,463.787,395.195,463.787,427.805z"/>
<path style="fill:#5C9EFF;" d="M119.723,63.972c-13.189,0-23.989,10.315-23.989,25.988c0,7.434,3.436,14.634,7.996,20.147v9.839
	c0,2.475-18.233,9.597-18.233,9.597c-8.551-8.637-13.752-20.475-13.752-33.586c0-26.465,21.514-47.979,47.979-47.979
	c26.55,0,47.978,21.514,47.978,47.979c0,13.111-5.192,24.949-13.751,33.586c0,0-18.234-7.122-18.234-9.597v-9.839
	c4.561-5.513,7.997-12.713,7.997-20.147C143.712,74.287,132.998,63.972,119.723,63.972z"/>
<path style="fill:#94C1FF;" d="M103.73,110.107c4.959,5.919,11.276,9.839,15.993,9.839s11.034-3.92,15.992-9.839v9.839
	c0,2.475,18.234,9.597,18.234,9.597c-8.637,8.871-20.795,14.392-34.227,14.392c-13.354,0-25.504-5.521-34.227-14.392
	c0,0,18.233-7.122,18.233-9.597v-9.839H103.73z"/>
<path style="fill:#D7E9FF;" d="M119.723,119.946c-4.717,0-11.034-3.92-15.993-9.839c-4.56-5.513-7.996-12.713-7.996-20.147
	c0-15.672,10.8-25.988,23.989-25.988c13.275,0,23.989,10.315,23.989,25.988c0,7.434-3.436,14.634-7.997,20.147
	C130.757,116.026,124.44,119.946,119.723,119.946z"/>
<path style="fill:#5C9EFF;" d="M359.835,63.972c-13.181,0-23.989,10.315-23.989,25.988c0,7.434,3.437,14.634,7.997,20.147v9.839
	c0,2.475-18.227,9.597-18.227,9.597c-8.559-8.637-13.759-20.475-13.759-33.586c0-26.465,21.521-47.979,47.978-47.979
	c26.551,0,47.979,21.514,47.979,47.979c0,13.111-5.186,24.949-13.744,33.586c0,0-18.241-7.122-18.241-9.597v-9.839
	c4.561-5.513,7.996-12.713,7.996-20.147C383.824,74.287,373.111,63.972,359.835,63.972z"/>
<path style="fill:#94C1FF;" d="M343.843,110.107c4.966,5.919,11.276,9.839,15.992,9.839c4.717,0,11.042-3.92,15.993-9.839v9.839
	c0,2.475,18.241,9.597,18.241,9.597c-8.637,8.871-20.803,14.392-34.234,14.392c-13.353,0-25.504-5.521-34.219-14.392
	c0,0,18.227-7.122,18.227-9.597V110.107z"/>
<g>
	<path style="fill:#D7E9FF;" d="M343.843,110.107v9.839c0,2.475-18.227,9.597-18.227,9.597c2.812,2.858,6.005,5.326,9.449,7.411
		c4.201-1.695,16.773-6.95,16.773-9.011v-9.137C349.879,116.877,346.467,113.231,343.843,110.107z"/>
	<path style="fill:#D7E9FF;" d="M351.839,118.103v0.703C353.588,120.539,354.182,120.899,351.839,118.103z"/>
</g>
<g>
	<path style="fill:#5C9EFF;" d="M375.844,110.107v9.839c0,2.475,18.226,9.597,18.226,9.597c-2.812,2.858-6.013,5.326-9.448,7.411
		c-4.201-1.695-16.773-6.95-16.773-9.011v-9.137C369.8,116.877,373.22,113.231,375.844,110.107z"/>
	<path style="fill:#5C9EFF;" d="M367.848,118.103v0.703C366.098,120.539,365.505,120.899,367.848,118.103z"/>
</g>
<path style="fill:#D7E9FF;" d="M359.835,119.946c-4.716,0-11.026-3.92-15.992-9.839c-4.561-5.513-7.997-12.713-7.997-20.147
	c0-15.672,10.809-25.988,23.989-25.988c13.275,0,23.989,10.315,23.989,25.988c0,7.434-3.436,14.634-7.996,20.147
	C370.877,116.026,364.552,119.946,359.835,119.946z"/>
<path style="fill:#FFFFFF;" d="M351.839,110.107c-4.561-5.513-7.996-12.713-7.996-20.147c0-14.048,8.707-23.731,19.999-25.598
	c-1.305-0.21-2.632-0.39-4.007-0.39c-13.181,0-23.989,10.315-23.989,25.988c0,7.434,3.437,14.634,7.997,20.147
	c4.966,5.919,11.276,9.839,15.992,9.839c1.242,0,2.593-0.296,3.999-0.804C359.89,117.72,355.501,114.472,351.839,110.107z"/>
<path style="fill:#94C1FF;" d="M367.832,110.107c4.561-5.513,7.996-12.713,7.996-20.147c0-14.048-8.707-23.731-19.999-25.598
	c1.304-0.21,2.632-0.39,4.006-0.39c13.182,0,23.989,10.315,23.989,25.988c0,7.434-3.436,14.634-7.996,20.147
	c-4.967,5.919-11.276,9.839-15.993,9.839c-1.241,0-2.593-0.296-3.998-0.804C359.78,117.72,364.169,114.472,367.832,110.107z"/>
<path style="fill:#5C9EFF;" d="M239.89,19.991c-13.181,0-23.989,10.316-23.989,25.988c0,7.435,3.436,14.634,7.996,20.147v9.839
	c0,2.476-18.226,9.597-18.226,9.597c-8.559-8.636-13.759-20.475-13.759-33.586c0-26.464,21.521-47.978,47.978-47.978
	c26.55,0,47.978,21.514,47.978,47.978c0,13.111-5.185,24.95-13.743,33.586c0,0-18.242-7.122-18.242-9.597v-9.839
	c4.561-5.514,7.996-12.713,7.996-20.147C263.879,30.307,253.165,19.991,239.89,19.991z"/>
<path style="fill:#94C1FF;" d="M223.898,66.127c4.967,5.919,11.276,9.839,15.993,9.839s11.042-3.92,15.993-9.839v9.839
	c0,2.476,18.242,9.597,18.242,9.597c-8.637,8.871-20.804,14.392-34.235,14.392c-13.353,0-25.504-5.521-34.219-14.392
	c0,0,18.226-7.122,18.226-9.597V66.127z"/>
<g>
	<path style="fill:#D7E9FF;" d="M239.89,75.966c-4.716,0-11.026-3.92-15.993-9.839c-4.561-5.514-7.996-12.713-7.996-20.147
		c0-15.672,10.808-25.988,23.989-25.988c13.275,0,23.989,10.316,23.989,25.988c0,7.435-3.436,14.634-7.996,20.147
		C250.932,72.046,244.607,75.966,239.89,75.966z"/>
	<path style="fill:#D7E9FF;" d="M223.898,66.127v9.839c0,2.476-18.226,9.597-18.226,9.597c2.811,2.858,6.005,5.326,9.449,7.411
		c4.201-1.694,16.773-6.95,16.773-9.012v-9.136C229.934,72.897,226.522,69.25,223.898,66.127z"/>
	<path style="fill:#D7E9FF;" d="M231.894,74.123v0.703C233.643,76.56,234.237,76.919,231.894,74.123z"/>
</g>
<g>
	<path style="fill:#5C9EFF;" d="M255.899,66.127v9.839c0,2.476,18.227,9.597,18.227,9.597c-2.812,2.858-6.014,5.326-9.449,7.411
		c-4.201-1.694-16.773-6.95-16.773-9.012v-9.136C249.855,72.897,253.275,69.25,255.899,66.127z"/>
	<path style="fill:#5C9EFF;" d="M247.903,74.123v0.703C246.153,76.56,245.56,76.919,247.903,74.123z"/>
</g>
<path style="fill:#FFFFFF;" d="M231.894,66.127c-4.56-5.514-7.996-12.713-7.996-20.147c0-14.048,8.707-23.731,19.999-25.598
	c-1.305-0.211-2.632-0.391-4.006-0.391c-13.181,0-23.989,10.316-23.989,25.988c0,7.435,3.436,14.634,7.996,20.147
	c4.967,5.919,11.276,9.839,15.993,9.839c1.242,0,2.592-0.297,3.999-0.804C239.945,73.74,235.556,70.492,231.894,66.127z"/>
<path style="fill:#94C1FF;" d="M247.887,66.127c4.56-5.514,7.996-12.713,7.996-20.147c0-14.048-8.707-23.731-19.999-25.598
	c1.304-0.211,2.631-0.391,4.006-0.391c13.181,0,23.989,10.316,23.989,25.988c0,7.435-3.436,14.634-7.996,20.147
	c-4.967,5.919-11.276,9.839-15.993,9.839c-1.242,0-2.592-0.297-3.998-0.804C239.836,73.74,244.224,70.492,247.887,66.127z"/>
<g>
	<path style="fill:#D7E9FF;" d="M103.945,110.107v9.839c0,2.475-18.226,9.597-18.226,9.597c2.811,2.858,6.005,5.326,9.448,7.411
		c4.202-1.695,16.774-6.95,16.774-9.011v-9.137C109.981,116.877,106.569,113.231,103.945,110.107z"/>
	<path style="fill:#D7E9FF;" d="M111.941,118.103v0.703C113.691,120.539,114.284,120.899,111.941,118.103z"/>
</g>
<g>
	<path style="fill:#5C9EFF;" d="M135.945,110.107v9.839c0,2.475,18.227,9.597,18.227,9.597c-2.812,2.858-6.013,5.326-9.449,7.411
		c-4.201-1.695-16.773-6.95-16.773-9.011v-9.137C129.902,116.877,133.322,113.231,135.945,110.107z"/>
	<path style="fill:#5C9EFF;" d="M127.949,118.103v0.703C126.2,120.539,125.607,120.899,127.949,118.103z"/>
</g>
<path style="fill:#FFFFFF;" d="M111.941,110.107c-4.56-5.513-7.997-12.713-7.997-20.147c0-14.048,8.707-23.731,19.999-25.598
	c-1.304-0.21-2.632-0.39-4.006-0.39c-13.182,0-23.989,10.315-23.989,25.988c0,7.434,3.436,14.634,7.996,20.147
	c4.967,5.919,11.276,9.839,15.993,9.839c1.241,0,2.592-0.296,3.998-0.804C119.992,117.72,115.604,114.472,111.941,110.107z"/>
<path style="fill:#94C1FF;" d="M127.934,110.107c4.561-5.513,7.996-12.713,7.996-20.147c0-14.048-8.707-23.731-19.998-25.598
	c1.304-0.21,2.631-0.39,4.006-0.39c13.181,0,23.989,10.315,23.989,25.988c0,7.434-3.436,14.634-7.997,20.147
	c-4.966,5.919-11.276,9.839-15.992,9.839c-1.242,0-2.593-0.296-3.998-0.804C119.883,117.72,124.272,114.472,127.934,110.107z"/>
<g>
	<rect x="63.973" y="331.844" style="fill:#D7E9FF;" width="7.996" height="103.95"/>
	<rect x="63.973" y="243.884" style="fill:#D7E9FF;" width="7.996" height="63.971"/>
</g>
<g>
	<rect x="407.813" y="243.884" style="fill:#5C9EFF;" width="7.996" height="63.971"/>
	<rect x="215.903" y="331.844" style="fill:#5C9EFF;" width="7.996" height="103.95"/>
</g>
<g>
	<path style="fill:#116FFF;" d="M48.216,207.905c-2.206,0-4.037-1.788-4.037-3.998s1.75-3.998,3.959-3.998h0.078
		c2.21,0,3.999,1.788,3.999,3.998S50.426,207.905,48.216,207.905z"/>
	<path style="fill:#116FFF;" d="M64.209,207.905c-2.206,0-4.037-1.788-4.037-3.998s1.749-3.998,3.959-3.998h0.078
		c2.21,0,3.998,1.788,3.998,3.998S66.419,207.905,64.209,207.905z"/>
	<path style="fill:#116FFF;" d="M80.202,207.905c-2.206,0-4.038-1.788-4.038-3.998s1.75-3.998,3.959-3.998h0.078
		c2.209,0,3.998,1.788,3.998,3.998S82.411,207.905,80.202,207.905z"/>
	<path style="fill:#116FFF;" d="M447.795,215.902H31.986c-2.21,0-3.998-1.789-3.998-3.998v-7.997c0-6.614,5.38-11.994,11.994-11.994
		h399.817c6.614,0,11.994,5.38,11.994,11.994v7.997C451.793,214.113,450.005,215.902,447.795,215.902z M35.984,207.905h407.813
		v-3.998c0-2.171-1.827-3.998-3.998-3.998H39.982c-2.206,0-3.998,1.796-3.998,3.998C35.984,203.907,35.984,207.905,35.984,207.905z"
		/>
	<path style="fill:#116FFF;" d="M447.795,359.836c-2.21,0-3.998-1.788-3.998-3.998V211.904c0-2.21,1.788-3.999,3.998-3.999
		s3.998,1.789,3.998,3.999v143.934C451.793,358.048,450.005,359.836,447.795,359.836z"/>
	<path style="fill:#116FFF;" d="M31.986,471.784c-2.21,0-3.998-1.787-3.998-3.998V211.904c0-2.21,1.788-3.999,3.998-3.999
		s3.998,1.789,3.998,3.999v255.882C35.984,469.997,34.195,471.784,31.986,471.784z"/>
	<path style="fill:#116FFF;" d="M343.843,471.784H31.986c-2.21,0-3.998-1.787-3.998-3.998c0-2.209,1.788-3.998,3.998-3.998h311.857
		c2.21,0,3.998,1.789,3.998,3.998C347.841,469.997,346.053,471.784,343.843,471.784z"/>
	<path style="fill:#116FFF;" d="M215.905,439.8c-1.332,0-2.636-0.664-3.394-1.883l-36.592-58.543l-36.592,58.543
		c-1.164,1.883-3.636,2.452-5.51,1.273c-1.87-1.172-2.44-3.639-1.269-5.506l39.981-63.971c1.46-2.342,5.318-2.342,6.778,0
		l39.981,63.971c1.172,1.867,0.602,4.334-1.269,5.506C217.362,439.605,216.628,439.8,215.905,439.8z"/>
	<path style="fill:#116FFF;" d="M95.952,439.8c-0.793,0-1.597-0.234-2.296-0.727c-1.804-1.273-2.241-3.764-0.972-5.568
		l28.096-39.981c0.75-1.069,1.972-1.702,3.272-1.702c0.004,0,0.004,0,0.008,0c1.304,0,2.526,0.641,3.271,1.71l19.437,27.878
		c1.261,1.812,0.82,4.303-0.991,5.568c-1.82,1.257-4.311,0.819-5.568-0.992l-16.168-23.192l-24.813,35.304
		C98.447,439.206,97.21,439.8,95.952,439.8z"/>
	<path style="fill:#116FFF;" d="M415.81,311.859H63.971c-2.21,0-3.998-1.789-3.998-3.998V243.89c0-2.21,1.788-3.999,3.998-3.999
		H415.81c2.21,0,3.998,1.789,3.998,3.999v63.971C419.808,310.07,418.02,311.859,415.81,311.859z M67.969,303.862h343.843v-55.974
		H67.969V303.862z"/>
	<path style="fill:#116FFF;" d="M223.898,439.8H63.971c-2.21,0-3.998-1.789-3.998-3.998V331.849c0-2.21,1.788-3.998,3.998-3.998
		h159.927c2.21,0,3.998,1.788,3.998,3.998v103.953C227.896,438.011,226.108,439.8,223.898,439.8z M67.969,431.803H219.9v-95.956
		H67.969V431.803z"/>
	<path style="fill:#116FFF;" d="M91.958,375.829c-8.82,0-15.993-7.177-15.993-15.993s7.173-15.993,15.993-15.993
		s15.992,7.177,15.992,15.993S100.779,375.829,91.958,375.829z M91.958,351.84c-4.408,0-7.997,3.584-7.997,7.996
		s3.588,7.996,7.997,7.996s7.996-3.584,7.996-7.996S96.366,351.84,91.958,351.84z"/>
	<path style="fill:#116FFF;" d="M415.81,351.84H255.883c-2.21,0-3.998-1.788-3.998-3.998s1.788-3.999,3.998-3.999H415.81
		c2.21,0,3.998,1.789,3.998,3.999S418.02,351.84,415.81,351.84z"/>
	<path style="fill:#116FFF;" d="M351.839,375.829h-95.956c-2.21,0-3.998-1.789-3.998-3.998c0-2.211,1.788-3.999,3.998-3.999h95.956
		c2.21,0,3.998,1.788,3.998,3.999C355.837,374.04,354.049,375.829,351.839,375.829z"/>
	<path style="fill:#116FFF;" d="M335.846,399.818h-79.963c-2.21,0-3.998-1.788-3.998-3.998s1.788-3.998,3.998-3.998h79.963
		c2.211,0,3.999,1.788,3.999,3.998S338.057,399.818,335.846,399.818z"/>
	<path style="fill:#116FFF;" d="M327.85,423.807h-71.967c-2.21,0-3.998-1.788-3.998-3.998s1.788-3.998,3.998-3.998h71.967
		c2.21,0,3.998,1.788,3.998,3.998S330.06,423.807,327.85,423.807z"/>
	<path style="fill:#116FFF;" d="M375.828,271.876H103.952c-2.21,0-3.998-1.788-3.998-3.998s1.788-3.998,3.998-3.998h271.876
		c2.21,0,3.998,1.788,3.998,3.998S378.038,271.876,375.828,271.876z"/>
	<path style="fill:#116FFF;" d="M327.85,287.869H151.931c-2.21,0-3.998-1.788-3.998-3.998s1.788-3.999,3.998-3.999H327.85
		c2.21,0,3.998,1.789,3.998,3.999S330.06,287.869,327.85,287.869z"/>
	<path style="fill:#116FFF;" d="M119.938,123.944c-11.96,0-27.979-16.82-27.979-34.023c0-17.07,12.029-29.947,27.979-29.947
		c15.961,0,27.995,12.877,27.995,29.947C147.933,107.124,131.901,123.944,119.938,123.944z M119.938,67.97
		c-11.581,0-19.983,9.23-19.983,21.951c0,13.712,13.572,26.027,19.983,26.027c6.587,0,19.999-12.049,19.999-26.027
		C139.936,77.2,131.526,67.97,119.938,67.97z"/>
	<path style="fill:#116FFF;" d="M154.18,133.565c-0.488,0-0.984-0.086-1.464-0.273c-20.776-8.168-20.776-11.042-20.776-13.345
		c0-2.21,1.788-3.999,3.998-3.999c1.589,0,2.964,0.93,3.608,2.272c1.968,1.554,9.667,5.1,16.098,7.622
		c2.054,0.812,3.065,3.131,2.257,5.185C157.279,132.604,155.773,133.565,154.18,133.565z"/>
	<path style="fill:#116FFF;" d="M135.938,123.944c-2.21,0-3.998-1.788-3.998-3.998v-9.824c0-2.21,1.788-3.998,3.998-3.998
		s3.999,1.788,3.999,3.998v9.824C139.936,122.156,138.148,123.944,135.938,123.944z"/>
	<path style="fill:#116FFF;" d="M85.711,133.565c-1.593,0-3.101-0.96-3.721-2.538c-0.808-2.054,0.203-4.373,2.257-5.185
		c6.431-2.522,14.13-6.068,16.098-7.622c0.645-1.343,2.019-2.272,3.607-2.272c2.21,0,3.998,1.789,3.998,3.999
		c0,2.304,0,5.177-20.775,13.345C86.695,133.479,86.199,133.565,85.711,133.565z"/>
	<path style="fill:#116FFF;" d="M103.952,123.944c-2.21,0-3.998-1.788-3.998-3.998v-9.824c0-2.21,1.788-3.998,3.998-3.998
		s3.998,1.788,3.998,3.998v9.824C107.95,122.156,106.162,123.944,103.952,123.944z"/>
	<path style="fill:#116FFF;" d="M119.945,147.933c-28.659,0-51.977-23.318-51.977-51.976c0-28.659,23.317-51.977,51.977-51.977
		c28.658,0,51.976,23.317,51.976,51.977C171.922,124.615,148.604,147.933,119.945,147.933z M119.945,51.977
		c-24.251,0-43.98,19.733-43.98,43.98s19.729,43.979,43.98,43.979c24.25,0,43.979-19.733,43.979-43.979
		C163.925,71.71,144.196,51.977,119.945,51.977z"/>
	<path style="fill:#116FFF;" d="M359.827,123.944c-11.955,0-27.979-16.82-27.979-34.023c0-17.07,12.026-29.947,27.979-29.947
		c15.962,0,27.995,12.877,27.995,29.947C387.822,107.124,371.791,123.944,359.827,123.944z M359.827,67.97
		c-11.58,0-19.982,9.23-19.982,21.951c0,13.712,13.571,26.027,19.982,26.027c6.583,0,19.999-12.049,19.999-26.027
		C379.826,77.2,371.416,67.97,359.827,67.97z"/>
	<path style="fill:#116FFF;" d="M394.07,133.565c-0.483,0-0.983-0.086-1.46-0.273c-20.779-8.168-20.779-11.042-20.779-13.345
		c0-2.21,1.788-3.999,3.998-3.999c1.593,0,2.959,0.93,3.607,2.272c1.968,1.554,9.668,5.1,16.094,7.622
		c2.055,0.812,3.069,3.131,2.266,5.185C397.17,132.604,395.662,133.565,394.07,133.565z"/>
	<path style="fill:#116FFF;" d="M375.828,123.944c-2.21,0-3.998-1.788-3.998-3.998v-9.824c0-2.21,1.788-3.998,3.998-3.998
		s3.998,1.788,3.998,3.998v9.824C379.826,122.156,378.038,123.944,375.828,123.944z"/>
	<path style="fill:#116FFF;" d="M325.601,133.565c-1.593,0-3.1-0.96-3.725-2.538c-0.804-2.054,0.211-4.373,2.265-5.185
		c6.427-2.522,14.127-6.068,16.094-7.622c0.648-1.343,2.016-2.272,3.608-2.272c2.21,0,3.998,1.789,3.998,3.999
		c0,2.304,0,5.177-20.779,13.345C326.585,133.479,326.085,133.565,325.601,133.565z"/>
	<path style="fill:#116FFF;" d="M343.843,123.944c-2.21,0-3.998-1.788-3.998-3.998v-9.824c0-2.21,1.788-3.998,3.998-3.998
		s3.998,1.788,3.998,3.998v9.824C347.841,122.156,346.053,123.944,343.843,123.944z"/>
	<path style="fill:#116FFF;" d="M359.835,147.933c-28.658,0-51.976-23.318-51.976-51.976c0-28.659,23.317-51.977,51.976-51.977
		c28.659,0,51.977,23.317,51.977,51.977C411.812,124.615,388.494,147.933,359.835,147.933z M359.835,51.977
		c-24.246,0-43.979,19.733-43.979,43.98s19.733,43.979,43.979,43.979c24.247,0,43.98-19.733,43.98-43.979
		C403.816,71.71,384.082,51.977,359.835,51.977z"/>
	<path style="fill:#116FFF;" d="M239.883,79.964c-11.959,0-27.979-16.82-27.979-34.023c0-17.07,12.029-29.947,27.979-29.947
		c15.961,0,27.995,12.877,27.995,29.947C267.877,63.144,251.846,79.964,239.883,79.964z M239.883,23.99
		c-11.581,0-19.983,9.23-19.983,21.951c0,13.713,13.572,26.027,19.983,26.027c6.587,0,19.999-12.049,19.999-26.027
		C259.881,33.22,251.471,23.99,239.883,23.99z"/>
	<path style="fill:#116FFF;" d="M274.125,89.585c-0.484,0-0.984-0.086-1.461-0.273c-20.779-8.168-20.779-11.042-20.779-13.346
		c0-2.21,1.788-3.998,3.998-3.998c1.589,0,2.964,0.929,3.607,2.272c1.969,1.554,9.668,5.099,16.095,7.621
		c2.054,0.812,3.068,3.132,2.265,5.186C277.225,88.624,275.718,89.585,274.125,89.585z"/>
	<path style="fill:#116FFF;" d="M255.883,79.964c-2.21,0-3.998-1.788-3.998-3.998v-9.823c0-2.21,1.788-3.999,3.998-3.999
		c2.21,0,3.998,1.789,3.998,3.999v9.823C259.881,78.176,258.093,79.964,255.883,79.964z"/>
	<path style="fill:#116FFF;" d="M205.656,89.585c-1.593,0-3.1-0.961-3.721-2.538c-0.808-2.054,0.203-4.373,2.257-5.186
		c6.431-2.522,14.131-6.067,16.099-7.621c0.644-1.343,2.019-2.272,3.607-2.272c2.21,0,3.998,1.788,3.998,3.998
		c0,2.304,0,5.178-20.775,13.346C206.64,89.499,206.144,89.585,205.656,89.585z"/>
	<path style="fill:#116FFF;" d="M223.898,79.964c-2.21,0-3.998-1.788-3.998-3.998v-9.823c0-2.21,1.788-3.999,3.998-3.999
		s3.998,1.789,3.998,3.999v9.823C227.896,78.176,226.108,79.964,223.898,79.964z"/>
	<path style="fill:#116FFF;" d="M239.89,103.953c-28.659,0-51.976-23.317-51.976-51.977C187.914,23.318,211.231,0,239.89,0
		s51.976,23.317,51.976,51.976C291.866,80.636,268.549,103.953,239.89,103.953z M239.89,7.997c-24.25,0-43.98,19.733-43.98,43.979
		c0,24.247,19.729,43.98,43.98,43.98c24.247,0,43.98-19.733,43.98-43.98C283.87,27.731,264.137,7.997,239.89,7.997z"/>
	<path style="fill:#116FFF;" d="M271.875,175.905c-1.171,0-2.334-0.515-3.123-1.499c-1.374-1.726-1.102-4.24,0.625-5.623
		l39.981-31.97c1.741-1.367,4.248-1.093,5.622,0.625c1.375,1.726,1.102,4.24-0.625,5.623l-39.981,31.97
		C273.633,175.616,272.75,175.905,271.875,175.905z"/>
	<path style="fill:#116FFF;" d="M271.875,175.905c-2.209,0-3.998-1.788-3.998-3.998v-7.98c0-2.21,1.789-3.998,3.998-3.998
		c2.211,0,3.999,1.788,3.999,3.998v7.98C275.874,174.116,274.086,175.905,271.875,175.905z"/>
	<path style="fill:#116FFF;" d="M279.872,175.92h-7.997c-2.209,0-3.998-1.788-3.998-3.998s1.789-3.998,3.998-3.998h7.997
		c2.21,0,3.998,1.788,3.998,3.998S282.082,175.92,279.872,175.92z"/>
	<path style="fill:#116FFF;" d="M207.901,175.905c-0.875,0-1.757-0.289-2.491-0.874l-39.982-31.97
		c-1.726-1.383-2.007-3.897-0.628-5.623c1.382-1.718,3.904-1.991,5.618-0.625l39.981,31.97c1.726,1.382,2.007,3.897,0.629,5.623
		C210.24,175.389,209.076,175.905,207.901,175.905z"/>
	<path style="fill:#116FFF;" d="M207.905,175.905c-2.21,0-3.998-1.788-3.998-3.998v-7.98c0-2.21,1.788-3.998,3.998-3.998
		s3.999,1.788,3.999,3.998v7.98C211.904,174.116,210.115,175.905,207.905,175.905z"/>
	<path style="fill:#116FFF;" d="M207.905,175.92h-7.997c-2.21,0-3.998-1.788-3.998-3.998s1.788-3.998,3.998-3.998h7.997
		c2.21,0,3.999,1.788,3.999,3.998S210.115,175.92,207.905,175.92z"/>
	<path style="fill:#116FFF;" d="M239.89,167.916c-2.21,0-3.998-1.788-3.998-3.998v-47.971c0-2.209,1.788-3.998,3.998-3.998
		s3.999,1.789,3.999,3.998v47.971C243.889,166.128,242.1,167.916,239.89,167.916z"/>
	<path style="fill:#116FFF;" d="M239.89,167.916c-1.023,0-2.046-0.391-2.827-1.171c-1.562-1.562-1.562-4.092,0-5.654l5.661-5.661
		c1.562-1.562,4.092-1.562,5.654,0c1.562,1.562,1.562,4.092,0,5.653l-5.662,5.662C241.936,167.526,240.913,167.916,239.89,167.916z"
		/>
	<path style="fill:#116FFF;" d="M239.89,167.916c-1.023,0-2.046-0.391-2.827-1.171l-5.662-5.662c-1.562-1.562-1.562-4.092,0-5.653
		c1.562-1.562,4.092-1.562,5.654,0l5.661,5.661c1.562,1.562,1.562,4.092,0,5.654C241.936,167.526,240.913,167.916,239.89,167.916z"
		/>
	<path style="fill:#116FFF;" d="M415.81,495.774c-37.475,0-67.969-30.493-67.969-67.969c0-37.475,30.494-67.969,67.969-67.969
		c37.476,0,67.969,30.494,67.969,67.969S453.285,495.774,415.81,495.774z M415.81,367.832c-33.071,0-59.973,26.902-59.973,59.973
		s26.901,59.973,59.973,59.973s59.973-26.901,59.973-59.973C475.782,394.735,448.881,367.832,415.81,367.832z"/>
	<path style="fill:#116FFF;" d="M415.81,511.767c-37.475,0-67.969-30.494-67.969-67.969c0-2.21,1.788-3.998,3.998-3.998
		s3.998,1.788,3.998,3.998c0,33.07,26.901,59.973,59.973,59.973s59.973-26.902,59.973-59.973c0-2.21,1.788-3.998,3.998-3.998
		s3.998,1.788,3.998,3.998C483.779,481.273,453.285,511.767,415.81,511.767z"/>
	<path style="fill:#116FFF;" d="M351.839,447.796c-2.21,0-3.998-1.788-3.998-3.998v-15.993c0-2.21,1.788-3.998,3.998-3.998
		s3.998,1.788,3.998,3.998v15.993C355.837,446.008,354.049,447.796,351.839,447.796z"/>
	<path style="fill:#116FFF;" d="M479.78,447.796c-2.21,0-3.998-1.788-3.998-3.998v-15.993c0-2.21,1.788-3.998,3.998-3.998
		s3.998,1.788,3.998,3.998v15.993C483.779,446.008,481.99,447.796,479.78,447.796z"/>
	<path style="fill:#116FFF;" d="M415.81,455.792c-2.21,0-3.998-1.788-3.998-3.998v-47.979c0-2.209,1.788-3.998,3.998-3.998
		s3.998,1.789,3.998,3.998v47.979C419.808,454.004,418.02,455.792,415.81,455.792z"/>
	<path style="fill:#116FFF;" d="M415.81,511.767c-2.21,0-3.998-1.788-3.998-3.998v-15.993c0-2.21,1.788-3.998,3.998-3.998
		s3.998,1.788,3.998,3.998v15.993C419.808,509.979,418.02,511.767,415.81,511.767z"/>
	<path style="fill:#116FFF;" d="M447.795,503.208c-2.21,0-3.998-1.788-3.998-3.998v-15.993c0-2.21,1.788-3.998,3.998-3.998
		s3.998,1.788,3.998,3.998v15.993C451.793,501.42,450.005,503.208,447.795,503.208z"/>
	<path style="fill:#116FFF;" d="M383.824,503.208c-2.21,0-3.998-1.788-3.998-3.998v-15.993c0-2.21,1.788-3.998,3.998-3.998
		s3.998,1.788,3.998,3.998v15.993C387.822,501.42,386.034,503.208,383.824,503.208z"/>
</g>
<g>
</g>
<g>
</g>
<g>
</g>
<g>
</g>
<g>
</g>
<g>
</g>
<g>
</g>
<g>
</g>
<g>
</g>
<g>
</g>
<g>
</g>
<g>
</g>
<g>
</g>
<g>
</g>
<g>
</g>
</svg>
