<?xml version="1.0" encoding="iso-8859-1"?>
<!-- Generator: Adobe Illustrator 19.0.0, SVG Export Plug-In . SVG Version: 6.00 Build 0)  -->
<svg version="1.1" id="Capa_1" xmlns="http://www.w3.org/2000/svg" xmlns:xlink="http://www.w3.org/1999/xlink" x="0px" y="0px"
	 viewBox="0 0 511.648 511.648" style="enable-background:new 0 0 511.648 511.648;" xml:space="preserve">
<path style="fill:#94C1FF;" d="M360.395,424.347v-0.078c9.431-9.353,17.191-19.588,23.499-30.541
	c6.558-11.273,11.516-23.344,14.795-35.734c3.356-12.476,5.035-25.342,5.035-38.216s-1.679-25.74-5.035-38.294
	c-3.279-12.391-8.237-24.382-14.795-35.733c-6.308-10.954-14.146-21.189-23.499-30.542c-9.354-9.353-19.667-17.27-30.62-23.582
	c-11.274-6.558-23.344-11.434-35.655-14.712c-12.547-3.357-25.429-5.036-38.295-5.036c-12.87,0-25.744,1.679-38.294,5.036
	c-12.312,3.279-24.382,8.154-35.655,14.791c-10.954,6.316-21.267,14.151-30.62,23.503c-9.353,9.353-17.188,19.667-23.503,30.62
	c-6.554,11.273-11.511,23.343-14.791,35.655c-3.357,12.468-5.036,25.342-5.036,38.216c0,12.866,1.678,25.74,5.036,38.294
	c6.398,24.305,19.186,47.328,38.294,66.354c9.354,9.354,19.667,17.191,30.62,23.5c11.273,6.558,23.343,11.516,35.655,14.795
	c12.55,3.356,25.424,5.035,38.294,5.035c12.866,0,25.748-1.679,38.295-5.035c12.312-3.279,24.381-8.237,35.655-14.795
	C340.728,441.539,351.042,433.701,360.395,424.347z M339.768,83.939c0,0,103.929,102.969,103.929,235.839
	c0,103.852-84.021,187.872-187.872,187.872S67.953,423.629,67.953,319.778c0-206.18,199.864-315.785,199.864-315.785
	s-19.826,60.119,7.916,87.94C303.558,119.677,339.768,83.939,339.768,83.939z"/>
<path style="fill:#5C9EFF;" d="M339.768,83.939c0,0-3.482,3.431-9.104,7.338c23.188,25.736,97.043,116.491,97.043,228.5
	c0,101.174-79.742,183.484-179.877,187.669c2.654,0.109,5.312,0.203,7.994,0.203c103.852,0,187.872-84.021,187.872-187.872
	C443.697,186.908,339.768,83.939,339.768,83.939z"/>
<g>
	<path style="fill:#D7E9FF;" d="M83.942,319.778c0-166.808,130.79-270.374,180.752-303.855c1.608-7.237,3.123-11.929,3.123-11.929
		S67.953,113.598,67.953,319.778c0,103.852,84.021,187.872,187.872,187.872c2.682,0,5.34-0.094,7.995-0.203
		C163.689,503.262,83.942,420.952,83.942,319.778z"/>
	<path style="fill:#D7E9FF;" d="M227.845,92.812c0,0-53.995,21.774-70.53,116.67l135.244-33.606
		C224.936,151.147,227.845,92.812,227.845,92.812z"/>
</g>
<path style="fill:#94C1FF;" d="M264.304,311.307c4.716,4.63,4.716,12.226,0,16.941c-2.322,2.319-5.359,3.521-8.479,3.521
	c-3.037,0-6.074-1.202-8.475-3.521c-4.715-4.716-4.715-12.312,0-16.941C252.066,306.584,259.663,306.584,264.304,311.307z"/>
<path style="fill:#FFFFFF;" d="M264.304,311.307c-4.641-4.724-12.237-4.724-16.953,0c-4.715,4.63-4.715,12.226,0,16.941
	c2.401,2.319,5.438,3.521,8.475,3.521c3.119,0,6.156-1.202,8.479-3.521C269.019,323.533,269.019,315.937,264.304,311.307z
	 M349.121,226.482c51.48,51.566,51.48,135.025,0,186.592c-51.48,51.488-135.029,51.488-186.592-0.078
	c-51.484-51.488-51.484-135.033,0-186.514C214.092,174.998,297.562,174.998,349.121,226.482z"/>
<path style="fill:#5C9EFF;" d="M383.894,245.751c6.558,11.352,11.516,23.343,14.795,35.733c3.356,12.554,5.035,25.42,5.035,38.294
	s-1.679,25.74-5.035,38.216c-3.279,12.391-8.237,24.461-14.795,35.734c-6.308,10.953-14.068,21.188-23.499,30.541v0.078
	c-9.354,9.354-19.667,17.191-30.62,23.5c-11.274,6.558-23.344,11.516-35.655,14.795c-12.547,3.356-25.429,5.035-38.295,5.035
	c-12.87,0-25.744-1.679-38.294-5.035c-12.312-3.279-24.382-8.237-35.655-14.795c-10.954-6.309-21.267-14.146-30.62-23.5
	c-19.108-19.025-31.896-42.049-38.294-66.354c-3.357-12.554-5.036-25.428-5.036-38.294c0-12.874,1.678-25.748,5.036-38.216
	c3.279-12.312,8.236-24.382,14.791-35.655c6.316-10.954,14.151-21.267,23.503-30.62c9.354-9.353,19.667-17.188,30.62-23.503
	c11.273-6.636,23.343-11.512,35.655-14.791c12.55-3.357,25.424-5.036,38.294-5.036c12.866,0,25.748,1.679,38.295,5.036
	c12.312,3.279,24.381,8.154,35.655,14.712c10.953,6.312,21.267,14.229,30.62,23.582
	C369.748,224.562,377.587,234.797,383.894,245.751z M349.121,413.074c51.48-51.566,51.48-135.025,0-186.592
	c-51.559-51.484-135.029-51.484-186.592,0c-51.484,51.48-51.484,135.025,0,186.514C214.092,464.562,297.64,464.562,349.121,413.074z
	"/>
<g>
	<path style="fill:#116FFF;" d="M255.825,511.648c-2.209,0-3.997-1.788-3.997-3.998c0-2.209,1.788-3.997,3.997-3.997
		c101.385,0,183.875-82.483,183.875-183.875c0-2.209,1.788-3.997,3.997-3.997c2.21,0,3.997,1.788,3.997,3.997
		C447.694,425.574,361.62,511.648,255.825,511.648z"/>
	<path style="fill:#116FFF;" d="M255.825,511.648c-105.795,0-191.869-86.074-191.869-191.87c0-2.209,1.788-3.997,3.997-3.997
		c2.21,0,3.998,1.788,3.998,3.997c0,101.392,82.487,183.875,183.875,183.875c2.21,0,3.998,1.788,3.998,3.997
		C259.823,509.86,258.035,511.648,255.825,511.648z"/>
	<path style="fill:#116FFF;" d="M443.697,323.775c-2.209,0-3.997-1.787-3.997-3.997c0-117.764-83.981-213.046-100.096-230.241
		c-14.803,12.913-44.103,27.75-66.697,5.227c-22.445-22.512-16.09-63.418-11.598-82.198C223.547,36.288,71.95,142.602,71.95,319.778
		c0,2.21-1.788,3.997-3.998,3.997c-2.209,0-3.997-1.787-3.997-3.997c0-206.16,199.919-318.182,201.94-319.29
		c1.437-0.781,3.217-0.617,4.474,0.433c1.265,1.046,1.757,2.764,1.241,4.321c-0.187,0.578-18.718,58.125,6.948,83.869
		c24.733,24.663,57.04-6.671,58.398-8.018c1.562-1.542,4.067-1.534,5.621,0.008c1.054,1.038,105.115,105.678,105.115,238.677
		C447.694,321.988,445.907,323.775,443.697,323.775z"/>
	<path style="fill:#116FFF;" d="M163.888,191.866c-0.382,0-0.773-0.055-1.156-0.172c-2.115-0.636-3.31-2.869-2.67-4.981
		c20.162-66.705,63.695-96.836,65.538-98.085c1.124-0.765,2.584-0.91,3.833-0.359c1.257,0.542,2.146,1.694,2.361,3.044
		c0.062,0.398,6.582,40.207,30.683,61.587c1.654,1.464,1.795,3.994,0.336,5.645c-1.473,1.647-3.998,1.792-5.645,0.335
		c-20.377-18.078-28.997-46.96-31.967-59.831c-11.816,9.856-42.085,39.021-57.488,89.974
		C167.19,190.753,165.605,191.866,163.888,191.866z"/>
	<path style="fill:#116FFF;" d="M255.825,471.675c-13.268,0-26.497-1.741-39.328-5.168c-12.851-3.428-25.175-8.541-36.632-15.2
		c-11.43-6.59-22.012-14.709-31.436-24.133c-18.963-18.877-32.563-42.455-39.333-68.164c-3.427-12.812-5.168-26.045-5.168-39.31
		c0-13.296,1.741-26.505,5.172-39.254c3.419-12.843,8.534-25.167,15.197-36.628c6.597-11.441,14.721-22.024,24.132-31.436
		c9.412-9.411,19.994-17.535,31.447-24.14c11.184-6.582,23.516-11.699,36.624-15.193c25.654-6.855,52.987-6.859,78.657,0.004
		c13.022,3.466,25.342,8.557,36.631,15.119c11.306,6.519,21.892,14.666,31.433,24.21c9.478,9.482,17.604,20.037,24.139,31.369
		c6.715,11.625,11.82,23.977,15.193,36.71c3.428,12.819,5.168,26.052,5.168,39.316c0,13.288-1.74,26.498-5.168,39.255
		c-3.404,12.866-8.525,25.217-15.201,36.701c-6.534,11.328-14.505,21.735-23.702,30.94c-0.133,0.171-0.273,0.343-0.429,0.499
		c-9.424,9.424-20.002,17.543-31.448,24.141c-11.445,6.651-23.765,11.765-36.623,15.192
		C282.323,469.933,269.097,471.675,255.825,471.675z M255.825,175.876c-12.569,0-25.107,1.647-37.26,4.899
		c-12.413,3.307-24.073,8.143-34.664,14.373c-10.879,6.277-20.904,13.971-29.82,22.887c-8.916,8.916-16.609,18.94-22.867,29.792
		c-6.312,10.856-11.152,22.524-14.389,34.687c-3.255,12.078-4.902,24.585-4.902,37.186c0,12.569,1.647,25.101,4.898,37.264
		c6.41,24.351,19.292,46.664,37.256,64.55c8.936,8.939,18.956,16.63,29.792,22.867c10.856,6.316,22.52,11.156,34.691,14.396
		c24.312,6.512,50.224,6.512,74.52,0c12.18-3.24,23.844-8.08,34.68-14.389c10.681-6.145,20.564-13.693,29.379-22.445
		c0.133-0.18,0.273-0.352,0.444-0.516c8.877-8.807,16.567-18.791,22.853-29.698c6.323-10.875,11.164-22.57,14.389-34.758
		c3.255-12.093,4.902-24.601,4.902-37.193c0-12.569-1.647-25.1-4.902-37.264c-3.186-12.062-8.026-23.753-14.389-34.765
		c-6.191-10.731-13.882-20.724-22.868-29.714c-9.048-9.048-19.072-16.77-29.792-22.945c-10.68-6.214-22.344-11.027-34.688-14.311
		C280.933,177.524,268.395,175.876,255.825,175.876z"/>
	<path style="fill:#116FFF;" d="M255.891,455.678c-36.327,0-70.491-14.154-96.188-39.855
		c-25.654-25.654-39.785-59.779-39.785-96.083c0-36.312,14.131-70.429,39.785-96.083c25.694-25.654,59.831-39.785,96.122-39.785
		c36.288,0,70.429,14.131,96.122,39.781c52.917,53.007,52.917,139.245,0,192.248C326.301,441.554,292.191,455.678,255.891,455.678z
		 M255.825,191.866c-34.156,0-66.287,13.299-90.469,37.447c-24.144,24.14-37.443,56.255-37.443,90.427
		c0,34.165,13.299,66.283,37.443,90.431c24.19,24.194,56.344,37.514,90.536,37.514c34.16,0,66.264-13.296,90.403-37.436
		c49.81-49.888,49.81-131.051,0-180.939C322.108,205.165,289.981,191.866,255.825,191.866z"/>
	<path style="fill:#116FFF;" d="M255.825,335.767c-4.157,0-8.15-1.647-11.25-4.646c-3.107-3.099-4.778-7.151-4.758-11.453
		c0.02-4.255,1.702-8.236,4.735-11.211c6.016-6.035,16.605-6.051,22.602,0.047c2.975,2.928,4.661,6.909,4.677,11.164
		c0.023,4.302-1.647,8.354-4.7,11.406C264.1,334.104,260.088,335.767,255.825,335.767z M255.852,311.761
		c-2.131,0-4.149,0.843-5.672,2.373c-1.53,1.499-2.357,3.467-2.369,5.574c-0.012,2.147,0.831,4.177,2.365,5.715
		c3.143,3.029,8.303,2.982,11.297,0c1.534-1.538,2.378-3.567,2.362-5.715c-0.008-2.107-0.836-4.075-2.335-5.551
		C259.964,312.595,257.976,311.761,255.852,311.761z"/>
	<path style="fill:#116FFF;" d="M264.304,315.304c-1.026,0-2.049-0.391-2.83-1.171c-1.561-1.562-1.561-4.091,0-5.652l56.521-56.524
		c1.562-1.562,4.091-1.562,5.652,0s1.562,4.091,0,5.652l-56.517,56.524C266.349,314.914,265.319,315.304,264.304,315.304z"/>
	<path style="fill:#116FFF;" d="M255.825,385.975c-2.209,0-3.997-1.788-3.997-3.997V331.77c0-2.21,1.788-3.997,3.997-3.997
		c2.21,0,3.998,1.787,3.998,3.997v50.208C259.823,384.187,258.035,385.975,255.825,385.975z"/>
	<path style="fill:#116FFF;" d="M357.599,222.005c-1.03,0-2.045-0.39-2.826-1.171c-1.562-1.562-1.562-4.091,0-5.652l2.795-2.799
		c1.562-1.562,4.091-1.562,5.653,0c1.561,1.562,1.561,4.091,0,5.652l-2.795,2.799C359.645,221.615,358.615,222.005,357.599,222.005z
		"/>
	<path style="fill:#116FFF;" d="M151.256,428.345c-1.022,0-2.049-0.391-2.83-1.172c-1.558-1.561-1.558-4.091,0.004-5.652
		l2.799-2.795c1.562-1.562,4.095-1.562,5.656,0c1.558,1.562,1.558,4.091-0.004,5.652l-2.799,2.795
		C153.302,427.955,152.279,428.345,151.256,428.345z"/>
	<path style="fill:#116FFF;" d="M327.776,199.141c-0.672,0-1.351-0.167-1.975-0.522c-1.921-1.089-2.593-3.529-1.5-5.45l1.999-3.517
		c1.085-1.917,3.521-2.596,5.449-1.499c1.921,1.089,2.593,3.529,1.499,5.449l-1.998,3.518
		C330.516,198.416,329.166,199.141,327.776,199.141z"/>
	<path style="fill:#116FFF;" d="M181.872,451.845c-0.684,0-1.374-0.172-2.007-0.538c-1.909-1.117-2.553-3.561-1.444-5.466
		l1.999-3.435c1.108-1.921,3.556-2.561,5.465-1.452c1.909,1.116,2.553,3.56,1.444,5.465l-1.999,3.435
		C184.589,451.135,183.25,451.845,181.872,451.845z"/>
	<path style="fill:#116FFF;" d="M293.081,184.749c-0.344,0-0.694-0.042-1.046-0.14c-2.124-0.574-3.388-2.771-2.811-4.899
		l1.038-3.837c0.57-2.135,2.771-3.419,4.896-2.814c2.14,0.574,3.396,2.771,2.818,4.899l-1.038,3.837
		C296.454,183.578,294.846,184.749,293.081,184.749z"/>
	<path style="fill:#116FFF;" d="M217.535,466.639c-0.348,0-0.699-0.047-1.046-0.141c-2.132-0.578-3.393-2.771-2.818-4.903
		l1.038-3.841c0.578-2.132,2.775-3.381,4.903-2.811c2.131,0.577,3.392,2.771,2.818,4.903l-1.039,3.841
		C220.908,465.469,219.296,466.639,217.535,466.639z"/>
	<path style="fill:#116FFF;" d="M255.825,179.874c-2.209,0-3.997-1.788-3.997-3.998v-3.998c0-2.209,1.788-3.997,3.997-3.997
		c2.21,0,3.998,1.788,3.998,3.997v3.998C259.823,178.086,258.035,179.874,255.825,179.874z"/>
	<path style="fill:#116FFF;" d="M255.825,471.675c-2.209,0-3.997-1.788-3.997-3.997v-3.997c0-2.21,1.788-3.997,3.997-3.997
		c2.21,0,3.998,1.787,3.998,3.997v3.997C259.823,469.886,258.035,471.675,255.825,471.675z"/>
	<path style="fill:#116FFF;" d="M218.565,184.749c-1.76,0-3.372-1.171-3.853-2.955l-1.038-3.837
		c-0.578-2.127,0.683-4.325,2.814-4.899c2.104-0.589,4.325,0.679,4.898,2.814l1.039,3.837c0.578,2.127-0.683,4.325-2.814,4.899
		C219.264,184.706,218.913,184.749,218.565,184.749z"/>
	<path style="fill:#116FFF;" d="M294.112,466.639c-1.757,0-3.373-1.171-3.857-2.951l-1.03-3.841
		c-0.577-2.132,0.687-4.326,2.811-4.903c2.108-0.555,4.325,0.679,4.903,2.811l1.046,3.841c0.569,2.132-0.687,4.325-2.826,4.903
		C294.814,466.593,294.463,466.639,294.112,466.639z"/>
	<path style="fill:#116FFF;" d="M183.878,199.141c-1.378,0-2.717-0.71-3.458-1.986l-1.999-3.439
		c-1.112-1.909-0.46-4.356,1.444-5.465c1.905-1.112,4.356-0.469,5.465,1.444l1.999,3.439c1.112,1.909,0.461,4.356-1.444,5.465
		C185.252,198.966,184.561,199.141,183.878,199.141z"/>
	<path style="fill:#116FFF;" d="M329.775,451.845c-1.374,0-2.717-0.71-3.451-1.991l-1.999-3.435
		c-1.108-1.905-0.468-4.349,1.438-5.465c1.904-1.116,4.355-0.469,5.465,1.452l1.998,3.435c1.109,1.905,0.469,4.349-1.437,5.466
		C331.149,451.673,330.462,451.845,329.775,451.845z"/>
	<path style="fill:#116FFF;" d="M154.054,222.005c-1.022,0-2.045-0.39-2.826-1.171l-2.799-2.799c-1.562-1.562-1.562-4.091,0-5.652
		s4.091-1.562,5.652,0l2.799,2.799c1.562,1.562,1.562,4.091,0,5.652C156.1,221.615,155.077,222.005,154.054,222.005z"/>
	<path style="fill:#116FFF;" d="M360.472,428.345h-0.077c-1.328,0-2.499-0.641-3.225-1.632l-2.358-2.296
		c-1.585-1.538-1.624-4.067-0.086-5.652c1.546-1.577,4.067-1.624,5.653-0.078l2.795,2.717c0.397,0.375,0.702,0.828,0.905,1.328
		c0.227,0.491,0.351,1.038,0.351,1.615C364.43,426.557,362.682,428.345,360.472,428.345z"/>
	<path style="fill:#116FFF;" d="M131.187,251.824c-0.683,0-1.374-0.175-2.006-0.542l-3.439-1.999
		c-1.905-1.108-2.557-3.556-1.444-5.465c1.108-1.909,3.56-2.557,5.465-1.444l3.439,1.999c1.905,1.108,2.557,3.556,1.444,5.465
		C133.904,251.114,132.565,251.824,131.187,251.824z"/>
	<path style="fill:#116FFF;" d="M383.972,397.725h-0.078c-0.702,0-1.39-0.188-2.007-0.539l-3.442-1.998
		c-1.905-1.108-2.554-3.561-1.437-5.466c1.108-1.912,3.544-2.561,5.465-1.451l3.264,1.904c1.296,0.664,2.201,2.007,2.201,3.553
		C387.938,395.937,386.19,397.725,383.972,397.725z"/>
	<path style="fill:#116FFF;" d="M116.885,286.519c-0.339,0-0.683-0.039-1.026-0.133l-3.919-1.038
		c-2.136-0.562-3.408-2.756-2.842-4.887c0.566-2.14,2.772-3.412,4.887-2.843l3.919,1.039c2.135,0.562,3.408,2.756,2.842,4.887
		C120.269,285.341,118.653,286.519,116.885,286.519z"/>
	<path style="fill:#116FFF;" d="M398.697,361.992c-0.352,0-0.703-0.047-1.046-0.141l-3.842-1.039
		c-2.131-0.577-3.389-2.771-2.811-4.902c0.562-2.131,2.771-3.381,4.896-2.811l3.833,1.038c2.139,0.578,3.396,2.771,2.818,4.903
		C402.069,360.82,400.454,361.992,398.697,361.992z"/>
	<path style="fill:#116FFF;" d="M111.924,323.775c-0.023,0-0.051,0-0.078,0l-3.998-0.078c-2.206-0.047-3.962-1.865-3.919-4.075
		c0.043-2.201,1.464-3.888,4.076-3.919l3.997,0.078c2.206,0.047,3.962,1.866,3.919,4.075
		C115.878,322.035,114.097,323.775,111.924,323.775z"/>
	<path style="fill:#116FFF;" d="M403.724,323.775h-3.919c-2.209,0-3.997-1.787-3.997-3.997c0-2.209,1.788-3.997,3.997-3.997h3.919
		c2.21,0,3.997,1.788,3.997,3.997C407.721,321.988,405.934,323.775,403.724,323.775z"/>
	<path style="fill:#116FFF;" d="M112.958,361.992c-1.8,0-3.432-1.218-3.88-3.045c-0.523-2.146,0.788-4.31,2.931-4.833l3.919-0.96
		c2.146-0.539,4.306,0.781,4.836,2.928c0.523,2.146-0.789,4.31-2.932,4.832l-3.919,0.961
		C113.594,361.953,113.274,361.992,112.958,361.992z"/>
	<path style="fill:#116FFF;" d="M394.848,286.441c-1.788,0-3.42-1.21-3.873-3.029c-0.539-2.139,0.766-4.309,2.904-4.848l3.834-0.961
		c2.154-0.499,4.316,0.766,4.855,2.912c0.531,2.14-0.766,4.311-2.904,4.849l-3.841,0.96
		C395.496,286.402,395.168,286.441,394.848,286.441z"/>
	<path style="fill:#116FFF;" d="M127.756,397.647c-1.401,0-2.764-0.733-3.494-2.046c-1.077-1.928-0.387-4.363,1.542-5.441
		l3.439-1.92c1.92-1.078,4.364-0.391,5.438,1.537c1.077,1.929,0.386,4.364-1.542,5.441l-3.439,1.921
		C129.084,397.483,128.416,397.647,127.756,397.647z"/>
	<path style="fill:#116FFF;" d="M380.46,251.747c-1.375,0-2.718-0.711-3.451-1.987c-1.117-1.909-0.469-4.356,1.437-5.465
		l3.442-1.999c2.538-1.468,6.051,0.543,6.051,3.455c0,1.671-1.007,3.1-2.451,3.696l-3.014,1.757
		C381.833,251.571,381.146,251.747,380.46,251.747z"/>
	<path style="fill:#116FFF;" d="M338.035,241.792c-2.21,0-4.044-1.788-4.044-3.997s1.748-3.998,3.966-3.998h0.078
		c2.202,0,3.997,1.788,3.997,3.998S340.237,241.792,338.035,241.792z"/>
	<path style="fill:#116FFF;" d="M174.088,405.735c-2.205,0-4.036-1.788-4.036-3.997s1.749-3.997,3.958-3.997h0.078
		c2.21,0,3.998,1.788,3.998,3.997S176.298,405.735,174.088,405.735z"/>
	<path style="fill:#116FFF;" d="M286.054,211.797c-2.201,0-4.028-1.788-4.028-3.998c0-2.209,1.749-3.997,3.95-3.997h0.078
		c2.218,0,3.997,1.788,3.997,3.997C290.052,210.01,288.272,211.797,286.054,211.797z"/>
	<path style="fill:#116FFF;" d="M226.053,435.738c-2.206,0-4.036-1.787-4.036-3.997c0-2.209,1.749-3.997,3.958-3.997h0.078
		c2.209,0,3.997,1.788,3.997,3.997C230.05,433.951,228.262,435.738,226.053,435.738z"/>
	<path style="fill:#116FFF;" d="M226.053,211.789c-2.206,0-4.036-1.788-4.036-3.998c0-2.209,1.749-3.997,3.958-3.997h0.078
		c2.209,0,3.997,1.788,3.997,3.997C230.05,210.002,228.262,211.789,226.053,211.789z"/>
	<path style="fill:#116FFF;" d="M286.054,435.73c-2.201,0-4.028-1.787-4.028-3.997c0-2.209,1.749-3.997,3.95-3.997h0.078
		c2.218,0,3.997,1.788,3.997,3.997C290.052,433.943,288.272,435.73,286.054,435.73z"/>
	<path style="fill:#116FFF;" d="M174.088,241.8c-2.205,0-4.036-1.788-4.036-3.997s1.749-3.998,3.958-3.998h0.078
		c2.21,0,3.998,1.788,3.998,3.998S176.298,241.8,174.088,241.8z"/>
	<path style="fill:#116FFF;" d="M338.019,405.727c-2.202,0-4.028-1.788-4.028-3.997s1.748-3.997,3.95-3.997h0.078
		c2.218,0,3.997,1.788,3.997,3.997S340.237,405.727,338.019,405.727z"/>
	<path style="fill:#116FFF;" d="M144.085,293.757c-2.205,0-4.036-1.788-4.036-3.997s1.749-3.997,3.958-3.997h0.078
		c2.21,0,3.998,1.788,3.998,3.997S146.295,293.757,144.085,293.757z"/>
	<path style="fill:#116FFF;" d="M368.03,353.763c-2.209,0-4.044-1.788-4.044-3.998c0-2.209,1.749-3.997,3.966-3.997h0.078
		c2.201,0,3.997,1.788,3.997,3.997C372.027,351.975,370.231,353.763,368.03,353.763z"/>
	<path style="fill:#116FFF;" d="M144.085,353.771c-2.205,0-4.036-1.788-4.036-3.998c0-2.209,1.749-3.997,3.958-3.997h0.078
		c2.21,0,3.998,1.788,3.998,3.997C148.082,351.983,146.295,353.771,144.085,353.771z"/>
	<path style="fill:#116FFF;" d="M368.014,293.757c-2.201,0-4.028-1.788-4.028-3.997s1.749-3.997,3.95-3.997h0.078
		c2.217,0,3.997,1.788,3.997,3.997S370.231,293.757,368.014,293.757z"/>
</g>
<g>
</g>
<g>
</g>
<g>
</g>
<g>
</g>
<g>
</g>
<g>
</g>
<g>
</g>
<g>
</g>
<g>
</g>
<g>
</g>
<g>
</g>
<g>
</g>
<g>
</g>
<g>
</g>
<g>
</g>
</svg>
