<?xml version="1.0" encoding="iso-8859-1"?>
<!-- Generator: Adobe Illustrator 19.0.0, SVG Export Plug-In . SVG Version: 6.00 Build 0)  -->
<svg version="1.1" id="Capa_1" xmlns="http://www.w3.org/2000/svg" xmlns:xlink="http://www.w3.org/1999/xlink" x="0px" y="0px"
	 viewBox="0 0 511.686 511.686" style="enable-background:new 0 0 511.686 511.686;" xml:space="preserve">
<path style="fill:#94C1FF;" d="M460.225,198.404c0.023-0.02,0.039-0.035,0.062-0.055c40.591-40.595,40.599-106.413,0-147.011
	c-40.599-40.599-106.42-40.599-147.011,0h-0.008L256.72,107.89c-40.599,40.599-40.599,106.416,0,147.015
	c40.594,40.599,106.416,40.599,147.015,0c0.016-0.02,0.031-0.039,0.047-0.059L460.225,198.404z M381.128,232.279
	c0,0.004-0.008,0.008-0.008,0.012c-28.104,28.104-73.677,28.104-101.781-0.004c-28.104-28.104-28.104-73.67,0-101.778l0.008-0.008
	l56.536-56.541c28.104-28.101,73.678-28.104,101.782,0c28.104,28.108,28.104,73.677,0,101.781L381.128,232.279z"/>
<path style="fill:#D7E9FF;" d="M477.178,181.45c0.023-0.02,0.039-0.031,0.062-0.051c40.591-40.599,40.591-106.417,0-147.011
	C436.641-6.211,370.82-6.211,330.221,34.384v0.004l-56.552,56.548c-40.595,40.599-40.595,106.42,0,147.019
	c40.599,40.595,106.412,40.595,147.011-0.004c0.023-0.02,0.039-0.039,0.055-0.059L477.178,181.45z M398.081,215.325
	c0,0.004-0.008,0.012-0.008,0.012c-28.112,28.108-73.677,28.104-101.781,0c-28.104-28.108-28.104-73.674,0-101.778
	c0-0.004,0.008-0.008,0.008-0.012l56.536-56.537c28.105-28.104,73.67-28.104,101.782,0c28.104,28.104,28.097,73.673,0,101.777
	L398.081,215.325z"/>
<path style="fill:#5C9EFF;" d="M237.893,420.735c0.023-0.016,0.043-0.031,0.059-0.047c40.591-40.598,40.591-106.42,0-147.01
	c-40.599-40.603-106.417-40.603-147.015-0.008l0,0l-56.552,56.56C-6.21,370.821-6.21,436.642,34.389,477.241
	c40.595,40.599,106.416,40.599,147.011,0c0.02-0.023,0.035-0.039,0.051-0.062L237.893,420.735z M158.797,454.617
	c0,0-0.008,0-0.012,0.008c-28.104,28.105-73.673,28.105-101.782,0c-28.104-28.111-28.104-73.677,0-101.781l0.012-0.008
	l56.545-56.544c28.1-28.097,73.669-28.104,101.777,0c28.104,28.104,28.101,73.677,0,101.781L158.797,454.617z"/>
<path style="fill:#94C1FF;" d="M254.846,403.789c0.023-0.023,0.043-0.039,0.059-0.055c40.592-40.598,40.6-106.42,0.004-147.015
	c-40.598-40.598-106.424-40.594-147.018,0l0,0l-56.552,56.557c-40.599,40.591-40.599,106.412,0,147.011s106.416,40.599,147.011,0
	c0.023-0.023,0.039-0.039,0.055-0.055L254.846,403.789z M175.746,437.664c0,0-0.004,0-0.008,0.008
	c-28.108,28.105-73.677,28.105-101.782,0c-28.104-28.104-28.104-73.669,0-101.781l0.012-0.008l56.541-56.544
	c28.1-28.097,73.673-28.104,101.777,0c28.108,28.104,28.101,73.677,0.004,101.781L175.746,437.664z"/>
<path style="fill:#D7E9FF;" d="M62.645,324.584l56.552-56.553c38.686-38.689,100.231-40.423,141.08-5.373
	c-1.729-2.01-3.463-4.029-5.369-5.938c-40.598-40.598-106.424-40.594-147.018,0l-56.552,56.557
	c-40.599,40.591-40.599,106.412,0,147.011c1.909,1.905,3.928,3.639,5.942,5.365C22.226,424.811,23.96,363.27,62.645,324.584z"/>
<path style="fill:#5C9EFF;" d="M243.602,392.42l-56.553,56.552c-38.685,38.686-100.231,40.419-141.08,5.373
	c1.729,2.015,3.459,4.029,5.369,5.942c40.599,40.599,106.424,40.591,147.019-0.008l56.552-56.553
	c40.596-40.59,40.596-106.412-0.004-147.011c-1.909-1.905-3.928-3.639-5.942-5.364C284.017,292.193,282.283,353.735,243.602,392.42z
	"/>
<path style="fill:#FFFFFF;" d="M284.977,102.248l56.553-56.553C380.216,7.01,441.765,5.276,482.606,40.327
	c-1.727-2.015-3.46-4.033-5.365-5.939c-40.599-40.599-106.42-40.599-147.019,0L273.67,90.94
	c-40.595,40.595-40.595,106.416,0,147.015c1.905,1.909,3.928,3.639,5.942,5.369C244.558,202.48,246.292,140.934,284.977,102.248z"/>
<path style="fill:#94C1FF;" d="M465.934,170.088l-56.553,56.552c-38.686,38.689-100.235,40.422-141.084,5.369
	c1.734,2.019,3.459,4.037,5.373,5.942c40.599,40.599,106.42,40.591,147.019-0.004l56.552-56.552
	c40.599-40.595,40.591-106.413-0.008-147.011c-1.905-1.909-3.92-3.639-5.942-5.369C506.352,69.861,504.619,131.403,465.934,170.088z
	"/>
<path style="fill:#2287FF;" d="M235.898,241.805l-40.486,40.486c7.196,3.428,13.967,8.043,19.925,14.001
	s10.573,12.729,14.001,19.921l40.482-40.482c-4.162-6.746-9.066-13.161-14.912-19.011
	C249.06,250.871,242.645,245.968,235.898,241.805z"/>
<path style="fill:#94C1FF;" d="M275.732,269.82l40.481-40.478c-7.192-3.432-13.963-8.047-19.921-14.005
	c-5.958-5.958-10.573-12.729-14.009-19.921l-40.478,40.481c4.167,6.747,9.066,13.162,14.916,19.007
	C262.57,260.754,268.985,265.657,275.732,269.82z"/>
<g>
	<path style="fill:#FFFFFF;" d="M318.93,215.333c6.232-6.255,6.232-16.379-0.016-22.63c-6.246-6.251-16.391-6.251-22.638,0
		c-0.062,0.066-0.109,0.148-0.172,0.21L192.933,296.089c-0.066,0.062-0.145,0.109-0.211,0.172c-6.251,6.255-6.251,16.391,0,22.638
		c6.248,6.247,16.375,6.247,22.626,0.016l0,0L318.93,215.333L318.93,215.333z"/>
	<path style="fill:#FFFFFF;" d="M285,283.189c-15.617,15.618-40.922,15.618-56.54,0c-15.61-15.61-15.61-40.923,0-56.537
		c15.618-15.614,40.923-15.614,56.54-0.004C300.611,242.266,300.611,267.578,285,283.189z"/>
</g>
<g>
	<path style="fill:#116FFF;" d="M347.3,272.436c-10.878,0-21.849-1.647-32.587-5.029c-2.107-0.655-3.279-2.904-2.615-5.009
		c0.663-2.104,2.912-3.261,5.013-2.616c35.71,11.233,74.31,1.784,100.743-24.661l56.553-56.548
		c18.882-18.874,29.283-43.972,29.283-70.671c0-26.698-10.401-51.804-29.283-70.687c-38.975-38.966-102.383-38.966-141.357,0
		l-56.553,56.561c-26.444,26.444-35.886,65.06-24.637,100.77c0.664,2.108-0.508,4.354-2.612,5.017
		c-2.12,0.672-4.35-0.503-5.017-2.612c-12.148-38.568-1.949-80.268,26.612-108.829l56.552-56.56
		c42.091-42.082,110.583-42.082,152.665,0c20.397,20.393,31.626,47.506,31.626,76.34s-11.236,55.943-31.626,76.324l-56.552,56.549
		C402.915,261.378,375.467,272.436,347.3,272.436z"/>
	<path style="fill:#116FFF;" d="M330.378,289.389c-7.754,0-15.579-0.836-23.364-2.546c-2.155-0.468-3.521-2.601-3.045-4.763
		c0.468-2.164,2.607-3.53,4.755-3.046c33.517,7.333,67.946-2.733,92.169-26.953l16.961-16.961c1.562-1.562,4.092-1.562,5.654,0
		c1.562,1.562,1.562,4.092,0,5.654l-16.961,16.961C386.017,278.261,358.678,289.389,330.378,289.389z"/>
	<path style="fill:#116FFF;" d="M228.698,207.797c-1.835,0-3.491-1.272-3.901-3.139c-7.954-36.187,2.92-73.412,29.088-99.576
		l16.958-16.96c1.562-1.562,4.092-1.562,5.653,0c1.562,1.562,1.562,4.092,0,5.654l-16.957,16.961
		c-24.23,24.227-34.297,58.695-26.933,92.204c0.477,2.159-0.891,4.291-3.046,4.763C229.272,207.766,228.983,207.797,228.698,207.797
		z"/>
	<path style="fill:#116FFF;" d="M347.323,240.466c-8.129,0-16.352-1.312-24.38-4.002c-2.092-0.703-3.225-2.968-2.521-5.064
		c0.711-2.089,2.982-3.197,5.068-2.518c24.652,8.262,51.382,1.983,69.765-16.383l56.536-56.537
		c12.846-12.846,19.913-29.916,19.913-48.068c0-18.151-7.067-35.218-19.913-48.056C438.953,47,421.883,39.925,403.728,39.925h-0.008
		c-18.156,0-35.219,7.071-48.057,19.913l-56.536,56.54c-18.391,18.386-24.661,45.12-16.375,69.777
		c0.702,2.093-0.43,4.361-2.523,5.064c-2.076,0.703-4.356-0.426-5.06-2.519c-9.262-27.55-2.241-57.431,18.304-77.976l56.537-56.541
		c14.345-14.353,33.422-22.255,53.71-22.255h0.008c20.287,0,39.364,7.906,53.718,22.255c14.353,14.349,22.255,33.423,22.255,53.71
		c0.008,20.288-7.902,39.369-22.255,53.722l-56.537,56.537C386.353,232.704,367.104,240.466,347.323,240.466z"/>
	<path style="fill:#116FFF;" d="M437.665,179.736c-1.023,0-2.046-0.39-2.827-1.171c-1.562-1.562-1.562-4.092,0-5.653
		c26.504-26.5,26.504-69.621,0-96.12c-26.512-26.504-69.632-26.5-96.128-0.012c-1.562,1.562-4.092,1.562-5.653,0
		c-1.562-1.562-1.562-4.092,0-5.654c29.611-29.615,77.808-29.611,107.436,0.012c29.619,29.62,29.619,77.809,0,107.428
		C439.711,179.346,438.688,179.736,437.665,179.736z"/>
	<path style="fill:#116FFF;" d="M124.863,494.717c-28.834,0-55.943-11.229-76.329-31.626c-20.393-20.382-31.626-47.486-31.63-76.325
		c0-28.83,11.226-55.935,31.614-76.324l56.553-56.552c26.175-26.176,63.4-37.054,99.583-29.089c2.155,0.473,3.521,2.608,3.045,4.764
		c-0.472,2.155-2.624,3.506-4.763,3.046c-33.493-7.356-67.969,2.702-92.212,26.933l-56.551,56.552
		c-18.878,18.874-29.272,43.979-29.272,70.67c0,26.699,10.402,51.797,29.288,70.671c18.878,18.882,43.976,29.284,70.675,29.284
		c26.691,0,51.789-10.395,70.667-29.269l56.553-56.552c24.227-24.224,34.301-58.685,26.944-92.185
		c-0.476-2.155,0.891-4.287,3.046-4.764c2.14-0.483,4.287,0.883,4.764,3.046c7.949,36.179-2.929,73.396-29.101,99.556
		l-56.552,56.553C180.794,483.488,153.69,494.717,124.863,494.717z"/>
	<path style="fill:#116FFF;" d="M107.902,511.686c-28.834,0-55.943-11.222-76.336-31.61c-42.082-42.099-42.09-110.583-0.012-152.665
		l16.965-16.969c1.562-1.562,4.092-1.562,5.654,0s1.562,4.092,0,5.654l-16.965,16.969C-1.751,372.031-1.747,435.44,37.219,474.421
		c18.882,18.874,43.984,29.269,70.682,29.269c26.695,0,51.793-10.402,70.663-29.276l16.965-16.961c1.562-1.562,4.092-1.562,5.654,0
		c1.562,1.562,1.562,4.092,0,5.654l-16.965,16.961C163.837,500.456,136.733,511.686,107.902,511.686z"/>
	<path style="fill:#116FFF;" d="M124.847,462.708c-19.456,0-38.904-7.403-53.714-22.217c-14.345-14.353-22.244-33.43-22.244-53.726
		c0.004-20.287,7.906-39.364,22.255-53.701l56.544-56.561c20.542-20.549,50.426-27.55,77.996-18.296
		c2.093,0.702,3.221,2.971,2.518,5.063c-0.702,2.089-2.963,3.222-5.063,2.519c-24.669-8.289-51.418-2.011-69.796,16.368
		l-56.544,56.56c-12.838,12.83-19.909,29.893-19.913,48.048c0,18.156,7.067,35.234,19.901,48.072
		c26.507,26.512,69.628,26.488,96.136-0.008l56.544-56.545c18.378-18.374,24.653-45.104,16.372-69.772
		c-0.703-2.093,0.425-4.357,2.518-5.06c2.104-0.734,4.361,0.421,5.064,2.514c9.25,27.565,2.241,57.442-18.3,77.973l-56.545,56.544
		C163.763,455.297,144.303,462.7,124.847,462.708z"/>
	<path style="fill:#116FFF;" d="M113.564,300.275c-1.023,0-2.046-0.391-2.827-1.171c-1.562-1.562-1.562-4.092,0-5.654
		c20.549-20.545,50.418-27.565,77.988-18.265c2.093,0.702,3.217,2.967,2.51,5.06c-0.698,2.093-2.951,3.218-5.063,2.515
		c-24.657-8.293-51.395-2.038-69.781,16.345C115.61,299.884,114.586,300.275,113.564,300.275z"/>
	<path style="fill:#116FFF;" d="M215.345,402.056c-1.023,0-2.046-0.39-2.827-1.171c-1.562-1.562-1.562-4.092,0-5.654
		c18.387-18.382,24.657-45.104,16.36-69.749c-0.703-2.093,0.421-4.357,2.514-5.06c2.116-0.688,4.365,0.421,5.068,2.514
		c9.27,27.543,2.261,57.412-18.288,77.949C217.391,401.666,216.368,402.056,215.345,402.056z"/>
	<path style="fill:#116FFF;" d="M301.961,236.296c-1.022,0-2.046-0.391-2.826-1.171c-1.562-1.562-1.562-4.092,0-5.654l16.961-16.961
		c4.67-4.674,4.67-12.287,0-16.973c-4.529-4.529-12.432-4.533-16.961,0.004c-0.109,0.109-0.227,0.215-0.352,0.312l-16.633,16.633
		c-1.562,1.562-4.092,1.562-5.654,0c-1.562-1.562-1.562-4.092,0-5.653l16.961-16.965c0.125-0.125,0.258-0.242,0.398-0.348
		c7.583-7.216,20.467-7.075,27.894,0.367c7.794,7.801,7.786,20.486,0,28.276l-16.961,16.961
		C304.008,235.905,302.985,236.296,301.961,236.296z"/>
	<path style="fill:#116FFF;" d="M204.026,327.574c-0.004,0-0.004,0-0.008,0c-5.333,0-10.354-2.077-14.13-5.856
		c-7.79-7.786-7.79-20.468-0.004-28.269l18.769-18.772c1.562-1.562,4.092-1.562,5.654,0s1.562,4.092,0,5.653l-18.765,18.773
		c-4.673,4.677-4.673,12.291,0,16.961c2.269,2.264,5.279,3.514,8.48,3.514c0,0,0,0,0.004,0c3.198,0,6.208-1.25,8.477-3.514
		c0.117-0.117,0.238-0.227,0.371-0.328l18.414-18.414c1.562-1.562,4.092-1.562,5.654,0c1.562,1.562,1.562,4.092,0,5.654
		l-18.765,18.765c-0.129,0.133-0.27,0.25-0.414,0.359C214.033,325.638,209.176,327.574,204.026,327.574z"/>
	<path style="fill:#116FFF;" d="M256.737,298.901c-11.745,0-22.791-4.576-31.1-12.885c-8.309-8.301-12.881-19.351-12.881-31.096
		c0-11.744,4.572-22.79,12.881-31.099s19.351-12.881,31.1-12.881c11.748,0,22.79,4.576,31.091,12.885
		c17.148,17.145,17.148,45.042,0,62.19C279.527,294.324,268.485,298.901,256.737,298.901z M256.737,218.937
		c-9.613,0-18.648,3.74-25.446,10.538s-10.538,15.837-10.538,25.445c0,9.613,3.741,18.648,10.538,25.441
		c6.797,6.802,15.836,10.542,25.446,10.542c9.608,0,18.644-3.74,25.438-10.542c14.024-14.032,14.024-36.854,0-50.883
		C275.38,222.677,266.345,218.937,256.737,218.937z"/>
	<path style="fill:#116FFF;" d="M256.737,274.911c-2.21,0-3.999-1.788-3.999-3.998v-31.989c0-2.21,1.789-3.999,3.999-3.999
		c2.209,0,3.998,1.789,3.998,3.999v31.989C260.735,273.123,258.946,274.911,256.737,274.911z"/>
	<path style="fill:#116FFF;" d="M272.725,258.914H240.74c-2.21,0-3.998-1.788-3.998-3.998c0-2.21,1.788-3.998,3.998-3.998h31.985
		c2.21,0,3.998,1.788,3.998,3.998C276.723,257.126,274.935,258.914,272.725,258.914z"/>
</g>
<g>
</g>
<g>
</g>
<g>
</g>
<g>
</g>
<g>
</g>
<g>
</g>
<g>
</g>
<g>
</g>
<g>
</g>
<g>
</g>
<g>
</g>
<g>
</g>
<g>
</g>
<g>
</g>
<g>
</g>
</svg>
