<?xml version="1.0" encoding="iso-8859-1"?>
<!-- Generator: Adobe Illustrator 19.0.0, SVG Export Plug-In . SVG Version: 6.00 Build 0)  -->
<svg version="1.1" id="Capa_1" xmlns="http://www.w3.org/2000/svg" xmlns:xlink="http://www.w3.org/1999/xlink" x="0px" y="0px"
	 viewBox="0 0 511.918 511.918" style="enable-background:new 0 0 511.918 511.918;" xml:space="preserve">
<g>
	<rect x="60.32" y="236.96" style="fill:#5C9EFF;" width="73.66" height="151.3"/>
	<rect x="210.3" y="236.96" style="fill:#5C9EFF;" width="73.66" height="151.3"/>
</g>
<path style="fill:#D7E9FF;" d="M268.676,243.273c0,62.818-59.447,120.668-95.984,120.668c-36.533,0-95.984-57.85-95.984-120.668
	s42.978-104.218,95.984-104.218S268.676,180.456,268.676,243.273z"/>
<path style="fill:#FFFFFF;" d="M92.704,243.273c0-59.615,38.729-99.875,87.986-103.827c-2.645-0.211-5.301-0.391-7.999-0.391
	c-53.007,0-95.984,41.4-95.984,104.218s59.451,120.668,95.984,120.668c2.558,0,5.245-0.352,7.999-0.898
	C144.106,355.756,92.704,301.693,92.704,243.273z"/>
<path style="fill:#94C1FF;" d="M252.437,243.273c0-59.615-38.729-99.875-87.986-103.827c2.645-0.211,5.3-0.391,7.999-0.391
	c53.007,0,95.984,41.4,95.984,104.218s-59.451,120.668-95.984,120.668c-2.559,0-5.245-0.352-7.999-0.898
	C201.034,355.756,252.437,301.693,252.437,243.273z"/>
<g>
	<polygon style="fill:#5C9EFF;" points="379.939,113.185 371.94,120.941 373.862,131.979 363.941,126.776 354.021,131.979 
		355.943,120.941 347.944,113.185 358.981,111.584 363.941,101.507 368.902,111.584 	"/>
	<polygon style="fill:#5C9EFF;" points="475.924,113.185 467.925,120.941 469.847,131.979 459.926,126.776 450.006,131.979 
		451.928,120.941 443.929,113.185 454.967,111.584 459.926,101.507 464.887,111.584 	"/>
	<polygon style="fill:#5C9EFF;" points="427.932,113.185 419.933,120.941 421.855,131.979 411.934,126.776 402.014,131.979 
		403.936,120.941 395.937,113.185 406.974,111.584 411.934,101.507 416.895,111.584 	"/>
</g>
<path style="fill:#D7E9FF;" d="M507.919,43.993V187.97H371.94l-31.995,15.998V187.97h-23.996V43.993H507.919z M467.925,120.941
	l7.999-7.756l-11.037-1.601l-4.961-10.077l-4.959,10.077l-11.038,1.601l7.999,7.756l-1.922,11.038l9.92-5.203l9.921,5.203
	L467.925,120.941z M419.933,120.941l7.999-7.756l-11.037-1.601l-4.961-10.077l-4.96,10.077l-11.037,1.601l7.999,7.756l-1.922,11.038
	l9.92-5.203l9.921,5.203L419.933,120.941z M371.94,120.941l7.999-7.756l-11.037-1.601l-4.961-10.077l-4.96,10.077l-11.037,1.601
	l7.999,7.756l-1.922,11.038l9.92-5.203l9.921,5.203L371.94,120.941z"/>
<g>
	<path style="fill:#94C1FF;" d="M283.955,227.964v15.997c-3.844-1.523-7.601-3.039-11.201-4.64
		c-53.75-23.832-76.785-56.069-76.785-56.069c35.514-23.277,47.992-41.032,47.992-41.032
		C268.434,162.771,283.955,193.57,283.955,227.964z"/>
	<path style="fill:#94C1FF;" d="M243.961,142.22c0,0-12.479,17.755-47.992,41.032c-28.554,18.794-72.066,41.11-135.979,60.709
		v-15.997c0-61.834,50.152-111.982,111.982-111.982C199.327,115.981,224.444,125.824,243.961,142.22z"/>
</g>
<path style="fill:#5C9EFF;" d="M243.961,142.22c-19.517-16.396-44.634-26.238-71.988-26.238c-2.539,0-5.022,0.211-7.522,0.383
	c24.047,1.805,46.036,11.17,63.514,25.855c24.473,20.551,39.993,51.351,39.993,85.744v9.107c1.602,0.75,3.141,1.516,4.797,2.25
	c3.601,1.601,7.357,3.116,11.201,4.64v-15.997C283.955,193.57,268.434,162.771,243.961,142.22z"/>
<path style="fill:#D7E9FF;" d="M75.988,227.964c0-59.295,46.152-107.717,104.46-111.6c-2.805-0.211-5.62-0.383-8.476-0.383
	c-61.83,0-111.982,50.148-111.982,111.982v15.997c5.5-1.688,10.796-3.398,15.998-5.124V227.964z"/>
<path style="fill:#94C1FF;" d="M339.945,434.328c0,22.396,0,33.597,0,33.597H4c0,0,0-11.201,0-33.597
	c0-22.395,11.197-30.791,33.514-39.188c6.558-2.483,16.638-5.046,27.516-8.241c12.24-3.601,25.437-8.162,35.275-14.317
	c2.558,4.476,20.316,31.354,71.668,31.354s69.028-26.879,71.59-31.354c18.556,11.6,48.867,17.356,62.865,22.559
	C328.744,403.537,339.945,411.934,339.945,434.328z"/>
<path style="fill:#D7E9FF;" d="M53.512,395.14c6.557-2.483,16.638-5.046,27.515-8.241c7.886-2.319,16.083-5.101,23.609-8.389
	c-2.344-2.727-3.753-4.914-4.331-5.929c-9.839,6.155-23.035,10.717-35.275,14.317c-10.878,3.195-20.958,5.758-27.516,8.241
	C15.198,403.536,4,411.933,4,434.327c0,22.396,0,33.597,0,33.597h15.997c0,0,0-11.201,0-33.597
	C19.997,411.934,31.194,403.537,53.512,395.14z"/>
<path style="fill:#5C9EFF;" d="M291.094,395.14c-6.561-2.483-16.638-5.046-27.519-8.241c-7.882-2.319-16.083-5.101-23.613-8.389
	c2.343-2.727,3.757-4.914,4.335-5.929c9.834,6.155,23.035,10.717,35.275,14.317c10.881,3.195,20.958,5.758,27.52,8.241
	c22.309,8.397,33.51,16.794,33.51,39.188c0,22.396,0,33.597,0,33.597h-15.997c0,0,0-11.201,0-33.597
	C324.605,411.934,313.403,403.537,291.094,395.14z"/>
<path style="fill:#D7E9FF;" d="M243.563,372.581c-2.562,4.476-20.238,31.354-71.59,31.354s-69.11-26.879-71.668-31.354
	c9.279-5.757,15.677-12.881,15.677-22.239v-17.918l0.078-0.078c18.157,19.441,39.357,31.596,55.913,31.596
	s37.756-12.154,55.913-31.596l0.078,0.078v17.918C227.964,359.622,234.283,366.824,243.563,372.581z"/>
<rect x="315.95" y="43.989" style="fill:#FFFFFF;" width="7.999" height="143.98"/>
<rect x="499.92" y="43.989" style="fill:#94C1FF;" width="7.999" height="143.98"/>
<g>
	<path style="fill:#116FFF;" d="M339.945,471.924H4c-2.211,0-4-1.788-4-3.999v-33.597c0-24.667,12.689-34.119,36.104-42.93
		c4.695-1.781,10.901-3.531,18.091-5.562c3.109-0.874,6.37-1.796,9.706-2.772c9.814-2.89,24.047-7.468,34.283-13.873
		c9.288-5.765,13.799-11.928,13.799-18.849c0-2.21,1.789-3.999,3.999-3.999c2.211,0,4,1.789,4,3.999
		c0,9.921-5.745,18.303-17.568,25.637c-11.061,6.921-25.987,11.74-36.256,14.756c-3.366,0.992-6.654,1.922-9.791,2.804
		c-7.007,1.977-13.061,3.688-17.435,5.343c-20.962,7.881-30.933,15.2-30.933,35.446v29.598h327.947v-29.598
		c0-20.246-9.975-27.558-30.925-35.447c-4.132-1.53-9.803-3.132-16.364-4.991c-15.092-4.265-33.87-9.576-47.215-17.919
		c-11.593-7.193-17.479-15.817-17.479-25.629c0-2.21,1.789-3.999,4-3.999c2.21,0,3.999,1.789,3.999,3.999
		c0,6.952,4.483,13.115,13.709,18.841c12.389,7.749,30.558,12.881,45.164,17.013c6.727,1.898,12.537,3.547,16.982,5.195
		c23.434,8.818,36.127,18.271,36.127,42.938v33.597C343.945,470.136,342.156,471.924,339.945,471.924z"/>
	<path style="fill:#116FFF;" d="M171.973,367.941c-17.622,0-39.614-12.287-58.834-32.87c-22.368-23.551-37.104-53.694-40.404-82.659
		c-0.25-2.195,1.324-4.179,3.52-4.429c2.226-0.219,4.175,1.336,4.425,3.523c3.109,27.276,17.063,55.733,38.283,78.081
		c17.489,18.731,37.795,30.354,53.011,30.354s35.521-11.623,52.991-30.323c21.239-22.379,35.194-50.836,38.303-78.112
		c0.25-2.195,2.254-3.719,4.425-3.523c2.195,0.25,3.773,2.234,3.523,4.429c-3.305,28.964-18.04,59.108-40.428,82.69
		C211.587,355.654,189.595,367.941,171.973,367.941z"/>
	<path style="fill:#116FFF;" d="M115.981,354.342c-2.21,0-3.999-1.789-3.999-4v-17.918c0-2.211,1.789-4,3.999-4c2.211,0,4,1.789,4,4
		v17.918C119.981,352.553,118.192,354.342,115.981,354.342z"/>
	<path style="fill:#116FFF;" d="M227.964,354.342c-2.211,0-4-1.789-4-4v-17.918c0-2.211,1.789-4,4-4c2.21,0,3.999,1.789,3.999,4
		v17.918C231.963,352.553,230.174,354.342,227.964,354.342z"/>
	<path style="fill:#116FFF;" d="M339.945,207.967c-0.734,0-1.46-0.203-2.101-0.594c-1.18-0.734-1.898-2.023-1.898-3.406v-11.998
		h-19.997c-2.21,0-3.999-1.789-3.999-4V43.993c0-2.211,1.789-3.999,3.999-3.999h191.97c2.21,0,3.999,1.788,3.999,3.999V187.97
		c0,2.211-1.789,4-3.999,4H372.886l-31.151,15.576C341.172,207.826,340.555,207.967,339.945,207.967z M319.949,183.971h19.996
		c2.211,0,4,1.789,4,3.999v9.53l26.207-13.107c0.554-0.273,1.171-0.422,1.788-0.422h131.979V47.992h-183.97V183.971z"/>
	<path style="fill:#116FFF;" d="M373.862,135.979c-0.633,0-1.273-0.148-1.859-0.461l-8.062-4.226l-8.061,4.226
		c-1.352,0.711-2.984,0.586-4.219-0.305c-1.226-0.898-1.843-2.422-1.577-3.921l1.554-8.952l-6.475-6.28
		c-1.102-1.062-1.492-2.656-1.023-4.108c0.469-1.445,1.719-2.508,3.226-2.727l8.96-1.296l4.03-8.186
		c1.344-2.734,5.827-2.734,7.171,0l4.03,8.186l8.96,1.296c1.508,0.219,2.757,1.281,3.226,2.727c0.469,1.453,0.078,3.046-1.023,4.108
		l-6.476,6.28l1.555,8.952c0.266,1.5-0.352,3.023-1.578,3.921C375.518,135.721,374.69,135.979,373.862,135.979z M363.941,122.777
		c0.641,0,1.273,0.156,1.859,0.461l2.727,1.43l-0.523-3.039c-0.227-1.304,0.203-2.64,1.156-3.562l2.155-2.094l-2.991-0.43
		c-1.305-0.195-2.43-1.008-3.008-2.195l-1.375-2.789l-1.374,2.789c-0.578,1.187-1.703,2-3.008,2.195l-2.991,0.43l2.155,2.094
		c0.953,0.921,1.383,2.257,1.156,3.562l-0.523,3.039l2.727-1.43C362.669,122.934,363.301,122.777,363.941,122.777z"/>
	<path style="fill:#116FFF;" d="M421.855,135.979c-0.633,0-1.273-0.148-1.859-0.461l-8.062-4.226l-8.061,4.226
		c-1.359,0.711-2.984,0.586-4.219-0.305c-1.226-0.898-1.843-2.422-1.577-3.921l1.554-8.952l-6.475-6.28
		c-1.102-1.062-1.492-2.656-1.023-4.108c0.469-1.445,1.719-2.508,3.226-2.727l8.96-1.296l4.03-8.186
		c1.344-2.734,5.827-2.734,7.171,0l4.03,8.186l8.96,1.296c1.508,0.219,2.757,1.281,3.226,2.727c0.469,1.453,0.078,3.046-1.022,4.108
		l-6.477,6.28l1.555,8.952c0.266,1.5-0.352,3.023-1.578,3.921C423.511,135.721,422.683,135.979,421.855,135.979z M411.934,122.777
		c0.641,0,1.273,0.156,1.859,0.461l2.727,1.43l-0.523-3.039c-0.227-1.304,0.203-2.64,1.156-3.562l2.155-2.094l-2.991-0.43
		c-1.305-0.195-2.43-1.008-3.008-2.195l-1.375-2.789l-1.374,2.789c-0.578,1.187-1.703,2-3.008,2.195l-2.991,0.43l2.156,2.094
		c0.952,0.921,1.382,2.257,1.155,3.562l-0.523,3.039l2.727-1.43C410.661,122.934,411.294,122.777,411.934,122.777z"/>
	<path style="fill:#116FFF;" d="M469.847,135.979c-0.633,0-1.273-0.148-1.859-0.461l-8.062-4.226l-8.061,4.226
		c-1.359,0.711-2.977,0.586-4.218-0.305c-1.227-0.898-1.844-2.422-1.578-3.921l1.555-8.952l-6.476-6.28
		c-1.102-1.062-1.492-2.656-1.023-4.108c0.469-1.445,1.719-2.508,3.226-2.727l8.96-1.296l4.03-8.186
		c1.344-2.734,5.827-2.734,7.171,0l4.03,8.186l8.96,1.296c1.508,0.219,2.758,1.281,3.226,2.727c0.469,1.453,0.078,3.046-1.022,4.108
		l-6.477,6.28l1.555,8.952c0.266,1.5-0.352,3.023-1.578,3.921C471.503,135.721,470.675,135.979,469.847,135.979z M459.926,122.777
		c0.641,0,1.273,0.156,1.859,0.461l2.727,1.43l-0.523-3.039c-0.227-1.304,0.203-2.64,1.156-3.562l2.156-2.094l-2.992-0.43
		c-1.305-0.195-2.43-1.008-3.008-2.195l-1.375-2.789l-1.374,2.789c-0.578,1.187-1.703,2-3.008,2.195l-2.991,0.43l2.156,2.094
		c0.952,0.921,1.382,2.257,1.155,3.562l-0.522,3.039l2.726-1.43C458.653,122.934,459.286,122.777,459.926,122.777z"/>
	<path style="fill:#116FFF;" d="M283.955,231.963c-2.211,0-4-1.789-4-3.999c0-31.964-14.06-62.1-38.567-82.683
		c-19.419-16.317-44.071-25.3-69.415-25.3c-59.541,0-107.982,48.438-107.982,107.983c0,2.21-1.789,3.999-4,3.999
		c-2.21,0-3.999-1.789-3.999-3.999c0-63.951,52.031-115.981,115.981-115.981c27.223,0,53.702,9.654,74.562,27.175
		c26.32,22.106,41.419,54.476,41.419,88.807C287.954,230.174,286.165,231.963,283.955,231.963z"/>
	<path style="fill:#116FFF;" d="M59.99,375.939c-2.21,0-3.999-1.789-3.999-3.999V227.964c0-2.211,1.789-4,3.999-4
		c2.211,0,4,1.789,4,4v143.977C63.99,374.15,62.201,375.939,59.99,375.939z"/>
	<path style="fill:#116FFF;" d="M283.955,375.939c-2.211,0-4-1.789-4-3.999V227.964c0-2.211,1.789-4,4-4c2.21,0,3.999,1.789,3.999,4
		v143.977C287.954,374.15,286.165,375.939,283.955,375.939z"/>
	<path style="fill:#116FFF;" d="M59.99,247.96c-1.71,0-3.296-1.109-3.823-2.827c-0.648-2.109,0.539-4.351,2.652-4.992
		c53.979-16.56,99.382-36.822,134.95-60.232c34.292-22.473,46.802-39.822,46.923-39.994c1.272-1.804,3.776-2.226,5.573-0.961
		c1.8,1.273,2.237,3.758,0.969,5.562c-0.527,0.75-13.33,18.653-49.074,42.079c-36.193,23.824-82.292,44.415-136.998,61.185
		C60.771,247.905,60.377,247.96,59.99,247.96z"/>
	<path style="fill:#116FFF;" d="M283.955,247.96c-0.492,0-0.992-0.086-1.477-0.281c-3.891-1.546-7.702-3.078-11.35-4.703
		c-54.12-23.996-77.449-56.045-78.413-57.397c-1.285-1.796-0.867-4.289,0.925-5.577c1.797-1.289,4.293-0.867,5.577,0.922
		c0.227,0.312,23.177,31.69,75.16,54.741c3.555,1.578,7.257,3.078,11.054,4.578c2.054,0.812,3.054,3.14,2.241,5.195
		C287.048,247.007,285.549,247.96,283.955,247.96z"/>
	<path style="fill:#116FFF;" d="M171.973,407.935c-53.366,0-71.957-27.8-75.141-33.37c-1.097-1.913-0.43-4.358,1.488-5.46
		c1.918-1.093,4.358-0.429,5.456,1.492c1.715,2.999,18.212,29.339,68.196,29.339c49.883,0,66.399-26.34,68.118-29.339
		c1.094-1.929,3.534-2.585,5.46-1.484c1.918,1.094,2.581,3.539,1.484,5.452C243.844,380.143,225.237,407.935,171.973,407.935z"/>
</g>
<g>
</g>
<g>
</g>
<g>
</g>
<g>
</g>
<g>
</g>
<g>
</g>
<g>
</g>
<g>
</g>
<g>
</g>
<g>
</g>
<g>
</g>
<g>
</g>
<g>
</g>
<g>
</g>
<g>
</g>
</svg>
