<?xml version="1.0" encoding="iso-8859-1"?>
<!-- Generator: Adobe Illustrator 19.0.0, SVG Export Plug-In . SVG Version: 6.00 Build 0)  -->
<svg version="1.1" id="Capa_1" xmlns="http://www.w3.org/2000/svg" xmlns:xlink="http://www.w3.org/1999/xlink" x="0px" y="0px"
	 viewBox="0 0 512.002 512.002" style="enable-background:new 0 0 512.002 512.002;" xml:space="preserve">
<rect x="108.151" y="307.931" style="fill:#5C9EFF;" width="295.69" height="31.998"/>
<rect x="108.151" y="172.071" style="fill:#94C1FF;" width="295.69" height="135.86"/>
<polygon style="fill:#D7E9FF;" points="363.888,291.948 148.111,291.948 124.136,275.965 124.136,204.04 148.111,188.056 
	363.888,188.056 387.862,204.04 387.862,275.965 "/>
<circle style="fill:#5C9EFF;" cx="72.191" cy="439.811" r="51.946"/>
<circle style="fill:#94C1FF;" cx="72.191" cy="423.831" r="51.946"/>
<path style="fill:#D7E9FF;" d="M28.235,423.828c0-27.34,21.134-49.699,47.95-51.744c-1.323-0.102-2.646-0.202-3.996-0.202
	c-28.689,0-51.946,23.257-51.946,51.946c0,28.688,23.257,51.945,51.946,51.945c1.35,0,2.673-0.101,3.996-0.202
	C49.369,473.526,28.235,451.166,28.235,423.828z"/>
<g>
	<path style="fill:#5C9EFF;" d="M116.144,423.828c0,27.338-21.134,49.698-47.951,51.743c1.323,0.102,2.646,0.202,3.996,0.202
		c28.689,0,51.946-23.257,51.946-51.945c0-28.689-23.257-51.946-51.946-51.946c-1.35,0-2.673,0.101-3.996,0.202
		C95.01,374.129,116.144,396.488,116.144,423.828z"/>
	<circle style="fill:#5C9EFF;" cx="439.811" cy="88.171" r="51.946"/>
</g>
<circle style="fill:#94C1FF;" cx="439.811" cy="72.191" r="51.946"/>
<path style="fill:#D7E9FF;" d="M395.855,72.191c0-27.339,21.135-49.698,47.95-51.743c-1.319-0.102-2.638-0.203-3.995-0.203
	c-28.689,0-51.947,23.258-51.947,51.946c0,28.689,23.258,51.946,51.947,51.946c1.357,0,2.676-0.102,3.995-0.203
	C416.989,121.89,395.855,99.53,395.855,72.191z"/>
<path style="fill:#5C9EFF;" d="M483.764,72.191c0,27.339-21.135,49.699-47.95,51.744c1.326,0.101,2.653,0.203,3.996,0.203
	c28.688,0,51.945-23.257,51.945-51.946c0-28.688-23.257-51.946-51.945-51.946c-1.343,0-2.67,0.102-3.996,0.203
	C462.629,22.493,483.764,44.853,483.764,72.191z"/>
<g>
	<path style="fill:#94C1FF;" d="M180.086,240.002c0,6.626-5.374,11.996-12,11.996s-12-5.37-12-11.996
		c0-6.634,5.374-12.003,12-12.003S180.086,233.369,180.086,240.002z"/>
	<path style="fill:#94C1FF;" d="M355.911,240.002c0,6.626-5.377,11.996-12.003,11.996s-12.003-5.37-12.003-11.996
		c0-6.634,5.377-12.003,12.003-12.003S355.911,233.369,355.911,240.002z"/>
</g>
<rect x="108.151" y="172.071" style="fill:#D7E9FF;" width="295.69" height="8.01"/>
<rect x="108.151" y="299.921" style="fill:#5C9EFF;" width="295.69" height="8.687"/>
<rect x="108.151" y="180.081" style="fill:#D7E9FF;" width="7.988" height="119.84"/>
<rect x="395.851" y="180.081" style="fill:#5C9EFF;" width="7.992" height="119.84"/>
<rect x="204.051" y="172.071" style="fill:#FFFFFF;" width="103.9" height="135.86"/>
<rect x="204.051" y="307.931" style="fill:#D7E9FF;" width="103.9" height="31.998"/>
<g>
	<path style="fill:#116FFF;" d="M439.81,128.134c-30.844,0-55.942-25.099-55.942-55.942S408.967,16.25,439.81,16.25
		s55.941,25.099,55.941,55.942C495.751,103.035,470.652,128.134,439.81,128.134z M439.81,24.241
		c-26.441,0-47.951,21.509-47.951,47.95s21.51,47.951,47.951,47.951c26.44,0,47.949-21.509,47.949-47.951
		S466.25,24.241,439.81,24.241z"/>
	<path style="fill:#116FFF;" d="M439.81,144.117c-30.844,0-55.942-25.099-55.942-55.942c0-2.208,1.787-3.996,3.995-3.996
		c2.209,0,3.996,1.788,3.996,3.996c0,26.441,21.51,47.951,47.951,47.951c26.44,0,47.949-21.509,47.949-47.951
		c0-2.208,1.788-3.996,3.996-3.996c2.209,0,3.996,1.788,3.996,3.996C495.751,119.019,470.652,144.117,439.81,144.117z"/>
	<path style="fill:#116FFF;" d="M439.81,96.167c-2.209,0-3.996-1.787-3.996-3.996V52.212c0-2.208,1.787-3.996,3.996-3.996
		c2.208,0,3.995,1.787,3.995,3.996v39.959C443.805,94.38,442.018,96.167,439.81,96.167z"/>
	<path style="fill:#116FFF;" d="M491.755,92.171c-2.208,0-3.996-1.787-3.996-3.996V72.191c0-2.208,1.788-3.996,3.996-3.996
		c2.209,0,3.996,1.788,3.996,3.996v15.983C495.751,90.384,493.964,92.171,491.755,92.171z"/>
	<path style="fill:#116FFF;" d="M387.862,92.171c-2.208,0-3.995-1.787-3.995-3.996V72.191c0-2.208,1.787-3.996,3.995-3.996
		c2.209,0,3.996,1.788,3.996,3.996v15.983C391.858,90.384,390.071,92.171,387.862,92.171z"/>
	<path style="fill:#116FFF;" d="M439.81,144.117c-2.209,0-3.996-1.787-3.996-3.996v-15.983c0-2.208,1.787-3.996,3.996-3.996
		c2.208,0,3.995,1.787,3.995,3.996v15.983C443.805,142.33,442.018,144.117,439.81,144.117z"/>
	<path style="fill:#116FFF;" d="M467.78,135.931c-2.209,0-3.996-1.787-3.996-3.996v-15.976c0-2.209,1.787-3.996,3.996-3.996
		s3.996,1.787,3.996,3.996v15.976C471.776,134.144,469.989,135.931,467.78,135.931z"/>
	<path style="fill:#116FFF;" d="M412.072,135.931c-2.209,0-3.996-1.787-3.996-3.996v-15.812c0-2.209,1.787-3.996,3.996-3.996
		c2.208,0,3.995,1.787,3.995,3.996v15.812C416.067,134.144,414.28,135.931,412.072,135.931z"/>
	<path style="fill:#116FFF;" d="M196.058,295.944H140.12c-2.208,0-3.996-1.787-3.996-3.996c0-6.61-5.377-11.987-11.987-11.987
		c-2.209,0-3.996-1.787-3.996-3.996V204.04c0-2.208,1.787-3.996,3.996-3.996c6.61,0,11.987-5.377,11.987-11.988
		c0-2.208,1.788-3.996,3.996-3.996h55.938c2.208,0,3.996,1.787,3.996,3.996s-1.787,3.996-3.996,3.996h-52.345
		c-1.592,7.82-7.765,13.986-15.581,15.586v64.729c7.816,1.6,13.989,7.766,15.581,15.586h52.345c2.208,0,3.996,1.787,3.996,3.995
		C200.053,294.157,198.266,295.944,196.058,295.944z"/>
	<path style="fill:#116FFF;" d="M196.058,327.911h-87.905c-2.209,0-3.996-1.787-3.996-3.995c0-2.209,1.787-3.996,3.996-3.996h87.905
		c2.208,0,3.996,1.787,3.996,3.996C200.053,326.124,198.266,327.911,196.058,327.911z"/>
	<path style="fill:#116FFF;" d="M196.058,343.926h-87.905c-2.209,0-3.996-1.787-3.996-3.996c0-2.208,1.787-3.995,3.996-3.995h87.905
		c2.208,0,3.996,1.787,3.996,3.995C200.053,342.139,198.266,343.926,196.058,343.926z"/>
	<path style="fill:#116FFF;" d="M204.049,343.926c-2.208,0-3.996-1.787-3.996-3.996V172.073c0-2.208,1.787-3.996,3.996-3.996
		s3.996,1.787,3.996,3.996V339.93C208.045,342.139,206.258,343.926,204.049,343.926z"/>
	<path style="fill:#116FFF;" d="M196.058,311.928h-87.905c-2.209,0-3.996-1.787-3.996-3.996c0-2.208,1.787-3.995,3.996-3.995h87.905
		c2.208,0,3.996,1.787,3.996,3.995C200.053,310.141,198.266,311.928,196.058,311.928z"/>
	<path style="fill:#116FFF;" d="M108.152,311.928c-2.209,0-3.996-1.787-3.996-3.996V172.073c0-2.208,1.787-3.996,3.996-3.996
		c2.208,0,3.996,1.787,3.996,3.996v135.859C112.148,310.141,110.361,311.928,108.152,311.928z"/>
	<path style="fill:#116FFF;" d="M196.058,176.068h-87.905c-2.209,0-3.996-1.787-3.996-3.996s1.787-3.996,3.996-3.996h87.905
		c2.208,0,3.996,1.787,3.996,3.996S198.266,176.068,196.058,176.068z"/>
	<path style="fill:#116FFF;" d="M371.88,295.944h-55.942c-2.209,0-3.996-1.787-3.996-3.996c0-2.208,1.787-3.995,3.996-3.995h52.344
		c1.601-7.82,7.766-13.986,15.586-15.586v-64.729c-7.82-1.6-13.985-7.766-15.586-15.586h-52.344c-2.209,0-3.996-1.787-3.996-3.996
		s1.787-3.996,3.996-3.996h55.942c2.208,0,3.995,1.787,3.995,3.996c0,6.61,5.378,11.988,11.987,11.988
		c2.209,0,3.996,1.787,3.996,3.996v71.925c0,2.209-1.787,3.996-3.996,3.996c-6.609,0-11.987,5.377-11.987,11.987
		C375.875,294.157,374.088,295.944,371.88,295.944z"/>
	<path style="fill:#116FFF;" d="M403.847,327.911h-87.909c-2.209,0-3.996-1.787-3.996-3.995c0-2.209,1.787-3.996,3.996-3.996h87.909
		c2.208,0,3.995,1.787,3.995,3.996C407.842,326.124,406.055,327.911,403.847,327.911z"/>
	<path style="fill:#116FFF;" d="M403.847,343.926h-87.909c-2.209,0-3.996-1.787-3.996-3.996c0-2.208,1.787-3.995,3.996-3.995h87.909
		c2.208,0,3.995,1.787,3.995,3.995C407.842,342.139,406.055,343.926,403.847,343.926z"/>
	<path style="fill:#116FFF;" d="M307.945,343.926c-2.208,0-3.995-1.787-3.995-3.996V172.073c0-2.208,1.787-3.996,3.995-3.996
		c2.209,0,3.996,1.787,3.996,3.996V339.93C311.941,342.139,310.154,343.926,307.945,343.926z"/>
	<path style="fill:#116FFF;" d="M403.847,311.928h-87.909c-2.209,0-3.996-1.787-3.996-3.996c0-2.208,1.787-3.995,3.996-3.995h87.909
		c2.208,0,3.995,1.787,3.995,3.995C407.842,310.141,406.055,311.928,403.847,311.928z"/>
	<path style="fill:#116FFF;" d="M403.847,311.928c-2.209,0-3.996-1.787-3.996-3.996V172.073c0-2.208,1.787-3.996,3.996-3.996
		c2.208,0,3.995,1.787,3.995,3.996v135.859C407.842,310.141,406.055,311.928,403.847,311.928z"/>
	<path style="fill:#116FFF;" d="M403.847,176.068h-87.909c-2.209,0-3.996-1.787-3.996-3.996s1.787-3.996,3.996-3.996h87.909
		c2.208,0,3.995,1.787,3.995,3.996S406.055,176.068,403.847,176.068z"/>
	<path style="fill:#116FFF;" d="M307.945,176.068H204.049c-2.208,0-3.996-1.787-3.996-3.996s1.787-3.996,3.996-3.996h103.896
		c2.209,0,3.996,1.787,3.996,3.996S310.154,176.068,307.945,176.068z"/>
	<path style="fill:#116FFF;" d="M291.962,311.928h-71.93c-2.208,0-3.996-1.787-3.996-3.996c0-2.208,1.788-3.995,3.996-3.995h71.93
		c2.209,0,3.996,1.787,3.996,3.995C295.958,310.141,294.171,311.928,291.962,311.928z"/>
	<path style="fill:#116FFF;" d="M307.945,343.926H204.049c-2.208,0-3.996-1.787-3.996-3.996c0-2.208,1.787-3.995,3.996-3.995
		h103.896c2.209,0,3.996,1.787,3.996,3.995C311.941,342.139,310.154,343.926,307.945,343.926z"/>
	<path style="fill:#116FFF;" d="M168.086,255.986c-8.811,0-15.98-7.173-15.98-15.984s7.169-15.984,15.98-15.984
		c8.815,0,15.983,7.173,15.983,15.984S176.901,255.986,168.086,255.986z M168.086,232.011c-4.406,0-7.988,3.582-7.988,7.992
		s3.582,7.992,7.988,7.992s7.992-3.582,7.992-7.992S172.492,232.011,168.086,232.011z"/>
	<path style="fill:#116FFF;" d="M343.908,255.986c-8.812,0-15.983-7.173-15.983-15.984s7.172-15.984,15.983-15.984
		s15.983,7.173,15.983,15.984S352.72,255.986,343.908,255.986z M343.908,232.011c-4.409,0-7.991,3.582-7.991,7.992
		s3.582,7.992,7.991,7.992s7.991-3.582,7.991-7.992S348.317,232.011,343.908,232.011z"/>
	<path style="fill:#116FFF;" d="M72.189,479.77c-30.847,0-55.942-25.099-55.942-55.941c0-30.844,25.096-55.942,55.942-55.942
		s55.942,25.099,55.942,55.942C128.132,454.671,103.036,479.77,72.189,479.77z M72.189,375.877c-26.441,0-47.95,21.51-47.95,47.951
		s21.509,47.95,47.95,47.95s47.95-21.509,47.95-47.95S98.631,375.877,72.189,375.877z"/>
	<path style="fill:#116FFF;" d="M72.189,495.753c-30.847,0-55.942-25.099-55.942-55.941c0-2.209,1.788-3.996,3.996-3.996
		c2.209,0,3.996,1.787,3.996,3.996c0,26.44,21.509,47.95,47.95,47.95s47.95-21.51,47.95-47.95c0-2.209,1.787-3.996,3.996-3.996
		s3.996,1.787,3.996,3.996C128.132,470.654,103.036,495.753,72.189,495.753z"/>
	<path style="fill:#116FFF;" d="M72.189,447.803c-2.208,0-3.996-1.787-3.996-3.996v-39.958c0-2.209,1.788-3.996,3.996-3.996
		c2.209,0,3.996,1.787,3.996,3.996v39.958C76.186,446.016,74.398,447.803,72.189,447.803z"/>
	<path style="fill:#116FFF;" d="M124.136,443.807c-2.209,0-3.996-1.787-3.996-3.995v-15.983c0-2.209,1.787-3.996,3.996-3.996
		s3.996,1.787,3.996,3.996v15.983C128.132,442.02,126.345,443.807,124.136,443.807z"/>
	<path style="fill:#116FFF;" d="M20.243,443.807c-2.208,0-3.996-1.787-3.996-3.995v-15.983c0-2.209,1.788-3.996,3.996-3.996
		c2.209,0,3.996,1.787,3.996,3.996v15.983C24.239,442.02,22.452,443.807,20.243,443.807z"/>
	<path style="fill:#116FFF;" d="M72.189,495.753c-2.208,0-3.996-1.787-3.996-3.995v-15.984c0-2.208,1.788-3.995,3.996-3.995
		c2.209,0,3.996,1.787,3.996,3.995v15.984C76.186,493.966,74.398,495.753,72.189,495.753z"/>
	<path style="fill:#116FFF;" d="M100.161,487.559c-2.208,0-3.996-1.787-3.996-3.996v-15.968c0-2.208,1.787-3.995,3.996-3.995
		s3.996,1.787,3.996,3.995v15.968C104.156,485.772,102.369,487.559,100.161,487.559z"/>
	<path style="fill:#116FFF;" d="M44.453,487.559c-2.208,0-3.996-1.787-3.996-3.996v-15.812c0-2.209,1.787-3.996,3.996-3.996
		s3.996,1.787,3.996,3.996v15.812C48.448,485.772,46.661,487.559,44.453,487.559z"/>
	<path style="fill:#116FFF;" d="M28.496,367.917c-1.498,0-2.93-0.843-3.613-2.287C-21.339,268.191-1.133,151.461,75.167,75.165
		C154.382-4.034,274.348-22.64,373.722,28.877c1.958,1.022,2.723,3.434,1.709,5.393c-1.03,1.951-3.427,2.716-5.394,1.709
		C273.785-13.931,157.554,4.09,80.817,80.815C6.901,154.731-12.676,267.817,32.102,362.212c0.948,1.99,0.098,4.37-1.896,5.322
		C29.651,367.792,29.07,367.917,28.496,367.917z"/>
	<path style="fill:#116FFF;" d="M371.88,36.424c-1.296,0-2.576-0.632-3.341-1.803l-7.991-12.183c-1.21-1.85-0.695-4.324,1.146-5.533
		c1.842-1.21,4.316-0.71,5.533,1.147l7.992,12.183c1.209,1.85,0.694,4.323-1.147,5.533C373.394,36.213,372.636,36.424,371.88,36.424
		z"/>
	<path style="fill:#116FFF;" d="M355.896,40.225c-1.811,0-3.449-1.233-3.887-3.075c-0.515-2.146,0.812-4.3,2.966-4.808l15.983-3.801
		c2.107-0.554,4.293,0.812,4.808,2.966c0.516,2.146-0.812,4.3-2.966,4.807l-15.983,3.801
		C356.513,40.193,356.2,40.225,355.896,40.225z"/>
	<path style="fill:#116FFF;" d="M256.171,512.002c-40.033,0-80.421-9.459-117.882-28.876c-1.959-1.022-2.724-3.435-1.709-5.394
		c1.011-1.951,3.426-2.731,5.385-1.709c96.275,49.925,212.495,31.881,289.228-44.836c73.908-73.916,93.482-186.994,48.708-281.396
		c-0.944-1.99-0.094-4.37,1.904-5.322c1.951-0.929,4.37-0.102,5.322,1.904c46.21,97.438,26.005,214.169-50.284,290.465
		C387.496,486.178,322.329,512.002,256.171,512.002z"/>
	<path style="fill:#116FFF;" d="M148.115,495.753c-1.303,0-2.58-0.632-3.344-1.803l-7.984-12.183
		c-1.209-1.85-0.695-4.323,1.151-5.533c1.85-1.218,4.328-0.694,5.53,1.147l7.984,12.183c1.21,1.85,0.694,4.323-1.151,5.533
		C149.625,495.543,148.864,495.753,148.115,495.753z"/>
	<path style="fill:#116FFF;" d="M140.123,483.57c-1.807,0-3.445-1.232-3.883-3.066c-0.511-2.154,0.815-4.309,2.962-4.816l15.976-3.8
		c2.162-0.508,4.3,0.812,4.812,2.958c0.511,2.153-0.815,4.308-2.962,4.814l-15.976,3.801
		C140.74,483.539,140.432,483.57,140.123,483.57z"/>
</g>
<g>
</g>
<g>
</g>
<g>
</g>
<g>
</g>
<g>
</g>
<g>
</g>
<g>
</g>
<g>
</g>
<g>
</g>
<g>
</g>
<g>
</g>
<g>
</g>
<g>
</g>
<g>
</g>
<g>
</g>
</svg>
