<?xml version="1.0" encoding="iso-8859-1"?>
<!-- Generator: Adobe Illustrator 19.0.0, SVG Export Plug-In . SVG Version: 6.00 Build 0)  -->
<svg version="1.1" id="Capa_1" xmlns="http://www.w3.org/2000/svg" xmlns:xlink="http://www.w3.org/1999/xlink" x="0px" y="0px"
	 viewBox="0 0 511.653 511.653" style="enable-background:new 0 0 511.653 511.653;" xml:space="preserve">
<path style="fill:#D7E9FF;" d="M483.672,195.868H27.98c-13.194,0-23.983,10.793-23.983,23.984v263.82
	c0,13.194,10.79,23.983,23.983,23.983h455.691c13.193,0,23.982-10.789,23.982-23.983v-263.82
	C507.654,206.661,496.865,195.868,483.672,195.868z M299.797,227.846h-87.941c-4.419,0-7.995-3.579-7.995-7.994
	s3.576-7.995,7.995-7.995h87.941c4.418,0,7.994,3.58,7.994,7.995S304.215,227.846,299.797,227.846z"/>
<path style="fill:#FFFFFF;" d="M19.986,483.672v-263.82c0-13.19,10.789-23.984,23.983-23.984H27.98
	c-13.194,0-23.983,10.793-23.983,23.984v263.82c0,13.194,10.79,23.983,23.983,23.983h15.989
	C30.775,507.655,19.986,496.866,19.986,483.672z"/>
<path style="fill:#94C1FF;" d="M491.665,219.851v263.82c0,13.194-10.789,23.983-23.984,23.983h15.99
	c13.193,0,23.982-10.789,23.982-23.983v-263.82c0-13.194-10.789-23.984-23.982-23.984h-15.99
	C480.876,195.868,491.665,206.657,491.665,219.851z"/>
<rect x="51.965" y="275.817" style="fill:#5C9EFF;" width="127.91" height="127.91"/>
<path style="fill:#94C1FF;" d="M154.738,380.882c-5.699-2.123-22.836-7.611-22.836-10.664v-6.465H99.923v6.465
	c0,3.053-17.145,8.541-22.844,10.664c-6.09,2.288-9.135,4.568-9.135,10.657c0,6.098,0,12.188,0,12.188h95.935c0,0,0-6.09,0-12.188
	C163.88,385.45,160.827,383.17,154.738,380.882z"/>
<path style="fill:#D7E9FF;" d="M93.069,380.882c5.699-2.123,22.844-7.611,22.844-10.664v-6.465H99.924v6.465
	c0,3.053-17.145,8.541-22.844,10.664c-6.09,2.288-9.135,4.568-9.135,10.657c0,6.098,0,12.188,0,12.188h15.989c0,0,0-6.09,0-12.188
	C83.934,385.45,86.979,383.17,93.069,380.882z"/>
<path style="fill:#5C9EFF;" d="M138.757,380.882c-5.699-2.123-22.844-7.611-22.844-10.664v-6.465h15.989v6.465
	c0,3.053,17.145,8.541,22.844,10.664c6.089,2.288,9.134,4.568,9.134,10.657c0,6.098,0,12.188,0,12.188h-15.989c0,0,0-6.09,0-12.188
	C147.891,385.45,144.846,383.17,138.757,380.882z"/>
<path style="fill:#94C1FF;" d="M483.672,439.702c0,24.288-19.691,43.97-43.971,43.97c-24.289,0-43.971-19.682-43.971-43.97
	c0-24.281,19.682-43.971,43.971-43.971C463.979,395.731,483.672,415.421,483.672,439.702z"/>
<g>
	<polygon style="fill:#D7E9FF;" points="275.811,3.998 235.839,43.971 235.839,122.586 275.811,122.586 	"/>
	<rect x="275.815" y="3.998" style="fill:#D7E9FF;" width="233.84" height="39.973"/>
</g>
<rect x="227.846" y="123.917" style="fill:#5C9EFF;" width="55.961" height="87.94"/>
<rect x="227.846" y="123.917" style="fill:#94C1FF;" width="7.994" height="87.94"/>
<rect x="275.815" y="123.917" style="fill:#2287FF;" width="7.994" height="87.94"/>
<g>
	<rect x="275.815" y="3.998" style="fill:#94C1FF;" width="7.994" height="39.973"/>
	<rect x="235.835" y="115.927" style="fill:#94C1FF;" width="39.965" height="7.991"/>
	<rect x="219.846" y="195.867" style="fill:#94C1FF;" width="7.995" height="15.989"/>
	<rect x="283.806" y="195.867" style="fill:#94C1FF;" width="7.994" height="15.989"/>
</g>
<path style="fill:#FFFFFF;" d="M435.703,419.716c0,4.395-3.598,7.994-7.994,7.994c-4.395,0-7.994-3.6-7.994-7.994
	c0-4.396,3.6-7.995,7.994-7.995C432.104,411.721,435.703,415.319,435.703,419.716z"/>
<g>
	<polygon style="fill:#D7E9FF;" points="477.846,461.858 450.81,482.251 417.854,477.535 455.689,439.702 	"/>
	<polygon style="fill:#D7E9FF;" points="435.703,459.688 417.854,477.535 401.639,461.772 419.715,443.699 	"/>
	<path style="fill:#D7E9FF;" d="M143.893,337.428c0,17.87-17.339,34.32-27.988,34.32c-10.642,0-27.973-16.45-27.973-34.32
		c0-17.863,12.523-29.636,27.973-29.636S143.893,319.564,143.893,337.428z"/>
</g>
<path style="fill:#94C1FF;" d="M115.905,307.792c-1.366,0-2.678,0.203-3.997,0.382c13.545,1.866,23.991,12.976,23.991,29.254
	c0,15.771-13.499,30.401-23.991,33.626c1.397,0.429,2.748,0.694,3.997,0.694c10.649,0,27.988-16.45,27.988-34.32
	C143.893,319.564,131.355,307.792,115.905,307.792z"/>
<path style="fill:#FFFFFF;" d="M95.926,337.428c0-16.278,10.438-27.388,23.976-29.254c-1.319-0.179-2.631-0.382-3.997-0.382
	c-15.45,0-27.973,11.772-27.973,29.636c0,17.87,17.332,34.32,27.973,34.32c1.249,0,2.607-0.266,3.997-0.694
	C109.417,367.829,95.926,353.198,95.926,337.428z"/>
<g>
	<path style="fill:#116FFF;" d="M52.205,471.68c-2.209,0-4.036-1.788-4.036-3.997s1.749-3.997,3.95-3.997h0.086
		c2.202,0,3.998,1.788,3.998,3.997S54.408,471.68,52.205,471.68z"/>
	<path style="fill:#116FFF;" d="M68.195,471.68c-2.209,0-4.036-1.788-4.036-3.997s1.749-3.997,3.95-3.997h0.086
		c2.202,0,3.997,1.788,3.997,3.997S70.396,471.68,68.195,471.68z"/>
	<path style="fill:#116FFF;" d="M84.184,471.68c-2.209,0-4.036-1.788-4.036-3.997s1.749-3.997,3.95-3.997h0.086
		c2.202,0,3.997,1.788,3.997,3.997S86.386,471.68,84.184,471.68z"/>
	<path style="fill:#116FFF;" d="M100.173,471.68c-2.209,0-4.036-1.788-4.036-3.997s1.749-3.997,3.95-3.997h0.086
		c2.201,0,3.997,1.788,3.997,3.997S102.374,471.68,100.173,471.68z"/>
	<path style="fill:#116FFF;" d="M116.162,471.68c-2.21,0-4.037-1.788-4.037-3.997s1.749-3.997,3.951-3.997h0.086
		c2.201,0,3.997,1.788,3.997,3.997S118.364,471.68,116.162,471.68z"/>
	<path style="fill:#116FFF;" d="M132.152,471.68c-2.209,0-4.037-1.788-4.037-3.997s1.749-3.997,3.951-3.997h0.086
		c2.202,0,3.998,1.788,3.998,3.997S134.354,471.68,132.152,471.68z"/>
	<path style="fill:#116FFF;" d="M148.141,471.68c-2.209,0-4.037-1.788-4.037-3.997s1.749-3.997,3.951-3.997h0.086
		c2.202,0,3.997,1.788,3.997,3.997S150.342,471.68,148.141,471.68z"/>
	<path style="fill:#116FFF;" d="M164.13,471.68c-2.209,0-4.036-1.788-4.036-3.997s1.749-3.997,3.95-3.997h0.086
		c2.202,0,3.998,1.788,3.998,3.997S166.331,471.68,164.13,471.68z"/>
	<path style="fill:#116FFF;" d="M180.118,471.68c-2.209,0-4.036-1.788-4.036-3.997s1.749-3.997,3.95-3.997h0.086
		c2.202,0,3.997,1.788,3.997,3.997S182.32,471.68,180.118,471.68z"/>
	<path style="fill:#116FFF;" d="M292.043,23.985c-2.209,0-4.035-1.788-4.035-3.998c0-2.209,1.748-3.997,3.949-3.997h0.086
		c2.203,0,3.998,1.788,3.998,3.997C296.04,22.197,294.246,23.985,292.043,23.985z"/>
	<path style="fill:#116FFF;" d="M324.021,23.985c-2.209,0-4.035-1.788-4.035-3.998c0-2.209,1.748-3.997,3.949-3.997h0.086
		c2.201,0,3.998,1.788,3.998,3.997C328.018,22.197,326.221,23.985,324.021,23.985z"/>
	<path style="fill:#116FFF;" d="M308.033,31.979c-2.209,0-4.037-1.788-4.037-3.997c0-2.21,1.75-3.998,3.951-3.998h0.086
		c2.201,0,3.996,1.788,3.996,3.998C312.029,30.191,310.233,31.979,308.033,31.979z"/>
	<path style="fill:#116FFF;" d="M339.996,31.979c-2.211,0-4.037-1.788-4.037-3.997c0-2.21,1.748-3.998,3.951-3.998h0.086
		c2.201,0,3.996,1.788,3.996,3.998C343.991,30.191,342.197,31.979,339.996,31.979z"/>
	<path style="fill:#116FFF;" d="M355.983,23.985c-2.209,0-4.037-1.788-4.037-3.998c0-2.209,1.75-3.997,3.951-3.997h0.086
		c2.201,0,3.998,1.788,3.998,3.997C359.982,22.197,358.185,23.985,355.983,23.985z"/>
	<path style="fill:#116FFF;" d="M260.064,111.917c-2.209,0-4.036-1.788-4.036-3.997s1.749-3.997,3.952-3.997h0.084
		c2.203,0,3.998,1.788,3.998,3.997S262.267,111.917,260.064,111.917z"/>
	<path style="fill:#116FFF;" d="M260.064,79.947c-2.209,0-4.036-1.788-4.036-3.998c0-2.209,1.749-3.997,3.952-3.997h0.084
		c2.203,0,3.998,1.788,3.998,3.997C264.061,78.159,262.267,79.947,260.064,79.947z"/>
	<path style="fill:#116FFF;" d="M252.07,95.935c-2.209,0-4.036-1.788-4.036-3.997s1.749-3.997,3.95-3.997h0.086
		c2.202,0,3.997,1.788,3.997,3.997S254.271,95.935,252.07,95.935z"/>
	<path style="fill:#116FFF;" d="M252.07,63.965c-2.209,0-4.036-1.788-4.036-3.997s1.749-3.998,3.95-3.998h0.086
		c2.202,0,3.997,1.788,3.997,3.998S254.271,63.965,252.07,63.965z"/>
	<path style="fill:#116FFF;" d="M260.064,47.976c-2.209,0-4.036-1.788-4.036-3.998s1.749-3.998,3.952-3.998h0.084
		c2.203,0,3.998,1.788,3.998,3.998S262.267,47.976,260.064,47.976z"/>
	<path style="fill:#116FFF;" d="M371.971,31.979c-2.209,0-4.035-1.788-4.035-3.997c0-2.21,1.748-3.998,3.951-3.998h0.084
		c2.203,0,3.998,1.788,3.998,3.998C375.97,30.191,374.176,31.979,371.971,31.979z"/>
	<path style="fill:#116FFF;" d="M387.962,23.985c-2.209,0-4.037-1.788-4.037-3.998c0-2.209,1.75-3.997,3.951-3.997h0.086
		c2.201,0,3.998,1.788,3.998,3.997C391.961,22.197,390.164,23.985,387.962,23.985z"/>
	<path style="fill:#116FFF;" d="M403.935,31.979c-2.209,0-4.035-1.788-4.035-3.997c0-2.21,1.748-3.998,3.949-3.998h0.086
		c2.203,0,3.998,1.788,3.998,3.998C407.932,30.191,406.138,31.979,403.935,31.979z"/>
	<path style="fill:#116FFF;" d="M419.926,23.985c-2.209,0-4.037-1.788-4.037-3.998c0-2.209,1.75-3.997,3.951-3.997h0.086
		c2.201,0,3.996,1.788,3.996,3.997C423.922,22.197,422.126,23.985,419.926,23.985z"/>
	<path style="fill:#116FFF;" d="M435.914,31.979c-2.209,0-4.035-1.788-4.035-3.997c0-2.21,1.748-3.998,3.949-3.998h0.086
		c2.201,0,3.998,1.788,3.998,3.998C439.911,30.191,438.115,31.979,435.914,31.979z"/>
	<path style="fill:#116FFF;" d="M451.904,23.985c-2.211,0-4.037-1.788-4.037-3.998c0-2.209,1.748-3.997,3.951-3.997h0.086
		c2.201,0,3.996,1.788,3.996,3.997C455.9,22.197,454.104,23.985,451.904,23.985z"/>
	<path style="fill:#116FFF;" d="M467.876,31.979c-2.209,0-4.037-1.788-4.037-3.997c0-2.21,1.75-3.998,3.951-3.998h0.086
		c2.201,0,3.998,1.788,3.998,3.998C471.875,30.191,470.078,31.979,467.876,31.979z"/>
	<path style="fill:#116FFF;" d="M483.865,23.985c-2.209,0-4.035-1.788-4.035-3.998c0-2.209,1.748-3.997,3.949-3.997h0.086
		c2.203,0,3.998,1.788,3.998,3.997C487.862,22.197,486.068,23.985,483.865,23.985z"/>
	<path style="fill:#116FFF;" d="M499.854,31.979c-2.209,0-4.037-1.788-4.037-3.997c0-2.21,1.75-3.998,3.951-3.998h0.086
		c2.201,0,3.998,1.788,3.998,3.998C503.853,30.191,502.056,31.979,499.854,31.979z"/>
	<path style="fill:#116FFF;" d="M483.672,511.653H27.98C12.553,511.653,0,499.098,0,483.672v-263.82
		c0-15.427,12.554-27.981,27.98-27.981c2.21,0,3.998,1.788,3.998,3.997s-1.788,3.998-3.998,3.998
		c-11.023,0-19.986,8.966-19.986,19.986v263.82c0,11.023,8.963,19.986,19.986,19.986h455.691c11.023,0,19.986-8.963,19.986-19.986
		v-263.82c0-11.02-8.963-19.986-19.986-19.986c-2.211,0-3.998-1.788-3.998-3.998s1.787-3.997,3.998-3.997
		c15.426,0,27.98,12.554,27.98,27.981v263.82C511.651,499.098,499.096,511.653,483.672,511.653z"/>
	<path style="fill:#116FFF;" d="M299.797,231.843h-87.941c-6.613,0-11.992-5.379-11.992-11.992s5.379-11.992,11.992-11.992
		c2.209,0,3.997,1.788,3.997,3.998s-1.788,3.998-3.997,3.998c-2.202,0-3.997,1.792-3.997,3.997c0,2.205,1.795,3.997,3.997,3.997
		h87.941c2.201,0,3.996-1.792,3.996-3.997c0-2.206-1.795-3.997-3.996-3.997c-2.211,0-3.998-1.788-3.998-3.998
		s1.787-3.998,3.998-3.998c6.611,0,11.99,5.379,11.99,11.992C311.786,226.464,306.408,231.843,299.797,231.843z"/>
	<path style="fill:#116FFF;" d="M283.806,215.854h-55.961c-2.21,0-3.998-1.788-3.998-3.998v-87.94c0-2.21,1.788-3.998,3.998-3.998
		h55.961c2.209,0,3.998,1.788,3.998,3.998v87.94C287.805,214.066,286.014,215.854,283.806,215.854z M231.842,207.859h47.968v-79.945
		h-47.968V207.859z"/>
	<path style="fill:#116FFF;" d="M227.844,219.851c-2.21,0-3.998-1.788-3.998-3.997v-3.998c0-2.209,1.788-3.998,3.998-3.998
		c2.209,0,3.997,1.788,3.997,3.998v3.998C231.842,218.063,230.053,219.851,227.844,219.851z"/>
	<path style="fill:#116FFF;" d="M243.833,219.851c-2.21,0-3.998-1.788-3.998-3.997v-3.998c0-2.209,1.788-3.998,3.998-3.998
		c2.209,0,3.997,1.788,3.997,3.998v3.998C247.831,218.063,246.042,219.851,243.833,219.851z"/>
	<path style="fill:#116FFF;" d="M267.818,219.851c-2.209,0-3.998-1.788-3.998-3.997v-3.998c0-2.209,1.789-3.998,3.998-3.998
		s3.996,1.788,3.996,3.998v3.998C271.814,218.063,270.026,219.851,267.818,219.851z"/>
	<path style="fill:#116FFF;" d="M283.806,219.851c-2.209,0-3.996-1.788-3.996-3.997v-3.998c0-2.209,1.787-3.998,3.996-3.998
		s3.998,1.788,3.998,3.998v3.998C287.805,218.063,286.014,219.851,283.806,219.851z"/>
	<path style="fill:#116FFF;" d="M211.855,199.865H27.98c-2.209,0-3.997-1.788-3.997-3.998s1.788-3.997,3.997-3.997h183.875
		c2.209,0,3.997,1.788,3.997,3.997S214.064,199.865,211.855,199.865z"/>
	<path style="fill:#116FFF;" d="M483.672,199.865H299.797c-2.211,0-3.998-1.788-3.998-3.998s1.787-3.997,3.998-3.997h183.875
		c2.209,0,3.996,1.788,3.996,3.997S485.88,199.865,483.672,199.865z"/>
	<path style="fill:#116FFF;" d="M283.806,159.892h-55.961c-2.21,0-3.998-1.788-3.998-3.998s1.788-3.998,3.998-3.998h55.961
		c2.209,0,3.998,1.788,3.998,3.998S286.014,159.892,283.806,159.892z"/>
	<path style="fill:#116FFF;" d="M267.818,143.903h-23.984c-2.21,0-3.998-1.788-3.998-3.997c0-2.21,1.788-3.998,3.998-3.998h23.984
		c2.209,0,3.996,1.788,3.996,3.998C271.814,142.115,270.026,143.903,267.818,143.903z"/>
	<path style="fill:#116FFF;" d="M235.839,111.925c-2.209,0-3.997-1.788-3.997-3.997V43.971c0-2.209,1.788-3.998,3.997-3.998
		c2.21,0,3.998,1.788,3.998,3.998v63.957C239.837,110.137,238.049,111.925,235.839,111.925z"/>
	<path style="fill:#116FFF;" d="M275.811,111.925c-2.209,0-3.998-1.788-3.998-3.997V43.971c0-2.209,1.789-3.998,3.998-3.998
		s3.998,1.788,3.998,3.998v63.957C279.81,110.137,278.021,111.925,275.811,111.925z"/>
	<path style="fill:#116FFF;" d="M507.654,7.995H291.801c-2.209,0-3.996-1.788-3.996-3.997S289.591,0,291.801,0h215.854
		c2.209,0,3.998,1.788,3.998,3.998S509.862,7.995,507.654,7.995z"/>
	<path style="fill:#116FFF;" d="M507.654,47.969H291.801c-2.209,0-3.996-1.788-3.996-3.998s1.787-3.998,3.996-3.998h215.854
		c2.209,0,3.998,1.788,3.998,3.998S509.862,47.969,507.654,47.969z"/>
	<path style="fill:#116FFF;" d="M275.811,47.969c-2.209,0-3.998-1.788-3.998-3.998V3.998c0-2.209,1.789-3.998,3.998-3.998
		s3.998,1.788,3.998,3.998v39.973C279.81,46.181,278.021,47.969,275.811,47.969z"/>
	<path style="fill:#116FFF;" d="M235.839,47.969c-1.022,0-2.045-0.391-2.826-1.171c-1.562-1.561-1.562-4.091,0-5.652l39.973-39.974
		c1.561-1.561,4.092-1.561,5.652,0c1.561,1.562,1.561,4.091,0,5.653l-39.973,39.972C237.885,47.578,236.861,47.969,235.839,47.969z"
		/>
	<path style="fill:#116FFF;" d="M179.868,407.723H51.964c-2.209,0-3.998-1.788-3.998-3.997V275.813c0-2.209,1.788-3.997,3.998-3.997
		H179.87c2.21,0,3.998,1.788,3.998,3.997v127.913C183.867,405.935,182.079,407.723,179.868,407.723z M55.961,399.729h119.91V279.81
		H55.961V399.729z"/>
	<path style="fill:#116FFF;" d="M451.693,295.8H219.85c-2.209,0-3.998-1.788-3.998-3.997c0-2.21,1.788-3.997,3.998-3.997h231.843
		c2.209,0,3.996,1.787,3.996,3.997C455.689,294.012,453.901,295.8,451.693,295.8z"/>
	<path style="fill:#116FFF;" d="M451.693,327.778H219.85c-2.209,0-3.998-1.788-3.998-3.998c0-2.209,1.788-3.997,3.998-3.997h231.843
		c2.209,0,3.996,1.788,3.996,3.997C455.689,325.99,453.901,327.778,451.693,327.778z"/>
	<path style="fill:#116FFF;" d="M451.693,359.756H219.85c-2.209,0-3.998-1.788-3.998-3.997s1.788-3.997,3.998-3.997h231.843
		c2.209,0,3.996,1.788,3.996,3.997S453.901,359.756,451.693,359.756z"/>
	<path style="fill:#116FFF;" d="M347.763,391.734H219.85c-2.209,0-3.998-1.788-3.998-3.997s1.788-3.998,3.998-3.998h127.913
		c2.209,0,3.998,1.789,3.998,3.998S349.971,391.734,347.763,391.734z"/>
	<path style="fill:#116FFF;" d="M347.763,471.68H219.85c-2.209,0-3.998-1.788-3.998-3.997s1.788-3.997,3.998-3.997h127.913
		c2.209,0,3.998,1.788,3.998,3.997S349.971,471.68,347.763,471.68z"/>
	<path style="fill:#116FFF;" d="M179.876,439.702H51.964c-2.209,0-3.998-1.788-3.998-3.998c0-2.209,1.788-3.997,3.998-3.997h127.913
		c2.21,0,3.998,1.788,3.998,3.997C183.874,437.914,182.087,439.702,179.876,439.702z"/>
	<path style="fill:#116FFF;" d="M439.701,487.669c-26.451,0-47.967-21.517-47.967-47.967c0-26.451,21.516-47.968,47.967-47.968
		s47.967,21.517,47.967,47.968C487.668,466.152,466.151,487.669,439.701,487.669z M439.701,399.729
		c-22.039,0-39.973,17.933-39.973,39.973c0,22.039,17.934,39.973,39.973,39.973s39.973-17.934,39.973-39.973
		C479.673,417.662,461.74,399.729,439.701,399.729z"/>
	<path style="fill:#116FFF;" d="M417.854,481.532c-1.021,0-2.045-0.39-2.826-1.171c-1.561-1.562-1.561-4.091,0-5.652l37.834-37.833
		c1.562-1.562,4.092-1.562,5.652,0c1.562,1.561,1.562,4.091,0,5.652l-37.834,37.833
		C419.901,481.142,418.879,481.532,417.854,481.532z"/>
	<path style="fill:#116FFF;" d="M477.754,465.763c-1.023,0-2.047-0.391-2.826-1.172l-22.064-22.062
		c-1.561-1.562-1.561-4.092,0-5.652c1.562-1.562,4.092-1.562,5.652,0l22.064,22.062c1.561,1.562,1.561,4.091,0,5.652
		C479.798,465.372,478.775,465.763,477.754,465.763z"/>
	<path style="fill:#116FFF;" d="M401.639,465.77c-1.023,0-2.045-0.391-2.826-1.172c-1.561-1.562-1.561-4.091,0-5.652l18.074-18.073
		c1.561-1.562,4.09-1.562,5.652,0c1.561,1.562,1.561,4.091,0,5.652l-18.074,18.073C403.685,465.38,402.664,465.77,401.639,465.77z"
		/>
	<path style="fill:#116FFF;" d="M435.703,463.685c-1.021,0-2.045-0.391-2.826-1.171l-15.988-15.989
		c-1.562-1.562-1.562-4.091,0-5.652c1.561-1.562,4.09-1.562,5.652,0l15.988,15.989c1.562,1.561,1.562,4.091,0,5.652
		C437.75,463.295,436.725,463.685,435.703,463.685z"/>
	<path style="fill:#116FFF;" d="M427.708,431.707c-6.613,0-11.992-5.379-11.992-11.991c0-6.613,5.379-11.992,11.992-11.992
		s11.992,5.379,11.992,11.992C439.701,426.328,434.322,431.707,427.708,431.707z M427.708,415.718c-2.201,0-3.998,1.796-3.998,3.998
		c0,2.201,1.797,3.997,3.998,3.997s3.998-1.796,3.998-3.997C431.707,417.514,429.91,415.718,427.708,415.718z"/>
	<path style="fill:#116FFF;" d="M163.887,407.723H67.952c-2.209,0-3.997-1.788-3.997-3.997v-12.188
		c0-9.22,6.051-12.265,11.727-14.396l3.529-1.265c4.052-1.437,14.521-5.137,16.996-7.112c0.578-1.491,2.03-2.545,3.724-2.545
		c2.209,0,3.997,1.788,3.997,3.997c0,4.614-5.504,7.339-22.055,13.194l-3.388,1.218c-5.676,2.131-6.535,3.459-6.535,6.909v8.19
		h87.94v-8.19c0-3.45-0.858-4.778-6.55-6.917l-3.373-1.21c-16.551-5.848-22.055-8.58-22.055-13.194c0-2.209,1.788-3.997,3.998-3.997
		c1.694,0,3.146,1.054,3.724,2.545c2.467,1.976,12.944,5.676,16.996,7.112l3.514,1.257c5.684,2.14,11.742,5.185,11.742,14.404
		v12.188C167.885,405.935,166.098,407.723,163.887,407.723z"/>
	<path style="fill:#116FFF;" d="M115.912,375.745c-13.663,0-31.971-18.947-31.971-38.317c0-19.175,13.741-33.634,31.971-33.634
		c18.237,0,31.986,14.459,31.986,33.634C147.898,356.798,129.583,375.745,115.912,375.745z M115.912,311.789
		c-13.889,0-23.976,10.781-23.976,25.639c0,16.286,16.083,30.323,23.976,30.323c7.9,0,23.991-14.037,23.991-30.323
		C139.904,322.57,129.818,311.789,115.912,311.789z"/>
	<path style="fill:#116FFF;" d="M99.931,374.215c-2.209,0-3.997-1.788-3.997-3.997v-6.066c0-2.209,1.788-3.997,3.997-3.997
		s3.997,1.788,3.997,3.997v6.066C103.928,372.427,102.14,374.215,99.931,374.215z"/>
	<path style="fill:#116FFF;" d="M131.91,374.215c-2.21,0-3.998-1.788-3.998-3.997v-6.839c0-2.21,1.788-3.997,3.998-3.997
		c2.209,0,3.997,1.787,3.997,3.997v6.839C135.908,372.427,134.118,374.215,131.91,374.215z"/>
</g>
<g>
</g>
<g>
</g>
<g>
</g>
<g>
</g>
<g>
</g>
<g>
</g>
<g>
</g>
<g>
</g>
<g>
</g>
<g>
</g>
<g>
</g>
<g>
</g>
<g>
</g>
<g>
</g>
<g>
</g>
</svg>
