<?xml version="1.0" encoding="iso-8859-1"?>
<!-- Generator: Adobe Illustrator 19.0.0, SVG Export Plug-In . SVG Version: 6.00 Build 0)  -->
<svg version="1.1" id="Capa_1" xmlns="http://www.w3.org/2000/svg" xmlns:xlink="http://www.w3.org/1999/xlink" x="0px" y="0px"
	 viewBox="0 0 511.652 511.652" style="enable-background:new 0 0 511.652 511.652;" xml:space="preserve">
<rect x="19.986" y="75.946" style="fill:#D7E9FF;" width="471.68" height="303.79"/>
<rect x="3.997" y="43.976" style="fill:#5C9EFF;" width="503.66" height="31.978"/>
<g>
	<rect x="247.826" y="27.986" style="fill:#94C1FF;" width="15.989" height="15.989"/>
	<rect x="247.826" y="379.746" style="fill:#94C1FF;" width="15.989" height="103.93"/>
</g>
<g>
	<polygon style="fill:#D7E9FF;" points="255.826,429.707 147.899,483.671 115.921,483.671 255.826,413.719 	"/>
	<polygon style="fill:#D7E9FF;" points="255.826,429.707 363.752,483.671 395.73,483.671 255.826,413.719 	"/>
</g>
<rect x="3.997" y="43.976" style="fill:#94C1FF;" width="15.989" height="31.978"/>
<rect x="19.986" y="75.946" style="fill:#FFFFFF;" width="15.989" height="303.79"/>
<rect x="475.676" y="75.946" style="fill:#94C1FF;" width="15.99" height="303.79"/>
<rect x="491.666" y="43.976" style="fill:#2287FF;" width="15.988" height="31.978"/>
<rect x="247.826" y="379.746" style="fill:#5C9EFF;" width="15.989" height="15.988"/>
<path style="fill:#94C1FF;" d="M227.962,311.913c0,11.102-9.002,20.111-20.111,20.111c-11.102,0-20.111-9.01-20.111-20.111
	c0-11.103,9.009-20.111,20.111-20.111C218.96,291.802,227.962,300.81,227.962,311.913z"/>
<path style="fill:#FFFFFF;" d="M116.046,287.805c0,11.102-9.01,20.111-20.111,20.111c-11.11,0-20.111-9.01-20.111-20.111
	c0-11.103,9.001-20.111,20.111-20.111C107.036,267.693,116.046,276.702,116.046,287.805z"/>
<path style="fill:#D7E9FF;" d="M195.742,311.788c0-9.735,6.925-17.855,16.114-19.706c-1.296-0.265-2.631-0.405-3.997-0.405
	c-11.11,0-20.111,9.009-20.111,20.111s9.001,20.111,20.111,20.111c1.366,0,2.701-0.141,3.997-0.406
	C202.667,329.642,195.742,321.523,195.742,311.788z"/>
<g style="opacity:0.2;">
	<path d="M219.975,311.788c0,9.735-6.925,17.854-16.114,19.705c1.289,0.266,2.624,0.406,3.998,0.406
		c11.102,0,20.111-9.01,20.111-20.111c0-11.103-9.01-20.111-20.111-20.111c-1.374,0-2.709,0.141-3.998,0.405
		C213.05,293.932,219.975,302.053,219.975,311.788z"/>
</g>
<path style="fill:#FFFFFF;" d="M395.73,187.872c0,8.83-7.166,15.989-15.988,15.989s-15.99-7.159-15.99-15.989
	s7.168-15.989,15.99-15.989S395.73,179.042,395.73,187.872z"/>
<path style="fill:#94C1FF;" d="M419.84,319.782c0,11.103-9.01,20.111-20.111,20.111c-11.109,0-20.111-9.009-20.111-20.111
	s9.002-20.111,20.111-20.111C410.83,299.671,419.84,308.68,419.84,319.782z"/>
<path style="fill:#D7E9FF;" d="M387.611,319.782c0-9.735,6.926-17.854,16.113-19.705c-1.295-0.266-2.623-0.406-3.996-0.406
	c-11.102,0-20.111,9.01-20.111,20.111c0,11.103,9.01,20.111,20.111,20.111c1.373,0,2.701-0.141,3.996-0.405
	C394.537,337.638,387.611,329.517,387.611,319.782z"/>
<path style="fill:#5C9EFF;" d="M411.846,319.782c0,9.735-6.926,17.855-16.115,19.706c1.297,0.265,2.623,0.405,3.998,0.405
	c11.102,0,20.111-9.009,20.111-20.111s-9.01-20.111-20.111-20.111c-1.375,0-2.701,0.141-3.998,0.406
	C404.92,301.928,411.846,310.047,411.846,319.782z"/>
<path style="fill:#94C1FF;" d="M251.953,135.908c0,11.105-9.01,20.111-20.111,20.111c-11.109,0-20.111-9.006-20.111-20.111
	c0-11.106,9.002-20.111,20.111-20.111C242.944,115.797,251.953,124.802,251.953,135.908z"/>
<path style="fill:#D7E9FF;" d="M219.725,135.908c0-9.736,6.925-17.855,16.114-19.71c-1.296-0.262-2.631-0.401-3.997-0.401
	c-11.109,0-20.111,9.005-20.111,20.111c0,11.105,9.002,20.111,20.111,20.111c1.366,0,2.701-0.141,3.997-0.402
	C226.651,153.763,219.725,145.643,219.725,135.908z"/>
<g>
	<path style="fill:#5C9EFF;" d="M243.959,135.908c0,9.735-6.925,17.854-16.114,19.709c1.288,0.262,2.623,0.402,3.997,0.402
		c11.102,0,20.111-9.006,20.111-20.111c0-11.106-9.01-20.111-20.111-20.111c-1.374,0-2.709,0.14-3.997,0.401
		C237.034,118.053,243.959,126.172,243.959,135.908z"/>
	<rect x="379.616" y="115.796" style="fill:#5C9EFF;" width="40.1" height="16.11"/>
	<polygon style="fill:#5C9EFF;" points="451.756,147.962 403.662,147.962 411.658,131.847 451.756,131.847 443.697,139.905 	"/>
</g>
<g>
	<path style="fill:#116FFF;" d="M96.169,291.802c-2.202,0-4.037-1.788-4.037-3.997c0-2.21,1.749-3.998,3.958-3.998h0.078
		c2.209,0,3.997,1.788,3.997,3.998C100.166,290.014,98.378,291.802,96.169,291.802z"/>
	<path style="fill:#116FFF;" d="M491.666,383.738H19.987c-2.21,0-3.998-1.787-3.998-3.996V75.948c0-2.209,1.788-3.997,3.998-3.997
		h471.679c2.209,0,3.996,1.788,3.996,3.997v303.794C495.662,381.951,493.875,383.738,491.666,383.738z M23.984,375.744h463.684
		V79.946H23.984V375.744z"/>
	<path style="fill:#116FFF;" d="M379.742,207.858c-11.023,0-19.986-8.966-19.986-19.986c0-3.505,0.92-6.964,2.67-9.997
		c1.1-1.916,3.545-2.572,5.465-1.468c1.912,1.102,2.568,3.545,1.467,5.458c-1.053,1.822-1.607,3.899-1.607,6.007
		c0,6.613,5.379,11.992,11.992,11.992c6.611,0,11.992-5.379,11.992-11.992c0-2.084-0.555-4.153-1.602-5.98
		c-1.092-1.916-0.43-4.355,1.492-5.453c1.889-1.101,4.348-0.44,5.457,1.487c1.732,3.033,2.646,6.473,2.646,9.946
		C399.728,198.892,390.765,207.858,379.742,207.858z"/>
	<path style="fill:#116FFF;" d="M379.742,191.87c-2.209,0-3.998-1.788-3.998-3.998v-79.945c0-2.209,1.789-3.997,3.998-3.997
		s3.996,1.788,3.996,3.997v79.945C383.738,190.082,381.951,191.87,379.742,191.87z"/>
	<path style="fill:#116FFF;" d="M419.715,135.908h-31.979c-2.209,0-3.998-1.788-3.998-3.998c0-2.209,1.789-3.997,3.998-3.997h27.98
		v-7.994h-27.98c-2.209,0-3.998-1.788-3.998-3.998c0-2.209,1.789-3.997,3.998-3.997h31.979c2.209,0,3.996,1.788,3.996,3.997v15.989
		C423.711,134.12,421.924,135.908,419.715,135.908z"/>
	<path style="fill:#116FFF;" d="M451.693,151.896h-47.969c-2.209,0-3.996-1.787-3.996-3.997c0-2.209,1.787-3.997,3.996-3.997h47.969
		c2.209,0,3.996,1.788,3.996,3.997C455.689,150.109,453.902,151.896,451.693,151.896z"/>
	<path style="fill:#116FFF;" d="M451.693,135.908h-23.984c-2.209,0-3.998-1.788-3.998-3.998c0-2.209,1.789-3.997,3.998-3.997h23.984
		c2.209,0,3.996,1.788,3.996,3.997C455.689,134.12,453.902,135.908,451.693,135.908z"/>
	<path style="fill:#116FFF;" d="M451.693,151.896c-1.023,0-2.047-0.39-2.826-1.171l-7.996-7.994c-1.561-1.562-1.561-4.091,0-5.652
		l7.996-7.995c1.561-1.562,4.09-1.562,5.652,0c1.561,1.562,1.561,4.091,0,5.652l-5.168,5.169l5.168,5.168
		c1.561,1.562,1.561,4.091,0,5.652C453.738,151.507,452.715,151.896,451.693,151.896z"/>
	<path style="fill:#116FFF;" d="M95.935,311.788c-13.226,0-23.984-10.759-23.984-23.983c0-13.226,10.758-23.984,23.984-23.984
		c13.225,0,23.983,10.759,23.983,23.984C119.918,301.029,109.16,311.788,95.935,311.788z M95.935,271.815
		c-8.822,0-15.989,7.167-15.989,15.989c0,8.821,7.167,15.988,15.989,15.988c8.814,0,15.989-7.167,15.989-15.988
		C111.924,278.982,104.749,271.815,95.935,271.815z"/>
	<path style="fill:#116FFF;" d="M119.918,267.818c-1.085,0-2.163-0.438-2.951-1.305c-1.491-1.631-1.374-4.157,0.258-5.645
		c92.211-84.196,229.64-69.124,231.007-68.972c2.193,0.257,3.754,2.244,3.498,4.434c-0.258,2.183-2.078,3.748-4.436,3.506
		c-1.303-0.16-135.197-14.76-224.683,66.935C121.847,267.474,120.879,267.818,119.918,267.818z"/>
	<path style="fill:#116FFF;" d="M331.773,207.858c-1.459,0-2.873-0.808-3.574-2.209c-0.984-1.976-0.188-4.376,1.787-5.363
		l15.99-7.995c1.975-0.979,4.371-0.191,5.363,1.788c0.982,1.976,0.188,4.376-1.789,5.363l-15.988,7.995
		C332.984,207.722,332.375,207.858,331.773,207.858z"/>
	<path style="fill:#116FFF;" d="M347.764,199.864c-0.602,0-1.211-0.137-1.787-0.422l-15.99-7.994
		c-1.975-0.987-2.771-3.389-1.787-5.363c0.998-1.976,3.389-2.757,5.363-1.788l15.988,7.994c1.977,0.988,2.771,3.389,1.789,5.363
		C350.637,199.056,349.222,199.864,347.764,199.864z"/>
	<path style="fill:#116FFF;" d="M239.837,147.899c-1.023,0-2.045-0.391-2.826-1.171l-15.989-15.989
		c-1.561-1.562-1.561-4.091,0-5.652c1.562-1.562,4.091-1.562,5.653,0l15.989,15.989c1.562,1.562,1.562,4.091,0,5.652
		C241.882,147.509,240.86,147.899,239.837,147.899z"/>
	<path style="fill:#116FFF;" d="M223.847,147.899c-1.023,0-2.045-0.391-2.826-1.171c-1.561-1.562-1.561-4.091,0-5.652l15.989-15.989
		c1.561-1.562,4.091-1.562,5.652,0s1.562,4.091,0,5.652l-15.989,15.989C225.893,147.509,224.87,147.899,223.847,147.899z"/>
	<path style="fill:#116FFF;" d="M231.842,159.891c-13.226,0-23.983-10.759-23.983-23.983c0-13.226,10.758-23.984,23.983-23.984
		s23.984,10.758,23.984,23.984C255.826,149.133,245.068,159.891,231.842,159.891z M231.842,119.919
		c-8.814,0-15.989,7.171-15.989,15.989c0,8.817,7.175,15.988,15.989,15.988c8.822,0,15.989-7.171,15.989-15.988
		C247.831,127.09,240.664,119.919,231.842,119.919z"/>
	<path style="fill:#116FFF;" d="M123.908,183.875c-1.022,0-2.045-0.391-2.826-1.171l-23.983-23.983
		c-1.562-1.562-1.562-4.092,0-5.652c1.562-1.562,4.091-1.562,5.652,0l23.983,23.983c1.562,1.562,1.562,4.091,0,5.652
		C125.953,183.484,124.93,183.875,123.908,183.875z"/>
	<path style="fill:#116FFF;" d="M99.924,183.875c-1.022,0-2.045-0.391-2.826-1.171c-1.562-1.562-1.562-4.091,0-5.652l23.983-23.983
		c1.562-1.562,4.091-1.562,5.652,0c1.562,1.561,1.562,4.091,0,5.652l-23.983,23.983C101.97,183.484,100.947,183.875,99.924,183.875z
		"/>
	<path style="fill:#116FFF;" d="M215.845,323.779c-1.022,0-2.045-0.39-2.826-1.171l-15.989-15.989c-1.561-1.561-1.561-4.091,0-5.652
		c1.562-1.561,4.091-1.561,5.652,0l15.989,15.989c1.562,1.562,1.562,4.091,0,5.652C217.891,323.389,216.868,323.779,215.845,323.779
		z"/>
	<path style="fill:#116FFF;" d="M199.856,323.779c-1.022,0-2.045-0.39-2.826-1.171c-1.561-1.562-1.561-4.091,0-5.652l15.989-15.989
		c1.562-1.561,4.091-1.561,5.652,0c1.562,1.562,1.562,4.092,0,5.652l-15.989,15.989
		C201.902,323.389,200.879,323.779,199.856,323.779z"/>
	<path style="fill:#116FFF;" d="M207.859,335.771c-13.226,0-23.984-10.758-23.984-23.983s10.758-23.983,23.984-23.983
		c13.225,0,23.983,10.758,23.983,23.983S221.084,335.771,207.859,335.771z M207.859,295.799c-8.822,0-15.989,7.167-15.989,15.989
		s7.167,15.989,15.989,15.989c8.814,0,15.989-7.167,15.989-15.989S216.673,295.799,207.859,295.799z"/>
	<path style="fill:#116FFF;" d="M315.785,295.799c-1.023,0-2.045-0.391-2.826-1.171l-23.984-23.983
		c-1.561-1.562-1.561-4.092,0-5.652c1.562-1.562,4.092-1.562,5.652,0l23.984,23.983c1.562,1.562,1.562,4.091,0,5.652
		C317.83,295.408,316.808,295.799,315.785,295.799z"/>
	<path style="fill:#116FFF;" d="M291.801,295.799c-1.021,0-2.045-0.391-2.826-1.171c-1.561-1.562-1.561-4.091,0-5.652l23.984-23.983
		c1.562-1.562,4.092-1.562,5.652,0c1.562,1.561,1.562,4.09,0,5.652l-23.984,23.983C293.847,295.408,292.824,295.799,291.801,295.799
		z"/>
	<path style="fill:#116FFF;" d="M407.722,331.774c-1.023,0-2.045-0.391-2.826-1.171l-15.988-15.989
		c-1.562-1.562-1.562-4.091,0-5.652c1.561-1.562,4.09-1.562,5.652,0l15.988,15.989c1.561,1.561,1.561,4.091,0,5.652
		C409.767,331.384,408.746,331.774,407.722,331.774z"/>
	<path style="fill:#116FFF;" d="M391.734,331.774c-1.023,0-2.047-0.391-2.826-1.171c-1.562-1.562-1.562-4.092,0-5.652l15.988-15.989
		c1.561-1.562,4.092-1.562,5.652,0s1.561,4.091,0,5.652l-15.988,15.989C393.779,331.384,392.756,331.774,391.734,331.774z"/>
	<path style="fill:#116FFF;" d="M399.728,343.765c-13.227,0-23.984-10.758-23.984-23.983s10.758-23.983,23.984-23.983
		c13.225,0,23.982,10.758,23.982,23.983S412.953,343.765,399.728,343.765z M399.728,303.793c-8.814,0-15.99,7.167-15.99,15.989
		s7.176,15.989,15.99,15.989s15.988-7.167,15.988-15.989S408.543,303.793,399.728,303.793z"/>
	<path style="fill:#116FFF;" d="M263.82,47.968h-15.989c-2.209,0-3.997-1.788-3.997-3.997v-15.99c0-2.21,1.788-3.997,3.997-3.997
		h15.989c2.209,0,3.998,1.787,3.998,3.997V43.97C267.818,46.18,266.029,47.968,263.82,47.968z M251.828,39.972h7.996v-7.994h-7.996
		L251.828,39.972L251.828,39.972z"/>
	<path style="fill:#116FFF;" d="M507.654,79.946H3.997C1.788,79.946,0,78.158,0,75.948V43.971c0-2.21,1.788-3.998,3.997-3.998
		h503.657c2.209,0,3.998,1.788,3.998,3.998v31.978C511.652,78.158,509.863,79.946,507.654,79.946z M7.994,71.951h495.664V47.968
		H7.994V71.951z"/>
	<path style="fill:#116FFF;" d="M483.672,63.957H27.981c-2.209,0-3.997-1.788-3.997-3.997c0-2.21,1.788-3.998,3.997-3.998h455.691
		c2.209,0,3.996,1.788,3.996,3.998C487.668,62.169,485.881,63.957,483.672,63.957z"/>
	<path style="fill:#116FFF;" d="M363.752,487.668c-0.6,0-1.209-0.141-1.787-0.422l-107.927-53.963
		c-1.975-0.983-2.771-3.389-1.788-5.363c0.991-1.976,3.388-2.771,5.363-1.788l107.928,53.964c1.975,0.983,2.771,3.388,1.787,5.363
		C366.625,486.856,365.213,487.668,363.752,487.668z"/>
	<path style="fill:#116FFF;" d="M395.73,487.668c-0.602,0-1.209-0.141-1.787-0.422l-139.905-69.952
		c-1.975-0.983-2.771-3.388-1.788-5.363c0.991-1.976,3.388-2.771,5.363-1.788l139.906,69.953c1.975,0.983,2.771,3.388,1.787,5.363
		C398.603,486.856,397.191,487.668,395.73,487.668z"/>
	<path style="fill:#116FFF;" d="M395.73,487.668h-31.979c-2.209,0-3.996-1.787-3.996-3.997s1.787-3.997,3.996-3.997h31.979
		c2.209,0,3.998,1.787,3.998,3.997S397.939,487.668,395.73,487.668z"/>
	<path style="fill:#116FFF;" d="M147.907,487.668c-1.468,0-2.881-0.812-3.583-2.209c-0.983-1.976-0.188-4.38,1.788-5.363
		l107.926-53.964c1.975-0.983,4.372-0.188,5.364,1.788c0.99,1.975,0.188,4.38-1.789,5.363l-107.926,53.963
		C149.118,487.527,148.508,487.668,147.907,487.668z"/>
	<path style="fill:#116FFF;" d="M115.929,487.668c-1.468,0-2.881-0.812-3.584-2.209c-0.983-1.976-0.187-4.38,1.788-5.363
		l139.905-69.953c1.975-0.983,4.372-0.188,5.364,1.788c0.99,1.976,0.188,4.38-1.789,5.363l-139.904,69.952
		C117.139,487.527,116.53,487.668,115.929,487.668z"/>
	<path style="fill:#116FFF;" d="M147.899,487.668h-31.978c-2.209,0-3.997-1.787-3.997-3.997s1.788-3.997,3.997-3.997h31.978
		c2.209,0,3.998,1.787,3.998,3.997S150.109,487.668,147.899,487.668z"/>
	<path style="fill:#116FFF;" d="M247.831,421.713c-2.209,0-3.997-1.787-3.997-3.997v-37.974c0-2.21,1.788-3.998,3.997-3.998
		s3.997,1.788,3.997,3.998v37.974C251.828,419.926,250.04,421.713,247.831,421.713z"/>
	<path style="fill:#116FFF;" d="M263.82,421.713c-2.209,0-3.996-1.787-3.996-3.997v-37.974c0-2.21,1.787-3.998,3.996-3.998
		s3.998,1.788,3.998,3.998v37.974C267.818,419.926,266.029,421.713,263.82,421.713z"/>
	<path style="fill:#116FFF;" d="M263.82,487.668c-2.209,0-3.996-1.787-3.996-3.997v-49.966c0-2.21,1.787-3.998,3.996-3.998
		s3.998,1.788,3.998,3.998v49.966C267.818,485.881,266.029,487.668,263.82,487.668z"/>
	<path style="fill:#116FFF;" d="M263.82,487.668h-15.989c-2.209,0-3.997-1.787-3.997-3.997s1.788-3.997,3.997-3.997h15.989
		c2.209,0,3.998,1.787,3.998,3.997S266.029,487.668,263.82,487.668z"/>
	<path style="fill:#116FFF;" d="M247.831,487.668c-2.209,0-3.997-1.787-3.997-3.997v-49.966c0-2.21,1.788-3.998,3.997-3.998
		s3.997,1.788,3.997,3.998v49.966C251.828,485.881,250.04,487.668,247.831,487.668z"/>
</g>
<g>
</g>
<g>
</g>
<g>
</g>
<g>
</g>
<g>
</g>
<g>
</g>
<g>
</g>
<g>
</g>
<g>
</g>
<g>
</g>
<g>
</g>
<g>
</g>
<g>
</g>
<g>
</g>
<g>
</g>
</svg>
