<?xml version="1.0" encoding="iso-8859-1"?>
<!-- Generator: Adobe Illustrator 19.0.0, SVG Export Plug-In . SVG Version: 6.00 Build 0)  -->
<svg version="1.1" id="Capa_1" xmlns="http://www.w3.org/2000/svg" xmlns:xlink="http://www.w3.org/1999/xlink" x="0px" y="0px"
	 viewBox="0 0 511.47 511.47" style="enable-background:new 0 0 511.47 511.47;" xml:space="preserve">
<rect x="59.935" y="3.996" style="fill:#5C9EFF;" width="391.6" height="503.48"/>
<polygon style="fill:#D7E9FF;" points="387.598,483.5 83.913,483.5 83.913,27.971 427.557,27.971 427.557,443.541 "/>
<rect x="115.875" y="83.915" style="fill:#94C1FF;" width="151.84" height="135.86"/>
<g>
	<path style="fill:#5C9EFF;" d="M259.731,359.628v15.983c0,37.478-30.449,67.93-67.93,67.93s-67.93-30.452-67.93-67.93v-15.983
		c0,37.478,30.449,67.93,67.93,67.93S259.731,397.105,259.731,359.628z"/>
	<path style="fill:#5C9EFF;" d="M165.028,367.464c3.356,11.66,14.068,20.136,26.773,20.136v39.958
		c-37.48,0-67.93-30.452-67.93-67.93c0-18.777,7.594-35.807,19.901-48.028l28.049,28.049l0.238,0.234
		c-5.112,5.042-8.229,12.074-8.229,19.745C163.831,362.343,164.228,364.982,165.028,367.464z"/>
</g>
<path style="fill:#94C1FF;" d="M218.574,367.464c0.8-2.481,1.198-5.12,1.198-7.836c0-15.421-12.545-27.971-27.971-27.971
	c-7.672,0-14.704,3.122-19.741,8.226l-0.238-0.234L143.773,311.6c12.304-12.308,29.329-19.901,48.028-19.901
	c37.48,0,67.93,30.367,67.93,67.93c0,37.478-30.449,67.93-67.93,67.93v-39.958C204.507,387.599,215.218,379.124,218.574,367.464z"/>
<path style="fill:#5C9EFF;" d="M191.801,291.698c-2.704,0-5.361,0.203-7.984,0.516c33.711,3.956,59.93,32.567,59.93,67.414
	c0,34.776-26.223,63.45-59.938,67.415c2.626,0.312,5.284,0.515,7.992,0.515c37.48,0,67.93-30.452,67.93-67.93
	C259.731,322.065,229.282,291.698,191.801,291.698z"/>
<g>
	<path style="fill:#94C1FF;" d="M139.855,359.628c0-18.777,7.594-35.807,19.901-48.028c10.524-10.527,24.518-17.56,40.044-19.386
		c-2.63-0.312-5.288-0.516-8-0.516c-18.699,0-35.725,7.594-48.028,19.901c-12.308,12.222-19.901,29.251-19.901,48.028
		c0,37.478,30.449,67.93,67.93,67.93c2.708,0,5.365-0.202,7.992-0.515C166.078,423.078,139.855,394.404,139.855,359.628z"/>
	<path style="fill:#94C1FF;" d="M219.772,359.628c0,2.716-0.397,5.354-1.198,7.836c-3.438-11.512-14.146-19.823-26.773-19.823
		c-12.628,0-23.335,8.312-26.773,19.823c-0.8-2.481-1.197-5.12-1.197-7.836c0-7.671,3.117-14.703,8.229-19.745
		c5.038-5.104,12.069-8.226,19.741-8.226C207.227,331.657,219.772,344.207,219.772,359.628z"/>
	<path style="fill:#94C1FF;" d="M259.731,375.611v-15.983c0,37.478-30.449,67.93-67.93,67.93v15.983
		C229.282,443.541,259.731,413.089,259.731,375.611z"/>
	<polygon style="fill:#94C1FF;" points="332.827,3.996 178.315,3.996 199.793,35.963 311.685,35.963 	"/>
</g>
<polygon style="fill:#D7E9FF;" points="178.315,3.996 199.793,35.963 207.785,35.963 186.307,3.996 "/>
<polygon style="fill:#5C9EFF;" points="332.827,3.996 311.349,35.963 303.358,35.963 324.836,3.996 "/>
<polygon style="fill:#FFFFFF;" points="387.598,483.5 379.607,483.5 379.607,435.549 427.557,435.549 427.557,443.541 "/>
<rect x="59.935" y="3.996" style="fill:#94C1FF;" width="7.991" height="503.48"/>
<rect x="84.285" y="27.303" style="fill:#FFFFFF;" width="8.06" height="456.87"/>
<polygon style="fill:#94C1FF;" points="427.557,435.549 417.568,435.549 417.568,27.303 425.622,27.303 "/>
<rect x="443.545" y="3.996" style="fill:#2287FF;" width="7.992" height="503.48"/>
<polygon style="fill:#5C9EFF;" points="383.603,487.496 431.553,487.496 431.553,439.546 "/>
<polygon style="fill:#94C1FF;" points="311.685,35.963 199.793,35.963 183.685,11.988 178.315,11.988 199.793,43.955 
	311.685,43.955 332.827,11.988 327.536,11.988 "/>
<g>
	<path style="fill:#116FFF;" d="M115.88,223.768c-2.208,0-3.996-1.787-3.996-3.996V83.913c0-2.208,1.787-3.995,3.996-3.995
		s3.996,1.787,3.996,3.995v135.859C119.876,221.981,118.089,223.768,115.88,223.768z"/>
	<path style="fill:#116FFF;" d="M267.723,223.768H115.88c-2.208,0-3.996-1.787-3.996-3.996c0-2.208,1.787-3.995,3.996-3.995h151.843
		c2.208,0,3.995,1.787,3.995,3.995C271.718,221.981,269.931,223.768,267.723,223.768z"/>
	<path style="fill:#116FFF;" d="M131.863,191.801c-1.022,0-2.044-0.39-2.825-1.171c-1.561-1.561-1.561-4.089,0-5.65l47.951-47.95
		c1.561-1.561,4.089-1.561,5.65,0c1.561,1.562,1.561,4.09,0,5.65l-47.951,47.95C133.908,191.412,132.886,191.801,131.863,191.801z"
		/>
	<path style="fill:#116FFF;" d="M203.789,167.827c-1.022,0-2.044-0.391-2.825-1.171l-23.975-23.976c-1.562-1.561-1.562-4.089,0-5.65
		c1.561-1.561,4.089-1.561,5.65,0l23.975,23.976c1.562,1.561,1.562,4.089,0,5.65C205.834,167.436,204.811,167.827,203.789,167.827z"
		/>
	<path style="fill:#116FFF;" d="M203.789,167.827c-1.022,0-2.044-0.391-2.825-1.171c-1.561-1.562-1.561-4.09,0-5.65l63.934-63.934
		c1.562-1.562,4.09-1.562,5.65,0c1.562,1.561,1.562,4.089,0,5.65l-63.934,63.934C205.834,167.436,204.811,167.827,203.789,167.827z"
		/>
	<path style="fill:#116FFF;" d="M267.723,119.876c-2.209,0-3.996-1.787-3.996-3.995V99.898c0-2.209,1.787-3.996,3.996-3.996
		c2.208,0,3.995,1.787,3.995,3.996v15.983C271.718,118.089,269.931,119.876,267.723,119.876z"/>
	<path style="fill:#116FFF;" d="M267.723,103.892h-15.984c-2.208,0-3.996-1.787-3.996-3.995c0-2.209,1.787-3.996,3.996-3.996h15.984
		c2.208,0,3.995,1.787,3.995,3.996C271.718,102.105,269.931,103.892,267.723,103.892z"/>
	<path style="fill:#116FFF;" d="M311.685,39.959H199.793c-1.334,0-2.583-0.667-3.325-1.779l-15.983-23.976
		c-1.226-1.838-0.729-4.315,1.108-5.541c1.838-1.229,4.315-0.729,5.541,1.108l14.797,22.196h107.615l14.79-22.196
		c1.217-1.838,3.691-2.337,5.541-1.108c1.834,1.222,2.333,3.703,1.107,5.541L315.009,38.18
		C314.268,39.292,313.02,39.959,311.685,39.959z"/>
	<path style="fill:#116FFF;" d="M183.81,31.967H83.913c-2.208,0-3.996-1.788-3.996-3.996c0-2.209,1.788-3.996,3.996-3.996h99.897
		c2.208,0,3.996,1.787,3.996,3.996C187.805,30.179,186.018,31.967,183.81,31.967z"/>
	<path style="fill:#116FFF;" d="M427.557,31.967h-99.896c-2.209,0-3.996-1.788-3.996-3.996c0-2.209,1.787-3.996,3.996-3.996h99.896
		c2.209,0,3.996,1.787,3.996,3.996C431.553,30.179,429.766,31.967,427.557,31.967z"/>
	<path style="fill:#116FFF;" d="M287.702,23.975h-63.934c-2.208,0-3.996-1.787-3.996-3.996c0-2.208,1.788-3.996,3.996-3.996h63.934
		c2.209,0,3.996,1.788,3.996,3.996C291.698,22.188,289.911,23.975,287.702,23.975z"/>
	<path style="fill:#116FFF;" d="M411.574,439.546h-31.967c-2.209,0-3.996-1.788-3.996-3.996c0-2.209,1.787-3.996,3.996-3.996h31.967
		c2.209,0,3.996,1.787,3.996,3.996C415.57,437.757,413.783,439.546,411.574,439.546z"/>
	<path style="fill:#116FFF;" d="M379.607,471.512c-2.209,0-3.996-1.787-3.996-3.996v-31.967c0-2.209,1.787-3.996,3.996-3.996
		c2.208,0,3.996,1.787,3.996,3.996v31.967C383.603,469.725,381.815,471.512,379.607,471.512z"/>
	<path style="fill:#116FFF;" d="M191.801,431.553c-39.658,0-71.926-32.264-71.926-71.926c0-39.661,32.268-71.925,71.926-71.925
		s71.926,32.264,71.926,71.925C263.727,399.29,231.46,431.553,191.801,431.553z M191.801,295.694
		c-35.253,0-63.934,28.682-63.934,63.934c0,35.253,28.681,63.935,63.934,63.935c35.252,0,63.934-28.682,63.934-63.935
		C255.735,324.376,227.054,295.694,191.801,295.694z"/>
	<path style="fill:#116FFF;" d="M191.801,447.537c-39.658,0-71.926-32.264-71.926-71.926c0-2.208,1.787-3.995,3.996-3.995
		s3.996,1.787,3.996,3.995c0,35.253,28.681,63.935,63.934,63.935c35.252,0,63.934-28.682,63.934-63.935
		c0-2.208,1.787-3.995,3.996-3.995s3.996,1.787,3.996,3.995C263.727,415.273,231.46,447.537,191.801,447.537z"/>
	<path style="fill:#116FFF;" d="M123.872,379.607c-2.209,0-3.996-1.787-3.996-3.996v-15.983c0-2.208,1.787-3.995,3.996-3.995
		s3.996,1.787,3.996,3.995v15.983C127.868,377.82,126.081,379.607,123.872,379.607z"/>
	<path style="fill:#116FFF;" d="M259.731,379.607c-2.209,0-3.996-1.787-3.996-3.996v-15.983c0-2.208,1.787-3.995,3.996-3.995
		s3.996,1.787,3.996,3.995v15.983C263.727,377.82,261.94,379.607,259.731,379.607z"/>
	<path style="fill:#116FFF;" d="M191.801,391.595c-17.626,0-31.967-14.337-31.967-31.968c0-17.63,14.341-31.967,31.967-31.967
		s31.967,14.337,31.967,31.967C223.768,377.258,209.427,391.595,191.801,391.595z M191.801,335.653
		c-13.221,0-23.975,10.754-23.975,23.975s10.754,23.976,23.975,23.976s23.975-10.755,23.975-23.976S205.022,335.653,191.801,335.653
		z"/>
	<path style="fill:#116FFF;" d="M218.617,371.616c-1.725,0-3.313-1.124-3.832-2.856c-2.997-10.084-12.448-17.123-22.984-17.123
		s-19.987,7.039-22.984,17.123c-0.632,2.115-2.833,3.309-4.971,2.692c-2.115-0.632-3.321-2.856-2.692-4.972
		c4-13.447,16.6-22.836,30.648-22.836s26.648,9.389,30.648,22.836c0.628,2.115-0.578,4.34-2.693,4.972
		C219.375,371.561,218.992,371.616,218.617,371.616z"/>
	<path style="fill:#116FFF;" d="M171.783,343.605c-1.022,0-2.045-0.39-2.825-1.17l-28.01-28.011c-1.561-1.561-1.561-4.089,0-5.65
		s4.089-1.561,5.65,0l28.01,28.011c1.561,1.561,1.561,4.089,0,5.65C173.828,343.215,172.805,343.605,171.783,343.605z"/>
	<path style="fill:#116FFF;" d="M191.801,431.553c-2.209,0-3.996-1.787-3.996-3.996v-39.958c0-2.209,1.787-3.996,3.996-3.996
		s3.996,1.787,3.996,3.996v39.958C195.797,429.766,194.01,431.553,191.801,431.553z"/>
	<path style="fill:#116FFF;" d="M395.59,335.653h-95.9c-2.209,0-3.996-1.787-3.996-3.996s1.787-3.996,3.996-3.996h95.9
		c2.209,0,3.996,1.787,3.996,3.996S397.799,335.653,395.59,335.653z"/>
	<path style="fill:#116FFF;" d="M395.59,359.628h-95.9c-2.209,0-3.996-1.787-3.996-3.995c0-2.209,1.787-3.996,3.996-3.996h95.9
		c2.209,0,3.996,1.787,3.996,3.996C399.587,357.84,397.799,359.628,395.59,359.628z"/>
	<path style="fill:#116FFF;" d="M395.59,383.603h-95.9c-2.209,0-3.996-1.787-3.996-3.996s1.787-3.996,3.996-3.996h95.9
		c2.209,0,3.996,1.787,3.996,3.996S397.799,383.603,395.59,383.603z"/>
	<path style="fill:#116FFF;" d="M339.648,407.578H299.69c-2.209,0-3.996-1.787-3.996-3.995c0-2.209,1.787-3.996,3.996-3.996h39.958
		c2.209,0,3.996,1.787,3.996,3.996C343.644,405.791,341.857,407.578,339.648,407.578z"/>
	<path style="fill:#116FFF;" d="M395.59,127.868h-95.9c-2.209,0-3.996-1.787-3.996-3.996s1.787-3.996,3.996-3.996h95.9
		c2.209,0,3.996,1.787,3.996,3.996S397.799,127.868,395.59,127.868z"/>
	<path style="fill:#116FFF;" d="M395.59,151.842h-95.9c-2.209,0-3.996-1.787-3.996-3.995c0-2.209,1.787-3.996,3.996-3.996h95.9
		c2.209,0,3.996,1.787,3.996,3.996C399.587,150.055,397.799,151.842,395.59,151.842z"/>
	<path style="fill:#116FFF;" d="M395.59,175.818h-95.9c-2.209,0-3.996-1.787-3.996-3.996c0-2.208,1.787-3.995,3.996-3.995h95.9
		c2.209,0,3.996,1.787,3.996,3.995C399.587,174.031,397.799,175.818,395.59,175.818z"/>
	<path style="fill:#116FFF;" d="M339.648,199.794H299.69c-2.209,0-3.996-1.787-3.996-3.996s1.787-3.996,3.996-3.996h39.958
		c2.209,0,3.996,1.787,3.996,3.996S341.857,199.794,339.648,199.794z"/>
	<path style="fill:#116FFF;" d="M83.913,487.496c-2.208,0-3.996-1.787-3.996-3.996V27.971c0-2.209,1.788-3.996,3.996-3.996
		c2.209,0,3.996,1.787,3.996,3.996v455.528C87.909,485.709,86.122,487.496,83.913,487.496z"/>
	<path style="fill:#116FFF;" d="M427.557,447.537c-2.209,0-3.996-1.787-3.996-3.996V27.971c0-2.209,1.787-3.996,3.996-3.996
		s3.996,1.787,3.996,3.996V443.54C431.553,445.75,429.766,447.537,427.557,447.537z"/>
	<path style="fill:#116FFF;" d="M387.598,487.496c-1.021,0-2.045-0.391-2.824-1.171c-1.562-1.561-1.562-4.089,0-5.65l39.958-39.958
		c1.562-1.562,4.09-1.562,5.65,0c1.562,1.561,1.562,4.089,0,5.65l-39.958,39.958C389.643,487.105,388.621,487.496,387.598,487.496z"
		/>
	<path style="fill:#116FFF;" d="M387.598,487.496H83.913c-2.208,0-3.996-1.787-3.996-3.996s1.788-3.996,3.996-3.996h303.686
		c2.209,0,3.996,1.787,3.996,3.996S389.807,487.496,387.598,487.496z"/>
	<path style="fill:#116FFF;" d="M451.533,511.47c-2.209,0-3.996-1.787-3.996-3.995V3.996c0-2.208,1.787-3.996,3.996-3.996
		c2.208,0,3.995,1.788,3.995,3.996v503.479C455.528,509.683,453.741,511.47,451.533,511.47z"/>
	<path style="fill:#116FFF;" d="M451.533,511.47H59.938c-2.209,0-3.996-1.787-3.996-3.995c0-2.209,1.787-3.996,3.996-3.996h391.595
		c2.208,0,3.995,1.787,3.995,3.996C455.528,509.683,453.741,511.47,451.533,511.47z"/>
	<path style="fill:#116FFF;" d="M59.938,511.47c-2.209,0-3.996-1.787-3.996-3.995V3.996C55.942,1.788,57.729,0,59.938,0
		c2.208,0,3.996,1.788,3.996,3.996v503.479C63.934,509.683,62.147,511.47,59.938,511.47z"/>
	<path style="fill:#116FFF;" d="M451.533,7.992H59.938c-2.209,0-3.996-1.787-3.996-3.996C55.942,1.788,57.729,0,59.938,0h391.595
		c2.208,0,3.995,1.788,3.995,3.996C455.528,6.205,453.741,7.992,451.533,7.992z"/>
	<path style="fill:#116FFF;" d="M395.59,263.727H115.876c-2.208,0-3.996-1.787-3.996-3.996c0-2.208,1.787-3.996,3.996-3.996H395.59
		c2.209,0,3.996,1.788,3.996,3.996C399.587,261.94,397.799,263.727,395.59,263.727z"/>
</g>
<g>
</g>
<g>
</g>
<g>
</g>
<g>
</g>
<g>
</g>
<g>
</g>
<g>
</g>
<g>
</g>
<g>
</g>
<g>
</g>
<g>
</g>
<g>
</g>
<g>
</g>
<g>
</g>
<g>
</g>
</svg>
