<?xml version="1.0" encoding="iso-8859-1"?>
<!-- Generator: Adobe Illustrator 19.0.0, SVG Export Plug-In . SVG Version: 6.00 Build 0)  -->
<svg version="1.1" id="Capa_1" xmlns="http://www.w3.org/2000/svg" xmlns:xlink="http://www.w3.org/1999/xlink" x="0px" y="0px"
	 viewBox="0 0 512.001 512.001" style="enable-background:new 0 0 512.001 512.001;" xml:space="preserve">
<rect x="3.999" y="116.031" style="fill:#94C1FF;" width="16" height="296.01"/>
<rect x="19.995" y="116.031" style="fill:#FFFFFF;" width="399.9" height="295.93"/>
<path style="fill:#D7E9FF;" d="M419.896,116.035H19.995H3.999v-7.998c0-4.397,3.601-7.998,7.998-7.998h399.901
	c4.397,0,7.998,3.601,7.998,7.998V116.035z"/>
<g style="opacity:0.2;">
	<rect x="19.995" y="116.031" style="fill:#FFFFFF;" width="15.996" height="295.93"/>
</g>
<path style="fill:#94C1FF;" d="M447.89,319.97c0-15.434-12.56-27.993-27.993-27.993c-15.512,0-27.993,12.56-27.993,27.993
	c0,15.441,12.481,27.993,27.993,27.993C435.33,347.963,447.89,335.411,447.89,319.97z M491.879,319.97
	c0,7.443-1.125,14.559-3.202,21.275l19.276,11.123l-15.996,27.751l-19.354-11.2c-9.677,10.396-22.393,17.917-36.71,21.197v21.831
	H403.9v-21.831c-14.402-3.28-27.032-10.802-36.709-21.197l-19.434,11.2l-15.996-27.751l19.355-11.123
	c-2.078-6.717-3.203-13.832-3.203-21.275c0-7.357,1.125-14.473,3.203-21.19l-19.355-11.2l15.996-27.673l19.434,11.2
	c9.677-10.481,22.307-17.995,36.709-21.275v-21.839h31.992v21.839c14.317,3.28,27.033,10.794,36.71,21.275l19.354-11.2
	l15.996,27.673l-19.275,11.121C490.754,305.419,491.879,312.612,491.879,319.97z"/>
<path style="fill:#D7E9FF;" d="M341.307,354.727l19.354-11.122c-2.077-6.717-4.749-16.191-4.749-23.635
	c0-7.357,2.672-17.512,4.749-24.229l-19.354-11.2l12.45-21.175l-5.999-3.46l-15.996,27.673l19.355,11.2
	c-2.078,6.718-3.203,13.833-3.203,21.19c0,7.443,1.125,14.559,3.203,21.275l-19.355,11.123l15.996,27.751l6.007-3.46
	L341.307,354.727z"/>
<g>
	<path style="fill:#5C9EFF;" d="M498.627,284.494l-19.354,11.122c2.078,6.717,4.577,16.996,4.577,24.439
		c0,7.357-1.125,17.957-3.202,24.674l17.909,9.115l-12.551,22.814l5.998,3.46L508,352.446l-19.354-11.201
		c2.077-6.717,3.202-13.832,3.202-21.189c0-7.443-1.125-14.559-3.202-21.276L508,287.657l-15.996-27.751l-6.006,3.46
		L498.627,284.494z"/>
	<path style="fill:#5C9EFF;" d="M419.896,291.977c15.434,0,27.993,12.56,27.993,27.993c0,15.441-12.56,27.993-27.993,27.993
		c-15.512,0-27.993-12.552-27.993-27.993C391.903,304.536,404.385,291.977,419.896,291.977z"/>
	<path style="fill:#5C9EFF;" d="M307.924,207.997c8.795,0,15.996,7.201,15.996,15.996c0,8.881-7.201,15.996-15.996,15.996
		c-8.872,0-15.996-7.115-15.996-15.996C291.928,215.198,299.052,207.997,307.924,207.997z"/>
</g>
<path style="fill:#94C1FF;" d="M323.92,223.993c0-8.795-7.201-15.996-15.996-15.996c-8.872,0-15.996,7.201-15.996,15.996
	c0,8.881,7.124,15.996,15.996,15.996C316.719,239.989,323.92,232.874,323.92,223.993z M343.596,221.119l9.911,2.718l-6.233,23.111
	l-9.763-2.64c-1.195,1.843-2.554,3.522-4.155,5.124c-1.594,1.601-3.28,2.96-5.115,4.155l2.64,9.755l-23.198,6.241l-2.632-9.834
	c-4.327-0.406-8.56-1.444-12.56-3.358l-7.201,7.193l-16.957-16.957l7.194-7.194c-1.914-3.999-3.03-8.24-3.358-12.559l-9.834-2.64
	l6.162-23.189l9.834,2.632c1.195-1.835,2.562-3.515,4.163-5.116c1.515-1.601,3.28-2.96,5.03-4.155l-2.633-9.763l23.189-6.232
	l2.641,9.911c4.327,0.32,8.561,1.445,12.56,3.28l7.279-7.193l16.948,16.949l-7.271,7.201
	C342.15,212.559,343.275,216.8,343.596,221.119z"/>
<path style="fill:#5C9EFF;" d="M343.596,221.119c-0.32-4.319-1.445-8.561-3.359-12.56l7.271-7.201l-16.948-16.949l-4.022,3.976
	l12.973,12.974l-7.271,7.201c1.914,3.999,2.883,12.599,3.203,16.918l9.161,2.515l-4.78,16.941l7.451,2.015l6.233-23.111
	L343.596,221.119z"/>
<path style="fill:#D7E9FF;" d="M277.096,247.597l7.193-7.193c-1.913-3.999-5.029-14.738-5.357-19.058l-7.303-1.992l4.334-16.308
	l-7.467-2l-6.162,23.189l9.834,2.64c0.328,4.319,1.444,8.56,3.358,12.559l-7.194,7.194l16.957,16.957l3.999-3.999L277.096,247.597z"
	/>
<path style="fill:#FFFFFF;" d="M19.995,100.039h-7.998c-4.397,0-7.998,3.601-7.998,7.998v7.998h7.998v-7.998
	C11.997,103.64,15.598,100.039,19.995,100.039z"/>
<path style="fill:#94C1FF;" d="M403.9,100.039h7.998c4.397,0,7.998,3.601,7.998,7.998v7.998h-7.998v-7.998
	C411.898,103.64,408.298,100.039,403.9,100.039z"/>
<g>
	<path style="fill:#116FFF;" d="M419.896,220.01c-2.21,0-3.999-1.789-3.999-3.999V112.036c0-2.21,1.789-3.999,3.999-3.999
		c2.211,0,3.999,1.789,3.999,3.999v103.975C423.896,218.221,422.107,220.01,419.896,220.01z"/>
	<path style="fill:#116FFF;" d="M20.233,112.036c-2.207,0-4.038-1.788-4.038-3.999c0-2.21,1.75-3.999,3.96-3.999h0.078
		c2.21,0,3.999,1.789,3.999,3.999C24.232,110.248,22.444,112.036,20.233,112.036z"/>
	<path style="fill:#116FFF;" d="M36.229,112.036c-2.207,0-4.038-1.788-4.038-3.999c0-2.21,1.75-3.999,3.96-3.999h0.078
		c2.21,0,3.999,1.789,3.999,3.999C40.229,110.248,38.439,112.036,36.229,112.036z"/>
	<path style="fill:#116FFF;" d="M52.226,112.036c-2.207,0-4.038-1.788-4.038-3.999c0-2.21,1.75-3.999,3.96-3.999h0.078
		c2.21,0,3.999,1.789,3.999,3.999C56.225,110.248,54.436,112.036,52.226,112.036z"/>
	<path style="fill:#116FFF;" d="M419.896,120.034H3.999c-2.21,0-3.999-1.788-3.999-3.999v-7.998c0-6.615,5.382-11.997,11.997-11.997
		h399.901c6.616,0,11.997,5.382,11.997,11.997v7.998C423.896,118.246,422.107,120.034,419.896,120.034z M7.998,112.036h407.899
		v-3.999c0-2.171-1.827-3.999-3.999-3.999H11.997c-2.207,0-3.999,1.797-3.999,3.999C7.998,108.037,7.998,112.036,7.998,112.036z"/>
	<path style="fill:#116FFF;" d="M3.999,415.962c-2.21,0-3.999-1.789-3.999-3.999V116.035c0-2.21,1.789-3.999,3.999-3.999
		s3.999,1.789,3.999,3.999v295.928C7.998,414.173,6.209,415.962,3.999,415.962z"/>
	<path style="fill:#116FFF;" d="M387.904,415.962H3.999c-2.21,0-3.999-1.789-3.999-3.999c0-2.211,1.789-3.999,3.999-3.999h383.905
		c2.211,0,3.999,1.788,3.999,3.999C391.903,414.173,390.115,415.962,387.904,415.962z"/>
	<path style="fill:#116FFF;" d="M19.995,415.962c-2.21,0-3.999-1.789-3.999-3.999V116.035c0-2.21,1.789-3.999,3.999-3.999
		s3.999,1.789,3.999,3.999v295.928C23.994,414.173,22.206,415.962,19.995,415.962z"/>
	<path style="fill:#116FFF;" d="M11.997,152.026H3.999c-2.21,0-3.999-1.788-3.999-3.999c0-2.21,1.789-3.999,3.999-3.999h7.998
		c2.21,0,3.999,1.789,3.999,3.999C15.996,150.238,14.208,152.026,11.997,152.026z"/>
	<path style="fill:#116FFF;" d="M11.997,176.021H3.999c-2.21,0-3.999-1.788-3.999-3.999c0-2.21,1.789-3.999,3.999-3.999h7.998
		c2.21,0,3.999,1.789,3.999,3.999S14.208,176.021,11.997,176.021z"/>
	<path style="fill:#116FFF;" d="M11.997,200.015H3.999c-2.21,0-3.999-1.788-3.999-3.999c0-2.21,1.789-3.999,3.999-3.999h7.998
		c2.21,0,3.999,1.789,3.999,3.999C15.996,198.227,14.208,200.015,11.997,200.015z"/>
	<path style="fill:#116FFF;" d="M11.997,224.009H3.999c-2.21,0-3.999-1.789-3.999-3.999c0-2.21,1.789-3.999,3.999-3.999h7.998
		c2.21,0,3.999,1.789,3.999,3.999S14.208,224.009,11.997,224.009z"/>
	<path style="fill:#116FFF;" d="M11.997,248.003H3.999c-2.21,0-3.999-1.789-3.999-3.999c0-2.21,1.789-3.999,3.999-3.999h7.998
		c2.21,0,3.999,1.789,3.999,3.999S14.208,248.003,11.997,248.003z"/>
	<path style="fill:#116FFF;" d="M11.997,271.997H3.999c-2.21,0-3.999-1.789-3.999-3.999s1.789-3.999,3.999-3.999h7.998
		c2.21,0,3.999,1.789,3.999,3.999S14.208,271.997,11.997,271.997z"/>
	<path style="fill:#116FFF;" d="M11.997,295.991H3.999c-2.21,0-3.999-1.789-3.999-3.999s1.789-3.999,3.999-3.999h7.998
		c2.21,0,3.999,1.789,3.999,3.999S14.208,295.991,11.997,295.991z"/>
	<path style="fill:#116FFF;" d="M11.997,319.985H3.999c-2.21,0-3.999-1.789-3.999-3.999s1.789-3.999,3.999-3.999h7.998
		c2.21,0,3.999,1.789,3.999,3.999S14.208,319.985,11.997,319.985z"/>
	<path style="fill:#116FFF;" d="M11.997,343.98H3.999c-2.21,0-3.999-1.789-3.999-3.999s1.789-3.999,3.999-3.999h7.998
		c2.21,0,3.999,1.789,3.999,3.999S14.208,343.98,11.997,343.98z"/>
	<path style="fill:#116FFF;" d="M11.997,367.974H3.999c-2.21,0-3.999-1.789-3.999-3.999s1.789-3.999,3.999-3.999h7.998
		c2.21,0,3.999,1.789,3.999,3.999S14.208,367.974,11.997,367.974z"/>
	<path style="fill:#116FFF;" d="M11.997,391.968H3.999c-2.21,0-3.999-1.789-3.999-3.999s1.789-3.999,3.999-3.999h7.998
		c2.21,0,3.999,1.789,3.999,3.999S14.208,391.968,11.997,391.968z"/>
	<path style="fill:#116FFF;" d="M75.981,152.026H43.989c-2.21,0-3.999-1.788-3.999-3.999c0-2.21,1.789-3.999,3.999-3.999h31.992
		c2.21,0,3.999,1.789,3.999,3.999C79.98,150.238,78.191,152.026,75.981,152.026z"/>
	<path style="fill:#116FFF;" d="M243.94,176.021H107.974c-2.21,0-3.999-1.788-3.999-3.999c0-2.21,1.789-3.999,3.999-3.999H243.94
		c2.21,0,3.999,1.789,3.999,3.999S246.15,176.021,243.94,176.021z"/>
	<path style="fill:#116FFF;" d="M91.978,176.021h-39.99c-2.21,0-3.999-1.788-3.999-3.999c0-2.21,1.789-3.999,3.999-3.999h39.99
		c2.21,0,3.999,1.789,3.999,3.999S94.188,176.021,91.978,176.021z"/>
	<path style="fill:#116FFF;" d="M227.944,200.015H203.95c-2.211,0-3.999-1.788-3.999-3.999c0-2.21,1.788-3.999,3.999-3.999h23.994
		c2.21,0,3.999,1.789,3.999,3.999C231.943,198.227,230.154,200.015,227.944,200.015z"/>
	<path style="fill:#116FFF;" d="M187.954,200.015H59.985c-2.21,0-3.999-1.788-3.999-3.999c0-2.21,1.789-3.999,3.999-3.999h127.969
		c2.21,0,3.999,1.789,3.999,3.999C191.953,198.227,190.164,200.015,187.954,200.015z"/>
	<path style="fill:#116FFF;" d="M83.979,248.003H59.985c-2.21,0-3.999-1.789-3.999-3.999c0-2.21,1.789-3.999,3.999-3.999h23.994
		c2.21,0,3.999,1.789,3.999,3.999C87.979,246.214,86.189,248.003,83.979,248.003z"/>
	<path style="fill:#116FFF;" d="M218.696,248.003H99.976c-2.21,0-3.999-1.789-3.999-3.999c0-2.21,1.789-3.999,3.999-3.999h118.721
		c2.21,0,3.999,1.789,3.999,3.999C222.695,246.214,220.907,248.003,218.696,248.003z"/>
	<path style="fill:#116FFF;" d="M83.979,343.98H59.985c-2.21,0-3.999-1.789-3.999-3.999s1.789-3.999,3.999-3.999h23.994
		c2.21,0,3.999,1.789,3.999,3.999S86.189,343.98,83.979,343.98z"/>
	<path style="fill:#116FFF;" d="M210.698,343.98H99.976c-2.21,0-3.999-1.789-3.999-3.999s1.789-3.999,3.999-3.999h110.723
		c2.21,0,3.999,1.789,3.999,3.999S212.909,343.98,210.698,343.98z"/>
	<path style="fill:#116FFF;" d="M171.958,224.009H67.983c-2.21,0-3.999-1.789-3.999-3.999c0-2.21,1.789-3.999,3.999-3.999h103.975
		c2.21,0,3.999,1.789,3.999,3.999S174.168,224.009,171.958,224.009z"/>
	<path style="fill:#116FFF;" d="M243.94,271.997h-79.98c-2.211,0-3.999-1.789-3.999-3.999s1.788-3.999,3.999-3.999h79.98
		c2.21,0,3.999,1.789,3.999,3.999S246.15,271.997,243.94,271.997z"/>
	<path style="fill:#116FFF;" d="M179.956,295.991H51.987c-2.21,0-3.999-1.789-3.999-3.999s1.789-3.999,3.999-3.999h127.969
		c2.21,0,3.999,1.789,3.999,3.999S182.166,295.991,179.956,295.991z"/>
	<path style="fill:#116FFF;" d="M139.966,367.974H51.987c-2.21,0-3.999-1.789-3.999-3.999s1.789-3.999,3.999-3.999h87.979
		c2.21,0,3.999,1.789,3.999,3.999S142.176,367.974,139.966,367.974z"/>
	<path style="fill:#116FFF;" d="M275.932,319.985h-119.97c-2.211,0-3.999-1.789-3.999-3.999s1.788-3.999,3.999-3.999h119.97
		c2.211,0,4,1.789,4,3.999S278.143,319.985,275.932,319.985z"/>
	<path style="fill:#116FFF;" d="M139.966,319.985h-79.98c-2.21,0-3.999-1.789-3.999-3.999s1.789-3.999,3.999-3.999h79.98
		c2.21,0,3.999,1.789,3.999,3.999S142.176,319.985,139.966,319.985z"/>
	<path style="fill:#116FFF;" d="M75.981,391.968H43.989c-2.21,0-3.999-1.789-3.999-3.999s1.789-3.999,3.999-3.999h31.992
		c2.21,0,3.999,1.789,3.999,3.999S78.191,391.968,75.981,391.968z"/>
	<path style="fill:#116FFF;" d="M259.936,295.991h-63.983c-2.211,0-3.999-1.789-3.999-3.999s1.788-3.999,3.999-3.999h63.983
		c2.211,0,4,1.789,4,3.999S262.146,295.991,259.936,295.991z"/>
	<path style="fill:#116FFF;" d="M147.964,271.997H59.985c-2.21,0-3.999-1.789-3.999-3.999s1.789-3.999,3.999-3.999h87.979
		c2.21,0,3.999,1.789,3.999,3.999S150.174,271.997,147.964,271.997z"/>
	<path style="fill:#116FFF;" d="M419.896,351.978c-17.644,0-31.992-14.348-31.992-31.992s14.349-31.992,31.992-31.992
		c17.645,0,31.992,14.348,31.992,31.992S437.541,351.978,419.896,351.978z M419.896,295.991c-13.23,0-23.994,10.763-23.994,23.994
		s10.764,23.994,23.994,23.994c13.231,0,23.994-10.763,23.994-23.994S433.128,295.991,419.896,295.991z"/>
	<path style="fill:#116FFF;" d="M471.884,323.977c-2.21,0-3.999-1.788-3.999-3.999c0-26.454-21.525-47.98-47.988-47.98
		c-2.21,0-3.999-1.789-3.999-3.999s1.789-3.999,3.999-3.999c30.867,0,55.986,25.111,55.986,55.979
		C475.883,322.189,474.095,323.977,471.884,323.977z"/>
	<path style="fill:#116FFF;" d="M419.896,375.972c-30.867,0-55.986-25.119-55.986-55.986c0-2.211,1.789-3.999,4-3.999
		c2.21,0,3.998,1.788,3.998,3.999c0,26.462,21.526,47.988,47.988,47.988c2.211,0,3.999,1.789,3.999,3.999
		S422.107,375.972,419.896,375.972z"/>
	<path style="fill:#116FFF;" d="M420.139,323.984c-2.21,0-4.038-1.788-4.038-3.999s1.75-3.999,3.952-3.999h0.086
		c2.203,0,3.999,1.788,3.999,3.999S422.342,323.984,420.139,323.984z"/>
	<path style="fill:#116FFF;" d="M308.166,228.008c-2.21,0-4.037-1.789-4.037-3.999c0-2.21,1.749-3.999,3.951-3.999h0.086
		c2.203,0,4,1.789,4,3.999S310.369,228.008,308.166,228.008z"/>
	<path style="fill:#116FFF;" d="M435.893,415.962H403.9c-2.21,0-3.999-1.789-3.999-3.999v-18.714
		c-12.622-3.438-24.071-10.061-33.413-19.332l-16.691,9.631c-1.922,1.102-4.366,0.453-5.46-1.461l-15.996-27.712
		c-1.108-1.913-0.452-4.358,1.461-5.459l16.605-9.592c-1.656-6.303-2.491-12.794-2.491-19.339c0-6.537,0.835-13.021,2.483-19.323
		l-16.605-9.592c-1.913-1.101-2.569-3.546-1.461-5.459l16.004-27.728c0.523-0.922,1.398-1.586,2.422-1.867
		c1.038-0.266,2.116-0.133,3.038,0.406l16.684,9.631c9.35-9.271,20.799-15.895,33.421-19.332v-18.714
		c0-2.21,1.789-3.999,3.999-3.999h31.992c2.211,0,3.999,1.789,3.999,3.999v18.714c12.622,3.437,24.072,10.06,33.422,19.332
		l16.684-9.631c0.913-0.539,2.007-0.672,3.038-0.406c1.023,0.281,1.898,0.945,2.421,1.867l15.996,27.712
		c1.109,1.913,0.453,4.358-1.46,5.459l-16.605,9.592c1.656,6.303,2.491,12.794,2.491,19.339s-0.835,13.036-2.491,19.331l16.613,9.6
		c0.922,0.53,1.585,1.397,1.866,2.429c0.273,1.023,0.125,2.109-0.406,3.03l-16.004,27.712c-1.093,1.914-3.538,2.578-5.459,1.461
		l-16.691-9.631c-9.342,9.271-20.792,15.895-33.414,19.332v18.714C439.892,414.173,438.104,415.962,435.893,415.962z
		 M407.899,407.964h23.994v-17.84c0-1.866,1.289-3.483,3.108-3.897c13.317-3.03,25.307-9.966,34.672-20.05
		c1.266-1.374,3.312-1.694,4.928-0.742l15.934,9.193l12.006-20.791l-15.855-9.154c-1.617-0.93-2.375-2.859-1.82-4.64
		c2-6.491,3.015-13.239,3.015-20.058s-1.015-13.566-3.015-20.065c-0.555-1.78,0.203-3.71,1.82-4.64l15.848-9.146l-11.998-20.791
		l-15.926,9.193c-1.608,0.944-3.67,0.632-4.928-0.742c-9.373-10.084-21.362-17.02-34.68-20.05c-1.819-0.414-3.108-2.031-3.108-3.897
		v-17.84H407.9v17.84c0,1.866-1.288,3.483-3.108,3.897c-13.316,3.03-25.307,9.966-34.679,20.05
		c-1.266,1.374-3.312,1.687-4.929,0.742l-15.926-9.193l-12.005,20.807l15.848,9.146c1.617,0.93,2.374,2.852,1.82,4.632
		c-1.992,6.507-3.007,13.247-3.007,20.058c0,6.818,1.015,13.566,3.015,20.065c0.554,1.78-0.203,3.71-1.82,4.64l-15.848,9.146
		l11.997,20.791l15.934-9.193c1.609-0.952,3.663-0.632,4.929,0.742c9.364,10.084,21.354,17.02,34.671,20.05
		c1.82,0.414,3.108,2.031,3.108,3.897v17.84H407.899z"/>
	<path style="fill:#116FFF;" d="M307.729,273.606c-0.694,0-1.382-0.18-1.999-0.539c-0.922-0.523-1.585-1.398-1.866-2.422
		l-1.938-7.256c-2.921-0.438-5.756-1.188-8.49-2.257l-5.295,5.296c-1.562,1.562-4.094,1.562-5.655,0l-16.973-16.965
		c-0.749-0.75-1.171-1.766-1.171-2.828s0.422-2.078,1.171-2.828l5.304-5.303c-1.07-2.726-1.82-5.569-2.266-8.49l-7.252-1.938
		c-2.132-0.578-3.397-2.765-2.827-4.905l6.206-23.174c0.577-2.116,2.749-3.358,4.896-2.827l7.139,1.914
		c0.961-1.234,1.93-2.335,2.93-3.343c1.03-1.023,2.14-1.999,3.358-2.952l-1.906-7.123c-0.281-1.023-0.133-2.117,0.398-3.039
		c0.523-0.914,1.398-1.585,2.421-1.867l23.175-6.217c1.046-0.257,2.116-0.132,3.038,0.406c0.922,0.523,1.586,1.398,1.867,2.429
		l1.944,7.256c2.921,0.445,5.765,1.195,8.49,2.257l5.296-5.295c1.499-1.5,4.154-1.5,5.654,0l16.965,16.964
		c0.75,0.75,1.172,1.765,1.172,2.828c0,1.062-0.422,2.077-1.172,2.827l-5.296,5.304c1.062,2.726,1.812,5.569,2.257,8.482
		l7.249,1.937c2.132,0.578,3.397,2.765,2.827,4.905l-6.209,23.166c-0.281,1.023-0.945,1.898-1.867,2.421
		c-0.922,0.539-2.008,0.671-3.038,0.406l-7.107-1.914c-0.969,1.25-1.938,2.351-2.952,3.366c-1.008,1.008-2.102,1.968-3.352,2.944
		l1.914,7.115c0.57,2.141-0.695,4.328-2.828,4.905l-23.174,6.218C308.424,273.56,308.072,273.606,307.729,273.606z M292.521,252.393
		c0.578,0,1.164,0.125,1.719,0.383c3.499,1.664,7.248,2.663,11.153,2.968c1.688,0.125,3.108,1.312,3.554,2.945l1.609,6.021
		l15.449-4.147l-1.586-5.897c-0.438-1.632,0.203-3.367,1.586-4.327c1.867-1.289,3.312-2.468,4.546-3.702
		c1.249-1.25,2.421-2.695,3.71-4.554c0.961-1.398,2.679-2.007,4.327-1.593l5.889,1.585l4.14-15.441l-6.014-1.609
		c-1.633-0.445-2.812-1.859-2.945-3.546c-0.312-3.905-1.312-7.662-2.976-11.154c-0.718-1.531-0.406-3.351,0.789-4.545l4.39-4.39
		l-11.31-11.31l-4.39,4.389c-1.195,1.195-3.022,1.523-4.546,0.781c-3.476-1.656-7.232-2.656-11.161-2.968
		c-1.688-0.133-3.108-1.312-3.546-2.952l-1.609-6.022l-15.449,4.147l1.586,5.913c0.444,1.648-0.203,3.39-1.609,4.343
		c-1.765,1.203-3.249,2.413-4.53,3.687c-1.25,1.257-2.421,2.694-3.679,4.522c-0.96,1.39-2.687,2.015-4.327,1.601l-5.92-1.585
		l-4.14,15.449l6.021,1.609c1.633,0.445,2.812,1.859,2.944,3.546c0.312,3.913,1.312,7.67,2.977,11.162
		c0.719,1.53,0.406,3.351-0.789,4.545l-4.39,4.39l11.317,11.31l4.382-4.382C290.46,252.799,291.483,252.393,292.521,252.393z"/>
	<path style="fill:#116FFF;" d="M307.924,244.004c-11.028,0-19.994-8.967-19.994-19.995s8.966-19.995,19.994-19.995
		c11.029,0,19.996,8.967,19.996,19.995S318.953,244.004,307.924,244.004z M307.924,212.012c-6.615,0-11.996,5.382-11.996,11.997
		c0,6.616,5.381,11.997,11.996,11.997c6.616,0,11.998-5.381,11.998-11.997C319.922,217.394,314.54,212.012,307.924,212.012z"/>
</g>
<g>
</g>
<g>
</g>
<g>
</g>
<g>
</g>
<g>
</g>
<g>
</g>
<g>
</g>
<g>
</g>
<g>
</g>
<g>
</g>
<g>
</g>
<g>
</g>
<g>
</g>
<g>
</g>
<g>
</g>
</svg>
