<?xml version="1.0" encoding="iso-8859-1"?>
<!-- Generator: Adobe Illustrator 19.0.0, SVG Export Plug-In . SVG Version: 6.00 Build 0)  -->
<svg version="1.1" id="Capa_1" xmlns="http://www.w3.org/2000/svg" xmlns:xlink="http://www.w3.org/1999/xlink" x="0px" y="0px"
	 viewBox="0 0 511.656 511.656" style="enable-background:new 0 0 511.656 511.656;" xml:space="preserve">
<path style="fill:#5C9EFF;" d="M493.564,387.74h-31.979c8.83,0,15.99-7.167,15.99-15.989c0-8.838-7.16-15.989-15.99-15.989h-31.979
	c8.83,0,15.99-7.167,15.99-15.989c0-8.837-7.16-15.989-15.99-15.989h-47.967c8.83,0,15.99-7.166,15.99-15.988
	c0-8.838-7.16-15.989-15.99-15.989h87.939c8.83,0,15.99-7.167,15.99-15.989c0-8.838-7.16-15.993-15.99-15.993h-39.973
	c8.83,0,15.99-7.159,15.99-15.989s-7.16-15.989-15.99-15.989h-15.988c8.83,0,15.988-7.159,15.988-15.989
	s-7.158-15.989-15.988-15.989h79.945c8.83,0,15.99-7.159,15.99-15.989s-7.16-15.989-15.99-15.989h-31.979
	c8.83,0,15.99-7.159,15.99-15.989s-7.16-15.989-15.99-15.989h-31.979c8.83,0,15.99-7.159,15.99-15.989s-7.16-15.989-15.99-15.989
	h-23.982c8.83,0,15.988-7.159,15.988-15.989s-7.158-15.989-15.988-15.989H165.787c-8.83,0-15.989,7.159-15.989,15.989
	s7.159,15.989,15.989,15.989h-55.962c-8.83,0-15.989,7.159-15.989,15.989s7.159,15.989,15.989,15.989H93.836
	c-8.83,0-15.989,7.159-15.989,15.989s7.159,15.989,15.989,15.989h47.968c-8.83,0-15.989,7.159-15.989,15.989
	s7.159,15.989,15.989,15.989h-87.94c-8.83,0-15.989,7.16-15.989,15.989s7.159,15.989,15.989,15.989h39.973
	c-8.83,0-15.989,7.159-15.989,15.989s7.159,15.989,15.989,15.989H53.864c-8.83,0-15.989,7.155-15.989,15.993
	c0,8.822,7.159,15.989,15.989,15.989h-15.99c-8.83,0-15.989,7.151-15.989,15.989c0,8.822,7.159,15.988,15.989,15.988h39.974
	c-8.83,0-15.989,7.152-15.989,15.989c0,8.822,7.159,15.989,15.989,15.989h-15.99c-8.83,0-15.989,7.151-15.989,15.989
	c0,8.822,7.159,15.989,15.989,15.989h79.946c-8.83,0-15.989,7.151-15.989,15.989c0,8.821,7.159,15.989,15.989,15.989h-31.979
	c-8.83,0-15.989,7.15-15.989,15.988c0,8.822,7.159,15.989,15.989,15.989H381.64c8.83,0,15.99-7.167,15.99-15.989
	c0-8.838-7.16-15.988-15.99-15.988h111.924c8.83,0,15.99-7.168,15.99-15.989C509.555,394.891,502.394,387.74,493.564,387.74z"/>
<path style="fill:#3A3847;" d="M437.861,399.732c-2.211,0-4.037-1.78-4.037-3.998c0-2.201,1.748-3.997,3.951-3.997h0.086
	c2.201,0,3.996,1.796,3.996,3.997C441.857,397.952,440.062,399.732,437.861,399.732z"/>
<g>
	<path style="fill:#116FFF;" d="M126.057,7.995c-2.21,0-4.037-1.788-4.037-3.997S123.769,0,125.971,0h0.086
		c2.201,0,3.997,1.788,3.997,3.998S128.258,7.995,126.057,7.995z"/>
	<path style="fill:#116FFF;" d="M301.937,23.984c-2.209,0-4.037-1.788-4.037-3.998c0-2.209,1.75-3.997,3.951-3.997h0.086
		c2.201,0,3.998,1.788,3.998,3.997C305.935,22.196,304.139,23.984,301.937,23.984z"/>
	<path style="fill:#116FFF;" d="M6.139,119.918c-2.209,0-4.037-1.788-4.037-3.998c0-2.209,1.749-3.997,3.951-3.997h0.086
		c2.202,0,3.997,1.788,3.997,3.997C10.136,118.131,8.34,119.918,6.139,119.918z"/>
	<path style="fill:#116FFF;" d="M70.087,335.775c-2.21,0-4.036-1.796-4.036-3.997c0-2.218,1.749-3.997,3.95-3.997h0.086
		c2.201,0,3.997,1.779,3.997,3.997C74.084,333.979,72.288,335.775,70.087,335.775z"/>
	<path style="fill:#116FFF;" d="M269.553,503.661c-2.209,0-4.035-1.796-4.035-3.997c0-2.218,1.748-3.998,3.949-3.998h0.086
		c2.201,0,3.998,1.78,3.998,3.998C273.551,501.865,271.754,503.661,269.553,503.661z"/>
	<path style="fill:#116FFF;" d="M461.828,511.656c-2.209,0-4.035-1.78-4.035-3.998c0-2.201,1.748-3.997,3.949-3.997h0.086
		c2.201,0,3.998,1.796,3.998,3.997C465.826,509.876,464.029,511.656,461.828,511.656z"/>
	<path style="fill:#116FFF;" d="M373.904,295.803c-2.209,0-4.037-1.796-4.037-3.997c0-2.218,1.75-3.997,3.951-3.997h0.086
		c2.201,0,3.996,1.779,3.996,3.997C377.9,294.007,376.105,295.803,373.904,295.803z"/>
	<path style="fill:#116FFF;" d="M469.83,263.82c-2.209,0-4.035-1.787-4.035-3.997s1.748-3.997,3.949-3.997h0.086
		c2.203,0,3.998,1.787,3.998,3.997S472.033,263.82,469.83,263.82z"/>
</g>
<path style="fill:#3A3847;" d="M421.863,375.732c-2.209,0-4.037-1.779-4.037-3.997c0-2.202,1.75-3.997,3.951-3.997h0.086
	c2.201,0,3.998,1.795,3.998,3.997C425.861,373.953,424.064,375.732,421.863,375.732z"/>
<path style="fill:#94C1FF;" d="M182.737,122.963c1.358,1.358,2.475,2.803,3.436,4.396c-3.115,5.2-8.237,11.757-14.709,18.23
	c-6.472,6.472-13.03,11.593-18.229,14.708c-1.593-0.96-3.037-2.077-4.396-3.435c-9.353-9.354-9.353-24.546,0-33.899
	S173.384,113.61,182.737,122.963z"/>
<path style="fill:#D7E9FF;" d="M156.832,130.958c7.948-7.948,20.072-9.072,29.285-3.521c0.016-0.023,0.039-0.055,0.055-0.078
	c-0.96-1.593-2.077-3.037-3.436-4.396c-9.353-9.353-24.545-9.353-33.898,0s-9.353,24.545,0,33.899
	c1.358,1.358,2.803,2.475,4.396,3.435c0.023-0.016,0.055-0.039,0.078-0.055C147.761,151.03,148.885,138.905,156.832,130.958z"/>
<path style="fill:#94C1FF;" d="M186.172,127.359c5.754,9.275,4.56,21.509-3.436,29.503c-7.994,7.994-20.228,9.189-29.503,3.435
	c5.199-3.115,11.758-8.237,18.229-14.708C177.935,139.116,183.057,132.558,186.172,127.359z"/>
<path style="fill:#D7E9FF;" d="M135.964,385.663c4.723,4.638,4.638,12.227,0,16.958c-4.716,4.637-51.879,44.204-56.517,39.566
	c-4.715-4.716,34.852-51.887,39.575-56.524C123.66,380.947,131.248,380.947,135.964,385.663z"/>
<path style="fill:#94C1FF;" d="M135.964,402.621c4.638-4.731,4.723-12.32,0-16.958c-4.716-4.716-12.304-4.716-16.941,0
	c-4.724,4.638-44.291,51.809-39.575,56.524C84.085,446.825,131.248,407.258,135.964,402.621z M56.823,464.812
	c-14.068-14.068,31.174-82.101,45.25-96.091c13.991-14.068,36.772-14.068,50.84,0c14.076,14.068,14.076,36.772,0,50.841
	C138.845,433.631,70.891,478.803,56.823,464.812z"/>
<path style="fill:#5C9EFF;" d="M152.913,368.722c-8.057-8.057-18.964-11.352-29.449-10.165c7.831,0.875,15.443,4.153,21.455,10.165
	c14.076,14.068,14.076,36.772,0,50.841c-11.43,11.43-58.406,43.377-83.178,47.467c20.626,4.045,78.321-34.616,91.172-47.467
	C166.99,405.494,166.99,382.79,152.913,368.722z"/>
<path style="fill:#D7E9FF;" d="M64.817,464.812c-14.069-14.068,31.174-82.101,45.25-96.091c5.98-6.012,13.577-9.29,21.392-10.165
	c-10.485-1.187-21.376,2.108-29.386,10.165c-14.077,13.99-59.319,82.022-45.25,96.091c2.639,2.623,7.183,3.17,12.913,2.217
	C67.776,466.64,66.036,466.015,64.817,464.812z"/>
<g>
	<path style="fill:#94C1FF;" d="M453.592,355.762c4.395,0,7.994,3.607,7.994,7.994c0,4.404-3.6,7.995-7.994,7.995
		s-7.994-3.591-7.994-7.995C445.598,359.369,449.197,355.762,453.592,355.762z"/>
	<path style="fill:#94C1FF;" d="M461.586,363.756c0-4.387-3.6-7.994-7.994-7.994s-7.994,3.607-7.994,7.994
		c0,4.404,3.6,7.995,7.994,7.995S461.586,368.16,461.586,363.756z M441.599,339.772c19.908,0,35.977,16.067,35.977,35.976
		c0,19.83-16.068,35.976-35.977,35.976c-19.83,0-35.975-16.067-35.975-35.976S421.691,339.772,441.599,339.772z"/>
</g>
<path style="fill:#D7E9FF;" d="M413.619,383.742c0-19.908,16.066-35.975,35.975-35.975c7.91,0,15.146,2.607,21.072,6.917
	c-6.535-9.01-17.066-14.912-29.066-14.912c-19.908,0-35.975,16.067-35.975,35.976c0,11.992,5.918,22.5,14.904,29.043
	C416.226,398.873,413.619,391.643,413.619,383.742z"/>
<path style="fill:#5C9EFF;" d="M470.119,368.129c0.008,19.908-16.059,35.975-35.967,35.975c-7.916,0-15.154-2.607-21.072-6.901
	c6.527,8.994,17.066,14.896,29.066,14.896c19.908,0,35.975-16.067,35.975-35.976c0-11.992-5.916-22.5-14.902-29.027
	C467.519,353.014,470.127,360.243,470.119,368.129z"/>
<path style="fill:#94C1FF;" d="M361.732,91.305c28.223-28.301,79.148-33.899,90.424-22.625
	c11.352,11.352,11.352,56.524-22.627,90.501l-5.598-5.676l-56.602-56.524l-9.914-1.358
	C359.258,93.788,360.693,92.344,361.732,91.305z"/>
<path style="fill:#5C9EFF;" d="M452.156,68.68c-1.133-1.132-2.758-2.045-4.623-2.826c7.512,16.349,4.123,55.182-25.959,85.294
	l2.357,2.357l5.598,5.676C463.508,125.204,463.508,80.032,452.156,68.68z"/>
<path style="fill:#D7E9FF;" d="M369.687,99.339c0.016-0.016,0.031-0.031,0.039-0.039c25.389-25.459,69.07-32.501,85.801-25.451
	c-0.959-2.101-2.084-3.88-3.371-5.169c-11.275-11.273-62.201-5.676-90.424,22.625c-1.039,1.039-2.475,2.483-4.316,4.317l9.914,1.358
	L369.687,99.339z"/>
<path style="fill:#94C1FF;" d="M361.732,159.181c9.354,9.354,9.354,24.546,0,33.899s-24.537,9.353-33.977,0
	c-9.354-9.353-9.354-24.545,0-33.899C337.195,149.75,352.379,149.75,361.732,159.181z"/>
<path style="fill:#D7E9FF;" d="M335.75,167.176c8.033-8.034,20.213-9.158,29.434-3.514c-0.969-1.585-2.076-3.107-3.451-4.481
	c-9.354-9.431-24.537-9.431-33.977,0c-9.354,9.354-9.354,24.546,0,33.899c1.381,1.374,2.92,2.483,4.512,3.451
	C326.67,187.302,327.787,175.139,335.75,167.176z"/>
<path style="fill:#94C1FF;" d="M305.217,215.705c9.352,9.353,9.352,24.538,0,33.891c-9.439,9.354-24.547,9.354-33.977,0
	c-9.361-9.353-9.361-24.538,0-33.891C280.67,206.344,295.777,206.344,305.217,215.705z"/>
<g>
	<path style="fill:#D7E9FF;" d="M278.867,224.058c8.033-8.034,20.213-9.158,29.434-3.513c-0.969-1.585-2.078-3.107-3.451-4.481
		c-9.354-9.431-24.539-9.431-33.977,0c-9.354,9.353-9.354,24.546,0,33.899c1.381,1.374,2.92,2.482,4.512,3.451
		C269.787,244.185,270.904,232.022,278.867,224.058z"/>
	<path style="fill:#D7E9FF;" d="M206.557,241.445l2.561,2.553c-19.502,19.432-36.858,36.783-49.17,49.166l-0.078-0.078
		c-7.994-13.507-46.608-20.549-46.608-20.549C169.785,216.017,206.557,241.445,206.557,241.445z"/>
	<path style="fill:#D7E9FF;" d="M280.031,314.992c0,0,25.506,36.772-31.019,93.219c0,0-7.354-40.051-21.423-47.094
		c12.304-12.304,29.737-29.729,49.327-49.247L280.031,314.992z"/>
</g>
<path style="fill:#FFFFFF;" d="M209.118,379.59l-11.273-11.273l-5.754,5.684c0,0-5.598,5.59-28.223-17.036
	c-22.625-22.547-16.95-28.215-16.95-28.215l5.676-5.605l-11.352-11.352c0,0,7.12-7.104,18.706-18.628
	c12.312-12.383,29.667-29.734,49.17-49.166c55.001-55.08,131.029-131.106,152.615-152.693l5.598,5.676l56.602,56.524l5.598,5.676
	c-17.113,17.105-94.334,94.334-152.613,152.689c-19.59,19.518-37.022,36.943-49.327,49.247
	C216.074,372.64,209.118,379.59,209.118,379.59z M361.732,193.079c9.354-9.353,9.354-24.545,0-33.899
	c-9.354-9.431-24.537-9.431-33.977,0c-9.354,9.354-9.354,24.546,0,33.899C337.195,202.432,352.379,202.432,361.732,193.079z
	 M305.217,249.596c9.352-9.353,9.352-24.538,0-33.891c-9.439-9.361-24.547-9.361-33.977,0c-9.361,9.353-9.361,24.538,0,33.891
	C280.67,258.949,295.777,258.949,305.217,249.596z"/>
<g>
	<path style="fill:#116FFF;" d="M249.012,412.208c-0.398,0-0.796-0.062-1.187-0.188c-1.421-0.438-2.475-1.624-2.748-3.092
		c-2.693-14.662-10.267-39.521-19.144-44.157c-1.397-0.641-2.381-2.03-2.381-3.654c0-2.826,3.271-4.824,5.824-3.575
		c11.89,5.949,18.987,29.886,21.977,42.486c46.569-49.997,26.294-81.413,25.382-82.771c-1.234-1.827-0.773-4.31,1.045-5.543
		c1.812-1.249,4.295-0.796,5.535,0.999c1.117,1.624,26.74,40.191-31.478,98.324C251.074,411.802,250.058,412.208,249.012,412.208z"
		/>
	<path style="fill:#116FFF;" d="M159.87,297.083c-1.366,0-2.693-0.702-3.443-1.952c-5.145-8.713-29.644-16.066-43.884-18.658
		c-1.46-0.266-2.654-1.328-3.099-2.733c-0.437-1.421-0.062-2.966,0.992-4.028c58.218-58.222,96.777-32.669,98.394-31.553
		c1.819,1.257,2.272,3.748,1.015,5.559c-1.242,1.819-3.74,2.257-5.543,1.031c-1.39-0.937-32.806-21.087-82.85,25.448
		c12.257,2.889,35.218,9.634,41.862,20.86c1.124,1.905,0.492,4.356-1.405,5.481C161.267,296.911,160.565,297.083,159.87,297.083z"/>
	<path style="fill:#116FFF;" d="M80.588,446.559c-1.999,0-3.263-0.843-3.966-1.546c-0.718-0.719-1.569-1.999-1.562-4.044
		c0.055-11.352,39.13-56.149,41.16-58.148c5.894-6.011,16.488-6.058,22.57,0.016c6.222,6.105,6.246,16.255,0.023,22.579
		C138.345,405.884,92.142,446.559,80.588,446.559z M127.462,386.132c-2.116,0-4.106,0.827-5.59,2.342
		c-5.715,5.606-30.581,36.194-37.201,48.468c12.335-6.652,42.838-31.619,48.49-37.178c1.468-1.5,2.311-3.529,2.318-5.668
		c0.008-2.124-0.819-4.107-2.318-5.575C131.616,386.974,129.593,386.132,127.462,386.132z"/>
	<path style="fill:#116FFF;" d="M64.919,471.465c-4.692,0-8.37-1.281-10.915-3.826c-2.568-2.561-3.864-6.262-3.856-11.008
		c0.039-25.046,36.881-78.604,49.107-90.751c7.502-7.542,17.527-11.711,28.208-11.711c10.68,0,20.72,4.169,28.277,11.727
		c7.565,7.558,11.727,17.582,11.727,28.246c0,10.649-4.161,20.689-11.727,28.247C143.506,434.63,89.808,471.465,64.919,471.465z
		 M127.462,362.164c-8.533,0-16.544,3.325-22.555,9.368c-12.804,12.726-46.734,64.003-46.765,85.114
		c-0.008,2.529,0.5,4.325,1.507,5.34c0.992,0.984,2.764,1.483,5.27,1.483c20.978,0,72.365-33.93,85.168-46.733
		c6.051-6.043,9.384-14.068,9.384-22.595c0-8.525-3.333-16.551-9.384-22.594C144.036,365.489,136.003,362.164,127.462,362.164z"/>
	<path style="fill:#116FFF;" d="M209.118,383.587c-1.023,0-2.046-0.391-2.826-1.171c-1.562-1.562-1.562-4.092,0-5.652l18.472-18.473
		c12.304-12.304,29.737-29.729,49.334-49.247c58.271-58.355,135.492-135.584,152.605-152.689
		c14.389-14.389,24.047-32.704,27.193-51.566c2.818-16.91-0.391-29.105-4.566-33.282c-2.68-2.678-9.346-4.278-17.84-4.278
		c-0.016,0-0.031,0-0.047,0c-19.309,0.016-48.467,8.44-66.877,26.904l-4.332,4.325c-21.58,21.579-93.289,93.288-148.291,148.368
		c-19.502,19.436-36.85,36.768-49.162,49.166l-18.713,18.626c-1.562,1.562-4.091,1.562-5.652,0s-1.562-4.091,0-5.652l18.714-18.628
		c12.296-12.383,29.66-29.734,49.17-49.174c54.994-55.072,126.703-126.781,148.291-148.368l4.316-4.317
		c20.127-20.182,50.926-29.23,72.529-29.246c0.016,0,0.039,0,0.055,0c7.713,0,18.025,1.155,23.492,6.62
		c12.623,12.625,13.639,59.889-22.627,96.153c-17.113,17.105-94.334,94.335-152.613,152.689
		c-19.59,19.518-37.022,36.943-49.327,49.247l-18.472,18.473C211.163,383.196,210.14,383.587,209.118,383.587z"/>
	<path style="fill:#116FFF;" d="M175.14,349.687c-1.023,0-2.045-0.39-2.826-1.171c-1.561-1.562-1.561-4.091,0-5.652l67.797-67.798
		c1.562-1.561,4.091-1.561,5.652,0c1.562,1.562,1.562,4.092,0,5.652l-67.797,67.798C177.186,349.298,176.163,349.687,175.14,349.687
		z"/>
	<path style="fill:#116FFF;" d="M163.867,338.414c-1.023,0-2.045-0.391-2.826-1.171l-22.625-22.625
		c-1.562-1.562-1.562-4.091,0-5.652s4.091-1.562,5.652,0l22.625,22.625c1.561,1.562,1.561,4.091,0,5.652
		C165.912,338.023,164.89,338.414,163.867,338.414z"/>
	<path style="fill:#116FFF;" d="M209.118,383.587c-1.023,0-2.046-0.391-2.826-1.171l-22.625-22.626
		c-1.562-1.562-1.562-4.091,0-5.652c1.561-1.562,4.091-1.562,5.652,0l22.625,22.626c1.562,1.561,1.562,4.091,0,5.652
		C211.163,383.196,210.14,383.587,209.118,383.587z"/>
	<path style="fill:#116FFF;" d="M344.775,204.088c-7.471,0-14.514-2.896-19.83-8.167c-10.922-10.922-10.922-28.66-0.016-39.567
		c10.656-10.641,29.082-10.618,39.645,0.008c10.891,10.899,10.891,28.637-0.016,39.543
		C359.281,201.183,352.254,204.088,344.775,204.088z M344.775,156.104c-5.34,0-10.383,2.101-14.193,5.902
		c-7.783,7.792-7.783,20.455,0,28.247c7.604,7.526,20.783,7.542,28.324,0c7.783-7.792,7.783-20.455,0-28.247
		C355.127,158.197,350.115,156.104,344.775,156.104z"/>
	<path style="fill:#116FFF;" d="M288.228,260.611c-7.457,0-14.49-2.904-19.807-8.174c-5.295-5.293-8.199-12.312-8.199-19.783
		c0-7.479,2.904-14.498,8.191-19.775c10.641-10.563,28.963-10.556,39.621-0.016c10.906,10.914,10.906,28.66,0.008,39.559
		C302.711,257.707,295.676,260.611,288.228,260.611z M288.228,212.683c-5.332,0-10.369,2.077-14.17,5.855
		c-3.764,3.763-5.84,8.775-5.84,14.115c0,5.332,2.076,10.345,5.848,14.115c7.58,7.519,20.695,7.55,28.34-0.016
		c7.768-7.768,7.768-20.439-0.016-28.223C298.588,214.76,293.553,212.683,288.228,212.683z"/>
	<path style="fill:#116FFF;" d="M441.599,415.721c-22.039,0-39.973-17.925-39.973-39.973c0-22.031,17.934-39.973,39.973-39.973
		c22.041,0,39.973,17.941,39.973,39.973C481.572,397.796,463.64,415.721,441.599,415.721z M441.599,343.769
		c-17.637,0-31.979,14.35-31.979,31.979c0,17.645,14.342,31.979,31.979,31.979s31.979-14.334,31.979-31.979
		C473.578,358.119,459.236,343.769,441.599,343.769z"/>
	<path style="fill:#116FFF;" d="M453.592,375.748c-6.613,0-11.992-5.371-11.992-11.992c0-6.604,5.379-11.991,11.992-11.991
		s11.992,5.387,11.992,11.991C465.584,370.377,460.205,375.748,453.592,375.748z M453.592,359.759c-2.201,0-3.998,1.796-3.998,3.997
		c0,2.202,1.797,3.998,3.998,3.998s3.998-1.796,3.998-3.998C457.59,361.555,455.793,359.759,453.592,359.759z"/>
	<path style="fill:#116FFF;" d="M341.668,463.688c-2.209,0-3.998-1.78-3.998-3.997v-31.979c0-2.201,1.789-3.997,3.998-3.997
		s3.998,1.796,3.998,3.997v31.979C345.666,461.908,343.877,463.688,341.668,463.688z"/>
	<path style="fill:#116FFF;" d="M349.662,447.699h-15.988c-2.209,0-3.998-1.78-3.998-3.997c0-2.202,1.789-3.997,3.998-3.997h15.988
		c2.209,0,3.998,1.795,3.998,3.997C353.66,445.919,351.871,447.699,349.662,447.699z"/>
	<path style="fill:#116FFF;" d="M181.777,495.666c-2.209,0-3.997-1.779-3.997-3.997v-31.978c0-2.202,1.788-3.998,3.997-3.998
		s3.997,1.796,3.997,3.998v31.978C185.774,493.887,183.986,495.666,181.777,495.666z"/>
	<path style="fill:#116FFF;" d="M189.771,479.678h-15.989c-2.209,0-3.998-1.78-3.998-3.998c0-2.201,1.788-3.997,3.998-3.997h15.989
		c2.21,0,3.998,1.796,3.998,3.997C193.768,477.897,191.981,479.678,189.771,479.678z"/>
	<path style="fill:#116FFF;" d="M84.64,98.979c-2.21,0-3.998-1.788-3.998-3.997V63.004c0-2.209,1.788-3.997,3.998-3.997
		c2.209,0,3.997,1.788,3.997,3.997v31.979C88.637,97.192,86.849,98.979,84.64,98.979z"/>
	<path style="fill:#116FFF;" d="M92.634,82.99H76.645c-2.209,0-3.997-1.788-3.997-3.997s1.788-3.997,3.997-3.997h15.989
		c2.209,0,3.997,1.788,3.997,3.997C96.631,81.203,94.844,82.99,92.634,82.99z"/>
	<path style="fill:#116FFF;" d="M245.733,71.959c-2.209,0-3.997-1.788-3.997-3.997V35.983c0-2.209,1.788-3.997,3.997-3.997
		c2.21,0,3.998,1.788,3.998,3.997v31.979C249.73,70.171,247.943,71.959,245.733,71.959z"/>
	<path style="fill:#116FFF;" d="M253.728,55.97h-15.989c-2.209,0-3.997-1.788-3.997-3.997s1.788-3.997,3.997-3.997h15.989
		c2.209,0,3.997,1.788,3.997,3.997S255.937,55.97,253.728,55.97z"/>
	<path style="fill:#116FFF;" d="M29.88,255.834c-2.209,0-3.997-1.788-3.997-3.998v-31.978c0-2.209,1.788-3.997,3.997-3.997
		s3.997,1.788,3.997,3.997v31.978C33.877,254.046,32.089,255.834,29.88,255.834z"/>
	<path style="fill:#116FFF;" d="M37.874,239.845H21.886c-2.209,0-3.998-1.788-3.998-3.997c0-2.21,1.788-3.998,3.998-3.998h15.989
		c2.21,0,3.998,1.788,3.998,3.998C41.872,238.057,40.084,239.845,37.874,239.845z"/>
	<path style="fill:#116FFF;" d="M165.827,167.878c-5.207,0-10.29-1.444-14.701-4.185c-1.866-1.124-3.552-2.443-5.113-4.005
		c-10.907-10.907-10.907-28.645,0-39.551c10.555-10.555,28.996-10.555,39.551,0c1.562,1.561,2.881,3.248,4.029,5.161
		c6.839,11.008,5.192,25.17-4.029,34.391C180.286,164.974,173.275,167.878,165.827,167.878z M165.787,119.95
		c-5.34,0-10.353,2.069-14.123,5.84c-7.784,7.792-7.784,20.455,0,28.247c1.101,1.101,2.287,2.029,3.63,2.842
		c7.76,4.801,18.214,3.567,24.616-2.842c6.582-6.582,7.761-16.684,2.865-24.569c-0.835-1.39-1.764-2.576-2.865-3.677
		C176.14,122.018,171.127,119.95,165.787,119.95z"/>
	<path style="fill:#116FFF;" d="M145.138,167.23c-1.788,0-3.451-0.523-4.793-1.858c-1.569-1.554-1.569-4.091-0.016-5.652
		c1.374-1.39,3.513-1.562,5.074-0.492c0.594-0.07,2.319-0.437,5.887-2.42c5.2-3.123,11.562-8.26,17.348-14.045
		c5.785-5.785,10.922-12.148,14.107-17.457c1.937-3.475,2.296-5.184,2.358-5.777c-1.062-1.562-0.891-3.701,0.491-5.075
		c1.562-1.546,4.091-1.562,5.652,0.016c3.842,3.865,0.938,10.321-1.584,14.833c-3.615,6.051-9.056,12.796-15.373,19.112
		c-6.316,6.315-13.062,11.757-19.002,15.31C152.273,165.411,148.479,167.23,145.138,167.23z"/>
	<path style="fill:#116FFF;" d="M423.932,157.502c-1.021,0-2.045-0.39-2.826-1.171l-56.602-56.524c-1.561-1.561-1.561-4.091,0-5.652
		c1.562-1.561,4.092-1.561,5.652,0l56.602,56.524c1.562,1.562,1.562,4.091,0,5.652C425.978,157.112,424.955,157.502,423.932,157.502
		z"/>
	<path style="fill:#116FFF;" d="M189.904,378.73c-5.082,0-13.865-3.935-28.863-18.94c-12.437-12.382-18.745-22.047-18.753-28.715
		c0-3.028,1.257-4.606,1.803-5.152c1.562-1.562,4.091-1.562,5.652,0c1.351,1.343,1.53,3.419,0.547,4.966
		c-0.07,0.952,0.219,7.119,16.395,23.249c16.168,16.161,22.493,16.505,23.281,16.474c1.554-0.969,3.607-0.781,4.95,0.562
		c1.562,1.561,1.562,4.09,0,5.652C193.901,377.841,192.316,378.73,189.904,378.73z"/>
</g>
<g>
</g>
<g>
</g>
<g>
</g>
<g>
</g>
<g>
</g>
<g>
</g>
<g>
</g>
<g>
</g>
<g>
</g>
<g>
</g>
<g>
</g>
<g>
</g>
<g>
</g>
<g>
</g>
<g>
</g>
</svg>
