<?xml version="1.0" encoding="iso-8859-1"?>
<!-- Generator: Adobe Illustrator 19.0.0, SVG Export Plug-In . SVG Version: 6.00 Build 0)  -->
<svg version="1.1" id="Capa_1" xmlns="http://www.w3.org/2000/svg" xmlns:xlink="http://www.w3.org/1999/xlink" x="0px" y="0px"
	 viewBox="0 0 511.8 511.8" style="enable-background:new 0 0 511.8 511.8;" xml:space="preserve">
<g>
	<g>
		<rect id="SVGCleanerId_0" x="4.5" y="111.95" style="fill:#E6E9ED;" width="503.3" height="335.4"/>
	</g>
	<g>
		<rect id="SVGCleanerId_0_1_" x="4.5" y="111.95" style="fill:#E6E9ED;" width="503.3" height="335.4"/>
	</g>
</g>
<g>
	<polygon style="fill:#FFCE54;" points="100.1,415.35 68.1,447.35 4.2,447.35 4.2,319.85 4.6,319.85 	"/>
	<polygon style="fill:#FFCE54;" points="323.9,415.35 292,447.35 260,447.35 165.3,352.65 133.4,384.65 28.1,279.45 108.1,199.55 	
		"/>
</g>
<rect x="15.614" y="237.866" transform="matrix(-0.7071 0.7071 -0.7071 -0.7071 295.3829 364.6809)" style="fill:#FFFFFF;" width="113.099" height="11.3"/>
<polygon style="fill:#FC6E51;" points="196,439.35 188,447.35 124.1,447.35 164,407.35 "/>
<polygon style="fill:#FFFFFF;" points="172,415.35 164,407.35 124.1,447.35 140.1,447.35 "/>
<polygon style="fill:#5D9CEC;" points="507.8,399.35 507.8,447.35 459.9,447.35 "/>
<polygon style="fill:#3A3847;" points="507.8,415.35 507.8,399.35 459.9,447.35 475.8,447.35 "/>
<polygon style="fill:#A0D468;" points="507.8,343.45 507.8,399.35 459.9,447.35 403.9,447.35 "/>
<g>
	<polygon style="fill:#FFFFFF;" points="507.8,343.45 403.9,447.35 419.9,447.35 507.8,359.45 	"/>
	<polygon style="fill:#FFFFFF;" points="403.9,447.35 363.9,447.35 387.9,423.35 156.1,191.55 156.1,183.55 196,183.55 196,191.55 
		407.9,403.35 507.8,303.45 507.8,343.45 	"/>
</g>
<polygon style="fill:#FC6E51;" points="507.8,175.55 507.8,239.45 491.8,255.45 459.9,223.45 "/>
<polygon style="fill:#FFFFFF;" points="507.8,175.55 459.9,223.45 467.8,231.45 507.8,191.55 "/>
<rect x="336.264" y="180.354" transform="matrix(-0.7071 0.7071 -0.7071 -0.7071 825.0504 177.26)" style="fill:#FFCE54;" width="79.099" height="158.298"/>
<rect x="284.4" y="201.853" transform="matrix(-0.7071 0.7071 -0.7071 -0.7071 699.7435 125.1625)" style="fill:#FFFFFF;" width="79.099" height="11.3"/>
<polygon style="fill:#FC6E51;" points="4.6,135.75 4.2,247.45 60.1,191.55 "/>
<g>
	<rect id="SVGCleanerId_0_2_" x="4.5" y="111.95" style="fill:#D7E9FF;" width="503.3" height="335.4"/>
</g>
<polygon style="fill:#94C1FF;" points="266.1,177.75 266.1,141.05 256.2,111.95 331.9,111.95 "/>
<g>
	<polygon style="fill:#FFCE54;" points="100.1,415.35 68.1,447.35 4.2,447.35 4.2,319.85 4.6,319.85 	"/>
	<polygon style="fill:#FFCE54;" points="323.9,415.35 292,447.35 260,447.35 165.3,352.65 133.4,384.65 28.1,279.45 108.1,199.55 	
		"/>
</g>
<rect x="15.614" y="237.866" transform="matrix(-0.7071 0.7071 -0.7071 -0.7071 295.3829 364.6809)" style="fill:#FFFFFF;" width="113.099" height="11.3"/>
<polygon style="fill:#FC6E51;" points="196,439.35 188,447.35 124.1,447.35 164,407.35 "/>
<polygon style="fill:#FFFFFF;" points="172,415.35 164,407.35 124.1,447.35 140.1,447.35 "/>
<polygon style="fill:#5D9CEC;" points="507.8,399.35 507.8,447.35 459.9,447.35 "/>
<polygon style="fill:#3A3847;" points="507.8,415.35 507.8,399.35 459.9,447.35 475.8,447.35 "/>
<polygon style="fill:#A0D468;" points="507.8,343.45 507.8,399.35 459.9,447.35 403.9,447.35 "/>
<g>
	<polygon style="fill:#FFFFFF;" points="507.8,343.45 403.9,447.35 419.9,447.35 507.8,359.45 	"/>
	<polygon style="fill:#FFFFFF;" points="403.9,447.35 363.9,447.35 387.9,423.35 156.1,191.55 156.1,183.55 196,183.55 196,191.55 
		407.9,403.35 507.8,303.45 507.8,343.45 	"/>
</g>
<polygon style="fill:#FC6E51;" points="507.8,175.55 507.8,239.45 491.8,255.45 459.9,223.45 "/>
<polygon style="fill:#FFFFFF;" points="507.8,175.55 459.9,223.45 467.8,231.45 507.8,191.55 "/>
<polygon style="fill:#FC6E51;" points="4.6,135.75 4.2,247.45 60.1,191.55 "/>
<g>
	<polygon style="fill:#94C1FF;" points="100.1,415.35 68.1,447.35 4.2,447.35 4.2,319.85 4.6,319.85 	"/>
	<polygon style="fill:#94C1FF;" points="196,439.35 188,447.35 124.1,447.35 164,407.35 	"/>
</g>
<polygon style="fill:#D7E9FF;" points="172,415.35 164,407.35 124.1,447.35 140.1,447.35 "/>
<polygon style="fill:#FFFFFF;" points="507.8,399.35 507.8,447.35 459.9,447.35 "/>
<polygon style="fill:#D7E9FF;" points="507.8,343.45 507.8,399.35 459.9,447.35 403.9,447.35 "/>
<polygon style="fill:#94C1FF;" points="507.8,175.55 507.8,239.45 491.8,255.45 459.9,223.45 "/>
<polygon style="fill:#D7E9FF;" points="507.8,175.55 459.9,223.45 467.8,231.45 507.8,191.55 "/>
<polygon style="fill:#94C1FF;" points="4.6,135.75 4.2,247.45 60.1,191.55 "/>
<path style="fill:#5C9EFF;" d="M172,63.95c53,0,95.9,42.9,95.9,95.9c0,52.9-75.1,159.9-95.9,159.9c-14.3,0-54.3-50.5-77.9-99.4
	c-5.4-11.1-9.9-22.1-13-32.4c-3.2-10.3-5-19.9-5-28.1C76.1,106.95,119,63.95,172,63.95z"/>
<path style="fill:#2287FF;" d="M235.7,88.25c15.1,16.9,24.3,39.2,24.3,63.7c0,52.9-75.1,159.9-95.9,159.9c-3.6,0-8.9-3.2-15.1-8.9
	c9.7,10.4,18,16.9,23.1,16.9c20.9,0,95.9-107,95.9-159.9C268,131.35,255.5,105.85,235.7,88.25z"/>
<path style="fill:#94C1FF;" d="M102.2,228.45c-5.4-11.1-9.9-22.1-13-32.4c-3.2-10.3-5-19.9-5-28.1c0-53,42.9-95.9,95.9-95.9
	c24.5,0,46.7,9.2,63.7,24.3c-17.6-19.8-43.1-32.3-71.7-32.3c-53,0-95.9,42.9-95.9,95.9c0,8.2,1.8,17.8,5,28.1
	c3.1,10.3,7.7,21.3,13,32.4c17.6,36.5,44.4,73.9,62.8,90.5C139.4,292.05,117.4,259.95,102.2,228.45z"/>
<path style="fill:#FFFFFF;" d="M407.9,403.35l-166.5-166.5c-4.7,8.6-9.8,17-15,25l161.5,161.5l-24,24h40l103.9-104v-40L407.9,403.35
	z"/>
<path style="fill:#94C1FF;" d="M202.8,294.25c-12.9,15.5-24.4,25.6-30.8,25.6c-14.3,0-54.3-50.5-77.9-99.4c-0.8-1.6-1.5-3.2-2.2-4.8
	l-63.8,63.8l105.2,105.2l32-32l94.7,94.7h32l32-32L202.8,294.25z"/>
<path style="fill:#D7E9FF;" d="M94.2,220.45c-0.8-1.6-1.5-3.2-2.2-4.8l-63.8,63.8l8,8l61-61C96.2,224.45,95.1,222.45,94.2,220.45z"
	/>
<polygon style="fill:#94C1FF;" points="443.9,191.95 403.9,151.95 443.9,111.95 507.8,111.95 507.8,127.95 "/>
<g>
	<polygon style="fill:#D7E9FF;" points="443.9,111.95 403.9,151.95 411.9,159.95 459.9,111.95 	"/>
	<polygon style="fill:#D7E9FF;" points="219.8,153.95 171.9,111.95 123.9,153.95 123.9,215.85 219.8,215.85 	"/>
</g>
<polygon style="fill:#FFFFFF;" points="123.9,153.95 123.9,215.85 131.9,215.85 131.9,146.95 "/>
<g>
	<polygon style="fill:#94C1FF;" points="220,153.95 220,215.85 212,215.85 212,146.95 	"/>
	<rect x="140.1" y="167.95" style="fill:#94C1FF;" width="31.8" height="24"/>
	<rect x="187.9" y="183.85" style="fill:#94C1FF;" width="15.9" height="31.7"/>
</g>
<g>
	<path style="fill:#116FFF;" d="M363.7,451.75c-1,0-2-0.4-2.8-1.2c-1.6-1.6-1.6-4.1,0-5.7l24-24c1.6-1.6,4.1-1.6,5.7,0
		s1.6,4.1,0,5.7l-24,24C365.8,451.35,364.8,451.75,363.7,451.75z"/>
	<path style="fill:#116FFF;" d="M407.7,407.75c-1,0-2-0.4-2.8-1.2c-1.6-1.6-1.6-4.1,0-5.7l99.9-99.9c1.6-1.6,4.1-1.6,5.7,0
		c1.6,1.6,1.6,4.1,0,5.7l-99.9,99.9C409.7,407.35,408.7,407.75,407.7,407.75z"/>
	<path style="fill:#116FFF;" d="M403.7,451.75c-1,0-2-0.4-2.8-1.2c-1.6-1.6-1.6-4.1,0-5.7l103.9-103.9c1.6-1.6,4.1-1.6,5.7,0
		c1.6,1.6,1.6,4.1,0,5.7l-104,103.9C405.7,451.35,404.7,451.75,403.7,451.75z"/>
	<path style="fill:#116FFF;" d="M407.7,407.75c-1,0-2-0.4-2.8-1.2L257,258.65c-1.6-1.6-1.6-4.1,0-5.7c1.6-1.6,4.1-1.6,5.7,0
		l147.9,147.9c1.6,1.6,1.6,4.1,0,5.7C409.7,407.35,408.7,407.75,407.7,407.75z"/>
	<path style="fill:#116FFF;" d="M387.7,427.75c-1,0-2-0.4-2.8-1.2L241,282.65c-1.6-1.6-1.6-4.1,0-5.7s4.1-1.6,5.7,0l143.9,143.9
		c1.6,1.6,1.6,4.1,0,5.7C389.8,427.35,388.7,427.75,387.7,427.75z"/>
</g>
<rect x="336.264" y="180.354" transform="matrix(-0.7071 0.7071 -0.7071 -0.7071 825.0504 177.26)" style="fill:#94C1FF;" width="79.099" height="158.298"/>
<rect x="284.4" y="201.853" transform="matrix(-0.7071 0.7071 -0.7071 -0.7071 699.7435 125.1625)" style="fill:#D7E9FF;" width="79.099" height="11.3"/>
<g>
	<path style="fill:#116FFF;" d="M462.5,285.05L462.5,285.05l-111.9-112l0,0c-1.2-1.2-2.9-1.5-4.3-0.9c-0.5,0.2-0.9,0.5-1.3,0.9l0,0
		l-56,56l0,0c-1.6,1.6-1.6,4.1,0,5.7l111.9,111.9c0.8,0.8,1.8,1.2,2.8,1.2c0.3,0,0.5,0,0.8-0.1c0.8-0.1,1.5-0.5,2.1-1.1l56-56l0,0
		c0.8-0.8,1.2-1.8,1.2-2.8S463.3,285.75,462.5,285.05z M403.7,338.15l-106.3-106.3l50.3-50.3L454,287.85L403.7,338.15z"/>
	<path style="fill:#116FFF;" d="M491.6,259.85c-1,0-2-0.4-2.8-1.2c-1.6-1.6-1.6-4.1,0-5.7l16-16c1.6-1.6,4.1-1.6,5.7,0
		c1.6,1.6,1.6,4.1,0,5.7l-16,16C493.7,259.45,492.7,259.85,491.6,259.85z"/>
	<path style="fill:#116FFF;" d="M491.6,259.85c-1,0-2-0.4-2.8-1.2l-32-32c-1.6-1.6-1.6-4.1,0-5.7s4.1-1.6,5.7,0l32,32
		c1.6,1.6,1.6,4.1,0,5.7C493.7,259.45,492.7,259.85,491.6,259.85z"/>
	<path style="fill:#116FFF;" d="M459.7,227.85c-1,0-2-0.4-2.8-1.2c-1.6-1.6-1.6-4.1,0-5.7l48-48c1.6-1.6,4.1-1.6,5.7,0
		s1.6,4.1,0,5.7l-48,48C461.7,227.45,460.7,227.85,459.7,227.85z"/>
	<path style="fill:#116FFF;" d="M323.8,419.75c-1,0-2-0.4-2.8-1.2l-104-103.9c-1.6-1.6-1.6-4.1,0-5.7s4.1-1.6,5.7,0l103.9,103.9
		c1.6,1.6,1.6,4.1,0,5.7C325.8,419.35,324.8,419.75,323.8,419.75z"/>
	<path style="fill:#116FFF;" d="M291.8,451.75c-1,0-2-0.4-2.8-1.2c-1.6-1.6-1.6-4.1,0-5.7l32-32c1.6-1.6,4.1-1.6,5.7,0
		s1.6,4.1,0,5.7l-32,32C293.8,451.35,292.8,451.75,291.8,451.75z"/>
	<path style="fill:#116FFF;" d="M28,283.85c-1,0-2-0.4-2.8-1.2c-1.6-1.6-1.6-4.1,0-5.7l48-48c1.6-1.6,4.1-1.6,5.7,0s1.6,4.1,0,5.7
		l-48,48C30,283.45,29,283.85,28,283.85z"/>
	<path style="fill:#116FFF;" d="M133.1,389.05c-1,0-2-0.4-2.8-1.2L25.1,282.65c-1.6-1.6-1.6-4.1,0-5.7s4.1-1.6,5.7,0L136,382.15
		c1.6,1.6,1.6,4.1,0,5.7C135.2,388.65,134.2,389.05,133.1,389.05z"/>
	<path style="fill:#116FFF;" d="M133.1,389.05c-1,0-2-0.4-2.8-1.2c-1.6-1.6-1.6-4.1,0-5.7l32-32c1.6-1.6,4.1-1.6,5.7,0
		c1.6,1.6,1.6,4.1,0,5.7l-32,32C135.2,388.65,134.2,389.05,133.1,389.05z"/>
	<path style="fill:#116FFF;" d="M259.8,451.75c-1,0-2-0.4-2.8-1.2l-94.7-94.7c-1.6-1.6-1.6-4.1,0-5.7s4.1-1.6,5.7,0l94.7,94.7
		c1.6,1.6,1.6,4.1,0,5.7C261.8,451.35,260.8,451.75,259.8,451.75z"/>
	<path style="fill:#116FFF;" d="M187.8,451.75c-1,0-2-0.4-2.8-1.2c-1.6-1.6-1.6-4.1,0-5.7l8-8c1.6-1.6,4.1-1.6,5.7,0
		c1.6,1.6,1.6,4.1,0,5.7l-8,8C189.9,451.35,188.9,451.75,187.8,451.75z"/>
	<path style="fill:#116FFF;" d="M195.8,443.75c-1,0-2-0.4-2.8-1.2l-32-32c-1.6-1.6-1.6-4.1,0-5.7s4.1-1.6,5.7,0l32,32
		c1.6,1.6,1.6,4.1,0,5.7C197.9,443.35,196.9,443.75,195.8,443.75z"/>
	<path style="fill:#116FFF;" d="M123.9,451.75c-1,0-2-0.4-2.8-1.2c-1.6-1.6-1.6-4.1,0-5.7l40-40c1.6-1.6,4.1-1.6,5.7,0
		c1.6,1.6,1.6,4.1,0,5.7l-40,40C125.9,451.35,124.9,451.75,123.9,451.75z"/>
	<path style="fill:#116FFF;" d="M99.9,419.75c-1,0-2-0.4-2.8-1.2l-95.6-95.5c-1.6-1.6-1.6-4.1,0-5.7s4.1-1.6,5.7,0l95.6,95.6
		c1.6,1.6,1.6,4.1,0,5.7C102,419.35,100.9,419.75,99.9,419.75z"/>
	<path style="fill:#116FFF;" d="M67.9,451.75c-1,0-2-0.4-2.8-1.2c-1.6-1.6-1.6-4.1,0-5.7l32-32c1.6-1.6,4.1-1.6,5.7,0s1.6,4.1,0,5.7
		l-32,32C70,451.35,68.9,451.75,67.9,451.75z"/>
	<path style="fill:#116FFF;" d="M60,195.85c-1,0-2-0.4-2.8-1.2l-55.7-55.6c-1.6-1.6-1.6-4.1,0-5.7s4.1-1.6,5.7,0l55.6,55.7
		c1.6,1.6,1.6,4.1,0,5.7C62,195.45,61,195.85,60,195.85z"/>
	<path style="fill:#116FFF;" d="M4,251.85c-1,0-2-0.4-2.8-1.2c-1.6-1.6-1.6-4.1,0-5.7l56-56c1.6-1.6,4.1-1.6,5.7,0
		c1.6,1.6,1.6,4.1,0,5.7l-56,56C6,251.45,5,251.85,4,251.85z"/>
	<path style="fill:#116FFF;" d="M403.7,155.95c-1,0-2-0.4-2.8-1.2c-1.6-1.6-1.6-4.1,0-5.7l40-40c1.6-1.6,4.1-1.6,5.7,0
		s1.6,4.1,0,5.7l-40,40C405.7,155.55,404.7,155.95,403.7,155.95z"/>
	<path style="fill:#116FFF;" d="M291.8,155.95c-1,0-2-0.4-2.8-1.2c-1.6-1.6-1.6-4.1,0-5.7l40-40c1.6-1.6,4.1-1.6,5.7,0
		s1.6,4.1,0,5.7l-40,40C293.8,155.55,292.8,155.95,291.8,155.95z"/>
	<path style="fill:#116FFF;" d="M459.7,451.75c-1,0-2-0.4-2.8-1.2c-1.6-1.6-1.6-4.1,0-5.7l48-48c1.6-1.6,4.1-1.6,5.7,0
		s1.6,4.1,0,5.7l-48,48C461.7,451.35,460.7,451.75,459.7,451.75z"/>
	<path style="fill:#116FFF;" d="M443.7,195.85c-1,0-2-0.4-2.8-1.2l-40-40c-1.6-1.6-1.6-4.1,0-5.7c1.6-1.6,4.1-1.6,5.7,0l40,40
		c1.6,1.6,1.6,4.1,0,5.7C445.7,195.45,444.7,195.85,443.7,195.85z"/>
	<path style="fill:#116FFF;" d="M443.7,195.85c-1,0-2-0.4-2.8-1.2c-1.6-1.6-1.6-4.1,0-5.7l64-64c1.6-1.6,4.1-1.6,5.7,0
		s1.6,4.1,0,5.7l-64,64C445.7,195.45,444.7,195.85,443.7,195.85z"/>
	<path style="fill:#116FFF;" d="M507.6,451.75H4.3c-2.2,0-4-1.8-4-4v-335.8c0-2.2,1.8-4,4-4s4,1.8,4,4v331.8h495.3v-331.8
		c0-2.2,1.8-4,4-4s4,1.8,4,4v335.8C511.6,449.95,509.8,451.75,507.6,451.75z"/>
	<path style="fill:#116FFF;" d="M171.9,323.85c-23.6,0-99.9-108.4-99.9-163.9c0-55.1,44.8-99.9,99.9-99.9s99.9,44.8,99.9,99.9
		C271.8,215.45,195.5,323.85,171.9,323.85z M171.9,67.95c-50.7,0-91.9,41.2-91.9,91.9c0,53.6,74.7,155.9,91.9,155.9
		s91.9-102.3,91.9-155.8C263.8,109.25,222.6,67.95,171.9,67.95z"/>
	<path style="fill:#116FFF;" d="M59.9,115.95H4.3c-2.2,0-4-1.8-4-4s1.8-4,4-4h55.6c2.2,0,4,1.8,4,4S62.1,115.95,59.9,115.95z"/>
	<path style="fill:#116FFF;" d="M507.6,115.95H283.8c-2.2,0-4-1.8-4-4s1.8-4,4-4h223.9c2.2,0,4,1.8,4,4S509.8,115.95,507.6,115.95z"
		/>
	<path style="fill:#116FFF;" d="M107.9,171.95c-1.1,0-2.2-0.5-3-1.4c-1.5-1.7-1.3-4.2,0.4-5.6l64-56c1.7-1.5,4.2-1.3,5.6,0.4
		c1.5,1.7,1.3,4.2-0.4,5.6l-64,56C109.8,171.55,108.8,171.95,107.9,171.95z"/>
	<path style="fill:#116FFF;" d="M235.8,171.95c-0.9,0-1.9-0.3-2.6-1l-64-56c-1.7-1.5-1.8-4-0.4-5.6c1.5-1.7,4-1.8,5.6-0.4l64,56
		c1.7,1.5,1.8,4,0.4,5.6C238,171.45,236.9,171.95,235.8,171.95z"/>
	<path style="fill:#116FFF;" d="M123.9,219.85c-2.2,0-4-1.8-4-4v-48c0-2.2,1.8-4,4-4s4,1.8,4,4v48
		C127.9,218.05,126.1,219.85,123.9,219.85z"/>
	<path style="fill:#116FFF;" d="M219.8,219.85h-95.9c-2.2,0-4-1.8-4-4s1.8-4,4-4h95.9c2.2,0,4,1.8,4,4S222,219.85,219.8,219.85z"/>
	<path style="fill:#116FFF;" d="M219.8,219.85c-2.2,0-4-1.8-4-4v-48c0-2.2,1.8-4,4-4s4,1.8,4,4v48
		C223.8,218.05,222,219.85,219.8,219.85z"/>
	<path style="fill:#116FFF;" d="M187.8,219.85c-2.2,0-4-1.8-4-4v-32c0-2.2,1.8-4,4-4s4,1.8,4,4v32
		C191.8,218.05,190.1,219.85,187.8,219.85z"/>
	<path style="fill:#116FFF;" d="M203.8,219.85c-2.2,0-4-1.8-4-4v-32c0-2.2,1.8-4,4-4s4,1.8,4,4v32
		C207.8,218.05,206,219.85,203.8,219.85z"/>
	<path style="fill:#116FFF;" d="M171.9,195.85h-32c-2.2,0-4-1.8-4-4v-24c0-2.2,1.8-4,4-4h32c2.2,0,4,1.8,4,4v24
		C175.9,194.15,174.1,195.85,171.9,195.85z M143.9,187.85h24v-16h-24V187.85z"/>
	<path style="fill:#116FFF;" d="M203.8,187.85h-16c-2.2,0-4-1.8-4-4s1.8-4,4-4h16c2.2,0,4,1.8,4,4S206,187.85,203.8,187.85z"/>
</g>
<g>
</g>
<g>
</g>
<g>
</g>
<g>
</g>
<g>
</g>
<g>
</g>
<g>
</g>
<g>
</g>
<g>
</g>
<g>
</g>
<g>
</g>
<g>
</g>
<g>
</g>
<g>
</g>
<g>
</g>
</svg>
