<?xml version="1.0" encoding="iso-8859-1"?>
<!-- Generator: Adobe Illustrator 19.0.0, SVG Export Plug-In . SVG Version: 6.00 Build 0)  -->
<svg version="1.1" id="Capa_1" xmlns="http://www.w3.org/2000/svg" xmlns:xlink="http://www.w3.org/1999/xlink" x="0px" y="0px"
	 viewBox="0 0 511.557 511.557" style="enable-background:new 0 0 511.557 511.557;" xml:space="preserve">
<g>
	<polygon style="fill:#FFFFFF;" points="403.678,153.227 403.678,171.793 419.668,187.782 431.66,179.788 431.66,171.793 	"/>
	<polygon style="fill:#FFFFFF;" points="459.64,154.516 459.64,173.081 443.651,189.07 431.66,181.076 431.66,173.081 	"/>
</g>
<polygon style="fill:#D7E9FF;" points="332.352,187.782 252.407,195.777 276.39,203.771 12.57,323.685 36.553,331.68 
	28.559,355.664 284.384,219.76 283.76,235.749 "/>
<polygon style="fill:#FFFFFF;" points="276.39,211.766 266.241,208.385 12.57,323.685 22.716,327.065 "/>
<polygon style="fill:#94C1FF;" points="284.384,211.766 31.799,345.952 28.559,355.664 284.064,219.932 "/>
<g>
	<rect x="43.929" y="411.629" style="fill:#5C9EFF;" width="135.91" height="95.94"/>
	<rect x="203.809" y="315.699" style="fill:#5C9EFF;" width="135.91" height="191.86"/>
	<rect x="363.709" y="227.758" style="fill:#5C9EFF;" width="135.91" height="279.81"/>
</g>
<path style="fill:#D7E9FF;" d="M443.651,187.782l15.989-15.989l7.994-2.639c6.473,2.959,13.671,5.676,17.824,7.198
	c9.439,3.514,14.154,7.112,14.154,16.544c0,9.438,0,18.87,0,18.87v15.989h-31.979H363.706v-15.989c0,0,0-9.431,0-18.87
	c0-9.432,4.716-13.03,14.146-16.544c3.123-1.124,7.995-2.959,12.952-5.035l12.874,0.476l15.989,15.989l11.992-7.994L443.651,187.782
	z"/>
<path style="fill:#FFFFFF;" d="M379.695,192.896c0-9.432,4.715-13.03,14.146-16.544c2.576-0.929,6.371-2.357,10.407-3.989
	l-0.57-0.57l-12.874-0.476c-4.957,2.076-9.829,3.911-12.952,5.035c-9.431,3.514-14.146,7.112-14.146,16.544c0,9.438,0,18.87,0,18.87
	v15.989h15.989v-15.989C379.695,211.766,379.695,202.335,379.695,192.896z"/>
<path style="fill:#94C1FF;" d="M483.625,192.896c0-9.432-4.716-13.03-14.155-16.544c-2.576-0.929-6.362-2.357-10.399-3.989
	l0.57-0.57l12.866-0.476c4.958,2.076,9.837,3.911,12.952,5.035c9.439,3.514,14.154,7.112,14.154,16.544c0,9.438,0,18.87,0,18.87
	v15.989h-15.988v-15.989C483.625,211.766,483.625,202.335,483.625,192.896z"/>
<path style="fill:#5C9EFF;" d="M397.682,64.507c0,0,79.462-30.3,73.95,43.33l-12.07-15.029
	c-24.865-1.437-52.847,9.829-67.875,17.027c-6.879,3.279-11.032,5.676-11.032,5.676c0-35.414,23.102-45.329,23.102-45.329
	L397.682,64.507z"/>
<path style="fill:#2287FF;" d="M426.967,58.464c17.964,1.007,35.812,9.673,36.842,39.629l7.823,9.743
	C474.857,64.749,448.992,57.269,426.967,58.464z"/>
<path style="fill:#94C1FF;" d="M411.799,72.859l-6.121-8.354c0,0,13.678-5.199,29.285-6.042c-18.613-1.046-37.28,6.042-37.28,6.042
	l6.074,5.676c0,0-23.102,9.915-23.102,45.329c0,0,3.1-1.756,8.167-4.271C390.609,79.348,411.799,72.859,411.799,72.859z"/>
<path style="fill:#D7E9FF;" d="M471.633,107.837v12.468c0,26.787-24.788,51.488-39.973,51.488
	c-15.193,0-39.973-24.702-39.973-51.488v-10.469c15.028-7.198,43.01-18.464,67.875-17.027L471.633,107.837z"/>
<path style="fill:#94C1FF;" d="M459.562,92.807c-2.631-0.148-5.301-0.094-7.979,0.023l12.055,15.005v12.468
	c0,24.554-20.807,47.296-35.977,50.927c1.383,0.328,2.732,0.562,3.998,0.562c15.185,0,39.973-24.702,39.973-51.488v-12.468
	L459.562,92.807z"/>
<path style="fill:#FFFFFF;" d="M399.681,120.303v-10.469c13.436-6.441,37.225-16.059,59.896-17.004l-0.016-0.023
	c-24.865-1.437-52.847,9.829-67.875,17.027v10.469c0,26.787,24.779,51.488,39.973,51.488c1.265,0,2.615-0.234,3.997-0.562
	C420.488,167.6,399.681,144.857,399.681,120.303z"/>
<polygon style="fill:#94C1FF;" points="459.64,35.884 403.678,35.884 403.678,11.901 419.668,19.896 431.66,3.906 443.651,19.896 
	459.64,11.901 "/>
<polygon style="fill:#D7E9FF;" points="403.678,11.901 403.678,35.884 411.674,35.884 411.674,15.899 "/>
<g style="opacity:0.2;">
	<polygon points="459.578,11.901 459.578,35.884 451.584,35.884 451.584,15.899 	"/>
</g>
<g>
	<rect x="43.929" y="411.629" style="fill:#94C1FF;" width="15.989" height="95.94"/>
	<rect x="203.809" y="315.689" style="fill:#94C1FF;" width="15.989" height="191.87"/>
	<rect x="363.709" y="227.758" style="fill:#94C1FF;" width="15.989" height="279.81"/>
</g>
<g>
	<rect x="483.629" y="227.758" style="fill:#2287FF;" width="15.988" height="279.81"/>
	<rect x="324.359" y="315.689" style="fill:#2287FF;" width="15.989" height="191.87"/>
	<rect x="164.469" y="411.629" style="fill:#2287FF;" width="15.989" height="95.94"/>
</g>
<g>
	<path style="fill:#116FFF;" d="M431.894,199.773c-2.202,0-4.037-1.788-4.037-3.997c0-2.21,1.749-3.998,3.959-3.998h0.078
		c2.209,0,3.997,1.788,3.997,3.998C435.891,197.986,434.103,199.773,431.894,199.773z"/>
	<path style="fill:#116FFF;" d="M363.706,223.758c-2.21,0-3.997-1.788-3.997-3.997v-26.864c0-11.703,6.41-16.442,16.754-20.291
		c3.107-1.125,7.917-2.928,12.796-4.974l4.786-2.123c2.014-0.929,4.38-0.008,5.285,2.006c0.906,2.015,0,4.38-2.014,5.286
		l-4.856,2.154c-5.138,2.155-10.087,4.021-13.249,5.161c-9.135,3.396-11.508,6.027-11.508,12.781v26.864
		C367.703,221.969,365.916,223.758,363.706,223.758z"/>
	<path style="fill:#116FFF;" d="M499.613,223.758c-2.209,0-3.997-1.788-3.997-3.997v-26.864c0-6.754-2.373-9.385-11.547-12.796
		c-7.011-2.569-13.101-5.028-18.097-7.307c-2.007-0.922-2.889-3.295-1.976-5.302c0.921-1.998,3.287-2.88,5.302-1.975
		c4.73,2.17,10.797,4.614,17.534,7.081c10.368,3.856,16.778,8.596,16.778,20.299v26.864
		C503.611,221.969,501.823,223.758,499.613,223.758z"/>
	<path style="fill:#116FFF;" d="M380.655,119.507c-0.694,0-1.382-0.18-1.998-0.539c-1.241-0.71-1.999-2.03-1.999-3.458
		c0-27.458,13.046-40.707,20.494-46.023l-2.202-2.062c-1.007-0.944-1.46-2.334-1.194-3.692c0.266-1.351,1.21-2.467,2.498-2.959
		c0.695-0.266,17.09-6.441,34.883-6.441c14.725,0,26.076,4.192,33.75,12.46c8.486,9.15,12.102,23.055,10.728,41.339
		c-0.117,1.639-1.233,3.037-2.795,3.521c-1.577,0.508-3.279-0.031-4.302-1.312l-10.946-13.623
		c-23.766-0.648-50.63,10.243-64.16,16.723c-6.651,3.17-10.695,5.496-10.766,5.535C382.029,119.329,381.342,119.507,380.655,119.507
		z M405.388,66.24l1.093,1.022c0.991,0.921,1.444,2.28,1.21,3.607c-0.234,1.327-1.116,2.451-2.357,2.982
		c-0.766,0.343-17.824,8.213-20.369,34.835c1.452-0.741,3.131-1.569,4.997-2.459c14.536-6.964,43.829-18.94,69.827-17.41
		c1.132,0.062,2.178,0.602,2.889,1.483l5.121,6.379c-0.593-10.603-3.528-18.792-8.768-24.444
		c-6.104-6.574-15.488-9.907-27.895-9.907C421.175,62.328,411.455,64.521,405.388,66.24z"/>
	<path style="fill:#116FFF;" d="M431.66,175.79c-18.395,0-43.971-27.958-43.971-55.486c0-2.209,1.788-3.997,3.998-3.997
		c2.209,0,3.997,1.788,3.997,3.997c0,24.023,22.758,47.491,35.976,47.491c13.209,0,35.975-23.468,35.975-47.491
		c0-2.209,1.788-3.997,3.998-3.997c2.209,0,3.997,1.788,3.997,3.997C475.63,147.833,450.046,175.79,431.66,175.79z"/>
	<path style="fill:#116FFF;" d="M363.706,511.557c-2.21,0-3.997-1.788-3.997-3.998V227.755c0-2.209,1.787-3.997,3.997-3.997
		s3.997,1.788,3.997,3.997V507.56C367.703,509.77,365.916,511.557,363.706,511.557z"/>
	<path style="fill:#116FFF;" d="M499.613,511.557c-2.209,0-3.997-1.788-3.997-3.998V227.755c0-2.209,1.788-3.997,3.997-3.997
		c2.21,0,3.998,1.788,3.998,3.997V507.56C503.611,509.77,501.823,511.557,499.613,511.557z"/>
	<path style="fill:#116FFF;" d="M391.687,124.301c-2.21,0-3.998-1.788-3.998-3.998v-10.469c0-2.209,1.788-3.998,3.998-3.998
		c2.209,0,3.997,1.788,3.997,3.998v10.469C395.684,122.514,393.896,124.301,391.687,124.301z"/>
	<path style="fill:#116FFF;" d="M471.633,124.301c-2.21,0-3.998-1.788-3.998-3.998v-12.468c0-2.209,1.788-3.997,3.998-3.997
		c2.209,0,3.997,1.788,3.997,3.997v12.468C475.63,122.514,473.841,124.301,471.633,124.301z"/>
	<path style="fill:#116FFF;" d="M419.668,191.779c-1.022,0-2.045-0.39-2.826-1.171l-15.989-15.989c-1.562-1.562-1.562-4.091,0-5.653
		c1.562-1.561,4.091-1.561,5.652,0l15.989,15.989c1.562,1.562,1.562,4.091,0,5.652C421.713,191.389,420.69,191.779,419.668,191.779z
		"/>
	<path style="fill:#116FFF;" d="M419.668,191.779c-1.288,0-2.561-0.625-3.326-1.78c-1.226-1.835-0.733-4.317,1.109-5.543
		l11.991-7.995c1.835-1.226,4.317-0.726,5.543,1.108c1.226,1.835,0.727,4.317-1.108,5.543l-11.992,7.995
		C421.198,191.561,420.433,191.779,419.668,191.779z"/>
	<path style="fill:#116FFF;" d="M443.651,191.779c-1.022,0-2.045-0.39-2.826-1.171c-1.562-1.562-1.562-4.091,0-5.652l15.989-15.989
		c1.562-1.561,4.091-1.561,5.652,0c1.562,1.562,1.562,4.091,0,5.653l-15.989,15.989
		C445.697,191.389,444.674,191.779,443.651,191.779z"/>
	<path style="fill:#116FFF;" d="M443.643,191.779c-0.757,0-1.53-0.219-2.209-0.671l-11.992-7.995
		c-1.843-1.226-2.334-3.708-1.108-5.543c1.218-1.834,3.693-2.334,5.543-1.108l11.992,7.995c1.834,1.226,2.334,3.708,1.108,5.543
		C446.205,191.155,444.939,191.779,443.643,191.779z"/>
	<path style="fill:#116FFF;" d="M499.613,231.752H363.706c-2.21,0-3.997-1.788-3.997-3.998c0-2.209,1.787-3.997,3.997-3.997h135.907
		c2.21,0,3.998,1.788,3.998,3.997C503.611,229.965,501.823,231.752,499.613,231.752z"/>
	<path style="fill:#116FFF;" d="M203.814,511.557c-2.209,0-3.997-1.788-3.997-3.998V315.69c0-2.209,1.788-3.997,3.997-3.997
		c2.21,0,3.998,1.788,3.998,3.997V507.56C207.812,509.77,206.024,511.557,203.814,511.557z"/>
	<path style="fill:#116FFF;" d="M339.722,511.557c-2.21,0-3.998-1.788-3.998-3.998V315.69c0-2.209,1.788-3.997,3.998-3.997
		c2.209,0,3.997,1.788,3.997,3.997V507.56C343.719,509.77,341.931,511.557,339.722,511.557z"/>
	<path style="fill:#116FFF;" d="M339.722,319.688H203.814c-2.209,0-3.997-1.788-3.997-3.997s1.788-3.997,3.997-3.997h135.908
		c2.209,0,3.997,1.788,3.997,3.997S341.931,319.688,339.722,319.688z"/>
	<path style="fill:#116FFF;" d="M43.924,511.557c-2.21,0-3.997-1.788-3.997-3.998v-95.935c0-2.209,1.787-3.997,3.997-3.997
		c2.209,0,3.997,1.788,3.997,3.997v95.935C47.921,509.77,46.133,511.557,43.924,511.557z"/>
	<path style="fill:#116FFF;" d="M179.831,511.557c-2.209,0-3.997-1.788-3.997-3.998v-95.935c0-2.209,1.788-3.997,3.997-3.997
		c2.21,0,3.997,1.788,3.997,3.997v95.935C183.828,509.77,182.041,511.557,179.831,511.557z"/>
	<path style="fill:#116FFF;" d="M179.831,415.622H43.924c-2.21,0-3.997-1.787-3.997-3.997c0-2.209,1.787-3.997,3.997-3.997h135.907
		c2.21,0,3.997,1.788,3.997,3.997C183.828,413.836,182.041,415.622,179.831,415.622z"/>
	<path style="fill:#116FFF;" d="M459.64,39.882h-55.962c-2.209,0-3.997-1.788-3.997-3.997V11.901c0-1.382,0.719-2.67,1.897-3.404
		c1.171-0.726,2.646-0.788,3.888-0.172l13.007,6.504l9.985-13.319c1.507-2.014,4.887-2.014,6.395,0l9.992,13.319l13.008-6.504
		c1.232-0.624,2.701-0.554,3.888,0.172c1.179,0.734,1.897,2.022,1.897,3.404v23.983C463.638,38.095,461.85,39.882,459.64,39.882z
		 M407.675,31.888h47.968V18.365l-10.204,5.106c-1.733,0.851-3.825,0.375-4.988-1.179l-8.791-11.726l-8.799,11.726
		c-1.156,1.554-3.248,2.03-4.981,1.179l-10.204-5.106L407.675,31.888L407.675,31.888z"/>
	<path style="fill:#116FFF;" d="M275.765,247.741c-1.022,0-2.045-0.39-2.826-1.171c-1.561-1.562-1.561-4.091,0-5.652l55.962-55.962
		c1.562-1.562,4.091-1.562,5.653,0c1.561,1.562,1.561,4.091,0,5.652l-55.963,55.962
		C277.811,247.351,276.789,247.741,275.765,247.741z"/>
	<path style="fill:#116FFF;" d="M251.778,199.773c-2.026,0-3.763-1.538-3.974-3.6c-0.223-2.193,1.378-4.153,3.575-4.372l79.95-7.995
		c2.193-0.211,4.153,1.382,4.371,3.576c0.219,2.202-1.381,4.153-3.583,4.372l-79.934,7.995
		C252.048,199.766,251.911,199.773,251.778,199.773z"/>
	<path style="fill:#116FFF;" d="M27.938,359.661c-1.433,0-2.814-0.773-3.532-2.124c-1.039-1.952-0.297-4.364,1.654-5.402
		l255.826-135.904c1.937-1.054,4.364-0.289,5.402,1.655c1.039,1.952,0.297,4.364-1.654,5.403L29.808,359.193
		C29.211,359.513,28.571,359.661,27.938,359.661z"/>
	<path style="fill:#116FFF;" d="M11.949,327.682c-1.522,0-2.975-0.867-3.642-2.343c-0.914-2.014-0.027-4.38,1.982-5.293
		L274.11,200.132c2.021-0.906,4.387-0.023,5.293,1.983c0.913,2.015,0.023,4.38-1.983,5.293L13.6,327.324
		C13.061,327.565,12.5,327.682,11.949,327.682z"/>
	<path style="fill:#116FFF;" d="M27.934,359.661c-0.418,0-0.843-0.062-1.265-0.203c-2.093-0.703-3.225-2.967-2.525-5.06
		l7.994-23.983c0.699-2.085,2.947-3.232,5.056-2.529c2.092,0.702,3.224,2.967,2.525,5.059l-7.995,23.983
		C31.167,358.599,29.609,359.661,27.934,359.661z"/>
	<path style="fill:#116FFF;" d="M35.928,335.677c-0.417,0-0.843-0.062-1.265-0.203L10.68,327.48
		c-2.092-0.703-3.225-2.967-2.525-5.06c0.694-2.092,2.936-3.239,5.055-2.529l23.984,7.995c2.092,0.702,3.224,2.967,2.525,5.059
		C39.161,334.616,37.603,335.677,35.928,335.677z"/>
	<path style="fill:#116FFF;" d="M75.902,511.557c-2.21,0-3.998-1.788-3.998-3.998v-31.979c0-2.209,1.788-3.997,3.998-3.997
		c2.209,0,3.997,1.788,3.997,3.997v31.979C79.899,509.77,78.111,511.557,75.902,511.557z"/>
	<path style="fill:#116FFF;" d="M147.852,463.591c-2.209,0-3.997-1.788-3.997-3.997v-47.968c0-2.209,1.788-3.997,3.997-3.997
		c2.21,0,3.998,1.788,3.998,3.997v47.968C151.85,461.802,150.062,463.591,147.852,463.591z"/>
	<path style="fill:#116FFF;" d="M243.788,391.638c-2.21,0-3.998-1.788-3.998-3.997V315.69c0-2.209,1.788-3.997,3.998-3.997
		c2.209,0,3.997,1.788,3.997,3.997v71.951C247.785,389.85,245.997,391.638,243.788,391.638z"/>
	<path style="fill:#116FFF;" d="M307.744,511.557c-2.209,0-3.997-1.788-3.997-3.998v-87.939c0-2.21,1.788-3.998,3.997-3.998
		s3.997,1.788,3.997,3.998v87.939C311.741,509.77,309.953,511.557,307.744,511.557z"/>
	<path style="fill:#116FFF;" d="M403.678,511.557c-2.209,0-3.997-1.788-3.997-3.998V363.658c0-2.209,1.788-3.996,3.997-3.996
		c2.21,0,3.997,1.787,3.997,3.996V507.56C407.675,509.77,405.888,511.557,403.678,511.557z"/>
	<path style="fill:#116FFF;" d="M467.634,335.677c-2.209,0-3.996-1.788-3.996-3.997V227.755c0-2.209,1.787-3.997,3.996-3.997
		c2.21,0,3.998,1.788,3.998,3.997v103.926C471.633,333.888,469.844,335.677,467.634,335.677z"/>
</g>
<g>
</g>
<g>
</g>
<g>
</g>
<g>
</g>
<g>
</g>
<g>
</g>
<g>
</g>
<g>
</g>
<g>
</g>
<g>
</g>
<g>
</g>
<g>
</g>
<g>
</g>
<g>
</g>
<g>
</g>
</svg>
