<?xml version="1.0" encoding="iso-8859-1"?>
<!-- Generator: Adobe Illustrator 19.0.0, SVG Export Plug-In . SVG Version: 6.00 Build 0)  -->
<svg version="1.1" id="Capa_1" xmlns="http://www.w3.org/2000/svg" xmlns:xlink="http://www.w3.org/1999/xlink" x="0px" y="0px"
	 viewBox="0 0 511.875 511.875" style="enable-background:new 0 0 511.875 511.875;" xml:space="preserve">
<path style="fill:#FFFFFF;" d="M507.875,339.839v32.148c0,13.2-10.793,23.994-23.994,23.994H255.937v-16.152
	c6.639,0,11.996-5.358,11.996-11.997s-5.357-11.997-11.996-11.997v-15.996L507.875,339.839L507.875,339.839z"/>
<path style="fill:#94C1FF;" d="M255.937,355.835c6.639,0,11.996,5.358,11.996,11.997s-5.357,11.997-11.996,11.997
	c-6.639,0-11.997-5.358-11.997-11.997S249.298,355.835,255.937,355.835z"/>
<g>
	<path style="fill:#D7E9FF;" d="M507.875,371.987v15.84c0,13.513-10.48,23.994-23.994,23.994c-5.678,0-85.018,0-176.035,0
		c-34.068,0-69.744,0-103.817,0c-91.017,0-170.357,0-176.035,0C14.478,411.821,4,401.34,4,387.827v-15.84
		c0,13.2,10.798,23.994,23.994,23.994h227.943H483.88C497.082,395.982,507.875,385.188,507.875,371.987z"/>
	<path style="fill:#D7E9FF;" d="M307.845,411.822l15.996,71.982H188.032l15.996-71.982
		C238.102,411.822,273.777,411.822,307.845,411.822z"/>
</g>
<path style="fill:#FFFFFF;" d="M12.196,389.888c-4.979-4.404-8.197-10.763-8.197-17.901v15.84c0,13.513,10.478,23.994,23.994,23.994
	c0.895,0,3.671,0,7.998,0C23.182,411.822,13.22,402.371,12.196,389.888z"/>
<path style="fill:#94C1FF;" d="M499.673,389.888c-1.016,12.481-10.98,21.933-23.791,21.933c4.328,0,7.107,0,7.998,0
	c13.514,0,23.994-10.481,23.994-23.994v-15.84C507.875,379.125,504.658,385.484,499.673,389.888z"/>
<path style="fill:#FFFFFF;" d="M255.937,379.829v16.152H27.993c-13.196,0-23.994-10.794-23.994-23.994v-0.156V339.84h251.938v15.996
	c-6.639,0-11.997,5.358-11.997,11.997S249.298,379.829,255.937,379.829z"/>
<path style="fill:#94C1FF;" d="M507.875,52.069v287.77H255.937H3.999V52.069c0-13.195,10.798-23.994,23.994-23.994H483.88
	C497.082,28.075,507.875,38.874,507.875,52.069z M483.88,315.845V67.906V51.909h-15.996h-15.996h-23.994h-15.996h-15.996h-15.996
	H363.91H187.954h-31.992H123.97H91.978H59.985H27.993v15.996v247.939L483.88,315.845L483.88,315.845z"/>
<path style="fill:#D7E9FF;" d="M35.991,28.075h-7.998c-13.196,0-23.994,10.799-23.994,23.994v287.77h7.998V52.069
	C11.997,38.874,22.795,28.075,35.991,28.075z"/>
<path style="fill:#5C9EFF;" d="M483.88,28.075h-7.998c13.201,0,23.994,10.799,23.994,23.994v287.77h7.998V52.069
	C507.875,38.874,497.082,28.075,483.88,28.075z"/>
<g>
	<path style="fill:#94C1FF;" d="M309.626,419.819l-1.781-7.998c-34.068,0-69.744,0-103.817,0l-1.777,7.998
		C237.895,419.819,273.98,419.819,309.626,419.819z"/>
	<path style="fill:#94C1FF;" d="M301.621,419.819l14.223,63.984h7.998l-14.223-63.984
		C306.957,419.819,304.285,419.819,301.621,419.819z"/>
</g>
<g>
	<path style="fill:#FFFFFF;" d="M210.253,419.819l-14.223,63.984h-7.998l14.223-63.984
		C204.922,419.819,207.586,419.819,210.253,419.819z"/>
	<rect x="27.997" y="67.988" style="fill:#FFFFFF;" width="455.89" height="247.86"/>
</g>
<rect x="27.997" y="51.909" style="fill:#D7E9FF;" width="455.89" height="16.07"/>
<rect x="51.987" y="91.978" style="fill:#94C1FF;" width="407.9" height="63.984"/>
<path style="fill:#D7E9FF;" d="M483.88,483.882c-13.512,0-74.465,0-87.979,0c-13.512,0-23.994-10.482-23.994-23.994v-15.996
	c0.078,13.122,10.873,23.838,23.994,23.838h87.979c13.123,0,23.838-10.638,23.994-23.682v15.84
	C507.875,473.4,497.394,483.882,483.88,483.882z"/>
<path style="fill:#FFFFFF;" d="M380.062,461.527c-4.928-4.342-8.115-10.599-8.154-17.636v15.996
	c0,13.512,10.482,23.994,23.994,23.994c1.836,0,4.641,0,7.998,0C390.951,483.882,380.89,474.228,380.062,461.527z"/>
<path style="fill:#94C1FF;" d="M499.72,461.527c-0.828,12.7-10.887,22.354-23.838,22.354c3.359,0,6.164,0,7.998,0
	c13.514,0,23.994-10.482,23.994-23.994v-15.996C507.835,450.928,504.65,457.185,499.72,461.527z"/>
<path style="fill:#FFFFFF;" d="M420.13,363.911c0,4.397-3.592,7.998-7.998,7.998c-4.389,0-7.998-3.601-7.998-7.998
	s3.609-7.998,7.998-7.998C416.539,355.914,420.13,359.513,420.13,363.911z"/>
<g>
	<polygon style="fill:#D7E9FF;" points="435.892,371.753 447.656,389.583 443.89,395.904 419.896,395.904 	"/>
	<polygon style="fill:#D7E9FF;" points="467.884,355.757 491.878,395.904 443.89,395.904 447.656,389.583 	"/>
</g>
<path style="fill:#94C1FF;" d="M440.126,443.892c4.404,0,7.998,3.601,7.998,7.998s-3.594,7.998-7.998,7.998
	c-4.391,0-7.998-3.601-7.998-7.998S435.736,443.892,440.126,443.892z"/>
<path style="fill:#FFFFFF;" d="M491.878,339.917H387.904v55.986h31.992h23.994h47.988V339.917z M491.878,275.932H387.904v47.988
	h103.975v-47.988H491.878z M395.902,243.781h87.979c13.201,0,23.994,10.798,23.994,23.998v175.957c0,0.078,0,0.234,0,0.312
	c-0.156,13.044-10.871,23.682-23.994,23.682h-87.979c-13.121,0-23.916-10.716-23.994-23.838c0-0.078,0-0.078,0-0.156V267.779
	C371.908,254.579,382.703,243.781,395.902,243.781z M448.125,451.889c0-4.397-3.594-7.998-7.998-7.998
	c-4.391,0-7.998,3.601-7.998,7.998s3.607,7.998,7.998,7.998C444.531,459.888,448.125,456.288,448.125,451.889z"/>
<g>
	<path style="fill:#94C1FF;" d="M412.132,371.909c4.406,0,7.998-3.601,7.998-7.998s-3.592-7.998-7.998-7.998
		c-4.389,0-7.998,3.601-7.998,7.998S407.744,371.909,412.132,371.909z M435.892,371.753l-15.996,24.15h-31.992v-55.986h103.975
		v55.986l-23.994-40.146l-20.229,33.827L435.892,371.753z"/>
	<rect x="387.907" y="275.938" style="fill:#94C1FF;" width="103.97" height="47.988"/>
	<path style="fill:#94C1FF;" d="M91.978,203.951c-8.877,0-15.996,7.119-15.996,15.996s7.119,15.996,15.996,15.996
		s15.996-7.119,15.996-15.996S100.854,203.951,91.978,203.951z M51.987,179.956H243.94V291.93h-7.998l-51.987-79.98l-36.229,55.666
		l-15.758-23.596l-31.992,47.91H51.987V179.956z"/>
</g>
<path style="fill:#FFFFFF;" d="M91.978,203.951c8.877,0,15.996,7.119,15.996,15.996s-7.119,15.996-15.996,15.996
	s-15.996-7.119-15.996-15.996S83.101,203.951,91.978,203.951z"/>
<g>
	<polygon style="fill:#D7E9FF;" points="147.726,267.615 131.968,291.928 99.976,291.928 131.968,244.018 	"/>
	<polygon style="fill:#D7E9FF;" points="183.955,211.949 235.942,291.928 131.968,291.928 147.726,267.615 	"/>
	<rect x="387.907" y="275.938" style="fill:#D7E9FF;" width="7.998" height="47.988"/>
</g>
<rect x="483.877" y="275.938" style="fill:#5C9EFF;" width="7.998" height="47.988"/>
<rect x="387.907" y="339.918" style="fill:#D7E9FF;" width="7.998" height="55.57"/>
<rect x="483.877" y="339.918" style="fill:#5C9EFF;" width="7.998" height="55.57"/>
<rect x="51.987" y="179.958" style="fill:#D7E9FF;" width="7.998" height="111.97"/>
<g>
	<rect x="235.937" y="179.958" style="fill:#5C9EFF;" width="7.998" height="111.97"/>
	<rect x="451.887" y="91.978" style="fill:#5C9EFF;" width="7.998" height="63.984"/>
</g>
<rect x="51.987" y="91.978" style="fill:#D7E9FF;" width="7.998" height="63.984"/>
<g>
	<path style="fill:#116FFF;" d="M44.228,63.984c-2.207,0-4.038-1.788-4.038-3.999c0-2.21,1.75-3.999,3.96-3.999h0.078
		c2.21,0,3.999,1.789,3.999,3.999C48.227,62.196,46.437,63.984,44.228,63.984z"/>
	<path style="fill:#116FFF;" d="M60.224,63.984c-2.207,0-4.038-1.788-4.038-3.999c0-2.21,1.75-3.999,3.96-3.999h0.078
		c2.21,0,3.999,1.789,3.999,3.999C64.223,62.196,62.434,63.984,60.224,63.984z"/>
	<path style="fill:#116FFF;" d="M76.22,63.984c-2.207,0-4.038-1.788-4.038-3.999c0-2.21,1.75-3.999,3.96-3.999h0.078
		c2.21,0,3.999,1.789,3.999,3.999C80.219,62.196,78.43,63.984,76.22,63.984z"/>
	<path style="fill:#116FFF;" d="M363.91,343.759H3.999c-2.21,0-3.999-1.797-3.999-3.999c0-2.218,1.789-3.999,3.999-3.999H363.91
		c2.211,0,4,1.781,4,3.999C367.91,341.962,366.121,343.759,363.91,343.759z"/>
	<path style="fill:#116FFF;" d="M255.937,383.75c-8.822,0-15.996-7.178-15.996-15.996c0-8.826,7.174-15.996,15.996-15.996
		c8.826,0,15.996,7.17,15.996,15.996C271.933,376.573,264.763,383.75,255.937,383.75z M255.937,359.755
		c-4.409,0-7.998,3.585-7.998,7.998c0,4.405,3.589,7.998,7.998,7.998c4.408,0,7.998-3.593,7.998-7.998
		C263.935,363.341,260.345,359.755,255.937,359.755z"/>
	<path style="fill:#116FFF;" d="M188.036,487.724c-0.289,0-0.582-0.031-0.875-0.094c-2.156-0.484-3.511-2.625-3.034-4.78
		l15.977-71.717c0.355-1.858,1.976-3.312,3.925-3.312c2.21,0,3.999,1.703,3.999,3.921v0.156c0,0.297-0.031,0.586-0.094,0.874
		l-15.997,71.819C191.52,486.458,189.867,487.724,188.036,487.724z"/>
	<path style="fill:#116FFF;" d="M323.841,487.724c-1.834,0-3.482-1.266-3.904-3.133l-15.996-71.818
		c-0.062-0.288-0.094-0.577-0.094-0.874c0-2.211,1.789-4.077,3.998-4.077c2.094,0,3.812,1.531,3.984,3.569l15.918,71.459
		c0.477,2.155-0.875,4.296-3.031,4.78C324.419,487.694,324.123,487.724,323.841,487.724z"/>
	<path style="fill:#116FFF;" d="M335.917,487.724h-159.96c-2.211,0-3.999-1.797-3.999-3.999c0-2.219,1.788-3.999,3.999-3.999h159.96
		c2.211,0,3.998,1.78,3.998,3.999C339.916,485.927,338.128,487.724,335.917,487.724z"/>
	<path style="fill:#116FFF;" d="M483.88,471.728h-87.979c-15.34,0-27.898-12.481-27.992-27.813V267.779
		c0-15.438,12.559-27.997,27.992-27.997h87.979c15.434,0,27.994,12.56,27.994,27.997v175.957
		C511.687,459.333,499.126,471.728,483.88,471.728z M395.902,247.779c-11.027,0-19.994,8.971-19.994,19.999v175.957
		c0.062,11.083,9.037,19.995,19.994,19.995h87.979c10.889,0,19.863-8.857,19.996-19.729V267.779
		c0-11.028-8.967-19.999-19.996-19.999L395.902,247.779L395.902,247.779z"/>
	<path style="fill:#116FFF;" d="M491.878,327.919H387.904c-2.209,0-3.998-1.789-3.998-3.999v-47.988c0-2.21,1.789-3.999,3.998-3.999
		h103.975c2.211,0,4,1.789,4,3.999v47.988C495.878,326.13,494.089,327.919,491.878,327.919z M391.904,319.922h95.977v-39.99h-95.977
		V319.922z"/>
	<path style="fill:#116FFF;" d="M491.878,399.902H387.904c-2.209,0-3.998-1.789-3.998-3.999v-55.986c0-2.21,1.789-3.999,3.998-3.999
		h103.975c2.211,0,4,1.789,4,3.999v55.986C495.878,398.113,494.089,399.902,491.878,399.902z M391.904,391.905h95.977v-47.988
		h-95.977V391.905z"/>
	<path style="fill:#116FFF;" d="M451.888,263.935h-23.994c-2.209,0-3.998-1.789-3.998-3.999s1.789-3.999,3.998-3.999h23.994
		c2.211,0,4,1.789,4,3.999S454.099,263.935,451.888,263.935z"/>
	<path style="fill:#116FFF;" d="M476.117,295.927h-71.982c-2.201,0-3.998-1.789-3.998-3.999s1.797-3.999,3.998-3.999h71.982
		c2.219,0,4,1.789,4,3.999S478.335,295.927,476.117,295.927z"/>
	<path style="fill:#116FFF;" d="M459.886,311.923H420.38c-2.217,0-3.998-1.789-3.998-3.999s1.781-3.999,3.998-3.999h39.506
		c2.211,0,4,1.789,4,3.999S462.097,311.923,459.886,311.923z"/>
	<path style="fill:#116FFF;" d="M440.126,463.887c-6.607,0-11.998-5.382-11.998-11.997c0-6.616,5.391-11.997,11.998-11.997
		c6.623,0,11.996,5.381,11.996,11.997C452.123,458.504,446.749,463.887,440.126,463.887z M440.126,447.891c-2.203,0-4,1.796-4,3.999
		c0,2.202,1.797,3.999,4,3.999c2.211,0,3.998-1.797,3.998-3.999C444.125,449.686,442.337,447.891,440.126,447.891z"/>
	<path style="fill:#116FFF;" d="M491.878,415.898H387.904c-2.209,0-3.998-1.789-3.998-3.999c0-2.211,1.789-3.999,3.998-3.999
		h103.975c2.211,0,4,1.788,4,3.999C495.878,414.109,494.089,415.898,491.878,415.898z"/>
	<path style="fill:#116FFF;" d="M491.878,431.895H387.904c-2.209,0-3.998-1.789-3.998-3.999c0-2.211,1.789-3.999,3.998-3.999
		h103.975c2.211,0,4,1.788,4,3.999C495.878,430.105,494.089,431.895,491.878,431.895z"/>
	<path style="fill:#116FFF;" d="M443.89,399.902c-0.703,0-1.406-0.18-2.045-0.562c-1.898-1.125-2.516-3.585-1.391-5.483
		l23.994-40.161c0.727-1.203,2.029-1.938,3.436-1.938l0,0c1.406,0,2.711,0.734,3.438,1.945l23.994,40.153
		c1.125,1.891,0.516,4.343-1.391,5.483c-1.891,1.117-4.342,0.5-5.482-1.391l-20.559-34.397l-20.557,34.397
		C446.578,399.199,445.249,399.902,443.89,399.902z"/>
	<path style="fill:#116FFF;" d="M419.896,399.902c-0.766,0-1.529-0.219-2.201-0.664c-1.844-1.219-2.352-3.702-1.133-5.537
		l15.996-24.158c0.742-1.117,1.99-1.789,3.334-1.789l0,0c1.344,0,2.602,0.672,3.344,1.797l11.754,17.831
		c1.211,1.851,0.711,4.327-1.131,5.538c-1.852,1.218-4.328,0.703-5.547-1.133l-8.428-12.786l-12.652,19.104
		C422.458,399.277,421.193,399.902,419.896,399.902z"/>
	<path style="fill:#116FFF;" d="M131.964,295.927c-0.746,0-1.5-0.203-2.172-0.641c-1.851-1.203-2.382-3.679-1.179-5.529
		l51.991-79.992c0.738-1.133,2-1.816,3.351-1.816l0,0c1.354,0,2.616,0.684,3.354,1.82l51.987,79.98
		c1.203,1.851,0.675,4.326-1.176,5.537c-1.847,1.203-4.327,0.672-5.534-1.18l-48.636-74.825l-48.629,74.817
		C134.557,295.288,133.276,295.927,131.964,295.927z"/>
	<path style="fill:#116FFF;" d="M99.972,295.927c-0.762,0-1.535-0.219-2.218-0.672c-1.835-1.227-2.332-3.71-1.105-5.545
		l31.992-47.914c1.483-2.219,5.17-2.219,6.654,0l15.758,23.592c1.227,1.843,0.73,4.326-1.105,5.553
		c-1.847,1.211-4.327,0.727-5.549-1.102l-12.431-18.62l-28.665,42.927C102.529,295.302,101.264,295.927,99.972,295.927z"/>
	<path style="fill:#116FFF;" d="M412.132,375.909c-6.607,0-11.996-5.382-11.996-11.997c0-6.616,5.389-11.997,11.996-11.997
		c6.623,0,11.998,5.381,11.998,11.997C424.13,370.526,418.755,375.909,412.132,375.909z M412.132,359.913
		c-2.201,0-3.998,1.797-3.998,3.999s1.797,3.999,3.998,3.999c2.211,0,4-1.797,4-3.999S414.343,359.913,412.132,359.913z"/>
	<path style="fill:#116FFF;" d="M91.978,239.941c-11.024,0-19.995-8.971-19.995-19.995s8.971-19.995,19.995-19.995
		s19.995,8.971,19.995,19.995S103.002,239.941,91.978,239.941z M91.978,207.949c-6.616,0-11.997,5.382-11.997,11.997
		s5.381,11.997,11.997,11.997c6.615,0,11.997-5.382,11.997-11.997S98.593,207.949,91.978,207.949z"/>
	<path style="fill:#116FFF;" d="M483.88,71.982H27.993c-2.21,0-3.999-1.788-3.999-3.999c0-2.21,1.789-3.999,3.999-3.999H483.88
		c2.211,0,4,1.789,4,3.999C487.88,70.195,486.091,71.982,483.88,71.982z"/>
	<path style="fill:#116FFF;" d="M459.886,159.96H51.987c-2.21,0-3.999-1.788-3.999-3.999V91.978c0-2.21,1.789-3.999,3.999-3.999
		h407.899c2.211,0,4,1.789,4,3.999v63.984C463.886,158.173,462.097,159.96,459.886,159.96z M55.986,151.962h399.902V95.977H55.986
		V151.962z"/>
	<path style="fill:#116FFF;" d="M243.94,295.927H51.987c-2.21,0-3.999-1.789-3.999-3.999V179.956c0-2.21,1.789-3.999,3.999-3.999
		H243.94c2.21,0,3.999,1.789,3.999,3.999V291.93C247.939,294.138,246.15,295.927,243.94,295.927z M55.986,287.93h183.955V183.956
		H55.986V287.93z"/>
	<path style="fill:#116FFF;" d="M459.886,215.947H267.933c-2.209,0-3.998-1.789-3.998-3.999s1.789-3.999,3.998-3.999h191.953
		c2.211,0,4,1.789,4,3.999S462.097,215.947,459.886,215.947z"/>
	<path style="fill:#116FFF;" d="M459.886,191.954H267.933c-2.209,0-3.998-1.788-3.998-3.999c0-2.21,1.789-3.999,3.998-3.999h191.953
		c2.211,0,4,1.789,4,3.999C463.886,190.165,462.097,191.954,459.886,191.954z"/>
	<path style="fill:#116FFF;" d="M363.91,239.941h-95.977c-2.209,0-3.998-1.789-3.998-3.999s1.789-3.999,3.998-3.999h95.977
		c2.211,0,4,1.789,4,3.999S366.121,239.941,363.91,239.941z"/>
	<path style="fill:#116FFF;" d="M355.912,263.935h-87.979c-2.209,0-3.998-1.789-3.998-3.999s1.789-3.999,3.998-3.999h87.979
		c2.211,0,4,1.789,4,3.999S358.123,263.935,355.912,263.935z"/>
	<path style="fill:#116FFF;" d="M355.912,287.93h-87.979c-2.209,0-3.998-1.789-3.998-3.999s1.789-3.999,3.998-3.999h87.979
		c2.211,0,4,1.789,4,3.999S358.123,287.93,355.912,287.93z"/>
	<path style="fill:#116FFF;" d="M507.875,55.986c-2.209,0-3.998-1.788-3.998-3.999c0-11.399-8.592-19.995-19.996-19.995H27.993
		c-11.399,0-19.995,8.596-19.995,19.995c0,2.211-1.789,3.999-3.999,3.999S0,54.199,0,51.987c0-15.695,12.298-27.993,27.993-27.993
		H483.88c15.699,0,27.994,12.298,27.994,27.993C511.875,54.198,510.085,55.986,507.875,55.986z"/>
	<path style="fill:#116FFF;" d="M363.91,415.898H27.993C12.298,415.898,0,403.604,0,387.905v-15.996c0-2.21,1.789-3.999,3.999-3.999
		s3.999,1.789,3.999,3.999v15.996c0,11.403,8.596,19.995,19.995,19.995H363.91c2.211,0,4,1.788,4,3.999
		C367.91,414.109,366.121,415.898,363.91,415.898z"/>
	<path style="fill:#116FFF;" d="M363.91,399.824H27.993c-15.605,0-27.903-12.247-27.993-27.892v-16.098
		c0-2.21,1.789-3.999,3.999-3.999s3.999,1.789,3.999,3.999v15.996c0.066,11.419,8.662,19.995,19.995,19.995H363.91
		c2.211,0,4,1.789,4,3.999S366.121,399.824,363.91,399.824z"/>
	<path style="fill:#116FFF;" d="M3.999,359.833c-2.21,0-3.999-1.789-3.999-3.999V51.987c0-2.21,1.789-3.999,3.999-3.999
		s3.999,1.789,3.999,3.999v303.848C7.998,358.044,6.209,359.833,3.999,359.833z"/>
	<path style="fill:#116FFF;" d="M507.875,247.939c-2.209,0-3.998-1.789-3.998-3.999V51.987c0-2.21,1.789-3.999,3.998-3.999
		c2.211,0,4,1.789,4,3.999v191.953C511.875,246.15,510.085,247.939,507.875,247.939z"/>
	<path style="fill:#116FFF;" d="M483.88,55.986H27.993c-2.21,0-3.999-1.788-3.999-3.999c0-2.21,1.789-3.999,3.999-3.999H483.88
		c2.211,0,4,1.789,4,3.999C487.88,54.198,486.091,55.986,483.88,55.986z"/>
	<path style="fill:#116FFF;" d="M363.91,319.922H27.993c-2.21,0-3.999-1.789-3.999-3.999s1.789-3.999,3.999-3.999H363.91
		c2.211,0,4,1.789,4,3.999S366.121,319.922,363.91,319.922z"/>
	<path style="fill:#116FFF;" d="M27.993,319.922c-2.21,0-3.999-1.789-3.999-3.999V51.987c0-2.21,1.789-3.999,3.999-3.999
		c2.21,0,3.999,1.789,3.999,3.999v263.936C31.992,318.133,30.204,319.922,27.993,319.922z"/>
	<path style="fill:#116FFF;" d="M483.88,239.941c-2.209,0-3.998-1.789-3.998-3.999V51.987c0-2.21,1.789-3.999,3.998-3.999
		c2.211,0,4,1.789,4,3.999v183.955C487.88,238.152,486.091,239.941,483.88,239.941z"/>
	<path style="fill:#116FFF;" d="M483.88,487.88h-87.979c-15.699,0-27.992-12.294-27.992-27.993v-15.996
		c0-2.211,1.789-3.999,3.998-3.999c2.211,0,4,1.788,4,3.999v15.996c0,11.403,8.592,19.995,19.994,19.995h87.979
		c11.404,0,19.996-8.592,19.996-19.995v-15.84c0-2.203,1.789-3.999,3.998-3.999c2.211,0,4,1.796,4,3.999v15.84
		C511.875,475.586,499.58,487.88,483.88,487.88z"/>
	<path style="fill:#116FFF;" d="M427.894,127.969H83.979c-2.21,0-3.999-1.788-3.999-3.999c0-2.21,1.789-3.999,3.999-3.999h343.915
		c2.211,0,4,1.789,4,3.999C431.894,126.18,430.105,127.969,427.894,127.969z"/>
</g>
<g>
</g>
<g>
</g>
<g>
</g>
<g>
</g>
<g>
</g>
<g>
</g>
<g>
</g>
<g>
</g>
<g>
</g>
<g>
</g>
<g>
</g>
<g>
</g>
<g>
</g>
<g>
</g>
<g>
</g>
</svg>
