<?xml version="1.0" encoding="iso-8859-1"?>
<!-- Generator: Adobe Illustrator 19.0.0, SVG Export Plug-In . SVG Version: 6.00 Build 0)  -->
<svg version="1.1" id="Capa_1" xmlns="http://www.w3.org/2000/svg" xmlns:xlink="http://www.w3.org/1999/xlink" x="0px" y="0px"
	 viewBox="0 0 511.918 511.918" style="enable-background:new 0 0 511.918 511.918;" xml:space="preserve">
<path style="fill:#FFFFFF;" d="M471.922,131.979v83.986c0,11.038-8.96,19.997-19.997,19.997s-19.997-8.959-19.997-19.997v-83.986
	H471.922z"/>
<path style="fill:#D7E9FF;" d="M431.928,215.965c0,11.038,8.96,19.997,19.997,19.997h-59.99V24.152
	c0-11.115,8.959-19.997,19.996-19.997c11.038,0,19.997,8.881,19.997,19.997v107.827L431.928,215.965L431.928,215.965z"/>
<path style="fill:#94C1FF;" d="M411.931,20.153c11.038,0,19.997,8.881,19.997,19.997V24.152c0-11.115-8.959-19.997-19.997-19.997
	c-11.037,0-19.996,8.881-19.996,19.997V40.15C391.935,29.035,400.894,20.153,411.931,20.153z"/>
<path style="fill:#D7E9FF;" d="M451.925,219.965c-11.037,0-19.997-8.881-19.997-19.997v15.998c0,11.116,8.96,19.997,19.997,19.997
	s19.997-8.881,19.997-19.997v-15.998C471.922,211.084,462.962,219.965,451.925,219.965z"/>
<polygon style="fill:#94C1FF;" points="327.944,227.964 351.94,227.964 351.94,243.961 79.984,243.961 79.984,227.964 
	103.98,227.964 135.976,227.964 167.971,227.964 199.965,227.964 231.96,227.964 263.955,227.964 295.95,227.964 "/>
<g>
	<polygon style="fill:#D7E9FF;" points="135.976,91.985 167.971,91.985 263.955,91.985 295.95,91.985 295.95,107.983 
		287.951,107.983 143.975,107.983 135.976,107.983 	"/>
	<polygon style="fill:#D7E9FF;" points="143.975,107.983 287.951,107.983 271.954,187.97 159.972,187.97 	"/>
</g>
<polygon style="fill:#FFFFFF;" points="143.975,107.983 159.972,187.97 167.971,187.97 151.973,107.983 "/>
<polygon style="fill:#94C1FF;" points="287.951,107.983 271.954,187.97 263.955,187.97 279.952,107.983 "/>
<g>
	<path style="fill:#FFFFFF;" d="M295.95,107.983V91.985h-31.995h-95.984h-31.995v15.998h7.999l15.997,79.987h111.982l15.997-79.987
		H295.95z M59.987,4H411.93v0.156c-11.037,0-19.996,8.881-19.996,19.997v211.81v271.956l-23.996-7.998l-23.996,7.998l-23.996-7.998
		l-23.996,7.998l-23.996-7.998l-23.997,7.998l-23.996-7.998l-23.996,7.998l-23.996-7.998l-23.996,7.998l-23.996-7.998l-31.994,7.998
		l-31.995-7.998l-23.996,7.998V23.996C39.991,12.959,48.95,4,59.987,4z M351.94,243.961v-15.997h-23.996H295.95h-31.995H231.96
		h-31.995h-31.994h-31.995h-31.995H79.984v15.997H351.94z"/>
	<rect x="135.98" y="91.99" style="fill:#FFFFFF;" width="7.999" height="15.998"/>
</g>
<rect x="287.96" y="91.99" style="fill:#94C1FF;" width="7.999" height="15.998"/>
<rect x="79.986" y="227.96" style="fill:#D7E9FF;" width="7.999" height="15.997"/>
<rect x="343.95" y="227.96" style="fill:#5C9EFF;" width="7.998" height="15.997"/>
<g>
	<path style="fill:#116FFF;" d="M391.935,511.918c-0.422,0-0.844-0.062-1.266-0.203l-22.73-7.577l-22.73,7.577
		c-0.82,0.266-1.711,0.266-2.531,0l-22.73-7.577l-22.73,7.577c-0.82,0.266-1.711,0.266-2.531,0l-22.73-7.577l-22.731,7.577
		c-0.82,0.266-1.71,0.266-2.53,0l-22.731-7.577l-22.73,7.577c-0.82,0.266-1.711,0.266-2.53,0l-22.731-7.577l-22.73,7.577
		c-0.82,0.266-1.711,0.266-2.53,0l-22.892-7.632l-30.866,7.718c-0.633,0.156-1.304,0.156-1.937,0l-30.866-7.718l-22.891,7.632
		c-1.219,0.383-2.562,0.195-3.605-0.555s-1.66-1.953-1.66-3.242V23.996C35.997,10.764,46.762,0,59.993,0h351.943
		c2.211,0,4,1.789,4,4s-1.789,4-4,4H59.987C51.165,8,43.99,15.179,43.99,23.997v478.376l18.731-6.249
		c0.723-0.234,1.496-0.266,2.234-0.086l31.026,7.757l31.025-7.757c0.734-0.18,1.516-0.148,2.234,0.086l22.73,7.577l22.731-7.577
		c0.819-0.266,1.71-0.266,2.53,0l22.73,7.577l22.731-7.577c0.819-0.266,1.71-0.266,2.53,0l22.73,7.577l22.731-7.577
		c0.82-0.266,1.711-0.266,2.531,0l22.73,7.577l22.73-7.577c0.82-0.266,1.711-0.266,2.531,0l22.73,7.577l22.73-7.577
		c0.82-0.266,1.711-0.266,2.531,0l23.996,7.999c2.093,0.703,3.226,2.968,2.53,5.062
		C395.168,510.855,393.606,511.918,391.935,511.918z"/>
	<path style="fill:#116FFF;" d="M391.935,511.918c-2.211,0-4-1.789-4-4V24.152c0-2.21,1.789-3.999,4-3.999s3.999,1.789,3.999,3.999
		v483.766C395.934,510.129,394.145,511.918,391.935,511.918z"/>
	<path style="fill:#116FFF;" d="M431.928,28.152c-2.21,0-3.999-1.789-3.999-4c0-8.818-7.171-15.997-15.998-15.997
		c-8.826,0-15.997,7.179-15.997,15.997c0,2.211-1.788,4-3.999,4s-4-1.789-4-4c0-13.232,10.765-23.996,23.996-23.996
		c13.232,0,23.996,10.764,23.996,23.996C435.927,26.363,434.139,28.152,431.928,28.152z"/>
	<path style="fill:#116FFF;" d="M451.925,239.962c-13.232,0-23.996-10.764-23.996-23.997c0-2.21,1.789-4,3.999-4
		c2.211,0,3.999,1.789,3.999,4c0,8.819,7.172,15.998,15.998,15.998s15.997-7.179,15.997-15.998c0-2.21,1.789-4,4-4
		c2.21,0,3.999,1.789,3.999,4C475.921,229.198,465.157,239.962,451.925,239.962z"/>
	<path style="fill:#116FFF;" d="M471.922,219.965c-2.211,0-4-1.789-4-4v-83.986c0-2.21,1.789-4,4-4c2.21,0,3.999,1.789,3.999,4
		v83.986C475.921,218.176,474.132,219.965,471.922,219.965z"/>
	<path style="fill:#116FFF;" d="M431.928,219.965c-2.21,0-3.999-1.789-3.999-4V24.152c0-2.21,1.789-3.999,3.999-3.999
		c2.211,0,3.999,1.789,3.999,3.999v191.813C435.927,218.176,434.139,219.965,431.928,219.965z"/>
	<path style="fill:#116FFF;" d="M295.95,111.982h-7.999c-2.211,0-3.999-1.789-3.999-4s1.788-4,3.999-4h3.999v-7.999H139.975v7.999h4
		c2.21,0,3.999,1.789,3.999,4s-1.789,4-3.999,4h-7.999c-2.211,0-3.999-1.789-3.999-4V91.985c0-2.21,1.788-3.999,3.999-3.999h159.975
		c2.21,0,3.999,1.789,3.999,3.999v15.998C299.949,110.193,298.16,111.982,295.95,111.982z"/>
	<path style="fill:#116FFF;" d="M271.954,191.969H159.972c-1.906,0-3.546-1.343-3.921-3.218l-15.998-79.987
		c-0.234-1.171,0.07-2.39,0.828-3.319c0.762-0.922,1.895-1.461,3.094-1.461h143.977c1.203,0,2.327,0.539,3.093,1.461
		c0.758,0.93,1.062,2.148,0.828,3.319l-15.997,79.987C275.5,190.626,273.859,191.969,271.954,191.969z M163.248,183.971h105.425
		l14.404-71.988H148.852L163.248,183.971z"/>
	<path style="fill:#116FFF;" d="M215.963,167.973c-2.211,0-4-1.789-4-4v-31.994c0-2.21,1.789-4,4-4c2.21,0,3.999,1.789,3.999,4
		v31.995C219.962,166.185,218.173,167.973,215.963,167.973z"/>
	<path style="fill:#116FFF;" d="M239.959,167.973c-2.211,0-4-1.789-4-4v-31.994c0-2.21,1.789-4,4-4c2.21,0,3.999,1.789,3.999,4
		v31.995C243.958,166.185,242.169,167.973,239.959,167.973z"/>
	<path style="fill:#116FFF;" d="M191.967,167.973c-2.211,0-4-1.789-4-4v-31.994c0-2.21,1.789-4,4-4c2.21,0,3.999,1.789,3.999,4
		v31.995C195.966,166.185,194.177,167.973,191.967,167.973z"/>
	<path style="fill:#116FFF;" d="M167.967,95.985c-0.875,0-1.758-0.289-2.496-0.875c-1.723-1.382-2.004-3.898-0.625-5.624
		l31.995-39.994c1.391-1.719,3.897-1.992,5.624-0.625c1.723,1.383,2.004,3.898,0.625,5.624l-31.995,39.994
		C170.302,95.469,169.142,95.985,167.967,95.985z"/>
	<path style="fill:#116FFF;" d="M263.955,95.985c-1.172,0-2.332-0.516-3.124-1.5l-31.995-39.994
		c-1.379-1.726-1.098-4.241,0.625-5.624c1.726-1.367,4.241-1.094,5.624,0.625l31.994,39.994c1.375,1.726,1.094,4.242-0.625,5.624
		C265.721,95.696,264.83,95.985,263.955,95.985z"/>
	<path style="fill:#116FFF;" d="M351.94,247.96H79.984c-2.21,0-3.999-1.788-3.999-3.999v-15.997c0-2.211,1.789-4,3.999-4H351.94
		c2.211,0,4,1.789,4,4v15.997C355.94,246.172,354.151,247.96,351.94,247.96z M83.984,239.962h263.957v-7.999H83.984V239.962z"/>
	<path style="fill:#116FFF;" d="M207.964,287.954H79.984c-2.21,0-3.999-1.789-3.999-3.999c0-2.211,1.789-4,3.999-4h127.979
		c2.211,0,3.999,1.789,3.999,4C211.963,286.165,210.175,287.954,207.964,287.954z"/>
	<path style="fill:#116FFF;" d="M351.94,287.954h-23.996c-2.21,0-3.999-1.789-3.999-3.999c0-2.211,1.789-4,3.999-4h23.996
		c2.211,0,4,1.789,4,4C355.94,286.165,354.151,287.954,351.94,287.954z"/>
	<path style="fill:#116FFF;" d="M231.96,319.949H79.984c-2.21,0-3.999-1.789-3.999-4s1.789-3.999,3.999-3.999H231.96
		c2.211,0,3.999,1.788,3.999,3.999S234.171,319.949,231.96,319.949z"/>
	<path style="fill:#116FFF;" d="M351.94,319.949h-23.996c-2.21,0-3.999-1.789-3.999-4s1.789-3.999,3.999-3.999h23.996
		c2.211,0,4,1.788,4,3.999S354.151,319.949,351.94,319.949z"/>
	<path style="fill:#116FFF;" d="M199.965,351.943H79.984c-2.21,0-3.999-1.789-3.999-3.999c0-2.211,1.789-3.999,3.999-3.999h119.98
		c2.211,0,4,1.788,4,3.999C203.965,350.154,202.176,351.943,199.965,351.943z"/>
	<path style="fill:#116FFF;" d="M351.94,351.943h-23.996c-2.21,0-3.999-1.789-3.999-3.999c0-2.211,1.789-3.999,3.999-3.999h23.996
		c2.211,0,4,1.788,4,3.999C355.94,350.154,354.151,351.943,351.94,351.943z"/>
	<path style="fill:#116FFF;" d="M351.94,399.936H79.984c-2.21,0-3.999-1.789-3.999-3.999c0-2.211,1.789-3.999,3.999-3.999H351.94
		c2.211,0,4,1.788,4,3.999C355.94,398.147,354.151,399.936,351.94,399.936z"/>
	<path style="fill:#116FFF;" d="M143.975,447.928h-63.99c-2.21,0-3.999-1.788-3.999-3.999c0-2.21,1.789-3.999,3.999-3.999h63.99
		c2.21,0,3.999,1.789,3.999,3.999C147.974,446.14,146.185,447.928,143.975,447.928z"/>
	<path style="fill:#116FFF;" d="M311.947,447.928h-23.996c-2.211,0-3.999-1.788-3.999-3.999c0-2.21,1.788-3.999,3.999-3.999h23.996
		c2.211,0,3.999,1.789,3.999,3.999C315.946,446.14,314.158,447.928,311.947,447.928z"/>
	<path style="fill:#116FFF;" d="M351.94,455.927h-15.997c-2.21,0-3.999-1.789-3.999-3.999c0-2.211,1.789-4,3.999-4h8.53
		l-11.857-17.779c-0.812-1.226-0.891-2.804-0.203-4.108c0.703-1.297,2.054-2.109,3.53-2.109h15.997c2.211,0,4,1.789,4,4
		c0,2.21-1.789,3.999-4,3.999h-8.529l11.857,17.778c0.812,1.227,0.891,2.805,0.203,4.109
		C354.768,455.114,353.417,455.927,351.94,455.927z"/>
	<path style="fill:#116FFF;" d="M343.942,431.931c-2.211,0-4-1.789-4-3.999v-4c0-2.21,1.789-3.999,4-3.999s3.999,1.789,3.999,3.999
		v4C347.941,430.142,346.153,431.931,343.942,431.931z"/>
	<path style="fill:#116FFF;" d="M343.942,459.926c-2.211,0-4-1.788-4-3.999v-3.999c0-2.211,1.789-4,4-4s3.999,1.789,3.999,4v3.999
		C347.941,458.138,346.153,459.926,343.942,459.926z"/>
	<path style="fill:#116FFF;" d="M103.98,239.962c-2.21,0-3.999-1.789-3.999-4v-7.998c0-2.211,1.789-4,3.999-4c2.211,0,4,1.789,4,4
		v7.998C107.98,238.173,106.191,239.962,103.98,239.962z"/>
	<path style="fill:#116FFF;" d="M135.976,239.962c-2.211,0-3.999-1.789-3.999-4v-7.998c0-2.211,1.788-4,3.999-4s3.999,1.789,3.999,4
		v7.998C139.975,238.173,138.186,239.962,135.976,239.962z"/>
	<path style="fill:#116FFF;" d="M167.971,239.962c-2.211,0-4-1.789-4-4v-7.998c0-2.211,1.789-4,4-4c2.21,0,3.999,1.789,3.999,4
		v7.998C171.97,238.173,170.181,239.962,167.971,239.962z"/>
	<path style="fill:#116FFF;" d="M199.965,239.962c-2.21,0-3.999-1.789-3.999-4v-7.998c0-2.211,1.789-4,3.999-4c2.211,0,4,1.789,4,4
		v7.998C203.965,238.173,202.176,239.962,199.965,239.962z"/>
	<path style="fill:#116FFF;" d="M231.96,239.962c-2.211,0-3.999-1.789-3.999-4v-7.998c0-2.211,1.788-4,3.999-4s3.999,1.789,3.999,4
		v7.998C235.959,238.173,234.171,239.962,231.96,239.962z"/>
	<path style="fill:#116FFF;" d="M263.955,239.962c-2.211,0-3.999-1.789-3.999-4v-7.998c0-2.211,1.788-4,3.999-4
		c2.21,0,3.999,1.789,3.999,4v7.998C267.954,238.173,266.165,239.962,263.955,239.962z"/>
	<path style="fill:#116FFF;" d="M295.95,239.962c-2.211,0-4-1.789-4-4v-7.998c0-2.211,1.789-4,4-4c2.21,0,3.999,1.789,3.999,4v7.998
		C299.949,238.173,298.16,239.962,295.95,239.962z"/>
	<path style="fill:#116FFF;" d="M327.944,239.962c-2.21,0-3.999-1.789-3.999-4v-7.998c0-2.211,1.789-4,3.999-4c2.211,0,4,1.789,4,4
		v7.998C331.944,238.173,330.155,239.962,327.944,239.962z"/>
	<path style="fill:#116FFF;" d="M451.925,239.962h-59.99c-2.211,0-4-1.789-4-4c0-2.21,1.789-3.999,4-3.999h59.99
		c2.211,0,3.999,1.789,3.999,3.999C455.924,238.173,454.136,239.962,451.925,239.962z"/>
	<path style="fill:#116FFF;" d="M471.922,135.979h-39.994c-2.21,0-3.999-1.789-3.999-4s1.789-4,3.999-4h39.994
		c2.21,0,3.999,1.789,3.999,4S474.132,135.979,471.922,135.979z"/>
</g>
<g>
</g>
<g>
</g>
<g>
</g>
<g>
</g>
<g>
</g>
<g>
</g>
<g>
</g>
<g>
</g>
<g>
</g>
<g>
</g>
<g>
</g>
<g>
</g>
<g>
</g>
<g>
</g>
<g>
</g>
</svg>
